ISO-10303-21;
HEADER;
/* Generated by software containing ST-Developer
 * from STEP Tools, Inc. (www.steptools.com) 
 */
/* OPTION: using custom renumber hook */

FILE_DESCRIPTION(
/* description */ ('STEP AP242 Edition 2',
'CAx-IF Rec.Pracs.---Representation and Presentation of Product Manufa
cturing Information (PMI)---4.0---2014-10-13',
'CAx-IF Rec.Pracs.---3D Tessellated Geometry---0.4---2014-09-14','2;1',
'CAx-IF Rec.Pracs.---User Defined Attributes---1.5---2016-08-15'),
/* implementation_level */ '2;1');

FILE_NAME(
/* name */ 'Router - CableChannelHolderX',
/* time_stamp */ '2026-08-15T23:20:14Z',
/* author */ (''),
/* organization */ (''),
/* preprocessor_version */ 'ST-DEVELOPER v20',
/* originating_system */ 'ONSHAPE BY PTC INC, 1.219',
/* authorisation */ '  ');

FILE_SCHEMA (('AP242_MANAGED_MODEL_BASED_3D_ENGINEERING_MIM_LF { 1 0 10303 442 3 1 4 }'));
ENDSEC;

DATA;
#10=SHAPE_REPRESENTATION_RELATIONSHIP('','',#255,#11);
#11=ADVANCED_BREP_SHAPE_REPRESENTATION('',(#253),#415);
#12=PLANE('',#260);
#13=PLANE('',#261);
#14=PLANE('',#262);
#15=PLANE('',#272);
#16=PLANE('',#276);
#17=PLANE('',#277);
#18=PLANE('',#278);
#19=PLANE('',#279);
#20=LINE('',#353,#40);
#21=LINE('',#357,#41);
#22=LINE('',#359,#42);
#23=LINE('',#361,#43);
#24=LINE('',#363,#44);
#25=LINE('',#365,#45);
#26=LINE('',#367,#46);
#27=LINE('',#369,#47);
#28=LINE('',#371,#48);
#29=LINE('',#373,#49);
#30=LINE('',#375,#50);
#31=LINE('',#377,#51);
#32=LINE('',#379,#52);
#33=LINE('',#381,#53);
#34=LINE('',#383,#54);
#35=LINE('',#387,#55);
#36=LINE('',#401,#56);
#37=LINE('',#402,#57);
#38=LINE('',#409,#58);
#39=LINE('',#412,#59);
#40=VECTOR('',#286,1.);
#41=VECTOR('',#289,1.);
#42=VECTOR('',#292,1.);
#43=VECTOR('',#293,1.);
#44=VECTOR('',#294,1.);
#45=VECTOR('',#295,1.);
#46=VECTOR('',#296,1.);
#47=VECTOR('',#299,1.);
#48=VECTOR('',#300,1.);
#49=VECTOR('',#301,1.);
#50=VECTOR('',#304,1.);
#51=VECTOR('',#305,1.);
#52=VECTOR('',#306,1.);
#53=VECTOR('',#307,1.);
#54=VECTOR('',#308,1.);
#55=VECTOR('',#313,1.);
#56=VECTOR('',#330,1.);
#57=VECTOR('',#331,1.);
#58=VECTOR('',#340,1.);
#59=VECTOR('',#345,1.);
#60=ORIENTED_EDGE('',*,*,#120,.F.);
#61=ORIENTED_EDGE('',*,*,#121,.F.);
#62=ORIENTED_EDGE('',*,*,#122,.T.);
#63=ORIENTED_EDGE('',*,*,#123,.T.);
#64=ORIENTED_EDGE('',*,*,#124,.T.);
#65=ORIENTED_EDGE('',*,*,#125,.F.);
#66=ORIENTED_EDGE('',*,*,#126,.F.);
#67=ORIENTED_EDGE('',*,*,#127,.T.);
#68=ORIENTED_EDGE('',*,*,#128,.F.);
#69=ORIENTED_EDGE('',*,*,#121,.T.);
#70=ORIENTED_EDGE('',*,*,#129,.F.);
#71=ORIENTED_EDGE('',*,*,#130,.F.);
#72=ORIENTED_EDGE('',*,*,#131,.T.);
#73=ORIENTED_EDGE('',*,*,#125,.T.);
#74=ORIENTED_EDGE('',*,*,#132,.T.);
#75=ORIENTED_EDGE('',*,*,#133,.F.);
#76=ORIENTED_EDGE('',*,*,#134,.F.);
#77=ORIENTED_EDGE('',*,*,#135,.F.);
#78=ORIENTED_EDGE('',*,*,#136,.F.);
#79=ORIENTED_EDGE('',*,*,#130,.T.);
#80=ORIENTED_EDGE('',*,*,#137,.T.);
#81=ORIENTED_EDGE('',*,*,#138,.F.);
#82=ORIENTED_EDGE('',*,*,#139,.F.);
#83=ORIENTED_EDGE('',*,*,#133,.T.);
#84=ORIENTED_EDGE('',*,*,#140,.F.);
#85=ORIENTED_EDGE('',*,*,#141,.T.);
#86=ORIENTED_EDGE('',*,*,#142,.F.);
#87=ORIENTED_EDGE('',*,*,#143,.T.);
#88=ORIENTED_EDGE('',*,*,#144,.F.);
#89=ORIENTED_EDGE('',*,*,#123,.F.);
#90=ORIENTED_EDGE('',*,*,#145,.T.);
#91=ORIENTED_EDGE('',*,*,#138,.T.);
#92=ORIENTED_EDGE('',*,*,#146,.F.);
#93=ORIENTED_EDGE('',*,*,#147,.T.);
#94=ORIENTED_EDGE('',*,*,#148,.F.);
#95=ORIENTED_EDGE('',*,*,#134,.T.);
#96=ORIENTED_EDGE('',*,*,#139,.T.);
#97=ORIENTED_EDGE('',*,*,#145,.F.);
#98=ORIENTED_EDGE('',*,*,#122,.F.);
#99=ORIENTED_EDGE('',*,*,#128,.T.);
#100=ORIENTED_EDGE('',*,*,#142,.T.);
#101=ORIENTED_EDGE('',*,*,#140,.T.);
#102=ORIENTED_EDGE('',*,*,#146,.T.);
#103=ORIENTED_EDGE('',*,*,#120,.T.);
#104=ORIENTED_EDGE('',*,*,#144,.T.);
#105=ORIENTED_EDGE('',*,*,#137,.F.);
#106=ORIENTED_EDGE('',*,*,#132,.F.);
#107=ORIENTED_EDGE('',*,*,#129,.T.);
#108=ORIENTED_EDGE('',*,*,#124,.F.);
#109=ORIENTED_EDGE('',*,*,#143,.F.);
#110=ORIENTED_EDGE('',*,*,#141,.F.);
#111=ORIENTED_EDGE('',*,*,#147,.F.);
#112=ORIENTED_EDGE('',*,*,#148,.T.);
#113=ORIENTED_EDGE('',*,*,#127,.F.);
#114=ORIENTED_EDGE('',*,*,#149,.F.);
#115=ORIENTED_EDGE('',*,*,#135,.T.);
#116=ORIENTED_EDGE('',*,*,#131,.F.);
#117=ORIENTED_EDGE('',*,*,#136,.T.);
#118=ORIENTED_EDGE('',*,*,#149,.T.);
#119=ORIENTED_EDGE('',*,*,#126,.T.);
#120=EDGE_CURVE('',#150,#151,#172,.T.);
#121=EDGE_CURVE('',#152,#150,#20,.T.);
#122=EDGE_CURVE('',#152,#153,#173,.T.);
#123=EDGE_CURVE('',#153,#151,#21,.T.);
#124=EDGE_CURVE('',#150,#154,#22,.T.);
#125=EDGE_CURVE('',#155,#154,#23,.T.);
#126=EDGE_CURVE('',#156,#155,#24,.T.);
#127=EDGE_CURVE('',#156,#157,#25,.T.);
#128=EDGE_CURVE('',#152,#157,#26,.T.);
#129=EDGE_CURVE('',#158,#154,#27,.T.);
#130=EDGE_CURVE('',#159,#158,#28,.T.);
#131=EDGE_CURVE('',#159,#155,#29,.T.);
#132=EDGE_CURVE('',#158,#160,#30,.T.);
#133=EDGE_CURVE('',#161,#160,#31,.T.);
#134=EDGE_CURVE('',#162,#161,#32,.T.);
#135=EDGE_CURVE('',#163,#162,#33,.T.);
#136=EDGE_CURVE('',#159,#163,#34,.T.);
#137=EDGE_CURVE('',#160,#164,#174,.T.);
#138=EDGE_CURVE('',#165,#164,#35,.T.);
#139=EDGE_CURVE('',#161,#165,#175,.T.);
#140=EDGE_CURVE('',#166,#166,#176,.T.);
#141=EDGE_CURVE('',#167,#167,#177,.T.);
#142=EDGE_CURVE('',#168,#168,#178,.T.);
#143=EDGE_CURVE('',#169,#169,#179,.T.);
#144=EDGE_CURVE('',#151,#164,#36,.T.);
#145=EDGE_CURVE('',#153,#165,#37,.T.);
#146=EDGE_CURVE('',#170,#170,#180,.T.);
#147=EDGE_CURVE('',#171,#171,#181,.T.);
#148=EDGE_CURVE('',#162,#157,#38,.T.);
#149=EDGE_CURVE('',#163,#156,#39,.T.);
#150=VERTEX_POINT('',#351);
#151=VERTEX_POINT('',#352);
#152=VERTEX_POINT('',#354);
#153=VERTEX_POINT('',#356);
#154=VERTEX_POINT('',#360);
#155=VERTEX_POINT('',#362);
#156=VERTEX_POINT('',#364);
#157=VERTEX_POINT('',#366);
#158=VERTEX_POINT('',#370);
#159=VERTEX_POINT('',#372);
#160=VERTEX_POINT('',#376);
#161=VERTEX_POINT('',#378);
#162=VERTEX_POINT('',#380);
#163=VERTEX_POINT('',#382);
#164=VERTEX_POINT('',#386);
#165=VERTEX_POINT('',#388);
#166=VERTEX_POINT('',#392);
#167=VERTEX_POINT('',#394);
#168=VERTEX_POINT('',#397);
#169=VERTEX_POINT('',#399);
#170=VERTEX_POINT('',#405);
#171=VERTEX_POINT('',#407);
#172=CIRCLE('',#258,0.005);
#173=CIRCLE('',#259,0.005);
#174=CIRCLE('',#264,0.005);
#175=CIRCLE('',#265,0.005);
#176=CIRCLE('',#267,0.00275);
#177=CIRCLE('',#268,0.00275);
#178=CIRCLE('',#270,0.00275);
#179=CIRCLE('',#271,0.00275);
#180=CIRCLE('',#274,0.00275);
#181=CIRCLE('',#275,0.00275);
#182=EDGE_LOOP('',(#60,#61,#62,#63));
#183=EDGE_LOOP('',(#64,#65,#66,#67,#68,#69));
#184=EDGE_LOOP('',(#70,#71,#72,#73));
#185=EDGE_LOOP('',(#74,#75,#76,#77,#78,#79));
#186=EDGE_LOOP('',(#80,#81,#82,#83));
#187=EDGE_LOOP('',(#84));
#188=EDGE_LOOP('',(#85));
#189=EDGE_LOOP('',(#86));
#190=EDGE_LOOP('',(#87));
#191=EDGE_LOOP('',(#88,#89,#90,#91));
#192=EDGE_LOOP('',(#92));
#193=EDGE_LOOP('',(#93));
#194=EDGE_LOOP('',(#94,#95,#96,#97,#98,#99));
#195=EDGE_LOOP('',(#100));
#196=EDGE_LOOP('',(#101));
#197=EDGE_LOOP('',(#102));
#198=EDGE_LOOP('',(#103,#104,#105,#106,#107,#108));
#199=EDGE_LOOP('',(#109));
#200=EDGE_LOOP('',(#110));
#201=EDGE_LOOP('',(#111));
#202=EDGE_LOOP('',(#112,#113,#114,#115));
#203=EDGE_LOOP('',(#116,#117,#118,#119));
#204=FACE_BOUND('',#182,.T.);
#205=FACE_BOUND('',#183,.T.);
#206=FACE_BOUND('',#184,.T.);
#207=FACE_BOUND('',#185,.T.);
#208=FACE_BOUND('',#186,.T.);
#209=FACE_BOUND('',#187,.T.);
#210=FACE_BOUND('',#188,.T.);
#211=FACE_BOUND('',#189,.T.);
#212=FACE_BOUND('',#190,.T.);
#213=FACE_BOUND('',#191,.T.);
#214=FACE_BOUND('',#192,.T.);
#215=FACE_BOUND('',#193,.T.);
#216=FACE_BOUND('',#194,.T.);
#217=FACE_BOUND('',#195,.T.);
#218=FACE_BOUND('',#196,.T.);
#219=FACE_BOUND('',#197,.T.);
#220=FACE_BOUND('',#198,.T.);
#221=FACE_BOUND('',#199,.T.);
#222=FACE_BOUND('',#200,.T.);
#223=FACE_BOUND('',#201,.T.);
#224=FACE_BOUND('',#202,.T.);
#225=FACE_BOUND('',#203,.T.);
#226=CYLINDRICAL_SURFACE('',#257,0.005);
#227=CYLINDRICAL_SURFACE('',#263,0.005);
#228=CYLINDRICAL_SURFACE('',#266,0.00275);
#229=CYLINDRICAL_SURFACE('',#269,0.00275);
#230=CYLINDRICAL_SURFACE('',#273,0.00275);
#231=ADVANCED_FACE('',(#204),#226,.T.);
#232=ADVANCED_FACE('',(#205),#12,.F.);
#233=ADVANCED_FACE('',(#206),#13,.T.);
#234=ADVANCED_FACE('',(#207),#14,.F.);
#235=ADVANCED_FACE('',(#208),#227,.T.);
#236=ADVANCED_FACE('',(#209,#210),#228,.F.);
#237=ADVANCED_FACE('',(#211,#212),#229,.F.);
#238=ADVANCED_FACE('',(#213),#15,.T.);
#239=ADVANCED_FACE('',(#214,#215),#230,.F.);
#240=ADVANCED_FACE('',(#216,#217,#218,#219),#16,.T.);
#241=ADVANCED_FACE('',(#220,#221,#222,#223),#17,.F.);
#242=ADVANCED_FACE('',(#224),#18,.F.);
#243=ADVANCED_FACE('',(#225),#19,.T.);
#244=CLOSED_SHELL('',(#231,#232,#233,#234,#235,#236,#237,#238,#239,#240,
#241,#242,#243));
#245=STYLED_ITEM('',(#246),#253);
#246=PRESENTATION_STYLE_ASSIGNMENT((#247));
#247=SURFACE_STYLE_USAGE(.BOTH.,#248);
#248=SURFACE_SIDE_STYLE('',(#249));
#249=SURFACE_STYLE_FILL_AREA(#250);
#250=FILL_AREA_STYLE('',(#251));
#251=FILL_AREA_STYLE_COLOUR('',#252);
#252=COLOUR_RGB('',0.498039215686275,0.498039215686275,0.498039215686275);
#253=MANIFOLD_SOLID_BREP('CableChannelHolderX',#244);
#254=SHAPE_DEFINITION_REPRESENTATION(#420,#255);
#255=SHAPE_REPRESENTATION('CableChannelHolderX',(#256),#415);
#256=AXIS2_PLACEMENT_3D('',#348,#280,#281);
#257=AXIS2_PLACEMENT_3D('',#349,#282,#283);
#258=AXIS2_PLACEMENT_3D('',#350,#284,#285);
#259=AXIS2_PLACEMENT_3D('',#355,#287,#288);
#260=AXIS2_PLACEMENT_3D('',#358,#290,#291);
#261=AXIS2_PLACEMENT_3D('',#368,#297,#298);
#262=AXIS2_PLACEMENT_3D('',#374,#302,#303);
#263=AXIS2_PLACEMENT_3D('',#384,#309,#310);
#264=AXIS2_PLACEMENT_3D('',#385,#311,#312);
#265=AXIS2_PLACEMENT_3D('',#389,#314,#315);
#266=AXIS2_PLACEMENT_3D('',#390,#316,#317);
#267=AXIS2_PLACEMENT_3D('',#391,#318,#319);
#268=AXIS2_PLACEMENT_3D('',#393,#320,#321);
#269=AXIS2_PLACEMENT_3D('',#395,#322,#323);
#270=AXIS2_PLACEMENT_3D('',#396,#324,#325);
#271=AXIS2_PLACEMENT_3D('',#398,#326,#327);
#272=AXIS2_PLACEMENT_3D('',#400,#328,#329);
#273=AXIS2_PLACEMENT_3D('',#403,#332,#333);
#274=AXIS2_PLACEMENT_3D('',#404,#334,#335);
#275=AXIS2_PLACEMENT_3D('',#406,#336,#337);
#276=AXIS2_PLACEMENT_3D('',#408,#338,#339);
#277=AXIS2_PLACEMENT_3D('',#410,#341,#342);
#278=AXIS2_PLACEMENT_3D('',#411,#343,#344);
#279=AXIS2_PLACEMENT_3D('',#413,#346,#347);
#280=DIRECTION('',(0.,0.,1.));
#281=DIRECTION('',(1.,0.,0.));
#282=DIRECTION('',(-1.30719991189349E-15,1.,-5.72862171146041E-14));
#283=DIRECTION('',(0.,5.72862171146041E-14,1.));
#284=DIRECTION('',(-1.30719991189349E-15,1.,-5.72862171146041E-14));
#285=DIRECTION('',(0.,-5.72862171146041E-14,-1.));
#286=DIRECTION('',(-1.30719991189349E-15,1.,-5.72862171146041E-14));
#287=DIRECTION('',(-1.30719991189349E-15,1.,-5.72862171146041E-14));
#288=DIRECTION('',(0.,-5.72862171146041E-14,-1.));
#289=DIRECTION('',(-1.30719991189349E-15,1.,-5.72862171146041E-14));
#290=DIRECTION('',(1.,1.30719991189349E-15,-7.43782762985718E-29));
#291=DIRECTION('',(1.30719991189349E-15,-1.,0.));
#292=DIRECTION('',(5.06261666350234E-31,-5.72862171146041E-14,-1.));
#293=DIRECTION('',(-1.30719991189349E-15,1.,-5.72862171146041E-14));
#294=DIRECTION('',(6.93889390390722E-16,-5.72862171146041E-14,-1.));
#295=DIRECTION('',(-1.30719991189349E-15,1.,-5.72862171146041E-14));
#296=DIRECTION('',(5.06261666350234E-31,-5.72862171146041E-14,-1.));
#297=DIRECTION('',(7.36506836889269E-29,-5.72862171146041E-14,-1.));
#298=DIRECTION('',(0.,1.,-5.72862171146041E-14));
#299=DIRECTION('',(-1.,-1.30719991189349E-15,1.23385427599519E-30));
#300=DIRECTION('',(-1.30719991189349E-15,1.,-5.72862171146041E-14));
#301=DIRECTION('',(-1.,-1.30719991189349E-15,1.23385427599519E-30));
#302=DIRECTION('',(-1.,-1.30719991189349E-15,7.61923805985372E-29));
#303=DIRECTION('',(-1.30719991189349E-15,1.,0.));
#304=DIRECTION('',(1.3078426336151E-30,5.72862171146041E-14,1.));
#305=DIRECTION('',(-1.30719991189349E-15,1.,-5.72862171146041E-14));
#306=DIRECTION('',(1.3078426336151E-30,5.72862171146041E-14,1.));
#307=DIRECTION('',(-1.30719991189349E-15,1.,-5.72862171146041E-14));
#308=DIRECTION('',(-5.06261666350284E-31,5.72862171146041E-14,1.));
#309=DIRECTION('',(-1.30719991189349E-15,1.,-5.72862171146041E-14));
#310=DIRECTION('',(0.,5.72862171146041E-14,1.));
#311=DIRECTION('',(1.30719991189349E-15,-1.,5.72862171146041E-14));
#312=DIRECTION('',(0.,-5.72862171146041E-14,-1.));
#313=DIRECTION('',(-1.30719991189349E-15,1.,-5.72862171146041E-14));
#314=DIRECTION('',(1.30719991189349E-15,-1.,5.72862171146041E-14));
#315=DIRECTION('',(0.,-5.72862171146041E-14,-1.));
#316=DIRECTION('',(-1.30719991189349E-15,1.,-5.72862171146041E-14));
#317=DIRECTION('',(0.,5.72862171146041E-14,1.));
#318=DIRECTION('',(-1.30719991189349E-15,1.,-5.72862171146041E-14));
#319=DIRECTION('',(0.,5.72862171146041E-14,1.));
#320=DIRECTION('',(-1.30719991189349E-15,1.,-5.72862171146041E-14));
#321=DIRECTION('',(0.,5.72862171146041E-14,1.));
#322=DIRECTION('',(-1.30719991189349E-15,1.,-5.72862171146041E-14));
#323=DIRECTION('',(0.,5.72862171146041E-14,1.));
#324=DIRECTION('',(-1.30719991189349E-15,1.,-5.72862171146041E-14));
#325=DIRECTION('',(0.,5.72862171146041E-14,1.));
#326=DIRECTION('',(-1.30719991189349E-15,1.,-5.72862171146041E-14));
#327=DIRECTION('',(0.,5.72862171146041E-14,1.));
#328=DIRECTION('',(1.26701527541346E-16,5.72862171146041E-14,1.));
#329=DIRECTION('',(0.,-1.,5.72862171146041E-14));
#330=DIRECTION('',(1.,1.30719991189349E-15,-1.26701527541421E-16));
#331=DIRECTION('',(1.,1.30719991189349E-15,-1.26701527541421E-16));
#332=DIRECTION('',(-1.30719991189349E-15,1.,-5.72862171146041E-14));
#333=DIRECTION('',(0.,5.72862171146041E-14,1.));
#334=DIRECTION('',(-1.30719991189349E-15,1.,-5.72862171146041E-14));
#335=DIRECTION('',(0.,5.72862171146041E-14,1.));
#336=DIRECTION('',(-1.30719991189349E-15,1.,-5.72862171146041E-14));
#337=DIRECTION('',(0.,5.72862171146041E-14,1.));
#338=DIRECTION('',(1.30719991189349E-15,-1.,5.72862171146041E-14));
#339=DIRECTION('',(1.,1.30719991189349E-15,-7.48845379649221E-29));
#340=DIRECTION('',(-1.,-1.30719991189351E-15,-2.14276916271106E-16));
#341=DIRECTION('',(1.30719991189349E-15,-1.,5.72862171146041E-14));
#342=DIRECTION('',(1.,1.30719991189349E-15,-7.48845379649221E-29));
#343=DIRECTION('',(2.1427691627118E-16,-5.72862171146041E-14,-1.));
#344=DIRECTION('',(0.,1.,-5.72862171146041E-14));
#345=DIRECTION('',(-1.,-1.30719991189351E-15,-2.14276916271106E-16));
#346=DIRECTION('',(1.30719991189349E-15,-1.,5.72862171146041E-14));
#347=DIRECTION('',(1.,1.30719991189349E-15,-7.48845379649221E-29));
#348=CARTESIAN_POINT('',(0.,0.,0.));
#349=CARTESIAN_POINT('',(-0.0273828346912384,-0.0876780178470052,-0.0404527135457712));
#350=CARTESIAN_POINT('',(-0.0273828346912384,-0.0726780178470052,-0.0404527135457721));
#351=CARTESIAN_POINT('',(-0.0323828346912384,-0.0726780178470052,-0.0404527135457721));
#352=CARTESIAN_POINT('',(-0.0273828346912384,-0.0726780178470049,-0.0354527135457721));
#353=CARTESIAN_POINT('',(-0.0323828346912384,-0.0876780178470052,-0.0404527135457712));
#354=CARTESIAN_POINT('',(-0.0323828346912384,-0.0876780178470052,-0.0404527135457712));
#355=CARTESIAN_POINT('',(-0.0273828346912384,-0.0876780178470052,-0.0404527135457712));
#356=CARTESIAN_POINT('',(-0.0273828346912384,-0.0876780178470049,-0.0354527135457712));
#357=CARTESIAN_POINT('',(-0.0273828346912384,-0.0876780178470049,-0.0354527135457712));
#358=CARTESIAN_POINT('',(-0.0323828346912384,-0.0876780178470058,-0.0504527135457712));
#359=CARTESIAN_POINT('',(-0.0323828346912384,-0.0726780178470058,-0.0504527135457721));
#360=CARTESIAN_POINT('',(-0.0323828346912384,-0.0726780178470066,-0.0654527135457721));
#361=CARTESIAN_POINT('',(-0.0323828346912384,-0.0876780178470066,-0.0654527135457712));
#362=CARTESIAN_POINT('',(-0.0323828346912383,-0.177678017847007,-0.0654527135457661));
#363=CARTESIAN_POINT('',(-0.0323828346912383,-0.177678017847007,-0.0604527135457661));
#364=CARTESIAN_POINT('',(-0.0323828346912383,-0.177678017847006,-0.0554527135457661));
#365=CARTESIAN_POINT('',(-0.0323828346912383,-0.177678017847006,-0.0554527135457661));
#366=CARTESIAN_POINT('',(-0.0323828346912384,-0.0876780178470061,-0.0554527135457712));
#367=CARTESIAN_POINT('',(-0.0323828346912384,-0.0876780178470058,-0.0504527135457712));
#368=CARTESIAN_POINT('',(-2.51302660446356E-10,-0.0876780178470066,-0.0654527135457712));
#369=CARTESIAN_POINT('',(-2.51302680054355E-10,-0.0726780178470066,-0.0654527135457721));
#370=CARTESIAN_POINT('',(0.0323828341886331,-0.0726780178470066,-0.0654527135457721));
#371=CARTESIAN_POINT('',(0.0323828341886331,-0.0876780178470066,-0.0654527135457712));
#372=CARTESIAN_POINT('',(0.0323828341886332,-0.177678017847007,-0.0654527135457661));
#373=CARTESIAN_POINT('',(-2.51302542798364E-10,-0.177678017847007,-0.0654527135457661));
#374=CARTESIAN_POINT('',(0.0323828341886331,-0.0876780178470057,-0.0504527135457712));
#375=CARTESIAN_POINT('',(0.0323828341886331,-0.0726780178470057,-0.0504527135457721));
#376=CARTESIAN_POINT('',(0.0323828341886331,-0.0726780178470051,-0.0404527135457721));
#377=CARTESIAN_POINT('',(0.0323828341886331,-0.0876780178470051,-0.0404527135457712));
#378=CARTESIAN_POINT('',(0.0323828341886331,-0.0876780178470051,-0.0404527135457712));
#379=CARTESIAN_POINT('',(0.0323828341886331,-0.0876780178470057,-0.0504527135457712));
#380=CARTESIAN_POINT('',(0.0323828341886331,-0.087678017847006,-0.0554527135457712));
#381=CARTESIAN_POINT('',(0.0323828341886332,-0.177678017847006,-0.0554527135457661));
#382=CARTESIAN_POINT('',(0.0323828341886332,-0.177678017847006,-0.0554527135457661));
#383=CARTESIAN_POINT('',(0.0323828341886332,-0.177678017847007,-0.0604527135457661));
#384=CARTESIAN_POINT('',(0.027382834188633,-0.0876780178470051,-0.0404527135457712));
#385=CARTESIAN_POINT('',(0.027382834188633,-0.0726780178470051,-0.0404527135457721));
#386=CARTESIAN_POINT('',(0.027382834188633,-0.0726780178470048,-0.0354527135457721));
#387=CARTESIAN_POINT('',(0.027382834188633,-0.0876780178470048,-0.0354527135457712));
#388=CARTESIAN_POINT('',(0.027382834188633,-0.0876780178470048,-0.0354527135457712));
#389=CARTESIAN_POINT('',(0.027382834188633,-0.0876780178470051,-0.0404527135457712));
#390=CARTESIAN_POINT('',(-0.0273828346912384,-0.0876780178470052,-0.0404527135457712));
#391=CARTESIAN_POINT('',(-0.0273828346912384,-0.0876780178470052,-0.0404527135457712));
#392=CARTESIAN_POINT('',(-0.0273828346912384,-0.087678017847005,-0.0377027135457712));
#393=CARTESIAN_POINT('',(-0.0273828346912384,-0.0726780178470052,-0.0404527135457721));
#394=CARTESIAN_POINT('',(-0.0273828346912384,-0.072678017847005,-0.0377027135457721));
#395=CARTESIAN_POINT('',(1.1470725508635E-16,-0.0876780178470051,-0.0404527135457712));
#396=CARTESIAN_POINT('',(1.1470725508635E-16,-0.0876780178470051,-0.0404527135457712));
#397=CARTESIAN_POINT('',(1.1470725508635E-16,-0.0876780178470049,-0.0377027135457712));
#398=CARTESIAN_POINT('',(9.5099256407948E-17,-0.0726780178470051,-0.0404527135457721));
#399=CARTESIAN_POINT('',(9.5099256407948E-17,-0.0726780178470049,-0.0377027135457721));
#400=CARTESIAN_POINT('',(-2.5130266738525E-10,-0.0876780178470049,-0.0354527135457712));
#401=CARTESIAN_POINT('',(-2.51302686993249E-10,-0.0726780178470049,-0.0354527135457721));
#402=CARTESIAN_POINT('',(-2.5130266738525E-10,-0.0876780178470049,-0.0354527135457712));
#403=CARTESIAN_POINT('',(0.027382834188633,-0.0876780178470051,-0.0404527135457712));
#404=CARTESIAN_POINT('',(0.027382834188633,-0.0876780178470051,-0.0404527135457712));
#405=CARTESIAN_POINT('',(0.027382834188633,-0.0876780178470049,-0.0377027135457712));
#406=CARTESIAN_POINT('',(0.027382834188633,-0.0726780178470051,-0.0404527135457721));
#407=CARTESIAN_POINT('',(0.027382834188633,-0.0726780178470049,-0.0377027135457721));
#408=CARTESIAN_POINT('',(-2.58756137923099E-10,-0.0876780178469998,0.0540472864560394));
#409=CARTESIAN_POINT('',(-2.51302660446356E-10,-0.087678017847006,-0.0554527135457712));
#410=CARTESIAN_POINT('',(-2.58756157531098E-10,-0.0726780178469998,0.0540472864560386));
#411=CARTESIAN_POINT('',(-2.51302542798364E-10,-0.177678017847006,-0.0554527135457661));
#412=CARTESIAN_POINT('',(-2.51302542798364E-10,-0.177678017847006,-0.0554527135457661));
#413=CARTESIAN_POINT('',(-2.58756020275107E-10,-0.177678017847,0.0540472864560446));
#414=MECHANICAL_DESIGN_GEOMETRIC_PRESENTATION_REPRESENTATION('',(#245),
#415);
#415=(
GEOMETRIC_REPRESENTATION_CONTEXT(3)
GLOBAL_UNCERTAINTY_ASSIGNED_CONTEXT((#416))
GLOBAL_UNIT_ASSIGNED_CONTEXT((#419,#418,#417))
REPRESENTATION_CONTEXT('CableChannelHolderX','TOP_LEVEL_ASSEMBLY_PART')
);
#416=UNCERTAINTY_MEASURE_WITH_UNIT(LENGTH_MEASURE(1.E-8),#419,
'DISTANCE_ACCURACY_VALUE','Maximum Tolerance applied to model');
#417=(
NAMED_UNIT(*)
SI_UNIT($,.STERADIAN.)
SOLID_ANGLE_UNIT()
);
#418=(
NAMED_UNIT(*)
PLANE_ANGLE_UNIT()
SI_UNIT($,.RADIAN.)
);
#419=(
LENGTH_UNIT()
NAMED_UNIT(*)
SI_UNIT($,.METRE.)
);
#420=PRODUCT_DEFINITION_SHAPE('','',#421);
#421=PRODUCT_DEFINITION('','',#423,#422);
#422=PRODUCT_DEFINITION_CONTEXT('',#429,'design');
#423=PRODUCT_DEFINITION_FORMATION_WITH_SPECIFIED_SOURCE('','',#425,
 .NOT_KNOWN.);
#424=PRODUCT_RELATED_PRODUCT_CATEGORY('','',(#425));
#425=PRODUCT('CableChannelHolderX','CableChannelHolderX',
'CableChannelHolderX',(#427));
#426=PRODUCT_CATEGORY('','');
#427=PRODUCT_CONTEXT('',#429,'mechanical');
#428=APPLICATION_PROTOCOL_DEFINITION('international standard',
'ap242_managed_model_based_3d_engineering',2020,#429);
#429=APPLICATION_CONTEXT('managed model based 3d engineering');
ENDSEC;
END-ISO-10303-21;
