ISO-10303-21;
HEADER;
/* Generated by software containing ST-Developer
 * from STEP Tools, Inc. (www.steptools.com) 
 */
/* OPTION: using custom renumber hook */

FILE_DESCRIPTION(
/* description */ ('STEP AP242 Edition 2',
'CAx-IF Rec.Pracs.---Representation and Presentation of Product Manufa
cturing Information (PMI)---4.0---2014-10-13',
'CAx-IF Rec.Pracs.---3D Tessellated Geometry---0.4---2014-09-14','2;1',
'CAx-IF Rec.Pracs.---User Defined Attributes---1.5---2016-08-15'),
/* implementation_level */ '2;1');

FILE_NAME(
/* name */ 'Router - BallScrewConnector1',
/* time_stamp */ '2026-08-08T09:25:06Z',
/* author */ (''),
/* organization */ (''),
/* preprocessor_version */ 'ST-DEVELOPER v20',
/* originating_system */ 'ONSHAPE BY PTC INC, 1.219',
/* authorisation */ '  ');

FILE_SCHEMA (('AP242_MANAGED_MODEL_BASED_3D_ENGINEERING_MIM_LF { 1 0 10303 442 3 1 4 }'));
ENDSEC;

DATA;
#10=SHAPE_REPRESENTATION_RELATIONSHIP('','',#493,#11);
#11=ADVANCED_BREP_SHAPE_REPRESENTATION('',(#491),#825);
#12=CYLINDRICAL_SURFACE('',#517,0.00265);
#13=CYLINDRICAL_SURFACE('',#520,0.00265);
#14=CYLINDRICAL_SURFACE('',#522,0.00265);
#15=CYLINDRICAL_SURFACE('',#525,0.00265);
#16=CYLINDRICAL_SURFACE('',#539,0.0141);
#17=CYLINDRICAL_SURFACE('',#540,0.00275000000000014);
#18=CYLINDRICAL_SURFACE('',#541,0.00275000000000014);
#19=CYLINDRICAL_SURFACE('',#542,0.00275000000000013);
#20=CYLINDRICAL_SURFACE('',#543,0.00275000000000014);
#21=CYLINDRICAL_SURFACE('',#544,0.003);
#22=CYLINDRICAL_SURFACE('',#545,0.003);
#23=CYLINDRICAL_SURFACE('',#546,0.003);
#24=CYLINDRICAL_SURFACE('',#547,0.003);
#25=CYLINDRICAL_SURFACE('',#548,0.003);
#26=CYLINDRICAL_SURFACE('',#549,0.003);
#27=LINE('',#698,#57);
#28=LINE('',#703,#58);
#29=LINE('',#707,#59);
#30=LINE('',#709,#60);
#31=LINE('',#721,#61);
#32=LINE('',#726,#62);
#33=LINE('',#730,#63);
#34=LINE('',#731,#64);
#35=LINE('',#733,#65);
#36=LINE('',#735,#66);
#37=LINE('',#737,#67);
#38=LINE('',#739,#68);
#39=LINE('',#741,#69);
#40=LINE('',#743,#70);
#41=LINE('',#755,#71);
#42=LINE('',#760,#72);
#43=LINE('',#762,#73);
#44=LINE('',#764,#74);
#45=LINE('',#766,#75);
#46=LINE('',#768,#76);
#47=LINE('',#769,#77);
#48=LINE('',#784,#78);
#49=LINE('',#787,#79);
#50=LINE('',#789,#80);
#51=LINE('',#791,#81);
#52=LINE('',#805,#82);
#53=LINE('',#807,#83);
#54=LINE('',#809,#84);
#55=LINE('',#811,#85);
#56=LINE('',#812,#86);
#57=VECTOR('',#558,1.);
#58=VECTOR('',#561,1.);
#59=VECTOR('',#564,1.);
#60=VECTOR('',#565,1.);
#61=VECTOR('',#578,1.);
#62=VECTOR('',#581,1.);
#63=VECTOR('',#584,1.);
#64=VECTOR('',#585,1.);
#65=VECTOR('',#586,1.);
#66=VECTOR('',#587,1.);
#67=VECTOR('',#588,1.);
#68=VECTOR('',#591,1.);
#69=VECTOR('',#592,1.);
#70=VECTOR('',#593,1.);
#71=VECTOR('',#606,1.);
#72=VECTOR('',#609,1.);
#73=VECTOR('',#610,1.);
#74=VECTOR('',#611,1.);
#75=VECTOR('',#612,1.);
#76=VECTOR('',#613,1.);
#77=VECTOR('',#614,1.);
#78=VECTOR('',#633,1.);
#79=VECTOR('',#634,1.);
#80=VECTOR('',#635,1.);
#81=VECTOR('',#636,1.);
#82=VECTOR('',#659,1.);
#83=VECTOR('',#662,1.);
#84=VECTOR('',#665,1.);
#85=VECTOR('',#668,1.);
#86=VECTOR('',#669,1.);
#87=ORIENTED_EDGE('',*,*,#207,.T.);
#88=ORIENTED_EDGE('',*,*,#208,.T.);
#89=ORIENTED_EDGE('',*,*,#209,.F.);
#90=ORIENTED_EDGE('',*,*,#210,.T.);
#91=ORIENTED_EDGE('',*,*,#211,.F.);
#92=ORIENTED_EDGE('',*,*,#212,.T.);
#93=ORIENTED_EDGE('',*,*,#213,.T.);
#94=ORIENTED_EDGE('',*,*,#214,.F.);
#95=ORIENTED_EDGE('',*,*,#215,.F.);
#96=ORIENTED_EDGE('',*,*,#216,.F.);
#97=ORIENTED_EDGE('',*,*,#217,.F.);
#98=ORIENTED_EDGE('',*,*,#218,.F.);
#99=ORIENTED_EDGE('',*,*,#219,.F.);
#100=ORIENTED_EDGE('',*,*,#220,.F.);
#101=ORIENTED_EDGE('',*,*,#221,.T.);
#102=ORIENTED_EDGE('',*,*,#222,.T.);
#103=ORIENTED_EDGE('',*,*,#223,.T.);
#104=ORIENTED_EDGE('',*,*,#224,.T.);
#105=ORIENTED_EDGE('',*,*,#213,.F.);
#106=ORIENTED_EDGE('',*,*,#225,.T.);
#107=ORIENTED_EDGE('',*,*,#226,.T.);
#108=ORIENTED_EDGE('',*,*,#227,.T.);
#109=ORIENTED_EDGE('',*,*,#228,.F.);
#110=ORIENTED_EDGE('',*,*,#211,.T.);
#111=ORIENTED_EDGE('',*,*,#229,.T.);
#112=ORIENTED_EDGE('',*,*,#230,.F.);
#113=ORIENTED_EDGE('',*,*,#231,.T.);
#114=ORIENTED_EDGE('',*,*,#232,.T.);
#115=ORIENTED_EDGE('',*,*,#233,.T.);
#116=ORIENTED_EDGE('',*,*,#234,.T.);
#117=ORIENTED_EDGE('',*,*,#235,.T.);
#118=ORIENTED_EDGE('',*,*,#236,.T.);
#119=ORIENTED_EDGE('',*,*,#237,.T.);
#120=ORIENTED_EDGE('',*,*,#238,.T.);
#121=ORIENTED_EDGE('',*,*,#239,.T.);
#122=ORIENTED_EDGE('',*,*,#240,.T.);
#123=ORIENTED_EDGE('',*,*,#241,.T.);
#124=ORIENTED_EDGE('',*,*,#242,.F.);
#125=ORIENTED_EDGE('',*,*,#243,.T.);
#126=ORIENTED_EDGE('',*,*,#209,.T.);
#127=ORIENTED_EDGE('',*,*,#244,.F.);
#128=ORIENTED_EDGE('',*,*,#245,.T.);
#129=ORIENTED_EDGE('',*,*,#246,.T.);
#130=ORIENTED_EDGE('',*,*,#247,.F.);
#131=ORIENTED_EDGE('',*,*,#248,.T.);
#132=ORIENTED_EDGE('',*,*,#207,.F.);
#133=ORIENTED_EDGE('',*,*,#249,.T.);
#134=ORIENTED_EDGE('',*,*,#208,.F.);
#135=ORIENTED_EDGE('',*,*,#250,.T.);
#136=ORIENTED_EDGE('',*,*,#251,.T.);
#137=ORIENTED_EDGE('',*,*,#252,.F.);
#138=ORIENTED_EDGE('',*,*,#253,.T.);
#139=ORIENTED_EDGE('',*,*,#254,.T.);
#140=ORIENTED_EDGE('',*,*,#255,.F.);
#141=ORIENTED_EDGE('',*,*,#230,.T.);
#142=ORIENTED_EDGE('',*,*,#256,.T.);
#143=ORIENTED_EDGE('',*,*,#242,.T.);
#144=ORIENTED_EDGE('',*,*,#257,.T.);
#145=ORIENTED_EDGE('',*,*,#252,.T.);
#146=ORIENTED_EDGE('',*,*,#258,.T.);
#147=ORIENTED_EDGE('',*,*,#226,.F.);
#148=ORIENTED_EDGE('',*,*,#259,.T.);
#149=ORIENTED_EDGE('',*,*,#249,.F.);
#150=ORIENTED_EDGE('',*,*,#248,.F.);
#151=ORIENTED_EDGE('',*,*,#246,.F.);
#152=ORIENTED_EDGE('',*,*,#254,.F.);
#153=ORIENTED_EDGE('',*,*,#228,.T.);
#154=ORIENTED_EDGE('',*,*,#260,.T.);
#155=ORIENTED_EDGE('',*,*,#250,.F.);
#156=ORIENTED_EDGE('',*,*,#261,.T.);
#157=ORIENTED_EDGE('',*,*,#240,.F.);
#158=ORIENTED_EDGE('',*,*,#262,.T.);
#159=ORIENTED_EDGE('',*,*,#247,.T.);
#160=ORIENTED_EDGE('',*,*,#255,.T.);
#161=ORIENTED_EDGE('',*,*,#239,.F.);
#162=ORIENTED_EDGE('',*,*,#263,.T.);
#163=ORIENTED_EDGE('',*,*,#220,.T.);
#164=ORIENTED_EDGE('',*,*,#262,.F.);
#165=ORIENTED_EDGE('',*,*,#224,.F.);
#166=ORIENTED_EDGE('',*,*,#264,.T.);
#167=ORIENTED_EDGE('',*,*,#244,.T.);
#168=ORIENTED_EDGE('',*,*,#214,.T.);
#169=ORIENTED_EDGE('',*,*,#222,.F.);
#170=ORIENTED_EDGE('',*,*,#265,.T.);
#171=ORIENTED_EDGE('',*,*,#237,.F.);
#172=ORIENTED_EDGE('',*,*,#266,.T.);
#173=ORIENTED_EDGE('',*,*,#219,.T.);
#174=ORIENTED_EDGE('',*,*,#236,.F.);
#175=ORIENTED_EDGE('',*,*,#218,.T.);
#176=ORIENTED_EDGE('',*,*,#235,.F.);
#177=ORIENTED_EDGE('',*,*,#217,.T.);
#178=ORIENTED_EDGE('',*,*,#234,.F.);
#179=ORIENTED_EDGE('',*,*,#216,.T.);
#180=ORIENTED_EDGE('',*,*,#233,.F.);
#181=ORIENTED_EDGE('',*,*,#215,.T.);
#182=ORIENTED_EDGE('',*,*,#232,.F.);
#183=ORIENTED_EDGE('',*,*,#238,.F.);
#184=ORIENTED_EDGE('',*,*,#265,.F.);
#185=ORIENTED_EDGE('',*,*,#221,.F.);
#186=ORIENTED_EDGE('',*,*,#263,.F.);
#187=ORIENTED_EDGE('',*,*,#245,.F.);
#188=ORIENTED_EDGE('',*,*,#264,.F.);
#189=ORIENTED_EDGE('',*,*,#223,.F.);
#190=ORIENTED_EDGE('',*,*,#266,.F.);
#191=ORIENTED_EDGE('',*,*,#256,.F.);
#192=ORIENTED_EDGE('',*,*,#229,.F.);
#193=ORIENTED_EDGE('',*,*,#210,.F.);
#194=ORIENTED_EDGE('',*,*,#243,.F.);
#195=ORIENTED_EDGE('',*,*,#259,.F.);
#196=ORIENTED_EDGE('',*,*,#225,.F.);
#197=ORIENTED_EDGE('',*,*,#212,.F.);
#198=ORIENTED_EDGE('',*,*,#231,.F.);
#199=ORIENTED_EDGE('',*,*,#258,.F.);
#200=ORIENTED_EDGE('',*,*,#251,.F.);
#201=ORIENTED_EDGE('',*,*,#260,.F.);
#202=ORIENTED_EDGE('',*,*,#227,.F.);
#203=ORIENTED_EDGE('',*,*,#257,.F.);
#204=ORIENTED_EDGE('',*,*,#241,.F.);
#205=ORIENTED_EDGE('',*,*,#261,.F.);
#206=ORIENTED_EDGE('',*,*,#253,.F.);
#207=EDGE_CURVE('',#267,#267,#313,.T.);
#208=EDGE_CURVE('',#268,#268,#314,.T.);
#209=EDGE_CURVE('',#269,#270,#27,.T.);
#210=EDGE_CURVE('',#269,#271,#315,.F.);
#211=EDGE_CURVE('',#272,#271,#28,.T.);
#212=EDGE_CURVE('',#272,#273,#316,.F.);
#213=EDGE_CURVE('',#273,#274,#29,.T.);
#214=EDGE_CURVE('',#270,#274,#30,.T.);
#215=EDGE_CURVE('',#275,#275,#317,.T.);
#216=EDGE_CURVE('',#276,#276,#318,.T.);
#217=EDGE_CURVE('',#277,#277,#319,.T.);
#218=EDGE_CURVE('',#278,#278,#320,.T.);
#219=EDGE_CURVE('',#279,#279,#321,.T.);
#220=EDGE_CURVE('',#280,#281,#31,.T.);
#221=EDGE_CURVE('',#280,#282,#322,.T.);
#222=EDGE_CURVE('',#282,#283,#32,.T.);
#223=EDGE_CURVE('',#283,#284,#323,.T.);
#224=EDGE_CURVE('',#284,#274,#33,.T.);
#225=EDGE_CURVE('',#273,#285,#34,.F.);
#226=EDGE_CURVE('',#285,#286,#35,.T.);
#227=EDGE_CURVE('',#286,#287,#36,.T.);
#228=EDGE_CURVE('',#281,#287,#37,.T.);
#229=EDGE_CURVE('',#271,#288,#38,.F.);
#230=EDGE_CURVE('',#289,#288,#39,.T.);
#231=EDGE_CURVE('',#289,#272,#40,.T.);
#232=EDGE_CURVE('',#290,#290,#324,.T.);
#233=EDGE_CURVE('',#291,#291,#325,.T.);
#234=EDGE_CURVE('',#292,#292,#326,.T.);
#235=EDGE_CURVE('',#293,#293,#327,.T.);
#236=EDGE_CURVE('',#294,#294,#328,.T.);
#237=EDGE_CURVE('',#295,#296,#41,.T.);
#238=EDGE_CURVE('',#296,#297,#329,.F.);
#239=EDGE_CURVE('',#297,#298,#42,.T.);
#240=EDGE_CURVE('',#298,#299,#43,.T.);
#241=EDGE_CURVE('',#299,#300,#44,.F.);
#242=EDGE_CURVE('',#301,#300,#45,.T.);
#243=EDGE_CURVE('',#301,#269,#46,.T.);
#244=EDGE_CURVE('',#302,#270,#47,.T.);
#245=EDGE_CURVE('',#302,#295,#330,.F.);
#246=EDGE_CURVE('',#303,#303,#331,.T.);
#247=EDGE_CURVE('',#304,#304,#332,.T.);
#248=EDGE_CURVE('',#305,#305,#333,.T.);
#249=EDGE_CURVE('',#306,#306,#334,.T.);
#250=EDGE_CURVE('',#307,#308,#48,.T.);
#251=EDGE_CURVE('',#308,#309,#49,.F.);
#252=EDGE_CURVE('',#310,#309,#50,.T.);
#253=EDGE_CURVE('',#310,#307,#51,.T.);
#254=EDGE_CURVE('',#311,#311,#335,.T.);
#255=EDGE_CURVE('',#312,#312,#336,.T.);
#256=EDGE_CURVE('',#288,#301,#337,.T.);
#257=EDGE_CURVE('',#300,#310,#338,.T.);
#258=EDGE_CURVE('',#309,#286,#339,.T.);
#259=EDGE_CURVE('',#285,#289,#340,.T.);
#260=EDGE_CURVE('',#287,#308,#341,.F.);
#261=EDGE_CURVE('',#307,#299,#342,.F.);
#262=EDGE_CURVE('',#298,#281,#52,.T.);
#263=EDGE_CURVE('',#297,#280,#53,.T.);
#264=EDGE_CURVE('',#284,#302,#54,.F.);
#265=EDGE_CURVE('',#282,#296,#55,.F.);
#266=EDGE_CURVE('',#295,#283,#56,.T.);
#267=VERTEX_POINT('',#695);
#268=VERTEX_POINT('',#697);
#269=VERTEX_POINT('',#699);
#270=VERTEX_POINT('',#700);
#271=VERTEX_POINT('',#702);
#272=VERTEX_POINT('',#704);
#273=VERTEX_POINT('',#706);
#274=VERTEX_POINT('',#708);
#275=VERTEX_POINT('',#712);
#276=VERTEX_POINT('',#714);
#277=VERTEX_POINT('',#716);
#278=VERTEX_POINT('',#718);
#279=VERTEX_POINT('',#720);
#280=VERTEX_POINT('',#722);
#281=VERTEX_POINT('',#723);
#282=VERTEX_POINT('',#725);
#283=VERTEX_POINT('',#727);
#284=VERTEX_POINT('',#729);
#285=VERTEX_POINT('',#732);
#286=VERTEX_POINT('',#734);
#287=VERTEX_POINT('',#736);
#288=VERTEX_POINT('',#740);
#289=VERTEX_POINT('',#742);
#290=VERTEX_POINT('',#746);
#291=VERTEX_POINT('',#748);
#292=VERTEX_POINT('',#750);
#293=VERTEX_POINT('',#752);
#294=VERTEX_POINT('',#754);
#295=VERTEX_POINT('',#756);
#296=VERTEX_POINT('',#757);
#297=VERTEX_POINT('',#759);
#298=VERTEX_POINT('',#761);
#299=VERTEX_POINT('',#763);
#300=VERTEX_POINT('',#765);
#301=VERTEX_POINT('',#767);
#302=VERTEX_POINT('',#770);
#303=VERTEX_POINT('',#774);
#304=VERTEX_POINT('',#776);
#305=VERTEX_POINT('',#779);
#306=VERTEX_POINT('',#782);
#307=VERTEX_POINT('',#785);
#308=VERTEX_POINT('',#786);
#309=VERTEX_POINT('',#788);
#310=VERTEX_POINT('',#790);
#311=VERTEX_POINT('',#794);
#312=VERTEX_POINT('',#796);
#313=CIRCLE('',#496,0.00265);
#314=CIRCLE('',#497,0.00265);
#315=CIRCLE('',#498,0.003);
#316=CIRCLE('',#499,0.003);
#317=CIRCLE('',#501,0.00275000000000014);
#318=CIRCLE('',#502,0.00275000000000013);
#319=CIRCLE('',#503,0.00275000000000014);
#320=CIRCLE('',#504,0.00275000000000014);
#321=CIRCLE('',#505,0.0141);
#322=CIRCLE('',#506,0.003);
#323=CIRCLE('',#507,0.003);
#324=CIRCLE('',#510,0.00275000000000014);
#325=CIRCLE('',#511,0.00275000000000013);
#326=CIRCLE('',#512,0.00275000000000014);
#327=CIRCLE('',#513,0.00275000000000014);
#328=CIRCLE('',#514,0.0141);
#329=CIRCLE('',#515,0.003);
#330=CIRCLE('',#516,0.003);
#331=CIRCLE('',#518,0.00265);
#332=CIRCLE('',#519,0.00265);
#333=CIRCLE('',#521,0.00265);
#334=CIRCLE('',#523,0.00265);
#335=CIRCLE('',#526,0.00265);
#336=CIRCLE('',#527,0.00265);
#337=CIRCLE('',#529,0.003);
#338=CIRCLE('',#530,0.003);
#339=CIRCLE('',#531,0.003);
#340=CIRCLE('',#532,0.003);
#341=CIRCLE('',#534,0.003);
#342=CIRCLE('',#535,0.003);
#343=EDGE_LOOP('',(#87));
#344=EDGE_LOOP('',(#88));
#345=EDGE_LOOP('',(#89,#90,#91,#92,#93,#94));
#346=EDGE_LOOP('',(#95));
#347=EDGE_LOOP('',(#96));
#348=EDGE_LOOP('',(#97));
#349=EDGE_LOOP('',(#98));
#350=EDGE_LOOP('',(#99));
#351=EDGE_LOOP('',(#100,#101,#102,#103,#104,#105,#106,#107,#108,#109));
#352=EDGE_LOOP('',(#110,#111,#112,#113));
#353=EDGE_LOOP('',(#114));
#354=EDGE_LOOP('',(#115));
#355=EDGE_LOOP('',(#116));
#356=EDGE_LOOP('',(#117));
#357=EDGE_LOOP('',(#118));
#358=EDGE_LOOP('',(#119,#120,#121,#122,#123,#124,#125,#126,#127,#128));
#359=EDGE_LOOP('',(#129));
#360=EDGE_LOOP('',(#130));
#361=EDGE_LOOP('',(#131));
#362=EDGE_LOOP('',(#132));
#363=EDGE_LOOP('',(#133));
#364=EDGE_LOOP('',(#134));
#365=EDGE_LOOP('',(#135,#136,#137,#138));
#366=EDGE_LOOP('',(#139));
#367=EDGE_LOOP('',(#140));
#368=EDGE_LOOP('',(#141,#142,#143,#144,#145,#146,#147,#148));
#369=EDGE_LOOP('',(#149));
#370=EDGE_LOOP('',(#150));
#371=EDGE_LOOP('',(#151));
#372=EDGE_LOOP('',(#152));
#373=EDGE_LOOP('',(#153,#154,#155,#156,#157,#158));
#374=EDGE_LOOP('',(#159));
#375=EDGE_LOOP('',(#160));
#376=EDGE_LOOP('',(#161,#162,#163,#164));
#377=EDGE_LOOP('',(#165,#166,#167,#168));
#378=EDGE_LOOP('',(#169,#170,#171,#172));
#379=EDGE_LOOP('',(#173));
#380=EDGE_LOOP('',(#174));
#381=EDGE_LOOP('',(#175));
#382=EDGE_LOOP('',(#176));
#383=EDGE_LOOP('',(#177));
#384=EDGE_LOOP('',(#178));
#385=EDGE_LOOP('',(#179));
#386=EDGE_LOOP('',(#180));
#387=EDGE_LOOP('',(#181));
#388=EDGE_LOOP('',(#182));
#389=EDGE_LOOP('',(#183,#184,#185,#186));
#390=EDGE_LOOP('',(#187,#188,#189,#190));
#391=EDGE_LOOP('',(#191,#192,#193,#194));
#392=EDGE_LOOP('',(#195,#196,#197,#198));
#393=EDGE_LOOP('',(#199,#200,#201,#202));
#394=EDGE_LOOP('',(#203,#204,#205,#206));
#395=FACE_BOUND('',#343,.T.);
#396=FACE_BOUND('',#344,.T.);
#397=FACE_BOUND('',#345,.T.);
#398=FACE_BOUND('',#346,.T.);
#399=FACE_BOUND('',#347,.T.);
#400=FACE_BOUND('',#348,.T.);
#401=FACE_BOUND('',#349,.T.);
#402=FACE_BOUND('',#350,.T.);
#403=FACE_BOUND('',#351,.T.);
#404=FACE_BOUND('',#352,.T.);
#405=FACE_BOUND('',#353,.T.);
#406=FACE_BOUND('',#354,.T.);
#407=FACE_BOUND('',#355,.T.);
#408=FACE_BOUND('',#356,.T.);
#409=FACE_BOUND('',#357,.T.);
#410=FACE_BOUND('',#358,.T.);
#411=FACE_BOUND('',#359,.T.);
#412=FACE_BOUND('',#360,.T.);
#413=FACE_BOUND('',#361,.T.);
#414=FACE_BOUND('',#362,.T.);
#415=FACE_BOUND('',#363,.T.);
#416=FACE_BOUND('',#364,.T.);
#417=FACE_BOUND('',#365,.T.);
#418=FACE_BOUND('',#366,.T.);
#419=FACE_BOUND('',#367,.T.);
#420=FACE_BOUND('',#368,.T.);
#421=FACE_BOUND('',#369,.T.);
#422=FACE_BOUND('',#370,.T.);
#423=FACE_BOUND('',#371,.T.);
#424=FACE_BOUND('',#372,.T.);
#425=FACE_BOUND('',#373,.T.);
#426=FACE_BOUND('',#374,.T.);
#427=FACE_BOUND('',#375,.T.);
#428=FACE_BOUND('',#376,.T.);
#429=FACE_BOUND('',#377,.T.);
#430=FACE_BOUND('',#378,.T.);
#431=FACE_BOUND('',#379,.T.);
#432=FACE_BOUND('',#380,.T.);
#433=FACE_BOUND('',#381,.T.);
#434=FACE_BOUND('',#382,.T.);
#435=FACE_BOUND('',#383,.T.);
#436=FACE_BOUND('',#384,.T.);
#437=FACE_BOUND('',#385,.T.);
#438=FACE_BOUND('',#386,.T.);
#439=FACE_BOUND('',#387,.T.);
#440=FACE_BOUND('',#388,.T.);
#441=FACE_BOUND('',#389,.T.);
#442=FACE_BOUND('',#390,.T.);
#443=FACE_BOUND('',#391,.T.);
#444=FACE_BOUND('',#392,.T.);
#445=FACE_BOUND('',#393,.T.);
#446=FACE_BOUND('',#394,.T.);
#447=PLANE('',#495);
#448=PLANE('',#500);
#449=PLANE('',#508);
#450=PLANE('',#509);
#451=PLANE('',#524);
#452=PLANE('',#528);
#453=PLANE('',#533);
#454=PLANE('',#536);
#455=PLANE('',#537);
#456=PLANE('',#538);
#457=ADVANCED_FACE('',(#395,#396,#397),#447,.F.);
#458=ADVANCED_FACE('',(#398,#399,#400,#401,#402,#403),#448,.T.);
#459=ADVANCED_FACE('',(#404),#449,.F.);
#460=ADVANCED_FACE('',(#405,#406,#407,#408,#409,#410),#450,.F.);
#461=ADVANCED_FACE('',(#411,#412),#12,.F.);
#462=ADVANCED_FACE('',(#413,#414),#13,.F.);
#463=ADVANCED_FACE('',(#415,#416),#14,.F.);
#464=ADVANCED_FACE('',(#417),#451,.F.);
#465=ADVANCED_FACE('',(#418,#419),#15,.F.);
#466=ADVANCED_FACE('',(#420,#421,#422,#423,#424),#452,.T.);
#467=ADVANCED_FACE('',(#425,#426,#427),#453,.F.);
#468=ADVANCED_FACE('',(#428),#454,.T.);
#469=ADVANCED_FACE('',(#429),#455,.F.);
#470=ADVANCED_FACE('',(#430),#456,.F.);
#471=ADVANCED_FACE('',(#431,#432),#16,.F.);
#472=ADVANCED_FACE('',(#433,#434),#17,.F.);
#473=ADVANCED_FACE('',(#435,#436),#18,.F.);
#474=ADVANCED_FACE('',(#437,#438),#19,.F.);
#475=ADVANCED_FACE('',(#439,#440),#20,.F.);
#476=ADVANCED_FACE('',(#441),#21,.T.);
#477=ADVANCED_FACE('',(#442),#22,.T.);
#478=ADVANCED_FACE('',(#443),#23,.T.);
#479=ADVANCED_FACE('',(#444),#24,.T.);
#480=ADVANCED_FACE('',(#445),#25,.T.);
#481=ADVANCED_FACE('',(#446),#26,.T.);
#482=CLOSED_SHELL('',(#457,#458,#459,#460,#461,#462,#463,#464,#465,#466,
#467,#468,#469,#470,#471,#472,#473,#474,#475,#476,#477,#478,#479,#480,#481));
#483=STYLED_ITEM('',(#484),#491);
#484=PRESENTATION_STYLE_ASSIGNMENT((#485));
#485=SURFACE_STYLE_USAGE(.BOTH.,#486);
#486=SURFACE_SIDE_STYLE('',(#487));
#487=SURFACE_STYLE_FILL_AREA(#488);
#488=FILL_AREA_STYLE('',(#489));
#489=FILL_AREA_STYLE_COLOUR('',#490);
#490=COLOUR_RGB('',0.647058823529412,0.647058823529412,0.647058823529412);
#491=MANIFOLD_SOLID_BREP('BallScrewConnector1',#482);
#492=SHAPE_DEFINITION_REPRESENTATION(#830,#493);
#493=SHAPE_REPRESENTATION('BallScrewConnector1',(#494),#825);
#494=AXIS2_PLACEMENT_3D('',#692,#550,#551);
#495=AXIS2_PLACEMENT_3D('',#693,#552,#553);
#496=AXIS2_PLACEMENT_3D('',#694,#554,#555);
#497=AXIS2_PLACEMENT_3D('',#696,#556,#557);
#498=AXIS2_PLACEMENT_3D('',#701,#559,#560);
#499=AXIS2_PLACEMENT_3D('',#705,#562,#563);
#500=AXIS2_PLACEMENT_3D('',#710,#566,#567);
#501=AXIS2_PLACEMENT_3D('',#711,#568,#569);
#502=AXIS2_PLACEMENT_3D('',#713,#570,#571);
#503=AXIS2_PLACEMENT_3D('',#715,#572,#573);
#504=AXIS2_PLACEMENT_3D('',#717,#574,#575);
#505=AXIS2_PLACEMENT_3D('',#719,#576,#577);
#506=AXIS2_PLACEMENT_3D('',#724,#579,#580);
#507=AXIS2_PLACEMENT_3D('',#728,#582,#583);
#508=AXIS2_PLACEMENT_3D('',#738,#589,#590);
#509=AXIS2_PLACEMENT_3D('',#744,#594,#595);
#510=AXIS2_PLACEMENT_3D('',#745,#596,#597);
#511=AXIS2_PLACEMENT_3D('',#747,#598,#599);
#512=AXIS2_PLACEMENT_3D('',#749,#600,#601);
#513=AXIS2_PLACEMENT_3D('',#751,#602,#603);
#514=AXIS2_PLACEMENT_3D('',#753,#604,#605);
#515=AXIS2_PLACEMENT_3D('',#758,#607,#608);
#516=AXIS2_PLACEMENT_3D('',#771,#615,#616);
#517=AXIS2_PLACEMENT_3D('',#772,#617,#618);
#518=AXIS2_PLACEMENT_3D('',#773,#619,#620);
#519=AXIS2_PLACEMENT_3D('',#775,#621,#622);
#520=AXIS2_PLACEMENT_3D('',#777,#623,#624);
#521=AXIS2_PLACEMENT_3D('',#778,#625,#626);
#522=AXIS2_PLACEMENT_3D('',#780,#627,#628);
#523=AXIS2_PLACEMENT_3D('',#781,#629,#630);
#524=AXIS2_PLACEMENT_3D('',#783,#631,#632);
#525=AXIS2_PLACEMENT_3D('',#792,#637,#638);
#526=AXIS2_PLACEMENT_3D('',#793,#639,#640);
#527=AXIS2_PLACEMENT_3D('',#795,#641,#642);
#528=AXIS2_PLACEMENT_3D('',#797,#643,#644);
#529=AXIS2_PLACEMENT_3D('',#798,#645,#646);
#530=AXIS2_PLACEMENT_3D('',#799,#647,#648);
#531=AXIS2_PLACEMENT_3D('',#800,#649,#650);
#532=AXIS2_PLACEMENT_3D('',#801,#651,#652);
#533=AXIS2_PLACEMENT_3D('',#802,#653,#654);
#534=AXIS2_PLACEMENT_3D('',#803,#655,#656);
#535=AXIS2_PLACEMENT_3D('',#804,#657,#658);
#536=AXIS2_PLACEMENT_3D('',#806,#660,#661);
#537=AXIS2_PLACEMENT_3D('',#808,#663,#664);
#538=AXIS2_PLACEMENT_3D('',#810,#666,#667);
#539=AXIS2_PLACEMENT_3D('',#813,#670,#671);
#540=AXIS2_PLACEMENT_3D('',#814,#672,#673);
#541=AXIS2_PLACEMENT_3D('',#815,#674,#675);
#542=AXIS2_PLACEMENT_3D('',#816,#676,#677);
#543=AXIS2_PLACEMENT_3D('',#817,#678,#679);
#544=AXIS2_PLACEMENT_3D('',#818,#680,#681);
#545=AXIS2_PLACEMENT_3D('',#819,#682,#683);
#546=AXIS2_PLACEMENT_3D('',#820,#684,#685);
#547=AXIS2_PLACEMENT_3D('',#821,#686,#687);
#548=AXIS2_PLACEMENT_3D('',#822,#688,#689);
#549=AXIS2_PLACEMENT_3D('',#823,#690,#691);
#550=DIRECTION('',(0.,0.,1.));
#551=DIRECTION('',(1.,0.,0.));
#552=DIRECTION('',(-1.30719991189349E-15,1.,-5.72862171146041E-14));
#553=DIRECTION('',(1.,1.30719991189349E-15,-7.48845379649221E-29));
#554=DIRECTION('',(-1.30719991189349E-15,1.,-5.72862171146041E-14));
#555=DIRECTION('',(0.,5.72862171146041E-14,1.));
#556=DIRECTION('',(-1.30719991189349E-15,1.,-5.72862171146041E-14));
#557=DIRECTION('',(0.,5.72862171146041E-14,1.));
#558=DIRECTION('',(-5.55111512312299E-14,5.7286217114604E-14,1.));
#559=DIRECTION('',(-1.30719991189349E-15,1.,-5.72862171146041E-14));
#560=DIRECTION('',(0.,5.72862171146041E-14,1.));
#561=DIRECTION('',(-1.,-1.30719991189667E-15,-5.55111515156889E-14));
#562=DIRECTION('',(-1.30719991189349E-15,1.,-5.72862171146041E-14));
#563=DIRECTION('',(0.,5.72862171146041E-14,1.));
#564=DIRECTION('',(-6.66904802986022E-14,5.7286217114604E-14,1.));
#565=DIRECTION('',(1.,1.30719991189666E-15,5.52984630062231E-14));
#566=DIRECTION('',(1.,1.30719991189731E-15,6.66904802986021E-14));
#567=DIRECTION('',(6.66904802986021E-14,0.,-1.));
#568=DIRECTION('',(1.,1.30719991189731E-15,6.66904802986021E-14));
#569=DIRECTION('',(6.66904802986021E-14,0.,-1.));
#570=DIRECTION('',(1.,1.30719991189731E-15,6.66904802986021E-14));
#571=DIRECTION('',(6.66904802986021E-14,0.,-1.));
#572=DIRECTION('',(1.,1.30719991189731E-15,6.66904802986021E-14));
#573=DIRECTION('',(6.66904802986021E-14,0.,-1.));
#574=DIRECTION('',(1.,1.30719991189731E-15,6.66904802986021E-14));
#575=DIRECTION('',(6.66904802986021E-14,0.,-1.));
#576=DIRECTION('',(1.,1.30719991189731E-15,6.66904802986021E-14));
#577=DIRECTION('',(6.66904802986021E-14,0.,-1.));
#578=DIRECTION('',(-1.30719991189349E-15,1.,-5.72862171146041E-14));
#579=DIRECTION('',(1.,1.30719991189731E-15,6.66904802986021E-14));
#580=DIRECTION('',(6.66904802986021E-14,0.,-1.));
#581=DIRECTION('',(5.53285487600614E-14,-5.7286217114604E-14,-1.));
#582=DIRECTION('',(1.,1.30719991189731E-15,6.66904802986021E-14));
#583=DIRECTION('',(6.66904802986021E-14,0.,-1.));
#584=DIRECTION('',(-1.30719991189349E-15,1.,-5.72862171146041E-14));
#585=DIRECTION('',(1.30719991189349E-15,-1.,5.72862171146041E-14));
#586=DIRECTION('',(-6.66904802986022E-14,5.7286217114604E-14,1.));
#587=DIRECTION('',(1.30719991189349E-15,-1.,5.72862171146041E-14));
#588=DIRECTION('',(-6.66904802986022E-14,5.7286217114604E-14,1.));
#589=DIRECTION('',(-5.5511151515689E-14,5.7286217114604E-14,1.));
#590=DIRECTION('',(0.,-1.,5.7286217114604E-14));
#591=DIRECTION('',(1.30719991189349E-15,-1.,5.72862171146041E-14));
#592=DIRECTION('',(-1.,-1.30719991189667E-15,-5.55111515156889E-14));
#593=DIRECTION('',(1.30719991189349E-15,-1.,5.72862171146041E-14));
#594=DIRECTION('',(1.,1.30719991189667E-15,5.55111512312298E-14));
#595=DIRECTION('',(5.55111512312298E-14,0.,-1.));
#596=DIRECTION('',(1.,1.30719991189667E-15,5.55111512312298E-14));
#597=DIRECTION('',(5.55111512312298E-14,0.,-1.));
#598=DIRECTION('',(1.,1.30719991189667E-15,5.55111512312298E-14));
#599=DIRECTION('',(5.55111512312298E-14,0.,-1.));
#600=DIRECTION('',(1.,1.30719991189667E-15,5.55111512312298E-14));
#601=DIRECTION('',(5.55111512312298E-14,0.,-1.));
#602=DIRECTION('',(1.,1.30719991189667E-15,5.55111512312298E-14));
#603=DIRECTION('',(5.55111512312298E-14,0.,-1.));
#604=DIRECTION('',(1.,1.30719991189667E-15,5.55111512312298E-14));
#605=DIRECTION('',(5.55111512312298E-14,0.,-1.));
#606=DIRECTION('',(-5.55111512312299E-14,5.7286217114604E-14,1.));
#607=DIRECTION('',(1.,1.30719991189667E-15,5.55111512312298E-14));
#608=DIRECTION('',(5.55111512312298E-14,0.,-1.));
#609=DIRECTION('',(-1.30719991189349E-15,1.,-5.72862171146041E-14));
#610=DIRECTION('',(-5.55111512312299E-14,5.7286217114604E-14,1.));
#611=DIRECTION('',(1.30719991189349E-15,-1.,5.72862171146041E-14));
#612=DIRECTION('',(-5.55111512312299E-14,5.7286217114604E-14,1.));
#613=DIRECTION('',(1.30719991189349E-15,-1.,5.72862171146041E-14));
#614=DIRECTION('',(-1.30719991189349E-15,1.,-5.72862171146041E-14));
#615=DIRECTION('',(1.,1.30719991189667E-15,5.55111512312298E-14));
#616=DIRECTION('',(5.55111512312298E-14,0.,-1.));
#617=DIRECTION('',(1.30719991189349E-15,-1.,5.72862171146041E-14));
#618=DIRECTION('',(0.,-5.72862171146041E-14,-1.));
#619=DIRECTION('',(-1.30719991189349E-15,1.,-5.72862171146041E-14));
#620=DIRECTION('',(0.,5.72862171146041E-14,1.));
#621=DIRECTION('',(-1.30719991189349E-15,1.,-5.72862171146041E-14));
#622=DIRECTION('',(0.,5.72862171146041E-14,1.));
#623=DIRECTION('',(1.30719991189349E-15,-1.,5.72862171146041E-14));
#624=DIRECTION('',(0.,-5.72862171146041E-14,-1.));
#625=DIRECTION('',(-1.30719991189349E-15,1.,-5.72862171146041E-14));
#626=DIRECTION('',(0.,5.72862171146041E-14,1.));
#627=DIRECTION('',(1.30719991189349E-15,-1.,5.72862171146041E-14));
#628=DIRECTION('',(0.,-5.72862171146041E-14,-1.));
#629=DIRECTION('',(-1.30719991189349E-15,1.,-5.72862171146041E-14));
#630=DIRECTION('',(0.,5.72862171146041E-14,1.));
#631=DIRECTION('',(5.55111512312579E-14,-5.7286217114604E-14,-1.));
#632=DIRECTION('',(0.,1.,-5.7286217114604E-14));
#633=DIRECTION('',(1.,1.30719991189667E-15,5.55111512312578E-14));
#634=DIRECTION('',(1.30719991189349E-15,-1.,5.72862171146041E-14));
#635=DIRECTION('',(1.,1.30719991189667E-15,5.55111512312578E-14));
#636=DIRECTION('',(1.30719991189349E-15,-1.,5.72862171146041E-14));
#637=DIRECTION('',(1.30719991189349E-15,-1.,5.72862171146041E-14));
#638=DIRECTION('',(0.,-5.72862171146041E-14,-1.));
#639=DIRECTION('',(-1.30719991189349E-15,1.,-5.72862171146041E-14));
#640=DIRECTION('',(0.,5.72862171146041E-14,1.));
#641=DIRECTION('',(-1.30719991189349E-15,1.,-5.72862171146041E-14));
#642=DIRECTION('',(0.,5.72862171146041E-14,1.));
#643=DIRECTION('',(-1.30719991189349E-15,1.,-5.72862171146041E-14));
#644=DIRECTION('',(1.,1.30719991189349E-15,-7.48845379649221E-29));
#645=DIRECTION('',(-1.30719991189349E-15,1.,-5.72862171146041E-14));
#646=DIRECTION('',(0.,5.72862171146041E-14,1.));
#647=DIRECTION('',(-1.30719991189349E-15,1.,-5.72862171146041E-14));
#648=DIRECTION('',(0.,5.72862171146041E-14,1.));
#649=DIRECTION('',(-1.30719991189349E-15,1.,-5.72862171146041E-14));
#650=DIRECTION('',(0.,5.72862171146041E-14,1.));
#651=DIRECTION('',(-1.30719991189349E-15,1.,-5.72862171146041E-14));
#652=DIRECTION('',(0.,5.72862171146041E-14,1.));
#653=DIRECTION('',(-1.30719991189349E-15,1.,-5.72862171146041E-14));
#654=DIRECTION('',(1.,1.30719991189349E-15,-7.48845379649221E-29));
#655=DIRECTION('',(-1.30719991189349E-15,1.,-5.72862171146041E-14));
#656=DIRECTION('',(0.,5.72862171146041E-14,1.));
#657=DIRECTION('',(-1.30719991189349E-15,1.,-5.72862171146041E-14));
#658=DIRECTION('',(0.,5.72862171146041E-14,1.));
#659=DIRECTION('',(1.,1.30719991189666E-15,5.52984630062232E-14));
#660=DIRECTION('',(-5.52984630062232E-14,5.7286217114604E-14,1.));
#661=DIRECTION('',(0.,-1.,5.7286217114604E-14));
#662=DIRECTION('',(1.,1.30719991189666E-15,5.52984630062232E-14));
#663=DIRECTION('',(-5.52984630062232E-14,5.7286217114604E-14,1.));
#664=DIRECTION('',(0.,-1.,5.7286217114604E-14));
#665=DIRECTION('',(1.,1.30719991189666E-15,5.52984630062232E-14));
#666=DIRECTION('',(-1.30719991189349E-15,1.,-5.72862171146041E-14));
#667=DIRECTION('',(1.,1.30719991189349E-15,-7.48845379649221E-29));
#668=DIRECTION('',(1.,1.30719991189666E-15,5.52984630062232E-14));
#669=DIRECTION('',(1.,1.30719991189666E-15,5.52984630062232E-14));
#670=DIRECTION('',(-1.,-8.01706107349558E-16,-5.59551971277678E-14));
#671=DIRECTION('',(-5.59551971277678E-14,0.,1.));
#672=DIRECTION('',(-1.,-8.01706107349558E-16,-5.59551971277678E-14));
#673=DIRECTION('',(-5.59551971277678E-14,0.,1.));
#674=DIRECTION('',(-1.,-8.01706107349558E-16,-5.59551971277678E-14));
#675=DIRECTION('',(-5.59551971277678E-14,0.,1.));
#676=DIRECTION('',(-1.,-8.01706107349558E-16,-5.59551971277678E-14));
#677=DIRECTION('',(-5.59551971277678E-14,0.,1.));
#678=DIRECTION('',(-1.,-8.01706107349558E-16,-5.59551971277678E-14));
#679=DIRECTION('',(-5.59551971277678E-14,0.,1.));
#680=DIRECTION('',(-1.,-1.30719991189666E-15,-5.52984630062232E-14));
#681=DIRECTION('',(-5.52984630062232E-14,0.,1.));
#682=DIRECTION('',(1.,1.30719991189666E-15,5.52984630062232E-14));
#683=DIRECTION('',(5.52984630062232E-14,0.,-1.));
#684=DIRECTION('',(1.30719991189349E-15,-1.,5.72862171146041E-14));
#685=DIRECTION('',(0.,-5.72862171146041E-14,-1.));
#686=DIRECTION('',(-1.30719991189349E-15,1.,-5.72862171146041E-14));
#687=DIRECTION('',(0.,5.72862171146041E-14,1.));
#688=DIRECTION('',(-1.30719991189349E-15,1.,-5.72862171146041E-14));
#689=DIRECTION('',(0.,5.72862171146041E-14,1.));
#690=DIRECTION('',(1.30719991189349E-15,-1.,5.72862171146041E-14));
#691=DIRECTION('',(0.,-5.72862171146041E-14,-1.));
#692=CARTESIAN_POINT('',(0.,0.,0.));
#693=CARTESIAN_POINT('',(0.00608269588805592,-0.107678017847,0.0565472864578304));
#694=CARTESIAN_POINT('',(-0.0180000002587548,-0.107678017847001,0.0325472864578184));
#695=CARTESIAN_POINT('',(-0.0180000002587548,-0.107678017847001,0.0351972864578184));
#696=CARTESIAN_POINT('',(0.0179999997412452,-0.107678017847001,0.0325472864578204));
#697=CARTESIAN_POINT('',(0.0179999997412452,-0.107678017847001,0.0351972864578204));
#698=CARTESIAN_POINT('',(-0.0252500000000015,-0.107678017847,0.0565472864578321));
#699=CARTESIAN_POINT('',(-0.02525,-0.107678017847001,0.031547286457818));
#700=CARTESIAN_POINT('',(-0.0252500000000006,-0.107678017847,0.0407167490464855));
#701=CARTESIAN_POINT('',(-0.02225,-0.107678017847001,0.0315472864578182));
#702=CARTESIAN_POINT('',(-0.02225,-0.107678017847001,0.0285472864578181));
#703=CARTESIAN_POINT('',(-1.29377265845054E-10,-0.107678017847001,0.0285472864578194));
#704=CARTESIAN_POINT('',(0.0222499997412458,-0.107678017847001,0.0285472864578207));
#705=CARTESIAN_POINT('',(0.0222499997412456,-0.107678017847001,0.0315472864578207));
#706=CARTESIAN_POINT('',(0.0252499997412457,-0.107678017847001,0.0315472864578209));
#707=CARTESIAN_POINT('',(0.0252499997412425,-0.107678017846998,0.0800472864578448));
#708=CARTESIAN_POINT('',(0.0252499997412447,-0.107678017847,0.0407167490464869));
#709=CARTESIAN_POINT('',(-0.0073750013336105,-0.107678017847,0.0407167490464851));
#710=CARTESIAN_POINT('',(0.0252499997412424,-0.0726780178469982,0.0800472864578428));
#711=CARTESIAN_POINT('',(0.0252499997412429,-0.0931207321100616,0.0733137969497796));
#712=CARTESIAN_POINT('',(0.025249999741243,-0.0931207321100616,0.0705637969497795));
#713=CARTESIAN_POINT('',(0.025249999741245,-0.0796857032675161,0.0408787681072328));
#714=CARTESIAN_POINT('',(0.0252499997412452,-0.0796857032675161,0.0381287681072327));
#715=CARTESIAN_POINT('',(0.0252499997412432,-0.0796857032675161,0.0677488257923236));
#716=CARTESIAN_POINT('',(0.0252499997412434,-0.0796857032675161,0.0649988257923235));
#717=CARTESIAN_POINT('',(0.0252499997412432,-0.106555760952607,0.0677488257923236));
#718=CARTESIAN_POINT('',(0.0252499997412434,-0.106555760952607,0.0649988257923235));
#719=CARTESIAN_POINT('',(0.0252499997412442,-0.0931207321100547,0.0543137969497741));
#720=CARTESIAN_POINT('',(0.0252499997412451,-0.0931207321100547,0.0402137969497741));
#721=CARTESIAN_POINT('',(0.025249999741243,-0.114678017846999,0.0727167490464873));
#722=CARTESIAN_POINT('',(0.025249999741243,-0.111678017846999,0.0727167490464871));
#723=CARTESIAN_POINT('',(0.025249999741243,-0.107678017846999,0.0727167490464855));
#724=CARTESIAN_POINT('',(0.0252499997412432,-0.111678017846999,0.0697167490464871));
#725=CARTESIAN_POINT('',(0.0252499997412431,-0.114678017846999,0.0697167490464873));
#726=CARTESIAN_POINT('',(0.0252499997412438,-0.114678017847,0.056547286457827));
#727=CARTESIAN_POINT('',(0.0252499997412446,-0.114678017847,0.0437167490464873));
#728=CARTESIAN_POINT('',(0.0252499997412449,-0.111678017847,0.0437167490464871));
#729=CARTESIAN_POINT('',(0.0252499997412447,-0.111678017847,0.0407167490464872));
#730=CARTESIAN_POINT('',(0.0252499997412447,-0.114678017847,0.0407167490464873));
#731=CARTESIAN_POINT('',(0.0252499997412457,-0.072678017847001,0.0315472864578188));
#732=CARTESIAN_POINT('',(0.0252499997412457,-0.072678017847001,0.0315472864578188));
#733=CARTESIAN_POINT('',(0.0252499997412424,-0.0726780178469982,0.0800472864578428));
#734=CARTESIAN_POINT('',(0.0252499997412423,-0.0726780178469981,0.081547286457847));
#735=CARTESIAN_POINT('',(0.0252499997412424,-0.107678017846998,0.081547286457849));
#736=CARTESIAN_POINT('',(0.0252499997412424,-0.107678017846998,0.081547286457849));
#737=CARTESIAN_POINT('',(0.0252499997412425,-0.107678017846998,0.0800472864578448));
#738=CARTESIAN_POINT('',(-1.29377311597051E-10,-0.0726780178470012,0.0285472864578174));
#739=CARTESIAN_POINT('',(-0.02225,-0.0726780178470012,0.0285472864578162));
#740=CARTESIAN_POINT('',(-0.02225,-0.0726780178470012,0.0285472864578162));
#741=CARTESIAN_POINT('',(-1.29377311597051E-10,-0.0726780178470012,0.0285472864578174));
#742=CARTESIAN_POINT('',(0.0222499997412458,-0.0726780178470012,0.0285472864578186));
#743=CARTESIAN_POINT('',(0.0222499997412458,-0.107678017847001,0.0285472864578207));
#744=CARTESIAN_POINT('',(-0.0252500000000015,-0.0726780178469996,0.0565472864578301));
#745=CARTESIAN_POINT('',(-0.0252500000000024,-0.0931207321100616,0.0733137969497768));
#746=CARTESIAN_POINT('',(-0.0252500000000022,-0.0931207321100616,0.0705637969497767));
#747=CARTESIAN_POINT('',(-0.0252500000000007,-0.0796857032675162,0.0408787681072299));
#748=CARTESIAN_POINT('',(-0.0252500000000005,-0.0796857032675162,0.0381287681072298));
#749=CARTESIAN_POINT('',(-0.0252500000000021,-0.0796857032675162,0.0677488257923207));
#750=CARTESIAN_POINT('',(-0.0252500000000019,-0.0796857032675162,0.0649988257923206));
#751=CARTESIAN_POINT('',(-0.0252500000000021,-0.106555760952607,0.0677488257923207));
#752=CARTESIAN_POINT('',(-0.0252500000000019,-0.106555760952607,0.0649988257923206));
#753=CARTESIAN_POINT('',(-0.0252500000000014,-0.0931207321100547,0.0543137969497713));
#754=CARTESIAN_POINT('',(-0.0252500000000006,-0.0931207321100547,0.0402137969497713));
#755=CARTESIAN_POINT('',(-0.0252500000000015,-0.114678017847,0.0565472864578325));
#756=CARTESIAN_POINT('',(-0.0252500000000008,-0.114678017847,0.0437167490464845));
#757=CARTESIAN_POINT('',(-0.0252500000000022,-0.114678017846999,0.0697167490464845));
#758=CARTESIAN_POINT('',(-0.0252500000000022,-0.111678017846999,0.0697167490464843));
#759=CARTESIAN_POINT('',(-0.0252500000000024,-0.111678017846999,0.0727167490464843));
#760=CARTESIAN_POINT('',(-0.0252500000000024,-0.114678017846999,0.0727167490464845));
#761=CARTESIAN_POINT('',(-0.0252500000000024,-0.107678017846999,0.0727167490464855));
#762=CARTESIAN_POINT('',(-0.0252500000000015,-0.107678017847,0.0565472864578321));
#763=CARTESIAN_POINT('',(-0.0252500000000029,-0.107678017846998,0.0815472864578462));
#764=CARTESIAN_POINT('',(-0.0252500000000029,-0.0726780178469982,0.0815472864578442));
#765=CARTESIAN_POINT('',(-0.0252500000000029,-0.0726780178469982,0.0815472864578442));
#766=CARTESIAN_POINT('',(-0.0252500000000015,-0.0726780178469996,0.0565472864578301));
#767=CARTESIAN_POINT('',(-0.02525,-0.0726780178470011,0.031547286457816));
#768=CARTESIAN_POINT('',(-0.02525,-0.0726780178470011,0.031547286457816));
#769=CARTESIAN_POINT('',(-0.0252500000000006,-0.114678017847,0.0407167490464845));
#770=CARTESIAN_POINT('',(-0.0252500000000006,-0.111678017847,0.0407167490464844));
#771=CARTESIAN_POINT('',(-0.0252500000000008,-0.111678017847,0.0437167490464844));
#772=CARTESIAN_POINT('',(0.0179999997412424,-0.0726780178469982,0.0805472864578466));
#773=CARTESIAN_POINT('',(0.0179999997412424,-0.0726780178469982,0.0805472864578466));
#774=CARTESIAN_POINT('',(0.0179999997412424,-0.072678017846998,0.0831972864578466));
#775=CARTESIAN_POINT('',(0.0179999997412424,-0.107678017846998,0.0805472864578486));
#776=CARTESIAN_POINT('',(0.0179999997412424,-0.107678017846998,0.0831972864578486));
#777=CARTESIAN_POINT('',(-0.0180000002587549,-0.072678017847001,0.0325472864578164));
#778=CARTESIAN_POINT('',(-0.0180000002587549,-0.072678017847001,0.0325472864578164));
#779=CARTESIAN_POINT('',(-0.0180000002587549,-0.0726780178470008,0.0351972864578164));
#780=CARTESIAN_POINT('',(0.0179999997412451,-0.0726780178470009,0.0325472864578184));
#781=CARTESIAN_POINT('',(0.0179999997412451,-0.0726780178470009,0.0325472864578184));
#782=CARTESIAN_POINT('',(0.0179999997412451,-0.0726780178470007,0.0351972864578184));
#783=CARTESIAN_POINT('',(-9.95284246715533E-17,-0.072678017846998,0.0845472864578456));
#784=CARTESIAN_POINT('',(-5.3776427755281E-17,-0.107678017846998,0.0845472864578476));
#785=CARTESIAN_POINT('',(-0.022250000000003,-0.107678017846998,0.0845472864578463));
#786=CARTESIAN_POINT('',(0.0222499997412421,-0.107678017846998,0.0845472864578488));
#787=CARTESIAN_POINT('',(0.0222499997412421,-0.072678017846998,0.0845472864578468));
#788=CARTESIAN_POINT('',(0.0222499997412421,-0.072678017846998,0.0845472864578468));
#789=CARTESIAN_POINT('',(-9.95284246715533E-17,-0.072678017846998,0.0845472864578456));
#790=CARTESIAN_POINT('',(-0.022250000000003,-0.072678017846998,0.0845472864578443));
#791=CARTESIAN_POINT('',(-0.022250000000003,-0.072678017846998,0.0845472864578443));
#792=CARTESIAN_POINT('',(-0.0180000002587576,-0.0726780178469982,0.0805472864578446));
#793=CARTESIAN_POINT('',(-0.0180000002587576,-0.0726780178469982,0.0805472864578446));
#794=CARTESIAN_POINT('',(-0.0180000002587576,-0.072678017846998,0.0831972864578446));
#795=CARTESIAN_POINT('',(-0.0180000002587576,-0.107678017846998,0.0805472864578466));
#796=CARTESIAN_POINT('',(-0.0180000002587576,-0.107678017846998,0.0831972864578466));
#797=CARTESIAN_POINT('',(0.00608269588805587,-0.0726780178469996,0.0565472864578284));
#798=CARTESIAN_POINT('',(-0.02225,-0.0726780178470011,0.0315472864578161));
#799=CARTESIAN_POINT('',(-0.0222500000000029,-0.0726780178469982,0.0815472864578443));
#800=CARTESIAN_POINT('',(0.0222499997412423,-0.0726780178469981,0.0815472864578468));
#801=CARTESIAN_POINT('',(0.0222499997412456,-0.072678017847001,0.0315472864578187));
#802=CARTESIAN_POINT('',(0.00608269588805592,-0.107678017847,0.0565472864578304));
#803=CARTESIAN_POINT('',(0.0222499997412423,-0.107678017846998,0.0815472864578488));
#804=CARTESIAN_POINT('',(-0.0222500000000028,-0.107678017846998,0.0815472864578463));
#805=CARTESIAN_POINT('',(-0.00737500133361228,-0.107678017846999,0.0727167490464851));
#806=CARTESIAN_POINT('',(-0.00737500133361227,-0.114678017846999,0.0727167490464855));
#807=CARTESIAN_POINT('',(0.025249999741243,-0.111678017846999,0.0727167490464871));
#808=CARTESIAN_POINT('',(-0.00737500133361049,-0.114678017847,0.0407167490464855));
#809=CARTESIAN_POINT('',(-0.00737500133361049,-0.111678017847,0.0407167490464854));
#810=CARTESIAN_POINT('',(-0.00737500120423383,-0.114678017847,0.0565472864578339));
#811=CARTESIAN_POINT('',(-0.0252500000000022,-0.114678017846999,0.0697167490464845));
#812=CARTESIAN_POINT('',(-0.00737500120423312,-0.114678017847,0.0437167490464855));
#813=CARTESIAN_POINT('',(0.0435133458281904,-0.0931207321100547,0.0543137969497751));
#814=CARTESIAN_POINT('',(0.0435133458281896,-0.106555760952607,0.0677488257923246));
#815=CARTESIAN_POINT('',(0.0435133458281895,-0.0796857032675161,0.0677488257923246));
#816=CARTESIAN_POINT('',(0.0435133458281911,-0.0796857032675161,0.0408787681072338));
#817=CARTESIAN_POINT('',(0.0435133458281892,-0.0931207321100615,0.0733137969497806));
#818=CARTESIAN_POINT('',(-0.00737500133361211,-0.111678017846999,0.0697167490464853));
#819=CARTESIAN_POINT('',(-0.00737500120423313,-0.111678017847,0.0437167490464853));
#820=CARTESIAN_POINT('',(-0.02225,-0.0726780178470011,0.0315472864578161));
#821=CARTESIAN_POINT('',(0.0222499997412456,-0.072678017847001,0.0315472864578187));
#822=CARTESIAN_POINT('',(0.0222499997412423,-0.0726780178469981,0.0815472864578468));
#823=CARTESIAN_POINT('',(-0.0222500000000029,-0.0726780178469982,0.0815472864578443));
#824=MECHANICAL_DESIGN_GEOMETRIC_PRESENTATION_REPRESENTATION('',(#483),
#825);
#825=(
GEOMETRIC_REPRESENTATION_CONTEXT(3)
GLOBAL_UNCERTAINTY_ASSIGNED_CONTEXT((#826))
GLOBAL_UNIT_ASSIGNED_CONTEXT((#829,#828,#827))
REPRESENTATION_CONTEXT('BallScrewConnector1','TOP_LEVEL_ASSEMBLY_PART')
);
#826=UNCERTAINTY_MEASURE_WITH_UNIT(LENGTH_MEASURE(1.E-8),#829,
'DISTANCE_ACCURACY_VALUE','Maximum Tolerance applied to model');
#827=(
NAMED_UNIT(*)
SI_UNIT($,.STERADIAN.)
SOLID_ANGLE_UNIT()
);
#828=(
NAMED_UNIT(*)
PLANE_ANGLE_UNIT()
SI_UNIT($,.RADIAN.)
);
#829=(
LENGTH_UNIT()
NAMED_UNIT(*)
SI_UNIT($,.METRE.)
);
#830=PRODUCT_DEFINITION_SHAPE('','',#831);
#831=PRODUCT_DEFINITION('','',#833,#832);
#832=PRODUCT_DEFINITION_CONTEXT('',#839,'design');
#833=PRODUCT_DEFINITION_FORMATION_WITH_SPECIFIED_SOURCE('','',#835,
 .NOT_KNOWN.);
#834=PRODUCT_RELATED_PRODUCT_CATEGORY('','',(#835));
#835=PRODUCT('BallScrewConnector1','BallScrewConnector1',
'BallScrewConnector1',(#837));
#836=PRODUCT_CATEGORY('','');
#837=PRODUCT_CONTEXT('',#839,'mechanical');
#838=APPLICATION_PROTOCOL_DEFINITION('international standard',
'ap242_managed_model_based_3d_engineering',2020,#839);
#839=APPLICATION_CONTEXT('managed model based 3d engineering');
ENDSEC;
END-ISO-10303-21;
