ISO-10303-21;
HEADER;
/* Generated by software containing ST-Developer
 * from STEP Tools, Inc. (www.steptools.com) 
 */
/* OPTION: using custom renumber hook */

FILE_DESCRIPTION(
/* description */ ('STEP AP242 Edition 2',
'CAx-IF Rec.Pracs.---Representation and Presentation of Product Manufa
cturing Information (PMI)---4.0---2014-10-13',
'CAx-IF Rec.Pracs.---3D Tessellated Geometry---0.4---2014-09-14','2;1',
'CAx-IF Rec.Pracs.---User Defined Attributes---1.5---2016-08-15'),
/* implementation_level */ '2;1');

FILE_NAME(
/* name */ 'Router - BallScrewHolder1',
/* time_stamp */ '2026-08-01T11:31:40Z',
/* author */ (''),
/* organization */ (''),
/* preprocessor_version */ 'ST-DEVELOPER v20',
/* originating_system */ 'ONSHAPE BY PTC INC, 1.218',
/* authorisation */ '  ');

FILE_SCHEMA (('AP242_MANAGED_MODEL_BASED_3D_ENGINEERING_MIM_LF { 1 0 10303 442 3 1 4 }'));
ENDSEC;

DATA;
#10=SHAPE_REPRESENTATION_RELATIONSHIP('','',#369,#11);
#11=ADVANCED_BREP_SHAPE_REPRESENTATION('',(#367),#619);
#12=ELLIPSE('',#406,0.00424264068711928,0.003);
#13=ELLIPSE('',#408,0.00424264068711928,0.003);
#14=ELLIPSE('',#411,0.00424264068711928,0.003);
#15=ELLIPSE('',#413,0.00424264068711928,0.003);
#16=CYLINDRICAL_SURFACE('',#397,0.00275);
#17=CYLINDRICAL_SURFACE('',#398,0.00275);
#18=CYLINDRICAL_SURFACE('',#399,0.01725);
#19=CYLINDRICAL_SURFACE('',#400,0.00275);
#20=CYLINDRICAL_SURFACE('',#401,0.00275);
#21=CYLINDRICAL_SURFACE('',#402,0.00275);
#22=CYLINDRICAL_SURFACE('',#403,0.00275);
#23=CYLINDRICAL_SURFACE('',#404,0.00275);
#24=CYLINDRICAL_SURFACE('',#405,0.003);
#25=CYLINDRICAL_SURFACE('',#407,0.003);
#26=CYLINDRICAL_SURFACE('',#409,0.003);
#27=CYLINDRICAL_SURFACE('',#410,0.003);
#28=CYLINDRICAL_SURFACE('',#412,0.003);
#29=CYLINDRICAL_SURFACE('',#414,0.003);
#30=CIRCLE('',#375,0.00275);
#31=CIRCLE('',#376,0.00275);
#32=CIRCLE('',#377,0.00275);
#33=CIRCLE('',#378,0.00275);
#34=CIRCLE('',#379,0.00275);
#35=CIRCLE('',#380,0.01725);
#36=CIRCLE('',#381,0.00275);
#37=CIRCLE('',#382,0.00275);
#38=CIRCLE('',#384,0.00275);
#39=CIRCLE('',#385,0.00275);
#40=CIRCLE('',#386,0.00275);
#41=CIRCLE('',#387,0.00275);
#42=CIRCLE('',#388,0.00275);
#43=CIRCLE('',#389,0.01725);
#44=CIRCLE('',#390,0.00275);
#45=CIRCLE('',#391,0.00275);
#46=CIRCLE('',#392,0.003);
#47=CIRCLE('',#393,0.003);
#48=CIRCLE('',#394,0.003);
#49=CIRCLE('',#395,0.003);
#50=ORIENTED_EDGE('',*,*,#134,.T.);
#51=ORIENTED_EDGE('',*,*,#135,.T.);
#52=ORIENTED_EDGE('',*,*,#136,.F.);
#53=ORIENTED_EDGE('',*,*,#137,.T.);
#54=ORIENTED_EDGE('',*,*,#138,.T.);
#55=ORIENTED_EDGE('',*,*,#139,.T.);
#56=ORIENTED_EDGE('',*,*,#140,.F.);
#57=ORIENTED_EDGE('',*,*,#141,.T.);
#58=ORIENTED_EDGE('',*,*,#142,.T.);
#59=ORIENTED_EDGE('',*,*,#143,.T.);
#60=ORIENTED_EDGE('',*,*,#144,.T.);
#61=ORIENTED_EDGE('',*,*,#145,.T.);
#62=ORIENTED_EDGE('',*,*,#146,.F.);
#63=ORIENTED_EDGE('',*,*,#147,.F.);
#64=ORIENTED_EDGE('',*,*,#148,.F.);
#65=ORIENTED_EDGE('',*,*,#149,.F.);
#66=ORIENTED_EDGE('',*,*,#150,.F.);
#67=ORIENTED_EDGE('',*,*,#151,.F.);
#68=ORIENTED_EDGE('',*,*,#152,.F.);
#69=ORIENTED_EDGE('',*,*,#153,.F.);
#70=ORIENTED_EDGE('',*,*,#154,.F.);
#71=ORIENTED_EDGE('',*,*,#155,.T.);
#72=ORIENTED_EDGE('',*,*,#136,.T.);
#73=ORIENTED_EDGE('',*,*,#156,.T.);
#74=ORIENTED_EDGE('',*,*,#157,.F.);
#75=ORIENTED_EDGE('',*,*,#158,.F.);
#76=ORIENTED_EDGE('',*,*,#159,.F.);
#77=ORIENTED_EDGE('',*,*,#160,.F.);
#78=ORIENTED_EDGE('',*,*,#161,.F.);
#79=ORIENTED_EDGE('',*,*,#162,.F.);
#80=ORIENTED_EDGE('',*,*,#163,.F.);
#81=ORIENTED_EDGE('',*,*,#164,.F.);
#82=ORIENTED_EDGE('',*,*,#140,.T.);
#83=ORIENTED_EDGE('',*,*,#165,.T.);
#84=ORIENTED_EDGE('',*,*,#134,.F.);
#85=ORIENTED_EDGE('',*,*,#166,.T.);
#86=ORIENTED_EDGE('',*,*,#142,.F.);
#87=ORIENTED_EDGE('',*,*,#167,.T.);
#88=ORIENTED_EDGE('',*,*,#168,.T.);
#89=ORIENTED_EDGE('',*,*,#169,.T.);
#90=ORIENTED_EDGE('',*,*,#154,.T.);
#91=ORIENTED_EDGE('',*,*,#170,.T.);
#92=ORIENTED_EDGE('',*,*,#168,.F.);
#93=ORIENTED_EDGE('',*,*,#171,.T.);
#94=ORIENTED_EDGE('',*,*,#164,.T.);
#95=ORIENTED_EDGE('',*,*,#153,.T.);
#96=ORIENTED_EDGE('',*,*,#163,.T.);
#97=ORIENTED_EDGE('',*,*,#152,.T.);
#98=ORIENTED_EDGE('',*,*,#162,.T.);
#99=ORIENTED_EDGE('',*,*,#151,.T.);
#100=ORIENTED_EDGE('',*,*,#161,.T.);
#101=ORIENTED_EDGE('',*,*,#150,.T.);
#102=ORIENTED_EDGE('',*,*,#160,.T.);
#103=ORIENTED_EDGE('',*,*,#149,.T.);
#104=ORIENTED_EDGE('',*,*,#159,.T.);
#105=ORIENTED_EDGE('',*,*,#148,.T.);
#106=ORIENTED_EDGE('',*,*,#158,.T.);
#107=ORIENTED_EDGE('',*,*,#147,.T.);
#108=ORIENTED_EDGE('',*,*,#157,.T.);
#109=ORIENTED_EDGE('',*,*,#146,.T.);
#110=ORIENTED_EDGE('',*,*,#169,.F.);
#111=ORIENTED_EDGE('',*,*,#170,.F.);
#112=ORIENTED_EDGE('',*,*,#172,.F.);
#113=ORIENTED_EDGE('',*,*,#141,.F.);
#114=ORIENTED_EDGE('',*,*,#172,.T.);
#115=ORIENTED_EDGE('',*,*,#156,.F.);
#116=ORIENTED_EDGE('',*,*,#173,.F.);
#117=ORIENTED_EDGE('',*,*,#138,.F.);
#118=ORIENTED_EDGE('',*,*,#173,.T.);
#119=ORIENTED_EDGE('',*,*,#135,.F.);
#120=ORIENTED_EDGE('',*,*,#165,.F.);
#121=ORIENTED_EDGE('',*,*,#139,.F.);
#122=ORIENTED_EDGE('',*,*,#167,.F.);
#123=ORIENTED_EDGE('',*,*,#145,.F.);
#124=ORIENTED_EDGE('',*,*,#174,.F.);
#125=ORIENTED_EDGE('',*,*,#171,.F.);
#126=ORIENTED_EDGE('',*,*,#174,.T.);
#127=ORIENTED_EDGE('',*,*,#144,.F.);
#128=ORIENTED_EDGE('',*,*,#175,.F.);
#129=ORIENTED_EDGE('',*,*,#155,.F.);
#130=ORIENTED_EDGE('',*,*,#175,.T.);
#131=ORIENTED_EDGE('',*,*,#143,.F.);
#132=ORIENTED_EDGE('',*,*,#166,.F.);
#133=ORIENTED_EDGE('',*,*,#137,.F.);
#134=EDGE_CURVE('',#176,#177,#208,.T.);
#135=EDGE_CURVE('',#177,#178,#209,.F.);
#136=EDGE_CURVE('',#179,#178,#210,.T.);
#137=EDGE_CURVE('',#179,#176,#211,.T.);
#138=EDGE_CURVE('',#180,#181,#212,.T.);
#139=EDGE_CURVE('',#181,#182,#213,.T.);
#140=EDGE_CURVE('',#183,#182,#214,.T.);
#141=EDGE_CURVE('',#183,#180,#215,.F.);
#142=EDGE_CURVE('',#184,#185,#216,.T.);
#143=EDGE_CURVE('',#185,#186,#217,.F.);
#144=EDGE_CURVE('',#186,#187,#218,.F.);
#145=EDGE_CURVE('',#187,#184,#219,.T.);
#146=EDGE_CURVE('',#188,#188,#30,.T.);
#147=EDGE_CURVE('',#189,#189,#31,.T.);
#148=EDGE_CURVE('',#190,#190,#32,.T.);
#149=EDGE_CURVE('',#191,#191,#33,.T.);
#150=EDGE_CURVE('',#192,#192,#34,.T.);
#151=EDGE_CURVE('',#193,#193,#35,.T.);
#152=EDGE_CURVE('',#194,#194,#36,.T.);
#153=EDGE_CURVE('',#195,#195,#37,.T.);
#154=EDGE_CURVE('',#196,#197,#220,.T.);
#155=EDGE_CURVE('',#196,#179,#221,.T.);
#156=EDGE_CURVE('',#178,#197,#222,.F.);
#157=EDGE_CURVE('',#198,#198,#38,.T.);
#158=EDGE_CURVE('',#199,#199,#39,.T.);
#159=EDGE_CURVE('',#200,#200,#40,.T.);
#160=EDGE_CURVE('',#201,#201,#41,.T.);
#161=EDGE_CURVE('',#202,#202,#42,.T.);
#162=EDGE_CURVE('',#203,#203,#43,.T.);
#163=EDGE_CURVE('',#204,#204,#44,.T.);
#164=EDGE_CURVE('',#205,#205,#45,.T.);
#165=EDGE_CURVE('',#182,#177,#46,.T.);
#166=EDGE_CURVE('',#176,#185,#47,.T.);
#167=EDGE_CURVE('',#184,#206,#48,.T.);
#168=EDGE_CURVE('',#206,#207,#223,.T.);
#169=EDGE_CURVE('',#207,#183,#49,.T.);
#170=EDGE_CURVE('',#197,#207,#224,.T.);
#171=EDGE_CURVE('',#206,#196,#225,.F.);
#172=EDGE_CURVE('',#180,#197,#12,.F.);
#173=EDGE_CURVE('',#181,#178,#13,.F.);
#174=EDGE_CURVE('',#196,#187,#14,.T.);
#175=EDGE_CURVE('',#179,#186,#15,.T.);
#176=VERTEX_POINT('',#526);
#177=VERTEX_POINT('',#527);
#178=VERTEX_POINT('',#529);
#179=VERTEX_POINT('',#531);
#180=VERTEX_POINT('',#535);
#181=VERTEX_POINT('',#536);
#182=VERTEX_POINT('',#538);
#183=VERTEX_POINT('',#540);
#184=VERTEX_POINT('',#544);
#185=VERTEX_POINT('',#545);
#186=VERTEX_POINT('',#547);
#187=VERTEX_POINT('',#549);
#188=VERTEX_POINT('',#553);
#189=VERTEX_POINT('',#555);
#190=VERTEX_POINT('',#557);
#191=VERTEX_POINT('',#559);
#192=VERTEX_POINT('',#561);
#193=VERTEX_POINT('',#563);
#194=VERTEX_POINT('',#565);
#195=VERTEX_POINT('',#567);
#196=VERTEX_POINT('',#569);
#197=VERTEX_POINT('',#570);
#198=VERTEX_POINT('',#575);
#199=VERTEX_POINT('',#577);
#200=VERTEX_POINT('',#579);
#201=VERTEX_POINT('',#581);
#202=VERTEX_POINT('',#583);
#203=VERTEX_POINT('',#585);
#204=VERTEX_POINT('',#587);
#205=VERTEX_POINT('',#589);
#206=VERTEX_POINT('',#593);
#207=VERTEX_POINT('',#595);
#208=LINE('',#525,#226);
#209=LINE('',#528,#227);
#210=LINE('',#530,#228);
#211=LINE('',#532,#229);
#212=LINE('',#534,#230);
#213=LINE('',#537,#231);
#214=LINE('',#539,#232);
#215=LINE('',#541,#233);
#216=LINE('',#543,#234);
#217=LINE('',#546,#235);
#218=LINE('',#548,#236);
#219=LINE('',#550,#237);
#220=LINE('',#568,#238);
#221=LINE('',#571,#239);
#222=LINE('',#572,#240);
#223=LINE('',#594,#241);
#224=LINE('',#598,#242);
#225=LINE('',#599,#243);
#226=VECTOR('',#419,1.);
#227=VECTOR('',#420,1.);
#228=VECTOR('',#421,1.);
#229=VECTOR('',#422,1.);
#230=VECTOR('',#425,1.);
#231=VECTOR('',#426,1.);
#232=VECTOR('',#427,1.);
#233=VECTOR('',#428,1.);
#234=VECTOR('',#431,1.);
#235=VECTOR('',#432,1.);
#236=VECTOR('',#433,1.);
#237=VECTOR('',#434,1.);
#238=VECTOR('',#453,1.);
#239=VECTOR('',#454,1.);
#240=VECTOR('',#455,1.);
#241=VECTOR('',#480,1.);
#242=VECTOR('',#485,1.);
#243=VECTOR('',#486,1.);
#244=EDGE_LOOP('',(#50,#51,#52,#53));
#245=EDGE_LOOP('',(#54,#55,#56,#57));
#246=EDGE_LOOP('',(#58,#59,#60,#61));
#247=EDGE_LOOP('',(#62));
#248=EDGE_LOOP('',(#63));
#249=EDGE_LOOP('',(#64));
#250=EDGE_LOOP('',(#65));
#251=EDGE_LOOP('',(#66));
#252=EDGE_LOOP('',(#67));
#253=EDGE_LOOP('',(#68));
#254=EDGE_LOOP('',(#69));
#255=EDGE_LOOP('',(#70,#71,#72,#73));
#256=EDGE_LOOP('',(#74));
#257=EDGE_LOOP('',(#75));
#258=EDGE_LOOP('',(#76));
#259=EDGE_LOOP('',(#77));
#260=EDGE_LOOP('',(#78));
#261=EDGE_LOOP('',(#79));
#262=EDGE_LOOP('',(#80));
#263=EDGE_LOOP('',(#81));
#264=EDGE_LOOP('',(#82,#83,#84,#85,#86,#87,#88,#89));
#265=EDGE_LOOP('',(#90,#91,#92,#93));
#266=EDGE_LOOP('',(#94));
#267=EDGE_LOOP('',(#95));
#268=EDGE_LOOP('',(#96));
#269=EDGE_LOOP('',(#97));
#270=EDGE_LOOP('',(#98));
#271=EDGE_LOOP('',(#99));
#272=EDGE_LOOP('',(#100));
#273=EDGE_LOOP('',(#101));
#274=EDGE_LOOP('',(#102));
#275=EDGE_LOOP('',(#103));
#276=EDGE_LOOP('',(#104));
#277=EDGE_LOOP('',(#105));
#278=EDGE_LOOP('',(#106));
#279=EDGE_LOOP('',(#107));
#280=EDGE_LOOP('',(#108));
#281=EDGE_LOOP('',(#109));
#282=EDGE_LOOP('',(#110,#111,#112,#113));
#283=EDGE_LOOP('',(#114,#115,#116,#117));
#284=EDGE_LOOP('',(#118,#119,#120,#121));
#285=EDGE_LOOP('',(#122,#123,#124,#125));
#286=EDGE_LOOP('',(#126,#127,#128,#129));
#287=EDGE_LOOP('',(#130,#131,#132,#133));
#288=FACE_BOUND('',#244,.T.);
#289=FACE_BOUND('',#245,.T.);
#290=FACE_BOUND('',#246,.T.);
#291=FACE_BOUND('',#247,.T.);
#292=FACE_BOUND('',#248,.T.);
#293=FACE_BOUND('',#249,.T.);
#294=FACE_BOUND('',#250,.T.);
#295=FACE_BOUND('',#251,.T.);
#296=FACE_BOUND('',#252,.T.);
#297=FACE_BOUND('',#253,.T.);
#298=FACE_BOUND('',#254,.T.);
#299=FACE_BOUND('',#255,.T.);
#300=FACE_BOUND('',#256,.T.);
#301=FACE_BOUND('',#257,.T.);
#302=FACE_BOUND('',#258,.T.);
#303=FACE_BOUND('',#259,.T.);
#304=FACE_BOUND('',#260,.T.);
#305=FACE_BOUND('',#261,.T.);
#306=FACE_BOUND('',#262,.T.);
#307=FACE_BOUND('',#263,.T.);
#308=FACE_BOUND('',#264,.T.);
#309=FACE_BOUND('',#265,.T.);
#310=FACE_BOUND('',#266,.T.);
#311=FACE_BOUND('',#267,.T.);
#312=FACE_BOUND('',#268,.T.);
#313=FACE_BOUND('',#269,.T.);
#314=FACE_BOUND('',#270,.T.);
#315=FACE_BOUND('',#271,.T.);
#316=FACE_BOUND('',#272,.T.);
#317=FACE_BOUND('',#273,.T.);
#318=FACE_BOUND('',#274,.T.);
#319=FACE_BOUND('',#275,.T.);
#320=FACE_BOUND('',#276,.T.);
#321=FACE_BOUND('',#277,.T.);
#322=FACE_BOUND('',#278,.T.);
#323=FACE_BOUND('',#279,.T.);
#324=FACE_BOUND('',#280,.T.);
#325=FACE_BOUND('',#281,.T.);
#326=FACE_BOUND('',#282,.T.);
#327=FACE_BOUND('',#283,.T.);
#328=FACE_BOUND('',#284,.T.);
#329=FACE_BOUND('',#285,.T.);
#330=FACE_BOUND('',#286,.T.);
#331=FACE_BOUND('',#287,.T.);
#332=PLANE('',#371);
#333=PLANE('',#372);
#334=PLANE('',#373);
#335=PLANE('',#374);
#336=PLANE('',#383);
#337=PLANE('',#396);
#338=ADVANCED_FACE('',(#288),#332,.F.);
#339=ADVANCED_FACE('',(#289),#333,.T.);
#340=ADVANCED_FACE('',(#290),#334,.F.);
#341=ADVANCED_FACE('',(#291,#292,#293,#294,#295,#296,#297,#298,#299),#335,
 .F.);
#342=ADVANCED_FACE('',(#300,#301,#302,#303,#304,#305,#306,#307,#308),#336,
 .T.);
#343=ADVANCED_FACE('',(#309),#337,.T.);
#344=ADVANCED_FACE('',(#310,#311),#16,.F.);
#345=ADVANCED_FACE('',(#312,#313),#17,.F.);
#346=ADVANCED_FACE('',(#314,#315),#18,.F.);
#347=ADVANCED_FACE('',(#316,#317),#19,.F.);
#348=ADVANCED_FACE('',(#318,#319),#20,.F.);
#349=ADVANCED_FACE('',(#320,#321),#21,.F.);
#350=ADVANCED_FACE('',(#322,#323),#22,.F.);
#351=ADVANCED_FACE('',(#324,#325),#23,.F.);
#352=ADVANCED_FACE('',(#326),#24,.T.);
#353=ADVANCED_FACE('',(#327),#25,.T.);
#354=ADVANCED_FACE('',(#328),#26,.T.);
#355=ADVANCED_FACE('',(#329),#27,.T.);
#356=ADVANCED_FACE('',(#330),#28,.T.);
#357=ADVANCED_FACE('',(#331),#29,.T.);
#358=CLOSED_SHELL('',(#338,#339,#340,#341,#342,#343,#344,#345,#346,#347,
#348,#349,#350,#351,#352,#353,#354,#355,#356,#357));
#359=STYLED_ITEM('',(#360),#367);
#360=PRESENTATION_STYLE_ASSIGNMENT((#361));
#361=SURFACE_STYLE_USAGE(.BOTH.,#362);
#362=SURFACE_SIDE_STYLE('',(#363));
#363=SURFACE_STYLE_FILL_AREA(#364);
#364=FILL_AREA_STYLE('',(#365));
#365=FILL_AREA_STYLE_COLOUR('',#366);
#366=COLOUR_RGB('',0.972549019607843,0.529411764705882,0.00392156862745098);
#367=MANIFOLD_SOLID_BREP('BallScrewHolder1',#358);
#368=SHAPE_DEFINITION_REPRESENTATION(#624,#369);
#369=SHAPE_REPRESENTATION('BallScrewHolder1',(#370),#619);
#370=AXIS2_PLACEMENT_3D('',#523,#415,#416);
#371=AXIS2_PLACEMENT_3D('',#524,#417,#418);
#372=AXIS2_PLACEMENT_3D('',#533,#423,#424);
#373=AXIS2_PLACEMENT_3D('',#542,#429,#430);
#374=AXIS2_PLACEMENT_3D('',#551,#435,#436);
#375=AXIS2_PLACEMENT_3D('',#552,#437,#438);
#376=AXIS2_PLACEMENT_3D('',#554,#439,#440);
#377=AXIS2_PLACEMENT_3D('',#556,#441,#442);
#378=AXIS2_PLACEMENT_3D('',#558,#443,#444);
#379=AXIS2_PLACEMENT_3D('',#560,#445,#446);
#380=AXIS2_PLACEMENT_3D('',#562,#447,#448);
#381=AXIS2_PLACEMENT_3D('',#564,#449,#450);
#382=AXIS2_PLACEMENT_3D('',#566,#451,#452);
#383=AXIS2_PLACEMENT_3D('',#573,#456,#457);
#384=AXIS2_PLACEMENT_3D('',#574,#458,#459);
#385=AXIS2_PLACEMENT_3D('',#576,#460,#461);
#386=AXIS2_PLACEMENT_3D('',#578,#462,#463);
#387=AXIS2_PLACEMENT_3D('',#580,#464,#465);
#388=AXIS2_PLACEMENT_3D('',#582,#466,#467);
#389=AXIS2_PLACEMENT_3D('',#584,#468,#469);
#390=AXIS2_PLACEMENT_3D('',#586,#470,#471);
#391=AXIS2_PLACEMENT_3D('',#588,#472,#473);
#392=AXIS2_PLACEMENT_3D('',#590,#474,#475);
#393=AXIS2_PLACEMENT_3D('',#591,#476,#477);
#394=AXIS2_PLACEMENT_3D('',#592,#478,#479);
#395=AXIS2_PLACEMENT_3D('',#596,#481,#482);
#396=AXIS2_PLACEMENT_3D('',#597,#483,#484);
#397=AXIS2_PLACEMENT_3D('',#600,#487,#488);
#398=AXIS2_PLACEMENT_3D('',#601,#489,#490);
#399=AXIS2_PLACEMENT_3D('',#602,#491,#492);
#400=AXIS2_PLACEMENT_3D('',#603,#493,#494);
#401=AXIS2_PLACEMENT_3D('',#604,#495,#496);
#402=AXIS2_PLACEMENT_3D('',#605,#497,#498);
#403=AXIS2_PLACEMENT_3D('',#606,#499,#500);
#404=AXIS2_PLACEMENT_3D('',#607,#501,#502);
#405=AXIS2_PLACEMENT_3D('',#608,#503,#504);
#406=AXIS2_PLACEMENT_3D('',#609,#505,#506);
#407=AXIS2_PLACEMENT_3D('',#610,#507,#508);
#408=AXIS2_PLACEMENT_3D('',#611,#509,#510);
#409=AXIS2_PLACEMENT_3D('',#612,#511,#512);
#410=AXIS2_PLACEMENT_3D('',#613,#513,#514);
#411=AXIS2_PLACEMENT_3D('',#614,#515,#516);
#412=AXIS2_PLACEMENT_3D('',#615,#517,#518);
#413=AXIS2_PLACEMENT_3D('',#616,#519,#520);
#414=AXIS2_PLACEMENT_3D('',#617,#521,#522);
#415=DIRECTION('',(0.,0.,1.));
#416=DIRECTION('',(1.,0.,0.));
#417=DIRECTION('',(-1.30719991189349E-15,1.,-5.72862171146041E-14));
#418=DIRECTION('',(0.,5.72862171146041E-14,1.));
#419=DIRECTION('',(1.,1.30719991189667E-15,5.55111512312578E-14));
#420=DIRECTION('',(5.55111512312579E-14,-5.7286217114604E-14,-1.));
#421=DIRECTION('',(1.,1.30719991189667E-15,5.55111512312578E-14));
#422=DIRECTION('',(5.55111512312579E-14,-5.7286217114604E-14,-1.));
#423=DIRECTION('',(1.,1.30719991189667E-15,5.55111512312578E-14));
#424=DIRECTION('',(5.55111512312578E-14,0.,-1.));
#425=DIRECTION('',(1.30719991189349E-15,-1.,5.72862171146041E-14));
#426=DIRECTION('',(5.55111512312579E-14,-5.7286217114604E-14,-1.));
#427=DIRECTION('',(1.30719991189349E-15,-1.,5.72862171146041E-14));
#428=DIRECTION('',(5.55111512312579E-14,-5.7286217114604E-14,-1.));
#429=DIRECTION('',(1.,1.30719991189667E-15,5.55111512312578E-14));
#430=DIRECTION('',(5.55111512312578E-14,0.,-1.));
#431=DIRECTION('',(1.30719991189349E-15,-1.,5.72862171146041E-14));
#432=DIRECTION('',(5.55111512312579E-14,-5.7286217114604E-14,-1.));
#433=DIRECTION('',(1.30719991189349E-15,-1.,5.72862171146041E-14));
#434=DIRECTION('',(5.55111512312579E-14,-5.7286217114604E-14,-1.));
#435=DIRECTION('',(5.55111512312579E-14,-5.7286217114604E-14,-1.));
#436=DIRECTION('',(0.,1.,-5.7286217114604E-14));
#437=DIRECTION('',(-5.55111512312579E-14,5.7286217114604E-14,1.));
#438=DIRECTION('',(0.,-1.,5.7286217114604E-14));
#439=DIRECTION('',(-5.55111512312579E-14,5.7286217114604E-14,1.));
#440=DIRECTION('',(0.,-1.,5.7286217114604E-14));
#441=DIRECTION('',(-5.55111512312579E-14,5.7286217114604E-14,1.));
#442=DIRECTION('',(0.,-1.,5.7286217114604E-14));
#443=DIRECTION('',(-5.55111512312579E-14,5.7286217114604E-14,1.));
#444=DIRECTION('',(0.,-1.,5.7286217114604E-14));
#445=DIRECTION('',(-5.55111512312579E-14,5.7286217114604E-14,1.));
#446=DIRECTION('',(0.,-1.,5.7286217114604E-14));
#447=DIRECTION('',(-5.55111512312579E-14,5.7286217114604E-14,1.));
#448=DIRECTION('',(0.,-1.,5.7286217114604E-14));
#449=DIRECTION('',(-5.55111512312579E-14,5.7286217114604E-14,1.));
#450=DIRECTION('',(0.,-1.,5.7286217114604E-14));
#451=DIRECTION('',(-5.55111512312579E-14,5.7286217114604E-14,1.));
#452=DIRECTION('',(0.,-1.,5.7286217114604E-14));
#453=DIRECTION('',(1.,1.30719991189667E-15,5.55111512312578E-14));
#454=DIRECTION('',(1.30719991189349E-15,-1.,5.72862171146041E-14));
#455=DIRECTION('',(1.30719991189349E-15,-1.,5.72862171146041E-14));
#456=DIRECTION('',(5.55111512312579E-14,-5.7286217114604E-14,-1.));
#457=DIRECTION('',(0.,1.,-5.7286217114604E-14));
#458=DIRECTION('',(5.55111512312579E-14,-5.7286217114604E-14,-1.));
#459=DIRECTION('',(0.,1.,-5.7286217114604E-14));
#460=DIRECTION('',(5.55111512312579E-14,-5.7286217114604E-14,-1.));
#461=DIRECTION('',(0.,1.,-5.7286217114604E-14));
#462=DIRECTION('',(5.55111512312579E-14,-5.7286217114604E-14,-1.));
#463=DIRECTION('',(0.,1.,-5.7286217114604E-14));
#464=DIRECTION('',(5.55111512312579E-14,-5.7286217114604E-14,-1.));
#465=DIRECTION('',(0.,1.,-5.7286217114604E-14));
#466=DIRECTION('',(5.55111512312579E-14,-5.7286217114604E-14,-1.));
#467=DIRECTION('',(0.,1.,-5.7286217114604E-14));
#468=DIRECTION('',(5.55111512312579E-14,-5.7286217114604E-14,-1.));
#469=DIRECTION('',(0.,1.,-5.7286217114604E-14));
#470=DIRECTION('',(5.55111512312579E-14,-5.7286217114604E-14,-1.));
#471=DIRECTION('',(0.,1.,-5.7286217114604E-14));
#472=DIRECTION('',(5.55111512312579E-14,-5.7286217114604E-14,-1.));
#473=DIRECTION('',(0.,1.,-5.7286217114604E-14));
#474=DIRECTION('',(5.55111512312579E-14,-5.7286217114604E-14,-1.));
#475=DIRECTION('',(0.,1.,-5.7286217114604E-14));
#476=DIRECTION('',(5.55111512312579E-14,-5.7286217114604E-14,-1.));
#477=DIRECTION('',(0.,1.,-5.7286217114604E-14));
#478=DIRECTION('',(5.55111512312579E-14,-5.7286217114604E-14,-1.));
#479=DIRECTION('',(0.,1.,-5.7286217114604E-14));
#480=DIRECTION('',(1.,1.30719991189667E-15,5.55111512312578E-14));
#481=DIRECTION('',(5.55111512312579E-14,-5.7286217114604E-14,-1.));
#482=DIRECTION('',(0.,1.,-5.7286217114604E-14));
#483=DIRECTION('',(-1.30719991189349E-15,1.,-5.72862171146041E-14));
#484=DIRECTION('',(0.,5.72862171146041E-14,1.));
#485=DIRECTION('',(5.55111512312579E-14,-5.7286217114604E-14,-1.));
#486=DIRECTION('',(5.55111512312579E-14,-5.7286217114604E-14,-1.));
#487=DIRECTION('',(-5.55111512312579E-14,5.7286217114604E-14,1.));
#488=DIRECTION('',(0.,-1.,5.7286217114604E-14));
#489=DIRECTION('',(-5.55111512312579E-14,5.7286217114604E-14,1.));
#490=DIRECTION('',(0.,-1.,5.7286217114604E-14));
#491=DIRECTION('',(-5.55111512312579E-14,5.7286217114604E-14,1.));
#492=DIRECTION('',(0.,-1.,5.7286217114604E-14));
#493=DIRECTION('',(-5.55111512312579E-14,5.7286217114604E-14,1.));
#494=DIRECTION('',(0.,-1.,5.7286217114604E-14));
#495=DIRECTION('',(-5.55111512312579E-14,5.7286217114604E-14,1.));
#496=DIRECTION('',(0.,-1.,5.7286217114604E-14));
#497=DIRECTION('',(-5.55111512312579E-14,5.7286217114604E-14,1.));
#498=DIRECTION('',(0.,-1.,5.7286217114604E-14));
#499=DIRECTION('',(-5.55111512312579E-14,5.7286217114604E-14,1.));
#500=DIRECTION('',(0.,-1.,5.7286217114604E-14));
#501=DIRECTION('',(-5.55111512312579E-14,5.7286217114604E-14,1.));
#502=DIRECTION('',(0.,-1.,5.7286217114604E-14));
#503=DIRECTION('',(5.55111512312579E-14,-5.7286217114604E-14,-1.));
#504=DIRECTION('',(0.,1.,-5.7286217114604E-14));
#505=DIRECTION('',(3.83279815450281E-14,0.707106781186507,-0.707106781186588));
#506=DIRECTION('',(4.01766413891608E-14,-0.707106781186588,-0.707106781186507));
#507=DIRECTION('',(-1.30719991189349E-15,1.,-5.72862171146041E-14));
#508=DIRECTION('',(0.,5.72862171146041E-14,1.));
#509=DIRECTION('',(-4.01766413891608E-14,0.707106781186588,0.707106781186507));
#510=DIRECTION('',(3.83279815450281E-14,0.707106781186507,-0.707106781186588));
#511=DIRECTION('',(-5.55111512312579E-14,5.7286217114604E-14,1.));
#512=DIRECTION('',(0.,-1.,5.7286217114604E-14));
#513=DIRECTION('',(-5.55111512312579E-14,5.7286217114604E-14,1.));
#514=DIRECTION('',(0.,-1.,5.7286217114604E-14));
#515=DIRECTION('',(-3.83279815450281E-14,-0.707106781186507,0.707106781186588));
#516=DIRECTION('',(-4.01766413891608E-14,0.707106781186588,0.707106781186507));
#517=DIRECTION('',(1.30719991189349E-15,-1.,5.72862171146041E-14));
#518=DIRECTION('',(0.,-5.72862171146041E-14,-1.));
#519=DIRECTION('',(4.01766413891608E-14,-0.707106781186588,-0.707106781186507));
#520=DIRECTION('',(-3.83279815450281E-14,-0.707106781186507,0.707106781186588));
#521=DIRECTION('',(5.55111512312579E-14,-5.7286217114604E-14,-1.));
#522=DIRECTION('',(0.,1.,-5.7286217114604E-14));
#523=CARTESIAN_POINT('',(0.,0.,0.));
#524=CARTESIAN_POINT('',(-2.5876338571873E-10,-0.072678017846992,0.188547286457846));
#525=CARTESIAN_POINT('',(-2.58762553051462E-10,-0.0726780178469929,0.173547286457846));
#526=CARTESIAN_POINT('',(-0.0657500002587626,-0.072678017846993,0.173547286457842));
#527=CARTESIAN_POINT('',(0.0657499997412374,-0.0726780178469928,0.17354728645785));
#528=CARTESIAN_POINT('',(0.0657499997412366,-0.072678017846992,0.18854728645785));
#529=CARTESIAN_POINT('',(0.0657499997412366,-0.072678017846992,0.18854728645785));
#530=CARTESIAN_POINT('',(-2.5876338571873E-10,-0.072678017846992,0.188547286457846));
#531=CARTESIAN_POINT('',(-0.0657500002587634,-0.0726780178469921,0.188547286457842));
#532=CARTESIAN_POINT('',(-0.0657500002587634,-0.0726780178469921,0.188547286457842));
#533=CARTESIAN_POINT('',(0.0687499997412366,-0.057678017846992,0.188547286457849));
#534=CARTESIAN_POINT('',(0.0687499997412368,-0.0726780178469921,0.18554728645785));
#535=CARTESIAN_POINT('',(0.0687499997412367,-0.0156780178469921,0.185547286457846));
#536=CARTESIAN_POINT('',(0.0687499997412368,-0.0696780178469921,0.18554728645785));
#537=CARTESIAN_POINT('',(0.0687499997412374,-0.0696780178469928,0.173547286457849));
#538=CARTESIAN_POINT('',(0.0687499997412374,-0.0696780178469928,0.173547286457849));
#539=CARTESIAN_POINT('',(0.0687499997412374,-0.0576780178469928,0.173547286457849));
#540=CARTESIAN_POINT('',(0.0687499997412374,-0.0156780178469928,0.173547286457846));
#541=CARTESIAN_POINT('',(0.0687499997412365,-0.0156780178469919,0.188547286457846));
#542=CARTESIAN_POINT('',(-0.0687500002587634,-0.0576780178469921,0.188547286457841));
#543=CARTESIAN_POINT('',(-0.0687500002587626,-0.057678017846993,0.173547286457841));
#544=CARTESIAN_POINT('',(-0.0687500002587626,-0.015678017846993,0.173547286457839));
#545=CARTESIAN_POINT('',(-0.0687500002587626,-0.069678017846993,0.173547286457842));
#546=CARTESIAN_POINT('',(-0.0687500002587634,-0.0696780178469921,0.188547286457842));
#547=CARTESIAN_POINT('',(-0.0687500002587632,-0.0696780178469923,0.185547286457842));
#548=CARTESIAN_POINT('',(-0.0687500002587632,-0.0576780178469923,0.185547286457841));
#549=CARTESIAN_POINT('',(-0.0687500002587633,-0.0156780178469923,0.185547286457839));
#550=CARTESIAN_POINT('',(-0.0687500002587626,-0.015678017846993,0.173547286457839));
#551=CARTESIAN_POINT('',(-2.58763405326728E-10,-0.057678017846992,0.188547286457845));
#552=CARTESIAN_POINT('',(-0.0280000002587634,-0.068678017846992,0.188547286457844));
#553=CARTESIAN_POINT('',(-0.0280000002587634,-0.071428017846992,0.188547286457844));
#554=CARTESIAN_POINT('',(-2.58763435158349E-10,-0.068678017846992,0.188547286457846));
#555=CARTESIAN_POINT('',(-2.58763435158349E-10,-0.071428017846992,0.188547286457846));
#556=CARTESIAN_POINT('',(0.0279999997412365,-0.068678017846992,0.188547286457847));
#557=CARTESIAN_POINT('',(0.0279999997412365,-0.071428017846992,0.188547286457847));
#558=CARTESIAN_POINT('',(0.0148492421462366,-0.021828775441992,0.188547286457844));
#559=CARTESIAN_POINT('',(0.0148492421462366,-0.024578775441992,0.188547286457844));
#560=CARTESIAN_POINT('',(0.0148492421462366,-0.0515272602519919,0.188547286457845));
#561=CARTESIAN_POINT('',(0.0148492421462366,-0.0542772602519919,0.188547286457845));
#562=CARTESIAN_POINT('',(3.90420141109862E-5,-0.0366389755741175,0.188547286457844));
#563=CARTESIAN_POINT('',(3.90420141109862E-5,-0.0538889755741176,0.188547286457845));
#564=CARTESIAN_POINT('',(-0.0148492426637635,-0.051527260251992,0.188547286457844));
#565=CARTESIAN_POINT('',(-0.0148492426637635,-0.054277260251992,0.188547286457844));
#566=CARTESIAN_POINT('',(-0.0148492426637635,-0.021828775441992,0.188547286457842));
#567=CARTESIAN_POINT('',(-0.0148492426637635,-0.024578775441992,0.188547286457842));
#568=CARTESIAN_POINT('',(-2.58763464150724E-10,-0.012678017846992,0.188547286457842));
#569=CARTESIAN_POINT('',(-0.0657500002587635,-0.0126780178469921,0.188547286457839));
#570=CARTESIAN_POINT('',(0.0657499997412365,-0.0126780178469919,0.188547286457846));
#571=CARTESIAN_POINT('',(-0.0657500002587634,-0.0576780178469921,0.188547286457841));
#572=CARTESIAN_POINT('',(0.0657499997412365,-0.0126780178469919,0.188547286457846));
#573=CARTESIAN_POINT('',(-2.5876257265946E-10,-0.0576780178469929,0.173547286457845));
#574=CARTESIAN_POINT('',(-0.0280000002587626,-0.0686780178469929,0.173547286457844));
#575=CARTESIAN_POINT('',(-0.0280000002587626,-0.0659280178469929,0.173547286457844));
#576=CARTESIAN_POINT('',(-2.5876260249108E-10,-0.0686780178469929,0.173547286457846));
#577=CARTESIAN_POINT('',(-2.5876260249108E-10,-0.0659280178469929,0.173547286457845));
#578=CARTESIAN_POINT('',(0.0279999997412374,-0.0686780178469929,0.173547286457847));
#579=CARTESIAN_POINT('',(0.0279999997412374,-0.0659280178469929,0.173547286457847));
#580=CARTESIAN_POINT('',(0.0148492421462374,-0.0218287754419928,0.173547286457844));
#581=CARTESIAN_POINT('',(0.0148492421462374,-0.0190787754419928,0.173547286457843));
#582=CARTESIAN_POINT('',(0.0148492421462374,-0.0515272602519928,0.173547286457845));
#583=CARTESIAN_POINT('',(0.0148492421462374,-0.0487772602519928,0.173547286457845));
#584=CARTESIAN_POINT('',(3.90420141118189E-5,-0.0366389755741184,0.173547286457844));
#585=CARTESIAN_POINT('',(3.90420141118189E-5,-0.0193889755741184,0.173547286457843));
#586=CARTESIAN_POINT('',(-0.0148492426637626,-0.0515272602519928,0.173547286457844));
#587=CARTESIAN_POINT('',(-0.0148492426637626,-0.0487772602519928,0.173547286457843));
#588=CARTESIAN_POINT('',(-0.0148492426637627,-0.0218287754419929,0.173547286457842));
#589=CARTESIAN_POINT('',(-0.0148492426637627,-0.0190787754419929,0.173547286457842));
#590=CARTESIAN_POINT('',(0.0657499997412374,-0.0696780178469928,0.173547286457849));
#591=CARTESIAN_POINT('',(-0.0657500002587626,-0.069678017846993,0.173547286457842));
#592=CARTESIAN_POINT('',(-0.0657500002587626,-0.015678017846993,0.173547286457839));
#593=CARTESIAN_POINT('',(-0.0657500002587626,-0.012678017846993,0.173547286457839));
#594=CARTESIAN_POINT('',(-2.58762631483456E-10,-0.0126780178469929,0.173547286457842));
#595=CARTESIAN_POINT('',(0.0657499997412374,-0.0126780178469928,0.173547286457846));
#596=CARTESIAN_POINT('',(0.0657499997412374,-0.0156780178469928,0.173547286457846));
#597=CARTESIAN_POINT('',(-2.58763464150724E-10,-0.012678017846992,0.188547286457842));
#598=CARTESIAN_POINT('',(0.0657499997412365,-0.0126780178469919,0.188547286457846));
#599=CARTESIAN_POINT('',(-0.0657500002587635,-0.0126780178469921,0.188547286457839));
#600=CARTESIAN_POINT('',(-0.0148492426637621,-0.0218287754419935,0.163547286457842));
#601=CARTESIAN_POINT('',(-0.0148492426637621,-0.0515272602519934,0.163547286457843));
#602=CARTESIAN_POINT('',(3.9042014112374E-5,-0.0366389755741189,0.163547286457843));
#603=CARTESIAN_POINT('',(0.014849242146238,-0.0515272602519934,0.163547286457845));
#604=CARTESIAN_POINT('',(0.0148492421462379,-0.0218287754419934,0.163547286457843));
#605=CARTESIAN_POINT('',(0.0279999997412384,-0.0686780178469939,0.155147286457847));
#606=CARTESIAN_POINT('',(-2.58761581085898E-10,-0.0686780178469939,0.155147286457846));
#607=CARTESIAN_POINT('',(-0.0280000002587616,-0.0686780178469939,0.155147286457844));
#608=CARTESIAN_POINT('',(0.0657499997412365,-0.0156780178469919,0.188547286457846));
#609=CARTESIAN_POINT('',(0.0657499997412367,-0.0156780178469921,0.185547286457846));
#610=CARTESIAN_POINT('',(0.0657499997412368,-0.0576780178469921,0.185547286457849));
#611=CARTESIAN_POINT('',(0.0657499997412368,-0.0696780178469921,0.185547286457849));
#612=CARTESIAN_POINT('',(0.0657499997412366,-0.0696780178469919,0.188547286457849));
#613=CARTESIAN_POINT('',(-0.0657500002587635,-0.0156780178469921,0.188547286457839));
#614=CARTESIAN_POINT('',(-0.0657500002587633,-0.0156780178469923,0.185547286457839));
#615=CARTESIAN_POINT('',(-0.0657500002587632,-0.0576780178469923,0.185547286457841));
#616=CARTESIAN_POINT('',(-0.0657500002587632,-0.0696780178469923,0.185547286457842));
#617=CARTESIAN_POINT('',(-0.0657500002587634,-0.0696780178469921,0.188547286457842));
#618=MECHANICAL_DESIGN_GEOMETRIC_PRESENTATION_REPRESENTATION('',(#359),
#619);
#619=(
GEOMETRIC_REPRESENTATION_CONTEXT(3)
GLOBAL_UNCERTAINTY_ASSIGNED_CONTEXT((#620))
GLOBAL_UNIT_ASSIGNED_CONTEXT((#623,#622,#621))
REPRESENTATION_CONTEXT('BallScrewHolder1','TOP_LEVEL_ASSEMBLY_PART')
);
#620=UNCERTAINTY_MEASURE_WITH_UNIT(LENGTH_MEASURE(1.E-8),#623,
'DISTANCE_ACCURACY_VALUE','Maximum Tolerance applied to model');
#621=(
NAMED_UNIT(*)
SI_UNIT($,.STERADIAN.)
SOLID_ANGLE_UNIT()
);
#622=(
NAMED_UNIT(*)
PLANE_ANGLE_UNIT()
SI_UNIT($,.RADIAN.)
);
#623=(
LENGTH_UNIT()
NAMED_UNIT(*)
SI_UNIT($,.METRE.)
);
#624=PRODUCT_DEFINITION_SHAPE('','',#625);
#625=PRODUCT_DEFINITION('','',#627,#626);
#626=PRODUCT_DEFINITION_CONTEXT('',#633,'design');
#627=PRODUCT_DEFINITION_FORMATION_WITH_SPECIFIED_SOURCE('','',#629,
 .NOT_KNOWN.);
#628=PRODUCT_RELATED_PRODUCT_CATEGORY('','',(#629));
#629=PRODUCT('BallScrewHolder1','BallScrewHolder1','BallScrewHolder1',(#631));
#630=PRODUCT_CATEGORY('','');
#631=PRODUCT_CONTEXT('',#633,'mechanical');
#632=APPLICATION_PROTOCOL_DEFINITION('international standard',
'ap242_managed_model_based_3d_engineering',2020,#633);
#633=APPLICATION_CONTEXT('managed model based 3d engineering');
ENDSEC;
END-ISO-10303-21;
