ISO-10303-21;
HEADER;
/* Generated by software containing ST-Developer
 * from STEP Tools, Inc. (www.steptools.com) 
 */
/* OPTION: using custom renumber hook */

FILE_DESCRIPTION(
/* description */ ('STEP AP242 Edition 2',
'CAx-IF Rec.Pracs.---Representation and Presentation of Product Manufa
cturing Information (PMI)---4.0---2014-10-13',
'CAx-IF Rec.Pracs.---3D Tessellated Geometry---0.4---2014-09-14','2;1',
'CAx-IF Rec.Pracs.---User Defined Attributes---1.5---2016-08-15'),
/* implementation_level */ '2;1');

FILE_NAME(
/* name */ 'Router - GantryBracket0',
/* time_stamp */ '2026-08-01T11:31:43Z',
/* author */ (''),
/* organization */ (''),
/* preprocessor_version */ 'ST-DEVELOPER v20',
/* originating_system */ 'ONSHAPE BY PTC INC, 1.218',
/* authorisation */ '  ');

FILE_SCHEMA (('AP242_MANAGED_MODEL_BASED_3D_ENGINEERING_MIM_LF { 1 0 10303 442 3 1 4 }'));
ENDSEC;

DATA;
#10=SHAPE_REPRESENTATION_RELATIONSHIP('','',#537,#11);
#11=ADVANCED_BREP_SHAPE_REPRESENTATION('',(#535),#927);
#12=CONICAL_SURFACE('',#602,0.00275,0.785398163397448);
#13=CONICAL_SURFACE('',#603,0.00265,0.785398163397444);
#14=CONICAL_SURFACE('',#604,0.00265,0.785398163397474);
#15=CONICAL_SURFACE('',#605,0.00265,0.785398163397466);
#16=CONICAL_SURFACE('',#606,0.00265,0.785398163397466);
#17=CONICAL_SURFACE('',#607,0.00275,0.785398163397518);
#18=CONICAL_SURFACE('',#608,0.00275,0.785398163397448);
#19=CONICAL_SURFACE('',#609,0.00275,0.785398163397379);
#20=ELLIPSE('',#584,0.00141421356237309,0.001);
#21=ELLIPSE('',#592,0.00141421356237309,0.001);
#22=SPHERICAL_SURFACE('',#576,0.001);
#23=SPHERICAL_SURFACE('',#585,0.001);
#24=SPHERICAL_SURFACE('',#593,0.001);
#25=SPHERICAL_SURFACE('',#599,0.001);
#26=CYLINDRICAL_SURFACE('',#561,0.00265);
#27=CYLINDRICAL_SURFACE('',#564,0.00265);
#28=CYLINDRICAL_SURFACE('',#567,0.00265);
#29=CYLINDRICAL_SURFACE('',#570,0.00265);
#30=CYLINDRICAL_SURFACE('',#572,0.00265);
#31=CYLINDRICAL_SURFACE('',#574,0.001);
#32=CYLINDRICAL_SURFACE('',#579,0.001);
#33=CYLINDRICAL_SURFACE('',#581,0.001);
#34=CYLINDRICAL_SURFACE('',#583,0.001);
#35=CYLINDRICAL_SURFACE('',#587,0.001);
#36=CYLINDRICAL_SURFACE('',#589,0.001);
#37=CYLINDRICAL_SURFACE('',#591,0.001);
#38=CYLINDRICAL_SURFACE('',#595,0.001);
#39=CYLINDRICAL_SURFACE('',#597,0.001);
#40=CYLINDRICAL_SURFACE('',#601,0.001);
#41=CIRCLE('',#540,0.001);
#42=CIRCLE('',#541,0.001);
#43=CIRCLE('',#542,0.00265);
#44=CIRCLE('',#543,0.00265);
#45=CIRCLE('',#545,0.00275);
#46=CIRCLE('',#546,0.00275);
#47=CIRCLE('',#548,0.00275);
#48=CIRCLE('',#549,0.00275);
#49=CIRCLE('',#550,0.00275);
#50=CIRCLE('',#553,0.00275);
#51=CIRCLE('',#554,0.00275000000000008);
#52=CIRCLE('',#555,0.00275000000000008);
#53=CIRCLE('',#556,0.001);
#54=CIRCLE('',#557,0.001);
#55=CIRCLE('',#562,0.00265);
#56=CIRCLE('',#563,0.00265);
#57=CIRCLE('',#565,0.00265);
#58=CIRCLE('',#566,0.00265);
#59=CIRCLE('',#568,0.00265);
#60=CIRCLE('',#569,0.00265);
#61=CIRCLE('',#571,0.00265);
#62=CIRCLE('',#573,0.00265);
#63=CIRCLE('',#575,0.001);
#64=CIRCLE('',#577,0.001);
#65=CIRCLE('',#578,0.001);
#66=CIRCLE('',#580,0.001);
#67=CIRCLE('',#582,0.001);
#68=CIRCLE('',#586,0.001);
#69=CIRCLE('',#588,0.001);
#70=CIRCLE('',#590,0.001);
#71=CIRCLE('',#594,0.001);
#72=CIRCLE('',#596,0.001);
#73=CIRCLE('',#598,0.001);
#74=CIRCLE('',#600,0.001);
#75=ORIENTED_EDGE('',*,*,#203,.T.);
#76=ORIENTED_EDGE('',*,*,#204,.T.);
#77=ORIENTED_EDGE('',*,*,#205,.F.);
#78=ORIENTED_EDGE('',*,*,#206,.F.);
#79=ORIENTED_EDGE('',*,*,#207,.T.);
#80=ORIENTED_EDGE('',*,*,#208,.T.);
#81=ORIENTED_EDGE('',*,*,#209,.F.);
#82=ORIENTED_EDGE('',*,*,#210,.T.);
#83=ORIENTED_EDGE('',*,*,#211,.T.);
#84=ORIENTED_EDGE('',*,*,#212,.T.);
#85=ORIENTED_EDGE('',*,*,#213,.T.);
#86=ORIENTED_EDGE('',*,*,#214,.T.);
#87=ORIENTED_EDGE('',*,*,#215,.T.);
#88=ORIENTED_EDGE('',*,*,#216,.T.);
#89=ORIENTED_EDGE('',*,*,#217,.T.);
#90=ORIENTED_EDGE('',*,*,#218,.T.);
#91=ORIENTED_EDGE('',*,*,#219,.T.);
#92=ORIENTED_EDGE('',*,*,#220,.T.);
#93=ORIENTED_EDGE('',*,*,#221,.T.);
#94=ORIENTED_EDGE('',*,*,#213,.F.);
#95=ORIENTED_EDGE('',*,*,#222,.T.);
#96=ORIENTED_EDGE('',*,*,#223,.F.);
#97=ORIENTED_EDGE('',*,*,#224,.T.);
#98=ORIENTED_EDGE('',*,*,#225,.T.);
#99=ORIENTED_EDGE('',*,*,#226,.T.);
#100=ORIENTED_EDGE('',*,*,#227,.T.);
#101=ORIENTED_EDGE('',*,*,#207,.F.);
#102=ORIENTED_EDGE('',*,*,#228,.T.);
#103=ORIENTED_EDGE('',*,*,#229,.T.);
#104=ORIENTED_EDGE('',*,*,#230,.T.);
#105=ORIENTED_EDGE('',*,*,#231,.F.);
#106=ORIENTED_EDGE('',*,*,#232,.T.);
#107=ORIENTED_EDGE('',*,*,#223,.T.);
#108=ORIENTED_EDGE('',*,*,#206,.T.);
#109=ORIENTED_EDGE('',*,*,#233,.F.);
#110=ORIENTED_EDGE('',*,*,#234,.T.);
#111=ORIENTED_EDGE('',*,*,#235,.T.);
#112=ORIENTED_EDGE('',*,*,#236,.T.);
#113=ORIENTED_EDGE('',*,*,#233,.T.);
#114=ORIENTED_EDGE('',*,*,#205,.T.);
#115=ORIENTED_EDGE('',*,*,#237,.T.);
#116=ORIENTED_EDGE('',*,*,#238,.T.);
#117=ORIENTED_EDGE('',*,*,#239,.T.);
#118=ORIENTED_EDGE('',*,*,#240,.T.);
#119=ORIENTED_EDGE('',*,*,#231,.T.);
#120=ORIENTED_EDGE('',*,*,#241,.T.);
#121=ORIENTED_EDGE('',*,*,#242,.T.);
#122=ORIENTED_EDGE('',*,*,#243,.T.);
#123=ORIENTED_EDGE('',*,*,#203,.F.);
#124=ORIENTED_EDGE('',*,*,#244,.T.);
#125=ORIENTED_EDGE('',*,*,#245,.T.);
#126=ORIENTED_EDGE('',*,*,#246,.T.);
#127=ORIENTED_EDGE('',*,*,#247,.T.);
#128=ORIENTED_EDGE('',*,*,#248,.T.);
#129=ORIENTED_EDGE('',*,*,#249,.T.);
#130=ORIENTED_EDGE('',*,*,#250,.T.);
#131=ORIENTED_EDGE('',*,*,#251,.T.);
#132=ORIENTED_EDGE('',*,*,#209,.T.);
#133=ORIENTED_EDGE('',*,*,#252,.T.);
#134=ORIENTED_EDGE('',*,*,#210,.F.);
#135=ORIENTED_EDGE('',*,*,#253,.F.);
#136=ORIENTED_EDGE('',*,*,#237,.F.);
#137=ORIENTED_EDGE('',*,*,#204,.F.);
#138=ORIENTED_EDGE('',*,*,#243,.F.);
#139=ORIENTED_EDGE('',*,*,#254,.F.);
#140=ORIENTED_EDGE('',*,*,#253,.T.);
#141=ORIENTED_EDGE('',*,*,#255,.F.);
#142=ORIENTED_EDGE('',*,*,#208,.F.);
#143=ORIENTED_EDGE('',*,*,#227,.F.);
#144=ORIENTED_EDGE('',*,*,#256,.F.);
#145=ORIENTED_EDGE('',*,*,#244,.F.);
#146=ORIENTED_EDGE('',*,*,#255,.T.);
#147=ORIENTED_EDGE('',*,*,#242,.F.);
#148=ORIENTED_EDGE('',*,*,#257,.F.);
#149=ORIENTED_EDGE('',*,*,#215,.F.);
#150=ORIENTED_EDGE('',*,*,#254,.T.);
#151=ORIENTED_EDGE('',*,*,#214,.F.);
#152=ORIENTED_EDGE('',*,*,#258,.F.);
#153=ORIENTED_EDGE('',*,*,#238,.F.);
#154=ORIENTED_EDGE('',*,*,#257,.T.);
#155=ORIENTED_EDGE('',*,*,#256,.T.);
#156=ORIENTED_EDGE('',*,*,#259,.F.);
#157=ORIENTED_EDGE('',*,*,#258,.T.);
#158=ORIENTED_EDGE('',*,*,#221,.F.);
#159=ORIENTED_EDGE('',*,*,#260,.F.);
#160=ORIENTED_EDGE('',*,*,#235,.F.);
#161=ORIENTED_EDGE('',*,*,#234,.F.);
#162=ORIENTED_EDGE('',*,*,#236,.F.);
#163=ORIENTED_EDGE('',*,*,#261,.F.);
#164=ORIENTED_EDGE('',*,*,#241,.F.);
#165=ORIENTED_EDGE('',*,*,#259,.T.);
#166=ORIENTED_EDGE('',*,*,#226,.F.);
#167=ORIENTED_EDGE('',*,*,#262,.F.);
#168=ORIENTED_EDGE('',*,*,#216,.F.);
#169=ORIENTED_EDGE('',*,*,#261,.T.);
#170=ORIENTED_EDGE('',*,*,#260,.T.);
#171=ORIENTED_EDGE('',*,*,#263,.F.);
#172=ORIENTED_EDGE('',*,*,#262,.T.);
#173=ORIENTED_EDGE('',*,*,#225,.F.);
#174=ORIENTED_EDGE('',*,*,#264,.F.);
#175=ORIENTED_EDGE('',*,*,#222,.F.);
#176=ORIENTED_EDGE('',*,*,#263,.T.);
#177=ORIENTED_EDGE('',*,*,#220,.F.);
#178=ORIENTED_EDGE('',*,*,#265,.F.);
#179=ORIENTED_EDGE('',*,*,#239,.F.);
#180=ORIENTED_EDGE('',*,*,#265,.T.);
#181=ORIENTED_EDGE('',*,*,#264,.T.);
#182=ORIENTED_EDGE('',*,*,#266,.F.);
#183=ORIENTED_EDGE('',*,*,#232,.F.);
#184=ORIENTED_EDGE('',*,*,#240,.F.);
#185=ORIENTED_EDGE('',*,*,#266,.T.);
#186=ORIENTED_EDGE('',*,*,#224,.F.);
#187=ORIENTED_EDGE('',*,*,#251,.F.);
#188=ORIENTED_EDGE('',*,*,#211,.F.);
#189=ORIENTED_EDGE('',*,*,#212,.F.);
#190=ORIENTED_EDGE('',*,*,#252,.F.);
#191=ORIENTED_EDGE('',*,*,#217,.F.);
#192=ORIENTED_EDGE('',*,*,#245,.F.);
#193=ORIENTED_EDGE('',*,*,#218,.F.);
#194=ORIENTED_EDGE('',*,*,#247,.F.);
#195=ORIENTED_EDGE('',*,*,#219,.F.);
#196=ORIENTED_EDGE('',*,*,#249,.F.);
#197=ORIENTED_EDGE('',*,*,#246,.F.);
#198=ORIENTED_EDGE('',*,*,#228,.F.);
#199=ORIENTED_EDGE('',*,*,#248,.F.);
#200=ORIENTED_EDGE('',*,*,#229,.F.);
#201=ORIENTED_EDGE('',*,*,#250,.F.);
#202=ORIENTED_EDGE('',*,*,#230,.F.);
#203=EDGE_CURVE('',#267,#268,#311,.T.);
#204=EDGE_CURVE('',#268,#269,#41,.F.);
#205=EDGE_CURVE('',#270,#269,#312,.T.);
#206=EDGE_CURVE('',#271,#270,#313,.T.);
#207=EDGE_CURVE('',#271,#272,#314,.T.);
#208=EDGE_CURVE('',#272,#267,#42,.F.);
#209=EDGE_CURVE('',#273,#273,#43,.F.);
#210=EDGE_CURVE('',#274,#274,#44,.T.);
#211=EDGE_CURVE('',#275,#275,#45,.F.);
#212=EDGE_CURVE('',#276,#276,#46,.F.);
#213=EDGE_CURVE('',#277,#278,#315,.T.);
#214=EDGE_CURVE('',#278,#279,#316,.T.);
#215=EDGE_CURVE('',#279,#280,#317,.F.);
#216=EDGE_CURVE('',#280,#277,#318,.F.);
#217=EDGE_CURVE('',#281,#281,#47,.F.);
#218=EDGE_CURVE('',#282,#282,#48,.F.);
#219=EDGE_CURVE('',#283,#283,#49,.F.);
#220=EDGE_CURVE('',#284,#285,#319,.T.);
#221=EDGE_CURVE('',#285,#278,#320,.T.);
#222=EDGE_CURVE('',#277,#284,#321,.F.);
#223=EDGE_CURVE('',#286,#271,#322,.T.);
#224=EDGE_CURVE('',#286,#287,#323,.T.);
#225=EDGE_CURVE('',#287,#288,#324,.T.);
#226=EDGE_CURVE('',#288,#289,#325,.T.);
#227=EDGE_CURVE('',#289,#272,#326,.T.);
#228=EDGE_CURVE('',#290,#290,#50,.T.);
#229=EDGE_CURVE('',#291,#291,#51,.T.);
#230=EDGE_CURVE('',#292,#292,#52,.T.);
#231=EDGE_CURVE('',#293,#294,#327,.T.);
#232=EDGE_CURVE('',#293,#286,#53,.F.);
#233=EDGE_CURVE('',#295,#270,#328,.T.);
#234=EDGE_CURVE('',#295,#294,#54,.F.);
#235=EDGE_CURVE('',#296,#297,#329,.F.);
#236=EDGE_CURVE('',#297,#295,#330,.F.);
#237=EDGE_CURVE('',#269,#298,#331,.F.);
#238=EDGE_CURVE('',#298,#296,#332,.F.);
#239=EDGE_CURVE('',#299,#300,#333,.F.);
#240=EDGE_CURVE('',#300,#293,#334,.F.);
#241=EDGE_CURVE('',#294,#299,#335,.T.);
#242=EDGE_CURVE('',#301,#302,#336,.T.);
#243=EDGE_CURVE('',#302,#268,#337,.T.);
#244=EDGE_CURVE('',#267,#301,#338,.F.);
#245=EDGE_CURVE('',#303,#303,#55,.T.);
#246=EDGE_CURVE('',#304,#304,#56,.F.);
#247=EDGE_CURVE('',#305,#305,#57,.T.);
#248=EDGE_CURVE('',#306,#306,#58,.F.);
#249=EDGE_CURVE('',#307,#307,#59,.T.);
#250=EDGE_CURVE('',#308,#308,#60,.F.);
#251=EDGE_CURVE('',#309,#309,#61,.T.);
#252=EDGE_CURVE('',#310,#310,#62,.T.);
#253=EDGE_CURVE('',#298,#302,#63,.T.);
#254=EDGE_CURVE('',#298,#279,#64,.F.);
#255=EDGE_CURVE('',#279,#302,#65,.F.);
#256=EDGE_CURVE('',#301,#289,#66,.T.);
#257=EDGE_CURVE('',#280,#301,#67,.T.);
#258=EDGE_CURVE('',#296,#278,#20,.T.);
#259=EDGE_CURVE('',#280,#289,#68,.F.);
#260=EDGE_CURVE('',#297,#285,#69,.T.);
#261=EDGE_CURVE('',#299,#297,#70,.T.);
#262=EDGE_CURVE('',#277,#288,#21,.F.);
#263=EDGE_CURVE('',#299,#285,#71,.F.);
#264=EDGE_CURVE('',#284,#287,#72,.T.);
#265=EDGE_CURVE('',#300,#284,#73,.T.);
#266=EDGE_CURVE('',#300,#287,#74,.F.);
#267=VERTEX_POINT('',#785);
#268=VERTEX_POINT('',#786);
#269=VERTEX_POINT('',#788);
#270=VERTEX_POINT('',#790);
#271=VERTEX_POINT('',#792);
#272=VERTEX_POINT('',#794);
#273=VERTEX_POINT('',#797);
#274=VERTEX_POINT('',#799);
#275=VERTEX_POINT('',#802);
#276=VERTEX_POINT('',#804);
#277=VERTEX_POINT('',#806);
#278=VERTEX_POINT('',#807);
#279=VERTEX_POINT('',#809);
#280=VERTEX_POINT('',#811);
#281=VERTEX_POINT('',#815);
#282=VERTEX_POINT('',#817);
#283=VERTEX_POINT('',#819);
#284=VERTEX_POINT('',#821);
#285=VERTEX_POINT('',#822);
#286=VERTEX_POINT('',#827);
#287=VERTEX_POINT('',#829);
#288=VERTEX_POINT('',#831);
#289=VERTEX_POINT('',#833);
#290=VERTEX_POINT('',#837);
#291=VERTEX_POINT('',#839);
#292=VERTEX_POINT('',#841);
#293=VERTEX_POINT('',#843);
#294=VERTEX_POINT('',#844);
#295=VERTEX_POINT('',#847);
#296=VERTEX_POINT('',#851);
#297=VERTEX_POINT('',#852);
#298=VERTEX_POINT('',#855);
#299=VERTEX_POINT('',#859);
#300=VERTEX_POINT('',#860);
#301=VERTEX_POINT('',#865);
#302=VERTEX_POINT('',#866);
#303=VERTEX_POINT('',#871);
#304=VERTEX_POINT('',#873);
#305=VERTEX_POINT('',#876);
#306=VERTEX_POINT('',#878);
#307=VERTEX_POINT('',#881);
#308=VERTEX_POINT('',#883);
#309=VERTEX_POINT('',#886);
#310=VERTEX_POINT('',#889);
#311=LINE('',#784,#339);
#312=LINE('',#789,#340);
#313=LINE('',#791,#341);
#314=LINE('',#793,#342);
#315=LINE('',#805,#343);
#316=LINE('',#808,#344);
#317=LINE('',#810,#345);
#318=LINE('',#812,#346);
#319=LINE('',#820,#347);
#320=LINE('',#823,#348);
#321=LINE('',#824,#349);
#322=LINE('',#826,#350);
#323=LINE('',#828,#351);
#324=LINE('',#830,#352);
#325=LINE('',#832,#353);
#326=LINE('',#834,#354);
#327=LINE('',#842,#355);
#328=LINE('',#846,#356);
#329=LINE('',#850,#357);
#330=LINE('',#853,#358);
#331=LINE('',#854,#359);
#332=LINE('',#856,#360);
#333=LINE('',#858,#361);
#334=LINE('',#861,#362);
#335=LINE('',#862,#363);
#336=LINE('',#864,#364);
#337=LINE('',#867,#365);
#338=LINE('',#868,#366);
#339=VECTOR('',#614,1.);
#340=VECTOR('',#617,1.);
#341=VECTOR('',#618,1.);
#342=VECTOR('',#619,1.);
#343=VECTOR('',#632,1.);
#344=VECTOR('',#633,1.);
#345=VECTOR('',#634,1.);
#346=VECTOR('',#635,1.);
#347=VECTOR('',#644,1.);
#348=VECTOR('',#645,1.);
#349=VECTOR('',#646,1.);
#350=VECTOR('',#649,1.);
#351=VECTOR('',#650,1.);
#352=VECTOR('',#651,1.);
#353=VECTOR('',#652,1.);
#354=VECTOR('',#653,1.);
#355=VECTOR('',#662,1.);
#356=VECTOR('',#665,1.);
#357=VECTOR('',#670,1.);
#358=VECTOR('',#671,1.);
#359=VECTOR('',#672,1.);
#360=VECTOR('',#673,1.);
#361=VECTOR('',#676,1.);
#362=VECTOR('',#677,1.);
#363=VECTOR('',#678,1.);
#364=VECTOR('',#681,1.);
#365=VECTOR('',#682,1.);
#366=VECTOR('',#683,1.);
#367=EDGE_LOOP('',(#75,#76,#77,#78,#79,#80));
#368=EDGE_LOOP('',(#81));
#369=EDGE_LOOP('',(#82));
#370=EDGE_LOOP('',(#83));
#371=EDGE_LOOP('',(#84));
#372=EDGE_LOOP('',(#85,#86,#87,#88));
#373=EDGE_LOOP('',(#89));
#374=EDGE_LOOP('',(#90));
#375=EDGE_LOOP('',(#91));
#376=EDGE_LOOP('',(#92,#93,#94,#95));
#377=EDGE_LOOP('',(#96,#97,#98,#99,#100,#101));
#378=EDGE_LOOP('',(#102));
#379=EDGE_LOOP('',(#103));
#380=EDGE_LOOP('',(#104));
#381=EDGE_LOOP('',(#105,#106,#107,#108,#109,#110));
#382=EDGE_LOOP('',(#111,#112,#113,#114,#115,#116));
#383=EDGE_LOOP('',(#117,#118,#119,#120));
#384=EDGE_LOOP('',(#121,#122,#123,#124));
#385=EDGE_LOOP('',(#125));
#386=EDGE_LOOP('',(#126));
#387=EDGE_LOOP('',(#127));
#388=EDGE_LOOP('',(#128));
#389=EDGE_LOOP('',(#129));
#390=EDGE_LOOP('',(#130));
#391=EDGE_LOOP('',(#131));
#392=EDGE_LOOP('',(#132));
#393=EDGE_LOOP('',(#133));
#394=EDGE_LOOP('',(#134));
#395=EDGE_LOOP('',(#135,#136,#137,#138));
#396=EDGE_LOOP('',(#139,#140,#141));
#397=EDGE_LOOP('',(#142,#143,#144,#145));
#398=EDGE_LOOP('',(#146,#147,#148,#149));
#399=EDGE_LOOP('',(#150,#151,#152,#153));
#400=EDGE_LOOP('',(#154,#155,#156));
#401=EDGE_LOOP('',(#157,#158,#159,#160));
#402=EDGE_LOOP('',(#161,#162,#163,#164));
#403=EDGE_LOOP('',(#165,#166,#167,#168));
#404=EDGE_LOOP('',(#169,#170,#171));
#405=EDGE_LOOP('',(#172,#173,#174,#175));
#406=EDGE_LOOP('',(#176,#177,#178,#179));
#407=EDGE_LOOP('',(#180,#181,#182));
#408=EDGE_LOOP('',(#183,#184,#185,#186));
#409=EDGE_LOOP('',(#187));
#410=EDGE_LOOP('',(#188));
#411=EDGE_LOOP('',(#189));
#412=EDGE_LOOP('',(#190));
#413=EDGE_LOOP('',(#191));
#414=EDGE_LOOP('',(#192));
#415=EDGE_LOOP('',(#193));
#416=EDGE_LOOP('',(#194));
#417=EDGE_LOOP('',(#195));
#418=EDGE_LOOP('',(#196));
#419=EDGE_LOOP('',(#197));
#420=EDGE_LOOP('',(#198));
#421=EDGE_LOOP('',(#199));
#422=EDGE_LOOP('',(#200));
#423=EDGE_LOOP('',(#201));
#424=EDGE_LOOP('',(#202));
#425=FACE_BOUND('',#367,.T.);
#426=FACE_BOUND('',#368,.T.);
#427=FACE_BOUND('',#369,.T.);
#428=FACE_BOUND('',#370,.T.);
#429=FACE_BOUND('',#371,.T.);
#430=FACE_BOUND('',#372,.T.);
#431=FACE_BOUND('',#373,.T.);
#432=FACE_BOUND('',#374,.T.);
#433=FACE_BOUND('',#375,.T.);
#434=FACE_BOUND('',#376,.T.);
#435=FACE_BOUND('',#377,.T.);
#436=FACE_BOUND('',#378,.T.);
#437=FACE_BOUND('',#379,.T.);
#438=FACE_BOUND('',#380,.T.);
#439=FACE_BOUND('',#381,.T.);
#440=FACE_BOUND('',#382,.T.);
#441=FACE_BOUND('',#383,.T.);
#442=FACE_BOUND('',#384,.T.);
#443=FACE_BOUND('',#385,.T.);
#444=FACE_BOUND('',#386,.T.);
#445=FACE_BOUND('',#387,.T.);
#446=FACE_BOUND('',#388,.T.);
#447=FACE_BOUND('',#389,.T.);
#448=FACE_BOUND('',#390,.T.);
#449=FACE_BOUND('',#391,.T.);
#450=FACE_BOUND('',#392,.T.);
#451=FACE_BOUND('',#393,.T.);
#452=FACE_BOUND('',#394,.T.);
#453=FACE_BOUND('',#395,.T.);
#454=FACE_BOUND('',#396,.T.);
#455=FACE_BOUND('',#397,.T.);
#456=FACE_BOUND('',#398,.T.);
#457=FACE_BOUND('',#399,.T.);
#458=FACE_BOUND('',#400,.T.);
#459=FACE_BOUND('',#401,.T.);
#460=FACE_BOUND('',#402,.T.);
#461=FACE_BOUND('',#403,.T.);
#462=FACE_BOUND('',#404,.T.);
#463=FACE_BOUND('',#405,.T.);
#464=FACE_BOUND('',#406,.T.);
#465=FACE_BOUND('',#407,.T.);
#466=FACE_BOUND('',#408,.T.);
#467=FACE_BOUND('',#409,.T.);
#468=FACE_BOUND('',#410,.T.);
#469=FACE_BOUND('',#411,.T.);
#470=FACE_BOUND('',#412,.T.);
#471=FACE_BOUND('',#413,.T.);
#472=FACE_BOUND('',#414,.T.);
#473=FACE_BOUND('',#415,.T.);
#474=FACE_BOUND('',#416,.T.);
#475=FACE_BOUND('',#417,.T.);
#476=FACE_BOUND('',#418,.T.);
#477=FACE_BOUND('',#419,.T.);
#478=FACE_BOUND('',#420,.T.);
#479=FACE_BOUND('',#421,.T.);
#480=FACE_BOUND('',#422,.T.);
#481=FACE_BOUND('',#423,.T.);
#482=FACE_BOUND('',#424,.T.);
#483=PLANE('',#539);
#484=PLANE('',#544);
#485=PLANE('',#547);
#486=PLANE('',#551);
#487=PLANE('',#552);
#488=PLANE('',#558);
#489=PLANE('',#559);
#490=PLANE('',#560);
#491=ADVANCED_FACE('',(#425,#426,#427),#483,.F.);
#492=ADVANCED_FACE('',(#428,#429,#430),#484,.T.);
#493=ADVANCED_FACE('',(#431,#432,#433,#434),#485,.T.);
#494=ADVANCED_FACE('',(#435),#486,.T.);
#495=ADVANCED_FACE('',(#436,#437,#438,#439),#487,.F.);
#496=ADVANCED_FACE('',(#440),#488,.F.);
#497=ADVANCED_FACE('',(#441),#489,.T.);
#498=ADVANCED_FACE('',(#442),#490,.T.);
#499=ADVANCED_FACE('',(#443,#444),#26,.F.);
#500=ADVANCED_FACE('',(#445,#446),#27,.F.);
#501=ADVANCED_FACE('',(#447,#448),#28,.F.);
#502=ADVANCED_FACE('',(#449,#450),#29,.F.);
#503=ADVANCED_FACE('',(#451,#452),#30,.F.);
#504=ADVANCED_FACE('',(#453),#31,.T.);
#505=ADVANCED_FACE('',(#454),#22,.T.);
#506=ADVANCED_FACE('',(#455),#32,.T.);
#507=ADVANCED_FACE('',(#456),#33,.T.);
#508=ADVANCED_FACE('',(#457),#34,.T.);
#509=ADVANCED_FACE('',(#458),#23,.T.);
#510=ADVANCED_FACE('',(#459),#35,.T.);
#511=ADVANCED_FACE('',(#460),#36,.T.);
#512=ADVANCED_FACE('',(#461),#37,.T.);
#513=ADVANCED_FACE('',(#462),#24,.T.);
#514=ADVANCED_FACE('',(#463),#38,.T.);
#515=ADVANCED_FACE('',(#464),#39,.T.);
#516=ADVANCED_FACE('',(#465),#25,.T.);
#517=ADVANCED_FACE('',(#466),#40,.T.);
#518=ADVANCED_FACE('',(#467,#468),#12,.F.);
#519=ADVANCED_FACE('',(#469,#470),#13,.F.);
#520=ADVANCED_FACE('',(#471,#472),#14,.F.);
#521=ADVANCED_FACE('',(#473,#474),#15,.F.);
#522=ADVANCED_FACE('',(#475,#476),#16,.F.);
#523=ADVANCED_FACE('',(#477,#478),#17,.F.);
#524=ADVANCED_FACE('',(#479,#480),#18,.F.);
#525=ADVANCED_FACE('',(#481,#482),#19,.F.);
#526=CLOSED_SHELL('',(#491,#492,#493,#494,#495,#496,#497,#498,#499,#500,
#501,#502,#503,#504,#505,#506,#507,#508,#509,#510,#511,#512,#513,#514,#515,
#516,#517,#518,#519,#520,#521,#522,#523,#524,#525));
#527=STYLED_ITEM('',(#528),#535);
#528=PRESENTATION_STYLE_ASSIGNMENT((#529));
#529=SURFACE_STYLE_USAGE(.BOTH.,#530);
#530=SURFACE_SIDE_STYLE('',(#531));
#531=SURFACE_STYLE_FILL_AREA(#532);
#532=FILL_AREA_STYLE('',(#533));
#533=FILL_AREA_STYLE_COLOUR('',#534);
#534=COLOUR_RGB('',0.231372549019608,0.380392156862745,0.705882352941177);
#535=MANIFOLD_SOLID_BREP('GantryBracket0',#526);
#536=SHAPE_DEFINITION_REPRESENTATION(#932,#537);
#537=SHAPE_REPRESENTATION('GantryBracket0',(#538),#927);
#538=AXIS2_PLACEMENT_3D('',#782,#610,#611);
#539=AXIS2_PLACEMENT_3D('',#783,#612,#613);
#540=AXIS2_PLACEMENT_3D('',#787,#615,#616);
#541=AXIS2_PLACEMENT_3D('',#795,#620,#621);
#542=AXIS2_PLACEMENT_3D('',#796,#622,#623);
#543=AXIS2_PLACEMENT_3D('',#798,#624,#625);
#544=AXIS2_PLACEMENT_3D('',#800,#626,#627);
#545=AXIS2_PLACEMENT_3D('',#801,#628,#629);
#546=AXIS2_PLACEMENT_3D('',#803,#630,#631);
#547=AXIS2_PLACEMENT_3D('',#813,#636,#637);
#548=AXIS2_PLACEMENT_3D('',#814,#638,#639);
#549=AXIS2_PLACEMENT_3D('',#816,#640,#641);
#550=AXIS2_PLACEMENT_3D('',#818,#642,#643);
#551=AXIS2_PLACEMENT_3D('',#825,#647,#648);
#552=AXIS2_PLACEMENT_3D('',#835,#654,#655);
#553=AXIS2_PLACEMENT_3D('',#836,#656,#657);
#554=AXIS2_PLACEMENT_3D('',#838,#658,#659);
#555=AXIS2_PLACEMENT_3D('',#840,#660,#661);
#556=AXIS2_PLACEMENT_3D('',#845,#663,#664);
#557=AXIS2_PLACEMENT_3D('',#848,#666,#667);
#558=AXIS2_PLACEMENT_3D('',#849,#668,#669);
#559=AXIS2_PLACEMENT_3D('',#857,#674,#675);
#560=AXIS2_PLACEMENT_3D('',#863,#679,#680);
#561=AXIS2_PLACEMENT_3D('',#869,#684,#685);
#562=AXIS2_PLACEMENT_3D('',#870,#686,#687);
#563=AXIS2_PLACEMENT_3D('',#872,#688,#689);
#564=AXIS2_PLACEMENT_3D('',#874,#690,#691);
#565=AXIS2_PLACEMENT_3D('',#875,#692,#693);
#566=AXIS2_PLACEMENT_3D('',#877,#694,#695);
#567=AXIS2_PLACEMENT_3D('',#879,#696,#697);
#568=AXIS2_PLACEMENT_3D('',#880,#698,#699);
#569=AXIS2_PLACEMENT_3D('',#882,#700,#701);
#570=AXIS2_PLACEMENT_3D('',#884,#702,#703);
#571=AXIS2_PLACEMENT_3D('',#885,#704,#705);
#572=AXIS2_PLACEMENT_3D('',#887,#706,#707);
#573=AXIS2_PLACEMENT_3D('',#888,#708,#709);
#574=AXIS2_PLACEMENT_3D('',#890,#710,#711);
#575=AXIS2_PLACEMENT_3D('',#891,#712,#713);
#576=AXIS2_PLACEMENT_3D('',#892,#714,#715);
#577=AXIS2_PLACEMENT_3D('',#893,#716,#717);
#578=AXIS2_PLACEMENT_3D('',#894,#718,#719);
#579=AXIS2_PLACEMENT_3D('',#895,#720,#721);
#580=AXIS2_PLACEMENT_3D('',#896,#722,#723);
#581=AXIS2_PLACEMENT_3D('',#897,#724,#725);
#582=AXIS2_PLACEMENT_3D('',#898,#726,#727);
#583=AXIS2_PLACEMENT_3D('',#899,#728,#729);
#584=AXIS2_PLACEMENT_3D('',#900,#730,#731);
#585=AXIS2_PLACEMENT_3D('',#901,#732,#733);
#586=AXIS2_PLACEMENT_3D('',#902,#734,#735);
#587=AXIS2_PLACEMENT_3D('',#903,#736,#737);
#588=AXIS2_PLACEMENT_3D('',#904,#738,#739);
#589=AXIS2_PLACEMENT_3D('',#905,#740,#741);
#590=AXIS2_PLACEMENT_3D('',#906,#742,#743);
#591=AXIS2_PLACEMENT_3D('',#907,#744,#745);
#592=AXIS2_PLACEMENT_3D('',#908,#746,#747);
#593=AXIS2_PLACEMENT_3D('',#909,#748,#749);
#594=AXIS2_PLACEMENT_3D('',#910,#750,#751);
#595=AXIS2_PLACEMENT_3D('',#911,#752,#753);
#596=AXIS2_PLACEMENT_3D('',#912,#754,#755);
#597=AXIS2_PLACEMENT_3D('',#913,#756,#757);
#598=AXIS2_PLACEMENT_3D('',#914,#758,#759);
#599=AXIS2_PLACEMENT_3D('',#915,#760,#761);
#600=AXIS2_PLACEMENT_3D('',#916,#762,#763);
#601=AXIS2_PLACEMENT_3D('',#917,#764,#765);
#602=AXIS2_PLACEMENT_3D('',#918,#766,#767);
#603=AXIS2_PLACEMENT_3D('',#919,#768,#769);
#604=AXIS2_PLACEMENT_3D('',#920,#770,#771);
#605=AXIS2_PLACEMENT_3D('',#921,#772,#773);
#606=AXIS2_PLACEMENT_3D('',#922,#774,#775);
#607=AXIS2_PLACEMENT_3D('',#923,#776,#777);
#608=AXIS2_PLACEMENT_3D('',#924,#778,#779);
#609=AXIS2_PLACEMENT_3D('',#925,#780,#781);
#610=DIRECTION('',(0.,0.,1.));
#611=DIRECTION('',(1.,0.,0.));
#612=DIRECTION('',(-3.19330894433465E-27,1.,5.20608754395467E-27));
#613=DIRECTION('',(1.,3.19330894433465E-27,1.66246459190996E-53));
#614=DIRECTION('',(1.,3.19330894433465E-27,1.43263224872729E-58));
#615=DIRECTION('',(-3.19330894433465E-27,1.,5.20608754395467E-27));
#616=DIRECTION('',(0.,-5.20608754395467E-27,1.));
#617=DIRECTION('',(1.25953846213005E-57,5.20608754395467E-27,-1.));
#618=DIRECTION('',(1.,3.1933089443348E-27,-2.86431085568154E-14));
#619=DIRECTION('',(1.25953845640234E-57,5.20608754395467E-27,-1.));
#620=DIRECTION('',(-3.19330894433465E-27,1.,5.20608754395467E-27));
#621=DIRECTION('',(0.,-5.20608754395467E-27,1.));
#622=DIRECTION('',(-3.19330894433465E-27,1.,5.20608754395467E-27));
#623=DIRECTION('',(0.,-5.20608754395467E-27,1.));
#624=DIRECTION('',(-3.19330894433465E-27,1.,5.20608754395467E-27));
#625=DIRECTION('',(0.,-5.20608754395467E-27,1.));
#626=DIRECTION('',(-3.19330894433465E-27,1.,5.20608754395467E-27));
#627=DIRECTION('',(1.,3.19330894433465E-27,1.66246459190996E-53));
#628=DIRECTION('',(-3.19330894433465E-27,1.,5.20608754395467E-27));
#629=DIRECTION('',(0.,-5.20608754395467E-27,1.));
#630=DIRECTION('',(-3.19330894433465E-27,1.,5.20608754395467E-27));
#631=DIRECTION('',(0.,-5.20608754395467E-27,1.));
#632=DIRECTION('',(1.,3.19330894433465E-27,1.43263224872729E-58));
#633=DIRECTION('',(1.25953846213001E-57,5.20608754395467E-27,-1.));
#634=DIRECTION('',(1.,3.19330894433465E-27,1.43263224875222E-58));
#635=DIRECTION('',(1.25953845640392E-57,5.20608754395467E-27,-1.));
#636=DIRECTION('',(-1.66245026558748E-53,5.20608754395467E-27,-1.));
#637=DIRECTION('',(0.,1.,5.20608754395467E-27));
#638=DIRECTION('',(-1.66245026558748E-53,5.20608754395467E-27,-1.));
#639=DIRECTION('',(0.,1.,5.20608754395467E-27));
#640=DIRECTION('',(-1.66245026558748E-53,5.20608754395467E-27,-1.));
#641=DIRECTION('',(0.,1.,5.20608754395467E-27));
#642=DIRECTION('',(-1.66245026558748E-53,5.20608754395467E-27,-1.));
#643=DIRECTION('',(0.,1.,5.20608754395467E-27));
#644=DIRECTION('',(1.,3.19330894433465E-27,1.43263224872904E-58));
#645=DIRECTION('',(3.19330894433465E-27,-1.,-5.20608754395467E-27));
#646=DIRECTION('',(3.19330894433465E-27,-1.,-5.20608754395467E-27));
#647=DIRECTION('',(-1.,-3.19330894433465E-27,-1.6625905457556E-53));
#648=DIRECTION('',(-3.19330894433465E-27,1.,0.));
#649=DIRECTION('',(3.19330894433465E-27,-1.,-5.20608754395467E-27));
#650=DIRECTION('',(1.25953845640392E-57,5.20608754395467E-27,-1.));
#651=DIRECTION('',(3.19330894433465E-27,-1.,-5.20608754395467E-27));
#652=DIRECTION('',(1.25953845640392E-57,5.20608754395467E-27,-1.));
#653=DIRECTION('',(3.19330894433465E-27,-1.,-5.20608754395467E-27));
#654=DIRECTION('',(-2.86431085568154E-14,5.20608754395458E-27,-1.));
#655=DIRECTION('',(-1.,0.,2.86431085568154E-14));
#656=DIRECTION('',(-2.86431085568154E-14,5.20608754395458E-27,-1.));
#657=DIRECTION('',(-1.,0.,2.86431085568154E-14));
#658=DIRECTION('',(-2.86431085568154E-14,5.20608754395458E-27,-1.));
#659=DIRECTION('',(-1.,0.,2.86431085568154E-14));
#660=DIRECTION('',(-2.86431085568154E-14,5.20608754395458E-27,-1.));
#661=DIRECTION('',(-1.,0.,2.86431085568154E-14));
#662=DIRECTION('',(1.,3.1933089443348E-27,-2.86431085568154E-14));
#663=DIRECTION('',(-2.86431085568154E-14,5.20608754395458E-27,-1.));
#664=DIRECTION('',(-1.,0.,2.86431085568154E-14));
#665=DIRECTION('',(3.19330894433465E-27,-1.,-5.20608754395467E-27));
#666=DIRECTION('',(-2.86431085568154E-14,5.20608754395458E-27,-1.));
#667=DIRECTION('',(-1.,0.,2.86431085568154E-14));
#668=DIRECTION('',(-1.,-3.19330894433465E-27,-1.66259054575618E-53));
#669=DIRECTION('',(-3.19330894433465E-27,1.,0.));
#670=DIRECTION('',(3.19330894433465E-27,-1.,-5.20608754395467E-27));
#671=DIRECTION('',(1.25953846213001E-57,5.20608754395467E-27,-1.));
#672=DIRECTION('',(3.19330894433465E-27,-1.,-5.20608754395467E-27));
#673=DIRECTION('',(1.25953846213001E-57,5.20608754395467E-27,-1.));
#674=DIRECTION('',(-3.19330894433465E-27,1.,5.20608754395467E-27));
#675=DIRECTION('',(1.,3.19330894433465E-27,1.66246459190996E-53));
#676=DIRECTION('',(1.,3.19330894433465E-27,1.43263224872904E-58));
#677=DIRECTION('',(1.25953845640392E-57,5.20608754395467E-27,-1.));
#678=DIRECTION('',(1.25953846213001E-57,5.20608754395467E-27,-1.));
#679=DIRECTION('',(-1.66245026558747E-53,5.20608754395467E-27,-1.));
#680=DIRECTION('',(0.,1.,5.20608754395467E-27));
#681=DIRECTION('',(1.,3.19330894433465E-27,1.43263224875222E-58));
#682=DIRECTION('',(3.19330894433465E-27,-1.,-5.20608754395467E-27));
#683=DIRECTION('',(3.19330894433465E-27,-1.,-5.20608754395467E-27));
#684=DIRECTION('',(-1.66245026558748E-53,5.20608754395467E-27,-1.));
#685=DIRECTION('',(0.,1.,5.20608754395467E-27));
#686=DIRECTION('',(0.,0.,-1.));
#687=DIRECTION('',(0.,1.,0.));
#688=DIRECTION('',(0.,0.,-1.));
#689=DIRECTION('',(0.,1.,0.));
#690=DIRECTION('',(-1.66245026558748E-53,5.20608754395467E-27,-1.));
#691=DIRECTION('',(0.,1.,5.20608754395467E-27));
#692=DIRECTION('',(0.,0.,-1.));
#693=DIRECTION('',(0.,1.,0.));
#694=DIRECTION('',(0.,0.,-1.));
#695=DIRECTION('',(0.,1.,0.));
#696=DIRECTION('',(-1.66245026558748E-53,5.20608754395467E-27,-1.));
#697=DIRECTION('',(0.,1.,5.20608754395467E-27));
#698=DIRECTION('',(0.,0.,-1.));
#699=DIRECTION('',(0.,1.,0.));
#700=DIRECTION('',(0.,0.,-1.));
#701=DIRECTION('',(0.,1.,0.));
#702=DIRECTION('',(-3.19330894433465E-27,1.,5.20608754395467E-27));
#703=DIRECTION('',(0.,-5.20608754395467E-27,1.));
#704=DIRECTION('',(0.,1.,0.));
#705=DIRECTION('',(1.,0.,0.));
#706=DIRECTION('',(-3.19330894433465E-27,1.,5.20608754395467E-27));
#707=DIRECTION('',(0.,-5.20608754395467E-27,1.));
#708=DIRECTION('',(0.,1.,0.));
#709=DIRECTION('',(1.,0.,0.));
#710=DIRECTION('',(-3.19330894433465E-27,1.,5.20608754395467E-27));
#711=DIRECTION('',(0.,-5.20608754395467E-27,1.));
#712=DIRECTION('',(0.,1.,0.));
#713=DIRECTION('',(1.,0.,0.));
#714=DIRECTION('',(0.,0.,-1.));
#715=DIRECTION('',(0.,1.,0.));
#716=DIRECTION('',(0.,0.,-1.));
#717=DIRECTION('',(0.,1.,0.));
#718=DIRECTION('',(1.,0.,0.));
#719=DIRECTION('',(0.,-1.,0.));
#720=DIRECTION('',(3.19330894433465E-27,-1.,-5.20608754395467E-27));
#721=DIRECTION('',(0.,5.20608754395467E-27,-1.));
#722=DIRECTION('',(1.73472347597681E-15,1.,0.));
#723=DIRECTION('',(1.,-1.73472347597681E-15,0.));
#724=DIRECTION('',(1.,3.19330894433465E-27,1.43263224875222E-58));
#725=DIRECTION('',(3.19330894433465E-27,-1.,0.));
#726=DIRECTION('',(-1.,0.,0.));
#727=DIRECTION('',(0.,1.,0.));
#728=DIRECTION('',(-1.25953846213001E-57,-5.20608754395467E-27,1.));
#729=DIRECTION('',(0.,-1.,-5.20608754395467E-27));
#730=DIRECTION('',(-2.25801040896269E-27,0.707106781186548,0.707106781186548));
#731=DIRECTION('',(2.25801040896269E-27,-0.707106781186548,0.707106781186548));
#732=DIRECTION('',(0.,0.,-1.));
#733=DIRECTION('',(0.,1.,0.));
#734=DIRECTION('',(0.,0.,-1.));
#735=DIRECTION('',(0.,1.,0.));
#736=DIRECTION('',(-3.19330894433465E-27,1.,5.20608754395467E-27));
#737=DIRECTION('',(0.,-5.20608754395467E-27,1.));
#738=DIRECTION('',(0.,1.,0.));
#739=DIRECTION('',(1.,0.,0.));
#740=DIRECTION('',(-1.25953846213001E-57,-5.20608754395467E-27,1.));
#741=DIRECTION('',(0.,-1.,-5.20608754395467E-27));
#742=DIRECTION('',(0.,0.,-1.));
#743=DIRECTION('',(0.,1.,0.));
#744=DIRECTION('',(1.25953845640392E-57,5.20608754395467E-27,-1.));
#745=DIRECTION('',(0.,1.,5.20608754395467E-27));
#746=DIRECTION('',(2.25801040896269E-27,-0.707106781186548,-0.707106781186548));
#747=DIRECTION('',(2.25801040896269E-27,-0.707106781186548,0.707106781186548));
#748=DIRECTION('',(1.,0.,0.));
#749=DIRECTION('',(0.,-1.,0.));
#750=DIRECTION('',(1.,0.,0.));
#751=DIRECTION('',(0.,-1.,0.));
#752=DIRECTION('',(3.19330894433465E-27,-1.,-5.20608754395467E-27));
#753=DIRECTION('',(0.,5.20608754395467E-27,-1.));
#754=DIRECTION('',(0.,1.,0.));
#755=DIRECTION('',(1.,0.,0.));
#756=DIRECTION('',(1.,3.19330894433465E-27,1.43263224872904E-58));
#757=DIRECTION('',(3.19330894433465E-27,-1.,0.));
#758=DIRECTION('',(-1.,0.,0.));
#759=DIRECTION('',(0.,1.,0.));
#760=DIRECTION('',(0.,0.,-1.));
#761=DIRECTION('',(0.,1.,0.));
#762=DIRECTION('',(0.,0.,-1.));
#763=DIRECTION('',(0.,1.,0.));
#764=DIRECTION('',(1.25953845640392E-57,5.20608754395467E-27,-1.));
#765=DIRECTION('',(0.,1.,5.20608754395467E-27));
#766=DIRECTION('',(0.,1.,0.));
#767=DIRECTION('',(1.,0.,0.));
#768=DIRECTION('',(0.,1.,0.));
#769=DIRECTION('',(1.,0.,0.));
#770=DIRECTION('',(0.,0.,-1.));
#771=DIRECTION('',(0.,1.,0.));
#772=DIRECTION('',(0.,0.,-1.));
#773=DIRECTION('',(0.,1.,0.));
#774=DIRECTION('',(0.,0.,-1.));
#775=DIRECTION('',(0.,1.,0.));
#776=DIRECTION('',(0.,0.,1.));
#777=DIRECTION('',(0.,-1.,0.));
#778=DIRECTION('',(0.,0.,1.));
#779=DIRECTION('',(0.,-1.,0.));
#780=DIRECTION('',(0.,0.,1.));
#781=DIRECTION('',(0.,-1.,0.));
#782=CARTESIAN_POINT('',(0.,0.,0.));
#783=CARTESIAN_POINT('',(-0.206711198985576,6.76542155623682E-17,0.0199953806971329));
#784=CARTESIAN_POINT('',(-0.238492712841871,6.76542155624239E-17,-0.0102046193028624));
#785=CARTESIAN_POINT('',(-0.297692712841895,6.76542155622349E-17,-0.0102046193028624));
#786=CARTESIAN_POINT('',(-0.179292712841849,6.7654215562613E-17,-0.0102046193028624));
#787=CARTESIAN_POINT('',(-0.179292712841849,6.76542155630955E-17,-0.00920461930286236));
#788=CARTESIAN_POINT('',(-0.178292712841848,6.7654215562611E-17,-0.00920461930286236));
#789=CARTESIAN_POINT('',(-0.178292712841848,6.76542155625381E-17,0.00479538069713591));
#790=CARTESIAN_POINT('',(-0.178292712841848,6.76542155625121E-17,0.00979538069713418));
#791=CARTESIAN_POINT('',(-0.238492712841871,6.76542155623198E-17,0.0097953806971359));
#792=CARTESIAN_POINT('',(-0.298692712841895,6.76542155621276E-17,0.00979538069713762));
#793=CARTESIAN_POINT('',(-0.298692712841895,6.76542155621536E-17,0.00479538069713763));
#794=CARTESIAN_POINT('',(-0.298692712841895,6.76542155622265E-17,-0.00920461930286236));
#795=CARTESIAN_POINT('',(-0.297692712841895,6.59194920871187E-17,-0.00920461930286236));
#796=CARTESIAN_POINT('',(-0.218292712841849,6.59194920871187E-17,-0.00520461930286237));
#797=CARTESIAN_POINT('',(-0.218292712841849,6.59194920871049E-17,-0.00255461930286237));
#798=CARTESIAN_POINT('',(-0.258692712841894,6.59194920871187E-17,-0.00520461930286237));
#799=CARTESIAN_POINT('',(-0.258692712841894,6.59194920871049E-17,-0.00255461930286237));
#800=CARTESIAN_POINT('',(-0.206711198985576,0.00500000000000007,0.0199953806971329));
#801=CARTESIAN_POINT('',(-0.218292712841849,0.00500000000000007,-0.00520461930286237));
#802=CARTESIAN_POINT('',(-0.218292712841849,0.00500000000000007,-0.00245461930286237));
#803=CARTESIAN_POINT('',(-0.258692712841894,0.00500000000000007,-0.00520461930286237));
#804=CARTESIAN_POINT('',(-0.258692712841894,0.00500000000000007,-0.00245461930286237));
#805=CARTESIAN_POINT('',(-0.238492712841871,0.00500000000000007,-0.000204619302862363));
#806=CARTESIAN_POINT('',(-0.297692712841895,0.00500000000000007,-0.000204619302862363));
#807=CARTESIAN_POINT('',(-0.179292712841849,0.00500000000000007,-0.000204619302862363));
#808=CARTESIAN_POINT('',(-0.179292712841849,0.00500000000000007,-0.0102046193028624));
#809=CARTESIAN_POINT('',(-0.179292712841849,0.00500000000000007,-0.00920461930286236));
#810=CARTESIAN_POINT('',(-0.206711198985576,0.00500000000000007,-0.00920461930286236));
#811=CARTESIAN_POINT('',(-0.297692712841895,0.00500000000000007,-0.00920461930286236));
#812=CARTESIAN_POINT('',(-0.297692712841895,0.00500000000000007,0.0199953806971329));
#813=CARTESIAN_POINT('',(-0.238492712841871,0.025,-0.000204619302862363));
#814=CARTESIAN_POINT('',(-0.278492712841904,0.0147155864899911,-0.000204619302862363));
#815=CARTESIAN_POINT('',(-0.278492712841904,0.0174655864899911,-0.000204619302862363));
#816=CARTESIAN_POINT('',(-0.238492712841904,0.0147155864899911,-0.000204619302862363));
#817=CARTESIAN_POINT('',(-0.238492712841904,0.0174655864899911,-0.000204619302862363));
#818=CARTESIAN_POINT('',(-0.198492712841904,0.0147155864899911,-0.000204619302862363));
#819=CARTESIAN_POINT('',(-0.198492712841904,0.0174655864899911,-0.000204619302862363));
#820=CARTESIAN_POINT('',(-0.238492712841871,0.024,-0.000204619302862363));
#821=CARTESIAN_POINT('',(-0.297692712841895,0.024,-0.000204619302862363));
#822=CARTESIAN_POINT('',(-0.179292712841849,0.024,-0.000204619302862363));
#823=CARTESIAN_POINT('',(-0.179292712841849,0.00500000000000007,-0.000204619302862363));
#824=CARTESIAN_POINT('',(-0.297692712841895,0.025,-0.000204619302862363));
#825=CARTESIAN_POINT('',(-0.298692712841895,0.025,0.00479538069713763));
#826=CARTESIAN_POINT('',(-0.298692712841895,0.025,0.00979538069713762));
#827=CARTESIAN_POINT('',(-0.298692712841895,0.024,0.00979538069713762));
#828=CARTESIAN_POINT('',(-0.298692712841895,0.024,0.00479538069713763));
#829=CARTESIAN_POINT('',(-0.298692712841895,0.024,0.000795380697137638));
#830=CARTESIAN_POINT('',(-0.298692712841895,0.025,0.000795380697137638));
#831=CARTESIAN_POINT('',(-0.298692712841895,0.00400000000000007,0.000795380697137638));
#832=CARTESIAN_POINT('',(-0.298692712841895,0.00400000000000007,0.00479538069713763));
#833=CARTESIAN_POINT('',(-0.298692712841895,0.00400000000000007,-0.00920461930286236));
#834=CARTESIAN_POINT('',(-0.298692712841895,0.025,-0.00920461930286236));
#835=CARTESIAN_POINT('',(-0.238492712841871,0.025,0.0097953806971359));
#836=CARTESIAN_POINT('',(-0.278492712841904,0.0147155864899911,0.00979538069713704));
#837=CARTESIAN_POINT('',(-0.281242712841904,0.0147155864899911,0.00979538069713712));
#838=CARTESIAN_POINT('',(-0.238492712841904,0.0147155864899911,0.0097953806971359));
#839=CARTESIAN_POINT('',(-0.241242712841904,0.0147155864899911,0.00979538069713598));
#840=CARTESIAN_POINT('',(-0.198492712841904,0.0147155864899911,0.00979538069713475));
#841=CARTESIAN_POINT('',(-0.201242712841904,0.0147155864899911,0.00979538069713483));
#842=CARTESIAN_POINT('',(-0.238492712841871,0.025,0.0097953806971359));
#843=CARTESIAN_POINT('',(-0.297692712841895,0.025,0.00979538069713759));
#844=CARTESIAN_POINT('',(-0.179292712841849,0.025,0.0097953806971342));
#845=CARTESIAN_POINT('',(-0.297692712841895,0.024,0.00979538069713759));
#846=CARTESIAN_POINT('',(-0.178292712841848,0.025,0.00979538069713418));
#847=CARTESIAN_POINT('',(-0.178292712841848,0.024,0.00979538069713418));
#848=CARTESIAN_POINT('',(-0.179292712841849,0.024,0.0097953806971342));
#849=CARTESIAN_POINT('',(-0.178292712841848,0.025,0.00479538069713591));
#850=CARTESIAN_POINT('',(-0.178292712841848,0.025,0.000795380697137638));
#851=CARTESIAN_POINT('',(-0.178292712841848,0.00400000000000007,0.000795380697137638));
#852=CARTESIAN_POINT('',(-0.178292712841848,0.024,0.000795380697137638));
#853=CARTESIAN_POINT('',(-0.178292712841848,0.024,0.00979538069713418));
#854=CARTESIAN_POINT('',(-0.178292712841848,0.00500000000000007,-0.00920461930286236));
#855=CARTESIAN_POINT('',(-0.178292712841848,0.00400000000000007,-0.00920461930286236));
#856=CARTESIAN_POINT('',(-0.178292712841848,0.00400000000000007,-0.000204619302862364));
#857=CARTESIAN_POINT('',(-0.206711198985576,0.025,0.0199953806971329));
#858=CARTESIAN_POINT('',(-0.206711198985576,0.025,0.000795380697137638));
#859=CARTESIAN_POINT('',(-0.179292712841849,0.025,0.000795380697137638));
#860=CARTESIAN_POINT('',(-0.297692712841895,0.025,0.000795380697137638));
#861=CARTESIAN_POINT('',(-0.297692712841895,0.025,0.0199953806971329));
#862=CARTESIAN_POINT('',(-0.179292712841849,0.025,-0.000204619302862364));
#863=CARTESIAN_POINT('',(-0.238492712841871,0.00500000000000007,-0.0102046193028624));
#864=CARTESIAN_POINT('',(-0.238492712841871,0.00400000000000007,-0.0102046193028624));
#865=CARTESIAN_POINT('',(-0.297692712841895,0.00400000000000007,-0.0102046193028624));
#866=CARTESIAN_POINT('',(-0.179292712841849,0.00400000000000007,-0.0102046193028624));
#867=CARTESIAN_POINT('',(-0.179292712841849,6.76542155631007E-17,-0.0102046193028624));
#868=CARTESIAN_POINT('',(-0.297692712841895,0.00500000000000007,-0.0102046193028624));
#869=CARTESIAN_POINT('',(-0.278492712841904,0.0147155864899911,0.0854953806971376));
#870=CARTESIAN_POINT('',(-0.278492712841904,0.0147155864899911,-0.000104619302862374));
#871=CARTESIAN_POINT('',(-0.278492712841904,0.0173655864899911,-0.000104619302862374));
#872=CARTESIAN_POINT('',(-0.278492712841904,0.0147155864899911,0.00969538069713707));
#873=CARTESIAN_POINT('',(-0.278492712841904,0.0173655864899911,0.00969538069713707));
#874=CARTESIAN_POINT('',(-0.238492712841904,0.0147155864899911,0.0854953806971376));
#875=CARTESIAN_POINT('',(-0.238492712841904,0.0147155864899911,-0.00010461930286236));
#876=CARTESIAN_POINT('',(-0.238492712841904,0.0173655864899911,-0.00010461930286236));
#877=CARTESIAN_POINT('',(-0.238492712841904,0.0147155864899911,0.00969538069713591));
#878=CARTESIAN_POINT('',(-0.238492712841904,0.0173655864899911,0.00969538069713591));
#879=CARTESIAN_POINT('',(-0.198492712841904,0.0147155864899911,0.0854953806971376));
#880=CARTESIAN_POINT('',(-0.198492712841904,0.0147155864899911,-0.00010461930286236));
#881=CARTESIAN_POINT('',(-0.198492712841904,0.0173655864899911,-0.00010461930286236));
#882=CARTESIAN_POINT('',(-0.198492712841904,0.0147155864899911,0.00969538069713474));
#883=CARTESIAN_POINT('',(-0.198492712841904,0.0173655864899911,0.00969538069713474));
#884=CARTESIAN_POINT('',(-0.218292712841849,-0.02,-0.00520461930286237));
#885=CARTESIAN_POINT('',(-0.218292712841849,0.00490000000000007,-0.00520461930286237));
#886=CARTESIAN_POINT('',(-0.215642712841848,0.00490000000000007,-0.00520461930286237));
#887=CARTESIAN_POINT('',(-0.258692712841894,-0.02,-0.00520461930286237));
#888=CARTESIAN_POINT('',(-0.258692712841894,0.00490000000000007,-0.00520461930286237));
#889=CARTESIAN_POINT('',(-0.256042712841895,0.00490000000000007,-0.00520461930286237));
#890=CARTESIAN_POINT('',(-0.179292712841849,0.00500000000000007,-0.00920461930286236));
#891=CARTESIAN_POINT('',(-0.179292712841849,0.00400000000000007,-0.00920461930286236));
#892=CARTESIAN_POINT('',(-0.179292712841849,0.00400000000000007,-0.00920461930286236));
#893=CARTESIAN_POINT('',(-0.179292712841849,0.00400000000000007,-0.00920461930286236));
#894=CARTESIAN_POINT('',(-0.179292712841849,0.00400000000000007,-0.00920461930286236));
#895=CARTESIAN_POINT('',(-0.297692712841895,0.025,-0.00920461930286236));
#896=CARTESIAN_POINT('',(-0.297692712841895,0.00400000000000007,-0.00920461930286236));
#897=CARTESIAN_POINT('',(-0.238492712841871,0.00400000000000007,-0.00920461930286236));
#898=CARTESIAN_POINT('',(-0.297692712841895,0.00400000000000007,-0.00920461930286236));
#899=CARTESIAN_POINT('',(-0.179292712841849,0.00400000000000007,0.0199953806971329));
#900=CARTESIAN_POINT('',(-0.179292712841849,0.00400000000000007,0.000795380697137638));
#901=CARTESIAN_POINT('',(-0.297692712841895,0.00400000000000007,-0.00920461930286236));
#902=CARTESIAN_POINT('',(-0.297692712841895,0.00400000000000007,-0.00920461930286236));
#903=CARTESIAN_POINT('',(-0.179292712841849,0.025,0.000795380697137638));
#904=CARTESIAN_POINT('',(-0.179292712841849,0.024,0.000795380697137638));
#905=CARTESIAN_POINT('',(-0.179292712841849,0.024,0.0199953806971329));
#906=CARTESIAN_POINT('',(-0.179292712841849,0.024,0.000795380697137638));
#907=CARTESIAN_POINT('',(-0.297692712841895,0.00400000000000007,0.00479538069713763));
#908=CARTESIAN_POINT('',(-0.297692712841895,0.00400000000000007,0.000795380697137638));
#909=CARTESIAN_POINT('',(-0.179292712841849,0.024,0.000795380697137638));
#910=CARTESIAN_POINT('',(-0.179292712841849,0.024,0.000795380697137638));
#911=CARTESIAN_POINT('',(-0.297692712841895,0.025,0.000795380697137638));
#912=CARTESIAN_POINT('',(-0.297692712841895,0.024,0.000795380697137638));
#913=CARTESIAN_POINT('',(-0.238492712841871,0.024,0.000795380697137638));
#914=CARTESIAN_POINT('',(-0.297692712841895,0.024,0.000795380697137638));
#915=CARTESIAN_POINT('',(-0.297692712841895,0.024,0.000795380697137638));
#916=CARTESIAN_POINT('',(-0.297692712841895,0.024,0.000795380697137638));
#917=CARTESIAN_POINT('',(-0.297692712841895,0.024,0.00479538069713763));
#918=CARTESIAN_POINT('',(-0.218292712841849,0.00500000000000007,-0.00520461930286237));
#919=CARTESIAN_POINT('',(-0.258692712841894,0.00490000000000007,-0.00520461930286237));
#920=CARTESIAN_POINT('',(-0.278492712841904,0.0147155864899911,-0.000104619302862374));
#921=CARTESIAN_POINT('',(-0.238492712841904,0.0147155864899911,-0.00010461930286236));
#922=CARTESIAN_POINT('',(-0.198492712841904,0.0147155864899911,-0.00010461930286236));
#923=CARTESIAN_POINT('',(-0.278492712841904,0.0147155864899911,0.00979538069713705));
#924=CARTESIAN_POINT('',(-0.238492712841904,0.0147155864899911,0.0097953806971359));
#925=CARTESIAN_POINT('',(-0.198492712841904,0.0147155864899911,0.00979538069713475));
#926=MECHANICAL_DESIGN_GEOMETRIC_PRESENTATION_REPRESENTATION('',(#527),
#927);
#927=(
GEOMETRIC_REPRESENTATION_CONTEXT(3)
GLOBAL_UNCERTAINTY_ASSIGNED_CONTEXT((#928))
GLOBAL_UNIT_ASSIGNED_CONTEXT((#931,#930,#929))
REPRESENTATION_CONTEXT('GantryBracket0','TOP_LEVEL_ASSEMBLY_PART')
);
#928=UNCERTAINTY_MEASURE_WITH_UNIT(LENGTH_MEASURE(1.E-8),#931,
'DISTANCE_ACCURACY_VALUE','Maximum Tolerance applied to model');
#929=(
NAMED_UNIT(*)
SI_UNIT($,.STERADIAN.)
SOLID_ANGLE_UNIT()
);
#930=(
NAMED_UNIT(*)
PLANE_ANGLE_UNIT()
SI_UNIT($,.RADIAN.)
);
#931=(
LENGTH_UNIT()
NAMED_UNIT(*)
SI_UNIT($,.METRE.)
);
#932=PRODUCT_DEFINITION_SHAPE('','',#933);
#933=PRODUCT_DEFINITION('','',#935,#934);
#934=PRODUCT_DEFINITION_CONTEXT('',#941,'design');
#935=PRODUCT_DEFINITION_FORMATION_WITH_SPECIFIED_SOURCE('','',#937,
 .NOT_KNOWN.);
#936=PRODUCT_RELATED_PRODUCT_CATEGORY('','',(#937));
#937=PRODUCT('GantryBracket0','GantryBracket0','GantryBracket0',(#939));
#938=PRODUCT_CATEGORY('','');
#939=PRODUCT_CONTEXT('',#941,'mechanical');
#940=APPLICATION_PROTOCOL_DEFINITION('international standard',
'ap242_managed_model_based_3d_engineering',2020,#941);
#941=APPLICATION_CONTEXT('managed model based 3d engineering');
ENDSEC;
END-ISO-10303-21;
