ISO-10303-21;
HEADER;
/* Generated by software containing ST-Developer
 * from STEP Tools, Inc. (www.steptools.com) 
 */
/* OPTION: using custom renumber hook */

FILE_DESCRIPTION(
/* description */ ('STEP AP242 Edition 2',
'CAx-IF Rec.Pracs.---Representation and Presentation of Product Manufa
cturing Information (PMI)---4.0---2014-10-13',
'CAx-IF Rec.Pracs.---3D Tessellated Geometry---0.4---2014-09-14','2;1',
'CAx-IF Rec.Pracs.---User Defined Attributes---1.5---2016-08-15'),
/* implementation_level */ '2;1');

FILE_NAME(
/* name */ 'Router - MotorHolder-XAxis',
/* time_stamp */ '2026-08-15T23:20:14Z',
/* author */ (''),
/* organization */ (''),
/* preprocessor_version */ 'ST-DEVELOPER v20',
/* originating_system */ 'ONSHAPE BY PTC INC, 1.219',
/* authorisation */ '  ');

FILE_SCHEMA (('AP242_MANAGED_MODEL_BASED_3D_ENGINEERING_MIM_LF { 1 0 10303 442 3 1 4 }'));
ENDSEC;

DATA;
#10=SHAPE_REPRESENTATION_RELATIONSHIP('','',#496,#11);
#11=ADVANCED_BREP_SHAPE_REPRESENTATION('',(#494),#848);
#12=ELLIPSE('',#539,0.00282842712474627,0.002);
#13=ELLIPSE('',#541,0.00282842712474611,0.002);
#14=ELLIPSE('',#544,0.00282842712474627,0.002);
#15=ELLIPSE('',#546,0.00282842712474611,0.002);
#16=LINE('',#737,#39);
#17=LINE('',#744,#40);
#18=LINE('',#746,#41);
#19=LINE('',#748,#42);
#20=LINE('',#750,#43);
#21=LINE('',#764,#44);
#22=LINE('',#766,#45);
#23=LINE('',#768,#46);
#24=LINE('',#780,#47);
#25=LINE('',#785,#48);
#26=LINE('',#789,#49);
#27=LINE('',#794,#50);
#28=LINE('',#797,#51);
#29=LINE('',#798,#52);
#30=LINE('',#805,#53);
#31=LINE('',#807,#54);
#32=LINE('',#808,#55);
#33=LINE('',#810,#56);
#34=LINE('',#812,#57);
#35=LINE('',#814,#58);
#36=LINE('',#816,#59);
#37=LINE('',#817,#60);
#38=LINE('',#829,#61);
#39=VECTOR('',#590,1.);
#40=VECTOR('',#595,1.);
#41=VECTOR('',#596,1.);
#42=VECTOR('',#597,1.);
#43=VECTOR('',#598,1.);
#44=VECTOR('',#615,1.);
#45=VECTOR('',#616,1.);
#46=VECTOR('',#617,1.);
#47=VECTOR('',#630,1.);
#48=VECTOR('',#633,1.);
#49=VECTOR('',#636,1.);
#50=VECTOR('',#643,1.);
#51=VECTOR('',#644,1.);
#52=VECTOR('',#645,1.);
#53=VECTOR('',#654,1.);
#54=VECTOR('',#655,1.);
#55=VECTOR('',#656,1.);
#56=VECTOR('',#659,1.);
#57=VECTOR('',#660,1.);
#58=VECTOR('',#661,1.);
#59=VECTOR('',#664,1.);
#60=VECTOR('',#665,1.);
#61=VECTOR('',#688,1.);
#62=PLANE('',#510);
#63=PLANE('',#519);
#64=PLANE('',#521);
#65=PLANE('',#531);
#66=PLANE('',#533);
#67=PLANE('',#536);
#68=PLANE('',#537);
#69=PLANE('',#552);
#70=PLANE('',#555);
#71=PLANE('',#558);
#72=PLANE('',#561);
#73=ORIENTED_EDGE('',*,*,#187,.F.);
#74=ORIENTED_EDGE('',*,*,#188,.T.);
#75=ORIENTED_EDGE('',*,*,#189,.F.);
#76=ORIENTED_EDGE('',*,*,#190,.T.);
#77=ORIENTED_EDGE('',*,*,#191,.F.);
#78=ORIENTED_EDGE('',*,*,#192,.T.);
#79=ORIENTED_EDGE('',*,*,#193,.F.);
#80=ORIENTED_EDGE('',*,*,#194,.T.);
#81=ORIENTED_EDGE('',*,*,#195,.F.);
#82=ORIENTED_EDGE('',*,*,#196,.T.);
#83=ORIENTED_EDGE('',*,*,#197,.T.);
#84=ORIENTED_EDGE('',*,*,#198,.F.);
#85=ORIENTED_EDGE('',*,*,#199,.T.);
#86=ORIENTED_EDGE('',*,*,#200,.F.);
#87=ORIENTED_EDGE('',*,*,#201,.T.);
#88=ORIENTED_EDGE('',*,*,#202,.F.);
#89=ORIENTED_EDGE('',*,*,#203,.T.);
#90=ORIENTED_EDGE('',*,*,#204,.F.);
#91=ORIENTED_EDGE('',*,*,#205,.T.);
#92=ORIENTED_EDGE('',*,*,#206,.T.);
#93=ORIENTED_EDGE('',*,*,#187,.T.);
#94=ORIENTED_EDGE('',*,*,#189,.T.);
#95=ORIENTED_EDGE('',*,*,#191,.T.);
#96=ORIENTED_EDGE('',*,*,#193,.T.);
#97=ORIENTED_EDGE('',*,*,#198,.T.);
#98=ORIENTED_EDGE('',*,*,#207,.T.);
#99=ORIENTED_EDGE('',*,*,#208,.F.);
#100=ORIENTED_EDGE('',*,*,#209,.T.);
#101=ORIENTED_EDGE('',*,*,#210,.F.);
#102=ORIENTED_EDGE('',*,*,#211,.F.);
#103=ORIENTED_EDGE('',*,*,#212,.F.);
#104=ORIENTED_EDGE('',*,*,#213,.F.);
#105=ORIENTED_EDGE('',*,*,#214,.T.);
#106=ORIENTED_EDGE('',*,*,#204,.T.);
#107=ORIENTED_EDGE('',*,*,#202,.T.);
#108=ORIENTED_EDGE('',*,*,#215,.T.);
#109=ORIENTED_EDGE('',*,*,#216,.T.);
#110=ORIENTED_EDGE('',*,*,#217,.F.);
#111=ORIENTED_EDGE('',*,*,#218,.T.);
#112=ORIENTED_EDGE('',*,*,#219,.F.);
#113=ORIENTED_EDGE('',*,*,#220,.T.);
#114=ORIENTED_EDGE('',*,*,#200,.T.);
#115=ORIENTED_EDGE('',*,*,#221,.T.);
#116=ORIENTED_EDGE('',*,*,#222,.T.);
#117=ORIENTED_EDGE('',*,*,#223,.T.);
#118=ORIENTED_EDGE('',*,*,#215,.F.);
#119=ORIENTED_EDGE('',*,*,#224,.T.);
#120=ORIENTED_EDGE('',*,*,#206,.F.);
#121=ORIENTED_EDGE('',*,*,#214,.F.);
#122=ORIENTED_EDGE('',*,*,#208,.T.);
#123=ORIENTED_EDGE('',*,*,#225,.T.);
#124=ORIENTED_EDGE('',*,*,#226,.T.);
#125=ORIENTED_EDGE('',*,*,#227,.T.);
#126=ORIENTED_EDGE('',*,*,#228,.T.);
#127=ORIENTED_EDGE('',*,*,#217,.T.);
#128=ORIENTED_EDGE('',*,*,#229,.T.);
#129=ORIENTED_EDGE('',*,*,#219,.T.);
#130=ORIENTED_EDGE('',*,*,#230,.T.);
#131=ORIENTED_EDGE('',*,*,#231,.T.);
#132=ORIENTED_EDGE('',*,*,#232,.T.);
#133=ORIENTED_EDGE('',*,*,#203,.F.);
#134=ORIENTED_EDGE('',*,*,#205,.F.);
#135=ORIENTED_EDGE('',*,*,#227,.F.);
#136=ORIENTED_EDGE('',*,*,#233,.T.);
#137=ORIENTED_EDGE('',*,*,#195,.T.);
#138=ORIENTED_EDGE('',*,*,#234,.T.);
#139=ORIENTED_EDGE('',*,*,#218,.F.);
#140=ORIENTED_EDGE('',*,*,#228,.F.);
#141=ORIENTED_EDGE('',*,*,#235,.F.);
#142=ORIENTED_EDGE('',*,*,#230,.F.);
#143=ORIENTED_EDGE('',*,*,#220,.F.);
#144=ORIENTED_EDGE('',*,*,#232,.F.);
#145=ORIENTED_EDGE('',*,*,#236,.F.);
#146=ORIENTED_EDGE('',*,*,#201,.F.);
#147=ORIENTED_EDGE('',*,*,#235,.T.);
#148=ORIENTED_EDGE('',*,*,#234,.F.);
#149=ORIENTED_EDGE('',*,*,#236,.T.);
#150=ORIENTED_EDGE('',*,*,#231,.F.);
#151=ORIENTED_EDGE('',*,*,#216,.F.);
#152=ORIENTED_EDGE('',*,*,#223,.F.);
#153=ORIENTED_EDGE('',*,*,#237,.F.);
#154=ORIENTED_EDGE('',*,*,#229,.F.);
#155=ORIENTED_EDGE('',*,*,#221,.F.);
#156=ORIENTED_EDGE('',*,*,#199,.F.);
#157=ORIENTED_EDGE('',*,*,#238,.F.);
#158=ORIENTED_EDGE('',*,*,#224,.F.);
#159=ORIENTED_EDGE('',*,*,#237,.T.);
#160=ORIENTED_EDGE('',*,*,#222,.F.);
#161=ORIENTED_EDGE('',*,*,#238,.T.);
#162=ORIENTED_EDGE('',*,*,#209,.F.);
#163=ORIENTED_EDGE('',*,*,#239,.F.);
#164=ORIENTED_EDGE('',*,*,#196,.F.);
#165=ORIENTED_EDGE('',*,*,#233,.F.);
#166=ORIENTED_EDGE('',*,*,#226,.F.);
#167=ORIENTED_EDGE('',*,*,#197,.F.);
#168=ORIENTED_EDGE('',*,*,#239,.T.);
#169=ORIENTED_EDGE('',*,*,#225,.F.);
#170=ORIENTED_EDGE('',*,*,#207,.F.);
#171=ORIENTED_EDGE('',*,*,#240,.F.);
#172=ORIENTED_EDGE('',*,*,#213,.T.);
#173=ORIENTED_EDGE('',*,*,#188,.F.);
#174=ORIENTED_EDGE('',*,*,#240,.T.);
#175=ORIENTED_EDGE('',*,*,#241,.F.);
#176=ORIENTED_EDGE('',*,*,#212,.T.);
#177=ORIENTED_EDGE('',*,*,#190,.F.);
#178=ORIENTED_EDGE('',*,*,#241,.T.);
#179=ORIENTED_EDGE('',*,*,#242,.F.);
#180=ORIENTED_EDGE('',*,*,#211,.T.);
#181=ORIENTED_EDGE('',*,*,#192,.F.);
#182=ORIENTED_EDGE('',*,*,#242,.T.);
#183=ORIENTED_EDGE('',*,*,#243,.F.);
#184=ORIENTED_EDGE('',*,*,#210,.T.);
#185=ORIENTED_EDGE('',*,*,#194,.F.);
#186=ORIENTED_EDGE('',*,*,#243,.T.);
#187=EDGE_CURVE('',#244,#244,#288,.T.);
#188=EDGE_CURVE('',#245,#245,#289,.T.);
#189=EDGE_CURVE('',#246,#246,#290,.T.);
#190=EDGE_CURVE('',#247,#247,#291,.T.);
#191=EDGE_CURVE('',#248,#248,#292,.T.);
#192=EDGE_CURVE('',#249,#249,#293,.T.);
#193=EDGE_CURVE('',#250,#250,#294,.T.);
#194=EDGE_CURVE('',#251,#251,#295,.T.);
#195=EDGE_CURVE('',#252,#253,#16,.T.);
#196=EDGE_CURVE('',#252,#254,#296,.F.);
#197=EDGE_CURVE('',#254,#255,#297,.T.);
#198=EDGE_CURVE('',#256,#255,#17,.T.);
#199=EDGE_CURVE('',#256,#257,#18,.T.);
#200=EDGE_CURVE('',#258,#257,#19,.T.);
#201=EDGE_CURVE('',#258,#253,#20,.F.);
#202=EDGE_CURVE('',#259,#259,#298,.T.);
#203=EDGE_CURVE('',#260,#260,#299,.T.);
#204=EDGE_CURVE('',#261,#261,#300,.T.);
#205=EDGE_CURVE('',#262,#262,#301,.T.);
#206=EDGE_CURVE('',#263,#263,#302,.T.);
#207=EDGE_CURVE('',#255,#264,#21,.T.);
#208=EDGE_CURVE('',#265,#264,#22,.T.);
#209=EDGE_CURVE('',#265,#256,#23,.T.);
#210=EDGE_CURVE('',#266,#266,#303,.T.);
#211=EDGE_CURVE('',#267,#267,#304,.T.);
#212=EDGE_CURVE('',#268,#268,#305,.T.);
#213=EDGE_CURVE('',#269,#269,#306,.T.);
#214=EDGE_CURVE('',#270,#270,#307,.T.);
#215=EDGE_CURVE('',#271,#272,#24,.T.);
#216=EDGE_CURVE('',#272,#273,#308,.F.);
#217=EDGE_CURVE('',#274,#273,#25,.T.);
#218=EDGE_CURVE('',#274,#275,#309,.F.);
#219=EDGE_CURVE('',#276,#275,#26,.T.);
#220=EDGE_CURVE('',#276,#258,#310,.F.);
#221=EDGE_CURVE('',#257,#271,#311,.F.);
#222=EDGE_CURVE('',#277,#278,#27,.F.);
#223=EDGE_CURVE('',#278,#272,#28,.T.);
#224=EDGE_CURVE('',#271,#277,#29,.F.);
#225=EDGE_CURVE('',#264,#279,#312,.F.);
#226=EDGE_CURVE('',#279,#280,#313,.T.);
#227=EDGE_CURVE('',#280,#281,#30,.T.);
#228=EDGE_CURVE('',#281,#274,#31,.T.);
#229=EDGE_CURVE('',#273,#265,#32,.F.);
#230=EDGE_CURVE('',#275,#282,#33,.F.);
#231=EDGE_CURVE('',#282,#283,#34,.T.);
#232=EDGE_CURVE('',#283,#276,#35,.T.);
#233=EDGE_CURVE('',#280,#252,#36,.F.);
#234=EDGE_CURVE('',#253,#281,#37,.F.);
#235=EDGE_CURVE('',#282,#281,#12,.F.);
#236=EDGE_CURVE('',#253,#283,#13,.T.);
#237=EDGE_CURVE('',#265,#278,#14,.T.);
#238=EDGE_CURVE('',#277,#256,#15,.F.);
#239=EDGE_CURVE('',#254,#279,#38,.T.);
#240=EDGE_CURVE('',#284,#284,#314,.T.);
#241=EDGE_CURVE('',#285,#285,#315,.T.);
#242=EDGE_CURVE('',#286,#286,#316,.T.);
#243=EDGE_CURVE('',#287,#287,#317,.T.);
#244=VERTEX_POINT('',#718);
#245=VERTEX_POINT('',#720);
#246=VERTEX_POINT('',#723);
#247=VERTEX_POINT('',#725);
#248=VERTEX_POINT('',#728);
#249=VERTEX_POINT('',#730);
#250=VERTEX_POINT('',#733);
#251=VERTEX_POINT('',#735);
#252=VERTEX_POINT('',#738);
#253=VERTEX_POINT('',#739);
#254=VERTEX_POINT('',#741);
#255=VERTEX_POINT('',#743);
#256=VERTEX_POINT('',#745);
#257=VERTEX_POINT('',#747);
#258=VERTEX_POINT('',#749);
#259=VERTEX_POINT('',#753);
#260=VERTEX_POINT('',#755);
#261=VERTEX_POINT('',#758);
#262=VERTEX_POINT('',#760);
#263=VERTEX_POINT('',#763);
#264=VERTEX_POINT('',#765);
#265=VERTEX_POINT('',#767);
#266=VERTEX_POINT('',#771);
#267=VERTEX_POINT('',#773);
#268=VERTEX_POINT('',#775);
#269=VERTEX_POINT('',#777);
#270=VERTEX_POINT('',#779);
#271=VERTEX_POINT('',#781);
#272=VERTEX_POINT('',#782);
#273=VERTEX_POINT('',#784);
#274=VERTEX_POINT('',#786);
#275=VERTEX_POINT('',#788);
#276=VERTEX_POINT('',#790);
#277=VERTEX_POINT('',#795);
#278=VERTEX_POINT('',#796);
#279=VERTEX_POINT('',#802);
#280=VERTEX_POINT('',#804);
#281=VERTEX_POINT('',#806);
#282=VERTEX_POINT('',#811);
#283=VERTEX_POINT('',#813);
#284=VERTEX_POINT('',#833);
#285=VERTEX_POINT('',#837);
#286=VERTEX_POINT('',#841);
#287=VERTEX_POINT('',#845);
#288=CIRCLE('',#499,0.0017);
#289=CIRCLE('',#500,0.0017);
#290=CIRCLE('',#502,0.0017);
#291=CIRCLE('',#503,0.0017);
#292=CIRCLE('',#505,0.0017);
#293=CIRCLE('',#506,0.0017);
#294=CIRCLE('',#508,0.0017);
#295=CIRCLE('',#509,0.0017);
#296=CIRCLE('',#511,0.005);
#297=CIRCLE('',#512,0.005);
#298=CIRCLE('',#514,0.0043);
#299=CIRCLE('',#515,0.0043);
#300=CIRCLE('',#517,0.0043);
#301=CIRCLE('',#518,0.0043);
#302=CIRCLE('',#520,0.0175);
#303=CIRCLE('',#522,0.00375);
#304=CIRCLE('',#523,0.00375);
#305=CIRCLE('',#524,0.00375);
#306=CIRCLE('',#525,0.00375);
#307=CIRCLE('',#526,0.0175);
#308=CIRCLE('',#527,0.002);
#309=CIRCLE('',#528,0.002);
#310=CIRCLE('',#529,0.002);
#311=CIRCLE('',#530,0.002);
#312=CIRCLE('',#534,0.005);
#313=CIRCLE('',#535,0.005);
#314=CIRCLE('',#551,0.00375);
#315=CIRCLE('',#554,0.00375);
#316=CIRCLE('',#557,0.00375);
#317=CIRCLE('',#560,0.00375);
#318=EDGE_LOOP('',(#73));
#319=EDGE_LOOP('',(#74));
#320=EDGE_LOOP('',(#75));
#321=EDGE_LOOP('',(#76));
#322=EDGE_LOOP('',(#77));
#323=EDGE_LOOP('',(#78));
#324=EDGE_LOOP('',(#79));
#325=EDGE_LOOP('',(#80));
#326=EDGE_LOOP('',(#81,#82,#83,#84,#85,#86,#87));
#327=EDGE_LOOP('',(#88));
#328=EDGE_LOOP('',(#89));
#329=EDGE_LOOP('',(#90));
#330=EDGE_LOOP('',(#91));
#331=EDGE_LOOP('',(#92));
#332=EDGE_LOOP('',(#93));
#333=EDGE_LOOP('',(#94));
#334=EDGE_LOOP('',(#95));
#335=EDGE_LOOP('',(#96));
#336=EDGE_LOOP('',(#97,#98,#99,#100));
#337=EDGE_LOOP('',(#101));
#338=EDGE_LOOP('',(#102));
#339=EDGE_LOOP('',(#103));
#340=EDGE_LOOP('',(#104));
#341=EDGE_LOOP('',(#105));
#342=EDGE_LOOP('',(#106));
#343=EDGE_LOOP('',(#107));
#344=EDGE_LOOP('',(#108,#109,#110,#111,#112,#113,#114,#115));
#345=EDGE_LOOP('',(#116,#117,#118,#119));
#346=EDGE_LOOP('',(#120));
#347=EDGE_LOOP('',(#121));
#348=EDGE_LOOP('',(#122,#123,#124,#125,#126,#127,#128));
#349=EDGE_LOOP('',(#129,#130,#131,#132));
#350=EDGE_LOOP('',(#133));
#351=EDGE_LOOP('',(#134));
#352=EDGE_LOOP('',(#135,#136,#137,#138));
#353=EDGE_LOOP('',(#139,#140,#141,#142));
#354=EDGE_LOOP('',(#143,#144,#145,#146));
#355=EDGE_LOOP('',(#147,#148,#149,#150));
#356=EDGE_LOOP('',(#151,#152,#153,#154));
#357=EDGE_LOOP('',(#155,#156,#157,#158));
#358=EDGE_LOOP('',(#159,#160,#161,#162));
#359=EDGE_LOOP('',(#163,#164,#165,#166));
#360=EDGE_LOOP('',(#167,#168,#169,#170));
#361=EDGE_LOOP('',(#171));
#362=EDGE_LOOP('',(#172));
#363=EDGE_LOOP('',(#173));
#364=EDGE_LOOP('',(#174));
#365=EDGE_LOOP('',(#175));
#366=EDGE_LOOP('',(#176));
#367=EDGE_LOOP('',(#177));
#368=EDGE_LOOP('',(#178));
#369=EDGE_LOOP('',(#179));
#370=EDGE_LOOP('',(#180));
#371=EDGE_LOOP('',(#181));
#372=EDGE_LOOP('',(#182));
#373=EDGE_LOOP('',(#183));
#374=EDGE_LOOP('',(#184));
#375=EDGE_LOOP('',(#185));
#376=EDGE_LOOP('',(#186));
#377=FACE_BOUND('',#318,.T.);
#378=FACE_BOUND('',#319,.T.);
#379=FACE_BOUND('',#320,.T.);
#380=FACE_BOUND('',#321,.T.);
#381=FACE_BOUND('',#322,.T.);
#382=FACE_BOUND('',#323,.T.);
#383=FACE_BOUND('',#324,.T.);
#384=FACE_BOUND('',#325,.T.);
#385=FACE_BOUND('',#326,.T.);
#386=FACE_BOUND('',#327,.T.);
#387=FACE_BOUND('',#328,.T.);
#388=FACE_BOUND('',#329,.T.);
#389=FACE_BOUND('',#330,.T.);
#390=FACE_BOUND('',#331,.T.);
#391=FACE_BOUND('',#332,.T.);
#392=FACE_BOUND('',#333,.T.);
#393=FACE_BOUND('',#334,.T.);
#394=FACE_BOUND('',#335,.T.);
#395=FACE_BOUND('',#336,.T.);
#396=FACE_BOUND('',#337,.T.);
#397=FACE_BOUND('',#338,.T.);
#398=FACE_BOUND('',#339,.T.);
#399=FACE_BOUND('',#340,.T.);
#400=FACE_BOUND('',#341,.T.);
#401=FACE_BOUND('',#342,.T.);
#402=FACE_BOUND('',#343,.T.);
#403=FACE_BOUND('',#344,.T.);
#404=FACE_BOUND('',#345,.T.);
#405=FACE_BOUND('',#346,.T.);
#406=FACE_BOUND('',#347,.T.);
#407=FACE_BOUND('',#348,.T.);
#408=FACE_BOUND('',#349,.T.);
#409=FACE_BOUND('',#350,.T.);
#410=FACE_BOUND('',#351,.T.);
#411=FACE_BOUND('',#352,.T.);
#412=FACE_BOUND('',#353,.T.);
#413=FACE_BOUND('',#354,.T.);
#414=FACE_BOUND('',#355,.T.);
#415=FACE_BOUND('',#356,.T.);
#416=FACE_BOUND('',#357,.T.);
#417=FACE_BOUND('',#358,.T.);
#418=FACE_BOUND('',#359,.T.);
#419=FACE_BOUND('',#360,.T.);
#420=FACE_BOUND('',#361,.T.);
#421=FACE_BOUND('',#362,.T.);
#422=FACE_BOUND('',#363,.T.);
#423=FACE_BOUND('',#364,.T.);
#424=FACE_BOUND('',#365,.T.);
#425=FACE_BOUND('',#366,.T.);
#426=FACE_BOUND('',#367,.T.);
#427=FACE_BOUND('',#368,.T.);
#428=FACE_BOUND('',#369,.T.);
#429=FACE_BOUND('',#370,.T.);
#430=FACE_BOUND('',#371,.T.);
#431=FACE_BOUND('',#372,.T.);
#432=FACE_BOUND('',#373,.T.);
#433=FACE_BOUND('',#374,.T.);
#434=FACE_BOUND('',#375,.T.);
#435=FACE_BOUND('',#376,.T.);
#436=CYLINDRICAL_SURFACE('',#498,0.0017);
#437=CYLINDRICAL_SURFACE('',#501,0.0017);
#438=CYLINDRICAL_SURFACE('',#504,0.0017);
#439=CYLINDRICAL_SURFACE('',#507,0.0017);
#440=CYLINDRICAL_SURFACE('',#513,0.0043);
#441=CYLINDRICAL_SURFACE('',#516,0.0043);
#442=CYLINDRICAL_SURFACE('',#532,0.0175);
#443=CYLINDRICAL_SURFACE('',#538,0.002);
#444=CYLINDRICAL_SURFACE('',#540,0.002);
#445=CYLINDRICAL_SURFACE('',#542,0.002);
#446=CYLINDRICAL_SURFACE('',#543,0.002);
#447=CYLINDRICAL_SURFACE('',#545,0.002);
#448=CYLINDRICAL_SURFACE('',#547,0.002);
#449=CYLINDRICAL_SURFACE('',#548,0.005);
#450=CYLINDRICAL_SURFACE('',#549,0.005);
#451=CYLINDRICAL_SURFACE('',#550,0.00375);
#452=CYLINDRICAL_SURFACE('',#553,0.00375);
#453=CYLINDRICAL_SURFACE('',#556,0.00375);
#454=CYLINDRICAL_SURFACE('',#559,0.00375);
#455=ADVANCED_FACE('',(#377,#378),#436,.F.);
#456=ADVANCED_FACE('',(#379,#380),#437,.F.);
#457=ADVANCED_FACE('',(#381,#382),#438,.F.);
#458=ADVANCED_FACE('',(#383,#384),#439,.F.);
#459=ADVANCED_FACE('',(#385),#62,.T.);
#460=ADVANCED_FACE('',(#386,#387),#440,.F.);
#461=ADVANCED_FACE('',(#388,#389),#441,.F.);
#462=ADVANCED_FACE('',(#390,#391,#392,#393,#394,#395),#63,.F.);
#463=ADVANCED_FACE('',(#396,#397,#398,#399,#400,#401,#402,#403),#64,.F.);
#464=ADVANCED_FACE('',(#404),#65,.T.);
#465=ADVANCED_FACE('',(#405,#406),#442,.F.);
#466=ADVANCED_FACE('',(#407),#66,.F.);
#467=ADVANCED_FACE('',(#408),#67,.F.);
#468=ADVANCED_FACE('',(#409,#410,#411),#68,.T.);
#469=ADVANCED_FACE('',(#412),#443,.T.);
#470=ADVANCED_FACE('',(#413),#444,.T.);
#471=ADVANCED_FACE('',(#414),#445,.T.);
#472=ADVANCED_FACE('',(#415),#446,.T.);
#473=ADVANCED_FACE('',(#416),#447,.T.);
#474=ADVANCED_FACE('',(#417),#448,.T.);
#475=ADVANCED_FACE('',(#418),#449,.F.);
#476=ADVANCED_FACE('',(#419),#450,.T.);
#477=ADVANCED_FACE('',(#420,#421),#451,.F.);
#478=ADVANCED_FACE('',(#422,#423),#69,.T.);
#479=ADVANCED_FACE('',(#424,#425),#452,.F.);
#480=ADVANCED_FACE('',(#426,#427),#70,.T.);
#481=ADVANCED_FACE('',(#428,#429),#453,.F.);
#482=ADVANCED_FACE('',(#430,#431),#71,.T.);
#483=ADVANCED_FACE('',(#432,#433),#454,.F.);
#484=ADVANCED_FACE('',(#434,#435),#72,.T.);
#485=CLOSED_SHELL('',(#455,#456,#457,#458,#459,#460,#461,#462,#463,#464,
#465,#466,#467,#468,#469,#470,#471,#472,#473,#474,#475,#476,#477,#478,#479,
#480,#481,#482,#483,#484));
#486=STYLED_ITEM('',(#487),#494);
#487=PRESENTATION_STYLE_ASSIGNMENT((#488));
#488=SURFACE_STYLE_USAGE(.BOTH.,#489);
#489=SURFACE_SIDE_STYLE('',(#490));
#490=SURFACE_STYLE_FILL_AREA(#491);
#491=FILL_AREA_STYLE('',(#492));
#492=FILL_AREA_STYLE_COLOUR('',#493);
#493=COLOUR_RGB('',0.615686274509804,0.811764705882353,0.929411764705882);
#494=MANIFOLD_SOLID_BREP('MotorHolder-XAxis',#485);
#495=SHAPE_DEFINITION_REPRESENTATION(#853,#496);
#496=SHAPE_REPRESENTATION('MotorHolder-XAxis',(#497),#848);
#497=AXIS2_PLACEMENT_3D('',#715,#562,#563);
#498=AXIS2_PLACEMENT_3D('',#716,#564,#565);
#499=AXIS2_PLACEMENT_3D('',#717,#566,#567);
#500=AXIS2_PLACEMENT_3D('',#719,#568,#569);
#501=AXIS2_PLACEMENT_3D('',#721,#570,#571);
#502=AXIS2_PLACEMENT_3D('',#722,#572,#573);
#503=AXIS2_PLACEMENT_3D('',#724,#574,#575);
#504=AXIS2_PLACEMENT_3D('',#726,#576,#577);
#505=AXIS2_PLACEMENT_3D('',#727,#578,#579);
#506=AXIS2_PLACEMENT_3D('',#729,#580,#581);
#507=AXIS2_PLACEMENT_3D('',#731,#582,#583);
#508=AXIS2_PLACEMENT_3D('',#732,#584,#585);
#509=AXIS2_PLACEMENT_3D('',#734,#586,#587);
#510=AXIS2_PLACEMENT_3D('',#736,#588,#589);
#511=AXIS2_PLACEMENT_3D('',#740,#591,#592);
#512=AXIS2_PLACEMENT_3D('',#742,#593,#594);
#513=AXIS2_PLACEMENT_3D('',#751,#599,#600);
#514=AXIS2_PLACEMENT_3D('',#752,#601,#602);
#515=AXIS2_PLACEMENT_3D('',#754,#603,#604);
#516=AXIS2_PLACEMENT_3D('',#756,#605,#606);
#517=AXIS2_PLACEMENT_3D('',#757,#607,#608);
#518=AXIS2_PLACEMENT_3D('',#759,#609,#610);
#519=AXIS2_PLACEMENT_3D('',#761,#611,#612);
#520=AXIS2_PLACEMENT_3D('',#762,#613,#614);
#521=AXIS2_PLACEMENT_3D('',#769,#618,#619);
#522=AXIS2_PLACEMENT_3D('',#770,#620,#621);
#523=AXIS2_PLACEMENT_3D('',#772,#622,#623);
#524=AXIS2_PLACEMENT_3D('',#774,#624,#625);
#525=AXIS2_PLACEMENT_3D('',#776,#626,#627);
#526=AXIS2_PLACEMENT_3D('',#778,#628,#629);
#527=AXIS2_PLACEMENT_3D('',#783,#631,#632);
#528=AXIS2_PLACEMENT_3D('',#787,#634,#635);
#529=AXIS2_PLACEMENT_3D('',#791,#637,#638);
#530=AXIS2_PLACEMENT_3D('',#792,#639,#640);
#531=AXIS2_PLACEMENT_3D('',#793,#641,#642);
#532=AXIS2_PLACEMENT_3D('',#799,#646,#647);
#533=AXIS2_PLACEMENT_3D('',#800,#648,#649);
#534=AXIS2_PLACEMENT_3D('',#801,#650,#651);
#535=AXIS2_PLACEMENT_3D('',#803,#652,#653);
#536=AXIS2_PLACEMENT_3D('',#809,#657,#658);
#537=AXIS2_PLACEMENT_3D('',#815,#662,#663);
#538=AXIS2_PLACEMENT_3D('',#818,#666,#667);
#539=AXIS2_PLACEMENT_3D('',#819,#668,#669);
#540=AXIS2_PLACEMENT_3D('',#820,#670,#671);
#541=AXIS2_PLACEMENT_3D('',#821,#672,#673);
#542=AXIS2_PLACEMENT_3D('',#822,#674,#675);
#543=AXIS2_PLACEMENT_3D('',#823,#676,#677);
#544=AXIS2_PLACEMENT_3D('',#824,#678,#679);
#545=AXIS2_PLACEMENT_3D('',#825,#680,#681);
#546=AXIS2_PLACEMENT_3D('',#826,#682,#683);
#547=AXIS2_PLACEMENT_3D('',#827,#684,#685);
#548=AXIS2_PLACEMENT_3D('',#828,#686,#687);
#549=AXIS2_PLACEMENT_3D('',#830,#689,#690);
#550=AXIS2_PLACEMENT_3D('',#831,#691,#692);
#551=AXIS2_PLACEMENT_3D('',#832,#693,#694);
#552=AXIS2_PLACEMENT_3D('',#834,#695,#696);
#553=AXIS2_PLACEMENT_3D('',#835,#697,#698);
#554=AXIS2_PLACEMENT_3D('',#836,#699,#700);
#555=AXIS2_PLACEMENT_3D('',#838,#701,#702);
#556=AXIS2_PLACEMENT_3D('',#839,#703,#704);
#557=AXIS2_PLACEMENT_3D('',#840,#705,#706);
#558=AXIS2_PLACEMENT_3D('',#842,#707,#708);
#559=AXIS2_PLACEMENT_3D('',#843,#709,#710);
#560=AXIS2_PLACEMENT_3D('',#844,#711,#712);
#561=AXIS2_PLACEMENT_3D('',#846,#713,#714);
#562=DIRECTION('',(0.,0.,1.));
#563=DIRECTION('',(1.,0.,0.));
#564=DIRECTION('',(-5.5955240441636E-14,-1.,5.55111514890211E-14));
#565=DIRECTION('',(-1.,5.5955240441636E-14,0.));
#566=DIRECTION('',(-2.25516106590563E-17,-0.999999999999977,8.82879345209037E-17));
#567=DIRECTION('',(0.,-8.82879345209058E-17,-1.));
#568=DIRECTION('',(-5.5955240441636E-14,-1.,5.55111514890211E-14));
#569=DIRECTION('',(-1.,5.5955240441636E-14,0.));
#570=DIRECTION('',(-5.5955240441636E-14,-1.,5.55111514890211E-14));
#571=DIRECTION('',(-1.,5.5955240441636E-14,0.));
#572=DIRECTION('',(-2.25516106590563E-17,-0.999999999999977,8.82879345209037E-17));
#573=DIRECTION('',(0.,-8.82879345209058E-17,-1.));
#574=DIRECTION('',(-5.5955240441636E-14,-1.,5.55111514890211E-14));
#575=DIRECTION('',(-1.,5.5955240441636E-14,0.));
#576=DIRECTION('',(-5.5955240441636E-14,-1.,5.55111514890211E-14));
#577=DIRECTION('',(-1.,5.5955240441636E-14,0.));
#578=DIRECTION('',(-2.25516106590563E-17,-0.999999999999977,8.82879345209037E-17));
#579=DIRECTION('',(0.,-8.82879345209058E-17,-1.));
#580=DIRECTION('',(-5.5955240441636E-14,-1.,5.55111514890211E-14));
#581=DIRECTION('',(-1.,5.5955240441636E-14,0.));
#582=DIRECTION('',(-5.5955240441636E-14,-1.,5.55111514890211E-14));
#583=DIRECTION('',(-1.,5.5955240441636E-14,0.));
#584=DIRECTION('',(-2.25516106590563E-17,-0.999999999999977,8.82879345209037E-17));
#585=DIRECTION('',(0.,-8.82879345209058E-17,-1.));
#586=DIRECTION('',(-5.5955240441636E-14,-1.,5.55111514890211E-14));
#587=DIRECTION('',(-1.,5.5955240441636E-14,0.));
#588=DIRECTION('',(3.03576608299048E-16,5.55111514890211E-14,1.));
#589=DIRECTION('',(0.,-1.,5.55111514890211E-14));
#590=DIRECTION('',(1.,-2.25516106590569E-17,-3.03576608299046E-16));
#591=DIRECTION('',(3.03576608299048E-16,5.55111514890211E-14,1.));
#592=DIRECTION('',(0.,-1.,5.55111514890211E-14));
#593=DIRECTION('',(3.03576608299048E-16,5.55111514890211E-14,1.));
#594=DIRECTION('',(0.,-1.,5.55111514890211E-14));
#595=DIRECTION('',(1.,-2.25516106590569E-17,-3.03576608299046E-16));
#596=DIRECTION('',(-5.5955240441636E-14,-1.,5.55111514890211E-14));
#597=DIRECTION('',(-1.,5.59552404416361E-14,3.03576608295942E-16));
#598=DIRECTION('',(-5.5955240441636E-14,-1.,5.55111514890211E-14));
#599=DIRECTION('',(-5.5955240441636E-14,-1.,5.55111514890211E-14));
#600=DIRECTION('',(-1.,5.5955240441636E-14,0.));
#601=DIRECTION('',(5.5955240441636E-14,1.,-5.55111514890211E-14));
#602=DIRECTION('',(1.,-5.5955240441636E-14,0.));
#603=DIRECTION('',(2.25516106590568E-17,1.,-8.82879345209058E-17));
#604=DIRECTION('',(0.,8.82879345209058E-17,1.));
#605=DIRECTION('',(-5.5955240441636E-14,-1.,5.55111514890211E-14));
#606=DIRECTION('',(-1.,5.5955240441636E-14,0.));
#607=DIRECTION('',(5.5955240441636E-14,1.,-5.55111514890211E-14));
#608=DIRECTION('',(1.,-5.5955240441636E-14,0.));
#609=DIRECTION('',(2.25516106590568E-17,1.,-8.82879345209058E-17));
#610=DIRECTION('',(0.,8.82879345209058E-17,1.));
#611=DIRECTION('',(-2.25516106590563E-17,-0.999999999999977,8.82879345209037E-17));
#612=DIRECTION('',(-1.00000000000001,-5.59802319306132E-14,-8.47081879685918E-14));
#613=DIRECTION('',(-2.25516106590563E-17,-0.999999999999977,8.82879345209037E-17));
#614=DIRECTION('',(0.,-8.82879345209058E-17,-1.));
#615=DIRECTION('',(-1.98254111540206E-16,-8.82879345209058E-17,-1.));
#616=DIRECTION('',(1.,-2.25516106590568E-17,-2.77555756159394E-16));
#617=DIRECTION('',(-3.10119965615605E-27,8.82879345209058E-17,1.));
#618=DIRECTION('',(5.5955240441636E-14,1.,-5.55111514890211E-14));
#619=DIRECTION('',(1.,-5.5955240441636E-14,3.10613982876026E-27));
#620=DIRECTION('',(-5.5955240441636E-14,-1.,5.55111514890211E-14));
#621=DIRECTION('',(-1.,5.5955240441636E-14,0.));
#622=DIRECTION('',(-5.5955240441636E-14,-1.,5.55111514890211E-14));
#623=DIRECTION('',(-1.,5.5955240441636E-14,0.));
#624=DIRECTION('',(-5.5955240441636E-14,-1.,5.55111514890211E-14));
#625=DIRECTION('',(-1.,5.5955240441636E-14,0.));
#626=DIRECTION('',(-5.5955240441636E-14,-1.,5.55111514890211E-14));
#627=DIRECTION('',(-1.,5.5955240441636E-14,0.));
#628=DIRECTION('',(5.5955240441636E-14,1.,-5.55111514890211E-14));
#629=DIRECTION('',(1.,-5.5955240441636E-14,0.));
#630=DIRECTION('',(-7.06254426026374E-43,-5.55111514890211E-14,-1.));
#631=DIRECTION('',(5.5955240441636E-14,1.,-5.55111514890211E-14));
#632=DIRECTION('',(1.,-5.5955240441636E-14,0.));
#633=DIRECTION('',(-1.,5.59552404416361E-14,2.77555756156289E-16));
#634=DIRECTION('',(5.5955240441636E-14,1.,-5.55111514890211E-14));
#635=DIRECTION('',(1.,-5.5955240441636E-14,0.));
#636=DIRECTION('',(-1.23908819712629E-16,-5.55111514890211E-14,-1.));
#637=DIRECTION('',(5.5955240441636E-14,1.,-5.55111514890211E-14));
#638=DIRECTION('',(1.,-5.5955240441636E-14,0.));
#639=DIRECTION('',(5.5955240441636E-14,1.,-5.55111514890211E-14));
#640=DIRECTION('',(1.,-5.5955240441636E-14,0.));
#641=DIRECTION('',(-1.,5.5955240441636E-14,-3.10613982876026E-27));
#642=DIRECTION('',(5.5955240441636E-14,1.,0.));
#643=DIRECTION('',(-3.10119965615605E-27,8.82879345209058E-17,1.));
#644=DIRECTION('',(-5.5955240441636E-14,-1.,5.55111514890211E-14));
#645=DIRECTION('',(-5.5955240441636E-14,-1.,5.55111514890211E-14));
#646=DIRECTION('',(-5.5955240441636E-14,-1.,5.55111514890211E-14));
#647=DIRECTION('',(-1.,5.5955240441636E-14,0.));
#648=DIRECTION('',(2.77555756159396E-16,5.55111514890211E-14,1.));
#649=DIRECTION('',(0.,-1.,5.55111514890211E-14));
#650=DIRECTION('',(2.77555756159396E-16,5.55111514890211E-14,1.));
#651=DIRECTION('',(0.,-1.,5.55111514890211E-14));
#652=DIRECTION('',(2.77555756159396E-16,5.55111514890211E-14,1.));
#653=DIRECTION('',(0.,-1.,5.55111514890211E-14));
#654=DIRECTION('',(1.,-2.25516106590568E-17,-2.77555756159394E-16));
#655=DIRECTION('',(-5.5955240441636E-14,-1.,5.55111514890211E-14));
#656=DIRECTION('',(-5.5955240441636E-14,-1.,5.55111514890211E-14));
#657=DIRECTION('',(-1.,5.59552404416361E-14,1.23908819709523E-16));
#658=DIRECTION('',(5.59552404416361E-14,1.,0.));
#659=DIRECTION('',(-5.5955240441636E-14,-1.,5.55111514890211E-14));
#660=DIRECTION('',(1.23908819709528E-16,8.82879345209058E-17,1.));
#661=DIRECTION('',(-5.5955240441636E-14,-1.,5.55111514890211E-14));
#662=DIRECTION('',(2.25516106590568E-17,1.,-8.82879345209058E-17));
#663=DIRECTION('',(1.,-2.25516106590568E-17,1.99103512520777E-33));
#664=DIRECTION('',(-1.98254111540206E-16,-8.82879345209058E-17,-1.));
#665=DIRECTION('',(1.23908819709528E-16,8.82879345209058E-17,1.));
#666=DIRECTION('',(-5.5955240441636E-14,-1.,5.55111514890211E-14));
#667=DIRECTION('',(-1.,5.5955240441636E-14,0.));
#668=DIRECTION('',(-3.96539467258711E-14,-0.707106781186567,-0.707106781186528));
#669=DIRECTION('',(-3.9478713192538E-14,-0.707106781186528,0.707106781186567));
#670=DIRECTION('',(5.5955240441636E-14,1.,-5.55111514890211E-14));
#671=DIRECTION('',(1.,-5.5955240441636E-14,0.));
#672=DIRECTION('',(3.9478713192538E-14,0.707106781186528,-0.707106781186567));
#673=DIRECTION('',(3.96539467258711E-14,0.707106781186567,0.707106781186528));
#674=DIRECTION('',(-1.23908819709528E-16,-8.82879345209058E-17,-1.));
#675=DIRECTION('',(-1.,0.,1.23908819709528E-16));
#676=DIRECTION('',(5.5955240441636E-14,1.,-5.55111514890211E-14));
#677=DIRECTION('',(1.,-5.5955240441636E-14,0.));
#678=DIRECTION('',(3.95663299592035E-14,0.707106781186567,0.707106781186528));
#679=DIRECTION('',(3.95663299592057E-14,0.707106781186528,-0.707106781186567));
#680=DIRECTION('',(-5.5955240441636E-14,-1.,5.55111514890211E-14));
#681=DIRECTION('',(-1.,5.5955240441636E-14,0.));
#682=DIRECTION('',(-3.95663299592057E-14,-0.707106781186528,0.707106781186567));
#683=DIRECTION('',(-3.95663299592035E-14,-0.707106781186567,-0.707106781186528));
#684=DIRECTION('',(3.10119965615605E-27,-8.82879345209058E-17,-1.));
#685=DIRECTION('',(0.,1.,-8.82879345209058E-17));
#686=DIRECTION('',(1.98254111540206E-16,8.82879345209058E-17,1.));
#687=DIRECTION('',(1.,0.,-1.98254111540206E-16));
#688=DIRECTION('',(-1.98254111540206E-16,-8.82879345209058E-17,-1.));
#689=DIRECTION('',(1.98254111540206E-16,8.82879345209058E-17,1.));
#690=DIRECTION('',(1.,0.,-1.98254111540206E-16));
#691=DIRECTION('',(-5.5955240441636E-14,-1.,5.55111514890211E-14));
#692=DIRECTION('',(-1.,5.5955240441636E-14,0.));
#693=DIRECTION('',(-5.5955240441636E-14,-1.,5.55111514890211E-14));
#694=DIRECTION('',(-1.,5.5955240441636E-14,0.));
#695=DIRECTION('',(-5.5955240441636E-14,-1.,5.55111514890211E-14));
#696=DIRECTION('',(1.,-5.5955240441636E-14,3.10613982876026E-27));
#697=DIRECTION('',(-5.5955240441636E-14,-1.,5.55111514890211E-14));
#698=DIRECTION('',(-1.,5.5955240441636E-14,0.));
#699=DIRECTION('',(-5.5955240441636E-14,-1.,5.55111514890211E-14));
#700=DIRECTION('',(-1.,5.5955240441636E-14,0.));
#701=DIRECTION('',(-5.5955240441636E-14,-1.,5.55111514890211E-14));
#702=DIRECTION('',(1.,-5.5955240441636E-14,3.10613982876026E-27));
#703=DIRECTION('',(-5.5955240441636E-14,-1.,5.55111514890211E-14));
#704=DIRECTION('',(-1.,5.5955240441636E-14,0.));
#705=DIRECTION('',(-5.5955240441636E-14,-1.,5.55111514890211E-14));
#706=DIRECTION('',(-1.,5.5955240441636E-14,0.));
#707=DIRECTION('',(-5.5955240441636E-14,-1.,5.55111514890211E-14));
#708=DIRECTION('',(1.,-5.5955240441636E-14,3.10613982876026E-27));
#709=DIRECTION('',(-5.5955240441636E-14,-1.,5.55111514890211E-14));
#710=DIRECTION('',(-1.,5.5955240441636E-14,0.));
#711=DIRECTION('',(-5.5955240441636E-14,-1.,5.55111514890211E-14));
#712=DIRECTION('',(-1.,5.5955240441636E-14,0.));
#713=DIRECTION('',(-5.5955240441636E-14,-1.,5.55111514890211E-14));
#714=DIRECTION('',(1.,-5.5955240441636E-14,3.10613982876026E-27));
#715=CARTESIAN_POINT('',(0.,0.,0.));
#716=CARTESIAN_POINT('',(-0.0792535891828145,0.0276996835093412,-0.0222665107355889));
#717=CARTESIAN_POINT('',(-0.0792535891828145,0.0276976835093395,-0.0222665107355889));
#718=CARTESIAN_POINT('',(-0.0792535891828145,0.0276976835093395,-0.0239665107355889));
#719=CARTESIAN_POINT('',(-0.0792535891828153,0.0140000000000055,-0.0222665107355882));
#720=CARTESIAN_POINT('',(-0.0809535891828153,0.0140000000000056,-0.0222665107355882));
#721=CARTESIAN_POINT('',(-0.0792535891828136,0.0276996835093395,-0.0532665107355898));
#722=CARTESIAN_POINT('',(-0.0792535891828136,0.0276976835093395,-0.0532665107355898));
#723=CARTESIAN_POINT('',(-0.0792535891828136,0.0276976835093395,-0.0549665107355898));
#724=CARTESIAN_POINT('',(-0.0792535891828144,0.0140000000000037,-0.053266510735589));
#725=CARTESIAN_POINT('',(-0.0809535891828144,0.0140000000000038,-0.053266510735589));
#726=CARTESIAN_POINT('',(-0.0482535891828127,0.0276996835093378,-0.0532665107355871));
#727=CARTESIAN_POINT('',(-0.0482535891828127,0.0276976835093395,-0.0532665107355871));
#728=CARTESIAN_POINT('',(-0.0482535891828127,0.0276976835093395,-0.0549665107355871));
#729=CARTESIAN_POINT('',(-0.0482535891828135,0.014000000000002,-0.0532665107355864));
#730=CARTESIAN_POINT('',(-0.0499535891828135,0.0140000000000021,-0.0532665107355864));
#731=CARTESIAN_POINT('',(-0.0482535891828136,0.0276996835093395,-0.0222665107355863));
#732=CARTESIAN_POINT('',(-0.0482535891828136,0.0276976835093395,-0.0222665107355863));
#733=CARTESIAN_POINT('',(-0.0482535891828136,0.0276976835093395,-0.0239665107355863));
#734=CARTESIAN_POINT('',(-0.0482535891828144,0.0140000000000037,-0.0222665107355856));
#735=CARTESIAN_POINT('',(-0.0499535891828144,0.0140000000000038,-0.0222665107355856));
#736=CARTESIAN_POINT('',(-0.0398986199999959,0.0276996835093406,0.00699999999999644));
#737=CARTESIAN_POINT('',(-0.0398986199999959,0.0176976835093395,0.00699999999999644));
#738=CARTESIAN_POINT('',(-0.0148986199999959,0.0176976835093395,0.00699999999999643));
#739=CARTESIAN_POINT('',(0.00810138000000357,0.0176976835093395,0.00699999999999642));
#740=CARTESIAN_POINT('',(-0.0148986199999959,0.0226976835093409,0.00699999999999671));
#741=CARTESIAN_POINT('',(-0.0198986199999959,0.0226976835093397,0.00699999999999643));
#742=CARTESIAN_POINT('',(-0.0248986199999959,0.0226976835093397,0.00699999999999671));
#743=CARTESIAN_POINT('',(-0.0248986199999959,0.0276976835093395,0.00699999999999643));
#744=CARTESIAN_POINT('',(-0.0398986199999959,0.0276976835093395,0.00699999999999644));
#745=CARTESIAN_POINT('',(-0.0878986199999959,0.0276976835093395,0.00699999999999645));
#746=CARTESIAN_POINT('',(-0.0878986199999959,0.0276996835093433,0.00699999999999645));
#747=CARTESIAN_POINT('',(-0.0878986199999974,7.5659501335524E-15,0.00699999999999799));
#748=CARTESIAN_POINT('',(-0.0398986199999974,4.88009859235387E-15,0.00699999999999798));
#749=CARTESIAN_POINT('',(0.00810138000000257,2.19424705115534E-15,0.00699999999999796));
#750=CARTESIAN_POINT('',(0.00810138000000356,0.0176976835093396,0.00699999999999698));
#751=CARTESIAN_POINT('',(1.54994245092211E-15,0.0276996835093381,-1.53790462654662E-15));
#752=CARTESIAN_POINT('',(0.,2.25898365654151E-15,-2.6329906194208E-19));
#753=CARTESIAN_POINT('',(0.0043,2.01837612264248E-15,-2.6329906194208E-19));
#754=CARTESIAN_POINT('',(9.90278136025018E-16,0.0176976835093408,-9.82682089353588E-16));
#755=CARTESIAN_POINT('',(9.90278136025018E-16,0.0176976835093408,0.00429999999999902));
#756=CARTESIAN_POINT('',(-7.19075855655559E-16,0.0276996835093358,-0.0400000000000015));
#757=CARTESIAN_POINT('',(-2.26901830657767E-15,3.85375969807947E-17,-0.04));
#758=CARTESIAN_POINT('',(0.00429999999999773,-2.0206993691824E-16,-0.04));
#759=CARTESIAN_POINT('',(-1.27874017055252E-15,0.0176976835093408,-0.0400000000000009));
#760=CARTESIAN_POINT('',(-1.27874017055252E-15,0.0176976835093408,-0.0357000000000009));
#761=CARTESIAN_POINT('',(-0.0637535891828152,0.0276976835093395,-0.0377665107355865));
#762=CARTESIAN_POINT('',(-0.0637535891828136,0.0276976835093395,-0.0377665107355881));
#763=CARTESIAN_POINT('',(-0.0637535891828136,0.0276976835093395,-0.0552665107355881));
#764=CARTESIAN_POINT('',(-0.0248986199999959,0.0276976835093395,-0.0630000000000036));
#765=CARTESIAN_POINT('',(-0.0248986199999959,0.0276976835093395,-0.0630000000000036));
#766=CARTESIAN_POINT('',(-0.0398986199999959,0.0276976835093395,-0.0630000000000036));
#767=CARTESIAN_POINT('',(-0.0878986199999959,0.0276976835093395,-0.0630000000000036));
#768=CARTESIAN_POINT('',(-0.087898619999996,0.0276976835093395,0.00699999999999645));
#769=CARTESIAN_POINT('',(-0.0398986199999974,2.93720829023813E-15,-0.0280000000000021));
#770=CARTESIAN_POINT('',(-0.0482535891828151,3.72298519086289E-15,-0.0222665107355848));
#771=CARTESIAN_POINT('',(-0.0520035891828151,3.93281734251903E-15,-0.0222665107355848));
#772=CARTESIAN_POINT('',(-0.0482535891828142,2.00213949470314E-15,-0.0532665107355856));
#773=CARTESIAN_POINT('',(-0.0520035891828142,2.21197164635928E-15,-0.0532665107355856));
#774=CARTESIAN_POINT('',(-0.0792535891828152,3.73675194839377E-15,-0.0532665107355882));
#775=CARTESIAN_POINT('',(-0.0830035891828152,3.94658410004991E-15,-0.0532665107355882));
#776=CARTESIAN_POINT('',(-0.0792535891828161,5.45759764455352E-15,-0.0222665107355874));
#777=CARTESIAN_POINT('',(-0.0830035891828161,5.66742979620966E-15,-0.0222665107355874));
#778=CARTESIAN_POINT('',(-0.0637535891828152,3.72986856962833E-15,-0.0377665107355865));
#779=CARTESIAN_POINT('',(-0.0462535891828152,2.7506518618997E-15,-0.0377665107355865));
#780=CARTESIAN_POINT('',(-0.0898986199999974,5.73497031231993E-15,-0.028000000000002));
#781=CARTESIAN_POINT('',(-0.0898986199999974,7.56683831145763E-15,0.00499999999999799));
#782=CARTESIAN_POINT('',(-0.0898986199999974,3.90310231318224E-15,-0.061000000000002));
#783=CARTESIAN_POINT('',(-0.0878986199999974,3.7921055184853E-15,-0.061000000000002));
#784=CARTESIAN_POINT('',(-0.0878986199999974,3.68016952932092E-15,-0.063000000000002));
#785=CARTESIAN_POINT('',(-0.0398986199999974,9.94317988122388E-16,-0.063000000000002));
#786=CARTESIAN_POINT('',(0.00810138000000257,-1.69153355307614E-15,-0.063000000000002));
#787=CARTESIAN_POINT('',(0.00810138000000256,-1.5785983631389E-15,-0.061000000000002));
#788=CARTESIAN_POINT('',(0.0101013800000026,-1.69242173098137E-15,-0.061000000000002));
#789=CARTESIAN_POINT('',(0.0101013800000026,1.39446268156325E-16,-0.0280000000000021));
#790=CARTESIAN_POINT('',(0.0101013800000026,1.97131426729402E-15,0.00499999999999796));
#791=CARTESIAN_POINT('',(0.00810138000000257,2.08513761812412E-15,0.00499999999999796));
#792=CARTESIAN_POINT('',(-0.0878986199999974,7.45584149974832E-15,0.00499999999999799));
#793=CARTESIAN_POINT('',(-0.0898986199999959,0.0276996835093415,-0.0280000000000035));
#794=CARTESIAN_POINT('',(-0.089898619999996,0.0256976835093396,-0.0630000000000036));
#795=CARTESIAN_POINT('',(-0.089898619999996,0.0256976835093397,0.00499999999999656));
#796=CARTESIAN_POINT('',(-0.089898619999996,0.0256976835093396,-0.0610000000000034));
#797=CARTESIAN_POINT('',(-0.0898986199999974,3.90401599936857E-15,-0.061000000000002));
#798=CARTESIAN_POINT('',(-0.0898986199999959,0.0276996835093433,0.00499999999999645));
#799=CARTESIAN_POINT('',(-0.0637535891828136,0.0276996835093395,-0.0377665107355881));
#800=CARTESIAN_POINT('',(-0.0398986199999959,0.0276996835093368,-0.0630000000000036));
#801=CARTESIAN_POINT('',(-0.0248986199999959,0.0226976835093397,-0.0630000000000033));
#802=CARTESIAN_POINT('',(-0.0198986199999959,0.0226976835093397,-0.0630000000000036));
#803=CARTESIAN_POINT('',(-0.0148986199999959,0.0226976835093409,-0.0630000000000033));
#804=CARTESIAN_POINT('',(-0.0148986199999959,0.0176976835093395,-0.0630000000000036));
#805=CARTESIAN_POINT('',(-0.0398986199999959,0.0176976835093395,-0.0630000000000036));
#806=CARTESIAN_POINT('',(0.00810138000000355,0.0176976835093395,-0.0630000000000036));
#807=CARTESIAN_POINT('',(0.00810138000000411,0.0276996835093341,-0.0630000000000036));
#808=CARTESIAN_POINT('',(-0.0878986199999959,0.0276976835093394,-0.0630000000000036));
#809=CARTESIAN_POINT('',(0.0101013800000041,0.0276996835093359,-0.0280000000000036));
#810=CARTESIAN_POINT('',(0.0101013800000041,0.0276996835093341,-0.0610000000000036));
#811=CARTESIAN_POINT('',(0.0101013800000034,0.0156976835093408,-0.0610000000000029));
#812=CARTESIAN_POINT('',(0.0101013800000034,0.0156976835093408,0.00699999999999642));
#813=CARTESIAN_POINT('',(0.0101013800000034,0.0156976835093408,0.00499999999999709));
#814=CARTESIAN_POINT('',(0.0101013800000026,1.96975769028889E-15,0.00499999999999796));
#815=CARTESIAN_POINT('',(-0.0398986199999959,0.0176976835093408,-0.0280000000000035));
#816=CARTESIAN_POINT('',(-0.0148986199999959,0.0176976835093408,0.00699999999999643));
#817=CARTESIAN_POINT('',(0.00810138000000345,0.0176976835093408,-0.0630000000000036));
#818=CARTESIAN_POINT('',(0.00810138000000411,0.0276996835093342,-0.0610000000000036));
#819=CARTESIAN_POINT('',(0.00810138000000344,0.0156976835093409,-0.0610000000000029));
#820=CARTESIAN_POINT('',(0.00810138000000412,0.0276996835093378,0.00499999999999642));
#821=CARTESIAN_POINT('',(0.00810138000000345,0.0156976835093409,0.00499999999999709));
#822=CARTESIAN_POINT('',(0.00810138000000345,0.0156976835093409,-0.0280000000000036));
#823=CARTESIAN_POINT('',(-0.0878986199999959,0.0276996835093396,-0.0610000000000036));
#824=CARTESIAN_POINT('',(-0.087898619999996,0.0256976835093395,-0.0610000000000034));
#825=CARTESIAN_POINT('',(-0.0878986199999959,0.0276996835093432,0.00499999999999645));
#826=CARTESIAN_POINT('',(-0.087898619999996,0.0256976835093395,0.00499999999999656));
#827=CARTESIAN_POINT('',(-0.087898619999996,0.0256976835093395,-0.0377665107355865));
#828=CARTESIAN_POINT('',(-0.0148986199999959,0.0226976835093409,-0.0280000000000036));
#829=CARTESIAN_POINT('',(-0.0198986199999959,0.0226976835093409,-0.0630000000000036));
#830=CARTESIAN_POINT('',(-0.0248986199999959,0.0226976835093397,-0.0377665107355865));
#831=CARTESIAN_POINT('',(-0.0792535891828153,0.0140000000000055,-0.0222665107355882));
#832=CARTESIAN_POINT('',(-0.0792535891828153,0.0140000000000055,-0.0222665107355882));
#833=CARTESIAN_POINT('',(-0.0830035891828153,0.0140000000000057,-0.0222665107355882));
#834=CARTESIAN_POINT('',(-0.0398986199999967,0.0140000000000029,-0.0280000000000028));
#835=CARTESIAN_POINT('',(-0.0792535891828144,0.0140000000000037,-0.053266510735589));
#836=CARTESIAN_POINT('',(-0.0792535891828144,0.0140000000000037,-0.053266510735589));
#837=CARTESIAN_POINT('',(-0.0830035891828144,0.014000000000004,-0.053266510735589));
#838=CARTESIAN_POINT('',(-0.0398986199999967,0.0140000000000029,-0.0280000000000028));
#839=CARTESIAN_POINT('',(-0.0482535891828135,0.014000000000002,-0.0532665107355864));
#840=CARTESIAN_POINT('',(-0.0482535891828135,0.014000000000002,-0.0532665107355864));
#841=CARTESIAN_POINT('',(-0.0520035891828135,0.0140000000000022,-0.0532665107355864));
#842=CARTESIAN_POINT('',(-0.0398986199999967,0.0140000000000029,-0.0280000000000028));
#843=CARTESIAN_POINT('',(-0.0482535891828144,0.0140000000000037,-0.0222665107355856));
#844=CARTESIAN_POINT('',(-0.0482535891828144,0.0140000000000037,-0.0222665107355856));
#845=CARTESIAN_POINT('',(-0.0520035891828144,0.0140000000000039,-0.0222665107355856));
#846=CARTESIAN_POINT('',(-0.0398986199999967,0.0140000000000029,-0.0280000000000028));
#847=MECHANICAL_DESIGN_GEOMETRIC_PRESENTATION_REPRESENTATION('',(#486),
#848);
#848=(
GEOMETRIC_REPRESENTATION_CONTEXT(3)
GLOBAL_UNCERTAINTY_ASSIGNED_CONTEXT((#849))
GLOBAL_UNIT_ASSIGNED_CONTEXT((#852,#851,#850))
REPRESENTATION_CONTEXT('MotorHolder-XAxis','TOP_LEVEL_ASSEMBLY_PART')
);
#849=UNCERTAINTY_MEASURE_WITH_UNIT(LENGTH_MEASURE(1.E-8),#852,
'DISTANCE_ACCURACY_VALUE','Maximum Tolerance applied to model');
#850=(
NAMED_UNIT(*)
SI_UNIT($,.STERADIAN.)
SOLID_ANGLE_UNIT()
);
#851=(
NAMED_UNIT(*)
PLANE_ANGLE_UNIT()
SI_UNIT($,.RADIAN.)
);
#852=(
LENGTH_UNIT()
NAMED_UNIT(*)
SI_UNIT($,.METRE.)
);
#853=PRODUCT_DEFINITION_SHAPE('','',#854);
#854=PRODUCT_DEFINITION('','',#856,#855);
#855=PRODUCT_DEFINITION_CONTEXT('',#862,'design');
#856=PRODUCT_DEFINITION_FORMATION_WITH_SPECIFIED_SOURCE('','',#858,
 .NOT_KNOWN.);
#857=PRODUCT_RELATED_PRODUCT_CATEGORY('','',(#858));
#858=PRODUCT('MotorHolder-XAxis','MotorHolder-XAxis',
'MotorHolder-XAxis',(#860));
#859=PRODUCT_CATEGORY('','');
#860=PRODUCT_CONTEXT('',#862,'mechanical');
#861=APPLICATION_PROTOCOL_DEFINITION('international standard',
'ap242_managed_model_based_3d_engineering',2020,#862);
#862=APPLICATION_CONTEXT('managed model based 3d engineering');
ENDSEC;
END-ISO-10303-21;
