ISO-10303-21;
HEADER;
/* Generated by software containing ST-Developer
 * from STEP Tools, Inc. (www.steptools.com) 
 */
/* OPTION: using custom renumber hook */

FILE_DESCRIPTION(
/* description */ ('STEP AP242 Edition 2',
'CAx-IF Rec.Pracs.---Representation and Presentation of Product Manufa
cturing Information (PMI)---4.0---2014-10-13',
'CAx-IF Rec.Pracs.---3D Tessellated Geometry---0.4---2014-09-14','2;1',
'CAx-IF Rec.Pracs.---User Defined Attributes---1.5---2016-08-15'),
/* implementation_level */ '2;1');

FILE_NAME(
/* name */ 'Router - GantryLower-Right',
/* time_stamp */ '2026-08-01T11:31:43Z',
/* author */ (''),
/* organization */ (''),
/* preprocessor_version */ 'ST-DEVELOPER v20',
/* originating_system */ 'ONSHAPE BY PTC INC, 1.218',
/* authorisation */ '  ');

FILE_SCHEMA (('AP242_MANAGED_MODEL_BASED_3D_ENGINEERING_MIM_LF { 1 0 10303 442 3 1 4 }'));
ENDSEC;

DATA;
#10=SHAPE_REPRESENTATION_RELATIONSHIP('','',#1027,#11);
#11=ADVANCED_BREP_SHAPE_REPRESENTATION('',(#1025),#1786);
#12=SPHERICAL_SURFACE('',#1150,0.002);
#13=ELLIPSE('',#1114,0.00221063970020177,0.002);
#14=ELLIPSE('',#1115,0.00200853030585077,0.002);
#15=ELLIPSE('',#1142,0.00373331988745816,0.002);
#16=ELLIPSE('',#1144,0.00296836780699437,0.002);
#17=ELLIPSE('',#1153,0.00282842712474619,0.002);
#18=ELLIPSE('',#1155,0.00282842712474619,0.002);
#19=ELLIPSE('',#1157,0.00282842712474619,0.002);
#20=B_SPLINE_CURVE_WITH_KNOTS('',3,(#1546,#1547,#1548,#1549,#1550,#1551,
#1552,#1553,#1554,#1555,#1556),.UNSPECIFIED.,.T.,.F.,(1,1,1,1,1,1,1,1,1,
1,1,1,1,1,1),(-0.00407196686705408,-0.00271464457803601,-0.00135732228901794,
1.32567381895146E-16,0.0013573222890182,0.00271464457803628,0.00407196686705435,
0.00542928915607242,0.00678661144509049,0.00814393373410856,0.00950125602312663,
0.0108585783121447,0.0122159006011628,0.0135732228901808,0.0149305451791989),
 .UNSPECIFIED.);
#21=B_SPLINE_CURVE_WITH_KNOTS('',3,(#1558,#1559,#1560,#1561,#1562,#1563,
#1564,#1565,#1566,#1567,#1568),.UNSPECIFIED.,.T.,.F.,(1,1,1,1,1,1,1,1,1,
1,1,1,1,1,1),(-0.00407196686705517,-0.00271464457803674,-0.0013573222890183,
1.32567381895146E-16,0.00135732228901857,0.002714644578037,0.00407196686705543,
0.00542928915607387,0.0067866114450923,0.00814393373411073,0.00950125602312916,
0.0108585783121476,0.012215900601166,0.0135732228901845,0.0149305451792029),
 .UNSPECIFIED.);
#22=B_SPLINE_CURVE_WITH_KNOTS('',3,(#1575,#1576,#1577,#1578,#1579,#1580,
#1581,#1582,#1583,#1584,#1585),.UNSPECIFIED.,.T.,.F.,(1,1,1,1,1,1,1,1,1,
1,1,1,1,1,1),(-0.0040719668670541,-0.00271464457803602,-0.00135732228901795,
1.32567381895146E-16,0.00135732228901821,0.00271464457803629,0.00407196686705437,
0.00542928915607244,0.00678661144509052,0.0081439337341086,0.00950125602312668,
0.0108585783121448,0.0122159006011628,0.0135732228901809,0.014930545179199),
 .UNSPECIFIED.);
#23=B_SPLINE_CURVE_WITH_KNOTS('',3,(#1587,#1588,#1589,#1590,#1591,#1592,
#1593,#1594,#1595,#1596,#1597),.UNSPECIFIED.,.T.,.F.,(1,1,1,1,1,1,1,1,1,
1,1,1,1,1,1),(-0.00407196686705519,-0.00271464457803675,-0.00135732228901831,
1.32567381895146E-16,0.00135732228901857,0.00271464457803701,0.00407196686705545,
0.00542928915607389,0.00678661144509233,0.00814393373411077,0.00950125602312921,
0.0108585783121477,0.0122159006011661,0.0135732228901845,0.014930545179203),
 .UNSPECIFIED.);
#24=B_SPLINE_CURVE_WITH_KNOTS('',3,(#1765,#1766,#1767,#1768,#1769,#1770,
#1771),.UNSPECIFIED.,.F.,.F.,(4,1,1,1,4),(0.,0.000842888180859536,0.00168577636171907,
0.00252866454257861,0.00337155272343814),.UNSPECIFIED.);
#25=LINE('',#1505,#69);
#26=LINE('',#1508,#70);
#27=LINE('',#1510,#71);
#28=LINE('',#1512,#72);
#29=LINE('',#1514,#73);
#30=LINE('',#1516,#74);
#31=LINE('',#1518,#75);
#32=LINE('',#1521,#76);
#33=LINE('',#1523,#77);
#34=LINE('',#1525,#78);
#35=LINE('',#1527,#79);
#36=LINE('',#1530,#80);
#37=LINE('',#1531,#81);
#38=LINE('',#1533,#82);
#39=LINE('',#1535,#83);
#40=LINE('',#1537,#84);
#41=LINE('',#1607,#85);
#42=LINE('',#1610,#86);
#43=LINE('',#1612,#87);
#44=LINE('',#1614,#88);
#45=LINE('',#1631,#89);
#46=LINE('',#1633,#90);
#47=LINE('',#1635,#91);
#48=LINE('',#1639,#92);
#49=LINE('',#1643,#93);
#50=LINE('',#1647,#94);
#51=LINE('',#1649,#95);
#52=LINE('',#1661,#96);
#53=LINE('',#1664,#97);
#54=LINE('',#1666,#98);
#55=LINE('',#1668,#99);
#56=LINE('',#1670,#100);
#57=LINE('',#1677,#101);
#58=LINE('',#1678,#102);
#59=LINE('',#1680,#103);
#60=LINE('',#1685,#104);
#61=LINE('',#1687,#105);
#62=LINE('',#1690,#106);
#63=LINE('',#1711,#107);
#64=LINE('',#1715,#108);
#65=LINE('',#1717,#109);
#66=LINE('',#1731,#110);
#67=LINE('',#1733,#111);
#68=LINE('',#1735,#112);
#69=VECTOR('',#1207,1.);
#70=VECTOR('',#1208,1.);
#71=VECTOR('',#1209,1.);
#72=VECTOR('',#1210,1.);
#73=VECTOR('',#1211,1.);
#74=VECTOR('',#1212,1.);
#75=VECTOR('',#1215,1.);
#76=VECTOR('',#1216,1.);
#77=VECTOR('',#1217,1.);
#78=VECTOR('',#1218,1.);
#79=VECTOR('',#1221,1.);
#80=VECTOR('',#1222,1.);
#81=VECTOR('',#1223,1.);
#82=VECTOR('',#1226,1.);
#83=VECTOR('',#1227,1.);
#84=VECTOR('',#1228,1.);
#85=VECTOR('',#1255,1.);
#86=VECTOR('',#1256,1.);
#87=VECTOR('',#1257,1.);
#88=VECTOR('',#1258,1.);
#89=VECTOR('',#1279,1.);
#90=VECTOR('',#1280,1.);
#91=VECTOR('',#1281,1.);
#92=VECTOR('',#1286,1.);
#93=VECTOR('',#1289,1.);
#94=VECTOR('',#1292,1.);
#95=VECTOR('',#1293,1.);
#96=VECTOR('',#1306,1.);
#97=VECTOR('',#1309,1.);
#98=VECTOR('',#1310,1.);
#99=VECTOR('',#1313,1.);
#100=VECTOR('',#1314,1.);
#101=VECTOR('',#1323,1.);
#102=VECTOR('',#1324,1.);
#103=VECTOR('',#1327,1.);
#104=VECTOR('',#1334,1.);
#105=VECTOR('',#1335,1.);
#106=VECTOR('',#1340,1.);
#107=VECTOR('',#1371,1.);
#108=VECTOR('',#1374,1.);
#109=VECTOR('',#1375,1.);
#110=VECTOR('',#1390,1.);
#111=VECTOR('',#1391,1.);
#112=VECTOR('',#1392,1.);
#113=PLANE('',#1047);
#114=PLANE('',#1052);
#115=PLANE('',#1053);
#116=PLANE('',#1054);
#117=PLANE('',#1067);
#118=PLANE('',#1077);
#119=PLANE('',#1079);
#120=PLANE('',#1084);
#121=PLANE('',#1089);
#122=PLANE('',#1094);
#123=PLANE('',#1097);
#124=PLANE('',#1098);
#125=PLANE('',#1103);
#126=PLANE('',#1106);
#127=PLANE('',#1109);
#128=PLANE('',#1112);
#129=PLANE('',#1113);
#130=PLANE('',#1116);
#131=PLANE('',#1125);
#132=PLANE('',#1128);
#133=PLANE('',#1131);
#134=PLANE('',#1134);
#135=PLANE('',#1137);
#136=PLANE('',#1140);
#137=ORIENTED_EDGE('',*,*,#373,.T.);
#138=ORIENTED_EDGE('',*,*,#374,.F.);
#139=ORIENTED_EDGE('',*,*,#375,.T.);
#140=ORIENTED_EDGE('',*,*,#376,.F.);
#141=ORIENTED_EDGE('',*,*,#377,.T.);
#142=ORIENTED_EDGE('',*,*,#378,.F.);
#143=ORIENTED_EDGE('',*,*,#379,.T.);
#144=ORIENTED_EDGE('',*,*,#380,.F.);
#145=ORIENTED_EDGE('',*,*,#381,.T.);
#146=ORIENTED_EDGE('',*,*,#382,.F.);
#147=ORIENTED_EDGE('',*,*,#383,.T.);
#148=ORIENTED_EDGE('',*,*,#384,.F.);
#149=ORIENTED_EDGE('',*,*,#385,.T.);
#150=ORIENTED_EDGE('',*,*,#386,.T.);
#151=ORIENTED_EDGE('',*,*,#387,.T.);
#152=ORIENTED_EDGE('',*,*,#388,.T.);
#153=ORIENTED_EDGE('',*,*,#389,.F.);
#154=ORIENTED_EDGE('',*,*,#390,.F.);
#155=ORIENTED_EDGE('',*,*,#391,.F.);
#156=ORIENTED_EDGE('',*,*,#392,.F.);
#157=ORIENTED_EDGE('',*,*,#393,.F.);
#158=ORIENTED_EDGE('',*,*,#394,.F.);
#159=ORIENTED_EDGE('',*,*,#395,.T.);
#160=ORIENTED_EDGE('',*,*,#396,.T.);
#161=ORIENTED_EDGE('',*,*,#397,.F.);
#162=ORIENTED_EDGE('',*,*,#398,.F.);
#163=ORIENTED_EDGE('',*,*,#399,.T.);
#164=ORIENTED_EDGE('',*,*,#400,.F.);
#165=ORIENTED_EDGE('',*,*,#395,.F.);
#166=ORIENTED_EDGE('',*,*,#401,.F.);
#167=ORIENTED_EDGE('',*,*,#397,.T.);
#168=ORIENTED_EDGE('',*,*,#402,.F.);
#169=ORIENTED_EDGE('',*,*,#403,.F.);
#170=ORIENTED_EDGE('',*,*,#404,.F.);
#171=ORIENTED_EDGE('',*,*,#405,.T.);
#172=ORIENTED_EDGE('',*,*,#406,.F.);
#173=ORIENTED_EDGE('',*,*,#407,.T.);
#174=ORIENTED_EDGE('',*,*,#408,.T.);
#175=ORIENTED_EDGE('',*,*,#409,.T.);
#176=ORIENTED_EDGE('',*,*,#410,.F.);
#177=ORIENTED_EDGE('',*,*,#411,.T.);
#178=ORIENTED_EDGE('',*,*,#412,.T.);
#179=ORIENTED_EDGE('',*,*,#413,.T.);
#180=ORIENTED_EDGE('',*,*,#414,.F.);
#181=ORIENTED_EDGE('',*,*,#415,.T.);
#182=ORIENTED_EDGE('',*,*,#416,.F.);
#183=ORIENTED_EDGE('',*,*,#417,.T.);
#184=ORIENTED_EDGE('',*,*,#418,.F.);
#185=ORIENTED_EDGE('',*,*,#419,.F.);
#186=ORIENTED_EDGE('',*,*,#420,.F.);
#187=ORIENTED_EDGE('',*,*,#421,.F.);
#188=ORIENTED_EDGE('',*,*,#422,.F.);
#189=ORIENTED_EDGE('',*,*,#423,.F.);
#190=ORIENTED_EDGE('',*,*,#424,.F.);
#191=ORIENTED_EDGE('',*,*,#425,.F.);
#192=ORIENTED_EDGE('',*,*,#426,.F.);
#193=ORIENTED_EDGE('',*,*,#383,.F.);
#194=ORIENTED_EDGE('',*,*,#381,.F.);
#195=ORIENTED_EDGE('',*,*,#379,.F.);
#196=ORIENTED_EDGE('',*,*,#377,.F.);
#197=ORIENTED_EDGE('',*,*,#375,.F.);
#198=ORIENTED_EDGE('',*,*,#373,.F.);
#199=ORIENTED_EDGE('',*,*,#415,.F.);
#200=ORIENTED_EDGE('',*,*,#405,.F.);
#201=ORIENTED_EDGE('',*,*,#407,.F.);
#202=ORIENTED_EDGE('',*,*,#411,.F.);
#203=ORIENTED_EDGE('',*,*,#402,.T.);
#204=ORIENTED_EDGE('',*,*,#396,.F.);
#205=ORIENTED_EDGE('',*,*,#400,.T.);
#206=ORIENTED_EDGE('',*,*,#427,.T.);
#207=ORIENTED_EDGE('',*,*,#428,.F.);
#208=ORIENTED_EDGE('',*,*,#429,.F.);
#209=ORIENTED_EDGE('',*,*,#430,.F.);
#210=ORIENTED_EDGE('',*,*,#431,.F.);
#211=ORIENTED_EDGE('',*,*,#429,.T.);
#212=ORIENTED_EDGE('',*,*,#432,.F.);
#213=ORIENTED_EDGE('',*,*,#433,.T.);
#214=ORIENTED_EDGE('',*,*,#434,.T.);
#215=ORIENTED_EDGE('',*,*,#435,.T.);
#216=ORIENTED_EDGE('',*,*,#436,.F.);
#217=ORIENTED_EDGE('',*,*,#437,.T.);
#218=ORIENTED_EDGE('',*,*,#438,.T.);
#219=ORIENTED_EDGE('',*,*,#425,.T.);
#220=ORIENTED_EDGE('',*,*,#423,.T.);
#221=ORIENTED_EDGE('',*,*,#439,.T.);
#222=ORIENTED_EDGE('',*,*,#440,.T.);
#223=ORIENTED_EDGE('',*,*,#421,.T.);
#224=ORIENTED_EDGE('',*,*,#441,.T.);
#225=ORIENTED_EDGE('',*,*,#442,.T.);
#226=ORIENTED_EDGE('',*,*,#417,.F.);
#227=ORIENTED_EDGE('',*,*,#443,.F.);
#228=ORIENTED_EDGE('',*,*,#427,.F.);
#229=ORIENTED_EDGE('',*,*,#399,.F.);
#230=ORIENTED_EDGE('',*,*,#444,.F.);
#231=ORIENTED_EDGE('',*,*,#445,.F.);
#232=ORIENTED_EDGE('',*,*,#446,.T.);
#233=ORIENTED_EDGE('',*,*,#418,.T.);
#234=ORIENTED_EDGE('',*,*,#442,.F.);
#235=ORIENTED_EDGE('',*,*,#447,.F.);
#236=ORIENTED_EDGE('',*,*,#438,.F.);
#237=ORIENTED_EDGE('',*,*,#408,.F.);
#238=ORIENTED_EDGE('',*,*,#412,.F.);
#239=ORIENTED_EDGE('',*,*,#441,.F.);
#240=ORIENTED_EDGE('',*,*,#437,.F.);
#241=ORIENTED_EDGE('',*,*,#409,.F.);
#242=ORIENTED_EDGE('',*,*,#413,.F.);
#243=ORIENTED_EDGE('',*,*,#439,.F.);
#244=ORIENTED_EDGE('',*,*,#448,.F.);
#245=ORIENTED_EDGE('',*,*,#449,.T.);
#246=ORIENTED_EDGE('',*,*,#434,.F.);
#247=ORIENTED_EDGE('',*,*,#450,.F.);
#248=ORIENTED_EDGE('',*,*,#440,.F.);
#249=ORIENTED_EDGE('',*,*,#435,.F.);
#250=ORIENTED_EDGE('',*,*,#449,.F.);
#251=ORIENTED_EDGE('',*,*,#451,.T.);
#252=ORIENTED_EDGE('',*,*,#452,.F.);
#253=ORIENTED_EDGE('',*,*,#394,.T.);
#254=ORIENTED_EDGE('',*,*,#453,.F.);
#255=ORIENTED_EDGE('',*,*,#454,.T.);
#256=ORIENTED_EDGE('',*,*,#450,.T.);
#257=ORIENTED_EDGE('',*,*,#433,.F.);
#258=ORIENTED_EDGE('',*,*,#455,.F.);
#259=ORIENTED_EDGE('',*,*,#422,.T.);
#260=ORIENTED_EDGE('',*,*,#424,.T.);
#261=ORIENTED_EDGE('',*,*,#426,.T.);
#262=ORIENTED_EDGE('',*,*,#451,.F.);
#263=ORIENTED_EDGE('',*,*,#448,.T.);
#264=ORIENTED_EDGE('',*,*,#454,.F.);
#265=ORIENTED_EDGE('',*,*,#456,.F.);
#266=ORIENTED_EDGE('',*,*,#419,.T.);
#267=ORIENTED_EDGE('',*,*,#446,.F.);
#268=ORIENTED_EDGE('',*,*,#457,.F.);
#269=ORIENTED_EDGE('',*,*,#443,.T.);
#270=ORIENTED_EDGE('',*,*,#420,.T.);
#271=ORIENTED_EDGE('',*,*,#456,.T.);
#272=ORIENTED_EDGE('',*,*,#455,.T.);
#273=ORIENTED_EDGE('',*,*,#432,.T.);
#274=ORIENTED_EDGE('',*,*,#428,.T.);
#275=ORIENTED_EDGE('',*,*,#458,.T.);
#276=ORIENTED_EDGE('',*,*,#387,.F.);
#277=ORIENTED_EDGE('',*,*,#416,.T.);
#278=ORIENTED_EDGE('',*,*,#458,.F.);
#279=ORIENTED_EDGE('',*,*,#459,.T.);
#280=ORIENTED_EDGE('',*,*,#385,.F.);
#281=ORIENTED_EDGE('',*,*,#414,.T.);
#282=ORIENTED_EDGE('',*,*,#459,.F.);
#283=ORIENTED_EDGE('',*,*,#460,.T.);
#284=ORIENTED_EDGE('',*,*,#386,.F.);
#285=ORIENTED_EDGE('',*,*,#410,.T.);
#286=ORIENTED_EDGE('',*,*,#460,.F.);
#287=ORIENTED_EDGE('',*,*,#461,.T.);
#288=ORIENTED_EDGE('',*,*,#388,.F.);
#289=ORIENTED_EDGE('',*,*,#406,.T.);
#290=ORIENTED_EDGE('',*,*,#461,.F.);
#291=ORIENTED_EDGE('',*,*,#444,.T.);
#292=ORIENTED_EDGE('',*,*,#462,.F.);
#293=ORIENTED_EDGE('',*,*,#463,.F.);
#294=ORIENTED_EDGE('',*,*,#464,.F.);
#295=ORIENTED_EDGE('',*,*,#465,.F.);
#296=ORIENTED_EDGE('',*,*,#466,.F.);
#297=ORIENTED_EDGE('',*,*,#467,.T.);
#298=ORIENTED_EDGE('',*,*,#468,.T.);
#299=ORIENTED_EDGE('',*,*,#469,.T.);
#300=ORIENTED_EDGE('',*,*,#470,.T.);
#301=ORIENTED_EDGE('',*,*,#471,.T.);
#302=ORIENTED_EDGE('',*,*,#472,.T.);
#303=ORIENTED_EDGE('',*,*,#463,.T.);
#304=ORIENTED_EDGE('',*,*,#473,.F.);
#305=ORIENTED_EDGE('',*,*,#474,.F.);
#306=ORIENTED_EDGE('',*,*,#475,.F.);
#307=ORIENTED_EDGE('',*,*,#476,.T.);
#308=ORIENTED_EDGE('',*,*,#470,.F.);
#309=ORIENTED_EDGE('',*,*,#384,.T.);
#310=ORIENTED_EDGE('',*,*,#476,.F.);
#311=ORIENTED_EDGE('',*,*,#477,.T.);
#312=ORIENTED_EDGE('',*,*,#471,.F.);
#313=ORIENTED_EDGE('',*,*,#382,.T.);
#314=ORIENTED_EDGE('',*,*,#477,.F.);
#315=ORIENTED_EDGE('',*,*,#478,.T.);
#316=ORIENTED_EDGE('',*,*,#468,.F.);
#317=ORIENTED_EDGE('',*,*,#380,.T.);
#318=ORIENTED_EDGE('',*,*,#478,.F.);
#319=ORIENTED_EDGE('',*,*,#479,.T.);
#320=ORIENTED_EDGE('',*,*,#472,.F.);
#321=ORIENTED_EDGE('',*,*,#378,.T.);
#322=ORIENTED_EDGE('',*,*,#479,.F.);
#323=ORIENTED_EDGE('',*,*,#480,.T.);
#324=ORIENTED_EDGE('',*,*,#467,.F.);
#325=ORIENTED_EDGE('',*,*,#376,.T.);
#326=ORIENTED_EDGE('',*,*,#480,.F.);
#327=ORIENTED_EDGE('',*,*,#481,.T.);
#328=ORIENTED_EDGE('',*,*,#469,.F.);
#329=ORIENTED_EDGE('',*,*,#374,.T.);
#330=ORIENTED_EDGE('',*,*,#481,.F.);
#331=ORIENTED_EDGE('',*,*,#462,.T.);
#332=ORIENTED_EDGE('',*,*,#401,.T.);
#333=ORIENTED_EDGE('',*,*,#482,.T.);
#334=ORIENTED_EDGE('',*,*,#473,.T.);
#335=ORIENTED_EDGE('',*,*,#482,.F.);
#336=ORIENTED_EDGE('',*,*,#398,.T.);
#337=ORIENTED_EDGE('',*,*,#483,.T.);
#338=ORIENTED_EDGE('',*,*,#474,.T.);
#339=ORIENTED_EDGE('',*,*,#475,.T.);
#340=ORIENTED_EDGE('',*,*,#483,.F.);
#341=ORIENTED_EDGE('',*,*,#404,.T.);
#342=ORIENTED_EDGE('',*,*,#484,.T.);
#343=ORIENTED_EDGE('',*,*,#464,.T.);
#344=ORIENTED_EDGE('',*,*,#484,.F.);
#345=ORIENTED_EDGE('',*,*,#403,.T.);
#346=ORIENTED_EDGE('',*,*,#430,.T.);
#347=ORIENTED_EDGE('',*,*,#431,.T.);
#348=ORIENTED_EDGE('',*,*,#485,.T.);
#349=ORIENTED_EDGE('',*,*,#465,.T.);
#350=ORIENTED_EDGE('',*,*,#453,.T.);
#351=ORIENTED_EDGE('',*,*,#393,.T.);
#352=ORIENTED_EDGE('',*,*,#486,.T.);
#353=ORIENTED_EDGE('',*,*,#436,.T.);
#354=ORIENTED_EDGE('',*,*,#486,.F.);
#355=ORIENTED_EDGE('',*,*,#487,.T.);
#356=ORIENTED_EDGE('',*,*,#485,.F.);
#357=ORIENTED_EDGE('',*,*,#487,.F.);
#358=ORIENTED_EDGE('',*,*,#392,.T.);
#359=ORIENTED_EDGE('',*,*,#488,.T.);
#360=ORIENTED_EDGE('',*,*,#466,.T.);
#361=ORIENTED_EDGE('',*,*,#488,.F.);
#362=ORIENTED_EDGE('',*,*,#391,.T.);
#363=ORIENTED_EDGE('',*,*,#489,.T.);
#364=ORIENTED_EDGE('',*,*,#445,.T.);
#365=ORIENTED_EDGE('',*,*,#489,.F.);
#366=ORIENTED_EDGE('',*,*,#390,.T.);
#367=ORIENTED_EDGE('',*,*,#490,.T.);
#368=ORIENTED_EDGE('',*,*,#447,.T.);
#369=ORIENTED_EDGE('',*,*,#452,.T.);
#370=ORIENTED_EDGE('',*,*,#457,.T.);
#371=ORIENTED_EDGE('',*,*,#490,.F.);
#372=ORIENTED_EDGE('',*,*,#389,.T.);
#373=EDGE_CURVE('',#491,#491,#585,.T.);
#374=EDGE_CURVE('',#492,#492,#586,.T.);
#375=EDGE_CURVE('',#493,#493,#587,.T.);
#376=EDGE_CURVE('',#494,#494,#588,.T.);
#377=EDGE_CURVE('',#495,#495,#589,.T.);
#378=EDGE_CURVE('',#496,#496,#590,.T.);
#379=EDGE_CURVE('',#497,#497,#591,.T.);
#380=EDGE_CURVE('',#498,#498,#592,.T.);
#381=EDGE_CURVE('',#499,#499,#593,.T.);
#382=EDGE_CURVE('',#500,#500,#594,.T.);
#383=EDGE_CURVE('',#501,#501,#595,.T.);
#384=EDGE_CURVE('',#502,#502,#596,.T.);
#385=EDGE_CURVE('',#503,#503,#597,.T.);
#386=EDGE_CURVE('',#504,#504,#598,.T.);
#387=EDGE_CURVE('',#505,#505,#599,.T.);
#388=EDGE_CURVE('',#506,#506,#600,.T.);
#389=EDGE_CURVE('',#507,#508,#25,.F.);
#390=EDGE_CURVE('',#509,#507,#26,.F.);
#391=EDGE_CURVE('',#510,#509,#27,.T.);
#392=EDGE_CURVE('',#511,#510,#28,.T.);
#393=EDGE_CURVE('',#512,#511,#29,.F.);
#394=EDGE_CURVE('',#508,#512,#30,.T.);
#395=EDGE_CURVE('',#513,#514,#31,.T.);
#396=EDGE_CURVE('',#514,#515,#32,.T.);
#397=EDGE_CURVE('',#516,#515,#33,.T.);
#398=EDGE_CURVE('',#513,#516,#34,.T.);
#399=EDGE_CURVE('',#517,#518,#35,.T.);
#400=EDGE_CURVE('',#514,#518,#36,.T.);
#401=EDGE_CURVE('',#517,#513,#37,.F.);
#402=EDGE_CURVE('',#519,#515,#38,.T.);
#403=EDGE_CURVE('',#520,#519,#39,.T.);
#404=EDGE_CURVE('',#516,#520,#40,.F.);
#405=EDGE_CURVE('',#521,#521,#601,.T.);
#406=EDGE_CURVE('',#522,#522,#602,.T.);
#407=EDGE_CURVE('',#523,#523,#603,.T.);
#408=EDGE_CURVE('',#524,#524,#20,.T.);
#409=EDGE_CURVE('',#525,#525,#21,.T.);
#410=EDGE_CURVE('',#526,#526,#604,.T.);
#411=EDGE_CURVE('',#527,#527,#605,.T.);
#412=EDGE_CURVE('',#528,#528,#22,.T.);
#413=EDGE_CURVE('',#529,#529,#23,.T.);
#414=EDGE_CURVE('',#530,#530,#606,.T.);
#415=EDGE_CURVE('',#531,#531,#607,.T.);
#416=EDGE_CURVE('',#532,#532,#608,.T.);
#417=EDGE_CURVE('',#533,#534,#41,.T.);
#418=EDGE_CURVE('',#535,#534,#42,.T.);
#419=EDGE_CURVE('',#536,#535,#43,.T.);
#420=EDGE_CURVE('',#533,#536,#44,.T.);
#421=EDGE_CURVE('',#537,#537,#609,.T.);
#422=EDGE_CURVE('',#538,#538,#610,.T.);
#423=EDGE_CURVE('',#539,#539,#611,.T.);
#424=EDGE_CURVE('',#540,#540,#612,.T.);
#425=EDGE_CURVE('',#541,#541,#613,.T.);
#426=EDGE_CURVE('',#542,#542,#614,.T.);
#427=EDGE_CURVE('',#518,#543,#45,.T.);
#428=EDGE_CURVE('',#544,#543,#46,.T.);
#429=EDGE_CURVE('',#545,#544,#47,.T.);
#430=EDGE_CURVE('',#519,#545,#615,.F.);
#431=EDGE_CURVE('',#545,#546,#48,.F.);
#432=EDGE_CURVE('',#547,#544,#616,.T.);
#433=EDGE_CURVE('',#547,#548,#49,.T.);
#434=EDGE_CURVE('',#548,#549,#617,.T.);
#435=EDGE_CURVE('',#549,#550,#50,.T.);
#436=EDGE_CURVE('',#546,#550,#51,.T.);
#437=EDGE_CURVE('',#551,#551,#618,.T.);
#438=EDGE_CURVE('',#552,#552,#619,.T.);
#439=EDGE_CURVE('',#553,#553,#620,.T.);
#440=EDGE_CURVE('',#554,#554,#621,.T.);
#441=EDGE_CURVE('',#555,#555,#622,.T.);
#442=EDGE_CURVE('',#556,#534,#52,.T.);
#443=EDGE_CURVE('',#543,#533,#623,.F.);
#444=EDGE_CURVE('',#557,#517,#53,.T.);
#445=EDGE_CURVE('',#556,#557,#54,.F.);
#446=EDGE_CURVE('',#558,#535,#55,.T.);
#447=EDGE_CURVE('',#558,#556,#56,.T.);
#448=EDGE_CURVE('',#559,#560,#624,.T.);
#449=EDGE_CURVE('',#559,#549,#57,.T.);
#450=EDGE_CURVE('',#560,#548,#58,.T.);
#451=EDGE_CURVE('',#559,#561,#59,.T.);
#452=EDGE_CURVE('',#508,#561,#625,.T.);
#453=EDGE_CURVE('',#550,#512,#626,.F.);
#454=EDGE_CURVE('',#562,#560,#60,.T.);
#455=EDGE_CURVE('',#562,#547,#61,.F.);
#456=EDGE_CURVE('',#536,#562,#627,.T.);
#457=EDGE_CURVE('',#561,#558,#62,.T.);
#458=EDGE_CURVE('',#563,#563,#628,.T.);
#459=EDGE_CURVE('',#564,#564,#629,.T.);
#460=EDGE_CURVE('',#565,#565,#630,.T.);
#461=EDGE_CURVE('',#566,#566,#631,.T.);
#462=EDGE_CURVE('',#567,#517,#13,.F.);
#463=EDGE_CURVE('',#568,#567,#63,.T.);
#464=EDGE_CURVE('',#569,#568,#14,.F.);
#465=EDGE_CURVE('',#570,#569,#64,.T.);
#466=EDGE_CURVE('',#557,#570,#65,.F.);
#467=EDGE_CURVE('',#571,#571,#632,.T.);
#468=EDGE_CURVE('',#572,#572,#633,.T.);
#469=EDGE_CURVE('',#573,#573,#634,.T.);
#470=EDGE_CURVE('',#574,#574,#635,.T.);
#471=EDGE_CURVE('',#575,#575,#636,.T.);
#472=EDGE_CURVE('',#576,#576,#637,.T.);
#473=EDGE_CURVE('',#577,#567,#66,.T.);
#474=EDGE_CURVE('',#578,#577,#67,.F.);
#475=EDGE_CURVE('',#568,#578,#68,.T.);
#476=EDGE_CURVE('',#579,#579,#638,.T.);
#477=EDGE_CURVE('',#580,#580,#639,.T.);
#478=EDGE_CURVE('',#581,#581,#640,.T.);
#479=EDGE_CURVE('',#582,#582,#641,.T.);
#480=EDGE_CURVE('',#583,#583,#642,.T.);
#481=EDGE_CURVE('',#584,#584,#643,.T.);
#482=EDGE_CURVE('',#513,#577,#15,.T.);
#483=EDGE_CURVE('',#516,#578,#16,.T.);
#484=EDGE_CURVE('',#520,#569,#24,.F.);
#485=EDGE_CURVE('',#546,#570,#644,.T.);
#486=EDGE_CURVE('',#511,#546,#645,.T.);
#487=EDGE_CURVE('',#511,#570,#646,.F.);
#488=EDGE_CURVE('',#510,#557,#17,.T.);
#489=EDGE_CURVE('',#509,#556,#18,.F.);
#490=EDGE_CURVE('',#507,#558,#19,.F.);
#491=VERTEX_POINT('',#1468);
#492=VERTEX_POINT('',#1470);
#493=VERTEX_POINT('',#1473);
#494=VERTEX_POINT('',#1475);
#495=VERTEX_POINT('',#1478);
#496=VERTEX_POINT('',#1480);
#497=VERTEX_POINT('',#1483);
#498=VERTEX_POINT('',#1485);
#499=VERTEX_POINT('',#1488);
#500=VERTEX_POINT('',#1490);
#501=VERTEX_POINT('',#1493);
#502=VERTEX_POINT('',#1495);
#503=VERTEX_POINT('',#1498);
#504=VERTEX_POINT('',#1500);
#505=VERTEX_POINT('',#1502);
#506=VERTEX_POINT('',#1504);
#507=VERTEX_POINT('',#1506);
#508=VERTEX_POINT('',#1507);
#509=VERTEX_POINT('',#1509);
#510=VERTEX_POINT('',#1511);
#511=VERTEX_POINT('',#1513);
#512=VERTEX_POINT('',#1515);
#513=VERTEX_POINT('',#1519);
#514=VERTEX_POINT('',#1520);
#515=VERTEX_POINT('',#1522);
#516=VERTEX_POINT('',#1524);
#517=VERTEX_POINT('',#1528);
#518=VERTEX_POINT('',#1529);
#519=VERTEX_POINT('',#1534);
#520=VERTEX_POINT('',#1536);
#521=VERTEX_POINT('',#1540);
#522=VERTEX_POINT('',#1542);
#523=VERTEX_POINT('',#1545);
#524=VERTEX_POINT('',#1557);
#525=VERTEX_POINT('',#1569);
#526=VERTEX_POINT('',#1571);
#527=VERTEX_POINT('',#1574);
#528=VERTEX_POINT('',#1586);
#529=VERTEX_POINT('',#1598);
#530=VERTEX_POINT('',#1600);
#531=VERTEX_POINT('',#1603);
#532=VERTEX_POINT('',#1605);
#533=VERTEX_POINT('',#1608);
#534=VERTEX_POINT('',#1609);
#535=VERTEX_POINT('',#1611);
#536=VERTEX_POINT('',#1613);
#537=VERTEX_POINT('',#1617);
#538=VERTEX_POINT('',#1619);
#539=VERTEX_POINT('',#1622);
#540=VERTEX_POINT('',#1624);
#541=VERTEX_POINT('',#1627);
#542=VERTEX_POINT('',#1629);
#543=VERTEX_POINT('',#1632);
#544=VERTEX_POINT('',#1634);
#545=VERTEX_POINT('',#1636);
#546=VERTEX_POINT('',#1640);
#547=VERTEX_POINT('',#1642);
#548=VERTEX_POINT('',#1644);
#549=VERTEX_POINT('',#1646);
#550=VERTEX_POINT('',#1648);
#551=VERTEX_POINT('',#1651);
#552=VERTEX_POINT('',#1653);
#553=VERTEX_POINT('',#1656);
#554=VERTEX_POINT('',#1658);
#555=VERTEX_POINT('',#1660);
#556=VERTEX_POINT('',#1662);
#557=VERTEX_POINT('',#1665);
#558=VERTEX_POINT('',#1669);
#559=VERTEX_POINT('',#1675);
#560=VERTEX_POINT('',#1676);
#561=VERTEX_POINT('',#1681);
#562=VERTEX_POINT('',#1686);
#563=VERTEX_POINT('',#1694);
#564=VERTEX_POINT('',#1698);
#565=VERTEX_POINT('',#1702);
#566=VERTEX_POINT('',#1706);
#567=VERTEX_POINT('',#1710);
#568=VERTEX_POINT('',#1712);
#569=VERTEX_POINT('',#1714);
#570=VERTEX_POINT('',#1716);
#571=VERTEX_POINT('',#1720);
#572=VERTEX_POINT('',#1722);
#573=VERTEX_POINT('',#1724);
#574=VERTEX_POINT('',#1726);
#575=VERTEX_POINT('',#1728);
#576=VERTEX_POINT('',#1730);
#577=VERTEX_POINT('',#1732);
#578=VERTEX_POINT('',#1734);
#579=VERTEX_POINT('',#1738);
#580=VERTEX_POINT('',#1742);
#581=VERTEX_POINT('',#1746);
#582=VERTEX_POINT('',#1750);
#583=VERTEX_POINT('',#1754);
#584=VERTEX_POINT('',#1758);
#585=CIRCLE('',#1030,0.00265);
#586=CIRCLE('',#1031,0.00265);
#587=CIRCLE('',#1033,0.00265);
#588=CIRCLE('',#1034,0.00265);
#589=CIRCLE('',#1036,0.00265);
#590=CIRCLE('',#1037,0.00265);
#591=CIRCLE('',#1039,0.00265);
#592=CIRCLE('',#1040,0.00265);
#593=CIRCLE('',#1042,0.00265);
#594=CIRCLE('',#1043,0.00265);
#595=CIRCLE('',#1045,0.00265);
#596=CIRCLE('',#1046,0.00265);
#597=CIRCLE('',#1048,0.004375);
#598=CIRCLE('',#1049,0.004375);
#599=CIRCLE('',#1050,0.004375);
#600=CIRCLE('',#1051,0.004375);
#601=CIRCLE('',#1056,0.00265);
#602=CIRCLE('',#1057,0.00265);
#603=CIRCLE('',#1059,0.00265);
#604=CIRCLE('',#1060,0.00265);
#605=CIRCLE('',#1062,0.00265);
#606=CIRCLE('',#1063,0.00265);
#607=CIRCLE('',#1065,0.00265);
#608=CIRCLE('',#1066,0.00265);
#609=CIRCLE('',#1069,0.00275000000000004);
#610=CIRCLE('',#1070,0.00275000000000004);
#611=CIRCLE('',#1072,0.00275000000000004);
#612=CIRCLE('',#1073,0.00275000000000004);
#613=CIRCLE('',#1075,0.00275);
#614=CIRCLE('',#1076,0.00275);
#615=CIRCLE('',#1078,0.002);
#616=CIRCLE('',#1080,0.00275);
#617=CIRCLE('',#1081,0.01415);
#618=CIRCLE('',#1082,0.00275000000000004);
#619=CIRCLE('',#1083,0.00275000000000004);
#620=CIRCLE('',#1085,0.00275000000000004);
#621=CIRCLE('',#1086,0.01415);
#622=CIRCLE('',#1087,0.00275000000000004);
#623=CIRCLE('',#1088,0.00275);
#624=CIRCLE('',#1093,0.01415);
#625=CIRCLE('',#1095,0.002);
#626=CIRCLE('',#1096,0.002);
#627=CIRCLE('',#1099,0.00275);
#628=CIRCLE('',#1102,0.004375);
#629=CIRCLE('',#1105,0.004375);
#630=CIRCLE('',#1108,0.004375);
#631=CIRCLE('',#1111,0.004375);
#632=CIRCLE('',#1117,0.0044);
#633=CIRCLE('',#1118,0.0044);
#634=CIRCLE('',#1119,0.0044);
#635=CIRCLE('',#1120,0.0044);
#636=CIRCLE('',#1121,0.0044);
#637=CIRCLE('',#1122,0.0044);
#638=CIRCLE('',#1124,0.0044);
#639=CIRCLE('',#1127,0.0044);
#640=CIRCLE('',#1130,0.0044);
#641=CIRCLE('',#1133,0.0044);
#642=CIRCLE('',#1136,0.0044);
#643=CIRCLE('',#1139,0.0044);
#644=CIRCLE('',#1147,0.002);
#645=CIRCLE('',#1149,0.002);
#646=CIRCLE('',#1151,0.002);
#647=EDGE_LOOP('',(#137));
#648=EDGE_LOOP('',(#138));
#649=EDGE_LOOP('',(#139));
#650=EDGE_LOOP('',(#140));
#651=EDGE_LOOP('',(#141));
#652=EDGE_LOOP('',(#142));
#653=EDGE_LOOP('',(#143));
#654=EDGE_LOOP('',(#144));
#655=EDGE_LOOP('',(#145));
#656=EDGE_LOOP('',(#146));
#657=EDGE_LOOP('',(#147));
#658=EDGE_LOOP('',(#148));
#659=EDGE_LOOP('',(#149));
#660=EDGE_LOOP('',(#150));
#661=EDGE_LOOP('',(#151));
#662=EDGE_LOOP('',(#152));
#663=EDGE_LOOP('',(#153,#154,#155,#156,#157,#158));
#664=EDGE_LOOP('',(#159,#160,#161,#162));
#665=EDGE_LOOP('',(#163,#164,#165,#166));
#666=EDGE_LOOP('',(#167,#168,#169,#170));
#667=EDGE_LOOP('',(#171));
#668=EDGE_LOOP('',(#172));
#669=EDGE_LOOP('',(#173));
#670=EDGE_LOOP('',(#174));
#671=EDGE_LOOP('',(#175));
#672=EDGE_LOOP('',(#176));
#673=EDGE_LOOP('',(#177));
#674=EDGE_LOOP('',(#178));
#675=EDGE_LOOP('',(#179));
#676=EDGE_LOOP('',(#180));
#677=EDGE_LOOP('',(#181));
#678=EDGE_LOOP('',(#182));
#679=EDGE_LOOP('',(#183,#184,#185,#186));
#680=EDGE_LOOP('',(#187));
#681=EDGE_LOOP('',(#188));
#682=EDGE_LOOP('',(#189));
#683=EDGE_LOOP('',(#190));
#684=EDGE_LOOP('',(#191));
#685=EDGE_LOOP('',(#192));
#686=EDGE_LOOP('',(#193));
#687=EDGE_LOOP('',(#194));
#688=EDGE_LOOP('',(#195));
#689=EDGE_LOOP('',(#196));
#690=EDGE_LOOP('',(#197));
#691=EDGE_LOOP('',(#198));
#692=EDGE_LOOP('',(#199));
#693=EDGE_LOOP('',(#200));
#694=EDGE_LOOP('',(#201));
#695=EDGE_LOOP('',(#202));
#696=EDGE_LOOP('',(#203,#204,#205,#206,#207,#208,#209));
#697=EDGE_LOOP('',(#210,#211,#212,#213,#214,#215,#216));
#698=EDGE_LOOP('',(#217));
#699=EDGE_LOOP('',(#218));
#700=EDGE_LOOP('',(#219));
#701=EDGE_LOOP('',(#220));
#702=EDGE_LOOP('',(#221));
#703=EDGE_LOOP('',(#222));
#704=EDGE_LOOP('',(#223));
#705=EDGE_LOOP('',(#224));
#706=EDGE_LOOP('',(#225,#226,#227,#228,#229,#230,#231));
#707=EDGE_LOOP('',(#232,#233,#234,#235));
#708=EDGE_LOOP('',(#236));
#709=EDGE_LOOP('',(#237));
#710=EDGE_LOOP('',(#238));
#711=EDGE_LOOP('',(#239));
#712=EDGE_LOOP('',(#240));
#713=EDGE_LOOP('',(#241));
#714=EDGE_LOOP('',(#242));
#715=EDGE_LOOP('',(#243));
#716=EDGE_LOOP('',(#244,#245,#246,#247));
#717=EDGE_LOOP('',(#248));
#718=EDGE_LOOP('',(#249,#250,#251,#252,#253,#254));
#719=EDGE_LOOP('',(#255,#256,#257,#258));
#720=EDGE_LOOP('',(#259));
#721=EDGE_LOOP('',(#260));
#722=EDGE_LOOP('',(#261));
#723=EDGE_LOOP('',(#262,#263,#264,#265,#266,#267,#268));
#724=EDGE_LOOP('',(#269,#270,#271,#272,#273,#274));
#725=EDGE_LOOP('',(#275));
#726=EDGE_LOOP('',(#276));
#727=EDGE_LOOP('',(#277));
#728=EDGE_LOOP('',(#278));
#729=EDGE_LOOP('',(#279));
#730=EDGE_LOOP('',(#280));
#731=EDGE_LOOP('',(#281));
#732=EDGE_LOOP('',(#282));
#733=EDGE_LOOP('',(#283));
#734=EDGE_LOOP('',(#284));
#735=EDGE_LOOP('',(#285));
#736=EDGE_LOOP('',(#286));
#737=EDGE_LOOP('',(#287));
#738=EDGE_LOOP('',(#288));
#739=EDGE_LOOP('',(#289));
#740=EDGE_LOOP('',(#290));
#741=EDGE_LOOP('',(#291,#292,#293,#294,#295,#296));
#742=EDGE_LOOP('',(#297));
#743=EDGE_LOOP('',(#298));
#744=EDGE_LOOP('',(#299));
#745=EDGE_LOOP('',(#300));
#746=EDGE_LOOP('',(#301));
#747=EDGE_LOOP('',(#302));
#748=EDGE_LOOP('',(#303,#304,#305,#306));
#749=EDGE_LOOP('',(#307));
#750=EDGE_LOOP('',(#308));
#751=EDGE_LOOP('',(#309));
#752=EDGE_LOOP('',(#310));
#753=EDGE_LOOP('',(#311));
#754=EDGE_LOOP('',(#312));
#755=EDGE_LOOP('',(#313));
#756=EDGE_LOOP('',(#314));
#757=EDGE_LOOP('',(#315));
#758=EDGE_LOOP('',(#316));
#759=EDGE_LOOP('',(#317));
#760=EDGE_LOOP('',(#318));
#761=EDGE_LOOP('',(#319));
#762=EDGE_LOOP('',(#320));
#763=EDGE_LOOP('',(#321));
#764=EDGE_LOOP('',(#322));
#765=EDGE_LOOP('',(#323));
#766=EDGE_LOOP('',(#324));
#767=EDGE_LOOP('',(#325));
#768=EDGE_LOOP('',(#326));
#769=EDGE_LOOP('',(#327));
#770=EDGE_LOOP('',(#328));
#771=EDGE_LOOP('',(#329));
#772=EDGE_LOOP('',(#330));
#773=EDGE_LOOP('',(#331,#332,#333,#334));
#774=EDGE_LOOP('',(#335,#336,#337,#338));
#775=EDGE_LOOP('',(#339,#340,#341,#342,#343));
#776=EDGE_LOOP('',(#344,#345,#346,#347,#348,#349));
#777=EDGE_LOOP('',(#350,#351,#352,#353));
#778=EDGE_LOOP('',(#354,#355,#356));
#779=EDGE_LOOP('',(#357,#358,#359,#360));
#780=EDGE_LOOP('',(#361,#362,#363,#364));
#781=EDGE_LOOP('',(#365,#366,#367,#368));
#782=EDGE_LOOP('',(#369,#370,#371,#372));
#783=FACE_BOUND('',#647,.T.);
#784=FACE_BOUND('',#648,.T.);
#785=FACE_BOUND('',#649,.T.);
#786=FACE_BOUND('',#650,.T.);
#787=FACE_BOUND('',#651,.T.);
#788=FACE_BOUND('',#652,.T.);
#789=FACE_BOUND('',#653,.T.);
#790=FACE_BOUND('',#654,.T.);
#791=FACE_BOUND('',#655,.T.);
#792=FACE_BOUND('',#656,.T.);
#793=FACE_BOUND('',#657,.T.);
#794=FACE_BOUND('',#658,.T.);
#795=FACE_BOUND('',#659,.T.);
#796=FACE_BOUND('',#660,.T.);
#797=FACE_BOUND('',#661,.T.);
#798=FACE_BOUND('',#662,.T.);
#799=FACE_BOUND('',#663,.T.);
#800=FACE_BOUND('',#664,.T.);
#801=FACE_BOUND('',#665,.T.);
#802=FACE_BOUND('',#666,.T.);
#803=FACE_BOUND('',#667,.T.);
#804=FACE_BOUND('',#668,.T.);
#805=FACE_BOUND('',#669,.T.);
#806=FACE_BOUND('',#670,.T.);
#807=FACE_BOUND('',#671,.T.);
#808=FACE_BOUND('',#672,.T.);
#809=FACE_BOUND('',#673,.T.);
#810=FACE_BOUND('',#674,.T.);
#811=FACE_BOUND('',#675,.T.);
#812=FACE_BOUND('',#676,.T.);
#813=FACE_BOUND('',#677,.T.);
#814=FACE_BOUND('',#678,.T.);
#815=FACE_BOUND('',#679,.T.);
#816=FACE_BOUND('',#680,.T.);
#817=FACE_BOUND('',#681,.T.);
#818=FACE_BOUND('',#682,.T.);
#819=FACE_BOUND('',#683,.T.);
#820=FACE_BOUND('',#684,.T.);
#821=FACE_BOUND('',#685,.T.);
#822=FACE_BOUND('',#686,.T.);
#823=FACE_BOUND('',#687,.T.);
#824=FACE_BOUND('',#688,.T.);
#825=FACE_BOUND('',#689,.T.);
#826=FACE_BOUND('',#690,.T.);
#827=FACE_BOUND('',#691,.T.);
#828=FACE_BOUND('',#692,.T.);
#829=FACE_BOUND('',#693,.T.);
#830=FACE_BOUND('',#694,.T.);
#831=FACE_BOUND('',#695,.T.);
#832=FACE_BOUND('',#696,.T.);
#833=FACE_BOUND('',#697,.T.);
#834=FACE_BOUND('',#698,.T.);
#835=FACE_BOUND('',#699,.T.);
#836=FACE_BOUND('',#700,.T.);
#837=FACE_BOUND('',#701,.T.);
#838=FACE_BOUND('',#702,.T.);
#839=FACE_BOUND('',#703,.T.);
#840=FACE_BOUND('',#704,.T.);
#841=FACE_BOUND('',#705,.T.);
#842=FACE_BOUND('',#706,.T.);
#843=FACE_BOUND('',#707,.T.);
#844=FACE_BOUND('',#708,.T.);
#845=FACE_BOUND('',#709,.T.);
#846=FACE_BOUND('',#710,.T.);
#847=FACE_BOUND('',#711,.T.);
#848=FACE_BOUND('',#712,.T.);
#849=FACE_BOUND('',#713,.T.);
#850=FACE_BOUND('',#714,.T.);
#851=FACE_BOUND('',#715,.T.);
#852=FACE_BOUND('',#716,.T.);
#853=FACE_BOUND('',#717,.T.);
#854=FACE_BOUND('',#718,.T.);
#855=FACE_BOUND('',#719,.T.);
#856=FACE_BOUND('',#720,.T.);
#857=FACE_BOUND('',#721,.T.);
#858=FACE_BOUND('',#722,.T.);
#859=FACE_BOUND('',#723,.T.);
#860=FACE_BOUND('',#724,.T.);
#861=FACE_BOUND('',#725,.T.);
#862=FACE_BOUND('',#726,.T.);
#863=FACE_BOUND('',#727,.T.);
#864=FACE_BOUND('',#728,.T.);
#865=FACE_BOUND('',#729,.T.);
#866=FACE_BOUND('',#730,.T.);
#867=FACE_BOUND('',#731,.T.);
#868=FACE_BOUND('',#732,.T.);
#869=FACE_BOUND('',#733,.T.);
#870=FACE_BOUND('',#734,.T.);
#871=FACE_BOUND('',#735,.T.);
#872=FACE_BOUND('',#736,.T.);
#873=FACE_BOUND('',#737,.T.);
#874=FACE_BOUND('',#738,.T.);
#875=FACE_BOUND('',#739,.T.);
#876=FACE_BOUND('',#740,.T.);
#877=FACE_BOUND('',#741,.T.);
#878=FACE_BOUND('',#742,.T.);
#879=FACE_BOUND('',#743,.T.);
#880=FACE_BOUND('',#744,.T.);
#881=FACE_BOUND('',#745,.T.);
#882=FACE_BOUND('',#746,.T.);
#883=FACE_BOUND('',#747,.T.);
#884=FACE_BOUND('',#748,.T.);
#885=FACE_BOUND('',#749,.T.);
#886=FACE_BOUND('',#750,.T.);
#887=FACE_BOUND('',#751,.T.);
#888=FACE_BOUND('',#752,.T.);
#889=FACE_BOUND('',#753,.T.);
#890=FACE_BOUND('',#754,.T.);
#891=FACE_BOUND('',#755,.T.);
#892=FACE_BOUND('',#756,.T.);
#893=FACE_BOUND('',#757,.T.);
#894=FACE_BOUND('',#758,.T.);
#895=FACE_BOUND('',#759,.T.);
#896=FACE_BOUND('',#760,.T.);
#897=FACE_BOUND('',#761,.T.);
#898=FACE_BOUND('',#762,.T.);
#899=FACE_BOUND('',#763,.T.);
#900=FACE_BOUND('',#764,.T.);
#901=FACE_BOUND('',#765,.T.);
#902=FACE_BOUND('',#766,.T.);
#903=FACE_BOUND('',#767,.T.);
#904=FACE_BOUND('',#768,.T.);
#905=FACE_BOUND('',#769,.T.);
#906=FACE_BOUND('',#770,.T.);
#907=FACE_BOUND('',#771,.T.);
#908=FACE_BOUND('',#772,.T.);
#909=FACE_BOUND('',#773,.T.);
#910=FACE_BOUND('',#774,.T.);
#911=FACE_BOUND('',#775,.T.);
#912=FACE_BOUND('',#776,.T.);
#913=FACE_BOUND('',#777,.T.);
#914=FACE_BOUND('',#778,.T.);
#915=FACE_BOUND('',#779,.T.);
#916=FACE_BOUND('',#780,.T.);
#917=FACE_BOUND('',#781,.T.);
#918=FACE_BOUND('',#782,.T.);
#919=CYLINDRICAL_SURFACE('',#1029,0.00265);
#920=CYLINDRICAL_SURFACE('',#1032,0.00265);
#921=CYLINDRICAL_SURFACE('',#1035,0.00265);
#922=CYLINDRICAL_SURFACE('',#1038,0.00265);
#923=CYLINDRICAL_SURFACE('',#1041,0.00265);
#924=CYLINDRICAL_SURFACE('',#1044,0.00265);
#925=CYLINDRICAL_SURFACE('',#1055,0.00265);
#926=CYLINDRICAL_SURFACE('',#1058,0.00265);
#927=CYLINDRICAL_SURFACE('',#1061,0.00265);
#928=CYLINDRICAL_SURFACE('',#1064,0.00265);
#929=CYLINDRICAL_SURFACE('',#1068,0.00275000000000004);
#930=CYLINDRICAL_SURFACE('',#1071,0.00275000000000004);
#931=CYLINDRICAL_SURFACE('',#1074,0.00275);
#932=CYLINDRICAL_SURFACE('',#1090,0.00275000000000004);
#933=CYLINDRICAL_SURFACE('',#1091,0.00275000000000004);
#934=CYLINDRICAL_SURFACE('',#1092,0.01415);
#935=CYLINDRICAL_SURFACE('',#1100,0.00275);
#936=CYLINDRICAL_SURFACE('',#1101,0.004375);
#937=CYLINDRICAL_SURFACE('',#1104,0.004375);
#938=CYLINDRICAL_SURFACE('',#1107,0.004375);
#939=CYLINDRICAL_SURFACE('',#1110,0.004375);
#940=CYLINDRICAL_SURFACE('',#1123,0.0044);
#941=CYLINDRICAL_SURFACE('',#1126,0.0044);
#942=CYLINDRICAL_SURFACE('',#1129,0.0044);
#943=CYLINDRICAL_SURFACE('',#1132,0.0044);
#944=CYLINDRICAL_SURFACE('',#1135,0.0044);
#945=CYLINDRICAL_SURFACE('',#1138,0.0044);
#946=CYLINDRICAL_SURFACE('',#1141,0.002);
#947=CYLINDRICAL_SURFACE('',#1143,0.002);
#948=CYLINDRICAL_SURFACE('',#1145,0.002);
#949=CYLINDRICAL_SURFACE('',#1146,0.002);
#950=CYLINDRICAL_SURFACE('',#1148,0.002);
#951=CYLINDRICAL_SURFACE('',#1152,0.002);
#952=CYLINDRICAL_SURFACE('',#1154,0.002);
#953=CYLINDRICAL_SURFACE('',#1156,0.002);
#954=CYLINDRICAL_SURFACE('',#1158,0.002);
#955=ADVANCED_FACE('',(#783,#784),#919,.F.);
#956=ADVANCED_FACE('',(#785,#786),#920,.F.);
#957=ADVANCED_FACE('',(#787,#788),#921,.F.);
#958=ADVANCED_FACE('',(#789,#790),#922,.F.);
#959=ADVANCED_FACE('',(#791,#792),#923,.F.);
#960=ADVANCED_FACE('',(#793,#794),#924,.F.);
#961=ADVANCED_FACE('',(#795,#796,#797,#798,#799),#113,.T.);
#962=ADVANCED_FACE('',(#800),#114,.T.);
#963=ADVANCED_FACE('',(#801),#115,.F.);
#964=ADVANCED_FACE('',(#802),#116,.F.);
#965=ADVANCED_FACE('',(#803,#804),#925,.F.);
#966=ADVANCED_FACE('',(#805,#806,#807,#808),#926,.F.);
#967=ADVANCED_FACE('',(#809,#810,#811,#812),#927,.F.);
#968=ADVANCED_FACE('',(#813,#814),#928,.F.);
#969=ADVANCED_FACE('',(#815),#117,.T.);
#970=ADVANCED_FACE('',(#816,#817),#929,.F.);
#971=ADVANCED_FACE('',(#818,#819),#930,.F.);
#972=ADVANCED_FACE('',(#820,#821),#931,.F.);
#973=ADVANCED_FACE('',(#822,#823,#824,#825,#826,#827,#828,#829,#830,#831,
#832),#118,.F.);
#974=ADVANCED_FACE('',(#833,#834,#835),#119,.T.);
#975=ADVANCED_FACE('',(#836,#837,#838,#839,#840,#841,#842),#120,.F.);
#976=ADVANCED_FACE('',(#843),#121,.T.);
#977=ADVANCED_FACE('',(#844,#845,#846,#847),#932,.F.);
#978=ADVANCED_FACE('',(#848,#849,#850,#851),#933,.F.);
#979=ADVANCED_FACE('',(#852,#853),#934,.F.);
#980=ADVANCED_FACE('',(#854),#122,.F.);
#981=ADVANCED_FACE('',(#855),#123,.F.);
#982=ADVANCED_FACE('',(#856,#857,#858,#859),#124,.T.);
#983=ADVANCED_FACE('',(#860),#935,.T.);
#984=ADVANCED_FACE('',(#861,#862),#936,.F.);
#985=ADVANCED_FACE('',(#863,#864),#125,.T.);
#986=ADVANCED_FACE('',(#865,#866),#937,.F.);
#987=ADVANCED_FACE('',(#867,#868),#126,.T.);
#988=ADVANCED_FACE('',(#869,#870),#938,.F.);
#989=ADVANCED_FACE('',(#871,#872),#127,.T.);
#990=ADVANCED_FACE('',(#873,#874),#939,.F.);
#991=ADVANCED_FACE('',(#875,#876),#128,.T.);
#992=ADVANCED_FACE('',(#877),#129,.T.);
#993=ADVANCED_FACE('',(#878,#879,#880,#881,#882,#883,#884),#130,.T.);
#994=ADVANCED_FACE('',(#885,#886),#940,.F.);
#995=ADVANCED_FACE('',(#887,#888),#131,.T.);
#996=ADVANCED_FACE('',(#889,#890),#941,.F.);
#997=ADVANCED_FACE('',(#891,#892),#132,.T.);
#998=ADVANCED_FACE('',(#893,#894),#942,.F.);
#999=ADVANCED_FACE('',(#895,#896),#133,.T.);
#1000=ADVANCED_FACE('',(#897,#898),#943,.F.);
#1001=ADVANCED_FACE('',(#899,#900),#134,.T.);
#1002=ADVANCED_FACE('',(#901,#902),#944,.F.);
#1003=ADVANCED_FACE('',(#903,#904),#135,.T.);
#1004=ADVANCED_FACE('',(#905,#906),#945,.F.);
#1005=ADVANCED_FACE('',(#907,#908),#136,.T.);
#1006=ADVANCED_FACE('',(#909),#946,.T.);
#1007=ADVANCED_FACE('',(#910),#947,.T.);
#1008=ADVANCED_FACE('',(#911),#948,.T.);
#1009=ADVANCED_FACE('',(#912),#949,.T.);
#1010=ADVANCED_FACE('',(#913),#950,.T.);
#1011=ADVANCED_FACE('',(#914),#12,.T.);
#1012=ADVANCED_FACE('',(#915),#951,.T.);
#1013=ADVANCED_FACE('',(#916),#952,.T.);
#1014=ADVANCED_FACE('',(#917),#953,.T.);
#1015=ADVANCED_FACE('',(#918),#954,.T.);
#1016=CLOSED_SHELL('',(#955,#956,#957,#958,#959,#960,#961,#962,#963,#964,
#965,#966,#967,#968,#969,#970,#971,#972,#973,#974,#975,#976,#977,#978,#979,
#980,#981,#982,#983,#984,#985,#986,#987,#988,#989,#990,#991,#992,#993,#994,
#995,#996,#997,#998,#999,#1000,#1001,#1002,#1003,#1004,#1005,#1006,#1007,
#1008,#1009,#1010,#1011,#1012,#1013,#1014,#1015));
#1017=STYLED_ITEM('',(#1018),#1025);
#1018=PRESENTATION_STYLE_ASSIGNMENT((#1019));
#1019=SURFACE_STYLE_USAGE(.BOTH.,#1020);
#1020=SURFACE_SIDE_STYLE('',(#1021));
#1021=SURFACE_STYLE_FILL_AREA(#1022);
#1022=FILL_AREA_STYLE('',(#1023));
#1023=FILL_AREA_STYLE_COLOUR('',#1024);
#1024=COLOUR_RGB('',0.615686274509804,0.811764705882353,0.929411764705882);
#1025=MANIFOLD_SOLID_BREP('GantryLower-Right',#1016);
#1026=SHAPE_DEFINITION_REPRESENTATION(#1791,#1027);
#1027=SHAPE_REPRESENTATION('GantryLower-Right',(#1028),#1786);
#1028=AXIS2_PLACEMENT_3D('',#1465,#1159,#1160);
#1029=AXIS2_PLACEMENT_3D('',#1466,#1161,#1162);
#1030=AXIS2_PLACEMENT_3D('',#1467,#1163,#1164);
#1031=AXIS2_PLACEMENT_3D('',#1469,#1165,#1166);
#1032=AXIS2_PLACEMENT_3D('',#1471,#1167,#1168);
#1033=AXIS2_PLACEMENT_3D('',#1472,#1169,#1170);
#1034=AXIS2_PLACEMENT_3D('',#1474,#1171,#1172);
#1035=AXIS2_PLACEMENT_3D('',#1476,#1173,#1174);
#1036=AXIS2_PLACEMENT_3D('',#1477,#1175,#1176);
#1037=AXIS2_PLACEMENT_3D('',#1479,#1177,#1178);
#1038=AXIS2_PLACEMENT_3D('',#1481,#1179,#1180);
#1039=AXIS2_PLACEMENT_3D('',#1482,#1181,#1182);
#1040=AXIS2_PLACEMENT_3D('',#1484,#1183,#1184);
#1041=AXIS2_PLACEMENT_3D('',#1486,#1185,#1186);
#1042=AXIS2_PLACEMENT_3D('',#1487,#1187,#1188);
#1043=AXIS2_PLACEMENT_3D('',#1489,#1189,#1190);
#1044=AXIS2_PLACEMENT_3D('',#1491,#1191,#1192);
#1045=AXIS2_PLACEMENT_3D('',#1492,#1193,#1194);
#1046=AXIS2_PLACEMENT_3D('',#1494,#1195,#1196);
#1047=AXIS2_PLACEMENT_3D('',#1496,#1197,#1198);
#1048=AXIS2_PLACEMENT_3D('',#1497,#1199,#1200);
#1049=AXIS2_PLACEMENT_3D('',#1499,#1201,#1202);
#1050=AXIS2_PLACEMENT_3D('',#1501,#1203,#1204);
#1051=AXIS2_PLACEMENT_3D('',#1503,#1205,#1206);
#1052=AXIS2_PLACEMENT_3D('',#1517,#1213,#1214);
#1053=AXIS2_PLACEMENT_3D('',#1526,#1219,#1220);
#1054=AXIS2_PLACEMENT_3D('',#1532,#1224,#1225);
#1055=AXIS2_PLACEMENT_3D('',#1538,#1229,#1230);
#1056=AXIS2_PLACEMENT_3D('',#1539,#1231,#1232);
#1057=AXIS2_PLACEMENT_3D('',#1541,#1233,#1234);
#1058=AXIS2_PLACEMENT_3D('',#1543,#1235,#1236);
#1059=AXIS2_PLACEMENT_3D('',#1544,#1237,#1238);
#1060=AXIS2_PLACEMENT_3D('',#1570,#1239,#1240);
#1061=AXIS2_PLACEMENT_3D('',#1572,#1241,#1242);
#1062=AXIS2_PLACEMENT_3D('',#1573,#1243,#1244);
#1063=AXIS2_PLACEMENT_3D('',#1599,#1245,#1246);
#1064=AXIS2_PLACEMENT_3D('',#1601,#1247,#1248);
#1065=AXIS2_PLACEMENT_3D('',#1602,#1249,#1250);
#1066=AXIS2_PLACEMENT_3D('',#1604,#1251,#1252);
#1067=AXIS2_PLACEMENT_3D('',#1606,#1253,#1254);
#1068=AXIS2_PLACEMENT_3D('',#1615,#1259,#1260);
#1069=AXIS2_PLACEMENT_3D('',#1616,#1261,#1262);
#1070=AXIS2_PLACEMENT_3D('',#1618,#1263,#1264);
#1071=AXIS2_PLACEMENT_3D('',#1620,#1265,#1266);
#1072=AXIS2_PLACEMENT_3D('',#1621,#1267,#1268);
#1073=AXIS2_PLACEMENT_3D('',#1623,#1269,#1270);
#1074=AXIS2_PLACEMENT_3D('',#1625,#1271,#1272);
#1075=AXIS2_PLACEMENT_3D('',#1626,#1273,#1274);
#1076=AXIS2_PLACEMENT_3D('',#1628,#1275,#1276);
#1077=AXIS2_PLACEMENT_3D('',#1630,#1277,#1278);
#1078=AXIS2_PLACEMENT_3D('',#1637,#1282,#1283);
#1079=AXIS2_PLACEMENT_3D('',#1638,#1284,#1285);
#1080=AXIS2_PLACEMENT_3D('',#1641,#1287,#1288);
#1081=AXIS2_PLACEMENT_3D('',#1645,#1290,#1291);
#1082=AXIS2_PLACEMENT_3D('',#1650,#1294,#1295);
#1083=AXIS2_PLACEMENT_3D('',#1652,#1296,#1297);
#1084=AXIS2_PLACEMENT_3D('',#1654,#1298,#1299);
#1085=AXIS2_PLACEMENT_3D('',#1655,#1300,#1301);
#1086=AXIS2_PLACEMENT_3D('',#1657,#1302,#1303);
#1087=AXIS2_PLACEMENT_3D('',#1659,#1304,#1305);
#1088=AXIS2_PLACEMENT_3D('',#1663,#1307,#1308);
#1089=AXIS2_PLACEMENT_3D('',#1667,#1311,#1312);
#1090=AXIS2_PLACEMENT_3D('',#1671,#1315,#1316);
#1091=AXIS2_PLACEMENT_3D('',#1672,#1317,#1318);
#1092=AXIS2_PLACEMENT_3D('',#1673,#1319,#1320);
#1093=AXIS2_PLACEMENT_3D('',#1674,#1321,#1322);
#1094=AXIS2_PLACEMENT_3D('',#1679,#1325,#1326);
#1095=AXIS2_PLACEMENT_3D('',#1682,#1328,#1329);
#1096=AXIS2_PLACEMENT_3D('',#1683,#1330,#1331);
#1097=AXIS2_PLACEMENT_3D('',#1684,#1332,#1333);
#1098=AXIS2_PLACEMENT_3D('',#1688,#1336,#1337);
#1099=AXIS2_PLACEMENT_3D('',#1689,#1338,#1339);
#1100=AXIS2_PLACEMENT_3D('',#1691,#1341,#1342);
#1101=AXIS2_PLACEMENT_3D('',#1692,#1343,#1344);
#1102=AXIS2_PLACEMENT_3D('',#1693,#1345,#1346);
#1103=AXIS2_PLACEMENT_3D('',#1695,#1347,#1348);
#1104=AXIS2_PLACEMENT_3D('',#1696,#1349,#1350);
#1105=AXIS2_PLACEMENT_3D('',#1697,#1351,#1352);
#1106=AXIS2_PLACEMENT_3D('',#1699,#1353,#1354);
#1107=AXIS2_PLACEMENT_3D('',#1700,#1355,#1356);
#1108=AXIS2_PLACEMENT_3D('',#1701,#1357,#1358);
#1109=AXIS2_PLACEMENT_3D('',#1703,#1359,#1360);
#1110=AXIS2_PLACEMENT_3D('',#1704,#1361,#1362);
#1111=AXIS2_PLACEMENT_3D('',#1705,#1363,#1364);
#1112=AXIS2_PLACEMENT_3D('',#1707,#1365,#1366);
#1113=AXIS2_PLACEMENT_3D('',#1708,#1367,#1368);
#1114=AXIS2_PLACEMENT_3D('',#1709,#1369,#1370);
#1115=AXIS2_PLACEMENT_3D('',#1713,#1372,#1373);
#1116=AXIS2_PLACEMENT_3D('',#1718,#1376,#1377);
#1117=AXIS2_PLACEMENT_3D('',#1719,#1378,#1379);
#1118=AXIS2_PLACEMENT_3D('',#1721,#1380,#1381);
#1119=AXIS2_PLACEMENT_3D('',#1723,#1382,#1383);
#1120=AXIS2_PLACEMENT_3D('',#1725,#1384,#1385);
#1121=AXIS2_PLACEMENT_3D('',#1727,#1386,#1387);
#1122=AXIS2_PLACEMENT_3D('',#1729,#1388,#1389);
#1123=AXIS2_PLACEMENT_3D('',#1736,#1393,#1394);
#1124=AXIS2_PLACEMENT_3D('',#1737,#1395,#1396);
#1125=AXIS2_PLACEMENT_3D('',#1739,#1397,#1398);
#1126=AXIS2_PLACEMENT_3D('',#1740,#1399,#1400);
#1127=AXIS2_PLACEMENT_3D('',#1741,#1401,#1402);
#1128=AXIS2_PLACEMENT_3D('',#1743,#1403,#1404);
#1129=AXIS2_PLACEMENT_3D('',#1744,#1405,#1406);
#1130=AXIS2_PLACEMENT_3D('',#1745,#1407,#1408);
#1131=AXIS2_PLACEMENT_3D('',#1747,#1409,#1410);
#1132=AXIS2_PLACEMENT_3D('',#1748,#1411,#1412);
#1133=AXIS2_PLACEMENT_3D('',#1749,#1413,#1414);
#1134=AXIS2_PLACEMENT_3D('',#1751,#1415,#1416);
#1135=AXIS2_PLACEMENT_3D('',#1752,#1417,#1418);
#1136=AXIS2_PLACEMENT_3D('',#1753,#1419,#1420);
#1137=AXIS2_PLACEMENT_3D('',#1755,#1421,#1422);
#1138=AXIS2_PLACEMENT_3D('',#1756,#1423,#1424);
#1139=AXIS2_PLACEMENT_3D('',#1757,#1425,#1426);
#1140=AXIS2_PLACEMENT_3D('',#1759,#1427,#1428);
#1141=AXIS2_PLACEMENT_3D('',#1760,#1429,#1430);
#1142=AXIS2_PLACEMENT_3D('',#1761,#1431,#1432);
#1143=AXIS2_PLACEMENT_3D('',#1762,#1433,#1434);
#1144=AXIS2_PLACEMENT_3D('',#1763,#1435,#1436);
#1145=AXIS2_PLACEMENT_3D('',#1764,#1437,#1438);
#1146=AXIS2_PLACEMENT_3D('',#1772,#1439,#1440);
#1147=AXIS2_PLACEMENT_3D('',#1773,#1441,#1442);
#1148=AXIS2_PLACEMENT_3D('',#1774,#1443,#1444);
#1149=AXIS2_PLACEMENT_3D('',#1775,#1445,#1446);
#1150=AXIS2_PLACEMENT_3D('',#1776,#1447,#1448);
#1151=AXIS2_PLACEMENT_3D('',#1777,#1449,#1450);
#1152=AXIS2_PLACEMENT_3D('',#1778,#1451,#1452);
#1153=AXIS2_PLACEMENT_3D('',#1779,#1453,#1454);
#1154=AXIS2_PLACEMENT_3D('',#1780,#1455,#1456);
#1155=AXIS2_PLACEMENT_3D('',#1781,#1457,#1458);
#1156=AXIS2_PLACEMENT_3D('',#1782,#1459,#1460);
#1157=AXIS2_PLACEMENT_3D('',#1783,#1461,#1462);
#1158=AXIS2_PLACEMENT_3D('',#1784,#1463,#1464);
#1159=DIRECTION('',(0.,0.,1.));
#1160=DIRECTION('',(1.,0.,0.));
#1161=DIRECTION('',(-3.19330894433465E-27,-1.,1.55740864212744E-26));
#1162=DIRECTION('',(0.,1.55740864212744E-26,1.));
#1163=DIRECTION('',(3.19330894433465E-27,1.,-1.55740864212744E-26));
#1164=DIRECTION('',(0.,1.55740864212744E-26,1.));
#1165=DIRECTION('',(3.19330894433465E-27,1.,-1.55740864212744E-26));
#1166=DIRECTION('',(0.,1.55740864212744E-26,1.));
#1167=DIRECTION('',(-3.19330894433465E-27,-1.,1.55740864212744E-26));
#1168=DIRECTION('',(0.,1.55740864212744E-26,1.));
#1169=DIRECTION('',(3.19330894433465E-27,1.,-1.55740864212744E-26));
#1170=DIRECTION('',(0.,1.55740864212744E-26,1.));
#1171=DIRECTION('',(3.19330894433465E-27,1.,-1.55740864212744E-26));
#1172=DIRECTION('',(0.,1.55740864212744E-26,1.));
#1173=DIRECTION('',(-3.19330894433465E-27,-1.,1.55740864212744E-26));
#1174=DIRECTION('',(0.,1.55740864212744E-26,1.));
#1175=DIRECTION('',(3.19330894433465E-27,1.,-1.55740864212744E-26));
#1176=DIRECTION('',(0.,1.55740864212744E-26,1.));
#1177=DIRECTION('',(3.19330894433465E-27,1.,-1.55740864212744E-26));
#1178=DIRECTION('',(0.,1.55740864212744E-26,1.));
#1179=DIRECTION('',(-3.19330894433465E-27,-1.,1.55740864212744E-26));
#1180=DIRECTION('',(0.,1.55740864212744E-26,1.));
#1181=DIRECTION('',(3.19330894433465E-27,1.,-1.55740864212744E-26));
#1182=DIRECTION('',(0.,1.55740864212744E-26,1.));
#1183=DIRECTION('',(3.19330894433465E-27,1.,-1.55740864212744E-26));
#1184=DIRECTION('',(0.,1.55740864212744E-26,1.));
#1185=DIRECTION('',(-3.19330894433465E-27,-1.,1.55740864212744E-26));
#1186=DIRECTION('',(0.,1.55740864212744E-26,1.));
#1187=DIRECTION('',(3.19330894433465E-27,1.,-1.55740864212744E-26));
#1188=DIRECTION('',(0.,1.55740864212744E-26,1.));
#1189=DIRECTION('',(3.19330894433465E-27,1.,-1.55740864212744E-26));
#1190=DIRECTION('',(0.,1.55740864212744E-26,1.));
#1191=DIRECTION('',(-3.19330894433465E-27,-1.,1.55740864212744E-26));
#1192=DIRECTION('',(0.,1.55740864212744E-26,1.));
#1193=DIRECTION('',(3.19330894433465E-27,1.,-1.55740864212744E-26));
#1194=DIRECTION('',(0.,1.55740864212744E-26,1.));
#1195=DIRECTION('',(3.19330894433465E-27,1.,-1.55740864212744E-26));
#1196=DIRECTION('',(0.,1.55740864212744E-26,1.));
#1197=DIRECTION('',(-3.19330894433465E-27,-1.,1.55740864212744E-26));
#1198=DIRECTION('',(1.,-3.19330894433465E-27,4.97328694688964E-53));
#1199=DIRECTION('',(3.19330894433465E-27,1.,-1.55740864212744E-26));
#1200=DIRECTION('',(0.,1.55740864212744E-26,1.));
#1201=DIRECTION('',(3.19330894433465E-27,1.,-1.55740864212744E-26));
#1202=DIRECTION('',(0.,1.55740864212744E-26,1.));
#1203=DIRECTION('',(3.19330894433465E-27,1.,-1.55740864212744E-26));
#1204=DIRECTION('',(0.,1.55740864212744E-26,1.));
#1205=DIRECTION('',(3.19330894433465E-27,1.,-1.55740864212744E-26));
#1206=DIRECTION('',(0.,1.55740864212744E-26,1.));
#1207=DIRECTION('',(1.,-3.19330894433465E-27,3.31088138998023E-53));
#1208=DIRECTION('',(-9.69248941243797E-59,1.55740864212744E-26,1.));
#1209=DIRECTION('',(1.,-3.19330894433465E-27,3.31088138998023E-53));
#1210=DIRECTION('',(1.66246459190996E-53,1.55740864212744E-26,1.));
#1211=DIRECTION('',(1.,-3.19330894433465E-27,3.31088138998023E-53));
#1212=DIRECTION('',(-1.66240555690942E-53,-1.55740864212744E-26,-1.));
#1213=DIRECTION('',(-1.,3.19330894433465E-27,-4.97330044195919E-53));
#1214=DIRECTION('',(-3.19330894433465E-27,-1.,1.03679988773198E-26));
#1215=DIRECTION('',(3.19330894433465E-27,1.,-1.55740864212744E-26));
#1216=DIRECTION('',(1.349506954497E-58,-1.55740864212744E-26,-1.));
#1217=DIRECTION('',(3.19330894433465E-27,1.,-1.55740864212744E-26));
#1218=DIRECTION('',(1.34950695451321E-58,-1.55740864212744E-26,-1.));
#1219=DIRECTION('',(-0.426016273681316,-1.27297157945965E-26,-0.904715499236465));
#1220=DIRECTION('',(-0.904715499236465,4.41693624724783E-27,0.426016273681316));
#1221=DIRECTION('',(3.19330894433465E-27,1.,-1.55740864212744E-26));
#1222=DIRECTION('',(0.904715499236465,-9.5238503589721E-27,-0.426016273681316));
#1223=DIRECTION('',(0.904715499236465,-9.5238503589721E-27,-0.426016273681316));
#1224=DIRECTION('',(-0.0920654113917342,1.58019359758719E-26,0.995752961343963));
#1225=DIRECTION('',(0.995752961343963,9.54534081949482E-28,0.0920654113917342));
#1226=DIRECTION('',(-0.995752961343963,1.74591216438234E-27,-0.0920654113917342));
#1227=DIRECTION('',(3.19330894433465E-27,1.,-1.55740864212744E-26));
#1228=DIRECTION('',(-0.995752961343963,1.74591216438234E-27,-0.0920654113917342));
#1229=DIRECTION('',(3.19330894433465E-27,1.,-1.55740864212744E-26));
#1230=DIRECTION('',(0.,-1.55740864212744E-26,-1.));
#1231=DIRECTION('',(3.19330894433465E-27,1.,-1.55740864212744E-26));
#1232=DIRECTION('',(0.,1.55740864212744E-26,1.));
#1233=DIRECTION('',(3.19330894433465E-27,1.,-1.55740864212744E-26));
#1234=DIRECTION('',(0.,1.55740864212744E-26,1.));
#1235=DIRECTION('',(3.19330894433465E-27,1.,-1.55740864212744E-26));
#1236=DIRECTION('',(0.,-1.55740864212744E-26,-1.));
#1237=DIRECTION('',(3.19330894433465E-27,1.,-1.55740864212744E-26));
#1238=DIRECTION('',(0.,1.55740864212744E-26,1.));
#1239=DIRECTION('',(3.19330894433465E-27,1.,-1.55740864212744E-26));
#1240=DIRECTION('',(0.,1.55740864212744E-26,1.));
#1241=DIRECTION('',(3.19330894433465E-27,1.,-1.55740864212744E-26));
#1242=DIRECTION('',(0.,-1.55740864212744E-26,-1.));
#1243=DIRECTION('',(3.19330894433465E-27,1.,-1.55740864212744E-26));
#1244=DIRECTION('',(0.,1.55740864212744E-26,1.));
#1245=DIRECTION('',(3.19330894433465E-27,1.,-1.55740864212744E-26));
#1246=DIRECTION('',(0.,1.55740864212744E-26,1.));
#1247=DIRECTION('',(3.19330894433465E-27,1.,-1.55740864212744E-26));
#1248=DIRECTION('',(0.,-1.55740864212744E-26,-1.));
#1249=DIRECTION('',(3.19330894433465E-27,1.,-1.55740864212744E-26));
#1250=DIRECTION('',(0.,1.55740864212744E-26,1.));
#1251=DIRECTION('',(3.19330894433465E-27,1.,-1.55740864212744E-26));
#1252=DIRECTION('',(0.,1.55740864212744E-26,1.));
#1253=DIRECTION('',(3.19330894433465E-27,1.,-1.55740864212744E-26));
#1254=DIRECTION('',(1.,-3.19330894433465E-27,4.97328694688964E-53));
#1255=DIRECTION('',(1.,-3.19330894433465E-27,3.31088138998023E-53));
#1256=DIRECTION('',(-9.6924894123972E-59,1.55740864212744E-26,1.));
#1257=DIRECTION('',(1.,-3.19330894433465E-27,3.31088138998023E-53));
#1258=DIRECTION('',(9.69248941243797E-59,-1.55740864212744E-26,-1.));
#1259=DIRECTION('',(1.66240555690942E-53,1.55740864212744E-26,1.));
#1260=DIRECTION('',(0.,1.,-1.55740864212744E-26));
#1261=DIRECTION('',(-1.66240555690942E-53,-1.55740864212744E-26,-1.));
#1262=DIRECTION('',(0.,1.,-1.55740864212744E-26));
#1263=DIRECTION('',(1.66240555690942E-53,1.55740864212744E-26,1.));
#1264=DIRECTION('',(0.,-1.,1.55740864212744E-26));
#1265=DIRECTION('',(1.66240555690942E-53,1.55740864212744E-26,1.));
#1266=DIRECTION('',(0.,1.,-1.55740864212744E-26));
#1267=DIRECTION('',(-1.66240555690942E-53,-1.55740864212744E-26,-1.));
#1268=DIRECTION('',(0.,1.,-1.55740864212744E-26));
#1269=DIRECTION('',(1.66240555690942E-53,1.55740864212744E-26,1.));
#1270=DIRECTION('',(0.,-1.,1.55740864212744E-26));
#1271=DIRECTION('',(1.66240555690942E-53,1.55740864212744E-26,1.));
#1272=DIRECTION('',(0.,1.,-1.55740864212744E-26));
#1273=DIRECTION('',(-1.66240555690942E-53,-1.55740864212744E-26,-1.));
#1274=DIRECTION('',(0.,1.,-1.55740864212744E-26));
#1275=DIRECTION('',(1.66240555690942E-53,1.55740864212744E-26,1.));
#1276=DIRECTION('',(0.,-1.,1.55740864212744E-26));
#1277=DIRECTION('',(-3.19330894433465E-27,-1.,1.55740864212744E-26));
#1278=DIRECTION('',(1.,-3.19330894433465E-27,4.97328694688964E-53));
#1279=DIRECTION('',(1.,-3.19330894433465E-27,3.31088138998023E-53));
#1280=DIRECTION('',(-9.69248941243797E-59,1.55740864212744E-26,1.));
#1281=DIRECTION('',(1.,-3.19330894433465E-27,3.31088138998023E-53));
#1282=DIRECTION('',(3.19330894433465E-27,1.,-1.55740864212744E-26));
#1283=DIRECTION('',(0.,1.55740864212744E-26,1.));
#1284=DIRECTION('',(-1.66240555690942E-53,-1.55740864212744E-26,-1.));
#1285=DIRECTION('',(0.,-1.,1.55740864212744E-26));
#1286=DIRECTION('',(3.19330894433465E-27,1.,-1.55740864212744E-26));
#1287=DIRECTION('',(1.66240555690942E-53,1.55740864212744E-26,1.));
#1288=DIRECTION('',(0.,-1.,1.55740864212744E-26));
#1289=DIRECTION('',(3.30423519233678E-16,-1.,1.55740864212744E-26));
#1290=DIRECTION('',(1.66240555690942E-53,1.55740864212744E-26,1.));
#1291=DIRECTION('',(0.,-1.,1.55740864212744E-26));
#1292=DIRECTION('',(3.30423519233678E-16,-1.,1.55740864212744E-26));
#1293=DIRECTION('',(1.,-3.19330894433465E-27,3.31088138998023E-53));
#1294=DIRECTION('',(1.66240555690942E-53,1.55740864212744E-26,1.));
#1295=DIRECTION('',(0.,-1.,1.55740864212744E-26));
#1296=DIRECTION('',(1.66240555690942E-53,1.55740864212744E-26,1.));
#1297=DIRECTION('',(0.,-1.,1.55740864212744E-26));
#1298=DIRECTION('',(-1.66240555690942E-53,-1.55740864212744E-26,-1.));
#1299=DIRECTION('',(0.,-1.,1.55740864212744E-26));
#1300=DIRECTION('',(-1.66240555690942E-53,-1.55740864212744E-26,-1.));
#1301=DIRECTION('',(0.,1.,-1.55740864212744E-26));
#1302=DIRECTION('',(-1.66240555690942E-53,-1.55740864212744E-26,-1.));
#1303=DIRECTION('',(0.,1.,-1.55740864212744E-26));
#1304=DIRECTION('',(-1.66240555690942E-53,-1.55740864212744E-26,-1.));
#1305=DIRECTION('',(0.,1.,-1.55740864212744E-26));
#1306=DIRECTION('',(3.19330894433465E-27,1.,-1.55740864212744E-26));
#1307=DIRECTION('',(1.66240555690942E-53,1.55740864212744E-26,1.));
#1308=DIRECTION('',(0.,-1.,1.55740864212744E-26));
#1309=DIRECTION('',(3.19330894433465E-27,1.,-1.55740864212744E-26));
#1310=DIRECTION('',(1.,-3.19330894433465E-27,3.31088138998023E-53));
#1311=DIRECTION('',(1.,-3.19330894433465E-27,4.97329663937906E-53));
#1312=DIRECTION('',(3.19330894433465E-27,1.,-1.03679988773198E-26));
#1313=DIRECTION('',(3.19330894433465E-27,1.,-1.55740864212744E-26));
#1314=DIRECTION('',(-9.69248941243797E-59,1.55740864212744E-26,1.));
#1315=DIRECTION('',(1.66240555690942E-53,1.55740864212744E-26,1.));
#1316=DIRECTION('',(0.,1.,-1.55740864212744E-26));
#1317=DIRECTION('',(1.66240555690942E-53,1.55740864212744E-26,1.));
#1318=DIRECTION('',(0.,1.,-1.55740864212744E-26));
#1319=DIRECTION('',(1.66240555690942E-53,1.55740864212744E-26,1.));
#1320=DIRECTION('',(0.,1.,-1.55740864212744E-26));
#1321=DIRECTION('',(1.66240555690942E-53,1.55740864212744E-26,1.));
#1322=DIRECTION('',(0.,-1.,1.55740864212744E-26));
#1323=DIRECTION('',(-1.66240555690942E-53,-1.55740864212744E-26,-1.));
#1324=DIRECTION('',(-1.66240555690942E-53,-1.55740864212744E-26,-1.));
#1325=DIRECTION('',(-1.,-3.30423519233678E-16,5.14604444418355E-42));
#1326=DIRECTION('',(3.30423519233678E-16,-1.,1.03679988773198E-26));
#1327=DIRECTION('',(3.30423519233678E-16,-1.,1.55740864212744E-26));
#1328=DIRECTION('',(1.,3.30423519233678E-16,-5.14604444418355E-42));
#1329=DIRECTION('',(3.30423519233678E-16,-1.,1.03679988773198E-26));
#1330=DIRECTION('',(1.,3.30423519233678E-16,-5.14604444418355E-42));
#1331=DIRECTION('',(3.30423519233678E-16,-1.,1.03679988773198E-26));
#1332=DIRECTION('',(-1.,-3.30423519233678E-16,5.14604444418355E-42));
#1333=DIRECTION('',(3.30423519233678E-16,-1.,1.03679988773198E-26));
#1334=DIRECTION('',(3.30423519233678E-16,-1.,1.55740864212744E-26));
#1335=DIRECTION('',(-9.69248941243797E-59,1.55740864212744E-26,1.));
#1336=DIRECTION('',(-1.66240555690942E-53,-1.55740864212744E-26,-1.));
#1337=DIRECTION('',(-1.,2.58904478105141E-79,1.66240555690942E-53));
#1338=DIRECTION('',(1.66240555690942E-53,1.55740864212744E-26,1.));
#1339=DIRECTION('',(0.,-1.,1.55740864212744E-26));
#1340=DIRECTION('',(1.,-3.19330894433465E-27,3.31088138998023E-53));
#1341=DIRECTION('',(-9.69248941243797E-59,1.55740864212744E-26,1.));
#1342=DIRECTION('',(0.,1.,-1.55740864212744E-26));
#1343=DIRECTION('',(-3.19330894433465E-27,-1.,1.55740864212744E-26));
#1344=DIRECTION('',(0.,1.55740864212744E-26,1.));
#1345=DIRECTION('',(3.19330894433465E-27,1.,-1.55740864212744E-26));
#1346=DIRECTION('',(0.,1.55740864212744E-26,1.));
#1347=DIRECTION('',(-3.19330894433465E-27,-1.,1.55740864212744E-26));
#1348=DIRECTION('',(1.,-3.19330894433465E-27,4.97328694688964E-53));
#1349=DIRECTION('',(-3.19330894433465E-27,-1.,1.55740864212744E-26));
#1350=DIRECTION('',(0.,1.55740864212744E-26,1.));
#1351=DIRECTION('',(3.19330894433465E-27,1.,-1.55740864212744E-26));
#1352=DIRECTION('',(0.,1.55740864212744E-26,1.));
#1353=DIRECTION('',(-3.19330894433465E-27,-1.,1.55740864212744E-26));
#1354=DIRECTION('',(1.,-3.19330894433465E-27,4.97328694688964E-53));
#1355=DIRECTION('',(-3.19330894433465E-27,-1.,1.55740864212744E-26));
#1356=DIRECTION('',(0.,1.55740864212744E-26,1.));
#1357=DIRECTION('',(3.19330894433465E-27,1.,-1.55740864212744E-26));
#1358=DIRECTION('',(0.,1.55740864212744E-26,1.));
#1359=DIRECTION('',(-3.19330894433465E-27,-1.,1.55740864212744E-26));
#1360=DIRECTION('',(1.,-3.19330894433465E-27,4.97328694688964E-53));
#1361=DIRECTION('',(-3.19330894433465E-27,-1.,1.55740864212744E-26));
#1362=DIRECTION('',(0.,1.55740864212744E-26,1.));
#1363=DIRECTION('',(3.19330894433465E-27,1.,-1.55740864212744E-26));
#1364=DIRECTION('',(0.,1.55740864212744E-26,1.));
#1365=DIRECTION('',(-3.19330894433465E-27,-1.,1.55740864212744E-26));
#1366=DIRECTION('',(1.,-3.19330894433465E-27,4.97328694688964E-53));
#1367=DIRECTION('',(-1.,3.19330894433465E-27,-3.31082235497968E-53));
#1368=DIRECTION('',(-3.19330894433465E-27,-1.,1.03679988773198E-26));
#1369=DIRECTION('',(1.,-3.19330894433465E-27,3.31082235497968E-53));
#1370=DIRECTION('',(1.66246459190996E-53,1.55740864212744E-26,1.));
#1371=DIRECTION('',(1.66246459190996E-53,1.55740864212744E-26,1.));
#1372=DIRECTION('',(1.,-3.19330894433465E-27,3.31082235497968E-53));
#1373=DIRECTION('',(1.66246459190996E-53,1.55740864212744E-26,1.));
#1374=DIRECTION('',(3.19330894433465E-27,1.,-1.55740864212744E-26));
#1375=DIRECTION('',(1.66246459190996E-53,1.55740864212744E-26,1.));
#1376=DIRECTION('',(-3.19330894433465E-27,-1.,1.55740864212744E-26));
#1377=DIRECTION('',(1.,-3.19330894433465E-27,4.97328694688964E-53));
#1378=DIRECTION('',(3.19330894433465E-27,1.,-1.55740864212744E-26));
#1379=DIRECTION('',(0.,1.55740864212744E-26,1.));
#1380=DIRECTION('',(3.19330894433465E-27,1.,-1.55740864212744E-26));
#1381=DIRECTION('',(0.,1.55740864212744E-26,1.));
#1382=DIRECTION('',(3.19330894433465E-27,1.,-1.55740864212744E-26));
#1383=DIRECTION('',(0.,1.55740864212744E-26,1.));
#1384=DIRECTION('',(3.19330894433465E-27,1.,-1.55740864212744E-26));
#1385=DIRECTION('',(0.,1.55740864212744E-26,1.));
#1386=DIRECTION('',(3.19330894433465E-27,1.,-1.55740864212744E-26));
#1387=DIRECTION('',(0.,1.55740864212744E-26,1.));
#1388=DIRECTION('',(3.19330894433465E-27,1.,-1.55740864212744E-26));
#1389=DIRECTION('',(0.,1.55740864212744E-26,1.));
#1390=DIRECTION('',(0.904715499236465,-9.5238503589721E-27,-0.426016273681316));
#1391=DIRECTION('',(1.34950695451321E-58,-1.55740864212744E-26,-1.));
#1392=DIRECTION('',(-0.995752961343963,1.74591216438234E-27,-0.0920654113917342));
#1393=DIRECTION('',(-3.19330894433465E-27,-1.,1.55740864212744E-26));
#1394=DIRECTION('',(0.,1.55740864212744E-26,1.));
#1395=DIRECTION('',(3.19330894433465E-27,1.,-1.55740864212744E-26));
#1396=DIRECTION('',(0.,1.55740864212744E-26,1.));
#1397=DIRECTION('',(-3.19330894433465E-27,-1.,1.55740864212744E-26));
#1398=DIRECTION('',(1.,-3.19330894433465E-27,4.97328694688964E-53));
#1399=DIRECTION('',(-3.19330894433465E-27,-1.,1.55740864212744E-26));
#1400=DIRECTION('',(0.,1.55740864212744E-26,1.));
#1401=DIRECTION('',(3.19330894433465E-27,1.,-1.55740864212744E-26));
#1402=DIRECTION('',(0.,1.55740864212744E-26,1.));
#1403=DIRECTION('',(-3.19330894433465E-27,-1.,1.55740864212744E-26));
#1404=DIRECTION('',(1.,-3.19330894433465E-27,4.97328694688964E-53));
#1405=DIRECTION('',(-3.19330894433465E-27,-1.,1.55740864212744E-26));
#1406=DIRECTION('',(0.,1.55740864212744E-26,1.));
#1407=DIRECTION('',(3.19330894433465E-27,1.,-1.55740864212744E-26));
#1408=DIRECTION('',(0.,1.55740864212744E-26,1.));
#1409=DIRECTION('',(-3.19330894433465E-27,-1.,1.55740864212744E-26));
#1410=DIRECTION('',(1.,-3.19330894433465E-27,4.97328694688964E-53));
#1411=DIRECTION('',(-3.19330894433465E-27,-1.,1.55740864212744E-26));
#1412=DIRECTION('',(0.,1.55740864212744E-26,1.));
#1413=DIRECTION('',(3.19330894433465E-27,1.,-1.55740864212744E-26));
#1414=DIRECTION('',(0.,1.55740864212744E-26,1.));
#1415=DIRECTION('',(-3.19330894433465E-27,-1.,1.55740864212744E-26));
#1416=DIRECTION('',(1.,-3.19330894433465E-27,4.97328694688964E-53));
#1417=DIRECTION('',(-3.19330894433465E-27,-1.,1.55740864212744E-26));
#1418=DIRECTION('',(0.,1.55740864212744E-26,1.));
#1419=DIRECTION('',(3.19330894433465E-27,1.,-1.55740864212744E-26));
#1420=DIRECTION('',(0.,1.55740864212744E-26,1.));
#1421=DIRECTION('',(-3.19330894433465E-27,-1.,1.55740864212744E-26));
#1422=DIRECTION('',(1.,-3.19330894433465E-27,4.97328694688964E-53));
#1423=DIRECTION('',(-3.19330894433465E-27,-1.,1.55740864212744E-26));
#1424=DIRECTION('',(0.,1.55740864212744E-26,1.));
#1425=DIRECTION('',(3.19330894433465E-27,1.,-1.55740864212744E-26));
#1426=DIRECTION('',(0.,1.55740864212744E-26,1.));
#1427=DIRECTION('',(-3.19330894433465E-27,-1.,1.55740864212744E-26));
#1428=DIRECTION('',(1.,-3.19330894433465E-27,4.97328694688964E-53));
#1429=DIRECTION('',(-0.904715499236465,9.5238503589721E-27,0.426016273681316));
#1430=DIRECTION('',(0.426016273681316,9.38008928037745E-27,0.904715499236465));
#1431=DIRECTION('',(0.844398091447783,5.64686665380245E-27,0.535716215135721));
#1432=DIRECTION('',(-0.535716215135721,1.4861436231585E-26,0.844398091447783));
#1433=DIRECTION('',(1.34950695451321E-58,-1.55740864212744E-26,-1.));
#1434=DIRECTION('',(0.,-1.,1.55740864212744E-26));
#1435=DIRECTION('',(-0.738940258543184,1.28530315547129E-26,0.673770950920365));
#1436=DIRECTION('',(-0.673770950920365,-9.35676064270355E-27,-0.738940258543184));
#1437=DIRECTION('',(0.995752961343963,-1.74591216438234E-27,0.0920654113917342));
#1438=DIRECTION('',(0.0920654113917342,-1.0323965585302E-26,-0.995752961343963));
#1439=DIRECTION('',(3.19330894433465E-27,1.,-1.55740864212744E-26));
#1440=DIRECTION('',(0.,-1.55740864212744E-26,-1.));
#1441=DIRECTION('',(0.,1.,-1.03679988773198E-26));
#1442=DIRECTION('',(1.,0.,0.));
#1443=DIRECTION('',(1.,-3.19330894433465E-27,3.31088138998023E-53));
#1444=DIRECTION('',(3.19330894433465E-27,1.,-1.03679988773198E-26));
#1445=DIRECTION('',(1.,-8.99280552569387E-42,-8.67361737988403E-16));
#1446=DIRECTION('',(8.67361737988403E-16,1.03679988773198E-26,1.));
#1447=DIRECTION('',(0.,-1.03679988773198E-26,-1.));
#1448=DIRECTION('',(0.,-1.,1.03679988773198E-26));
#1449=DIRECTION('',(0.,1.03679988773198E-26,1.));
#1450=DIRECTION('',(0.,-1.,1.03679988773198E-26));
#1451=DIRECTION('',(1.66246459190996E-53,1.55740864212744E-26,1.));
#1452=DIRECTION('',(0.,1.,-1.55740864212744E-26));
#1453=DIRECTION('',(-0.707106781186548,-8.75453171030579E-27,-0.707106781186548));
#1454=DIRECTION('',(-0.707106781186548,1.32705525282312E-26,0.707106781186548));
#1455=DIRECTION('',(-1.,3.19330894433465E-27,-3.31088138998023E-53));
#1456=DIRECTION('',(-3.19330894433465E-27,-1.,1.03679988773198E-26));
#1457=DIRECTION('',(0.707106781186548,-1.32705525282312E-26,-0.707106781186548));
#1458=DIRECTION('',(-0.707106781186548,-8.75453171030579E-27,-0.707106781186548));
#1459=DIRECTION('',(-9.69248941243797E-59,1.55740864212744E-26,1.));
#1460=DIRECTION('',(0.,1.,-1.55740864212744E-26));
#1461=DIRECTION('',(-0.707106781186548,-8.75453171030579E-27,-0.707106781186548));
#1462=DIRECTION('',(-0.707106781186548,1.32705525282312E-26,0.707106781186548));
#1463=DIRECTION('',(1.,-3.19330894433465E-27,3.31088138998023E-53));
#1464=DIRECTION('',(3.19330894433465E-27,1.,-1.03679988773198E-26));
#1465=CARTESIAN_POINT('',(0.,0.,0.));
#1466=CARTESIAN_POINT('',(-0.117139846682549,-0.509560750795287,0.0199953806971329));
#1467=CARTESIAN_POINT('',(-0.117139846682549,-0.738195367020017,0.0199953806971329));
#1468=CARTESIAN_POINT('',(-0.117139846682549,-0.738195367020017,0.0226453806971329));
#1469=CARTESIAN_POINT('',(-0.117139846682549,-0.756695367020017,0.0199953806971329));
#1470=CARTESIAN_POINT('',(-0.117139846682549,-0.756695367020017,0.0226453806971329));
#1471=CARTESIAN_POINT('',(-0.0921398466825487,-0.509560750795287,0.0549953806971328));
#1472=CARTESIAN_POINT('',(-0.0921398466825487,-0.738195367020017,0.0549953806971328));
#1473=CARTESIAN_POINT('',(-0.0921398466825487,-0.738195367020017,0.0576453806971328));
#1474=CARTESIAN_POINT('',(-0.0921398466825487,-0.756695367020017,0.0549953806971328));
#1475=CARTESIAN_POINT('',(-0.0921398466825487,-0.756695367020017,0.0576453806971328));
#1476=CARTESIAN_POINT('',(-0.117139846682549,-0.509560750795287,0.0549953806971328));
#1477=CARTESIAN_POINT('',(-0.117139846682549,-0.738195367020017,0.0549953806971328));
#1478=CARTESIAN_POINT('',(-0.117139846682549,-0.738195367020017,0.0576453806971328));
#1479=CARTESIAN_POINT('',(-0.117139846682549,-0.756695367020017,0.0549953806971328));
#1480=CARTESIAN_POINT('',(-0.117139846682549,-0.756695367020017,0.0576453806971328));
#1481=CARTESIAN_POINT('',(-0.0921398466825487,-0.509560750795287,0.0199953806971329));
#1482=CARTESIAN_POINT('',(-0.0921398466825487,-0.738195367020017,0.0199953806971329));
#1483=CARTESIAN_POINT('',(-0.0921398466825487,-0.738195367020017,0.0226453806971329));
#1484=CARTESIAN_POINT('',(-0.0921398466825487,-0.756695367020017,0.0199953806971329));
#1485=CARTESIAN_POINT('',(-0.0921398466825487,-0.756695367020017,0.0226453806971329));
#1486=CARTESIAN_POINT('',(-0.0921398466825487,-0.509560750795287,-0.0150046193028672));
#1487=CARTESIAN_POINT('',(-0.0921398466825487,-0.738195367020017,-0.0150046193028672));
#1488=CARTESIAN_POINT('',(-0.0921398466825487,-0.738195367020017,-0.0123546193028672));
#1489=CARTESIAN_POINT('',(-0.0921398466825487,-0.756695367020017,-0.0150046193028672));
#1490=CARTESIAN_POINT('',(-0.0921398466825487,-0.756695367020017,-0.0123546193028672));
#1491=CARTESIAN_POINT('',(-0.117139846682549,-0.509560750795287,-0.0150046193028672));
#1492=CARTESIAN_POINT('',(-0.117139846682549,-0.738195367020017,-0.0150046193028672));
#1493=CARTESIAN_POINT('',(-0.117139846682549,-0.738195367020017,-0.0123546193028672));
#1494=CARTESIAN_POINT('',(-0.117139846682549,-0.756695367020017,-0.0150046193028672));
#1495=CARTESIAN_POINT('',(-0.117139846682549,-0.756695367020017,-0.0123546193028672));
#1496=CARTESIAN_POINT('',(0.032121506985277,-0.779195367020017,0.00682129710912705));
#1497=CARTESIAN_POINT('',(0.0325472869246985,-0.779195367020017,0.018));
#1498=CARTESIAN_POINT('',(0.0325472869246985,-0.779195367020017,0.022375));
#1499=CARTESIAN_POINT('',(0.0325472869246985,-0.779195367020017,-0.018));
#1500=CARTESIAN_POINT('',(0.0325472869246985,-0.779195367020017,-0.013625));
#1501=CARTESIAN_POINT('',(0.000547286924698513,-0.779195367020017,-0.018));
#1502=CARTESIAN_POINT('',(0.000547286924698513,-0.779195367020017,-0.013625));
#1503=CARTESIAN_POINT('',(0.000547286924698513,-0.779195367020017,0.018));
#1504=CARTESIAN_POINT('',(0.000547286924698513,-0.779195367020017,0.022375));
#1505=CARTESIAN_POINT('',(0.032121506985277,-0.779195367020017,0.0033192880153656));
#1506=CARTESIAN_POINT('',(0.0719067420363426,-0.779195367020017,0.0033192880153656));
#1507=CARTESIAN_POINT('',(0.0411067420363427,-0.779195367020017,0.0033192880153656));
#1508=CARTESIAN_POINT('',(0.0719067420363426,-0.779195367020017,0.00682129710912705));
#1509=CARTESIAN_POINT('',(0.0719067420363426,-0.779195367020017,0.0403233062028885));
#1510=CARTESIAN_POINT('',(0.0739067420363426,-0.779195367020017,0.0403233062028885));
#1511=CARTESIAN_POINT('',(-0.00766372806578874,-0.779195367020017,0.0403233062028885));
#1512=CARTESIAN_POINT('',(-0.00766372806578874,-0.779195367020017,0.00682129710912705));
#1513=CARTESIAN_POINT('',(-0.00766372806578874,-0.779195367020017,-0.0266807119846344));
#1514=CARTESIAN_POINT('',(0.032121506985277,-0.779195367020017,-0.0266807119846344));
#1515=CARTESIAN_POINT('',(0.0411067420363427,-0.779195367020017,-0.0266807119846344));
#1516=CARTESIAN_POINT('',(0.0411067420363427,-0.779195367020017,0.0013192880153656));
#1517=CARTESIAN_POINT('',(-0.132139846682549,-0.779197367020017,0.0299953806971329));
#1518=CARTESIAN_POINT('',(-0.132139846682549,-0.779197367020017,0.0999953806971328));
#1519=CARTESIAN_POINT('',(-0.132139846682549,-0.760195367020017,0.0999953806971328));
#1520=CARTESIAN_POINT('',(-0.132139846682549,-0.738195367020017,0.0999953806971328));
#1521=CARTESIAN_POINT('',(-0.132139846682549,-0.738195367020017,0.0299953806971329));
#1522=CARTESIAN_POINT('',(-0.132139846682549,-0.738195367020017,-0.0400046193028672));
#1523=CARTESIAN_POINT('',(-0.132139846682549,-0.779197367020017,-0.0400046193028672));
#1524=CARTESIAN_POINT('',(-0.132139846682549,-0.760195367020017,-0.0400046193028672));
#1525=CARTESIAN_POINT('',(-0.132139846682549,-0.760195367020017,0.0299953806971329));
#1526=CARTESIAN_POINT('',(-0.0709017873741687,-0.779197367020017,0.0711593434500107));
#1527=CARTESIAN_POINT('',(-0.00966372806578875,-0.779195367020017,0.0423233062028885));
#1528=CARTESIAN_POINT('',(-0.00966372806578875,-0.760195367020017,0.0423233062028885));
#1529=CARTESIAN_POINT('',(-0.00966372806578875,-0.738195367020017,0.0423233062028885));
#1530=CARTESIAN_POINT('',(-0.0709017873741687,-0.738195367020017,0.0711593434500107));
#1531=CARTESIAN_POINT('',(-0.132139846682549,-0.760195367020017,0.0999953806971329));
#1532=CARTESIAN_POINT('',(-0.0709017873741687,-0.779197367020017,-0.0343426656437508));
#1533=CARTESIAN_POINT('',(-0.0709017873741687,-0.738195367020017,-0.0343426656437508));
#1534=CARTESIAN_POINT('',(-0.00835007922186186,-0.738195367020017,-0.0285592545288843));
#1535=CARTESIAN_POINT('',(-0.00835007922186186,-0.760195367020017,-0.0285592545288843));
#1536=CARTESIAN_POINT('',(-0.00835007922186186,-0.760195367020017,-0.0285592545288843));
#1537=CARTESIAN_POINT('',(-0.00966372806578875,-0.760195367020017,-0.0286807119846344));
#1538=CARTESIAN_POINT('',(0.000547286924698513,-0.779195367020017,0.018));
#1539=CARTESIAN_POINT('',(0.000547286924698513,-0.738195367020017,0.018));
#1540=CARTESIAN_POINT('',(0.000547286924698513,-0.738195367020017,0.02065));
#1541=CARTESIAN_POINT('',(0.000547286924698513,-0.773995367020017,0.018));
#1542=CARTESIAN_POINT('',(0.000547286924698513,-0.773995367020017,0.02065));
#1543=CARTESIAN_POINT('',(0.0325472869246985,-0.779195367020017,-0.018));
#1544=CARTESIAN_POINT('',(0.0325472869246985,-0.738195367020017,-0.018));
#1545=CARTESIAN_POINT('',(0.0325472869246985,-0.738195367020017,-0.01535));
#1546=CARTESIAN_POINT('',(0.0349045693915591,-0.744933118503075,-0.0166401053268908));
#1547=CARTESIAN_POINT('',(0.0353433984733644,-0.745407481919848,-0.0180005604654096));
#1548=CARTESIAN_POINT('',(0.0349055582631744,-0.744935721901124,-0.0193576528114709));
#1549=CARTESIAN_POINT('',(0.0344842949789961,-0.743568687651332,-0.0197888447097428));
#1550=CARTESIAN_POINT('',(0.0349048694963984,-0.74220627389445,-0.0193592296206165));
#1551=CARTESIAN_POINT('',(0.0353431834084042,-0.74173285454711,-0.0180000778866892));
#1552=CARTESIAN_POINT('',(0.0349061181890209,-0.742203210656204,-0.0166431582999914));
#1553=CARTESIAN_POINT('',(0.0344842299520287,-0.74357094480968,-0.0162111186849727));
#1554=CARTESIAN_POINT('',(0.0349045693915591,-0.744933118503075,-0.0166401053268908));
#1555=CARTESIAN_POINT('',(0.0353433984733644,-0.745407481919848,-0.0180005604654096));
#1556=CARTESIAN_POINT('',(0.0349055582631744,-0.744935721901124,-0.0193576528114709));
#1557=CARTESIAN_POINT('',(0.0351972869246985,-0.745249794680599,-0.018));
#1558=CARTESIAN_POINT('',(0.0349045693915591,-0.771803176188164,-0.0166401053268909));
#1559=CARTESIAN_POINT('',(0.0353433984733643,-0.772277539604936,-0.0180005604654095));
#1560=CARTESIAN_POINT('',(0.0349055582631744,-0.771805779586213,-0.0193576528114709));
#1561=CARTESIAN_POINT('',(0.0344842949789961,-0.770438745336421,-0.0197888447097428));
#1562=CARTESIAN_POINT('',(0.0349048694963985,-0.769076331579539,-0.0193592296206164));
#1563=CARTESIAN_POINT('',(0.0353431834084042,-0.768602912232198,-0.0180000778866891));
#1564=CARTESIAN_POINT('',(0.0349061181890208,-0.769073268341294,-0.0166431582999913));
#1565=CARTESIAN_POINT('',(0.0344842299520287,-0.770441002494769,-0.0162111186849727));
#1566=CARTESIAN_POINT('',(0.0349045693915591,-0.771803176188164,-0.0166401053268909));
#1567=CARTESIAN_POINT('',(0.0353433984733643,-0.772277539604936,-0.0180005604654095));
#1568=CARTESIAN_POINT('',(0.0349055582631744,-0.771805779586213,-0.0193576528114709));
#1569=CARTESIAN_POINT('',(0.0351972869246985,-0.772119852365688,-0.018));
#1570=CARTESIAN_POINT('',(0.0325472869246985,-0.773995367020017,-0.018));
#1571=CARTESIAN_POINT('',(0.0325472869246985,-0.773995367020017,-0.01535));
#1572=CARTESIAN_POINT('',(0.0325472869246985,-0.779195367020017,0.018));
#1573=CARTESIAN_POINT('',(0.0325472869246985,-0.738195367020017,0.018));
#1574=CARTESIAN_POINT('',(0.0325472869246985,-0.738195367020017,0.02065));
#1575=CARTESIAN_POINT('',(0.0349045693915591,-0.744933118503075,0.0193598946731092));
#1576=CARTESIAN_POINT('',(0.0353433984733644,-0.745407481919847,0.0179994395345904));
#1577=CARTESIAN_POINT('',(0.0349055582631744,-0.744935721901124,0.0166423471885291));
#1578=CARTESIAN_POINT('',(0.0344842949789961,-0.743568687651332,0.0162111552902572));
#1579=CARTESIAN_POINT('',(0.0349048694963984,-0.74220627389445,0.0166407703793835));
#1580=CARTESIAN_POINT('',(0.0353431834084042,-0.741732854547109,0.0179999221133108));
#1581=CARTESIAN_POINT('',(0.0349061181890209,-0.742203210656204,0.0193568417000085));
#1582=CARTESIAN_POINT('',(0.0344842299520287,-0.74357094480968,0.0197888813150273));
#1583=CARTESIAN_POINT('',(0.0349045693915591,-0.744933118503075,0.0193598946731092));
#1584=CARTESIAN_POINT('',(0.0353433984733644,-0.745407481919847,0.0179994395345904));
#1585=CARTESIAN_POINT('',(0.0349055582631744,-0.744935721901124,0.0166423471885291));
#1586=CARTESIAN_POINT('',(0.0351972869246985,-0.745249794680599,0.018));
#1587=CARTESIAN_POINT('',(0.0349045693915591,-0.771803176188164,0.0193598946731091));
#1588=CARTESIAN_POINT('',(0.0353433984733644,-0.772277539604937,0.0179994395345905));
#1589=CARTESIAN_POINT('',(0.0349055582631744,-0.771805779586213,0.0166423471885291));
#1590=CARTESIAN_POINT('',(0.0344842949789961,-0.770438745336422,0.0162111552902572));
#1591=CARTESIAN_POINT('',(0.0349048694963985,-0.769076331579539,0.0166407703793836));
#1592=CARTESIAN_POINT('',(0.0353431834084042,-0.768602912232198,0.017999922113311));
#1593=CARTESIAN_POINT('',(0.0349061181890208,-0.769073268341293,0.0193568417000087));
#1594=CARTESIAN_POINT('',(0.0344842299520287,-0.770441002494769,0.0197888813150273));
#1595=CARTESIAN_POINT('',(0.0349045693915591,-0.771803176188164,0.0193598946731091));
#1596=CARTESIAN_POINT('',(0.0353433984733644,-0.772277539604937,0.0179994395345905));
#1597=CARTESIAN_POINT('',(0.0349055582631744,-0.771805779586213,0.0166423471885291));
#1598=CARTESIAN_POINT('',(0.0351972869246985,-0.772119852365688,0.018));
#1599=CARTESIAN_POINT('',(0.0325472869246985,-0.773995367020017,0.018));
#1600=CARTESIAN_POINT('',(0.0325472869246985,-0.773995367020017,0.02065));
#1601=CARTESIAN_POINT('',(0.000547286924698513,-0.779195367020017,-0.018));
#1602=CARTESIAN_POINT('',(0.000547286924698513,-0.738195367020017,-0.018));
#1603=CARTESIAN_POINT('',(0.000547286924698513,-0.738195367020017,-0.01535));
#1604=CARTESIAN_POINT('',(0.000547286924698513,-0.773995367020017,-0.018));
#1605=CARTESIAN_POINT('',(0.000547286924698513,-0.773995367020017,-0.01535));
#1606=CARTESIAN_POINT('',(0.032121506985277,-0.737195367020017,0.00682129710912705));
#1607=CARTESIAN_POINT('',(0.032121506985277,-0.737195367020017,0.0423233062028885));
#1608=CARTESIAN_POINT('',(0.0411333391427876,-0.737195367020017,0.0423233062028885));
#1609=CARTESIAN_POINT('',(0.0739067420363426,-0.737195367020017,0.0423233062028885));
#1610=CARTESIAN_POINT('',(0.0739067420363426,-0.737195367020017,0.00682129710912705));
#1611=CARTESIAN_POINT('',(0.0739067420363426,-0.737195367020017,0.0013192880153656));
#1612=CARTESIAN_POINT('',(0.032121506985277,-0.737195367020017,0.0013192880153656));
#1613=CARTESIAN_POINT('',(0.0411333391427876,-0.737195367020017,0.0013192880153656));
#1614=CARTESIAN_POINT('',(0.0411333391427876,-0.737195367020017,-0.0286807119846344));
#1615=CARTESIAN_POINT('',(0.0642446589161617,-0.743569972543805,-0.0751157961178962));
#1616=CARTESIAN_POINT('',(0.0642446589161617,-0.743569972543805,0.0423233062028885));
#1617=CARTESIAN_POINT('',(0.0642446589161617,-0.740819972543805,0.0423233062028885));
#1618=CARTESIAN_POINT('',(0.0642446589161617,-0.743569972543805,0.0013192880153656));
#1619=CARTESIAN_POINT('',(0.0642446589161617,-0.746319972543805,0.0013192880153656));
#1620=CARTESIAN_POINT('',(0.0642446589161617,-0.770440030228894,-0.0751157961178962));
#1621=CARTESIAN_POINT('',(0.0642446589161617,-0.770440030228894,0.0423233062028885));
#1622=CARTESIAN_POINT('',(0.0642446589161617,-0.767690030228894,0.0423233062028885));
#1623=CARTESIAN_POINT('',(0.0642446589161617,-0.770440030228894,0.0013192880153656));
#1624=CARTESIAN_POINT('',(0.0642446589161617,-0.773190030228894,0.0013192880153656));
#1625=CARTESIAN_POINT('',(0.0698096300736169,-0.757005001386349,-0.0751157961178962));
#1626=CARTESIAN_POINT('',(0.0698096300736169,-0.757005001386349,0.0423233062028885));
#1627=CARTESIAN_POINT('',(0.0698096300736169,-0.754255001386349,0.0423233062028885));
#1628=CARTESIAN_POINT('',(0.0698096300736169,-0.757005001386349,0.0013192880153656));
#1629=CARTESIAN_POINT('',(0.0698096300736169,-0.759755001386349,0.0013192880153656));
#1630=CARTESIAN_POINT('',(0.032121506985277,-0.738195367020017,0.00682129710912705));
#1631=CARTESIAN_POINT('',(0.032121506985277,-0.738195367020017,0.0423233062028885));
#1632=CARTESIAN_POINT('',(0.039012018799228,-0.738195367020017,0.0423233062028885));
#1633=CARTESIAN_POINT('',(0.039012018799228,-0.738195367020017,0.00682129710912705));
#1634=CARTESIAN_POINT('',(0.039012018799228,-0.738195367020017,-0.0286807119846344));
#1635=CARTESIAN_POINT('',(0.032121506985277,-0.738195367020017,-0.0286807119846344));
#1636=CARTESIAN_POINT('',(-0.00766372806578874,-0.738195367020017,-0.0286807119846344));
#1637=CARTESIAN_POINT('',(-0.00766372806578875,-0.738195367020017,-0.0266807119846344));
#1638=CARTESIAN_POINT('',(0.032121506985277,-0.779195367020017,-0.0286807119846344));
#1639=CARTESIAN_POINT('',(-0.00766372806578874,-0.779195367020017,-0.0286807119846344));
#1640=CARTESIAN_POINT('',(-0.00766372806578875,-0.777195367020017,-0.0286807119846344));
#1641=CARTESIAN_POINT('',(0.0411333391427876,-0.739945367020017,-0.0286807119846344));
#1642=CARTESIAN_POINT('',(0.0411067420363426,-0.737195495642311,-0.0286807119846344));
#1643=CARTESIAN_POINT('',(0.0411067420363427,-0.758195367020017,-0.0286807119846344));
#1644=CARTESIAN_POINT('',(0.0411067420363427,-0.746705777250063,-0.0286807119846344));
#1645=CARTESIAN_POINT('',(0.0508465977616847,-0.756970167658145,-0.0286807119846344));
#1646=CARTESIAN_POINT('',(0.0411067420363427,-0.767234558066226,-0.0286807119846344));
#1647=CARTESIAN_POINT('',(0.0411067420363427,-0.758195367020017,-0.0286807119846344));
#1648=CARTESIAN_POINT('',(0.0411067420363427,-0.777195367020017,-0.0286807119846344));
#1649=CARTESIAN_POINT('',(0.032121506985277,-0.777195367020017,-0.0286807119846344));
#1650=CARTESIAN_POINT('',(0.0373746012310724,-0.770440030228894,-0.0286807119846344));
#1651=CARTESIAN_POINT('',(0.0373746012310724,-0.773190030228894,-0.0286807119846344));
#1652=CARTESIAN_POINT('',(0.0373746012310724,-0.743569972543805,-0.0286807119846344));
#1653=CARTESIAN_POINT('',(0.0373746012310724,-0.746319972543805,-0.0286807119846344));
#1654=CARTESIAN_POINT('',(0.032121506985277,-0.779195367020017,0.0423233062028885));
#1655=CARTESIAN_POINT('',(0.0373746012310724,-0.770440030228894,0.0423233062028885));
#1656=CARTESIAN_POINT('',(0.0373746012310724,-0.767690030228894,0.0423233062028885));
#1657=CARTESIAN_POINT('',(0.0508465977616847,-0.756970167658145,0.0423233062028885));
#1658=CARTESIAN_POINT('',(0.0508465977616847,-0.742820167658145,0.0423233062028885));
#1659=CARTESIAN_POINT('',(0.0373746012310724,-0.743569972543805,0.0423233062028885));
#1660=CARTESIAN_POINT('',(0.0373746012310724,-0.740819972543805,0.0423233062028885));
#1661=CARTESIAN_POINT('',(0.0739067420363426,-0.779195367020017,0.0423233062028885));
#1662=CARTESIAN_POINT('',(0.0739067420363426,-0.777195367020017,0.0423233062028885));
#1663=CARTESIAN_POINT('',(0.0411333391427876,-0.739945367020017,0.0423233062028885));
#1664=CARTESIAN_POINT('',(-0.00966372806578875,-0.779195367020017,0.0423233062028885));
#1665=CARTESIAN_POINT('',(-0.00966372806578875,-0.777195367020017,0.0423233062028885));
#1666=CARTESIAN_POINT('',(-0.00966372806578875,-0.777195367020017,0.0423233062028885));
#1667=CARTESIAN_POINT('',(0.0739067420363426,-0.779195367020017,0.00682129710912705));
#1668=CARTESIAN_POINT('',(0.0739067420363426,-0.779195367020017,0.0013192880153656));
#1669=CARTESIAN_POINT('',(0.0739067420363426,-0.777195367020017,0.0013192880153656));
#1670=CARTESIAN_POINT('',(0.0739067420363426,-0.777195367020017,0.00682129710912705));
#1671=CARTESIAN_POINT('',(0.0373746012310724,-0.743569972543805,-0.0751157961178962));
#1672=CARTESIAN_POINT('',(0.0373746012310724,-0.770440030228894,-0.0751157961178962));
#1673=CARTESIAN_POINT('',(0.0508465977616847,-0.756970167658145,-0.0751157961178962));
#1674=CARTESIAN_POINT('',(0.0508465977616847,-0.756970167658145,0.0013192880153656));
#1675=CARTESIAN_POINT('',(0.0411067420363427,-0.767234558066226,0.0013192880153656));
#1676=CARTESIAN_POINT('',(0.0411067420363427,-0.746705777250063,0.0013192880153656));
#1677=CARTESIAN_POINT('',(0.0411067420363427,-0.767234558066226,0.0013192880153656));
#1678=CARTESIAN_POINT('',(0.0411067420363427,-0.746705777250063,0.0013192880153656));
#1679=CARTESIAN_POINT('',(0.0411067420363427,-0.758195367020017,0.0013192880153656));
#1680=CARTESIAN_POINT('',(0.0411067420363427,-0.758195367020017,0.0013192880153656));
#1681=CARTESIAN_POINT('',(0.0411067420363427,-0.777195367020017,0.0013192880153656));
#1682=CARTESIAN_POINT('',(0.0411067420363427,-0.777195367020017,0.0033192880153656));
#1683=CARTESIAN_POINT('',(0.0411067420363427,-0.777195367020017,-0.0266807119846344));
#1684=CARTESIAN_POINT('',(0.0411067420363427,-0.758195367020017,0.0013192880153656));
#1685=CARTESIAN_POINT('',(0.0411067420363427,-0.758195367020017,0.0013192880153656));
#1686=CARTESIAN_POINT('',(0.0411067420363426,-0.737195495642311,0.0013192880153656));
#1687=CARTESIAN_POINT('',(0.0411067420363426,-0.737195495642311,0.0013192880153656));
#1688=CARTESIAN_POINT('',(0.032121506985277,-0.758195367020017,0.0013192880153656));
#1689=CARTESIAN_POINT('',(0.0411333391427876,-0.739945367020017,0.0013192880153656));
#1690=CARTESIAN_POINT('',(0.032121506985277,-0.777195367020017,0.0013192880153656));
#1691=CARTESIAN_POINT('',(0.0411333391427876,-0.739945367020017,0.00682129710912705));
#1692=CARTESIAN_POINT('',(0.000547286924698513,-0.773995367020017,-0.018));
#1693=CARTESIAN_POINT('',(0.000547286924698513,-0.773995367020017,-0.018));
#1694=CARTESIAN_POINT('',(0.000547286924698513,-0.773995367020017,-0.013625));
#1695=CARTESIAN_POINT('',(0.032121506985277,-0.773995367020017,0.00682129710912705));
#1696=CARTESIAN_POINT('',(0.0325472869246985,-0.773995367020017,0.018));
#1697=CARTESIAN_POINT('',(0.0325472869246985,-0.773995367020017,0.018));
#1698=CARTESIAN_POINT('',(0.0325472869246985,-0.773995367020017,0.022375));
#1699=CARTESIAN_POINT('',(0.032121506985277,-0.773995367020017,0.00682129710912705));
#1700=CARTESIAN_POINT('',(0.0325472869246985,-0.773995367020017,-0.018));
#1701=CARTESIAN_POINT('',(0.0325472869246985,-0.773995367020017,-0.018));
#1702=CARTESIAN_POINT('',(0.0325472869246985,-0.773995367020017,-0.013625));
#1703=CARTESIAN_POINT('',(0.032121506985277,-0.773995367020017,0.00682129710912705));
#1704=CARTESIAN_POINT('',(0.000547286924698513,-0.773995367020017,0.018));
#1705=CARTESIAN_POINT('',(0.000547286924698513,-0.773995367020017,0.018));
#1706=CARTESIAN_POINT('',(0.000547286924698513,-0.773995367020017,0.022375));
#1707=CARTESIAN_POINT('',(0.032121506985277,-0.773995367020017,0.00682129710912705));
#1708=CARTESIAN_POINT('',(-0.00966372806578875,-0.762195367020017,0.00682129710912705));
#1709=CARTESIAN_POINT('',(-0.00966372806578875,-0.760195367020017,0.0401126665026867));
#1710=CARTESIAN_POINT('',(-0.00966372806578875,-0.762195367020017,0.0401126665026867));
#1711=CARTESIAN_POINT('',(-0.00966372806578875,-0.762195367020017,0.00682129710912705));
#1712=CARTESIAN_POINT('',(-0.00966372806578875,-0.762195367020017,-0.0266721816787836));
#1713=CARTESIAN_POINT('',(-0.00966372806578875,-0.760195367020017,-0.0266721816787836));
#1714=CARTESIAN_POINT('',(-0.00966372806578875,-0.762195348982598,-0.0266807119846344));
#1715=CARTESIAN_POINT('',(-0.00966372806578875,-0.762195367020017,-0.0266807119846344));
#1716=CARTESIAN_POINT('',(-0.00966372806578875,-0.777195367020017,-0.0266807119846344));
#1717=CARTESIAN_POINT('',(-0.00966372806578875,-0.777195367020017,0.00682129710912705));
#1718=CARTESIAN_POINT('',(-0.0291165523231031,-0.762195367020017,0.0299953806971329));
#1719=CARTESIAN_POINT('',(-0.0921398466825487,-0.762195367020017,0.0549953806971328));
#1720=CARTESIAN_POINT('',(-0.0921398466825487,-0.762195367020017,0.0593953806971328));
#1721=CARTESIAN_POINT('',(-0.0921398466825487,-0.762195367020017,0.0199953806971329));
#1722=CARTESIAN_POINT('',(-0.0921398466825487,-0.762195367020017,0.0243953806971329));
#1723=CARTESIAN_POINT('',(-0.117139846682549,-0.762195367020017,0.0199953806971329));
#1724=CARTESIAN_POINT('',(-0.117139846682549,-0.762195367020017,0.0243953806971329));
#1725=CARTESIAN_POINT('',(-0.117139846682549,-0.762195367020017,-0.0150046193028672));
#1726=CARTESIAN_POINT('',(-0.117139846682549,-0.762195367020017,-0.0106046193028672));
#1727=CARTESIAN_POINT('',(-0.0921398466825487,-0.762195367020017,-0.0150046193028672));
#1728=CARTESIAN_POINT('',(-0.0921398466825487,-0.762195367020017,-0.0106046193028672));
#1729=CARTESIAN_POINT('',(-0.117139846682549,-0.762195367020017,0.0549953806971328));
#1730=CARTESIAN_POINT('',(-0.117139846682549,-0.762195367020017,0.0593953806971328));
#1731=CARTESIAN_POINT('',(-0.0105157606131514,-0.762195367020017,0.0405138752044156));
#1732=CARTESIAN_POINT('',(-0.130139846682549,-0.762195367020017,0.0968429725093991));
#1733=CARTESIAN_POINT('',(-0.130139846682549,-0.762195367020017,0.0299953806971329));
#1734=CARTESIAN_POINT('',(-0.130139846682549,-0.762195367020017,-0.0378111728281154));
#1735=CARTESIAN_POINT('',(-0.132323977505332,-0.762195367020017,-0.0380131133801792));
#1736=CARTESIAN_POINT('',(-0.117139846682549,-0.756695367020017,-0.0150046193028672));
#1737=CARTESIAN_POINT('',(-0.117139846682549,-0.756695367020017,-0.0150046193028672));
#1738=CARTESIAN_POINT('',(-0.117139846682549,-0.756695367020017,-0.0106046193028672));
#1739=CARTESIAN_POINT('',(-0.0709017873741687,-0.756695367020017,0.0299953806971329));
#1740=CARTESIAN_POINT('',(-0.0921398466825487,-0.756695367020017,-0.0150046193028672));
#1741=CARTESIAN_POINT('',(-0.0921398466825487,-0.756695367020017,-0.0150046193028672));
#1742=CARTESIAN_POINT('',(-0.0921398466825487,-0.756695367020017,-0.0106046193028672));
#1743=CARTESIAN_POINT('',(-0.0709017873741687,-0.756695367020017,0.0299953806971329));
#1744=CARTESIAN_POINT('',(-0.0921398466825487,-0.756695367020017,0.0199953806971329));
#1745=CARTESIAN_POINT('',(-0.0921398466825487,-0.756695367020017,0.0199953806971329));
#1746=CARTESIAN_POINT('',(-0.0921398466825487,-0.756695367020017,0.0243953806971329));
#1747=CARTESIAN_POINT('',(-0.0709017873741687,-0.756695367020017,0.0299953806971329));
#1748=CARTESIAN_POINT('',(-0.117139846682549,-0.756695367020017,0.0549953806971328));
#1749=CARTESIAN_POINT('',(-0.117139846682549,-0.756695367020017,0.0549953806971328));
#1750=CARTESIAN_POINT('',(-0.117139846682549,-0.756695367020017,0.0593953806971328));
#1751=CARTESIAN_POINT('',(-0.0709017873741687,-0.756695367020017,0.0299953806971329));
#1752=CARTESIAN_POINT('',(-0.0921398466825487,-0.756695367020017,0.0549953806971328));
#1753=CARTESIAN_POINT('',(-0.0921398466825487,-0.756695367020017,0.0549953806971328));
#1754=CARTESIAN_POINT('',(-0.0921398466825487,-0.756695367020017,0.0593953806971328));
#1755=CARTESIAN_POINT('',(-0.0709017873741687,-0.756695367020017,0.0299953806971329));
#1756=CARTESIAN_POINT('',(-0.117139846682549,-0.756695367020017,0.0199953806971329));
#1757=CARTESIAN_POINT('',(-0.117139846682549,-0.756695367020017,0.0199953806971329));
#1758=CARTESIAN_POINT('',(-0.117139846682549,-0.756695367020017,0.0243953806971329));
#1759=CARTESIAN_POINT('',(-0.0709017873741687,-0.756695367020017,0.0299953806971329));
#1760=CARTESIAN_POINT('',(-0.0216866219002308,-0.760195367020017,0.0457740577737965));
#1761=CARTESIAN_POINT('',(-0.130139846682549,-0.760195367020017,0.0968429725093991));
#1762=CARTESIAN_POINT('',(-0.130139846682549,-0.760195367020017,0.0299953806971329));
#1763=CARTESIAN_POINT('',(-0.130139846682549,-0.760195367020017,-0.0378111728281154));
#1764=CARTESIAN_POINT('',(-0.0237567042850586,-0.760195367020017,-0.0279751912642232));
#1765=CARTESIAN_POINT('',(-0.00966372806578875,-0.762195348982598,-0.0266807119846344));
#1766=CARTESIAN_POINT('',(-0.00966372806578875,-0.762194140525574,-0.026966464112319));
#1767=CARTESIAN_POINT('',(-0.00953584645654512,-0.762064883719125,-0.0275205601478814));
#1768=CARTESIAN_POINT('',(-0.00910841623004249,-0.761596508089217,-0.0281150870751594));
#1769=CARTESIAN_POINT('',(-0.00862222846954994,-0.760999965532262,-0.0284627129082307));
#1770=CARTESIAN_POINT('',(-0.00835007922186203,-0.760481796499107,-0.0285592545288843));
#1771=CARTESIAN_POINT('',(-0.00835007922186203,-0.760195367020017,-0.0285592545288843));
#1772=CARTESIAN_POINT('',(-0.00766372806578875,-0.762195367020017,-0.0266807119846344));
#1773=CARTESIAN_POINT('',(-0.00766372806578875,-0.777195367020017,-0.0266807119846344));
#1774=CARTESIAN_POINT('',(0.032121506985277,-0.777195367020017,-0.0266807119846344));
#1775=CARTESIAN_POINT('',(-0.00766372806578874,-0.777195367020017,-0.0266807119846344));
#1776=CARTESIAN_POINT('',(-0.00766372806578875,-0.777195367020017,-0.0266807119846344));
#1777=CARTESIAN_POINT('',(-0.00766372806578875,-0.777195367020017,-0.0266807119846344));
#1778=CARTESIAN_POINT('',(-0.00766372806578874,-0.777195367020017,0.00682129710912705));
#1779=CARTESIAN_POINT('',(-0.00766372806578874,-0.777195367020017,0.0403233062028885));
#1780=CARTESIAN_POINT('',(0.032121506985277,-0.777195367020017,0.0403233062028885));
#1781=CARTESIAN_POINT('',(0.0719067420363426,-0.777195367020017,0.0403233062028885));
#1782=CARTESIAN_POINT('',(0.0719067420363426,-0.777195367020017,0.00682129710912705));
#1783=CARTESIAN_POINT('',(0.0719067420363426,-0.777195367020017,0.0033192880153656));
#1784=CARTESIAN_POINT('',(0.032121506985277,-0.777195367020017,0.0033192880153656));
#1785=MECHANICAL_DESIGN_GEOMETRIC_PRESENTATION_REPRESENTATION('',(#1017),
#1786);
#1786=(
GEOMETRIC_REPRESENTATION_CONTEXT(3)
GLOBAL_UNCERTAINTY_ASSIGNED_CONTEXT((#1787))
GLOBAL_UNIT_ASSIGNED_CONTEXT((#1790,#1789,#1788))
REPRESENTATION_CONTEXT('GantryLower-Right','TOP_LEVEL_ASSEMBLY_PART')
);
#1787=UNCERTAINTY_MEASURE_WITH_UNIT(LENGTH_MEASURE(2.E-5),#1790,
'DISTANCE_ACCURACY_VALUE','Maximum Tolerance applied to model');
#1788=(
NAMED_UNIT(*)
SI_UNIT($,.STERADIAN.)
SOLID_ANGLE_UNIT()
);
#1789=(
NAMED_UNIT(*)
PLANE_ANGLE_UNIT()
SI_UNIT($,.RADIAN.)
);
#1790=(
LENGTH_UNIT()
NAMED_UNIT(*)
SI_UNIT($,.METRE.)
);
#1791=PRODUCT_DEFINITION_SHAPE('','',#1792);
#1792=PRODUCT_DEFINITION('','',#1794,#1793);
#1793=PRODUCT_DEFINITION_CONTEXT('',#1800,'design');
#1794=PRODUCT_DEFINITION_FORMATION_WITH_SPECIFIED_SOURCE('','',#1796,
 .NOT_KNOWN.);
#1795=PRODUCT_RELATED_PRODUCT_CATEGORY('','',(#1796));
#1796=PRODUCT('GantryLower-Right','GantryLower-Right',
'GantryLower-Right',(#1798));
#1797=PRODUCT_CATEGORY('','');
#1798=PRODUCT_CONTEXT('',#1800,'mechanical');
#1799=APPLICATION_PROTOCOL_DEFINITION('international standard',
'ap242_managed_model_based_3d_engineering',2020,#1800);
#1800=APPLICATION_CONTEXT('managed model based 3d engineering');
ENDSEC;
END-ISO-10303-21;
