ISO-10303-21;
HEADER;
/* Generated by software containing ST-Developer
 * from STEP Tools, Inc. (www.steptools.com) 
 */
/* OPTION: using custom renumber hook */

FILE_DESCRIPTION(
/* description */ ('STEP AP242 Edition 2',
'CAx-IF Rec.Pracs.---Representation and Presentation of Product Manufa
cturing Information (PMI)---4.0---2014-10-13',
'CAx-IF Rec.Pracs.---3D Tessellated Geometry---0.4---2014-09-14','2;1',
'CAx-IF Rec.Pracs.---User Defined Attributes---1.5---2016-08-15'),
/* implementation_level */ '2;1');

FILE_NAME(
/* name */ 'Router - XAxisSwinger',
/* time_stamp */ '2026-08-01T11:31:51Z',
/* author */ (''),
/* organization */ (''),
/* preprocessor_version */ 'ST-DEVELOPER v20',
/* originating_system */ 'ONSHAPE BY PTC INC, 1.218',
/* authorisation */ '  ');

FILE_SCHEMA (('AP242_MANAGED_MODEL_BASED_3D_ENGINEERING_MIM_LF { 1 0 10303 442 3 1 4 }'));
ENDSEC;

DATA;
#10=SHAPE_REPRESENTATION_RELATIONSHIP('','',#1001,#11);
#11=ADVANCED_BREP_SHAPE_REPRESENTATION('',(#999),#1691);
#12=SPHERICAL_SURFACE('',#1107,0.003);
#13=SPHERICAL_SURFACE('',#1109,0.003);
#14=SPHERICAL_SURFACE('',#1119,0.003);
#15=SPHERICAL_SURFACE('',#1121,0.003);
#16=CYLINDRICAL_SURFACE('',#1015,0.00265);
#17=CYLINDRICAL_SURFACE('',#1017,0.00265);
#18=CYLINDRICAL_SURFACE('',#1019,0.00265);
#19=CYLINDRICAL_SURFACE('',#1021,0.00265);
#20=CYLINDRICAL_SURFACE('',#1023,0.00265);
#21=CYLINDRICAL_SURFACE('',#1025,0.00265);
#22=CYLINDRICAL_SURFACE('',#1027,0.00265);
#23=CYLINDRICAL_SURFACE('',#1029,0.00265);
#24=CYLINDRICAL_SURFACE('',#1062,0.0044);
#25=CYLINDRICAL_SURFACE('',#1065,0.0044);
#26=CYLINDRICAL_SURFACE('',#1068,0.0044);
#27=CYLINDRICAL_SURFACE('',#1071,0.0044);
#28=CYLINDRICAL_SURFACE('',#1074,0.0044);
#29=CYLINDRICAL_SURFACE('',#1077,0.0044);
#30=CYLINDRICAL_SURFACE('',#1080,0.0044);
#31=CYLINDRICAL_SURFACE('',#1083,0.0044);
#32=CYLINDRICAL_SURFACE('',#1086,0.00275);
#33=CYLINDRICAL_SURFACE('',#1087,0.00275);
#34=CYLINDRICAL_SURFACE('',#1088,0.00275);
#35=CYLINDRICAL_SURFACE('',#1097,0.00275);
#36=CYLINDRICAL_SURFACE('',#1098,0.00275);
#37=CYLINDRICAL_SURFACE('',#1099,0.00275);
#38=CYLINDRICAL_SURFACE('',#1100,0.003);
#39=CYLINDRICAL_SURFACE('',#1102,0.003);
#40=CYLINDRICAL_SURFACE('',#1104,0.003);
#41=CYLINDRICAL_SURFACE('',#1111,0.003);
#42=CYLINDRICAL_SURFACE('',#1113,0.003);
#43=CYLINDRICAL_SURFACE('',#1115,0.003);
#44=CYLINDRICAL_SURFACE('',#1117,0.003);
#45=CYLINDRICAL_SURFACE('',#1123,0.003);
#46=LINE('',#1434,#102);
#47=LINE('',#1437,#103);
#48=LINE('',#1439,#104);
#49=LINE('',#1441,#105);
#50=LINE('',#1442,#106);
#51=LINE('',#1445,#107);
#52=LINE('',#1447,#108);
#53=LINE('',#1449,#109);
#54=LINE('',#1450,#110);
#55=LINE('',#1453,#111);
#56=LINE('',#1455,#112);
#57=LINE('',#1457,#113);
#58=LINE('',#1472,#114);
#59=LINE('',#1475,#115);
#60=LINE('',#1477,#116);
#61=LINE('',#1479,#117);
#62=LINE('',#1523,#118);
#63=LINE('',#1526,#119);
#64=LINE('',#1528,#120);
#65=LINE('',#1530,#121);
#66=LINE('',#1531,#122);
#67=LINE('',#1534,#123);
#68=LINE('',#1536,#124);
#69=LINE('',#1538,#125);
#70=LINE('',#1539,#126);
#71=LINE('',#1542,#127);
#72=LINE('',#1544,#128);
#73=LINE('',#1546,#129);
#74=LINE('',#1552,#130);
#75=LINE('',#1555,#131);
#76=LINE('',#1557,#132);
#77=LINE('',#1559,#133);
#78=LINE('',#1561,#134);
#79=LINE('',#1564,#135);
#80=LINE('',#1566,#136);
#81=LINE('',#1568,#137);
#82=LINE('',#1580,#138);
#83=LINE('',#1584,#139);
#84=LINE('',#1585,#140);
#85=LINE('',#1587,#141);
#86=LINE('',#1589,#142);
#87=LINE('',#1591,#143);
#88=LINE('',#1592,#144);
#89=LINE('',#1594,#145);
#90=LINE('',#1596,#146);
#91=LINE('',#1598,#147);
#92=LINE('',#1601,#148);
#93=LINE('',#1602,#149);
#94=LINE('',#1647,#150);
#95=LINE('',#1649,#151);
#96=LINE('',#1651,#152);
#97=LINE('',#1653,#153);
#98=LINE('',#1655,#154);
#99=LINE('',#1657,#155);
#100=LINE('',#1659,#156);
#101=LINE('',#1661,#157);
#102=VECTOR('',#1136,1.);
#103=VECTOR('',#1137,1.);
#104=VECTOR('',#1138,1.);
#105=VECTOR('',#1139,1.);
#106=VECTOR('',#1140,1.);
#107=VECTOR('',#1141,1.);
#108=VECTOR('',#1142,1.);
#109=VECTOR('',#1143,1.);
#110=VECTOR('',#1144,1.);
#111=VECTOR('',#1145,1.);
#112=VECTOR('',#1146,1.);
#113=VECTOR('',#1147,1.);
#114=VECTOR('',#1162,1.);
#115=VECTOR('',#1163,1.);
#116=VECTOR('',#1164,1.);
#117=VECTOR('',#1165,1.);
#118=VECTOR('',#1218,1.);
#119=VECTOR('',#1219,1.);
#120=VECTOR('',#1220,1.);
#121=VECTOR('',#1221,1.);
#122=VECTOR('',#1222,1.);
#123=VECTOR('',#1223,1.);
#124=VECTOR('',#1224,1.);
#125=VECTOR('',#1225,1.);
#126=VECTOR('',#1226,1.);
#127=VECTOR('',#1227,1.);
#128=VECTOR('',#1228,1.);
#129=VECTOR('',#1229,1.);
#130=VECTOR('',#1236,1.);
#131=VECTOR('',#1237,1.);
#132=VECTOR('',#1238,1.);
#133=VECTOR('',#1239,1.);
#134=VECTOR('',#1242,1.);
#135=VECTOR('',#1243,1.);
#136=VECTOR('',#1244,1.);
#137=VECTOR('',#1245,1.);
#138=VECTOR('',#1260,1.);
#139=VECTOR('',#1265,1.);
#140=VECTOR('',#1266,1.);
#141=VECTOR('',#1269,1.);
#142=VECTOR('',#1272,1.);
#143=VECTOR('',#1275,1.);
#144=VECTOR('',#1276,1.);
#145=VECTOR('',#1279,1.);
#146=VECTOR('',#1282,1.);
#147=VECTOR('',#1285,1.);
#148=VECTOR('',#1286,1.);
#149=VECTOR('',#1287,1.);
#150=VECTOR('',#1354,1.);
#151=VECTOR('',#1355,1.);
#152=VECTOR('',#1356,1.);
#153=VECTOR('',#1359,1.);
#154=VECTOR('',#1360,1.);
#155=VECTOR('',#1363,1.);
#156=VECTOR('',#1364,1.);
#157=VECTOR('',#1367,1.);
#158=ORIENTED_EDGE('',*,*,#390,.T.);
#159=ORIENTED_EDGE('',*,*,#391,.T.);
#160=ORIENTED_EDGE('',*,*,#392,.T.);
#161=ORIENTED_EDGE('',*,*,#393,.T.);
#162=ORIENTED_EDGE('',*,*,#394,.T.);
#163=ORIENTED_EDGE('',*,*,#395,.T.);
#164=ORIENTED_EDGE('',*,*,#396,.F.);
#165=ORIENTED_EDGE('',*,*,#397,.T.);
#166=ORIENTED_EDGE('',*,*,#398,.T.);
#167=ORIENTED_EDGE('',*,*,#399,.T.);
#168=ORIENTED_EDGE('',*,*,#400,.F.);
#169=ORIENTED_EDGE('',*,*,#401,.F.);
#170=ORIENTED_EDGE('',*,*,#402,.T.);
#171=ORIENTED_EDGE('',*,*,#403,.T.);
#172=ORIENTED_EDGE('',*,*,#404,.F.);
#173=ORIENTED_EDGE('',*,*,#405,.F.);
#174=ORIENTED_EDGE('',*,*,#406,.T.);
#175=ORIENTED_EDGE('',*,*,#407,.T.);
#176=ORIENTED_EDGE('',*,*,#408,.T.);
#177=ORIENTED_EDGE('',*,*,#409,.T.);
#178=ORIENTED_EDGE('',*,*,#410,.T.);
#179=ORIENTED_EDGE('',*,*,#411,.T.);
#180=ORIENTED_EDGE('',*,*,#412,.T.);
#181=ORIENTED_EDGE('',*,*,#413,.T.);
#182=ORIENTED_EDGE('',*,*,#414,.T.);
#183=ORIENTED_EDGE('',*,*,#415,.F.);
#184=ORIENTED_EDGE('',*,*,#416,.F.);
#185=ORIENTED_EDGE('',*,*,#391,.F.);
#186=ORIENTED_EDGE('',*,*,#417,.T.);
#187=ORIENTED_EDGE('',*,*,#392,.F.);
#188=ORIENTED_EDGE('',*,*,#418,.T.);
#189=ORIENTED_EDGE('',*,*,#393,.F.);
#190=ORIENTED_EDGE('',*,*,#419,.T.);
#191=ORIENTED_EDGE('',*,*,#406,.F.);
#192=ORIENTED_EDGE('',*,*,#420,.T.);
#193=ORIENTED_EDGE('',*,*,#407,.F.);
#194=ORIENTED_EDGE('',*,*,#421,.T.);
#195=ORIENTED_EDGE('',*,*,#408,.F.);
#196=ORIENTED_EDGE('',*,*,#422,.T.);
#197=ORIENTED_EDGE('',*,*,#409,.F.);
#198=ORIENTED_EDGE('',*,*,#423,.T.);
#199=ORIENTED_EDGE('',*,*,#390,.F.);
#200=ORIENTED_EDGE('',*,*,#424,.T.);
#201=ORIENTED_EDGE('',*,*,#425,.F.);
#202=ORIENTED_EDGE('',*,*,#426,.F.);
#203=ORIENTED_EDGE('',*,*,#427,.F.);
#204=ORIENTED_EDGE('',*,*,#428,.T.);
#205=ORIENTED_EDGE('',*,*,#429,.F.);
#206=ORIENTED_EDGE('',*,*,#430,.F.);
#207=ORIENTED_EDGE('',*,*,#431,.T.);
#208=ORIENTED_EDGE('',*,*,#432,.T.);
#209=ORIENTED_EDGE('',*,*,#433,.T.);
#210=ORIENTED_EDGE('',*,*,#434,.F.);
#211=ORIENTED_EDGE('',*,*,#435,.T.);
#212=ORIENTED_EDGE('',*,*,#436,.T.);
#213=ORIENTED_EDGE('',*,*,#437,.F.);
#214=ORIENTED_EDGE('',*,*,#438,.F.);
#215=ORIENTED_EDGE('',*,*,#439,.T.);
#216=ORIENTED_EDGE('',*,*,#440,.T.);
#217=ORIENTED_EDGE('',*,*,#441,.F.);
#218=ORIENTED_EDGE('',*,*,#442,.T.);
#219=ORIENTED_EDGE('',*,*,#443,.T.);
#220=ORIENTED_EDGE('',*,*,#444,.T.);
#221=ORIENTED_EDGE('',*,*,#445,.T.);
#222=ORIENTED_EDGE('',*,*,#446,.F.);
#223=ORIENTED_EDGE('',*,*,#447,.F.);
#224=ORIENTED_EDGE('',*,*,#448,.T.);
#225=ORIENTED_EDGE('',*,*,#449,.T.);
#226=ORIENTED_EDGE('',*,*,#450,.T.);
#227=ORIENTED_EDGE('',*,*,#451,.T.);
#228=ORIENTED_EDGE('',*,*,#452,.F.);
#229=ORIENTED_EDGE('',*,*,#453,.T.);
#230=ORIENTED_EDGE('',*,*,#454,.T.);
#231=ORIENTED_EDGE('',*,*,#455,.T.);
#232=ORIENTED_EDGE('',*,*,#456,.T.);
#233=ORIENTED_EDGE('',*,*,#457,.T.);
#234=ORIENTED_EDGE('',*,*,#458,.T.);
#235=ORIENTED_EDGE('',*,*,#444,.F.);
#236=ORIENTED_EDGE('',*,*,#459,.T.);
#237=ORIENTED_EDGE('',*,*,#452,.T.);
#238=ORIENTED_EDGE('',*,*,#460,.T.);
#239=ORIENTED_EDGE('',*,*,#396,.T.);
#240=ORIENTED_EDGE('',*,*,#461,.T.);
#241=ORIENTED_EDGE('',*,*,#462,.F.);
#242=ORIENTED_EDGE('',*,*,#463,.T.);
#243=ORIENTED_EDGE('',*,*,#398,.F.);
#244=ORIENTED_EDGE('',*,*,#464,.F.);
#245=ORIENTED_EDGE('',*,*,#438,.T.);
#246=ORIENTED_EDGE('',*,*,#465,.T.);
#247=ORIENTED_EDGE('',*,*,#401,.T.);
#248=ORIENTED_EDGE('',*,*,#466,.F.);
#249=ORIENTED_EDGE('',*,*,#439,.F.);
#250=ORIENTED_EDGE('',*,*,#464,.T.);
#251=ORIENTED_EDGE('',*,*,#400,.T.);
#252=ORIENTED_EDGE('',*,*,#467,.F.);
#253=ORIENTED_EDGE('',*,*,#440,.F.);
#254=ORIENTED_EDGE('',*,*,#466,.T.);
#255=ORIENTED_EDGE('',*,*,#402,.F.);
#256=ORIENTED_EDGE('',*,*,#468,.F.);
#257=ORIENTED_EDGE('',*,*,#434,.T.);
#258=ORIENTED_EDGE('',*,*,#469,.T.);
#259=ORIENTED_EDGE('',*,*,#405,.T.);
#260=ORIENTED_EDGE('',*,*,#470,.F.);
#261=ORIENTED_EDGE('',*,*,#435,.F.);
#262=ORIENTED_EDGE('',*,*,#468,.T.);
#263=ORIENTED_EDGE('',*,*,#404,.T.);
#264=ORIENTED_EDGE('',*,*,#471,.F.);
#265=ORIENTED_EDGE('',*,*,#436,.F.);
#266=ORIENTED_EDGE('',*,*,#470,.T.);
#267=ORIENTED_EDGE('',*,*,#472,.T.);
#268=ORIENTED_EDGE('',*,*,#473,.T.);
#269=ORIENTED_EDGE('',*,*,#462,.T.);
#270=ORIENTED_EDGE('',*,*,#474,.T.);
#271=ORIENTED_EDGE('',*,*,#399,.F.);
#272=ORIENTED_EDGE('',*,*,#465,.F.);
#273=ORIENTED_EDGE('',*,*,#441,.T.);
#274=ORIENTED_EDGE('',*,*,#467,.T.);
#275=ORIENTED_EDGE('',*,*,#403,.F.);
#276=ORIENTED_EDGE('',*,*,#469,.F.);
#277=ORIENTED_EDGE('',*,*,#437,.T.);
#278=ORIENTED_EDGE('',*,*,#471,.T.);
#279=ORIENTED_EDGE('',*,*,#475,.T.);
#280=ORIENTED_EDGE('',*,*,#433,.F.);
#281=ORIENTED_EDGE('',*,*,#420,.F.);
#282=ORIENTED_EDGE('',*,*,#475,.F.);
#283=ORIENTED_EDGE('',*,*,#476,.T.);
#284=ORIENTED_EDGE('',*,*,#432,.F.);
#285=ORIENTED_EDGE('',*,*,#424,.F.);
#286=ORIENTED_EDGE('',*,*,#476,.F.);
#287=ORIENTED_EDGE('',*,*,#477,.T.);
#288=ORIENTED_EDGE('',*,*,#431,.F.);
#289=ORIENTED_EDGE('',*,*,#417,.F.);
#290=ORIENTED_EDGE('',*,*,#477,.F.);
#291=ORIENTED_EDGE('',*,*,#478,.F.);
#292=ORIENTED_EDGE('',*,*,#430,.T.);
#293=ORIENTED_EDGE('',*,*,#423,.F.);
#294=ORIENTED_EDGE('',*,*,#478,.T.);
#295=ORIENTED_EDGE('',*,*,#479,.F.);
#296=ORIENTED_EDGE('',*,*,#446,.T.);
#297=ORIENTED_EDGE('',*,*,#422,.F.);
#298=ORIENTED_EDGE('',*,*,#479,.T.);
#299=ORIENTED_EDGE('',*,*,#480,.F.);
#300=ORIENTED_EDGE('',*,*,#429,.T.);
#301=ORIENTED_EDGE('',*,*,#418,.F.);
#302=ORIENTED_EDGE('',*,*,#480,.T.);
#303=ORIENTED_EDGE('',*,*,#481,.F.);
#304=ORIENTED_EDGE('',*,*,#447,.T.);
#305=ORIENTED_EDGE('',*,*,#419,.F.);
#306=ORIENTED_EDGE('',*,*,#481,.T.);
#307=ORIENTED_EDGE('',*,*,#482,.T.);
#308=ORIENTED_EDGE('',*,*,#428,.F.);
#309=ORIENTED_EDGE('',*,*,#421,.F.);
#310=ORIENTED_EDGE('',*,*,#482,.F.);
#311=ORIENTED_EDGE('',*,*,#427,.T.);
#312=ORIENTED_EDGE('',*,*,#410,.F.);
#313=ORIENTED_EDGE('',*,*,#426,.T.);
#314=ORIENTED_EDGE('',*,*,#411,.F.);
#315=ORIENTED_EDGE('',*,*,#425,.T.);
#316=ORIENTED_EDGE('',*,*,#412,.F.);
#317=ORIENTED_EDGE('',*,*,#483,.F.);
#318=ORIENTED_EDGE('',*,*,#484,.F.);
#319=ORIENTED_EDGE('',*,*,#485,.F.);
#320=ORIENTED_EDGE('',*,*,#413,.F.);
#321=ORIENTED_EDGE('',*,*,#486,.F.);
#322=ORIENTED_EDGE('',*,*,#487,.T.);
#323=ORIENTED_EDGE('',*,*,#488,.T.);
#324=ORIENTED_EDGE('',*,*,#416,.T.);
#325=ORIENTED_EDGE('',*,*,#489,.F.);
#326=ORIENTED_EDGE('',*,*,#490,.F.);
#327=ORIENTED_EDGE('',*,*,#486,.T.);
#328=ORIENTED_EDGE('',*,*,#415,.T.);
#329=ORIENTED_EDGE('',*,*,#491,.F.);
#330=ORIENTED_EDGE('',*,*,#492,.F.);
#331=ORIENTED_EDGE('',*,*,#489,.T.);
#332=ORIENTED_EDGE('',*,*,#414,.F.);
#333=ORIENTED_EDGE('',*,*,#488,.F.);
#334=ORIENTED_EDGE('',*,*,#493,.T.);
#335=ORIENTED_EDGE('',*,*,#491,.T.);
#336=ORIENTED_EDGE('',*,*,#487,.F.);
#337=ORIENTED_EDGE('',*,*,#490,.T.);
#338=ORIENTED_EDGE('',*,*,#492,.T.);
#339=ORIENTED_EDGE('',*,*,#493,.F.);
#340=ORIENTED_EDGE('',*,*,#485,.T.);
#341=ORIENTED_EDGE('',*,*,#458,.F.);
#342=ORIENTED_EDGE('',*,*,#484,.T.);
#343=ORIENTED_EDGE('',*,*,#457,.F.);
#344=ORIENTED_EDGE('',*,*,#483,.T.);
#345=ORIENTED_EDGE('',*,*,#456,.F.);
#346=ORIENTED_EDGE('',*,*,#463,.F.);
#347=ORIENTED_EDGE('',*,*,#473,.F.);
#348=ORIENTED_EDGE('',*,*,#494,.F.);
#349=ORIENTED_EDGE('',*,*,#445,.F.);
#350=ORIENTED_EDGE('',*,*,#461,.F.);
#351=ORIENTED_EDGE('',*,*,#395,.F.);
#352=ORIENTED_EDGE('',*,*,#495,.F.);
#353=ORIENTED_EDGE('',*,*,#474,.F.);
#354=ORIENTED_EDGE('',*,*,#496,.F.);
#355=ORIENTED_EDGE('',*,*,#472,.F.);
#356=ORIENTED_EDGE('',*,*,#497,.F.);
#357=ORIENTED_EDGE('',*,*,#451,.F.);
#358=ORIENTED_EDGE('',*,*,#494,.T.);
#359=ORIENTED_EDGE('',*,*,#496,.T.);
#360=ORIENTED_EDGE('',*,*,#498,.F.);
#361=ORIENTED_EDGE('',*,*,#497,.T.);
#362=ORIENTED_EDGE('',*,*,#495,.T.);
#363=ORIENTED_EDGE('',*,*,#499,.F.);
#364=ORIENTED_EDGE('',*,*,#498,.T.);
#365=ORIENTED_EDGE('',*,*,#450,.F.);
#366=ORIENTED_EDGE('',*,*,#500,.F.);
#367=ORIENTED_EDGE('',*,*,#442,.F.);
#368=ORIENTED_EDGE('',*,*,#459,.F.);
#369=ORIENTED_EDGE('',*,*,#443,.F.);
#370=ORIENTED_EDGE('',*,*,#501,.F.);
#371=ORIENTED_EDGE('',*,*,#453,.F.);
#372=ORIENTED_EDGE('',*,*,#460,.F.);
#373=ORIENTED_EDGE('',*,*,#455,.F.);
#374=ORIENTED_EDGE('',*,*,#502,.F.);
#375=ORIENTED_EDGE('',*,*,#397,.F.);
#376=ORIENTED_EDGE('',*,*,#499,.T.);
#377=ORIENTED_EDGE('',*,*,#394,.F.);
#378=ORIENTED_EDGE('',*,*,#503,.F.);
#379=ORIENTED_EDGE('',*,*,#448,.F.);
#380=ORIENTED_EDGE('',*,*,#501,.T.);
#381=ORIENTED_EDGE('',*,*,#500,.T.);
#382=ORIENTED_EDGE('',*,*,#504,.F.);
#383=ORIENTED_EDGE('',*,*,#503,.T.);
#384=ORIENTED_EDGE('',*,*,#502,.T.);
#385=ORIENTED_EDGE('',*,*,#505,.F.);
#386=ORIENTED_EDGE('',*,*,#504,.T.);
#387=ORIENTED_EDGE('',*,*,#449,.F.);
#388=ORIENTED_EDGE('',*,*,#505,.T.);
#389=ORIENTED_EDGE('',*,*,#454,.F.);
#390=EDGE_CURVE('',#506,#506,#594,.T.);
#391=EDGE_CURVE('',#507,#507,#595,.T.);
#392=EDGE_CURVE('',#508,#508,#596,.T.);
#393=EDGE_CURVE('',#509,#509,#597,.T.);
#394=EDGE_CURVE('',#510,#511,#46,.T.);
#395=EDGE_CURVE('',#511,#512,#47,.T.);
#396=EDGE_CURVE('',#513,#512,#48,.T.);
#397=EDGE_CURVE('',#513,#510,#49,.F.);
#398=EDGE_CURVE('',#514,#515,#50,.T.);
#399=EDGE_CURVE('',#515,#516,#51,.T.);
#400=EDGE_CURVE('',#517,#516,#52,.T.);
#401=EDGE_CURVE('',#514,#517,#53,.T.);
#402=EDGE_CURVE('',#518,#519,#54,.T.);
#403=EDGE_CURVE('',#519,#520,#55,.T.);
#404=EDGE_CURVE('',#521,#520,#56,.T.);
#405=EDGE_CURVE('',#518,#521,#57,.T.);
#406=EDGE_CURVE('',#522,#522,#598,.T.);
#407=EDGE_CURVE('',#523,#523,#599,.T.);
#408=EDGE_CURVE('',#524,#524,#600,.T.);
#409=EDGE_CURVE('',#525,#525,#601,.T.);
#410=EDGE_CURVE('',#526,#526,#602,.T.);
#411=EDGE_CURVE('',#527,#527,#603,.T.);
#412=EDGE_CURVE('',#528,#528,#604,.T.);
#413=EDGE_CURVE('',#529,#530,#58,.T.);
#414=EDGE_CURVE('',#530,#531,#59,.T.);
#415=EDGE_CURVE('',#532,#531,#60,.T.);
#416=EDGE_CURVE('',#529,#532,#61,.T.);
#417=EDGE_CURVE('',#533,#533,#605,.T.);
#418=EDGE_CURVE('',#534,#534,#606,.T.);
#419=EDGE_CURVE('',#535,#535,#607,.T.);
#420=EDGE_CURVE('',#536,#536,#608,.T.);
#421=EDGE_CURVE('',#537,#537,#609,.T.);
#422=EDGE_CURVE('',#538,#538,#610,.T.);
#423=EDGE_CURVE('',#539,#539,#611,.T.);
#424=EDGE_CURVE('',#540,#540,#612,.T.);
#425=EDGE_CURVE('',#541,#541,#613,.T.);
#426=EDGE_CURVE('',#542,#542,#614,.T.);
#427=EDGE_CURVE('',#543,#543,#615,.T.);
#428=EDGE_CURVE('',#544,#544,#616,.T.);
#429=EDGE_CURVE('',#545,#545,#617,.T.);
#430=EDGE_CURVE('',#546,#546,#618,.T.);
#431=EDGE_CURVE('',#547,#547,#619,.T.);
#432=EDGE_CURVE('',#548,#548,#620,.T.);
#433=EDGE_CURVE('',#549,#549,#621,.T.);
#434=EDGE_CURVE('',#550,#551,#62,.T.);
#435=EDGE_CURVE('',#550,#552,#63,.T.);
#436=EDGE_CURVE('',#552,#553,#64,.T.);
#437=EDGE_CURVE('',#551,#553,#65,.T.);
#438=EDGE_CURVE('',#554,#555,#66,.T.);
#439=EDGE_CURVE('',#554,#556,#67,.T.);
#440=EDGE_CURVE('',#556,#557,#68,.T.);
#441=EDGE_CURVE('',#555,#557,#69,.T.);
#442=EDGE_CURVE('',#558,#559,#70,.F.);
#443=EDGE_CURVE('',#559,#560,#71,.T.);
#444=EDGE_CURVE('',#560,#561,#72,.T.);
#445=EDGE_CURVE('',#561,#558,#73,.F.);
#446=EDGE_CURVE('',#562,#562,#622,.T.);
#447=EDGE_CURVE('',#563,#563,#623,.T.);
#448=EDGE_CURVE('',#564,#565,#74,.F.);
#449=EDGE_CURVE('',#565,#566,#75,.F.);
#450=EDGE_CURVE('',#566,#567,#76,.T.);
#451=EDGE_CURVE('',#567,#564,#77,.T.);
#452=EDGE_CURVE('',#568,#569,#78,.T.);
#453=EDGE_CURVE('',#568,#570,#79,.F.);
#454=EDGE_CURVE('',#570,#571,#80,.T.);
#455=EDGE_CURVE('',#571,#569,#81,.T.);
#456=EDGE_CURVE('',#572,#572,#624,.T.);
#457=EDGE_CURVE('',#573,#573,#625,.T.);
#458=EDGE_CURVE('',#574,#574,#626,.T.);
#459=EDGE_CURVE('',#560,#568,#627,.F.);
#460=EDGE_CURVE('',#569,#513,#628,.F.);
#461=EDGE_CURVE('',#512,#575,#629,.F.);
#462=EDGE_CURVE('',#576,#575,#82,.T.);
#463=EDGE_CURVE('',#576,#561,#630,.F.);
#464=EDGE_CURVE('',#554,#514,#83,.T.);
#465=EDGE_CURVE('',#555,#515,#84,.T.);
#466=EDGE_CURVE('',#556,#517,#85,.T.);
#467=EDGE_CURVE('',#557,#516,#86,.T.);
#468=EDGE_CURVE('',#550,#518,#87,.T.);
#469=EDGE_CURVE('',#551,#519,#88,.T.);
#470=EDGE_CURVE('',#552,#521,#89,.T.);
#471=EDGE_CURVE('',#553,#520,#90,.T.);
#472=EDGE_CURVE('',#577,#578,#91,.F.);
#473=EDGE_CURVE('',#578,#576,#92,.T.);
#474=EDGE_CURVE('',#575,#577,#93,.F.);
#475=EDGE_CURVE('',#579,#579,#631,.T.);
#476=EDGE_CURVE('',#580,#580,#632,.T.);
#477=EDGE_CURVE('',#581,#581,#633,.T.);
#478=EDGE_CURVE('',#582,#582,#634,.T.);
#479=EDGE_CURVE('',#583,#583,#635,.T.);
#480=EDGE_CURVE('',#584,#584,#636,.T.);
#481=EDGE_CURVE('',#585,#585,#637,.T.);
#482=EDGE_CURVE('',#586,#586,#638,.T.);
#483=EDGE_CURVE('',#587,#587,#639,.T.);
#484=EDGE_CURVE('',#588,#588,#640,.T.);
#485=EDGE_CURVE('',#589,#589,#641,.T.);
#486=EDGE_CURVE('',#590,#529,#94,.T.);
#487=EDGE_CURVE('',#590,#591,#95,.T.);
#488=EDGE_CURVE('',#591,#530,#96,.T.);
#489=EDGE_CURVE('',#592,#532,#97,.T.);
#490=EDGE_CURVE('',#590,#592,#98,.T.);
#491=EDGE_CURVE('',#593,#531,#99,.T.);
#492=EDGE_CURVE('',#592,#593,#100,.T.);
#493=EDGE_CURVE('',#591,#593,#101,.T.);
#494=EDGE_CURVE('',#558,#578,#642,.T.);
#495=EDGE_CURVE('',#577,#511,#643,.T.);
#496=EDGE_CURVE('',#578,#567,#644,.T.);
#497=EDGE_CURVE('',#564,#577,#645,.T.);
#498=EDGE_CURVE('',#558,#567,#646,.F.);
#499=EDGE_CURVE('',#564,#511,#647,.F.);
#500=EDGE_CURVE('',#559,#566,#648,.T.);
#501=EDGE_CURVE('',#570,#559,#649,.T.);
#502=EDGE_CURVE('',#510,#571,#650,.T.);
#503=EDGE_CURVE('',#565,#510,#651,.T.);
#504=EDGE_CURVE('',#570,#566,#652,.F.);
#505=EDGE_CURVE('',#565,#571,#653,.F.);
#506=VERTEX_POINT('',#1427);
#507=VERTEX_POINT('',#1429);
#508=VERTEX_POINT('',#1431);
#509=VERTEX_POINT('',#1433);
#510=VERTEX_POINT('',#1435);
#511=VERTEX_POINT('',#1436);
#512=VERTEX_POINT('',#1438);
#513=VERTEX_POINT('',#1440);
#514=VERTEX_POINT('',#1443);
#515=VERTEX_POINT('',#1444);
#516=VERTEX_POINT('',#1446);
#517=VERTEX_POINT('',#1448);
#518=VERTEX_POINT('',#1451);
#519=VERTEX_POINT('',#1452);
#520=VERTEX_POINT('',#1454);
#521=VERTEX_POINT('',#1456);
#522=VERTEX_POINT('',#1459);
#523=VERTEX_POINT('',#1461);
#524=VERTEX_POINT('',#1463);
#525=VERTEX_POINT('',#1465);
#526=VERTEX_POINT('',#1467);
#527=VERTEX_POINT('',#1469);
#528=VERTEX_POINT('',#1471);
#529=VERTEX_POINT('',#1473);
#530=VERTEX_POINT('',#1474);
#531=VERTEX_POINT('',#1476);
#532=VERTEX_POINT('',#1478);
#533=VERTEX_POINT('',#1482);
#534=VERTEX_POINT('',#1485);
#535=VERTEX_POINT('',#1488);
#536=VERTEX_POINT('',#1491);
#537=VERTEX_POINT('',#1494);
#538=VERTEX_POINT('',#1497);
#539=VERTEX_POINT('',#1500);
#540=VERTEX_POINT('',#1503);
#541=VERTEX_POINT('',#1506);
#542=VERTEX_POINT('',#1508);
#543=VERTEX_POINT('',#1510);
#544=VERTEX_POINT('',#1512);
#545=VERTEX_POINT('',#1514);
#546=VERTEX_POINT('',#1516);
#547=VERTEX_POINT('',#1518);
#548=VERTEX_POINT('',#1520);
#549=VERTEX_POINT('',#1522);
#550=VERTEX_POINT('',#1524);
#551=VERTEX_POINT('',#1525);
#552=VERTEX_POINT('',#1527);
#553=VERTEX_POINT('',#1529);
#554=VERTEX_POINT('',#1532);
#555=VERTEX_POINT('',#1533);
#556=VERTEX_POINT('',#1535);
#557=VERTEX_POINT('',#1537);
#558=VERTEX_POINT('',#1540);
#559=VERTEX_POINT('',#1541);
#560=VERTEX_POINT('',#1543);
#561=VERTEX_POINT('',#1545);
#562=VERTEX_POINT('',#1548);
#563=VERTEX_POINT('',#1550);
#564=VERTEX_POINT('',#1553);
#565=VERTEX_POINT('',#1554);
#566=VERTEX_POINT('',#1556);
#567=VERTEX_POINT('',#1558);
#568=VERTEX_POINT('',#1562);
#569=VERTEX_POINT('',#1563);
#570=VERTEX_POINT('',#1565);
#571=VERTEX_POINT('',#1567);
#572=VERTEX_POINT('',#1571);
#573=VERTEX_POINT('',#1573);
#574=VERTEX_POINT('',#1575);
#575=VERTEX_POINT('',#1579);
#576=VERTEX_POINT('',#1581);
#577=VERTEX_POINT('',#1599);
#578=VERTEX_POINT('',#1600);
#579=VERTEX_POINT('',#1607);
#580=VERTEX_POINT('',#1611);
#581=VERTEX_POINT('',#1615);
#582=VERTEX_POINT('',#1619);
#583=VERTEX_POINT('',#1623);
#584=VERTEX_POINT('',#1627);
#585=VERTEX_POINT('',#1631);
#586=VERTEX_POINT('',#1635);
#587=VERTEX_POINT('',#1642);
#588=VERTEX_POINT('',#1644);
#589=VERTEX_POINT('',#1646);
#590=VERTEX_POINT('',#1648);
#591=VERTEX_POINT('',#1650);
#592=VERTEX_POINT('',#1654);
#593=VERTEX_POINT('',#1658);
#594=CIRCLE('',#1004,0.00265);
#595=CIRCLE('',#1005,0.00265);
#596=CIRCLE('',#1006,0.00265);
#597=CIRCLE('',#1007,0.00265);
#598=CIRCLE('',#1008,0.00265);
#599=CIRCLE('',#1009,0.00265);
#600=CIRCLE('',#1010,0.00265);
#601=CIRCLE('',#1011,0.00265);
#602=CIRCLE('',#1012,0.00275);
#603=CIRCLE('',#1013,0.00275);
#604=CIRCLE('',#1014,0.00275);
#605=CIRCLE('',#1016,0.00265);
#606=CIRCLE('',#1018,0.00265);
#607=CIRCLE('',#1020,0.00265);
#608=CIRCLE('',#1022,0.00265);
#609=CIRCLE('',#1024,0.00265);
#610=CIRCLE('',#1026,0.00265);
#611=CIRCLE('',#1028,0.00265);
#612=CIRCLE('',#1030,0.00265);
#613=CIRCLE('',#1032,0.00275);
#614=CIRCLE('',#1033,0.00275);
#615=CIRCLE('',#1034,0.00275);
#616=CIRCLE('',#1035,0.0044);
#617=CIRCLE('',#1036,0.0044);
#618=CIRCLE('',#1037,0.0044);
#619=CIRCLE('',#1038,0.0044);
#620=CIRCLE('',#1039,0.0044);
#621=CIRCLE('',#1040,0.0044);
#622=CIRCLE('',#1041,0.0044);
#623=CIRCLE('',#1042,0.0044);
#624=CIRCLE('',#1046,0.00275);
#625=CIRCLE('',#1047,0.00275);
#626=CIRCLE('',#1048,0.00275);
#627=CIRCLE('',#1049,0.003);
#628=CIRCLE('',#1050,0.003);
#629=CIRCLE('',#1051,0.003);
#630=CIRCLE('',#1052,0.003);
#631=CIRCLE('',#1063,0.0044);
#632=CIRCLE('',#1066,0.0044);
#633=CIRCLE('',#1069,0.0044);
#634=CIRCLE('',#1072,0.0044);
#635=CIRCLE('',#1075,0.0044);
#636=CIRCLE('',#1078,0.0044);
#637=CIRCLE('',#1081,0.0044);
#638=CIRCLE('',#1084,0.0044);
#639=CIRCLE('',#1090,0.00275);
#640=CIRCLE('',#1091,0.00275);
#641=CIRCLE('',#1092,0.00275);
#642=CIRCLE('',#1101,0.003);
#643=CIRCLE('',#1103,0.003);
#644=CIRCLE('',#1105,0.003);
#645=CIRCLE('',#1106,0.003);
#646=CIRCLE('',#1108,0.003);
#647=CIRCLE('',#1110,0.003);
#648=CIRCLE('',#1112,0.003);
#649=CIRCLE('',#1114,0.003);
#650=CIRCLE('',#1116,0.003);
#651=CIRCLE('',#1118,0.003);
#652=CIRCLE('',#1120,0.003);
#653=CIRCLE('',#1122,0.003);
#654=EDGE_LOOP('',(#158));
#655=EDGE_LOOP('',(#159));
#656=EDGE_LOOP('',(#160));
#657=EDGE_LOOP('',(#161));
#658=EDGE_LOOP('',(#162,#163,#164,#165));
#659=EDGE_LOOP('',(#166,#167,#168,#169));
#660=EDGE_LOOP('',(#170,#171,#172,#173));
#661=EDGE_LOOP('',(#174));
#662=EDGE_LOOP('',(#175));
#663=EDGE_LOOP('',(#176));
#664=EDGE_LOOP('',(#177));
#665=EDGE_LOOP('',(#178));
#666=EDGE_LOOP('',(#179));
#667=EDGE_LOOP('',(#180));
#668=EDGE_LOOP('',(#181,#182,#183,#184));
#669=EDGE_LOOP('',(#185));
#670=EDGE_LOOP('',(#186));
#671=EDGE_LOOP('',(#187));
#672=EDGE_LOOP('',(#188));
#673=EDGE_LOOP('',(#189));
#674=EDGE_LOOP('',(#190));
#675=EDGE_LOOP('',(#191));
#676=EDGE_LOOP('',(#192));
#677=EDGE_LOOP('',(#193));
#678=EDGE_LOOP('',(#194));
#679=EDGE_LOOP('',(#195));
#680=EDGE_LOOP('',(#196));
#681=EDGE_LOOP('',(#197));
#682=EDGE_LOOP('',(#198));
#683=EDGE_LOOP('',(#199));
#684=EDGE_LOOP('',(#200));
#685=EDGE_LOOP('',(#201));
#686=EDGE_LOOP('',(#202));
#687=EDGE_LOOP('',(#203));
#688=EDGE_LOOP('',(#204));
#689=EDGE_LOOP('',(#205));
#690=EDGE_LOOP('',(#206));
#691=EDGE_LOOP('',(#207));
#692=EDGE_LOOP('',(#208));
#693=EDGE_LOOP('',(#209));
#694=EDGE_LOOP('',(#210,#211,#212,#213));
#695=EDGE_LOOP('',(#214,#215,#216,#217));
#696=EDGE_LOOP('',(#218,#219,#220,#221));
#697=EDGE_LOOP('',(#222));
#698=EDGE_LOOP('',(#223));
#699=EDGE_LOOP('',(#224,#225,#226,#227));
#700=EDGE_LOOP('',(#228,#229,#230,#231));
#701=EDGE_LOOP('',(#232));
#702=EDGE_LOOP('',(#233));
#703=EDGE_LOOP('',(#234));
#704=EDGE_LOOP('',(#235,#236,#237,#238,#239,#240,#241,#242));
#705=EDGE_LOOP('',(#243,#244,#245,#246));
#706=EDGE_LOOP('',(#247,#248,#249,#250));
#707=EDGE_LOOP('',(#251,#252,#253,#254));
#708=EDGE_LOOP('',(#255,#256,#257,#258));
#709=EDGE_LOOP('',(#259,#260,#261,#262));
#710=EDGE_LOOP('',(#263,#264,#265,#266));
#711=EDGE_LOOP('',(#267,#268,#269,#270));
#712=EDGE_LOOP('',(#271,#272,#273,#274));
#713=EDGE_LOOP('',(#275,#276,#277,#278));
#714=EDGE_LOOP('',(#279));
#715=EDGE_LOOP('',(#280));
#716=EDGE_LOOP('',(#281));
#717=EDGE_LOOP('',(#282));
#718=EDGE_LOOP('',(#283));
#719=EDGE_LOOP('',(#284));
#720=EDGE_LOOP('',(#285));
#721=EDGE_LOOP('',(#286));
#722=EDGE_LOOP('',(#287));
#723=EDGE_LOOP('',(#288));
#724=EDGE_LOOP('',(#289));
#725=EDGE_LOOP('',(#290));
#726=EDGE_LOOP('',(#291));
#727=EDGE_LOOP('',(#292));
#728=EDGE_LOOP('',(#293));
#729=EDGE_LOOP('',(#294));
#730=EDGE_LOOP('',(#295));
#731=EDGE_LOOP('',(#296));
#732=EDGE_LOOP('',(#297));
#733=EDGE_LOOP('',(#298));
#734=EDGE_LOOP('',(#299));
#735=EDGE_LOOP('',(#300));
#736=EDGE_LOOP('',(#301));
#737=EDGE_LOOP('',(#302));
#738=EDGE_LOOP('',(#303));
#739=EDGE_LOOP('',(#304));
#740=EDGE_LOOP('',(#305));
#741=EDGE_LOOP('',(#306));
#742=EDGE_LOOP('',(#307));
#743=EDGE_LOOP('',(#308));
#744=EDGE_LOOP('',(#309));
#745=EDGE_LOOP('',(#310));
#746=EDGE_LOOP('',(#311));
#747=EDGE_LOOP('',(#312));
#748=EDGE_LOOP('',(#313));
#749=EDGE_LOOP('',(#314));
#750=EDGE_LOOP('',(#315));
#751=EDGE_LOOP('',(#316));
#752=EDGE_LOOP('',(#317));
#753=EDGE_LOOP('',(#318));
#754=EDGE_LOOP('',(#319));
#755=EDGE_LOOP('',(#320,#321,#322,#323));
#756=EDGE_LOOP('',(#324,#325,#326,#327));
#757=EDGE_LOOP('',(#328,#329,#330,#331));
#758=EDGE_LOOP('',(#332,#333,#334,#335));
#759=EDGE_LOOP('',(#336,#337,#338,#339));
#760=EDGE_LOOP('',(#340));
#761=EDGE_LOOP('',(#341));
#762=EDGE_LOOP('',(#342));
#763=EDGE_LOOP('',(#343));
#764=EDGE_LOOP('',(#344));
#765=EDGE_LOOP('',(#345));
#766=EDGE_LOOP('',(#346,#347,#348,#349));
#767=EDGE_LOOP('',(#350,#351,#352,#353));
#768=EDGE_LOOP('',(#354,#355,#356,#357));
#769=EDGE_LOOP('',(#358,#359,#360));
#770=EDGE_LOOP('',(#361,#362,#363));
#771=EDGE_LOOP('',(#364,#365,#366,#367));
#772=EDGE_LOOP('',(#368,#369,#370,#371));
#773=EDGE_LOOP('',(#372,#373,#374,#375));
#774=EDGE_LOOP('',(#376,#377,#378,#379));
#775=EDGE_LOOP('',(#380,#381,#382));
#776=EDGE_LOOP('',(#383,#384,#385));
#777=EDGE_LOOP('',(#386,#387,#388,#389));
#778=FACE_BOUND('',#654,.T.);
#779=FACE_BOUND('',#655,.T.);
#780=FACE_BOUND('',#656,.T.);
#781=FACE_BOUND('',#657,.T.);
#782=FACE_BOUND('',#658,.T.);
#783=FACE_BOUND('',#659,.T.);
#784=FACE_BOUND('',#660,.T.);
#785=FACE_BOUND('',#661,.T.);
#786=FACE_BOUND('',#662,.T.);
#787=FACE_BOUND('',#663,.T.);
#788=FACE_BOUND('',#664,.T.);
#789=FACE_BOUND('',#665,.T.);
#790=FACE_BOUND('',#666,.T.);
#791=FACE_BOUND('',#667,.T.);
#792=FACE_BOUND('',#668,.T.);
#793=FACE_BOUND('',#669,.T.);
#794=FACE_BOUND('',#670,.T.);
#795=FACE_BOUND('',#671,.T.);
#796=FACE_BOUND('',#672,.T.);
#797=FACE_BOUND('',#673,.T.);
#798=FACE_BOUND('',#674,.T.);
#799=FACE_BOUND('',#675,.T.);
#800=FACE_BOUND('',#676,.T.);
#801=FACE_BOUND('',#677,.T.);
#802=FACE_BOUND('',#678,.T.);
#803=FACE_BOUND('',#679,.T.);
#804=FACE_BOUND('',#680,.T.);
#805=FACE_BOUND('',#681,.T.);
#806=FACE_BOUND('',#682,.T.);
#807=FACE_BOUND('',#683,.T.);
#808=FACE_BOUND('',#684,.T.);
#809=FACE_BOUND('',#685,.T.);
#810=FACE_BOUND('',#686,.T.);
#811=FACE_BOUND('',#687,.T.);
#812=FACE_BOUND('',#688,.T.);
#813=FACE_BOUND('',#689,.T.);
#814=FACE_BOUND('',#690,.T.);
#815=FACE_BOUND('',#691,.T.);
#816=FACE_BOUND('',#692,.T.);
#817=FACE_BOUND('',#693,.T.);
#818=FACE_BOUND('',#694,.T.);
#819=FACE_BOUND('',#695,.T.);
#820=FACE_BOUND('',#696,.T.);
#821=FACE_BOUND('',#697,.T.);
#822=FACE_BOUND('',#698,.T.);
#823=FACE_BOUND('',#699,.T.);
#824=FACE_BOUND('',#700,.T.);
#825=FACE_BOUND('',#701,.T.);
#826=FACE_BOUND('',#702,.T.);
#827=FACE_BOUND('',#703,.T.);
#828=FACE_BOUND('',#704,.T.);
#829=FACE_BOUND('',#705,.T.);
#830=FACE_BOUND('',#706,.T.);
#831=FACE_BOUND('',#707,.T.);
#832=FACE_BOUND('',#708,.T.);
#833=FACE_BOUND('',#709,.T.);
#834=FACE_BOUND('',#710,.T.);
#835=FACE_BOUND('',#711,.T.);
#836=FACE_BOUND('',#712,.T.);
#837=FACE_BOUND('',#713,.T.);
#838=FACE_BOUND('',#714,.T.);
#839=FACE_BOUND('',#715,.T.);
#840=FACE_BOUND('',#716,.T.);
#841=FACE_BOUND('',#717,.T.);
#842=FACE_BOUND('',#718,.T.);
#843=FACE_BOUND('',#719,.T.);
#844=FACE_BOUND('',#720,.T.);
#845=FACE_BOUND('',#721,.T.);
#846=FACE_BOUND('',#722,.T.);
#847=FACE_BOUND('',#723,.T.);
#848=FACE_BOUND('',#724,.T.);
#849=FACE_BOUND('',#725,.T.);
#850=FACE_BOUND('',#726,.T.);
#851=FACE_BOUND('',#727,.T.);
#852=FACE_BOUND('',#728,.T.);
#853=FACE_BOUND('',#729,.T.);
#854=FACE_BOUND('',#730,.T.);
#855=FACE_BOUND('',#731,.T.);
#856=FACE_BOUND('',#732,.T.);
#857=FACE_BOUND('',#733,.T.);
#858=FACE_BOUND('',#734,.T.);
#859=FACE_BOUND('',#735,.T.);
#860=FACE_BOUND('',#736,.T.);
#861=FACE_BOUND('',#737,.T.);
#862=FACE_BOUND('',#738,.T.);
#863=FACE_BOUND('',#739,.T.);
#864=FACE_BOUND('',#740,.T.);
#865=FACE_BOUND('',#741,.T.);
#866=FACE_BOUND('',#742,.T.);
#867=FACE_BOUND('',#743,.T.);
#868=FACE_BOUND('',#744,.T.);
#869=FACE_BOUND('',#745,.T.);
#870=FACE_BOUND('',#746,.T.);
#871=FACE_BOUND('',#747,.T.);
#872=FACE_BOUND('',#748,.T.);
#873=FACE_BOUND('',#749,.T.);
#874=FACE_BOUND('',#750,.T.);
#875=FACE_BOUND('',#751,.T.);
#876=FACE_BOUND('',#752,.T.);
#877=FACE_BOUND('',#753,.T.);
#878=FACE_BOUND('',#754,.T.);
#879=FACE_BOUND('',#755,.T.);
#880=FACE_BOUND('',#756,.T.);
#881=FACE_BOUND('',#757,.T.);
#882=FACE_BOUND('',#758,.T.);
#883=FACE_BOUND('',#759,.T.);
#884=FACE_BOUND('',#760,.T.);
#885=FACE_BOUND('',#761,.T.);
#886=FACE_BOUND('',#762,.T.);
#887=FACE_BOUND('',#763,.T.);
#888=FACE_BOUND('',#764,.T.);
#889=FACE_BOUND('',#765,.T.);
#890=FACE_BOUND('',#766,.T.);
#891=FACE_BOUND('',#767,.T.);
#892=FACE_BOUND('',#768,.T.);
#893=FACE_BOUND('',#769,.T.);
#894=FACE_BOUND('',#770,.T.);
#895=FACE_BOUND('',#771,.T.);
#896=FACE_BOUND('',#772,.T.);
#897=FACE_BOUND('',#773,.T.);
#898=FACE_BOUND('',#774,.T.);
#899=FACE_BOUND('',#775,.T.);
#900=FACE_BOUND('',#776,.T.);
#901=FACE_BOUND('',#777,.T.);
#902=PLANE('',#1003);
#903=PLANE('',#1031);
#904=PLANE('',#1043);
#905=PLANE('',#1044);
#906=PLANE('',#1045);
#907=PLANE('',#1053);
#908=PLANE('',#1054);
#909=PLANE('',#1055);
#910=PLANE('',#1056);
#911=PLANE('',#1057);
#912=PLANE('',#1058);
#913=PLANE('',#1059);
#914=PLANE('',#1060);
#915=PLANE('',#1061);
#916=PLANE('',#1064);
#917=PLANE('',#1067);
#918=PLANE('',#1070);
#919=PLANE('',#1073);
#920=PLANE('',#1076);
#921=PLANE('',#1079);
#922=PLANE('',#1082);
#923=PLANE('',#1085);
#924=PLANE('',#1089);
#925=PLANE('',#1093);
#926=PLANE('',#1094);
#927=PLANE('',#1095);
#928=PLANE('',#1096);
#929=ADVANCED_FACE('',(#778,#779,#780,#781,#782,#783,#784,#785,#786,#787,
#788,#789,#790,#791,#792),#902,.F.);
#930=ADVANCED_FACE('',(#793,#794),#16,.F.);
#931=ADVANCED_FACE('',(#795,#796),#17,.F.);
#932=ADVANCED_FACE('',(#797,#798),#18,.F.);
#933=ADVANCED_FACE('',(#799,#800),#19,.F.);
#934=ADVANCED_FACE('',(#801,#802),#20,.F.);
#935=ADVANCED_FACE('',(#803,#804),#21,.F.);
#936=ADVANCED_FACE('',(#805,#806),#22,.F.);
#937=ADVANCED_FACE('',(#807,#808),#23,.F.);
#938=ADVANCED_FACE('',(#809,#810,#811,#812,#813,#814,#815,#816,#817,#818,
#819,#820,#821,#822),#903,.T.);
#939=ADVANCED_FACE('',(#823),#904,.T.);
#940=ADVANCED_FACE('',(#824),#905,.F.);
#941=ADVANCED_FACE('',(#825,#826,#827,#828),#906,.F.);
#942=ADVANCED_FACE('',(#829),#907,.T.);
#943=ADVANCED_FACE('',(#830),#908,.F.);
#944=ADVANCED_FACE('',(#831),#909,.F.);
#945=ADVANCED_FACE('',(#832),#910,.T.);
#946=ADVANCED_FACE('',(#833),#911,.F.);
#947=ADVANCED_FACE('',(#834),#912,.F.);
#948=ADVANCED_FACE('',(#835),#913,.T.);
#949=ADVANCED_FACE('',(#836),#914,.T.);
#950=ADVANCED_FACE('',(#837),#915,.T.);
#951=ADVANCED_FACE('',(#838,#839),#24,.F.);
#952=ADVANCED_FACE('',(#840,#841),#916,.T.);
#953=ADVANCED_FACE('',(#842,#843),#25,.F.);
#954=ADVANCED_FACE('',(#844,#845),#917,.T.);
#955=ADVANCED_FACE('',(#846,#847),#26,.F.);
#956=ADVANCED_FACE('',(#848,#849),#918,.T.);
#957=ADVANCED_FACE('',(#850,#851),#27,.F.);
#958=ADVANCED_FACE('',(#852,#853),#919,.T.);
#959=ADVANCED_FACE('',(#854,#855),#28,.F.);
#960=ADVANCED_FACE('',(#856,#857),#920,.T.);
#961=ADVANCED_FACE('',(#858,#859),#29,.F.);
#962=ADVANCED_FACE('',(#860,#861),#921,.T.);
#963=ADVANCED_FACE('',(#862,#863),#30,.F.);
#964=ADVANCED_FACE('',(#864,#865),#922,.T.);
#965=ADVANCED_FACE('',(#866,#867),#31,.F.);
#966=ADVANCED_FACE('',(#868,#869),#923,.T.);
#967=ADVANCED_FACE('',(#870,#871),#32,.F.);
#968=ADVANCED_FACE('',(#872,#873),#33,.F.);
#969=ADVANCED_FACE('',(#874,#875),#34,.F.);
#970=ADVANCED_FACE('',(#876,#877,#878,#879),#924,.T.);
#971=ADVANCED_FACE('',(#880),#925,.F.);
#972=ADVANCED_FACE('',(#881),#926,.F.);
#973=ADVANCED_FACE('',(#882),#927,.T.);
#974=ADVANCED_FACE('',(#883),#928,.T.);
#975=ADVANCED_FACE('',(#884,#885),#35,.F.);
#976=ADVANCED_FACE('',(#886,#887),#36,.F.);
#977=ADVANCED_FACE('',(#888,#889),#37,.F.);
#978=ADVANCED_FACE('',(#890),#38,.T.);
#979=ADVANCED_FACE('',(#891),#39,.T.);
#980=ADVANCED_FACE('',(#892),#40,.T.);
#981=ADVANCED_FACE('',(#893),#12,.T.);
#982=ADVANCED_FACE('',(#894),#13,.T.);
#983=ADVANCED_FACE('',(#895),#41,.T.);
#984=ADVANCED_FACE('',(#896),#42,.T.);
#985=ADVANCED_FACE('',(#897),#43,.T.);
#986=ADVANCED_FACE('',(#898),#44,.T.);
#987=ADVANCED_FACE('',(#899),#14,.T.);
#988=ADVANCED_FACE('',(#900),#15,.T.);
#989=ADVANCED_FACE('',(#901),#45,.T.);
#990=CLOSED_SHELL('',(#929,#930,#931,#932,#933,#934,#935,#936,#937,#938,
#939,#940,#941,#942,#943,#944,#945,#946,#947,#948,#949,#950,#951,#952,#953,
#954,#955,#956,#957,#958,#959,#960,#961,#962,#963,#964,#965,#966,#967,#968,
#969,#970,#971,#972,#973,#974,#975,#976,#977,#978,#979,#980,#981,#982,#983,
#984,#985,#986,#987,#988,#989));
#991=STYLED_ITEM('',(#992),#999);
#992=PRESENTATION_STYLE_ASSIGNMENT((#993));
#993=SURFACE_STYLE_USAGE(.BOTH.,#994);
#994=SURFACE_SIDE_STYLE('',(#995));
#995=SURFACE_STYLE_FILL_AREA(#996);
#996=FILL_AREA_STYLE('',(#997));
#997=FILL_AREA_STYLE_COLOUR('',#998);
#998=COLOUR_RGB('',0.917647058823529,0.917647058823529,0.917647058823529);
#999=MANIFOLD_SOLID_BREP('XAxisSwinger',#990);
#1000=SHAPE_DEFINITION_REPRESENTATION(#1696,#1001);
#1001=SHAPE_REPRESENTATION('XAxisSwinger',(#1002),#1691);
#1002=AXIS2_PLACEMENT_3D('',#1424,#1124,#1125);
#1003=AXIS2_PLACEMENT_3D('',#1425,#1126,#1127);
#1004=AXIS2_PLACEMENT_3D('',#1426,#1128,#1129);
#1005=AXIS2_PLACEMENT_3D('',#1428,#1130,#1131);
#1006=AXIS2_PLACEMENT_3D('',#1430,#1132,#1133);
#1007=AXIS2_PLACEMENT_3D('',#1432,#1134,#1135);
#1008=AXIS2_PLACEMENT_3D('',#1458,#1148,#1149);
#1009=AXIS2_PLACEMENT_3D('',#1460,#1150,#1151);
#1010=AXIS2_PLACEMENT_3D('',#1462,#1152,#1153);
#1011=AXIS2_PLACEMENT_3D('',#1464,#1154,#1155);
#1012=AXIS2_PLACEMENT_3D('',#1466,#1156,#1157);
#1013=AXIS2_PLACEMENT_3D('',#1468,#1158,#1159);
#1014=AXIS2_PLACEMENT_3D('',#1470,#1160,#1161);
#1015=AXIS2_PLACEMENT_3D('',#1480,#1166,#1167);
#1016=AXIS2_PLACEMENT_3D('',#1481,#1168,#1169);
#1017=AXIS2_PLACEMENT_3D('',#1483,#1170,#1171);
#1018=AXIS2_PLACEMENT_3D('',#1484,#1172,#1173);
#1019=AXIS2_PLACEMENT_3D('',#1486,#1174,#1175);
#1020=AXIS2_PLACEMENT_3D('',#1487,#1176,#1177);
#1021=AXIS2_PLACEMENT_3D('',#1489,#1178,#1179);
#1022=AXIS2_PLACEMENT_3D('',#1490,#1180,#1181);
#1023=AXIS2_PLACEMENT_3D('',#1492,#1182,#1183);
#1024=AXIS2_PLACEMENT_3D('',#1493,#1184,#1185);
#1025=AXIS2_PLACEMENT_3D('',#1495,#1186,#1187);
#1026=AXIS2_PLACEMENT_3D('',#1496,#1188,#1189);
#1027=AXIS2_PLACEMENT_3D('',#1498,#1190,#1191);
#1028=AXIS2_PLACEMENT_3D('',#1499,#1192,#1193);
#1029=AXIS2_PLACEMENT_3D('',#1501,#1194,#1195);
#1030=AXIS2_PLACEMENT_3D('',#1502,#1196,#1197);
#1031=AXIS2_PLACEMENT_3D('',#1504,#1198,#1199);
#1032=AXIS2_PLACEMENT_3D('',#1505,#1200,#1201);
#1033=AXIS2_PLACEMENT_3D('',#1507,#1202,#1203);
#1034=AXIS2_PLACEMENT_3D('',#1509,#1204,#1205);
#1035=AXIS2_PLACEMENT_3D('',#1511,#1206,#1207);
#1036=AXIS2_PLACEMENT_3D('',#1513,#1208,#1209);
#1037=AXIS2_PLACEMENT_3D('',#1515,#1210,#1211);
#1038=AXIS2_PLACEMENT_3D('',#1517,#1212,#1213);
#1039=AXIS2_PLACEMENT_3D('',#1519,#1214,#1215);
#1040=AXIS2_PLACEMENT_3D('',#1521,#1216,#1217);
#1041=AXIS2_PLACEMENT_3D('',#1547,#1230,#1231);
#1042=AXIS2_PLACEMENT_3D('',#1549,#1232,#1233);
#1043=AXIS2_PLACEMENT_3D('',#1551,#1234,#1235);
#1044=AXIS2_PLACEMENT_3D('',#1560,#1240,#1241);
#1045=AXIS2_PLACEMENT_3D('',#1569,#1246,#1247);
#1046=AXIS2_PLACEMENT_3D('',#1570,#1248,#1249);
#1047=AXIS2_PLACEMENT_3D('',#1572,#1250,#1251);
#1048=AXIS2_PLACEMENT_3D('',#1574,#1252,#1253);
#1049=AXIS2_PLACEMENT_3D('',#1576,#1254,#1255);
#1050=AXIS2_PLACEMENT_3D('',#1577,#1256,#1257);
#1051=AXIS2_PLACEMENT_3D('',#1578,#1258,#1259);
#1052=AXIS2_PLACEMENT_3D('',#1582,#1261,#1262);
#1053=AXIS2_PLACEMENT_3D('',#1583,#1263,#1264);
#1054=AXIS2_PLACEMENT_3D('',#1586,#1267,#1268);
#1055=AXIS2_PLACEMENT_3D('',#1588,#1270,#1271);
#1056=AXIS2_PLACEMENT_3D('',#1590,#1273,#1274);
#1057=AXIS2_PLACEMENT_3D('',#1593,#1277,#1278);
#1058=AXIS2_PLACEMENT_3D('',#1595,#1280,#1281);
#1059=AXIS2_PLACEMENT_3D('',#1597,#1283,#1284);
#1060=AXIS2_PLACEMENT_3D('',#1603,#1288,#1289);
#1061=AXIS2_PLACEMENT_3D('',#1604,#1290,#1291);
#1062=AXIS2_PLACEMENT_3D('',#1605,#1292,#1293);
#1063=AXIS2_PLACEMENT_3D('',#1606,#1294,#1295);
#1064=AXIS2_PLACEMENT_3D('',#1608,#1296,#1297);
#1065=AXIS2_PLACEMENT_3D('',#1609,#1298,#1299);
#1066=AXIS2_PLACEMENT_3D('',#1610,#1300,#1301);
#1067=AXIS2_PLACEMENT_3D('',#1612,#1302,#1303);
#1068=AXIS2_PLACEMENT_3D('',#1613,#1304,#1305);
#1069=AXIS2_PLACEMENT_3D('',#1614,#1306,#1307);
#1070=AXIS2_PLACEMENT_3D('',#1616,#1308,#1309);
#1071=AXIS2_PLACEMENT_3D('',#1617,#1310,#1311);
#1072=AXIS2_PLACEMENT_3D('',#1618,#1312,#1313);
#1073=AXIS2_PLACEMENT_3D('',#1620,#1314,#1315);
#1074=AXIS2_PLACEMENT_3D('',#1621,#1316,#1317);
#1075=AXIS2_PLACEMENT_3D('',#1622,#1318,#1319);
#1076=AXIS2_PLACEMENT_3D('',#1624,#1320,#1321);
#1077=AXIS2_PLACEMENT_3D('',#1625,#1322,#1323);
#1078=AXIS2_PLACEMENT_3D('',#1626,#1324,#1325);
#1079=AXIS2_PLACEMENT_3D('',#1628,#1326,#1327);
#1080=AXIS2_PLACEMENT_3D('',#1629,#1328,#1329);
#1081=AXIS2_PLACEMENT_3D('',#1630,#1330,#1331);
#1082=AXIS2_PLACEMENT_3D('',#1632,#1332,#1333);
#1083=AXIS2_PLACEMENT_3D('',#1633,#1334,#1335);
#1084=AXIS2_PLACEMENT_3D('',#1634,#1336,#1337);
#1085=AXIS2_PLACEMENT_3D('',#1636,#1338,#1339);
#1086=AXIS2_PLACEMENT_3D('',#1637,#1340,#1341);
#1087=AXIS2_PLACEMENT_3D('',#1638,#1342,#1343);
#1088=AXIS2_PLACEMENT_3D('',#1639,#1344,#1345);
#1089=AXIS2_PLACEMENT_3D('',#1640,#1346,#1347);
#1090=AXIS2_PLACEMENT_3D('',#1641,#1348,#1349);
#1091=AXIS2_PLACEMENT_3D('',#1643,#1350,#1351);
#1092=AXIS2_PLACEMENT_3D('',#1645,#1352,#1353);
#1093=AXIS2_PLACEMENT_3D('',#1652,#1357,#1358);
#1094=AXIS2_PLACEMENT_3D('',#1656,#1361,#1362);
#1095=AXIS2_PLACEMENT_3D('',#1660,#1365,#1366);
#1096=AXIS2_PLACEMENT_3D('',#1662,#1368,#1369);
#1097=AXIS2_PLACEMENT_3D('',#1663,#1370,#1371);
#1098=AXIS2_PLACEMENT_3D('',#1664,#1372,#1373);
#1099=AXIS2_PLACEMENT_3D('',#1665,#1374,#1375);
#1100=AXIS2_PLACEMENT_3D('',#1666,#1376,#1377);
#1101=AXIS2_PLACEMENT_3D('',#1667,#1378,#1379);
#1102=AXIS2_PLACEMENT_3D('',#1668,#1380,#1381);
#1103=AXIS2_PLACEMENT_3D('',#1669,#1382,#1383);
#1104=AXIS2_PLACEMENT_3D('',#1670,#1384,#1385);
#1105=AXIS2_PLACEMENT_3D('',#1671,#1386,#1387);
#1106=AXIS2_PLACEMENT_3D('',#1672,#1388,#1389);
#1107=AXIS2_PLACEMENT_3D('',#1673,#1390,#1391);
#1108=AXIS2_PLACEMENT_3D('',#1674,#1392,#1393);
#1109=AXIS2_PLACEMENT_3D('',#1675,#1394,#1395);
#1110=AXIS2_PLACEMENT_3D('',#1676,#1396,#1397);
#1111=AXIS2_PLACEMENT_3D('',#1677,#1398,#1399);
#1112=AXIS2_PLACEMENT_3D('',#1678,#1400,#1401);
#1113=AXIS2_PLACEMENT_3D('',#1679,#1402,#1403);
#1114=AXIS2_PLACEMENT_3D('',#1680,#1404,#1405);
#1115=AXIS2_PLACEMENT_3D('',#1681,#1406,#1407);
#1116=AXIS2_PLACEMENT_3D('',#1682,#1408,#1409);
#1117=AXIS2_PLACEMENT_3D('',#1683,#1410,#1411);
#1118=AXIS2_PLACEMENT_3D('',#1684,#1412,#1413);
#1119=AXIS2_PLACEMENT_3D('',#1685,#1414,#1415);
#1120=AXIS2_PLACEMENT_3D('',#1686,#1416,#1417);
#1121=AXIS2_PLACEMENT_3D('',#1687,#1418,#1419);
#1122=AXIS2_PLACEMENT_3D('',#1688,#1420,#1421);
#1123=AXIS2_PLACEMENT_3D('',#1689,#1422,#1423);
#1124=DIRECTION('',(0.,0.,1.));
#1125=DIRECTION('',(1.,0.,0.));
#1126=DIRECTION('',(-1.30719991189349E-15,1.,-5.72862171146041E-14));
#1127=DIRECTION('',(1.,1.30719991189349E-15,-7.48845379649221E-29));
#1128=DIRECTION('',(-1.30719991189349E-15,1.,-5.72862171146041E-14));
#1129=DIRECTION('',(0.,5.72862171146041E-14,1.));
#1130=DIRECTION('',(-1.30719991189349E-15,1.,-5.72862171146041E-14));
#1131=DIRECTION('',(0.,5.72862171146041E-14,1.));
#1132=DIRECTION('',(-1.30719991189349E-15,1.,-5.72862171146041E-14));
#1133=DIRECTION('',(0.,5.72862171146041E-14,1.));
#1134=DIRECTION('',(-1.30719991189349E-15,1.,-5.72862171146041E-14));
#1135=DIRECTION('',(0.,5.72862171146041E-14,1.));
#1136=DIRECTION('',(1.,1.30719991189667E-15,5.55111512312578E-14));
#1137=DIRECTION('',(-5.54518444457477E-14,5.7286217114604E-14,1.));
#1138=DIRECTION('',(1.,1.30719991189667E-15,5.55111512312578E-14));
#1139=DIRECTION('',(-5.54518444457477E-14,5.7286217114604E-14,1.));
#1140=DIRECTION('',(-5.54764567617305E-14,5.7286217114604E-14,1.));
#1141=DIRECTION('',(1.,1.30719991189667E-15,5.55111512312579E-14));
#1142=DIRECTION('',(-5.54764567617304E-14,5.7286217114604E-14,1.));
#1143=DIRECTION('',(1.,1.30719991189667E-15,5.55111512312579E-14));
#1144=DIRECTION('',(5.53029844141326E-14,-5.7286217114604E-14,-1.));
#1145=DIRECTION('',(-1.,-1.30719991189667E-15,-5.55111512312575E-14));
#1146=DIRECTION('',(5.53029844141329E-14,-5.7286217114604E-14,-1.));
#1147=DIRECTION('',(-1.,-1.30719991189667E-15,-5.55111512312575E-14));
#1148=DIRECTION('',(-1.30719991189349E-15,1.,-5.72862171146041E-14));
#1149=DIRECTION('',(0.,5.72862171146041E-14,1.));
#1150=DIRECTION('',(-1.30719991189349E-15,1.,-5.72862171146041E-14));
#1151=DIRECTION('',(0.,5.72862171146041E-14,1.));
#1152=DIRECTION('',(-1.30719991189349E-15,1.,-5.72862171146041E-14));
#1153=DIRECTION('',(0.,5.72862171146041E-14,1.));
#1154=DIRECTION('',(-1.30719991189349E-15,1.,-5.72862171146041E-14));
#1155=DIRECTION('',(0.,5.72862171146041E-14,1.));
#1156=DIRECTION('',(-1.30719991189349E-15,1.,-5.72862171146041E-14));
#1157=DIRECTION('',(0.,5.72862171146041E-14,1.));
#1158=DIRECTION('',(-1.30719991189349E-15,1.,-5.72862171146041E-14));
#1159=DIRECTION('',(0.,5.72862171146041E-14,1.));
#1160=DIRECTION('',(-1.30719991189349E-15,1.,-5.72862171146041E-14));
#1161=DIRECTION('',(0.,5.72862171146041E-14,1.));
#1162=DIRECTION('',(1.,1.30719991189349E-15,-7.75483397485218E-30));
#1163=DIRECTION('',(-4.7056372593866E-31,-5.72862171146041E-14,-1.));
#1164=DIRECTION('',(1.,1.30719991189349E-15,-7.75483397485218E-30));
#1165=DIRECTION('',(-4.7056372593866E-31,-5.72862171146041E-14,-1.));
#1166=DIRECTION('',(1.30719991189349E-15,-1.,5.72862171146041E-14));
#1167=DIRECTION('',(0.,-5.72862171146041E-14,-1.));
#1168=DIRECTION('',(-1.30719991189349E-15,1.,-5.72862171146041E-14));
#1169=DIRECTION('',(0.,5.72862171146041E-14,1.));
#1170=DIRECTION('',(1.30719991189349E-15,-1.,5.72862171146041E-14));
#1171=DIRECTION('',(0.,-5.72862171146041E-14,-1.));
#1172=DIRECTION('',(-1.30719991189349E-15,1.,-5.72862171146041E-14));
#1173=DIRECTION('',(0.,5.72862171146041E-14,1.));
#1174=DIRECTION('',(1.30719991189349E-15,-1.,5.72862171146041E-14));
#1175=DIRECTION('',(0.,-5.72862171146041E-14,-1.));
#1176=DIRECTION('',(-1.30719991189349E-15,1.,-5.72862171146041E-14));
#1177=DIRECTION('',(0.,5.72862171146041E-14,1.));
#1178=DIRECTION('',(1.30719991189349E-15,-1.,5.72862171146041E-14));
#1179=DIRECTION('',(0.,-5.72862171146041E-14,-1.));
#1180=DIRECTION('',(-1.30719991189349E-15,1.,-5.72862171146041E-14));
#1181=DIRECTION('',(0.,5.72862171146041E-14,1.));
#1182=DIRECTION('',(1.30719991189349E-15,-1.,5.72862171146041E-14));
#1183=DIRECTION('',(0.,-5.72862171146041E-14,-1.));
#1184=DIRECTION('',(-1.30719991189349E-15,1.,-5.72862171146041E-14));
#1185=DIRECTION('',(0.,5.72862171146041E-14,1.));
#1186=DIRECTION('',(1.30719991189349E-15,-1.,5.72862171146041E-14));
#1187=DIRECTION('',(0.,-5.72862171146041E-14,-1.));
#1188=DIRECTION('',(-1.30719991189349E-15,1.,-5.72862171146041E-14));
#1189=DIRECTION('',(0.,5.72862171146041E-14,1.));
#1190=DIRECTION('',(1.30719991189349E-15,-1.,5.72862171146041E-14));
#1191=DIRECTION('',(0.,-5.72862171146041E-14,-1.));
#1192=DIRECTION('',(-1.30719991189349E-15,1.,-5.72862171146041E-14));
#1193=DIRECTION('',(0.,5.72862171146041E-14,1.));
#1194=DIRECTION('',(1.30719991189349E-15,-1.,5.72862171146041E-14));
#1195=DIRECTION('',(0.,-5.72862171146041E-14,-1.));
#1196=DIRECTION('',(-1.30719991189349E-15,1.,-5.72862171146041E-14));
#1197=DIRECTION('',(0.,5.72862171146041E-14,1.));
#1198=DIRECTION('',(-1.30719991189349E-15,1.,-5.72862171146041E-14));
#1199=DIRECTION('',(1.,1.30719991189349E-15,-7.48845379649221E-29));
#1200=DIRECTION('',(-1.30719991189349E-15,1.,-5.72862171146041E-14));
#1201=DIRECTION('',(0.,5.72862171146041E-14,1.));
#1202=DIRECTION('',(-1.30719991189349E-15,1.,-5.72862171146041E-14));
#1203=DIRECTION('',(0.,5.72862171146041E-14,1.));
#1204=DIRECTION('',(-1.30719991189349E-15,1.,-5.72862171146041E-14));
#1205=DIRECTION('',(0.,5.72862171146041E-14,1.));
#1206=DIRECTION('',(1.30719991189349E-15,-1.,5.72862171146041E-14));
#1207=DIRECTION('',(0.,5.72862171146041E-14,1.));
#1208=DIRECTION('',(-1.30719991189349E-15,1.,-5.72862171146041E-14));
#1209=DIRECTION('',(0.,5.72862171146041E-14,1.));
#1210=DIRECTION('',(-1.30719991189349E-15,1.,-5.72862171146041E-14));
#1211=DIRECTION('',(0.,5.72862171146041E-14,1.));
#1212=DIRECTION('',(1.30719991189349E-15,-1.,5.72862171146041E-14));
#1213=DIRECTION('',(0.,5.72862171146041E-14,1.));
#1214=DIRECTION('',(1.30719991189349E-15,-1.,5.72862171146041E-14));
#1215=DIRECTION('',(0.,5.72862171146041E-14,1.));
#1216=DIRECTION('',(1.30719991189349E-15,-1.,5.72862171146041E-14));
#1217=DIRECTION('',(0.,5.72862171146041E-14,1.));
#1218=DIRECTION('',(5.53029844141326E-14,-5.7286217114604E-14,-1.));
#1219=DIRECTION('',(-1.,-1.30719991189667E-15,-5.55111512312575E-14));
#1220=DIRECTION('',(5.53029844141329E-14,-5.7286217114604E-14,-1.));
#1221=DIRECTION('',(-1.,-1.30719991189667E-15,-5.55111512312575E-14));
#1222=DIRECTION('',(-5.54764567617305E-14,5.7286217114604E-14,1.));
#1223=DIRECTION('',(1.,1.30719991189667E-15,5.55111512312579E-14));
#1224=DIRECTION('',(-5.54764567617304E-14,5.7286217114604E-14,1.));
#1225=DIRECTION('',(1.,1.30719991189667E-15,5.55111512312579E-14));
#1226=DIRECTION('',(1.,1.30719991189667E-15,5.55111512312578E-14));
#1227=DIRECTION('',(-5.54518444457477E-14,5.7286217114604E-14,1.));
#1228=DIRECTION('',(1.,1.30719991189667E-15,5.55111512312578E-14));
#1229=DIRECTION('',(-5.54518444457477E-14,5.7286217114604E-14,1.));
#1230=DIRECTION('',(-1.30719991189349E-15,1.,-5.72862171146041E-14));
#1231=DIRECTION('',(0.,5.72862171146041E-14,1.));
#1232=DIRECTION('',(-1.30719991189349E-15,1.,-5.72862171146041E-14));
#1233=DIRECTION('',(0.,5.72862171146041E-14,1.));
#1234=DIRECTION('',(5.55111512312579E-14,-5.7286217114604E-14,-1.));
#1235=DIRECTION('',(0.,1.,-5.7286217114604E-14));
#1236=DIRECTION('',(1.,1.30719991189667E-15,5.55111512312578E-14));
#1237=DIRECTION('',(1.30719991189349E-15,-1.,5.72862171146041E-14));
#1238=DIRECTION('',(1.,1.30719991189667E-15,5.55111512312578E-14));
#1239=DIRECTION('',(1.30719991189349E-15,-1.,5.72862171146041E-14));
#1240=DIRECTION('',(1.,1.30719991189667E-15,5.54518444457476E-14));
#1241=DIRECTION('',(5.54518444457476E-14,0.,-1.));
#1242=DIRECTION('',(1.30719991189349E-15,-1.,5.72862171146041E-14));
#1243=DIRECTION('',(-5.54518444457477E-14,5.7286217114604E-14,1.));
#1244=DIRECTION('',(1.30719991189349E-15,-1.,5.72862171146041E-14));
#1245=DIRECTION('',(-5.54518444457477E-14,5.7286217114604E-14,1.));
#1246=DIRECTION('',(5.55111512312579E-14,-5.7286217114604E-14,-1.));
#1247=DIRECTION('',(0.,1.,-5.7286217114604E-14));
#1248=DIRECTION('',(5.55111512312579E-14,-5.7286217114604E-14,-1.));
#1249=DIRECTION('',(0.,1.,-5.7286217114604E-14));
#1250=DIRECTION('',(5.55111512312579E-14,-5.7286217114604E-14,-1.));
#1251=DIRECTION('',(0.,1.,-5.7286217114604E-14));
#1252=DIRECTION('',(5.55111512312579E-14,-5.7286217114604E-14,-1.));
#1253=DIRECTION('',(0.,1.,-5.7286217114604E-14));
#1254=DIRECTION('',(5.55111512312579E-14,-5.7286217114604E-14,-1.));
#1255=DIRECTION('',(0.,1.,-5.7286217114604E-14));
#1256=DIRECTION('',(5.55111512312579E-14,-5.7286217114604E-14,-1.));
#1257=DIRECTION('',(0.,1.,-5.7286217114604E-14));
#1258=DIRECTION('',(5.55111512312579E-14,-5.7286217114604E-14,-1.));
#1259=DIRECTION('',(0.,1.,-5.7286217114604E-14));
#1260=DIRECTION('',(1.30719991189349E-15,-1.,5.72862171146041E-14));
#1261=DIRECTION('',(5.55111512312579E-14,-5.7286217114604E-14,-1.));
#1262=DIRECTION('',(0.,1.,-5.7286217114604E-14));
#1263=DIRECTION('',(1.,1.30719991189667E-15,5.54764567617304E-14));
#1264=DIRECTION('',(5.54764567617304E-14,0.,-1.));
#1265=DIRECTION('',(1.30719991189349E-15,-1.,5.72862171146041E-14));
#1266=DIRECTION('',(1.30719991189349E-15,-1.,5.72862171146041E-14));
#1267=DIRECTION('',(5.5511151231258E-14,-5.7286217114604E-14,-1.));
#1268=DIRECTION('',(0.,1.,-5.7286217114604E-14));
#1269=DIRECTION('',(1.30719991189349E-15,-1.,5.72862171146041E-14));
#1270=DIRECTION('',(1.,1.30719991189667E-15,5.54764567617303E-14));
#1271=DIRECTION('',(5.54764567617303E-14,0.,-1.));
#1272=DIRECTION('',(1.30719991189349E-15,-1.,5.72862171146041E-14));
#1273=DIRECTION('',(-1.,-1.30719991189666E-15,-5.53029844141326E-14));
#1274=DIRECTION('',(-5.53029844141326E-14,0.,1.));
#1275=DIRECTION('',(1.30719991189349E-15,-1.,5.72862171146041E-14));
#1276=DIRECTION('',(1.30719991189349E-15,-1.,5.72862171146041E-14));
#1277=DIRECTION('',(-5.55111512312576E-14,5.7286217114604E-14,1.));
#1278=DIRECTION('',(0.,-1.,5.7286217114604E-14));
#1279=DIRECTION('',(1.30719991189349E-15,-1.,5.72862171146041E-14));
#1280=DIRECTION('',(-1.,-1.30719991189666E-15,-5.53029844141329E-14));
#1281=DIRECTION('',(-5.53029844141329E-14,0.,1.));
#1282=DIRECTION('',(1.30719991189349E-15,-1.,5.72862171146041E-14));
#1283=DIRECTION('',(1.,1.30719991189667E-15,5.54518444457476E-14));
#1284=DIRECTION('',(5.54518444457476E-14,0.,-1.));
#1285=DIRECTION('',(1.30719991189349E-15,-1.,5.72862171146041E-14));
#1286=DIRECTION('',(-5.54518444457477E-14,5.7286217114604E-14,1.));
#1287=DIRECTION('',(-5.54518444457477E-14,5.7286217114604E-14,1.));
#1288=DIRECTION('',(5.5511151231258E-14,-5.7286217114604E-14,-1.));
#1289=DIRECTION('',(0.,1.,-5.7286217114604E-14));
#1290=DIRECTION('',(-5.55111512312576E-14,5.7286217114604E-14,1.));
#1291=DIRECTION('',(0.,-1.,5.7286217114604E-14));
#1292=DIRECTION('',(-1.30719991189349E-15,1.,-5.72862171146041E-14));
#1293=DIRECTION('',(0.,5.72862171146041E-14,1.));
#1294=DIRECTION('',(1.30719991189349E-15,-1.,5.72862171146041E-14));
#1295=DIRECTION('',(0.,5.72862171146041E-14,1.));
#1296=DIRECTION('',(-1.30719991189349E-15,1.,-5.72862171146041E-14));
#1297=DIRECTION('',(1.,1.30719991189349E-15,-7.48845379649221E-29));
#1298=DIRECTION('',(-1.30719991189349E-15,1.,-5.72862171146041E-14));
#1299=DIRECTION('',(0.,5.72862171146041E-14,1.));
#1300=DIRECTION('',(1.30719991189349E-15,-1.,5.72862171146041E-14));
#1301=DIRECTION('',(0.,5.72862171146041E-14,1.));
#1302=DIRECTION('',(-1.30719991189349E-15,1.,-5.72862171146041E-14));
#1303=DIRECTION('',(1.,1.30719991189349E-15,-7.48845379649221E-29));
#1304=DIRECTION('',(-1.30719991189349E-15,1.,-5.72862171146041E-14));
#1305=DIRECTION('',(0.,5.72862171146041E-14,1.));
#1306=DIRECTION('',(1.30719991189349E-15,-1.,5.72862171146041E-14));
#1307=DIRECTION('',(0.,5.72862171146041E-14,1.));
#1308=DIRECTION('',(-1.30719991189349E-15,1.,-5.72862171146041E-14));
#1309=DIRECTION('',(1.,1.30719991189349E-15,-7.48845379649221E-29));
#1310=DIRECTION('',(-1.30719991189349E-15,1.,-5.72862171146041E-14));
#1311=DIRECTION('',(0.,5.72862171146041E-14,1.));
#1312=DIRECTION('',(-1.30719991189349E-15,1.,-5.72862171146041E-14));
#1313=DIRECTION('',(0.,5.72862171146041E-14,1.));
#1314=DIRECTION('',(-1.30719991189349E-15,1.,-5.72862171146041E-14));
#1315=DIRECTION('',(1.,1.30719991189349E-15,-7.48845379649221E-29));
#1316=DIRECTION('',(-1.30719991189349E-15,1.,-5.72862171146041E-14));
#1317=DIRECTION('',(0.,5.72862171146041E-14,1.));
#1318=DIRECTION('',(-1.30719991189349E-15,1.,-5.72862171146041E-14));
#1319=DIRECTION('',(0.,5.72862171146041E-14,1.));
#1320=DIRECTION('',(-1.30719991189349E-15,1.,-5.72862171146041E-14));
#1321=DIRECTION('',(1.,1.30719991189349E-15,-7.48845379649221E-29));
#1322=DIRECTION('',(-1.30719991189349E-15,1.,-5.72862171146041E-14));
#1323=DIRECTION('',(0.,5.72862171146041E-14,1.));
#1324=DIRECTION('',(-1.30719991189349E-15,1.,-5.72862171146041E-14));
#1325=DIRECTION('',(0.,5.72862171146041E-14,1.));
#1326=DIRECTION('',(-1.30719991189349E-15,1.,-5.72862171146041E-14));
#1327=DIRECTION('',(1.,1.30719991189349E-15,-7.48845379649221E-29));
#1328=DIRECTION('',(-1.30719991189349E-15,1.,-5.72862171146041E-14));
#1329=DIRECTION('',(0.,5.72862171146041E-14,1.));
#1330=DIRECTION('',(-1.30719991189349E-15,1.,-5.72862171146041E-14));
#1331=DIRECTION('',(0.,5.72862171146041E-14,1.));
#1332=DIRECTION('',(-1.30719991189349E-15,1.,-5.72862171146041E-14));
#1333=DIRECTION('',(1.,1.30719991189349E-15,-7.48845379649221E-29));
#1334=DIRECTION('',(-1.30719991189349E-15,1.,-5.72862171146041E-14));
#1335=DIRECTION('',(0.,5.72862171146041E-14,1.));
#1336=DIRECTION('',(1.30719991189349E-15,-1.,5.72862171146041E-14));
#1337=DIRECTION('',(0.,5.72862171146041E-14,1.));
#1338=DIRECTION('',(-1.30719991189349E-15,1.,-5.72862171146041E-14));
#1339=DIRECTION('',(1.,1.30719991189349E-15,-7.48845379649221E-29));
#1340=DIRECTION('',(-1.30719991189349E-15,1.,-5.72862171146041E-14));
#1341=DIRECTION('',(0.,5.72862171146041E-14,1.));
#1342=DIRECTION('',(-1.30719991189349E-15,1.,-5.72862171146041E-14));
#1343=DIRECTION('',(0.,5.72862171146041E-14,1.));
#1344=DIRECTION('',(-1.30719991189349E-15,1.,-5.72862171146041E-14));
#1345=DIRECTION('',(0.,5.72862171146041E-14,1.));
#1346=DIRECTION('',(6.71297039900699E-29,-5.72862171146041E-14,-1.));
#1347=DIRECTION('',(0.,1.,-5.72862171146041E-14));
#1348=DIRECTION('',(6.71297039900699E-29,-5.72862171146041E-14,-1.));
#1349=DIRECTION('',(0.,1.,-5.72862171146041E-14));
#1350=DIRECTION('',(6.71297039900699E-29,-5.72862171146041E-14,-1.));
#1351=DIRECTION('',(0.,1.,-5.72862171146041E-14));
#1352=DIRECTION('',(6.71297039900699E-29,-5.72862171146041E-14,-1.));
#1353=DIRECTION('',(0.,1.,-5.72862171146041E-14));
#1354=DIRECTION('',(1.30719991189349E-15,-1.,5.72862171146041E-14));
#1355=DIRECTION('',(1.,1.30719991189349E-15,-7.75483397485218E-30));
#1356=DIRECTION('',(1.30719991189349E-15,-1.,5.72862171146041E-14));
#1357=DIRECTION('',(-1.,-1.30719991189349E-15,7.53551016908607E-29));
#1358=DIRECTION('',(-1.30719991189349E-15,1.,0.));
#1359=DIRECTION('',(1.30719991189349E-15,-1.,5.72862171146041E-14));
#1360=DIRECTION('',(-4.7056372593866E-31,-5.72862171146041E-14,-1.));
#1361=DIRECTION('',(6.71297039900699E-29,-5.72862171146041E-14,-1.));
#1362=DIRECTION('',(0.,1.,-5.72862171146041E-14));
#1363=DIRECTION('',(1.30719991189349E-15,-1.,5.72862171146041E-14));
#1364=DIRECTION('',(1.,1.30719991189349E-15,-7.75483397485218E-30));
#1365=DIRECTION('',(-1.,-1.30719991189349E-15,7.53551016908607E-29));
#1366=DIRECTION('',(-1.30719991189349E-15,1.,0.));
#1367=DIRECTION('',(-4.7056372593866E-31,-5.72862171146041E-14,-1.));
#1368=DIRECTION('',(1.30719991189349E-15,-1.,5.72862171146041E-14));
#1369=DIRECTION('',(1.,1.30719991189349E-15,-7.48845379649221E-29));
#1370=DIRECTION('',(-5.55111512312579E-14,5.7286217114604E-14,1.));
#1371=DIRECTION('',(0.,-1.,5.7286217114604E-14));
#1372=DIRECTION('',(-5.55111512312579E-14,5.7286217114604E-14,1.));
#1373=DIRECTION('',(0.,-1.,5.7286217114604E-14));
#1374=DIRECTION('',(-5.55111512312579E-14,5.7286217114604E-14,1.));
#1375=DIRECTION('',(0.,-1.,5.7286217114604E-14));
#1376=DIRECTION('',(-5.54518444457477E-14,5.7286217114604E-14,1.));
#1377=DIRECTION('',(0.,-1.,5.7286217114604E-14));
#1378=DIRECTION('',(5.55111512312579E-14,-5.78241158658935E-14,-1.));
#1379=DIRECTION('',(0.,1.,-5.78241158658935E-14));
#1380=DIRECTION('',(5.54518444457477E-14,-5.7286217114604E-14,-1.));
#1381=DIRECTION('',(0.,1.,-5.7286217114604E-14));
#1382=DIRECTION('',(5.55111512312578E-14,-6.01370805005298E-14,-1.));
#1383=DIRECTION('',(0.,1.,-6.01370805005298E-14));
#1384=DIRECTION('',(1.30719991189349E-15,-1.,5.72862171146041E-14));
#1385=DIRECTION('',(0.,-5.72862171146041E-14,-1.));
#1386=DIRECTION('',(-2.31296463463253E-15,1.,-5.78241158658936E-14));
#1387=DIRECTION('',(0.,5.78241158658936E-14,1.));
#1388=DIRECTION('',(-4.62592926927456E-15,-1.,5.55111512312575E-14));
#1389=DIRECTION('',(0.,-5.55111512312575E-14,-1.));
#1390=DIRECTION('',(1.,2.31296463463574E-15,5.55111512312578E-14));
#1391=DIRECTION('',(5.55111512312578E-14,0.,-1.));
#1392=DIRECTION('',(1.,3.20988324064539E-27,5.55111512312578E-14));
#1393=DIRECTION('',(5.55111512312578E-14,0.,-1.));
#1394=DIRECTION('',(1.,-4.62592926927148E-15,5.55111512312578E-14));
#1395=DIRECTION('',(5.55111512312578E-14,0.,-1.));
#1396=DIRECTION('',(1.,3.47737351069916E-27,6.01370805005291E-14));
#1397=DIRECTION('',(6.01370805005291E-14,0.,-1.));
#1398=DIRECTION('',(1.,1.30719991189667E-15,5.55111512312578E-14));
#1399=DIRECTION('',(5.55111512312578E-14,0.,-1.));
#1400=DIRECTION('',(-1.,-3.20988324064539E-27,-5.55111512312578E-14));
#1401=DIRECTION('',(-5.55111512312578E-14,0.,1.));
#1402=DIRECTION('',(5.54518444457477E-14,-5.7286217114604E-14,-1.));
#1403=DIRECTION('',(0.,1.,-5.7286217114604E-14));
#1404=DIRECTION('',(5.55111512312579E-14,-6.01370805005294E-14,-1.));
#1405=DIRECTION('',(0.,1.,-6.01370805005294E-14));
#1406=DIRECTION('',(-5.54518444457477E-14,5.7286217114604E-14,1.));
#1407=DIRECTION('',(0.,-1.,5.7286217114604E-14));
#1408=DIRECTION('',(5.55111512312578E-14,-5.78241158658935E-14,-1.));
#1409=DIRECTION('',(0.,1.,-5.78241158658935E-14));
#1410=DIRECTION('',(-1.,-1.30719991189667E-15,-5.55111512312578E-14));
#1411=DIRECTION('',(-5.55111512312578E-14,0.,1.));
#1412=DIRECTION('',(-1.,-3.33827857027121E-27,-5.55111512312578E-14));
#1413=DIRECTION('',(-5.55111512312578E-14,0.,1.));
#1414=DIRECTION('',(0.,1.,-5.78241158658935E-14));
#1415=DIRECTION('',(0.,5.78241158658935E-14,1.));
#1416=DIRECTION('',(-2.31296463463267E-15,1.,-5.78241158658936E-14));
#1417=DIRECTION('',(0.,5.78241158658936E-14,1.));
#1418=DIRECTION('',(0.,-1.,6.01370805005293E-14));
#1419=DIRECTION('',(0.,-6.01370805005293E-14,-1.));
#1420=DIRECTION('',(-3.08148791101956E-27,-1.,5.55111512312576E-14));
#1421=DIRECTION('',(0.,-5.55111512312576E-14,-1.));
#1422=DIRECTION('',(-1.30719991189349E-15,1.,-5.72862171146041E-14));
#1423=DIRECTION('',(0.,5.72862171146041E-14,1.));
#1424=CARTESIAN_POINT('',(0.,0.,0.));
#1425=CARTESIAN_POINT('',(-2.58756074264372E-10,-0.0726780178469996,0.0565472864578315));
#1426=CARTESIAN_POINT('',(-0.0180000002587576,-0.0726780178469982,0.0805472864578446));
#1427=CARTESIAN_POINT('',(-0.0180000002587576,-0.072678017846998,0.0831972864578446));
#1428=CARTESIAN_POINT('',(0.0179999997412424,-0.0726780178469982,0.0805472864578466));
#1429=CARTESIAN_POINT('',(0.0179999997412424,-0.072678017846998,0.0831972864578466));
#1430=CARTESIAN_POINT('',(-0.0180000002587549,-0.072678017847001,0.0325472864578164));
#1431=CARTESIAN_POINT('',(-0.0180000002587549,-0.0726780178470008,0.0351972864578164));
#1432=CARTESIAN_POINT('',(0.0179999997412451,-0.0726780178470009,0.0325472864578184));
#1433=CARTESIAN_POINT('',(0.0179999997412451,-0.0726780178470007,0.0351972864578184));
#1434=CARTESIAN_POINT('',(0.0687499997412503,-0.072678017847006,-0.0574527135421787));
#1435=CARTESIAN_POINT('',(-0.0657500002587498,-0.0726780178470062,-0.0574527135421862));
#1436=CARTESIAN_POINT('',(0.0657499997412503,-0.072678017847006,-0.0574527135421789));
#1437=CARTESIAN_POINT('',(0.0657499997412374,-0.0726780178469928,0.173547286457849));
#1438=CARTESIAN_POINT('',(0.0657499997412374,-0.0726780178469928,0.17354728645785));
#1439=CARTESIAN_POINT('',(-2.58762553051462E-10,-0.0726780178469929,0.173547286457846));
#1440=CARTESIAN_POINT('',(-0.0657500002587626,-0.072678017846993,0.173547286457842));
#1441=CARTESIAN_POINT('',(-0.0657500002587561,-0.0726780178469997,0.0565472864578279));
#1442=CARTESIAN_POINT('',(-0.0507500002587561,-0.0726780178469997,0.0565472864578287));
#1443=CARTESIAN_POINT('',(-0.0507500002587505,-0.0726780178470054,-0.0434527135421853));
#1444=CARTESIAN_POINT('',(-0.0507500002587616,-0.0726780178469939,0.156547286457843));
#1445=CARTESIAN_POINT('',(-0.0480000002587616,-0.0726780178469939,0.156547286457843));
#1446=CARTESIAN_POINT('',(-0.0452500002587616,-0.0726780178469939,0.156547286457849));
#1447=CARTESIAN_POINT('',(-0.0452500002587561,-0.0726780178469997,0.0565472864578342));
#1448=CARTESIAN_POINT('',(-0.0452500002587505,-0.0726780178470054,-0.04345271354218));
#1449=CARTESIAN_POINT('',(-0.0480000002587505,-0.0726780178470054,-0.0434527135421852));
#1450=CARTESIAN_POINT('',(0.0507499997412439,-0.0726780178469995,0.0565472864578339));
#1451=CARTESIAN_POINT('',(0.0507499997412384,-0.0726780178469938,0.156547286457848));
#1452=CARTESIAN_POINT('',(0.0507499997412494,-0.0726780178470053,-0.0434527135421806));
#1453=CARTESIAN_POINT('',(0.0479999997412494,-0.0726780178470053,-0.0434527135421807));
#1454=CARTESIAN_POINT('',(0.0452499997412494,-0.0726780178470053,-0.0434527135421801));
#1455=CARTESIAN_POINT('',(0.0452499997412439,-0.0726780178469995,0.0565472864578337));
#1456=CARTESIAN_POINT('',(0.0452499997412384,-0.0726780178469938,0.156547286457848));
#1457=CARTESIAN_POINT('',(0.0479999997412384,-0.0726780178469938,0.156547286457848));
#1458=CARTESIAN_POINT('',(-0.0180000002587596,-0.0726780178469964,0.112547286457851));
#1459=CARTESIAN_POINT('',(-0.0180000002587596,-0.0726780178469962,0.115197286457851));
#1460=CARTESIAN_POINT('',(0.0179999997412404,-0.0726780178469964,0.112547286457853));
#1461=CARTESIAN_POINT('',(0.0179999997412404,-0.0726780178469962,0.115197286457853));
#1462=CARTESIAN_POINT('',(-0.0180000002587529,-0.0726780178470028,0.000547286457822565));
#1463=CARTESIAN_POINT('',(-0.0180000002587529,-0.0726780178470026,0.00319728645782257));
#1464=CARTESIAN_POINT('',(0.0179999997412471,-0.0726780178470028,0.000547286457824564));
#1465=CARTESIAN_POINT('',(0.0179999997412471,-0.0726780178470026,0.00319728645782456));
#1466=CARTESIAN_POINT('',(0.027382834188633,-0.0726780178470051,-0.0404527135457721));
#1467=CARTESIAN_POINT('',(0.027382834188633,-0.0726780178470049,-0.0377027135457721));
#1468=CARTESIAN_POINT('',(9.5099256407948E-17,-0.0726780178470051,-0.0404527135457721));
#1469=CARTESIAN_POINT('',(9.5099256407948E-17,-0.0726780178470049,-0.0377027135457721));
#1470=CARTESIAN_POINT('',(-0.0273828346912384,-0.0726780178470052,-0.0404527135457721));
#1471=CARTESIAN_POINT('',(-0.0273828346912384,-0.072678017847005,-0.0377027135457721));
#1472=CARTESIAN_POINT('',(-2.5876164405636E-10,-0.0726780178469939,0.156547286457849));
#1473=CARTESIAN_POINT('',(-0.0355285033583641,-0.0726780178469939,0.156547286457849));
#1474=CARTESIAN_POINT('',(0.0355285028408408,-0.0726780178469938,0.156547286457849));
#1475=CARTESIAN_POINT('',(0.0355285028408408,-0.0726780178469942,0.150047286457849));
#1476=CARTESIAN_POINT('',(0.0355285028408408,-0.0726780178469946,0.143547286457848));
#1477=CARTESIAN_POINT('',(-2.5876164405636E-10,-0.0726780178469946,0.143547286457848));
#1478=CARTESIAN_POINT('',(-0.0355285033583641,-0.0726780178469947,0.143547286457848));
#1479=CARTESIAN_POINT('',(-0.0355285033583641,-0.0726780178469943,0.150047286457849));
#1480=CARTESIAN_POINT('',(0.0179999997412424,-0.0576780178469982,0.0805472864578457));
#1481=CARTESIAN_POINT('',(0.0179999997412424,-0.0635780178469982,0.080547286457846));
#1482=CARTESIAN_POINT('',(0.0179999997412424,-0.063578017846998,0.083197286457846));
#1483=CARTESIAN_POINT('',(-0.0180000002587549,-0.057678017847001,0.0325472864578156));
#1484=CARTESIAN_POINT('',(-0.0180000002587549,-0.063578017847001,0.0325472864578159));
#1485=CARTESIAN_POINT('',(-0.0180000002587549,-0.0635780178470008,0.0351972864578159));
#1486=CARTESIAN_POINT('',(0.0179999997412451,-0.0576780178470009,0.0325472864578175));
#1487=CARTESIAN_POINT('',(0.0179999997412451,-0.0635780178470009,0.0325472864578179));
#1488=CARTESIAN_POINT('',(0.0179999997412451,-0.0635780178470007,0.0351972864578179));
#1489=CARTESIAN_POINT('',(-0.0180000002587596,-0.0576780178469964,0.11254728645785));
#1490=CARTESIAN_POINT('',(-0.0180000002587596,-0.0635780178469964,0.11254728645785));
#1491=CARTESIAN_POINT('',(-0.0180000002587596,-0.0635780178469963,0.11519728645785));
#1492=CARTESIAN_POINT('',(0.0179999997412404,-0.0576780178469964,0.112547286457852));
#1493=CARTESIAN_POINT('',(0.0179999997412404,-0.0635780178469964,0.112547286457852));
#1494=CARTESIAN_POINT('',(0.0179999997412404,-0.0635780178469963,0.115197286457852));
#1495=CARTESIAN_POINT('',(-0.018000000258753,-0.0576780178470028,0.000547286457821706));
#1496=CARTESIAN_POINT('',(-0.018000000258753,-0.0635780178470028,0.000547286457822044));
#1497=CARTESIAN_POINT('',(-0.018000000258753,-0.0635780178470026,0.00319728645782204));
#1498=CARTESIAN_POINT('',(0.017999999741247,-0.0576780178470028,0.000547286457823704));
#1499=CARTESIAN_POINT('',(0.017999999741247,-0.0635780178470028,0.000547286457824042));
#1500=CARTESIAN_POINT('',(0.017999999741247,-0.0635780178470026,0.00319728645782404));
#1501=CARTESIAN_POINT('',(-0.0180000002587576,-0.0576780178469982,0.0805472864578437));
#1502=CARTESIAN_POINT('',(-0.0180000002587576,-0.0635780178469983,0.080547286457844));
#1503=CARTESIAN_POINT('',(-0.0180000002587576,-0.0635780178469981,0.083197286457844));
#1504=CARTESIAN_POINT('',(-2.5875609387237E-10,-0.0576780178469996,0.0565472864578307));
#1505=CARTESIAN_POINT('',(-0.0273828346912385,-0.0576780178470052,-0.0404527135457729));
#1506=CARTESIAN_POINT('',(-0.0273828346912385,-0.057678017847005,-0.0377027135457729));
#1507=CARTESIAN_POINT('',(7.54912577295456E-17,-0.0576780178470052,-0.0404527135457729));
#1508=CARTESIAN_POINT('',(7.54912577295456E-17,-0.057678017847005,-0.0377027135457729));
#1509=CARTESIAN_POINT('',(0.027382834188633,-0.0576780178470051,-0.0404527135457729));
#1510=CARTESIAN_POINT('',(0.027382834188633,-0.0576780178470049,-0.0377027135457729));
#1511=CARTESIAN_POINT('',(0.017999999741247,-0.0576780178469964,0.112547286457835));
#1512=CARTESIAN_POINT('',(0.017999999741247,-0.0576780178469962,0.116947286457835));
#1513=CARTESIAN_POINT('',(-0.0180000002587549,-0.057678017847001,0.0325472864578156));
#1514=CARTESIAN_POINT('',(-0.0180000002587549,-0.0576780178470008,0.0369472864578156));
#1515=CARTESIAN_POINT('',(0.017999999741247,-0.0576780178470028,0.000547286457823704));
#1516=CARTESIAN_POINT('',(0.017999999741247,-0.0576780178470025,0.0049472864578237));
#1517=CARTESIAN_POINT('',(0.0179999997412451,-0.0576780178469982,0.0805472864578417));
#1518=CARTESIAN_POINT('',(0.0179999997412451,-0.0576780178469979,0.0849472864578417));
#1519=CARTESIAN_POINT('',(-0.0180000002587576,-0.0576780178469982,0.0805472864578437));
#1520=CARTESIAN_POINT('',(-0.0180000002587576,-0.0576780178469979,0.0849472864578437));
#1521=CARTESIAN_POINT('',(-0.018000000258753,-0.0576780178469964,0.112547286457837));
#1522=CARTESIAN_POINT('',(-0.018000000258753,-0.0576780178469962,0.116947286457837));
#1523=CARTESIAN_POINT('',(0.0507499997412439,-0.0576780178469995,0.056547286457833));
#1524=CARTESIAN_POINT('',(0.0507499997412384,-0.0576780178469938,0.156547286457847));
#1525=CARTESIAN_POINT('',(0.0507499997412494,-0.0576780178470053,-0.0434527135421814));
#1526=CARTESIAN_POINT('',(0.0479999997412383,-0.0576780178469938,0.156547286457847));
#1527=CARTESIAN_POINT('',(0.0452499997412383,-0.0576780178469938,0.156547286457847));
#1528=CARTESIAN_POINT('',(0.0452499997412439,-0.0576780178469995,0.0565472864578329));
#1529=CARTESIAN_POINT('',(0.0452499997412494,-0.0576780178470053,-0.043452713542181));
#1530=CARTESIAN_POINT('',(0.0479999997412494,-0.0576780178470053,-0.0434527135421816));
#1531=CARTESIAN_POINT('',(-0.0507500002587561,-0.0576780178469997,0.0565472864578278));
#1532=CARTESIAN_POINT('',(-0.0507500002587506,-0.0576780178470054,-0.0434527135421862));
#1533=CARTESIAN_POINT('',(-0.0507500002587617,-0.0576780178469939,0.156547286457842));
#1534=CARTESIAN_POINT('',(-0.0480000002587506,-0.0576780178470054,-0.043452713542186));
#1535=CARTESIAN_POINT('',(-0.0452500002587506,-0.0576780178470054,-0.0434527135421809));
#1536=CARTESIAN_POINT('',(-0.0452500002587561,-0.0576780178469997,0.0565472864578333));
#1537=CARTESIAN_POINT('',(-0.0452500002587617,-0.0576780178469939,0.156547286457848));
#1538=CARTESIAN_POINT('',(-0.0480000002587617,-0.0576780178469939,0.156547286457842));
#1539=CARTESIAN_POINT('',(-2.5874976560113E-10,-0.0576780178470061,-0.0574527135421834));
#1540=CARTESIAN_POINT('',(0.0657499997412503,-0.057678017847006,-0.0574527135421798));
#1541=CARTESIAN_POINT('',(-0.0657500002587498,-0.0576780178470062,-0.0574527135421871));
#1542=CARTESIAN_POINT('',(-0.0657500002587626,-0.057678017846993,0.173547286457841));
#1543=CARTESIAN_POINT('',(-0.0657500002587626,-0.057678017846993,0.173547286457841));
#1544=CARTESIAN_POINT('',(-2.5876257265946E-10,-0.0576780178469929,0.173547286457845));
#1545=CARTESIAN_POINT('',(0.0657499997412374,-0.0576780178469928,0.173547286457849));
#1546=CARTESIAN_POINT('',(0.0657499997412439,-0.0576780178469995,0.0565472864578343));
#1547=CARTESIAN_POINT('',(-0.018000000258753,-0.0576780178470028,0.000547286457821706));
#1548=CARTESIAN_POINT('',(-0.018000000258753,-0.0576780178470025,0.00494728645782171));
#1549=CARTESIAN_POINT('',(0.0179999997412451,-0.057678017847001,0.0325472864578175));
#1550=CARTESIAN_POINT('',(0.0179999997412451,-0.0576780178470008,0.0369472864578176));
#1551=CARTESIAN_POINT('',(-2.5874959692786E-10,-0.0576780178470063,-0.0604527135421834));
#1552=CARTESIAN_POINT('',(-0.0687500002587496,-0.0696780178470064,-0.0604527135421865));
#1553=CARTESIAN_POINT('',(0.0657499997412504,-0.0696780178470062,-0.0604527135421791));
#1554=CARTESIAN_POINT('',(-0.0657500002587496,-0.0696780178470064,-0.0604527135421864));
#1555=CARTESIAN_POINT('',(-0.0657500002587496,-0.0576780178470064,-0.0604527135421871));
#1556=CARTESIAN_POINT('',(-0.0657500002587496,-0.0606780178470064,-0.0604527135421869));
#1557=CARTESIAN_POINT('',(-2.5874959300626E-10,-0.0606780178470063,-0.0604527135421832));
#1558=CARTESIAN_POINT('',(0.0657499997412504,-0.0606780178470062,-0.0604527135421796));
#1559=CARTESIAN_POINT('',(0.0657499997412504,-0.0576780178470062,-0.0604527135421798));
#1560=CARTESIAN_POINT('',(-0.0687500002587561,-0.0576780178469997,0.0565472864578269));
#1561=CARTESIAN_POINT('',(-0.0687500002587626,-0.057678017846993,0.173547286457841));
#1562=CARTESIAN_POINT('',(-0.0687500002587626,-0.060678017846993,0.173547286457841));
#1563=CARTESIAN_POINT('',(-0.0687500002587626,-0.069678017846993,0.173547286457842));
#1564=CARTESIAN_POINT('',(-0.0687500002587496,-0.0606780178470064,-0.0604527135421871));
#1565=CARTESIAN_POINT('',(-0.0687500002587498,-0.0606780178470062,-0.057452713542187));
#1566=CARTESIAN_POINT('',(-0.0687500002587498,-0.0726780178470062,-0.0574527135421864));
#1567=CARTESIAN_POINT('',(-0.0687500002587498,-0.0696780178470062,-0.0574527135421865));
#1568=CARTESIAN_POINT('',(-0.0687500002587561,-0.0696780178469997,0.0565472864578276));
#1569=CARTESIAN_POINT('',(-2.5876257265946E-10,-0.0576780178469929,0.173547286457845));
#1570=CARTESIAN_POINT('',(-0.0280000002587626,-0.0686780178469929,0.173547286457844));
#1571=CARTESIAN_POINT('',(-0.0280000002587626,-0.0659280178469929,0.173547286457844));
#1572=CARTESIAN_POINT('',(-2.5876260249108E-10,-0.0686780178469929,0.173547286457846));
#1573=CARTESIAN_POINT('',(-2.5876260249108E-10,-0.0659280178469929,0.173547286457845));
#1574=CARTESIAN_POINT('',(0.0279999997412374,-0.0686780178469929,0.173547286457847));
#1575=CARTESIAN_POINT('',(0.0279999997412374,-0.0659280178469929,0.173547286457847));
#1576=CARTESIAN_POINT('',(-0.0657500002587626,-0.060678017846993,0.173547286457842));
#1577=CARTESIAN_POINT('',(-0.0657500002587626,-0.069678017846993,0.173547286457842));
#1578=CARTESIAN_POINT('',(0.0657499997412374,-0.0696780178469928,0.173547286457849));
#1579=CARTESIAN_POINT('',(0.0687499997412374,-0.0696780178469928,0.173547286457849));
#1580=CARTESIAN_POINT('',(0.0687499997412374,-0.0576780178469928,0.173547286457849));
#1581=CARTESIAN_POINT('',(0.0687499997412374,-0.0606780178469928,0.173547286457849));
#1582=CARTESIAN_POINT('',(0.0657499997412374,-0.0606780178469928,0.173547286457849));
#1583=CARTESIAN_POINT('',(-0.0507500002587561,-0.0576780178469997,0.0565472864578278));
#1584=CARTESIAN_POINT('',(-0.0507500002587506,-0.0576780178470054,-0.0434527135421862));
#1585=CARTESIAN_POINT('',(-0.0507500002587617,-0.0576780178469939,0.156547286457842));
#1586=CARTESIAN_POINT('',(-0.0480000002587506,-0.0576780178470054,-0.043452713542186));
#1587=CARTESIAN_POINT('',(-0.0452500002587506,-0.0576780178470054,-0.0434527135421809));
#1588=CARTESIAN_POINT('',(-0.0452500002587561,-0.0576780178469997,0.0565472864578333));
#1589=CARTESIAN_POINT('',(-0.0452500002587617,-0.0576780178469939,0.156547286457848));
#1590=CARTESIAN_POINT('',(0.0507499997412439,-0.0576780178469995,0.056547286457833));
#1591=CARTESIAN_POINT('',(0.0507499997412384,-0.0576780178469938,0.156547286457847));
#1592=CARTESIAN_POINT('',(0.0507499997412494,-0.0576780178470053,-0.0434527135421814));
#1593=CARTESIAN_POINT('',(0.0479999997412383,-0.0576780178469938,0.156547286457847));
#1594=CARTESIAN_POINT('',(0.0452499997412383,-0.0576780178469938,0.156547286457847));
#1595=CARTESIAN_POINT('',(0.0452499997412439,-0.0576780178469995,0.0565472864578329));
#1596=CARTESIAN_POINT('',(0.0452499997412494,-0.0576780178470053,-0.043452713542181));
#1597=CARTESIAN_POINT('',(0.0687499997412439,-0.0576780178469995,0.0565472864578345));
#1598=CARTESIAN_POINT('',(0.0687499997412503,-0.057678017847006,-0.0574527135421796));
#1599=CARTESIAN_POINT('',(0.0687499997412503,-0.069678017847006,-0.0574527135421789));
#1600=CARTESIAN_POINT('',(0.0687499997412503,-0.060678017847006,-0.0574527135421794));
#1601=CARTESIAN_POINT('',(0.0687499997412439,-0.0606780178469995,0.0565472864578346));
#1602=CARTESIAN_POINT('',(0.0687499997412504,-0.0696780178470062,-0.0604527135421789));
#1603=CARTESIAN_POINT('',(-0.0480000002587617,-0.0576780178469939,0.156547286457842));
#1604=CARTESIAN_POINT('',(0.0479999997412494,-0.0576780178470053,-0.0434527135421816));
#1605=CARTESIAN_POINT('',(-0.018000000258753,-0.0635780178469964,0.112547286457838));
#1606=CARTESIAN_POINT('',(-0.018000000258753,-0.0635780178469964,0.112547286457838));
#1607=CARTESIAN_POINT('',(-0.018000000258753,-0.0635780178469962,0.116947286457838));
#1608=CARTESIAN_POINT('',(-2.58756072282103E-10,-0.0635780178469996,0.056547286457831));
#1609=CARTESIAN_POINT('',(-0.0180000002587576,-0.0635780178469982,0.080547286457844));
#1610=CARTESIAN_POINT('',(-0.0180000002587576,-0.0635780178469982,0.080547286457844));
#1611=CARTESIAN_POINT('',(-0.0180000002587576,-0.0635780178469979,0.084947286457844));
#1612=CARTESIAN_POINT('',(-2.58756072282103E-10,-0.0635780178469996,0.056547286457831));
#1613=CARTESIAN_POINT('',(0.0179999997412451,-0.0635780178469982,0.080547286457842));
#1614=CARTESIAN_POINT('',(0.0179999997412451,-0.0635780178469982,0.080547286457842));
#1615=CARTESIAN_POINT('',(0.0179999997412451,-0.0635780178469979,0.084947286457842));
#1616=CARTESIAN_POINT('',(-2.58756072282103E-10,-0.0635780178469996,0.056547286457831));
#1617=CARTESIAN_POINT('',(0.017999999741247,-0.0635780178470028,0.000547286457824042));
#1618=CARTESIAN_POINT('',(0.017999999741247,-0.0635780178470028,0.000547286457824042));
#1619=CARTESIAN_POINT('',(0.017999999741247,-0.0635780178470026,0.00494728645782404));
#1620=CARTESIAN_POINT('',(-2.58756072282103E-10,-0.0635780178469996,0.056547286457831));
#1621=CARTESIAN_POINT('',(-0.018000000258753,-0.0635780178470028,0.000547286457822044));
#1622=CARTESIAN_POINT('',(-0.018000000258753,-0.0635780178470028,0.000547286457822044));
#1623=CARTESIAN_POINT('',(-0.018000000258753,-0.0635780178470026,0.00494728645782204));
#1624=CARTESIAN_POINT('',(-2.58756072282103E-10,-0.0635780178469996,0.056547286457831));
#1625=CARTESIAN_POINT('',(-0.0180000002587549,-0.063578017847001,0.0325472864578159));
#1626=CARTESIAN_POINT('',(-0.0180000002587549,-0.063578017847001,0.0325472864578159));
#1627=CARTESIAN_POINT('',(-0.0180000002587549,-0.0635780178470007,0.0369472864578159));
#1628=CARTESIAN_POINT('',(-2.58756072282103E-10,-0.0635780178469996,0.056547286457831));
#1629=CARTESIAN_POINT('',(0.0179999997412451,-0.0635780178470009,0.0325472864578179));
#1630=CARTESIAN_POINT('',(0.0179999997412451,-0.0635780178470009,0.0325472864578179));
#1631=CARTESIAN_POINT('',(0.0179999997412451,-0.0635780178470007,0.0369472864578179));
#1632=CARTESIAN_POINT('',(-2.58756072282103E-10,-0.0635780178469996,0.056547286457831));
#1633=CARTESIAN_POINT('',(0.017999999741247,-0.0635780178469964,0.112547286457836));
#1634=CARTESIAN_POINT('',(0.017999999741247,-0.0635780178469964,0.112547286457836));
#1635=CARTESIAN_POINT('',(0.017999999741247,-0.0635780178469962,0.116947286457836));
#1636=CARTESIAN_POINT('',(-2.58756072282103E-10,-0.0635780178469996,0.056547286457831));
#1637=CARTESIAN_POINT('',(0.027382834188633,-0.0861780178470051,-0.0404527135457714));
#1638=CARTESIAN_POINT('',(1.1274645521851E-16,-0.0861780178470052,-0.0404527135457714));
#1639=CARTESIAN_POINT('',(-0.0273828346912384,-0.0861780178470052,-0.0404527135457714));
#1640=CARTESIAN_POINT('',(-2.58761657128359E-10,-0.0626780178469939,0.156547286457848));
#1641=CARTESIAN_POINT('',(-0.0280000002587616,-0.0686780178469939,0.156547286457848));
#1642=CARTESIAN_POINT('',(-0.0280000002587616,-0.0659280178469939,0.156547286457848));
#1643=CARTESIAN_POINT('',(-2.58761658801509E-10,-0.0686780178469939,0.156547286457848));
#1644=CARTESIAN_POINT('',(-2.58761658801509E-10,-0.0659280178469939,0.156547286457848));
#1645=CARTESIAN_POINT('',(0.0279999997412383,-0.0686780178469939,0.156547286457848));
#1646=CARTESIAN_POINT('',(0.0279999997412383,-0.0659280178469939,0.156547286457848));
#1647=CARTESIAN_POINT('',(-0.0355285033583641,-0.0626780178469939,0.156547286457848));
#1648=CARTESIAN_POINT('',(-0.0355285033583641,-0.0626780178469939,0.156547286457848));
#1649=CARTESIAN_POINT('',(-2.58761657128359E-10,-0.0626780178469939,0.156547286457848));
#1650=CARTESIAN_POINT('',(0.0355285028408408,-0.0626780178469938,0.156547286457848));
#1651=CARTESIAN_POINT('',(0.0355285028408408,-0.0626780178469938,0.156547286457848));
#1652=CARTESIAN_POINT('',(-0.0355285033583641,-0.0626780178469943,0.150047286457848));
#1653=CARTESIAN_POINT('',(-0.0355285033583641,-0.0626780178469947,0.143547286457848));
#1654=CARTESIAN_POINT('',(-0.0355285033583641,-0.0626780178469947,0.143547286457848));
#1655=CARTESIAN_POINT('',(-0.0355285033583641,-0.0626780178469943,0.150047286457848));
#1656=CARTESIAN_POINT('',(-2.58761657128359E-10,-0.0626780178469946,0.143547286457848));
#1657=CARTESIAN_POINT('',(0.0355285028408408,-0.0626780178469946,0.143547286457848));
#1658=CARTESIAN_POINT('',(0.0355285028408408,-0.0626780178469946,0.143547286457848));
#1659=CARTESIAN_POINT('',(-2.58761657128359E-10,-0.0626780178469946,0.143547286457848));
#1660=CARTESIAN_POINT('',(0.0355285028408408,-0.0626780178469942,0.150047286457848));
#1661=CARTESIAN_POINT('',(0.0355285028408408,-0.0626780178469942,0.150047286457848));
#1662=CARTESIAN_POINT('',(-2.58756087336371E-10,-0.0626780178469996,0.056547286457831));
#1663=CARTESIAN_POINT('',(0.0279999997412384,-0.0686780178469939,0.155147286457847));
#1664=CARTESIAN_POINT('',(-2.58761581085898E-10,-0.0686780178469939,0.155147286457846));
#1665=CARTESIAN_POINT('',(-0.0280000002587616,-0.0686780178469939,0.155147286457844));
#1666=CARTESIAN_POINT('',(0.0657499997412439,-0.0606780178469995,0.0565472864578345));
#1667=CARTESIAN_POINT('',(0.0657499997412503,-0.060678017847006,-0.0574527135421796));
#1668=CARTESIAN_POINT('',(0.0657499997412439,-0.0696780178469995,0.056547286457835));
#1669=CARTESIAN_POINT('',(0.0657499997412503,-0.069678017847006,-0.0574527135421791));
#1670=CARTESIAN_POINT('',(0.0657499997412503,-0.057678017847006,-0.0574527135421798));
#1671=CARTESIAN_POINT('',(0.0657499997412503,-0.060678017847006,-0.0574527135421796));
#1672=CARTESIAN_POINT('',(0.0657499997412503,-0.069678017847006,-0.0574527135421791));
#1673=CARTESIAN_POINT('',(0.0657499997412503,-0.060678017847006,-0.0574527135421796));
#1674=CARTESIAN_POINT('',(0.0657499997412503,-0.060678017847006,-0.0574527135421796));
#1675=CARTESIAN_POINT('',(0.0657499997412503,-0.069678017847006,-0.0574527135421791));
#1676=CARTESIAN_POINT('',(0.0657499997412503,-0.069678017847006,-0.0574527135421791));
#1677=CARTESIAN_POINT('',(-2.58749759539714E-10,-0.0606780178470061,-0.0574527135421832));
#1678=CARTESIAN_POINT('',(-0.0657500002587498,-0.0606780178470062,-0.0574527135421869));
#1679=CARTESIAN_POINT('',(-0.0657500002587561,-0.0606780178469997,0.0565472864578272));
#1680=CARTESIAN_POINT('',(-0.0657500002587498,-0.0606780178470062,-0.0574527135421869));
#1681=CARTESIAN_POINT('',(-0.0657500002587561,-0.0696780178469997,0.0565472864578277));
#1682=CARTESIAN_POINT('',(-0.0657500002587498,-0.0696780178470062,-0.0574527135421864));
#1683=CARTESIAN_POINT('',(-2.5874974991473E-10,-0.0696780178470061,-0.0574527135421827));
#1684=CARTESIAN_POINT('',(-0.0657500002587498,-0.0696780178470062,-0.0574527135421864));
#1685=CARTESIAN_POINT('',(-0.0657500002587498,-0.0606780178470062,-0.0574527135421869));
#1686=CARTESIAN_POINT('',(-0.0657500002587498,-0.0606780178470062,-0.0574527135421869));
#1687=CARTESIAN_POINT('',(-0.0657500002587498,-0.0696780178470062,-0.0574527135421864));
#1688=CARTESIAN_POINT('',(-0.0657500002587498,-0.0696780178470062,-0.0574527135421864));
#1689=CARTESIAN_POINT('',(-0.0657500002587498,-0.0576780178470062,-0.0574527135421871));
#1690=MECHANICAL_DESIGN_GEOMETRIC_PRESENTATION_REPRESENTATION('',(#991),
#1691);
#1691=(
GEOMETRIC_REPRESENTATION_CONTEXT(3)
GLOBAL_UNCERTAINTY_ASSIGNED_CONTEXT((#1692))
GLOBAL_UNIT_ASSIGNED_CONTEXT((#1695,#1694,#1693))
REPRESENTATION_CONTEXT('XAxisSwinger','TOP_LEVEL_ASSEMBLY_PART')
);
#1692=UNCERTAINTY_MEASURE_WITH_UNIT(LENGTH_MEASURE(1.E-8),#1695,
'DISTANCE_ACCURACY_VALUE','Maximum Tolerance applied to model');
#1693=(
NAMED_UNIT(*)
SI_UNIT($,.STERADIAN.)
SOLID_ANGLE_UNIT()
);
#1694=(
NAMED_UNIT(*)
PLANE_ANGLE_UNIT()
SI_UNIT($,.RADIAN.)
);
#1695=(
LENGTH_UNIT()
NAMED_UNIT(*)
SI_UNIT($,.METRE.)
);
#1696=PRODUCT_DEFINITION_SHAPE('','',#1697);
#1697=PRODUCT_DEFINITION('','',#1699,#1698);
#1698=PRODUCT_DEFINITION_CONTEXT('',#1705,'design');
#1699=PRODUCT_DEFINITION_FORMATION_WITH_SPECIFIED_SOURCE('','',#1701,
 .NOT_KNOWN.);
#1700=PRODUCT_RELATED_PRODUCT_CATEGORY('','',(#1701));
#1701=PRODUCT('XAxisSwinger','XAxisSwinger','XAxisSwinger',(#1703));
#1702=PRODUCT_CATEGORY('','');
#1703=PRODUCT_CONTEXT('',#1705,'mechanical');
#1704=APPLICATION_PROTOCOL_DEFINITION('international standard',
'ap242_managed_model_based_3d_engineering',2020,#1705);
#1705=APPLICATION_CONTEXT('managed model based 3d engineering');
ENDSEC;
END-ISO-10303-21;
