ISO-10303-21;
HEADER;
/* Generated by software containing ST-Developer
 * from STEP Tools, Inc. (www.steptools.com) 
 */
/* OPTION: using custom renumber hook */

FILE_DESCRIPTION(
/* description */ ('STEP AP242 Edition 2',
'CAx-IF Rec.Pracs.---Representation and Presentation of Product Manufa
cturing Information (PMI)---4.0---2014-10-13',
'CAx-IF Rec.Pracs.---3D Tessellated Geometry---0.4---2014-09-14','2;1',
'CAx-IF Rec.Pracs.---User Defined Attributes---1.5---2016-08-15'),
/* implementation_level */ '2;1');

FILE_NAME(
/* name */ 'Router - GantryUpper-Left',
/* time_stamp */ '2026-08-01T11:31:43Z',
/* author */ (''),
/* organization */ (''),
/* preprocessor_version */ 'ST-DEVELOPER v20',
/* originating_system */ 'ONSHAPE BY PTC INC, 1.218',
/* authorisation */ '  ');

FILE_SCHEMA (('AP242_MANAGED_MODEL_BASED_3D_ENGINEERING_MIM_LF { 1 0 10303 442 3 1 4 }'));
ENDSEC;

DATA;
#10=SHAPE_REPRESENTATION_RELATIONSHIP('','',#1032,#11);
#11=ADVANCED_BREP_SHAPE_REPRESENTATION('',(#1030),#1753);
#12=CONICAL_SURFACE('',#1144,0.00265,0.785398163397466);
#13=CONICAL_SURFACE('',#1145,0.00265,0.785398163397448);
#14=CONICAL_SURFACE('',#1146,0.00265,0.785398163397448);
#15=CONICAL_SURFACE('',#1147,0.00265,0.785398163397431);
#16=CONICAL_SURFACE('',#1148,0.0182,0.785398163397457);
#17=CONICAL_SURFACE('',#1149,0.00275,0.785398163397448);
#18=CONICAL_SURFACE('',#1150,0.00275,0.785398163397448);
#19=CONICAL_SURFACE('',#1151,0.00275,0.785398163397448);
#20=CONICAL_SURFACE('',#1152,0.00275,0.785398163397448);
#21=CONICAL_SURFACE('',#1153,0.00275,0.785398163397448);
#22=CONICAL_SURFACE('',#1154,0.00265,0.785398163397457);
#23=CONICAL_SURFACE('',#1155,0.00275,0.78539816339745);
#24=CONICAL_SURFACE('',#1156,0.00265,0.785398163397446);
#25=CONICAL_SURFACE('',#1157,0.00275,0.785398163397569);
#26=CONICAL_SURFACE('',#1158,0.00275,0.785398163397569);
#27=CONICAL_SURFACE('',#1159,0.00275,0.785398163397569);
#28=CONICAL_SURFACE('',#1160,0.00275,0.785398163397569);
#29=CONICAL_SURFACE('',#1161,0.00275,0.785398163397569);
#30=CONICAL_SURFACE('',#1162,0.00275,0.785398163397569);
#31=SPHERICAL_SURFACE('',#1127,0.003);
#32=SPHERICAL_SURFACE('',#1135,0.003);
#33=ELLIPSE('',#1117,0.00424264068711928,0.003);
#34=ELLIPSE('',#1119,0.00424264068711928,0.003);
#35=ELLIPSE('',#1121,0.00424264068711928,0.003);
#36=ELLIPSE('',#1125,0.00424264068711928,0.003);
#37=ELLIPSE('',#1130,0.00424264068711928,0.003);
#38=ELLIPSE('',#1138,0.00424264068711928,0.003);
#39=ELLIPSE('',#1140,0.00424264068711928,0.003);
#40=ELLIPSE('',#1142,0.00424264068711928,0.003);
#41=CYLINDRICAL_SURFACE('',#1080,0.00265);
#42=CYLINDRICAL_SURFACE('',#1082,0.00265);
#43=CYLINDRICAL_SURFACE('',#1084,0.00265);
#44=CYLINDRICAL_SURFACE('',#1086,0.00265);
#45=CYLINDRICAL_SURFACE('',#1088,0.00265);
#46=CYLINDRICAL_SURFACE('',#1092,0.00265);
#47=CYLINDRICAL_SURFACE('',#1094,0.00265);
#48=CYLINDRICAL_SURFACE('',#1096,0.00265);
#49=CYLINDRICAL_SURFACE('',#1098,0.00265);
#50=CYLINDRICAL_SURFACE('',#1100,0.00265);
#51=CYLINDRICAL_SURFACE('',#1102,0.00265);
#52=CYLINDRICAL_SURFACE('',#1105,0.00265);
#53=CYLINDRICAL_SURFACE('',#1108,0.0181);
#54=CYLINDRICAL_SURFACE('',#1110,0.00265);
#55=CYLINDRICAL_SURFACE('',#1113,0.00265);
#56=CYLINDRICAL_SURFACE('',#1116,0.003);
#57=CYLINDRICAL_SURFACE('',#1118,0.003);
#58=CYLINDRICAL_SURFACE('',#1120,0.003);
#59=CYLINDRICAL_SURFACE('',#1122,0.003);
#60=CYLINDRICAL_SURFACE('',#1124,0.003);
#61=CYLINDRICAL_SURFACE('',#1129,0.003);
#62=CYLINDRICAL_SURFACE('',#1131,0.003);
#63=CYLINDRICAL_SURFACE('',#1133,0.003);
#64=CYLINDRICAL_SURFACE('',#1137,0.003);
#65=CYLINDRICAL_SURFACE('',#1139,0.003);
#66=CYLINDRICAL_SURFACE('',#1141,0.003);
#67=CYLINDRICAL_SURFACE('',#1143,0.003);
#68=LINE('',#1509,#122);
#69=LINE('',#1512,#123);
#70=LINE('',#1514,#124);
#71=LINE('',#1516,#125);
#72=LINE('',#1518,#126);
#73=LINE('',#1520,#127);
#74=LINE('',#1522,#128);
#75=LINE('',#1524,#129);
#76=LINE('',#1526,#130);
#77=LINE('',#1528,#131);
#78=LINE('',#1529,#132);
#79=LINE('',#1532,#133);
#80=LINE('',#1534,#134);
#81=LINE('',#1536,#135);
#82=LINE('',#1548,#136);
#83=LINE('',#1551,#137);
#84=LINE('',#1553,#138);
#85=LINE('',#1555,#139);
#86=LINE('',#1557,#140);
#87=LINE('',#1559,#141);
#88=LINE('',#1561,#142);
#89=LINE('',#1563,#143);
#90=LINE('',#1565,#144);
#91=LINE('',#1567,#145);
#92=LINE('',#1572,#146);
#93=LINE('',#1575,#147);
#94=LINE('',#1577,#148);
#95=LINE('',#1579,#149);
#96=LINE('',#1597,#150);
#97=LINE('',#1598,#151);
#98=LINE('',#1600,#152);
#99=LINE('',#1602,#153);
#100=LINE('',#1604,#154);
#101=LINE('',#1607,#155);
#102=LINE('',#1609,#156);
#103=LINE('',#1611,#157);
#104=LINE('',#1613,#158);
#105=LINE('',#1617,#159);
#106=LINE('',#1619,#160);
#107=LINE('',#1621,#161);
#108=LINE('',#1623,#162);
#109=LINE('',#1625,#163);
#110=LINE('',#1628,#164);
#111=LINE('',#1630,#165);
#112=LINE('',#1632,#166);
#113=LINE('',#1634,#167);
#114=LINE('',#1637,#168);
#115=LINE('',#1639,#169);
#116=LINE('',#1641,#170);
#117=LINE('',#1643,#171);
#118=LINE('',#1646,#172);
#119=LINE('',#1647,#173);
#120=LINE('',#1665,#174);
#121=LINE('',#1666,#175);
#122=VECTOR('',#1197,1.);
#123=VECTOR('',#1198,1.);
#124=VECTOR('',#1199,1.);
#125=VECTOR('',#1200,1.);
#126=VECTOR('',#1201,1.);
#127=VECTOR('',#1202,1.);
#128=VECTOR('',#1203,1.);
#129=VECTOR('',#1204,1.);
#130=VECTOR('',#1205,1.);
#131=VECTOR('',#1206,1.);
#132=VECTOR('',#1207,1.);
#133=VECTOR('',#1208,1.);
#134=VECTOR('',#1209,1.);
#135=VECTOR('',#1210,1.);
#136=VECTOR('',#1223,1.);
#137=VECTOR('',#1224,1.);
#138=VECTOR('',#1225,1.);
#139=VECTOR('',#1226,1.);
#140=VECTOR('',#1227,1.);
#141=VECTOR('',#1228,1.);
#142=VECTOR('',#1229,1.);
#143=VECTOR('',#1230,1.);
#144=VECTOR('',#1231,1.);
#145=VECTOR('',#1232,1.);
#146=VECTOR('',#1237,1.);
#147=VECTOR('',#1238,1.);
#148=VECTOR('',#1239,1.);
#149=VECTOR('',#1240,1.);
#150=VECTOR('',#1259,1.);
#151=VECTOR('',#1260,1.);
#152=VECTOR('',#1263,1.);
#153=VECTOR('',#1266,1.);
#154=VECTOR('',#1269,1.);
#155=VECTOR('',#1270,1.);
#156=VECTOR('',#1271,1.);
#157=VECTOR('',#1272,1.);
#158=VECTOR('',#1275,1.);
#159=VECTOR('',#1282,1.);
#160=VECTOR('',#1285,1.);
#161=VECTOR('',#1288,1.);
#162=VECTOR('',#1291,1.);
#163=VECTOR('',#1294,1.);
#164=VECTOR('',#1295,1.);
#165=VECTOR('',#1296,1.);
#166=VECTOR('',#1297,1.);
#167=VECTOR('',#1300,1.);
#168=VECTOR('',#1301,1.);
#169=VECTOR('',#1302,1.);
#170=VECTOR('',#1303,1.);
#171=VECTOR('',#1306,1.);
#172=VECTOR('',#1307,1.);
#173=VECTOR('',#1308,1.);
#174=VECTOR('',#1333,1.);
#175=VECTOR('',#1334,1.);
#176=ORIENTED_EDGE('',*,*,#414,.T.);
#177=ORIENTED_EDGE('',*,*,#415,.T.);
#178=ORIENTED_EDGE('',*,*,#416,.T.);
#179=ORIENTED_EDGE('',*,*,#417,.T.);
#180=ORIENTED_EDGE('',*,*,#418,.T.);
#181=ORIENTED_EDGE('',*,*,#419,.T.);
#182=ORIENTED_EDGE('',*,*,#420,.T.);
#183=ORIENTED_EDGE('',*,*,#421,.T.);
#184=ORIENTED_EDGE('',*,*,#422,.T.);
#185=ORIENTED_EDGE('',*,*,#423,.T.);
#186=ORIENTED_EDGE('',*,*,#424,.T.);
#187=ORIENTED_EDGE('',*,*,#425,.T.);
#188=ORIENTED_EDGE('',*,*,#426,.T.);
#189=ORIENTED_EDGE('',*,*,#427,.T.);
#190=ORIENTED_EDGE('',*,*,#428,.F.);
#191=ORIENTED_EDGE('',*,*,#429,.T.);
#192=ORIENTED_EDGE('',*,*,#430,.F.);
#193=ORIENTED_EDGE('',*,*,#431,.F.);
#194=ORIENTED_EDGE('',*,*,#432,.F.);
#195=ORIENTED_EDGE('',*,*,#433,.F.);
#196=ORIENTED_EDGE('',*,*,#434,.T.);
#197=ORIENTED_EDGE('',*,*,#435,.T.);
#198=ORIENTED_EDGE('',*,*,#436,.T.);
#199=ORIENTED_EDGE('',*,*,#437,.T.);
#200=ORIENTED_EDGE('',*,*,#438,.T.);
#201=ORIENTED_EDGE('',*,*,#439,.F.);
#202=ORIENTED_EDGE('',*,*,#440,.F.);
#203=ORIENTED_EDGE('',*,*,#441,.T.);
#204=ORIENTED_EDGE('',*,*,#442,.F.);
#205=ORIENTED_EDGE('',*,*,#443,.T.);
#206=ORIENTED_EDGE('',*,*,#444,.T.);
#207=ORIENTED_EDGE('',*,*,#445,.T.);
#208=ORIENTED_EDGE('',*,*,#446,.T.);
#209=ORIENTED_EDGE('',*,*,#447,.T.);
#210=ORIENTED_EDGE('',*,*,#448,.T.);
#211=ORIENTED_EDGE('',*,*,#449,.T.);
#212=ORIENTED_EDGE('',*,*,#450,.T.);
#213=ORIENTED_EDGE('',*,*,#451,.T.);
#214=ORIENTED_EDGE('',*,*,#452,.T.);
#215=ORIENTED_EDGE('',*,*,#453,.T.);
#216=ORIENTED_EDGE('',*,*,#454,.F.);
#217=ORIENTED_EDGE('',*,*,#455,.T.);
#218=ORIENTED_EDGE('',*,*,#456,.T.);
#219=ORIENTED_EDGE('',*,*,#457,.T.);
#220=ORIENTED_EDGE('',*,*,#458,.T.);
#221=ORIENTED_EDGE('',*,*,#459,.T.);
#222=ORIENTED_EDGE('',*,*,#460,.T.);
#223=ORIENTED_EDGE('',*,*,#461,.T.);
#224=ORIENTED_EDGE('',*,*,#462,.F.);
#225=ORIENTED_EDGE('',*,*,#463,.T.);
#226=ORIENTED_EDGE('',*,*,#464,.F.);
#227=ORIENTED_EDGE('',*,*,#465,.F.);
#228=ORIENTED_EDGE('',*,*,#466,.F.);
#229=ORIENTED_EDGE('',*,*,#467,.F.);
#230=ORIENTED_EDGE('',*,*,#468,.F.);
#231=ORIENTED_EDGE('',*,*,#469,.F.);
#232=ORIENTED_EDGE('',*,*,#470,.F.);
#233=ORIENTED_EDGE('',*,*,#471,.F.);
#234=ORIENTED_EDGE('',*,*,#460,.F.);
#235=ORIENTED_EDGE('',*,*,#472,.F.);
#236=ORIENTED_EDGE('',*,*,#439,.T.);
#237=ORIENTED_EDGE('',*,*,#473,.T.);
#238=ORIENTED_EDGE('',*,*,#463,.F.);
#239=ORIENTED_EDGE('',*,*,#474,.F.);
#240=ORIENTED_EDGE('',*,*,#440,.T.);
#241=ORIENTED_EDGE('',*,*,#472,.T.);
#242=ORIENTED_EDGE('',*,*,#462,.T.);
#243=ORIENTED_EDGE('',*,*,#475,.F.);
#244=ORIENTED_EDGE('',*,*,#441,.F.);
#245=ORIENTED_EDGE('',*,*,#474,.T.);
#246=ORIENTED_EDGE('',*,*,#476,.F.);
#247=ORIENTED_EDGE('',*,*,#477,.T.);
#248=ORIENTED_EDGE('',*,*,#478,.T.);
#249=ORIENTED_EDGE('',*,*,#479,.T.);
#250=ORIENTED_EDGE('',*,*,#448,.F.);
#251=ORIENTED_EDGE('',*,*,#480,.F.);
#252=ORIENTED_EDGE('',*,*,#430,.T.);
#253=ORIENTED_EDGE('',*,*,#481,.T.);
#254=ORIENTED_EDGE('',*,*,#476,.T.);
#255=ORIENTED_EDGE('',*,*,#482,.T.);
#256=ORIENTED_EDGE('',*,*,#457,.F.);
#257=ORIENTED_EDGE('',*,*,#483,.F.);
#258=ORIENTED_EDGE('',*,*,#431,.T.);
#259=ORIENTED_EDGE('',*,*,#480,.T.);
#260=ORIENTED_EDGE('',*,*,#456,.F.);
#261=ORIENTED_EDGE('',*,*,#484,.F.);
#262=ORIENTED_EDGE('',*,*,#432,.T.);
#263=ORIENTED_EDGE('',*,*,#483,.T.);
#264=ORIENTED_EDGE('',*,*,#455,.F.);
#265=ORIENTED_EDGE('',*,*,#485,.F.);
#266=ORIENTED_EDGE('',*,*,#433,.T.);
#267=ORIENTED_EDGE('',*,*,#484,.T.);
#268=ORIENTED_EDGE('',*,*,#454,.T.);
#269=ORIENTED_EDGE('',*,*,#486,.T.);
#270=ORIENTED_EDGE('',*,*,#434,.F.);
#271=ORIENTED_EDGE('',*,*,#485,.T.);
#272=ORIENTED_EDGE('',*,*,#487,.T.);
#273=ORIENTED_EDGE('',*,*,#488,.T.);
#274=ORIENTED_EDGE('',*,*,#489,.T.);
#275=ORIENTED_EDGE('',*,*,#490,.T.);
#276=ORIENTED_EDGE('',*,*,#491,.F.);
#277=ORIENTED_EDGE('',*,*,#492,.T.);
#278=ORIENTED_EDGE('',*,*,#493,.T.);
#279=ORIENTED_EDGE('',*,*,#494,.T.);
#280=ORIENTED_EDGE('',*,*,#495,.F.);
#281=ORIENTED_EDGE('',*,*,#496,.T.);
#282=ORIENTED_EDGE('',*,*,#491,.T.);
#283=ORIENTED_EDGE('',*,*,#497,.T.);
#284=ORIENTED_EDGE('',*,*,#498,.T.);
#285=ORIENTED_EDGE('',*,*,#468,.T.);
#286=ORIENTED_EDGE('',*,*,#499,.T.);
#287=ORIENTED_EDGE('',*,*,#467,.T.);
#288=ORIENTED_EDGE('',*,*,#500,.T.);
#289=ORIENTED_EDGE('',*,*,#466,.T.);
#290=ORIENTED_EDGE('',*,*,#501,.T.);
#291=ORIENTED_EDGE('',*,*,#465,.T.);
#292=ORIENTED_EDGE('',*,*,#502,.T.);
#293=ORIENTED_EDGE('',*,*,#464,.T.);
#294=ORIENTED_EDGE('',*,*,#461,.F.);
#295=ORIENTED_EDGE('',*,*,#473,.F.);
#296=ORIENTED_EDGE('',*,*,#442,.T.);
#297=ORIENTED_EDGE('',*,*,#475,.T.);
#298=ORIENTED_EDGE('',*,*,#478,.F.);
#299=ORIENTED_EDGE('',*,*,#503,.T.);
#300=ORIENTED_EDGE('',*,*,#495,.T.);
#301=ORIENTED_EDGE('',*,*,#504,.T.);
#302=ORIENTED_EDGE('',*,*,#505,.T.);
#303=ORIENTED_EDGE('',*,*,#469,.T.);
#304=ORIENTED_EDGE('',*,*,#506,.T.);
#305=ORIENTED_EDGE('',*,*,#459,.F.);
#306=ORIENTED_EDGE('',*,*,#507,.T.);
#307=ORIENTED_EDGE('',*,*,#470,.T.);
#308=ORIENTED_EDGE('',*,*,#508,.T.);
#309=ORIENTED_EDGE('',*,*,#458,.F.);
#310=ORIENTED_EDGE('',*,*,#509,.T.);
#311=ORIENTED_EDGE('',*,*,#471,.T.);
#312=ORIENTED_EDGE('',*,*,#510,.T.);
#313=ORIENTED_EDGE('',*,*,#511,.T.);
#314=ORIENTED_EDGE('',*,*,#512,.T.);
#315=ORIENTED_EDGE('',*,*,#513,.T.);
#316=ORIENTED_EDGE('',*,*,#514,.T.);
#317=ORIENTED_EDGE('',*,*,#428,.T.);
#318=ORIENTED_EDGE('',*,*,#515,.T.);
#319=ORIENTED_EDGE('',*,*,#516,.T.);
#320=ORIENTED_EDGE('',*,*,#517,.T.);
#321=ORIENTED_EDGE('',*,*,#518,.T.);
#322=ORIENTED_EDGE('',*,*,#482,.F.);
#323=ORIENTED_EDGE('',*,*,#479,.F.);
#324=ORIENTED_EDGE('',*,*,#519,.F.);
#325=ORIENTED_EDGE('',*,*,#449,.F.);
#326=ORIENTED_EDGE('',*,*,#519,.T.);
#327=ORIENTED_EDGE('',*,*,#504,.F.);
#328=ORIENTED_EDGE('',*,*,#520,.F.);
#329=ORIENTED_EDGE('',*,*,#450,.F.);
#330=ORIENTED_EDGE('',*,*,#520,.T.);
#331=ORIENTED_EDGE('',*,*,#497,.F.);
#332=ORIENTED_EDGE('',*,*,#521,.F.);
#333=ORIENTED_EDGE('',*,*,#451,.F.);
#334=ORIENTED_EDGE('',*,*,#521,.T.);
#335=ORIENTED_EDGE('',*,*,#494,.F.);
#336=ORIENTED_EDGE('',*,*,#522,.F.);
#337=ORIENTED_EDGE('',*,*,#452,.F.);
#338=ORIENTED_EDGE('',*,*,#523,.F.);
#339=ORIENTED_EDGE('',*,*,#453,.F.);
#340=ORIENTED_EDGE('',*,*,#524,.F.);
#341=ORIENTED_EDGE('',*,*,#490,.F.);
#342=ORIENTED_EDGE('',*,*,#524,.T.);
#343=ORIENTED_EDGE('',*,*,#522,.T.);
#344=ORIENTED_EDGE('',*,*,#525,.F.);
#345=ORIENTED_EDGE('',*,*,#523,.T.);
#346=ORIENTED_EDGE('',*,*,#489,.F.);
#347=ORIENTED_EDGE('',*,*,#526,.F.);
#348=ORIENTED_EDGE('',*,*,#486,.F.);
#349=ORIENTED_EDGE('',*,*,#525,.T.);
#350=ORIENTED_EDGE('',*,*,#493,.F.);
#351=ORIENTED_EDGE('',*,*,#527,.F.);
#352=ORIENTED_EDGE('',*,*,#487,.F.);
#353=ORIENTED_EDGE('',*,*,#526,.T.);
#354=ORIENTED_EDGE('',*,*,#488,.F.);
#355=ORIENTED_EDGE('',*,*,#528,.F.);
#356=ORIENTED_EDGE('',*,*,#435,.F.);
#357=ORIENTED_EDGE('',*,*,#528,.T.);
#358=ORIENTED_EDGE('',*,*,#527,.T.);
#359=ORIENTED_EDGE('',*,*,#529,.F.);
#360=ORIENTED_EDGE('',*,*,#529,.T.);
#361=ORIENTED_EDGE('',*,*,#492,.F.);
#362=ORIENTED_EDGE('',*,*,#530,.F.);
#363=ORIENTED_EDGE('',*,*,#436,.F.);
#364=ORIENTED_EDGE('',*,*,#530,.T.);
#365=ORIENTED_EDGE('',*,*,#496,.F.);
#366=ORIENTED_EDGE('',*,*,#531,.F.);
#367=ORIENTED_EDGE('',*,*,#437,.F.);
#368=ORIENTED_EDGE('',*,*,#531,.T.);
#369=ORIENTED_EDGE('',*,*,#503,.F.);
#370=ORIENTED_EDGE('',*,*,#532,.F.);
#371=ORIENTED_EDGE('',*,*,#438,.F.);
#372=ORIENTED_EDGE('',*,*,#481,.F.);
#373=ORIENTED_EDGE('',*,*,#429,.F.);
#374=ORIENTED_EDGE('',*,*,#532,.T.);
#375=ORIENTED_EDGE('',*,*,#477,.F.);
#376=ORIENTED_EDGE('',*,*,#414,.F.);
#377=ORIENTED_EDGE('',*,*,#512,.F.);
#378=ORIENTED_EDGE('',*,*,#415,.F.);
#379=ORIENTED_EDGE('',*,*,#515,.F.);
#380=ORIENTED_EDGE('',*,*,#416,.F.);
#381=ORIENTED_EDGE('',*,*,#517,.F.);
#382=ORIENTED_EDGE('',*,*,#417,.F.);
#383=ORIENTED_EDGE('',*,*,#510,.F.);
#384=ORIENTED_EDGE('',*,*,#514,.F.);
#385=ORIENTED_EDGE('',*,*,#443,.F.);
#386=ORIENTED_EDGE('',*,*,#513,.F.);
#387=ORIENTED_EDGE('',*,*,#444,.F.);
#388=ORIENTED_EDGE('',*,*,#516,.F.);
#389=ORIENTED_EDGE('',*,*,#445,.F.);
#390=ORIENTED_EDGE('',*,*,#518,.F.);
#391=ORIENTED_EDGE('',*,*,#446,.F.);
#392=ORIENTED_EDGE('',*,*,#511,.F.);
#393=ORIENTED_EDGE('',*,*,#447,.F.);
#394=ORIENTED_EDGE('',*,*,#509,.F.);
#395=ORIENTED_EDGE('',*,*,#418,.F.);
#396=ORIENTED_EDGE('',*,*,#419,.F.);
#397=ORIENTED_EDGE('',*,*,#506,.F.);
#398=ORIENTED_EDGE('',*,*,#507,.F.);
#399=ORIENTED_EDGE('',*,*,#420,.F.);
#400=ORIENTED_EDGE('',*,*,#421,.F.);
#401=ORIENTED_EDGE('',*,*,#508,.F.);
#402=ORIENTED_EDGE('',*,*,#498,.F.);
#403=ORIENTED_EDGE('',*,*,#422,.F.);
#404=ORIENTED_EDGE('',*,*,#505,.F.);
#405=ORIENTED_EDGE('',*,*,#423,.F.);
#406=ORIENTED_EDGE('',*,*,#502,.F.);
#407=ORIENTED_EDGE('',*,*,#424,.F.);
#408=ORIENTED_EDGE('',*,*,#500,.F.);
#409=ORIENTED_EDGE('',*,*,#425,.F.);
#410=ORIENTED_EDGE('',*,*,#499,.F.);
#411=ORIENTED_EDGE('',*,*,#426,.F.);
#412=ORIENTED_EDGE('',*,*,#501,.F.);
#413=ORIENTED_EDGE('',*,*,#427,.F.);
#414=EDGE_CURVE('',#533,#533,#624,.F.);
#415=EDGE_CURVE('',#534,#534,#625,.F.);
#416=EDGE_CURVE('',#535,#535,#626,.F.);
#417=EDGE_CURVE('',#536,#536,#627,.F.);
#418=EDGE_CURVE('',#537,#537,#628,.F.);
#419=EDGE_CURVE('',#538,#538,#629,.F.);
#420=EDGE_CURVE('',#539,#539,#630,.F.);
#421=EDGE_CURVE('',#540,#540,#631,.F.);
#422=EDGE_CURVE('',#541,#541,#632,.F.);
#423=EDGE_CURVE('',#542,#542,#633,.F.);
#424=EDGE_CURVE('',#543,#543,#634,.F.);
#425=EDGE_CURVE('',#544,#544,#635,.F.);
#426=EDGE_CURVE('',#545,#545,#636,.F.);
#427=EDGE_CURVE('',#546,#546,#637,.F.);
#428=EDGE_CURVE('',#547,#547,#638,.T.);
#429=EDGE_CURVE('',#548,#549,#68,.F.);
#430=EDGE_CURVE('',#550,#549,#69,.T.);
#431=EDGE_CURVE('',#551,#550,#70,.T.);
#432=EDGE_CURVE('',#552,#551,#71,.T.);
#433=EDGE_CURVE('',#553,#552,#72,.T.);
#434=EDGE_CURVE('',#553,#554,#73,.T.);
#435=EDGE_CURVE('',#554,#555,#74,.T.);
#436=EDGE_CURVE('',#555,#556,#75,.F.);
#437=EDGE_CURVE('',#556,#557,#76,.T.);
#438=EDGE_CURVE('',#557,#548,#77,.F.);
#439=EDGE_CURVE('',#558,#559,#78,.T.);
#440=EDGE_CURVE('',#560,#558,#79,.T.);
#441=EDGE_CURVE('',#560,#561,#80,.T.);
#442=EDGE_CURVE('',#559,#561,#81,.T.);
#443=EDGE_CURVE('',#562,#562,#639,.T.);
#444=EDGE_CURVE('',#563,#563,#640,.T.);
#445=EDGE_CURVE('',#564,#564,#641,.T.);
#446=EDGE_CURVE('',#565,#565,#642,.T.);
#447=EDGE_CURVE('',#566,#566,#643,.T.);
#448=EDGE_CURVE('',#567,#568,#82,.T.);
#449=EDGE_CURVE('',#568,#569,#83,.T.);
#450=EDGE_CURVE('',#569,#570,#84,.T.);
#451=EDGE_CURVE('',#570,#571,#85,.F.);
#452=EDGE_CURVE('',#571,#572,#86,.T.);
#453=EDGE_CURVE('',#572,#573,#87,.F.);
#454=EDGE_CURVE('',#574,#573,#88,.T.);
#455=EDGE_CURVE('',#574,#575,#89,.T.);
#456=EDGE_CURVE('',#575,#576,#90,.T.);
#457=EDGE_CURVE('',#576,#567,#91,.T.);
#458=EDGE_CURVE('',#577,#577,#644,.T.);
#459=EDGE_CURVE('',#578,#578,#645,.T.);
#460=EDGE_CURVE('',#579,#580,#92,.T.);
#461=EDGE_CURVE('',#580,#581,#93,.T.);
#462=EDGE_CURVE('',#582,#581,#94,.T.);
#463=EDGE_CURVE('',#582,#579,#95,.T.);
#464=EDGE_CURVE('',#583,#583,#646,.T.);
#465=EDGE_CURVE('',#584,#584,#647,.T.);
#466=EDGE_CURVE('',#585,#585,#648,.T.);
#467=EDGE_CURVE('',#586,#586,#649,.T.);
#468=EDGE_CURVE('',#587,#587,#650,.T.);
#469=EDGE_CURVE('',#588,#588,#651,.T.);
#470=EDGE_CURVE('',#589,#589,#652,.F.);
#471=EDGE_CURVE('',#590,#590,#653,.F.);
#472=EDGE_CURVE('',#558,#579,#96,.T.);
#473=EDGE_CURVE('',#559,#580,#97,.T.);
#474=EDGE_CURVE('',#560,#582,#98,.T.);
#475=EDGE_CURVE('',#561,#581,#99,.T.);
#476=EDGE_CURVE('',#591,#592,#100,.T.);
#477=EDGE_CURVE('',#591,#593,#101,.T.);
#478=EDGE_CURVE('',#593,#594,#102,.T.);
#479=EDGE_CURVE('',#594,#592,#103,.F.);
#480=EDGE_CURVE('',#550,#567,#104,.T.);
#481=EDGE_CURVE('',#549,#591,#654,.F.);
#482=EDGE_CURVE('',#592,#568,#655,.F.);
#483=EDGE_CURVE('',#551,#576,#105,.T.);
#484=EDGE_CURVE('',#552,#575,#106,.T.);
#485=EDGE_CURVE('',#553,#574,#107,.T.);
#486=EDGE_CURVE('',#573,#554,#108,.F.);
#487=EDGE_CURVE('',#595,#596,#109,.F.);
#488=EDGE_CURVE('',#596,#597,#110,.F.);
#489=EDGE_CURVE('',#597,#598,#111,.T.);
#490=EDGE_CURVE('',#598,#595,#112,.T.);
#491=EDGE_CURVE('',#599,#600,#113,.T.);
#492=EDGE_CURVE('',#599,#601,#114,.T.);
#493=EDGE_CURVE('',#601,#602,#115,.T.);
#494=EDGE_CURVE('',#602,#600,#116,.F.);
#495=EDGE_CURVE('',#603,#604,#117,.T.);
#496=EDGE_CURVE('',#603,#599,#118,.F.);
#497=EDGE_CURVE('',#600,#604,#119,.T.);
#498=EDGE_CURVE('',#605,#605,#656,.T.);
#499=EDGE_CURVE('',#606,#606,#657,.T.);
#500=EDGE_CURVE('',#607,#607,#658,.T.);
#501=EDGE_CURVE('',#608,#608,#659,.T.);
#502=EDGE_CURVE('',#609,#609,#660,.T.);
#503=EDGE_CURVE('',#593,#603,#120,.T.);
#504=EDGE_CURVE('',#604,#594,#121,.F.);
#505=EDGE_CURVE('',#610,#610,#661,.T.);
#506=EDGE_CURVE('',#611,#611,#662,.T.);
#507=EDGE_CURVE('',#612,#612,#663,.T.);
#508=EDGE_CURVE('',#613,#613,#664,.T.);
#509=EDGE_CURVE('',#614,#614,#665,.T.);
#510=EDGE_CURVE('',#615,#615,#666,.T.);
#511=EDGE_CURVE('',#616,#616,#667,.F.);
#512=EDGE_CURVE('',#617,#617,#668,.T.);
#513=EDGE_CURVE('',#618,#618,#669,.F.);
#514=EDGE_CURVE('',#619,#619,#670,.F.);
#515=EDGE_CURVE('',#620,#620,#671,.T.);
#516=EDGE_CURVE('',#621,#621,#672,.F.);
#517=EDGE_CURVE('',#622,#622,#673,.T.);
#518=EDGE_CURVE('',#623,#623,#674,.F.);
#519=EDGE_CURVE('',#569,#594,#33,.F.);
#520=EDGE_CURVE('',#570,#604,#34,.F.);
#521=EDGE_CURVE('',#571,#600,#35,.F.);
#522=EDGE_CURVE('',#572,#602,#675,.T.);
#523=EDGE_CURVE('',#573,#598,#36,.F.);
#524=EDGE_CURVE('',#595,#572,#676,.T.);
#525=EDGE_CURVE('',#595,#602,#677,.F.);
#526=EDGE_CURVE('',#554,#597,#37,.F.);
#527=EDGE_CURVE('',#596,#601,#678,.T.);
#528=EDGE_CURVE('',#555,#596,#679,.T.);
#529=EDGE_CURVE('',#555,#601,#680,.F.);
#530=EDGE_CURVE('',#556,#599,#38,.F.);
#531=EDGE_CURVE('',#557,#603,#39,.F.);
#532=EDGE_CURVE('',#548,#593,#40,.F.);
#533=VERTEX_POINT('',#1480);
#534=VERTEX_POINT('',#1482);
#535=VERTEX_POINT('',#1484);
#536=VERTEX_POINT('',#1486);
#537=VERTEX_POINT('',#1488);
#538=VERTEX_POINT('',#1490);
#539=VERTEX_POINT('',#1492);
#540=VERTEX_POINT('',#1494);
#541=VERTEX_POINT('',#1496);
#542=VERTEX_POINT('',#1498);
#543=VERTEX_POINT('',#1500);
#544=VERTEX_POINT('',#1502);
#545=VERTEX_POINT('',#1504);
#546=VERTEX_POINT('',#1506);
#547=VERTEX_POINT('',#1508);
#548=VERTEX_POINT('',#1510);
#549=VERTEX_POINT('',#1511);
#550=VERTEX_POINT('',#1513);
#551=VERTEX_POINT('',#1515);
#552=VERTEX_POINT('',#1517);
#553=VERTEX_POINT('',#1519);
#554=VERTEX_POINT('',#1521);
#555=VERTEX_POINT('',#1523);
#556=VERTEX_POINT('',#1525);
#557=VERTEX_POINT('',#1527);
#558=VERTEX_POINT('',#1530);
#559=VERTEX_POINT('',#1531);
#560=VERTEX_POINT('',#1533);
#561=VERTEX_POINT('',#1535);
#562=VERTEX_POINT('',#1539);
#563=VERTEX_POINT('',#1541);
#564=VERTEX_POINT('',#1543);
#565=VERTEX_POINT('',#1545);
#566=VERTEX_POINT('',#1547);
#567=VERTEX_POINT('',#1549);
#568=VERTEX_POINT('',#1550);
#569=VERTEX_POINT('',#1552);
#570=VERTEX_POINT('',#1554);
#571=VERTEX_POINT('',#1556);
#572=VERTEX_POINT('',#1558);
#573=VERTEX_POINT('',#1560);
#574=VERTEX_POINT('',#1562);
#575=VERTEX_POINT('',#1564);
#576=VERTEX_POINT('',#1566);
#577=VERTEX_POINT('',#1569);
#578=VERTEX_POINT('',#1571);
#579=VERTEX_POINT('',#1573);
#580=VERTEX_POINT('',#1574);
#581=VERTEX_POINT('',#1576);
#582=VERTEX_POINT('',#1578);
#583=VERTEX_POINT('',#1581);
#584=VERTEX_POINT('',#1583);
#585=VERTEX_POINT('',#1585);
#586=VERTEX_POINT('',#1587);
#587=VERTEX_POINT('',#1589);
#588=VERTEX_POINT('',#1591);
#589=VERTEX_POINT('',#1593);
#590=VERTEX_POINT('',#1595);
#591=VERTEX_POINT('',#1605);
#592=VERTEX_POINT('',#1606);
#593=VERTEX_POINT('',#1608);
#594=VERTEX_POINT('',#1610);
#595=VERTEX_POINT('',#1626);
#596=VERTEX_POINT('',#1627);
#597=VERTEX_POINT('',#1629);
#598=VERTEX_POINT('',#1631);
#599=VERTEX_POINT('',#1635);
#600=VERTEX_POINT('',#1636);
#601=VERTEX_POINT('',#1638);
#602=VERTEX_POINT('',#1640);
#603=VERTEX_POINT('',#1644);
#604=VERTEX_POINT('',#1645);
#605=VERTEX_POINT('',#1650);
#606=VERTEX_POINT('',#1653);
#607=VERTEX_POINT('',#1656);
#608=VERTEX_POINT('',#1659);
#609=VERTEX_POINT('',#1662);
#610=VERTEX_POINT('',#1669);
#611=VERTEX_POINT('',#1672);
#612=VERTEX_POINT('',#1675);
#613=VERTEX_POINT('',#1678);
#614=VERTEX_POINT('',#1681);
#615=VERTEX_POINT('',#1684);
#616=VERTEX_POINT('',#1686);
#617=VERTEX_POINT('',#1689);
#618=VERTEX_POINT('',#1691);
#619=VERTEX_POINT('',#1694);
#620=VERTEX_POINT('',#1697);
#621=VERTEX_POINT('',#1699);
#622=VERTEX_POINT('',#1702);
#623=VERTEX_POINT('',#1704);
#624=CIRCLE('',#1035,0.00275);
#625=CIRCLE('',#1036,0.00275);
#626=CIRCLE('',#1037,0.00275);
#627=CIRCLE('',#1038,0.00275);
#628=CIRCLE('',#1039,0.00275);
#629=CIRCLE('',#1040,0.00275);
#630=CIRCLE('',#1041,0.00275);
#631=CIRCLE('',#1042,0.00275);
#632=CIRCLE('',#1043,0.00275);
#633=CIRCLE('',#1044,0.00275);
#634=CIRCLE('',#1045,0.00275);
#635=CIRCLE('',#1046,0.00275);
#636=CIRCLE('',#1047,0.00275);
#637=CIRCLE('',#1048,0.00275);
#638=CIRCLE('',#1049,0.0181);
#639=CIRCLE('',#1051,0.0182);
#640=CIRCLE('',#1052,0.00275);
#641=CIRCLE('',#1053,0.00275);
#642=CIRCLE('',#1054,0.00275);
#643=CIRCLE('',#1055,0.00275);
#644=CIRCLE('',#1056,0.00265);
#645=CIRCLE('',#1057,0.00265);
#646=CIRCLE('',#1058,0.00265);
#647=CIRCLE('',#1059,0.00265);
#648=CIRCLE('',#1060,0.00265);
#649=CIRCLE('',#1061,0.00265);
#650=CIRCLE('',#1062,0.00265);
#651=CIRCLE('',#1063,0.00265);
#652=CIRCLE('',#1064,0.00265);
#653=CIRCLE('',#1065,0.00265);
#654=CIRCLE('',#1071,0.003);
#655=CIRCLE('',#1072,0.003);
#656=CIRCLE('',#1081,0.00265);
#657=CIRCLE('',#1083,0.00265);
#658=CIRCLE('',#1085,0.00265);
#659=CIRCLE('',#1087,0.00265);
#660=CIRCLE('',#1089,0.00265);
#661=CIRCLE('',#1093,0.00265);
#662=CIRCLE('',#1095,0.00265);
#663=CIRCLE('',#1097,0.00265);
#664=CIRCLE('',#1099,0.00265);
#665=CIRCLE('',#1101,0.00265);
#666=CIRCLE('',#1103,0.00265);
#667=CIRCLE('',#1104,0.00265);
#668=CIRCLE('',#1106,0.00265);
#669=CIRCLE('',#1107,0.00265);
#670=CIRCLE('',#1109,0.0181);
#671=CIRCLE('',#1111,0.00265);
#672=CIRCLE('',#1112,0.00265);
#673=CIRCLE('',#1114,0.00265);
#674=CIRCLE('',#1115,0.00265);
#675=CIRCLE('',#1123,0.003);
#676=CIRCLE('',#1126,0.003);
#677=CIRCLE('',#1128,0.003);
#678=CIRCLE('',#1132,0.003);
#679=CIRCLE('',#1134,0.003);
#680=CIRCLE('',#1136,0.003);
#681=EDGE_LOOP('',(#176));
#682=EDGE_LOOP('',(#177));
#683=EDGE_LOOP('',(#178));
#684=EDGE_LOOP('',(#179));
#685=EDGE_LOOP('',(#180));
#686=EDGE_LOOP('',(#181));
#687=EDGE_LOOP('',(#182));
#688=EDGE_LOOP('',(#183));
#689=EDGE_LOOP('',(#184));
#690=EDGE_LOOP('',(#185));
#691=EDGE_LOOP('',(#186));
#692=EDGE_LOOP('',(#187));
#693=EDGE_LOOP('',(#188));
#694=EDGE_LOOP('',(#189));
#695=EDGE_LOOP('',(#190));
#696=EDGE_LOOP('',(#191,#192,#193,#194,#195,#196,#197,#198,#199,#200));
#697=EDGE_LOOP('',(#201,#202,#203,#204));
#698=EDGE_LOOP('',(#205));
#699=EDGE_LOOP('',(#206));
#700=EDGE_LOOP('',(#207));
#701=EDGE_LOOP('',(#208));
#702=EDGE_LOOP('',(#209));
#703=EDGE_LOOP('',(#210,#211,#212,#213,#214,#215,#216,#217,#218,#219));
#704=EDGE_LOOP('',(#220));
#705=EDGE_LOOP('',(#221));
#706=EDGE_LOOP('',(#222,#223,#224,#225));
#707=EDGE_LOOP('',(#226));
#708=EDGE_LOOP('',(#227));
#709=EDGE_LOOP('',(#228));
#710=EDGE_LOOP('',(#229));
#711=EDGE_LOOP('',(#230));
#712=EDGE_LOOP('',(#231));
#713=EDGE_LOOP('',(#232));
#714=EDGE_LOOP('',(#233));
#715=EDGE_LOOP('',(#234,#235,#236,#237));
#716=EDGE_LOOP('',(#238,#239,#240,#241));
#717=EDGE_LOOP('',(#242,#243,#244,#245));
#718=EDGE_LOOP('',(#246,#247,#248,#249));
#719=EDGE_LOOP('',(#250,#251,#252,#253,#254,#255));
#720=EDGE_LOOP('',(#256,#257,#258,#259));
#721=EDGE_LOOP('',(#260,#261,#262,#263));
#722=EDGE_LOOP('',(#264,#265,#266,#267));
#723=EDGE_LOOP('',(#268,#269,#270,#271));
#724=EDGE_LOOP('',(#272,#273,#274,#275));
#725=EDGE_LOOP('',(#276,#277,#278,#279));
#726=EDGE_LOOP('',(#280,#281,#282,#283));
#727=EDGE_LOOP('',(#284));
#728=EDGE_LOOP('',(#285));
#729=EDGE_LOOP('',(#286));
#730=EDGE_LOOP('',(#287));
#731=EDGE_LOOP('',(#288));
#732=EDGE_LOOP('',(#289));
#733=EDGE_LOOP('',(#290));
#734=EDGE_LOOP('',(#291));
#735=EDGE_LOOP('',(#292));
#736=EDGE_LOOP('',(#293));
#737=EDGE_LOOP('',(#294,#295,#296,#297));
#738=EDGE_LOOP('',(#298,#299,#300,#301));
#739=EDGE_LOOP('',(#302));
#740=EDGE_LOOP('',(#303));
#741=EDGE_LOOP('',(#304));
#742=EDGE_LOOP('',(#305));
#743=EDGE_LOOP('',(#306));
#744=EDGE_LOOP('',(#307));
#745=EDGE_LOOP('',(#308));
#746=EDGE_LOOP('',(#309));
#747=EDGE_LOOP('',(#310));
#748=EDGE_LOOP('',(#311));
#749=EDGE_LOOP('',(#312));
#750=EDGE_LOOP('',(#313));
#751=EDGE_LOOP('',(#314));
#752=EDGE_LOOP('',(#315));
#753=EDGE_LOOP('',(#316));
#754=EDGE_LOOP('',(#317));
#755=EDGE_LOOP('',(#318));
#756=EDGE_LOOP('',(#319));
#757=EDGE_LOOP('',(#320));
#758=EDGE_LOOP('',(#321));
#759=EDGE_LOOP('',(#322,#323,#324,#325));
#760=EDGE_LOOP('',(#326,#327,#328,#329));
#761=EDGE_LOOP('',(#330,#331,#332,#333));
#762=EDGE_LOOP('',(#334,#335,#336,#337));
#763=EDGE_LOOP('',(#338,#339,#340,#341));
#764=EDGE_LOOP('',(#342,#343,#344));
#765=EDGE_LOOP('',(#345,#346,#347,#348));
#766=EDGE_LOOP('',(#349,#350,#351,#352));
#767=EDGE_LOOP('',(#353,#354,#355,#356));
#768=EDGE_LOOP('',(#357,#358,#359));
#769=EDGE_LOOP('',(#360,#361,#362,#363));
#770=EDGE_LOOP('',(#364,#365,#366,#367));
#771=EDGE_LOOP('',(#368,#369,#370,#371));
#772=EDGE_LOOP('',(#372,#373,#374,#375));
#773=EDGE_LOOP('',(#376));
#774=EDGE_LOOP('',(#377));
#775=EDGE_LOOP('',(#378));
#776=EDGE_LOOP('',(#379));
#777=EDGE_LOOP('',(#380));
#778=EDGE_LOOP('',(#381));
#779=EDGE_LOOP('',(#382));
#780=EDGE_LOOP('',(#383));
#781=EDGE_LOOP('',(#384));
#782=EDGE_LOOP('',(#385));
#783=EDGE_LOOP('',(#386));
#784=EDGE_LOOP('',(#387));
#785=EDGE_LOOP('',(#388));
#786=EDGE_LOOP('',(#389));
#787=EDGE_LOOP('',(#390));
#788=EDGE_LOOP('',(#391));
#789=EDGE_LOOP('',(#392));
#790=EDGE_LOOP('',(#393));
#791=EDGE_LOOP('',(#394));
#792=EDGE_LOOP('',(#395));
#793=EDGE_LOOP('',(#396));
#794=EDGE_LOOP('',(#397));
#795=EDGE_LOOP('',(#398));
#796=EDGE_LOOP('',(#399));
#797=EDGE_LOOP('',(#400));
#798=EDGE_LOOP('',(#401));
#799=EDGE_LOOP('',(#402));
#800=EDGE_LOOP('',(#403));
#801=EDGE_LOOP('',(#404));
#802=EDGE_LOOP('',(#405));
#803=EDGE_LOOP('',(#406));
#804=EDGE_LOOP('',(#407));
#805=EDGE_LOOP('',(#408));
#806=EDGE_LOOP('',(#409));
#807=EDGE_LOOP('',(#410));
#808=EDGE_LOOP('',(#411));
#809=EDGE_LOOP('',(#412));
#810=EDGE_LOOP('',(#413));
#811=FACE_BOUND('',#681,.T.);
#812=FACE_BOUND('',#682,.T.);
#813=FACE_BOUND('',#683,.T.);
#814=FACE_BOUND('',#684,.T.);
#815=FACE_BOUND('',#685,.T.);
#816=FACE_BOUND('',#686,.T.);
#817=FACE_BOUND('',#687,.T.);
#818=FACE_BOUND('',#688,.T.);
#819=FACE_BOUND('',#689,.T.);
#820=FACE_BOUND('',#690,.T.);
#821=FACE_BOUND('',#691,.T.);
#822=FACE_BOUND('',#692,.T.);
#823=FACE_BOUND('',#693,.T.);
#824=FACE_BOUND('',#694,.T.);
#825=FACE_BOUND('',#695,.T.);
#826=FACE_BOUND('',#696,.T.);
#827=FACE_BOUND('',#697,.T.);
#828=FACE_BOUND('',#698,.T.);
#829=FACE_BOUND('',#699,.T.);
#830=FACE_BOUND('',#700,.T.);
#831=FACE_BOUND('',#701,.T.);
#832=FACE_BOUND('',#702,.T.);
#833=FACE_BOUND('',#703,.T.);
#834=FACE_BOUND('',#704,.T.);
#835=FACE_BOUND('',#705,.T.);
#836=FACE_BOUND('',#706,.T.);
#837=FACE_BOUND('',#707,.T.);
#838=FACE_BOUND('',#708,.T.);
#839=FACE_BOUND('',#709,.T.);
#840=FACE_BOUND('',#710,.T.);
#841=FACE_BOUND('',#711,.T.);
#842=FACE_BOUND('',#712,.T.);
#843=FACE_BOUND('',#713,.T.);
#844=FACE_BOUND('',#714,.T.);
#845=FACE_BOUND('',#715,.T.);
#846=FACE_BOUND('',#716,.T.);
#847=FACE_BOUND('',#717,.T.);
#848=FACE_BOUND('',#718,.T.);
#849=FACE_BOUND('',#719,.T.);
#850=FACE_BOUND('',#720,.T.);
#851=FACE_BOUND('',#721,.T.);
#852=FACE_BOUND('',#722,.T.);
#853=FACE_BOUND('',#723,.T.);
#854=FACE_BOUND('',#724,.T.);
#855=FACE_BOUND('',#725,.T.);
#856=FACE_BOUND('',#726,.T.);
#857=FACE_BOUND('',#727,.T.);
#858=FACE_BOUND('',#728,.T.);
#859=FACE_BOUND('',#729,.T.);
#860=FACE_BOUND('',#730,.T.);
#861=FACE_BOUND('',#731,.T.);
#862=FACE_BOUND('',#732,.T.);
#863=FACE_BOUND('',#733,.T.);
#864=FACE_BOUND('',#734,.T.);
#865=FACE_BOUND('',#735,.T.);
#866=FACE_BOUND('',#736,.T.);
#867=FACE_BOUND('',#737,.T.);
#868=FACE_BOUND('',#738,.T.);
#869=FACE_BOUND('',#739,.T.);
#870=FACE_BOUND('',#740,.T.);
#871=FACE_BOUND('',#741,.T.);
#872=FACE_BOUND('',#742,.T.);
#873=FACE_BOUND('',#743,.T.);
#874=FACE_BOUND('',#744,.T.);
#875=FACE_BOUND('',#745,.T.);
#876=FACE_BOUND('',#746,.T.);
#877=FACE_BOUND('',#747,.T.);
#878=FACE_BOUND('',#748,.T.);
#879=FACE_BOUND('',#749,.T.);
#880=FACE_BOUND('',#750,.T.);
#881=FACE_BOUND('',#751,.T.);
#882=FACE_BOUND('',#752,.T.);
#883=FACE_BOUND('',#753,.T.);
#884=FACE_BOUND('',#754,.T.);
#885=FACE_BOUND('',#755,.T.);
#886=FACE_BOUND('',#756,.T.);
#887=FACE_BOUND('',#757,.T.);
#888=FACE_BOUND('',#758,.T.);
#889=FACE_BOUND('',#759,.T.);
#890=FACE_BOUND('',#760,.T.);
#891=FACE_BOUND('',#761,.T.);
#892=FACE_BOUND('',#762,.T.);
#893=FACE_BOUND('',#763,.T.);
#894=FACE_BOUND('',#764,.T.);
#895=FACE_BOUND('',#765,.T.);
#896=FACE_BOUND('',#766,.T.);
#897=FACE_BOUND('',#767,.T.);
#898=FACE_BOUND('',#768,.T.);
#899=FACE_BOUND('',#769,.T.);
#900=FACE_BOUND('',#770,.T.);
#901=FACE_BOUND('',#771,.T.);
#902=FACE_BOUND('',#772,.T.);
#903=FACE_BOUND('',#773,.T.);
#904=FACE_BOUND('',#774,.T.);
#905=FACE_BOUND('',#775,.T.);
#906=FACE_BOUND('',#776,.T.);
#907=FACE_BOUND('',#777,.T.);
#908=FACE_BOUND('',#778,.T.);
#909=FACE_BOUND('',#779,.T.);
#910=FACE_BOUND('',#780,.T.);
#911=FACE_BOUND('',#781,.T.);
#912=FACE_BOUND('',#782,.T.);
#913=FACE_BOUND('',#783,.T.);
#914=FACE_BOUND('',#784,.T.);
#915=FACE_BOUND('',#785,.T.);
#916=FACE_BOUND('',#786,.T.);
#917=FACE_BOUND('',#787,.T.);
#918=FACE_BOUND('',#788,.T.);
#919=FACE_BOUND('',#789,.T.);
#920=FACE_BOUND('',#790,.T.);
#921=FACE_BOUND('',#791,.T.);
#922=FACE_BOUND('',#792,.T.);
#923=FACE_BOUND('',#793,.T.);
#924=FACE_BOUND('',#794,.T.);
#925=FACE_BOUND('',#795,.T.);
#926=FACE_BOUND('',#796,.T.);
#927=FACE_BOUND('',#797,.T.);
#928=FACE_BOUND('',#798,.T.);
#929=FACE_BOUND('',#799,.T.);
#930=FACE_BOUND('',#800,.T.);
#931=FACE_BOUND('',#801,.T.);
#932=FACE_BOUND('',#802,.T.);
#933=FACE_BOUND('',#803,.T.);
#934=FACE_BOUND('',#804,.T.);
#935=FACE_BOUND('',#805,.T.);
#936=FACE_BOUND('',#806,.T.);
#937=FACE_BOUND('',#807,.T.);
#938=FACE_BOUND('',#808,.T.);
#939=FACE_BOUND('',#809,.T.);
#940=FACE_BOUND('',#810,.T.);
#941=PLANE('',#1034);
#942=PLANE('',#1050);
#943=PLANE('',#1066);
#944=PLANE('',#1067);
#945=PLANE('',#1068);
#946=PLANE('',#1069);
#947=PLANE('',#1070);
#948=PLANE('',#1073);
#949=PLANE('',#1074);
#950=PLANE('',#1075);
#951=PLANE('',#1076);
#952=PLANE('',#1077);
#953=PLANE('',#1078);
#954=PLANE('',#1079);
#955=PLANE('',#1090);
#956=PLANE('',#1091);
#957=ADVANCED_FACE('',(#811,#812,#813,#814,#815,#816,#817,#818,#819,#820,
#821,#822,#823,#824,#825,#826,#827),#941,.T.);
#958=ADVANCED_FACE('',(#828,#829,#830,#831,#832,#833,#834,#835,#836,#837,
#838,#839,#840,#841,#842,#843,#844),#942,.F.);
#959=ADVANCED_FACE('',(#845),#943,.T.);
#960=ADVANCED_FACE('',(#846),#944,.T.);
#961=ADVANCED_FACE('',(#847),#945,.F.);
#962=ADVANCED_FACE('',(#848),#946,.T.);
#963=ADVANCED_FACE('',(#849),#947,.T.);
#964=ADVANCED_FACE('',(#850),#948,.T.);
#965=ADVANCED_FACE('',(#851),#949,.T.);
#966=ADVANCED_FACE('',(#852),#950,.T.);
#967=ADVANCED_FACE('',(#853),#951,.F.);
#968=ADVANCED_FACE('',(#854),#952,.F.);
#969=ADVANCED_FACE('',(#855),#953,.T.);
#970=ADVANCED_FACE('',(#856),#954,.F.);
#971=ADVANCED_FACE('',(#857,#858),#41,.F.);
#972=ADVANCED_FACE('',(#859,#860),#42,.F.);
#973=ADVANCED_FACE('',(#861,#862),#43,.F.);
#974=ADVANCED_FACE('',(#863,#864),#44,.F.);
#975=ADVANCED_FACE('',(#865,#866),#45,.F.);
#976=ADVANCED_FACE('',(#867),#955,.T.);
#977=ADVANCED_FACE('',(#868),#956,.T.);
#978=ADVANCED_FACE('',(#869,#870),#46,.F.);
#979=ADVANCED_FACE('',(#871,#872),#47,.F.);
#980=ADVANCED_FACE('',(#873,#874),#48,.F.);
#981=ADVANCED_FACE('',(#875,#876),#49,.F.);
#982=ADVANCED_FACE('',(#877,#878),#50,.F.);
#983=ADVANCED_FACE('',(#879,#880),#51,.F.);
#984=ADVANCED_FACE('',(#881,#882),#52,.F.);
#985=ADVANCED_FACE('',(#883,#884),#53,.F.);
#986=ADVANCED_FACE('',(#885,#886),#54,.F.);
#987=ADVANCED_FACE('',(#887,#888),#55,.F.);
#988=ADVANCED_FACE('',(#889),#56,.T.);
#989=ADVANCED_FACE('',(#890),#57,.T.);
#990=ADVANCED_FACE('',(#891),#58,.T.);
#991=ADVANCED_FACE('',(#892),#59,.T.);
#992=ADVANCED_FACE('',(#893),#60,.T.);
#993=ADVANCED_FACE('',(#894),#31,.T.);
#994=ADVANCED_FACE('',(#895),#61,.T.);
#995=ADVANCED_FACE('',(#896),#62,.T.);
#996=ADVANCED_FACE('',(#897),#63,.T.);
#997=ADVANCED_FACE('',(#898),#32,.T.);
#998=ADVANCED_FACE('',(#899),#64,.T.);
#999=ADVANCED_FACE('',(#900),#65,.T.);
#1000=ADVANCED_FACE('',(#901),#66,.T.);
#1001=ADVANCED_FACE('',(#902),#67,.T.);
#1002=ADVANCED_FACE('',(#903,#904),#12,.F.);
#1003=ADVANCED_FACE('',(#905,#906),#13,.F.);
#1004=ADVANCED_FACE('',(#907,#908),#14,.F.);
#1005=ADVANCED_FACE('',(#909,#910),#15,.F.);
#1006=ADVANCED_FACE('',(#911,#912),#16,.F.);
#1007=ADVANCED_FACE('',(#913,#914),#17,.F.);
#1008=ADVANCED_FACE('',(#915,#916),#18,.F.);
#1009=ADVANCED_FACE('',(#917,#918),#19,.F.);
#1010=ADVANCED_FACE('',(#919,#920),#20,.F.);
#1011=ADVANCED_FACE('',(#921,#922),#21,.F.);
#1012=ADVANCED_FACE('',(#923,#924),#22,.F.);
#1013=ADVANCED_FACE('',(#925,#926),#23,.F.);
#1014=ADVANCED_FACE('',(#927,#928),#24,.F.);
#1015=ADVANCED_FACE('',(#929,#930),#25,.F.);
#1016=ADVANCED_FACE('',(#931,#932),#26,.F.);
#1017=ADVANCED_FACE('',(#933,#934),#27,.F.);
#1018=ADVANCED_FACE('',(#935,#936),#28,.F.);
#1019=ADVANCED_FACE('',(#937,#938),#29,.F.);
#1020=ADVANCED_FACE('',(#939,#940),#30,.F.);
#1021=CLOSED_SHELL('',(#957,#958,#959,#960,#961,#962,#963,#964,#965,#966,
#967,#968,#969,#970,#971,#972,#973,#974,#975,#976,#977,#978,#979,#980,#981,
#982,#983,#984,#985,#986,#987,#988,#989,#990,#991,#992,#993,#994,#995,#996,
#997,#998,#999,#1000,#1001,#1002,#1003,#1004,#1005,#1006,#1007,#1008,#1009,
#1010,#1011,#1012,#1013,#1014,#1015,#1016,#1017,#1018,#1019,#1020));
#1022=STYLED_ITEM('',(#1023),#1030);
#1023=PRESENTATION_STYLE_ASSIGNMENT((#1024));
#1024=SURFACE_STYLE_USAGE(.BOTH.,#1025);
#1025=SURFACE_SIDE_STYLE('',(#1026));
#1026=SURFACE_STYLE_FILL_AREA(#1027);
#1027=FILL_AREA_STYLE('',(#1028));
#1028=FILL_AREA_STYLE_COLOUR('',#1029);
#1029=COLOUR_RGB('',0.647058823529412,0.647058823529412,0.647058823529412);
#1030=MANIFOLD_SOLID_BREP('GantryUpper-Left',#1021);
#1031=SHAPE_DEFINITION_REPRESENTATION(#1758,#1032);
#1032=SHAPE_REPRESENTATION('GantryUpper-Left',(#1033),#1753);
#1033=AXIS2_PLACEMENT_3D('',#1477,#1163,#1164);
#1034=AXIS2_PLACEMENT_3D('',#1478,#1165,#1166);
#1035=AXIS2_PLACEMENT_3D('',#1479,#1167,#1168);
#1036=AXIS2_PLACEMENT_3D('',#1481,#1169,#1170);
#1037=AXIS2_PLACEMENT_3D('',#1483,#1171,#1172);
#1038=AXIS2_PLACEMENT_3D('',#1485,#1173,#1174);
#1039=AXIS2_PLACEMENT_3D('',#1487,#1175,#1176);
#1040=AXIS2_PLACEMENT_3D('',#1489,#1177,#1178);
#1041=AXIS2_PLACEMENT_3D('',#1491,#1179,#1180);
#1042=AXIS2_PLACEMENT_3D('',#1493,#1181,#1182);
#1043=AXIS2_PLACEMENT_3D('',#1495,#1183,#1184);
#1044=AXIS2_PLACEMENT_3D('',#1497,#1185,#1186);
#1045=AXIS2_PLACEMENT_3D('',#1499,#1187,#1188);
#1046=AXIS2_PLACEMENT_3D('',#1501,#1189,#1190);
#1047=AXIS2_PLACEMENT_3D('',#1503,#1191,#1192);
#1048=AXIS2_PLACEMENT_3D('',#1505,#1193,#1194);
#1049=AXIS2_PLACEMENT_3D('',#1507,#1195,#1196);
#1050=AXIS2_PLACEMENT_3D('',#1537,#1211,#1212);
#1051=AXIS2_PLACEMENT_3D('',#1538,#1213,#1214);
#1052=AXIS2_PLACEMENT_3D('',#1540,#1215,#1216);
#1053=AXIS2_PLACEMENT_3D('',#1542,#1217,#1218);
#1054=AXIS2_PLACEMENT_3D('',#1544,#1219,#1220);
#1055=AXIS2_PLACEMENT_3D('',#1546,#1221,#1222);
#1056=AXIS2_PLACEMENT_3D('',#1568,#1233,#1234);
#1057=AXIS2_PLACEMENT_3D('',#1570,#1235,#1236);
#1058=AXIS2_PLACEMENT_3D('',#1580,#1241,#1242);
#1059=AXIS2_PLACEMENT_3D('',#1582,#1243,#1244);
#1060=AXIS2_PLACEMENT_3D('',#1584,#1245,#1246);
#1061=AXIS2_PLACEMENT_3D('',#1586,#1247,#1248);
#1062=AXIS2_PLACEMENT_3D('',#1588,#1249,#1250);
#1063=AXIS2_PLACEMENT_3D('',#1590,#1251,#1252);
#1064=AXIS2_PLACEMENT_3D('',#1592,#1253,#1254);
#1065=AXIS2_PLACEMENT_3D('',#1594,#1255,#1256);
#1066=AXIS2_PLACEMENT_3D('',#1596,#1257,#1258);
#1067=AXIS2_PLACEMENT_3D('',#1599,#1261,#1262);
#1068=AXIS2_PLACEMENT_3D('',#1601,#1264,#1265);
#1069=AXIS2_PLACEMENT_3D('',#1603,#1267,#1268);
#1070=AXIS2_PLACEMENT_3D('',#1612,#1273,#1274);
#1071=AXIS2_PLACEMENT_3D('',#1614,#1276,#1277);
#1072=AXIS2_PLACEMENT_3D('',#1615,#1278,#1279);
#1073=AXIS2_PLACEMENT_3D('',#1616,#1280,#1281);
#1074=AXIS2_PLACEMENT_3D('',#1618,#1283,#1284);
#1075=AXIS2_PLACEMENT_3D('',#1620,#1286,#1287);
#1076=AXIS2_PLACEMENT_3D('',#1622,#1289,#1290);
#1077=AXIS2_PLACEMENT_3D('',#1624,#1292,#1293);
#1078=AXIS2_PLACEMENT_3D('',#1633,#1298,#1299);
#1079=AXIS2_PLACEMENT_3D('',#1642,#1304,#1305);
#1080=AXIS2_PLACEMENT_3D('',#1648,#1309,#1310);
#1081=AXIS2_PLACEMENT_3D('',#1649,#1311,#1312);
#1082=AXIS2_PLACEMENT_3D('',#1651,#1313,#1314);
#1083=AXIS2_PLACEMENT_3D('',#1652,#1315,#1316);
#1084=AXIS2_PLACEMENT_3D('',#1654,#1317,#1318);
#1085=AXIS2_PLACEMENT_3D('',#1655,#1319,#1320);
#1086=AXIS2_PLACEMENT_3D('',#1657,#1321,#1322);
#1087=AXIS2_PLACEMENT_3D('',#1658,#1323,#1324);
#1088=AXIS2_PLACEMENT_3D('',#1660,#1325,#1326);
#1089=AXIS2_PLACEMENT_3D('',#1661,#1327,#1328);
#1090=AXIS2_PLACEMENT_3D('',#1663,#1329,#1330);
#1091=AXIS2_PLACEMENT_3D('',#1664,#1331,#1332);
#1092=AXIS2_PLACEMENT_3D('',#1667,#1335,#1336);
#1093=AXIS2_PLACEMENT_3D('',#1668,#1337,#1338);
#1094=AXIS2_PLACEMENT_3D('',#1670,#1339,#1340);
#1095=AXIS2_PLACEMENT_3D('',#1671,#1341,#1342);
#1096=AXIS2_PLACEMENT_3D('',#1673,#1343,#1344);
#1097=AXIS2_PLACEMENT_3D('',#1674,#1345,#1346);
#1098=AXIS2_PLACEMENT_3D('',#1676,#1347,#1348);
#1099=AXIS2_PLACEMENT_3D('',#1677,#1349,#1350);
#1100=AXIS2_PLACEMENT_3D('',#1679,#1351,#1352);
#1101=AXIS2_PLACEMENT_3D('',#1680,#1353,#1354);
#1102=AXIS2_PLACEMENT_3D('',#1682,#1355,#1356);
#1103=AXIS2_PLACEMENT_3D('',#1683,#1357,#1358);
#1104=AXIS2_PLACEMENT_3D('',#1685,#1359,#1360);
#1105=AXIS2_PLACEMENT_3D('',#1687,#1361,#1362);
#1106=AXIS2_PLACEMENT_3D('',#1688,#1363,#1364);
#1107=AXIS2_PLACEMENT_3D('',#1690,#1365,#1366);
#1108=AXIS2_PLACEMENT_3D('',#1692,#1367,#1368);
#1109=AXIS2_PLACEMENT_3D('',#1693,#1369,#1370);
#1110=AXIS2_PLACEMENT_3D('',#1695,#1371,#1372);
#1111=AXIS2_PLACEMENT_3D('',#1696,#1373,#1374);
#1112=AXIS2_PLACEMENT_3D('',#1698,#1375,#1376);
#1113=AXIS2_PLACEMENT_3D('',#1700,#1377,#1378);
#1114=AXIS2_PLACEMENT_3D('',#1701,#1379,#1380);
#1115=AXIS2_PLACEMENT_3D('',#1703,#1381,#1382);
#1116=AXIS2_PLACEMENT_3D('',#1705,#1383,#1384);
#1117=AXIS2_PLACEMENT_3D('',#1706,#1385,#1386);
#1118=AXIS2_PLACEMENT_3D('',#1707,#1387,#1388);
#1119=AXIS2_PLACEMENT_3D('',#1708,#1389,#1390);
#1120=AXIS2_PLACEMENT_3D('',#1709,#1391,#1392);
#1121=AXIS2_PLACEMENT_3D('',#1710,#1393,#1394);
#1122=AXIS2_PLACEMENT_3D('',#1711,#1395,#1396);
#1123=AXIS2_PLACEMENT_3D('',#1712,#1397,#1398);
#1124=AXIS2_PLACEMENT_3D('',#1713,#1399,#1400);
#1125=AXIS2_PLACEMENT_3D('',#1714,#1401,#1402);
#1126=AXIS2_PLACEMENT_3D('',#1715,#1403,#1404);
#1127=AXIS2_PLACEMENT_3D('',#1716,#1405,#1406);
#1128=AXIS2_PLACEMENT_3D('',#1717,#1407,#1408);
#1129=AXIS2_PLACEMENT_3D('',#1718,#1409,#1410);
#1130=AXIS2_PLACEMENT_3D('',#1719,#1411,#1412);
#1131=AXIS2_PLACEMENT_3D('',#1720,#1413,#1414);
#1132=AXIS2_PLACEMENT_3D('',#1721,#1415,#1416);
#1133=AXIS2_PLACEMENT_3D('',#1722,#1417,#1418);
#1134=AXIS2_PLACEMENT_3D('',#1723,#1419,#1420);
#1135=AXIS2_PLACEMENT_3D('',#1724,#1421,#1422);
#1136=AXIS2_PLACEMENT_3D('',#1725,#1423,#1424);
#1137=AXIS2_PLACEMENT_3D('',#1726,#1425,#1426);
#1138=AXIS2_PLACEMENT_3D('',#1727,#1427,#1428);
#1139=AXIS2_PLACEMENT_3D('',#1728,#1429,#1430);
#1140=AXIS2_PLACEMENT_3D('',#1729,#1431,#1432);
#1141=AXIS2_PLACEMENT_3D('',#1730,#1433,#1434);
#1142=AXIS2_PLACEMENT_3D('',#1731,#1435,#1436);
#1143=AXIS2_PLACEMENT_3D('',#1732,#1437,#1438);
#1144=AXIS2_PLACEMENT_3D('',#1733,#1439,#1440);
#1145=AXIS2_PLACEMENT_3D('',#1734,#1441,#1442);
#1146=AXIS2_PLACEMENT_3D('',#1735,#1443,#1444);
#1147=AXIS2_PLACEMENT_3D('',#1736,#1445,#1446);
#1148=AXIS2_PLACEMENT_3D('',#1737,#1447,#1448);
#1149=AXIS2_PLACEMENT_3D('',#1738,#1449,#1450);
#1150=AXIS2_PLACEMENT_3D('',#1739,#1451,#1452);
#1151=AXIS2_PLACEMENT_3D('',#1740,#1453,#1454);
#1152=AXIS2_PLACEMENT_3D('',#1741,#1455,#1456);
#1153=AXIS2_PLACEMENT_3D('',#1742,#1457,#1458);
#1154=AXIS2_PLACEMENT_3D('',#1743,#1459,#1460);
#1155=AXIS2_PLACEMENT_3D('',#1744,#1461,#1462);
#1156=AXIS2_PLACEMENT_3D('',#1745,#1463,#1464);
#1157=AXIS2_PLACEMENT_3D('',#1746,#1465,#1466);
#1158=AXIS2_PLACEMENT_3D('',#1747,#1467,#1468);
#1159=AXIS2_PLACEMENT_3D('',#1748,#1469,#1470);
#1160=AXIS2_PLACEMENT_3D('',#1749,#1471,#1472);
#1161=AXIS2_PLACEMENT_3D('',#1750,#1473,#1474);
#1162=AXIS2_PLACEMENT_3D('',#1751,#1475,#1476);
#1163=DIRECTION('',(0.,0.,1.));
#1164=DIRECTION('',(1.,0.,0.));
#1165=DIRECTION('',(3.19330894433465E-27,-1.,-5.20608754395467E-27));
#1166=DIRECTION('',(1.,3.19330894433465E-27,1.66246459190996E-53));
#1167=DIRECTION('',(3.19330894433465E-27,-1.,-5.20608754395467E-27));
#1168=DIRECTION('',(0.,5.20608754395467E-27,-1.));
#1169=DIRECTION('',(3.19330894433465E-27,-1.,-5.20608754395467E-27));
#1170=DIRECTION('',(0.,5.20608754395467E-27,-1.));
#1171=DIRECTION('',(3.19330894433465E-27,-1.,-5.20608754395467E-27));
#1172=DIRECTION('',(0.,5.20608754395467E-27,-1.));
#1173=DIRECTION('',(3.19330894433465E-27,-1.,-5.20608754395467E-27));
#1174=DIRECTION('',(0.,5.20608754395467E-27,-1.));
#1175=DIRECTION('',(3.19330894433465E-27,-1.,-5.20608754395467E-27));
#1176=DIRECTION('',(0.,5.20608754395467E-27,-1.));
#1177=DIRECTION('',(3.19330894433465E-27,-1.,-5.20608754395467E-27));
#1178=DIRECTION('',(0.,5.20608754395467E-27,-1.));
#1179=DIRECTION('',(3.19330894433465E-27,-1.,-5.20608754395467E-27));
#1180=DIRECTION('',(0.,5.20608754395467E-27,-1.));
#1181=DIRECTION('',(3.19330894433465E-27,-1.,-5.20608754395467E-27));
#1182=DIRECTION('',(0.,5.20608754395467E-27,-1.));
#1183=DIRECTION('',(3.19330894433465E-27,-1.,-5.20608754395467E-27));
#1184=DIRECTION('',(0.,5.20608754395467E-27,-1.));
#1185=DIRECTION('',(3.19330894433465E-27,-1.,-5.20608754395467E-27));
#1186=DIRECTION('',(0.,5.20608754395467E-27,-1.));
#1187=DIRECTION('',(3.19330894433465E-27,-1.,-5.20608754395467E-27));
#1188=DIRECTION('',(0.,5.20608754395467E-27,-1.));
#1189=DIRECTION('',(3.19330894433465E-27,-1.,-5.20608754395467E-27));
#1190=DIRECTION('',(0.,5.20608754395467E-27,-1.));
#1191=DIRECTION('',(3.19330894433465E-27,-1.,-5.20608754395467E-27));
#1192=DIRECTION('',(0.,5.20608754395467E-27,-1.));
#1193=DIRECTION('',(3.19330894433465E-27,-1.,-5.20608754395467E-27));
#1194=DIRECTION('',(0.,5.20608754395467E-27,-1.));
#1195=DIRECTION('',(3.19330894433465E-27,-1.,-5.20608754395467E-27));
#1196=DIRECTION('',(0.,5.20608754395467E-27,-1.));
#1197=DIRECTION('',(1.25953845638306E-57,5.20608754395467E-27,-1.));
#1198=DIRECTION('',(-1.,-3.19330894433465E-27,-8.82964207525544E-17));
#1199=DIRECTION('',(-0.995752961343963,-2.70044624633182E-27,-0.0920654113917342));
#1200=DIRECTION('',(2.07558597127182E-59,5.20608754395467E-27,-1.));
#1201=DIRECTION('',(0.904715499236465,5.10691411172427E-27,-0.426016273681316));
#1202=DIRECTION('',(-1.,-3.19330894433465E-27,1.07262569284578E-58));
#1203=DIRECTION('',(8.6337705207653E-58,5.20608754395467E-27,-1.));
#1204=DIRECTION('',(-1.,-3.19330894433465E-27,-1.05846252734624E-16));
#1205=DIRECTION('',(1.25953845637842E-57,5.20608754395467E-27,-1.));
#1206=DIRECTION('',(-1.,-3.19330894433465E-27,-2.31296463463574E-16));
#1207=DIRECTION('',(2.74807679362663E-14,5.20608754395476E-27,-1.));
#1208=DIRECTION('',(-1.,-3.1933089443348E-27,2.86431085568154E-14));
#1209=DIRECTION('',(2.74807679362663E-14,5.20608754395476E-27,-1.));
#1210=DIRECTION('',(1.,3.1933089443348E-27,-2.86431085568154E-14));
#1211=DIRECTION('',(3.19330894433465E-27,-1.,-5.20608754395467E-27));
#1212=DIRECTION('',(1.,3.19330894433465E-27,1.66246459190996E-53));
#1213=DIRECTION('',(3.19330894433465E-27,-1.,-5.20608754395467E-27));
#1214=DIRECTION('',(0.,5.20608754395467E-27,-1.));
#1215=DIRECTION('',(3.19330894433465E-27,-1.,-5.20608754395467E-27));
#1216=DIRECTION('',(0.,5.20608754395467E-27,-1.));
#1217=DIRECTION('',(3.19330894433465E-27,-1.,-5.20608754395467E-27));
#1218=DIRECTION('',(0.,5.20608754395467E-27,-1.));
#1219=DIRECTION('',(3.19330894433465E-27,-1.,-5.20608754395467E-27));
#1220=DIRECTION('',(0.,5.20608754395467E-27,-1.));
#1221=DIRECTION('',(3.19330894433465E-27,-1.,-5.20608754395467E-27));
#1222=DIRECTION('',(0.,5.20608754395467E-27,-1.));
#1223=DIRECTION('',(-1.,-3.19330894433465E-27,-8.82964207525544E-17));
#1224=DIRECTION('',(1.25953845638306E-57,5.20608754395467E-27,-1.));
#1225=DIRECTION('',(-1.,-3.19330894433465E-27,-2.31296463463574E-16));
#1226=DIRECTION('',(1.25953845637842E-57,5.20608754395467E-27,-1.));
#1227=DIRECTION('',(-1.,-3.19330894433465E-27,-1.05846252734624E-16));
#1228=DIRECTION('',(8.6337705207653E-58,5.20608754395467E-27,-1.));
#1229=DIRECTION('',(-1.,-3.19330894433465E-27,1.07262569284578E-58));
#1230=DIRECTION('',(0.904715499236465,5.10691411172427E-27,-0.426016273681316));
#1231=DIRECTION('',(2.07558597127182E-59,5.20608754395467E-27,-1.));
#1232=DIRECTION('',(-0.995752961343963,-2.70044624633182E-27,-0.0920654113917342));
#1233=DIRECTION('',(3.19330894433465E-27,-1.,-5.20608754395467E-27));
#1234=DIRECTION('',(0.,5.20608754395467E-27,-1.));
#1235=DIRECTION('',(3.19330894433465E-27,-1.,-5.20608754395467E-27));
#1236=DIRECTION('',(0.,5.20608754395467E-27,-1.));
#1237=DIRECTION('',(2.74807679362663E-14,5.20608754395476E-27,-1.));
#1238=DIRECTION('',(1.,3.1933089443348E-27,-2.86431085568154E-14));
#1239=DIRECTION('',(2.74807679362663E-14,5.20608754395476E-27,-1.));
#1240=DIRECTION('',(-1.,-3.1933089443348E-27,2.86431085568154E-14));
#1241=DIRECTION('',(-3.19330894433465E-27,1.,5.20608754395467E-27));
#1242=DIRECTION('',(0.,-5.20608754395467E-27,1.));
#1243=DIRECTION('',(-3.19330894433465E-27,1.,5.20608754395467E-27));
#1244=DIRECTION('',(0.,-5.20608754395467E-27,1.));
#1245=DIRECTION('',(-3.19330894433465E-27,1.,5.20608754395467E-27));
#1246=DIRECTION('',(0.,-5.20608754395467E-27,1.));
#1247=DIRECTION('',(-3.19330894433465E-27,1.,5.20608754395467E-27));
#1248=DIRECTION('',(0.,-5.20608754395467E-27,1.));
#1249=DIRECTION('',(-3.19330894433465E-27,1.,5.20608754395467E-27));
#1250=DIRECTION('',(0.,-5.20608754395467E-27,1.));
#1251=DIRECTION('',(-3.19330894433465E-27,1.,5.20608754395467E-27));
#1252=DIRECTION('',(0.,-5.20608754395467E-27,1.));
#1253=DIRECTION('',(3.19330894433465E-27,-1.,-5.20608754395467E-27));
#1254=DIRECTION('',(0.,5.20608754395467E-27,-1.));
#1255=DIRECTION('',(3.19330894433465E-27,-1.,-5.20608754395467E-27));
#1256=DIRECTION('',(0.,5.20608754395467E-27,-1.));
#1257=DIRECTION('',(1.,3.1933089443345E-27,2.74807679362663E-14));
#1258=DIRECTION('',(2.74807679362663E-14,0.,-1.));
#1259=DIRECTION('',(-3.19330894433465E-27,1.,5.20608754395467E-27));
#1260=DIRECTION('',(-3.19330894433465E-27,1.,5.20608754395467E-27));
#1261=DIRECTION('',(-2.86431085568154E-14,5.20608754395458E-27,-1.));
#1262=DIRECTION('',(-1.,0.,2.86431085568154E-14));
#1263=DIRECTION('',(-3.19330894433465E-27,1.,5.20608754395467E-27));
#1264=DIRECTION('',(1.,3.1933089443345E-27,2.74807679362663E-14));
#1265=DIRECTION('',(2.74807679362663E-14,0.,-1.));
#1266=DIRECTION('',(-3.19330894433465E-27,1.,5.20608754395467E-27));
#1267=DIRECTION('',(1.,3.19330894433465E-27,1.6625905457556E-53));
#1268=DIRECTION('',(3.19330894433465E-27,-1.,0.));
#1269=DIRECTION('',(-3.19330894433465E-27,1.,5.20608754395467E-27));
#1270=DIRECTION('',(1.25953845638306E-57,5.20608754395467E-27,-1.));
#1271=DIRECTION('',(-3.19330894433465E-27,1.,5.20608754395467E-27));
#1272=DIRECTION('',(1.25953845638306E-57,5.20608754395467E-27,-1.));
#1273=DIRECTION('',(8.82964207525544E-17,5.20608754395467E-27,-1.));
#1274=DIRECTION('',(-1.,0.,-8.82964207525544E-17));
#1275=DIRECTION('',(-3.19330894433465E-27,1.,5.20608754395467E-27));
#1276=DIRECTION('',(8.82964207525544E-17,5.20608754395467E-27,-1.));
#1277=DIRECTION('',(-1.,0.,-8.82964207525544E-17));
#1278=DIRECTION('',(8.82964207525544E-17,5.20608754395467E-27,-1.));
#1279=DIRECTION('',(-1.,0.,-8.82964207525544E-17));
#1280=DIRECTION('',(0.0920654113917342,5.47797039056985E-27,-0.995752961343962));
#1281=DIRECTION('',(-0.995752961343963,0.,-0.0920654113917342));
#1282=DIRECTION('',(-3.19330894433465E-27,1.,5.20608754395467E-27));
#1283=DIRECTION('',(1.,3.19330894433465E-27,1.66246666749593E-53));
#1284=DIRECTION('',(3.19330894433465E-27,-1.,0.));
#1285=DIRECTION('',(-3.19330894433465E-27,1.,5.20608754395467E-27));
#1286=DIRECTION('',(0.426016273681316,-3.34962651421903E-27,0.904715499236465));
#1287=DIRECTION('',(0.904715499236465,0.,-0.426016273681316));
#1288=DIRECTION('',(-3.19330894433465E-27,1.,5.20608754395467E-27));
#1289=DIRECTION('',(-1.6624753181669E-53,5.20608754395467E-27,-1.));
#1290=DIRECTION('',(0.,1.,5.20608754395467E-27));
#1291=DIRECTION('',(-3.19330894433465E-27,1.,5.20608754395467E-27));
#1292=DIRECTION('',(1.,3.19330894433465E-27,1.66255092961518E-53));
#1293=DIRECTION('',(3.19330894433465E-27,-1.,0.));
#1294=DIRECTION('',(-3.19330894433465E-27,1.,5.20608754395467E-27));
#1295=DIRECTION('',(8.6337705207653E-58,5.20608754395467E-27,-1.));
#1296=DIRECTION('',(-3.19330894433465E-27,1.,5.20608754395467E-27));
#1297=DIRECTION('',(8.6337705207653E-58,5.20608754395467E-27,-1.));
#1298=DIRECTION('',(1.05846252734624E-16,5.20608754395467E-27,-1.));
#1299=DIRECTION('',(-1.,0.,-1.05846252734624E-16));
#1300=DIRECTION('',(-3.19330894433465E-27,1.,5.20608754395467E-27));
#1301=DIRECTION('',(-1.,-3.19330894433465E-27,-1.05846252734624E-16));
#1302=DIRECTION('',(-3.19330894433465E-27,1.,5.20608754395467E-27));
#1303=DIRECTION('',(-1.,-3.19330894433465E-27,-1.05846252734624E-16));
#1304=DIRECTION('',(1.,3.19330894433465E-27,1.6625905457556E-53));
#1305=DIRECTION('',(3.19330894433465E-27,-1.,0.));
#1306=DIRECTION('',(-3.19330894433465E-27,1.,5.20608754395467E-27));
#1307=DIRECTION('',(1.25953845637842E-57,5.20608754395467E-27,-1.));
#1308=DIRECTION('',(1.25953845637842E-57,5.20608754395467E-27,-1.));
#1309=DIRECTION('',(-3.19330894433465E-27,1.,5.20608754395467E-27));
#1310=DIRECTION('',(0.,-5.20608754395467E-27,1.));
#1311=DIRECTION('',(0.,-1.,0.));
#1312=DIRECTION('',(-1.,0.,0.));
#1313=DIRECTION('',(-3.19330894433465E-27,1.,5.20608754395467E-27));
#1314=DIRECTION('',(0.,-5.20608754395467E-27,1.));
#1315=DIRECTION('',(0.,-1.,0.));
#1316=DIRECTION('',(-1.,0.,0.));
#1317=DIRECTION('',(-3.19330894433465E-27,1.,5.20608754395467E-27));
#1318=DIRECTION('',(0.,-5.20608754395467E-27,1.));
#1319=DIRECTION('',(0.,-1.,0.));
#1320=DIRECTION('',(-1.,0.,0.));
#1321=DIRECTION('',(-3.19330894433465E-27,1.,5.20608754395467E-27));
#1322=DIRECTION('',(0.,-5.20608754395467E-27,1.));
#1323=DIRECTION('',(0.,-1.,0.));
#1324=DIRECTION('',(-1.,0.,0.));
#1325=DIRECTION('',(-3.19330894433465E-27,1.,5.20608754395467E-27));
#1326=DIRECTION('',(0.,-5.20608754395467E-27,1.));
#1327=DIRECTION('',(0.,-1.,0.));
#1328=DIRECTION('',(-1.,0.,0.));
#1329=DIRECTION('',(2.86431085568154E-14,-5.20608754395458E-27,1.));
#1330=DIRECTION('',(1.,0.,-2.86431085568154E-14));
#1331=DIRECTION('',(2.31296463463574E-16,5.20608754395467E-27,-1.));
#1332=DIRECTION('',(-1.,0.,-2.31296463463574E-16));
#1333=DIRECTION('',(-1.,-3.19330894433465E-27,-2.31296463463574E-16));
#1334=DIRECTION('',(-1.,-3.19330894433465E-27,-2.31296463463574E-16));
#1335=DIRECTION('',(-3.19330894433465E-27,1.,5.20608754395467E-27));
#1336=DIRECTION('',(0.,-5.20608754395467E-27,1.));
#1337=DIRECTION('',(0.,-1.,0.));
#1338=DIRECTION('',(-1.,0.,0.));
#1339=DIRECTION('',(-3.19330894433465E-27,1.,5.20608754395467E-27));
#1340=DIRECTION('',(0.,-5.20608754395467E-27,1.));
#1341=DIRECTION('',(0.,-1.,0.));
#1342=DIRECTION('',(-1.,0.,0.));
#1343=DIRECTION('',(-3.19330894433465E-27,1.,5.20608754395467E-27));
#1344=DIRECTION('',(0.,-5.20608754395467E-27,1.));
#1345=DIRECTION('',(0.,-1.,0.));
#1346=DIRECTION('',(-1.,0.,0.));
#1347=DIRECTION('',(-3.19330894433465E-27,1.,5.20608754395467E-27));
#1348=DIRECTION('',(0.,-5.20608754395467E-27,1.));
#1349=DIRECTION('',(0.,-1.,0.));
#1350=DIRECTION('',(-1.,0.,0.));
#1351=DIRECTION('',(-3.19330894433465E-27,1.,5.20608754395467E-27));
#1352=DIRECTION('',(0.,-5.20608754395467E-27,1.));
#1353=DIRECTION('',(0.,-1.,0.));
#1354=DIRECTION('',(-1.,0.,0.));
#1355=DIRECTION('',(3.19330894433465E-27,-1.,-5.20608754395467E-27));
#1356=DIRECTION('',(0.,5.20608754395467E-27,-1.));
#1357=DIRECTION('',(0.,-1.,0.));
#1358=DIRECTION('',(-1.,0.,0.));
#1359=DIRECTION('',(0.,-1.,0.));
#1360=DIRECTION('',(-1.,0.,0.));
#1361=DIRECTION('',(3.19330894433465E-27,-1.,-5.20608754395467E-27));
#1362=DIRECTION('',(0.,5.20608754395467E-27,-1.));
#1363=DIRECTION('',(0.,-1.,0.));
#1364=DIRECTION('',(-1.,0.,0.));
#1365=DIRECTION('',(0.,-1.,0.));
#1366=DIRECTION('',(-1.,0.,0.));
#1367=DIRECTION('',(3.19330894433465E-27,-1.,-5.20608754395467E-27));
#1368=DIRECTION('',(0.,5.20608754395467E-27,-1.));
#1369=DIRECTION('',(0.,-1.,0.));
#1370=DIRECTION('',(-1.,0.,0.));
#1371=DIRECTION('',(3.19330894433465E-27,-1.,-5.20608754395467E-27));
#1372=DIRECTION('',(0.,5.20608754395467E-27,-1.));
#1373=DIRECTION('',(0.,-1.,0.));
#1374=DIRECTION('',(-1.,0.,0.));
#1375=DIRECTION('',(0.,-1.,0.));
#1376=DIRECTION('',(-1.,0.,0.));
#1377=DIRECTION('',(3.19330894433465E-27,-1.,-5.20608754395467E-27));
#1378=DIRECTION('',(0.,5.20608754395467E-27,-1.));
#1379=DIRECTION('',(0.,-1.,0.));
#1380=DIRECTION('',(-1.,0.,0.));
#1381=DIRECTION('',(0.,-1.,0.));
#1382=DIRECTION('',(-1.,0.,0.));
#1383=DIRECTION('',(-1.25953845638306E-57,-5.20608754395467E-27,1.));
#1384=DIRECTION('',(0.,-1.,-5.20608754395467E-27));
#1385=DIRECTION('',(0.707106781186548,-1.42324939681848E-27,0.707106781186548));
#1386=DIRECTION('',(0.707106781186548,5.93927021474385E-27,-0.707106781186548));
#1387=DIRECTION('',(1.,3.19330894433465E-27,2.31296463463574E-16));
#1388=DIRECTION('',(2.31296463463574E-16,0.,-1.));
#1389=DIRECTION('',(0.707106781186548,5.93927021474385E-27,-0.707106781186548));
#1390=DIRECTION('',(0.707106781186548,-1.42324939681848E-27,0.707106781186548));
#1391=DIRECTION('',(1.25953845637842E-57,5.20608754395467E-27,-1.));
#1392=DIRECTION('',(0.,1.,5.20608754395467E-27));
#1393=DIRECTION('',(0.707106781186548,5.93927021474385E-27,-0.707106781186548));
#1394=DIRECTION('',(-0.707106781186548,1.42324939681848E-27,-0.707106781186548));
#1395=DIRECTION('',(1.,3.19330894433465E-27,1.05846252734624E-16));
#1396=DIRECTION('',(1.05846252734624E-16,0.,-1.));
#1397=DIRECTION('',(-1.,0.,0.));
#1398=DIRECTION('',(0.,1.,0.));
#1399=DIRECTION('',(8.6337705207653E-58,5.20608754395467E-27,-1.));
#1400=DIRECTION('',(0.,1.,5.20608754395467E-27));
#1401=DIRECTION('',(-2.25801040896269E-27,0.707106781186548,-0.707106781186548));
#1402=DIRECTION('',(2.25801040896269E-27,-0.707106781186548,-0.707106781186548));
#1403=DIRECTION('',(0.,-2.31296463463575E-15,-1.));
#1404=DIRECTION('',(0.,1.,-2.31296463463575E-15));
#1405=DIRECTION('',(0.,1.,-2.31296463463575E-15));
#1406=DIRECTION('',(0.,2.31296463463575E-15,1.));
#1407=DIRECTION('',(2.89120579329468E-16,1.,0.));
#1408=DIRECTION('',(1.,-2.89120579329468E-16,0.));
#1409=DIRECTION('',(-3.19330894433465E-27,1.,5.20608754395467E-27));
#1410=DIRECTION('',(0.,-5.20608754395467E-27,1.));
#1411=DIRECTION('',(-2.25801040896269E-27,0.707106781186548,0.707106781186548));
#1412=DIRECTION('',(-2.25801040896269E-27,0.707106781186548,-0.707106781186548));
#1413=DIRECTION('',(3.19330894433465E-27,-1.,-5.20608754395467E-27));
#1414=DIRECTION('',(0.,5.20608754395467E-27,-1.));
#1415=DIRECTION('',(0.,-1.,0.));
#1416=DIRECTION('',(-1.,0.,0.));
#1417=DIRECTION('',(-8.6337705207653E-58,-5.20608754395467E-27,1.));
#1418=DIRECTION('',(0.,-1.,-5.20608754395467E-27));
#1419=DIRECTION('',(0.,0.,-1.));
#1420=DIRECTION('',(0.,1.,0.));
#1421=DIRECTION('',(-1.,0.,0.));
#1422=DIRECTION('',(0.,1.,0.));
#1423=DIRECTION('',(-1.,0.,0.));
#1424=DIRECTION('',(0.,1.,0.));
#1425=DIRECTION('',(-1.,-3.19330894433465E-27,-1.05846252734624E-16));
#1426=DIRECTION('',(-1.05846252734624E-16,0.,1.));
#1427=DIRECTION('',(-0.707106781186548,-5.93927021474385E-27,0.707106781186548));
#1428=DIRECTION('',(0.707106781186548,-1.42324939681848E-27,0.707106781186548));
#1429=DIRECTION('',(-1.25953845637842E-57,-5.20608754395467E-27,1.));
#1430=DIRECTION('',(0.,-1.,-5.20608754395467E-27));
#1431=DIRECTION('',(-0.707106781186548,-5.93927021474385E-27,0.707106781186548));
#1432=DIRECTION('',(0.707106781186548,-1.42324939681848E-27,0.707106781186548));
#1433=DIRECTION('',(-1.,-3.19330894433465E-27,-2.31296463463574E-16));
#1434=DIRECTION('',(-2.31296463463574E-16,0.,1.));
#1435=DIRECTION('',(-0.707106781186548,1.42324939681848E-27,-0.707106781186548));
#1436=DIRECTION('',(-0.707106781186548,-5.93927021474385E-27,0.707106781186548));
#1437=DIRECTION('',(1.25953845638306E-57,5.20608754395467E-27,-1.));
#1438=DIRECTION('',(0.,1.,5.20608754395467E-27));
#1439=DIRECTION('',(0.,-1.,0.));
#1440=DIRECTION('',(-1.,0.,0.));
#1441=DIRECTION('',(0.,-1.,0.));
#1442=DIRECTION('',(-1.,0.,0.));
#1443=DIRECTION('',(0.,-1.,0.));
#1444=DIRECTION('',(-1.,0.,0.));
#1445=DIRECTION('',(0.,-1.,0.));
#1446=DIRECTION('',(-1.,0.,0.));
#1447=DIRECTION('',(0.,1.,0.));
#1448=DIRECTION('',(1.,0.,0.));
#1449=DIRECTION('',(0.,1.,0.));
#1450=DIRECTION('',(1.,0.,0.));
#1451=DIRECTION('',(0.,1.,0.));
#1452=DIRECTION('',(1.,0.,0.));
#1453=DIRECTION('',(0.,1.,0.));
#1454=DIRECTION('',(1.,0.,0.));
#1455=DIRECTION('',(0.,1.,0.));
#1456=DIRECTION('',(1.,0.,0.));
#1457=DIRECTION('',(0.,-1.,0.));
#1458=DIRECTION('',(-1.,0.,0.));
#1459=DIRECTION('',(0.,-1.,0.));
#1460=DIRECTION('',(-1.,0.,0.));
#1461=DIRECTION('',(0.,-1.,0.));
#1462=DIRECTION('',(-1.,0.,0.));
#1463=DIRECTION('',(0.,-1.,0.));
#1464=DIRECTION('',(-1.,0.,0.));
#1465=DIRECTION('',(0.,-1.,0.));
#1466=DIRECTION('',(-1.,0.,0.));
#1467=DIRECTION('',(0.,-1.,0.));
#1468=DIRECTION('',(-1.,0.,0.));
#1469=DIRECTION('',(0.,-1.,0.));
#1470=DIRECTION('',(-1.,0.,0.));
#1471=DIRECTION('',(0.,-1.,0.));
#1472=DIRECTION('',(-1.,0.,0.));
#1473=DIRECTION('',(0.,-1.,0.));
#1474=DIRECTION('',(-1.,0.,0.));
#1475=DIRECTION('',(0.,-1.,0.));
#1476=DIRECTION('',(-1.,0.,0.));
#1477=CARTESIAN_POINT('',(0.,0.,0.));
#1478=CARTESIAN_POINT('',(-0.148635266244688,-0.015,0.0199953806971329));
#1479=CARTESIAN_POINT('',(-0.225169852924038,-0.015,-0.0492159376679616));
#1480=CARTESIAN_POINT('',(-0.225169852924038,-0.015,-0.0519659376679616));
#1481=CARTESIAN_POINT('',(-0.256282551288605,-0.015,-0.0492159376679616));
#1482=CARTESIAN_POINT('',(-0.256282551288605,-0.015,-0.0519659376679616));
#1483=CARTESIAN_POINT('',(-0.256282551288604,-0.015,-0.0181032393033951));
#1484=CARTESIAN_POINT('',(-0.256282551288604,-0.015,-0.0208532393033951));
#1485=CARTESIAN_POINT('',(-0.225169852924038,-0.015,-0.0181032393033951));
#1486=CARTESIAN_POINT('',(-0.225169852924038,-0.015,-0.0208532393033951));
#1487=CARTESIAN_POINT('',(-0.218292712841849,-0.015,0.0651953806971376));
#1488=CARTESIAN_POINT('',(-0.218292712841849,-0.015,0.0624453806971376));
#1489=CARTESIAN_POINT('',(-0.258692712841894,-0.015,0.0651953806971376));
#1490=CARTESIAN_POINT('',(-0.258692712841894,-0.015,0.0624453806971376));
#1491=CARTESIAN_POINT('',(-0.218292712841849,-0.015,-0.00520461930286237));
#1492=CARTESIAN_POINT('',(-0.218292712841849,-0.015,-0.00795461930286237));
#1493=CARTESIAN_POINT('',(-0.258692712841894,-0.015,-0.00520461930286237));
#1494=CARTESIAN_POINT('',(-0.258692712841894,-0.015,-0.00795461930286237));
#1495=CARTESIAN_POINT('',(-0.0921398466825487,-0.015,0.0199953806971329));
#1496=CARTESIAN_POINT('',(-0.0921398466825487,-0.015,0.0172453806971329));
#1497=CARTESIAN_POINT('',(-0.117139846682549,-0.015,-0.0150046193028672));
#1498=CARTESIAN_POINT('',(-0.117139846682549,-0.015,-0.0177546193028672));
#1499=CARTESIAN_POINT('',(-0.0921398466825487,-0.015,-0.0150046193028672));
#1500=CARTESIAN_POINT('',(-0.0921398466825487,-0.015,-0.0177546193028672));
#1501=CARTESIAN_POINT('',(-0.117139846682549,-0.015,0.0199953806971329));
#1502=CARTESIAN_POINT('',(-0.117139846682549,-0.015,0.0172453806971329));
#1503=CARTESIAN_POINT('',(-0.0921398466825487,-0.015,0.0549953806971328));
#1504=CARTESIAN_POINT('',(-0.0921398466825487,-0.015,0.0522453806971328));
#1505=CARTESIAN_POINT('',(-0.117139846682549,-0.015,0.0549953806971328));
#1506=CARTESIAN_POINT('',(-0.117139846682549,-0.015,0.0522453806971328));
#1507=CARTESIAN_POINT('',(-0.240726202106322,-0.015,-0.0336595884856783));
#1508=CARTESIAN_POINT('',(-0.240726202106322,-0.015,-0.0517595884856783));
#1509=CARTESIAN_POINT('',(-0.213726202106322,-0.015,0.0199953806971329));
#1510=CARTESIAN_POINT('',(-0.213726202106322,-0.015,-0.0570046193028672));
#1511=CARTESIAN_POINT('',(-0.213726202106322,-0.015,-0.0400046193028672));
#1512=CARTESIAN_POINT('',(-0.171433024394435,-0.015,-0.0400046193028672));
#1513=CARTESIAN_POINT('',(-0.132139846682549,-0.015,-0.0400046193028672));
#1514=CARTESIAN_POINT('',(-0.0709017873741687,-0.015,-0.0343426656437508));
#1515=CARTESIAN_POINT('',(-0.0771398466825487,-0.015,-0.0349194246580919));
#1516=CARTESIAN_POINT('',(-0.0771398466825487,-0.015,0.0195886613159563));
#1517=CARTESIAN_POINT('',(-0.0771398466825487,-0.015,0.0740967472900044));
#1518=CARTESIAN_POINT('',(-0.0709017873741687,-0.015,0.0711593434500107));
#1519=CARTESIAN_POINT('',(-0.132139846682549,-0.015,0.0999953806971328));
#1520=CARTESIAN_POINT('',(-0.234211198985577,-0.015,0.0999953806971328));
#1521=CARTESIAN_POINT('',(-0.333282551288604,-0.015,0.0999953806971328));
#1522=CARTESIAN_POINT('',(-0.333282551288604,-0.015,-0.0400046193028672));
#1523=CARTESIAN_POINT('',(-0.333282551288604,-0.015,-0.0370046193028672));
#1524=CARTESIAN_POINT('',(-0.148635266244688,-0.015,-0.0370046193028672));
#1525=CARTESIAN_POINT('',(-0.267726202106322,-0.015,-0.0370046193028672));
#1526=CARTESIAN_POINT('',(-0.267726202106322,-0.015,-0.0600046193028672));
#1527=CARTESIAN_POINT('',(-0.267726202106322,-0.015,-0.0570046193028672));
#1528=CARTESIAN_POINT('',(-0.148635266244688,-0.015,-0.0570046193028671));
#1529=CARTESIAN_POINT('',(-0.298692712841895,-0.015,0.0299953806971376));
#1530=CARTESIAN_POINT('',(-0.298692712841896,-0.015,0.0501953806971376));
#1531=CARTESIAN_POINT('',(-0.298692712841895,-0.015,0.00979538069713762));
#1532=CARTESIAN_POINT('',(-0.238492712841872,-0.015,0.0501953806971359));
#1533=CARTESIAN_POINT('',(-0.17829271284185,-0.015,0.0501953806971341));
#1534=CARTESIAN_POINT('',(-0.178292712841849,-0.015,0.0299953806971342));
#1535=CARTESIAN_POINT('',(-0.178292712841848,-0.015,0.00979538069713418));
#1536=CARTESIAN_POINT('',(-0.238492712841871,-0.015,0.0097953806971359));
#1537=CARTESIAN_POINT('',(-0.148635266244688,6.76542155625537E-17,0.0199953806971329));
#1538=CARTESIAN_POINT('',(-0.240726202106322,6.76542155625389E-17,-0.0336595884856783));
#1539=CARTESIAN_POINT('',(-0.240726202106322,6.76542155626336E-17,-0.0518595884856783));
#1540=CARTESIAN_POINT('',(-0.225169852924038,6.76542155626696E-17,-0.0492159376679616));
#1541=CARTESIAN_POINT('',(-0.225169852924038,6.76542155626839E-17,-0.0519659376679616));
#1542=CARTESIAN_POINT('',(-0.256282551288605,6.76542155625702E-17,-0.0492159376679616));
#1543=CARTESIAN_POINT('',(-0.256282551288605,6.76542155625845E-17,-0.0519659376679616));
#1544=CARTESIAN_POINT('',(-0.256282551288604,6.76542155624083E-17,-0.0181032393033951));
#1545=CARTESIAN_POINT('',(-0.256282551288604,6.76542155624226E-17,-0.0208532393033951));
#1546=CARTESIAN_POINT('',(-0.225169852924038,6.76542155625076E-17,-0.0181032393033951));
#1547=CARTESIAN_POINT('',(-0.225169852924038,6.76542155625219E-17,-0.0208532393033951));
#1548=CARTESIAN_POINT('',(-0.171433024394435,6.76542155627932E-17,-0.0400046193028672));
#1549=CARTESIAN_POINT('',(-0.132139846682549,6.76542155629187E-17,-0.0400046193028672));
#1550=CARTESIAN_POINT('',(-0.213726202106322,6.76542155626582E-17,-0.0400046193028672));
#1551=CARTESIAN_POINT('',(-0.213726202106322,6.76542155627623E-17,-0.0600046193028672));
#1552=CARTESIAN_POINT('',(-0.213726202106322,6.76542155627467E-17,-0.0570046193028671));
#1553=CARTESIAN_POINT('',(-0.270726202106322,6.76542155625647E-17,-0.0570046193028672));
#1554=CARTESIAN_POINT('',(-0.267726202106322,6.76542155625742E-17,-0.0570046193028672));
#1555=CARTESIAN_POINT('',(-0.267726202106322,6.76542155621734E-17,0.0199953806971329));
#1556=CARTESIAN_POINT('',(-0.267726202106322,6.76542155624701E-17,-0.0370046193028672));
#1557=CARTESIAN_POINT('',(-0.336282551288604,6.76542155622512E-17,-0.0370046193028672));
#1558=CARTESIAN_POINT('',(-0.333282551288604,6.76542155622608E-17,-0.0370046193028672));
#1559=CARTESIAN_POINT('',(-0.333282551288604,6.7654215561964E-17,0.0199953806971329));
#1560=CARTESIAN_POINT('',(-0.333282551288604,6.76542155615475E-17,0.0999953806971328));
#1561=CARTESIAN_POINT('',(-0.234211198985577,6.76542155618639E-17,0.0999953806971328));
#1562=CARTESIAN_POINT('',(-0.132139846682549,6.76542155621898E-17,0.0999953806971328));
#1563=CARTESIAN_POINT('',(-0.0709017873741687,6.76542155625355E-17,0.0711593434500107));
#1564=CARTESIAN_POINT('',(-0.0771398466825487,6.76542155625003E-17,0.0740967472900044));
#1565=CARTESIAN_POINT('',(-0.0771398466825487,6.76542155627841E-17,0.0195886613159563));
#1566=CARTESIAN_POINT('',(-0.0771398466825487,6.76542155630679E-17,-0.0349194246580919));
#1567=CARTESIAN_POINT('',(-0.0709017873741687,6.76542155630848E-17,-0.0343426656437508));
#1568=CARTESIAN_POINT('',(-0.258692712841894,6.59194920871187E-17,-0.00520461930286237));
#1569=CARTESIAN_POINT('',(-0.258692712841894,6.59194920871325E-17,-0.00785461930286237));
#1570=CARTESIAN_POINT('',(-0.258692712841894,6.59194920871187E-17,0.0651953806971376));
#1571=CARTESIAN_POINT('',(-0.258692712841894,6.59194920871325E-17,0.0625453806971376));
#1572=CARTESIAN_POINT('',(-0.298692712841895,6.76542155620224E-17,0.0299953806971376));
#1573=CARTESIAN_POINT('',(-0.298692712841896,6.76542155619173E-17,0.0501953806971376));
#1574=CARTESIAN_POINT('',(-0.298692712841895,6.76542155621276E-17,0.00979538069713762));
#1575=CARTESIAN_POINT('',(-0.238492712841871,6.76542155623198E-17,0.0097953806971359));
#1576=CARTESIAN_POINT('',(-0.178292712841848,6.76542155625121E-17,0.00979538069713418));
#1577=CARTESIAN_POINT('',(-0.178292712841849,6.76542155624069E-17,0.0299953806971342));
#1578=CARTESIAN_POINT('',(-0.17829271284185,6.76542155623017E-17,0.0501953806971341));
#1579=CARTESIAN_POINT('',(-0.238492712841872,6.76542155621095E-17,0.0501953806971359));
#1580=CARTESIAN_POINT('',(-0.0921398466825487,5.55111512312578E-17,-0.0150046193028672));
#1581=CARTESIAN_POINT('',(-0.0921398466825487,5.5511151231244E-17,-0.0123546193028672));
#1582=CARTESIAN_POINT('',(-0.117139846682549,5.55111512312578E-17,0.0549953806971328));
#1583=CARTESIAN_POINT('',(-0.117139846682549,5.5511151231244E-17,0.0576453806971328));
#1584=CARTESIAN_POINT('',(-0.117139846682549,5.55111512312578E-17,0.0199953806971329));
#1585=CARTESIAN_POINT('',(-0.117139846682549,5.5511151231244E-17,0.0226453806971329));
#1586=CARTESIAN_POINT('',(-0.0921398466825487,5.55111512312578E-17,0.0549953806971328));
#1587=CARTESIAN_POINT('',(-0.0921398466825487,5.5511151231244E-17,0.0576453806971328));
#1588=CARTESIAN_POINT('',(-0.0921398466825487,5.55111512312578E-17,0.0199953806971329));
#1589=CARTESIAN_POINT('',(-0.0921398466825487,5.5511151231244E-17,0.0226453806971329));
#1590=CARTESIAN_POINT('',(-0.117139846682549,5.55111512312578E-17,-0.0150046193028672));
#1591=CARTESIAN_POINT('',(-0.117139846682549,5.5511151231244E-17,-0.0123546193028672));
#1592=CARTESIAN_POINT('',(-0.218292712841849,6.59194920871187E-17,-0.00520461930286237));
#1593=CARTESIAN_POINT('',(-0.218292712841849,6.59194920871325E-17,-0.00785461930286237));
#1594=CARTESIAN_POINT('',(-0.218292712841849,6.59194920871187E-17,0.0651953806971376));
#1595=CARTESIAN_POINT('',(-0.218292712841849,6.59194920871325E-17,0.0625453806971376));
#1596=CARTESIAN_POINT('',(-0.298692712841895,-0.015,0.0299953806971376));
#1597=CARTESIAN_POINT('',(-0.298692712841896,-0.015,0.0501953806971376));
#1598=CARTESIAN_POINT('',(-0.298692712841895,-0.015,0.00979538069713762));
#1599=CARTESIAN_POINT('',(-0.238492712841872,-0.015,0.0501953806971359));
#1600=CARTESIAN_POINT('',(-0.17829271284185,-0.015,0.0501953806971341));
#1601=CARTESIAN_POINT('',(-0.178292712841849,-0.015,0.0299953806971342));
#1602=CARTESIAN_POINT('',(-0.178292712841848,-0.015,0.00979538069713418));
#1603=CARTESIAN_POINT('',(-0.210726202106322,-0.015,-0.0500046193028672));
#1604=CARTESIAN_POINT('',(-0.210726202106322,-0.015,-0.0400046193028672));
#1605=CARTESIAN_POINT('',(-0.210726202106322,-0.012,-0.0400046193028672));
#1606=CARTESIAN_POINT('',(-0.210726202106322,-0.00299999999999993,-0.0400046193028672));
#1607=CARTESIAN_POINT('',(-0.210726202106322,-0.012,-0.0500046193028672));
#1608=CARTESIAN_POINT('',(-0.210726202106322,-0.012,-0.0600046193028672));
#1609=CARTESIAN_POINT('',(-0.210726202106322,-0.015,-0.0600046193028672));
#1610=CARTESIAN_POINT('',(-0.210726202106322,-0.00299999999999993,-0.0600046193028672));
#1611=CARTESIAN_POINT('',(-0.210726202106322,-0.00299999999999994,-0.0400046193028672));
#1612=CARTESIAN_POINT('',(-0.171433024394435,-0.015,-0.0400046193028672));
#1613=CARTESIAN_POINT('',(-0.132139846682549,-0.015,-0.0400046193028672));
#1614=CARTESIAN_POINT('',(-0.213726202106322,-0.012,-0.0400046193028672));
#1615=CARTESIAN_POINT('',(-0.213726202106322,-0.00299999999999994,-0.0400046193028672));
#1616=CARTESIAN_POINT('',(-0.0709017873741687,-0.015,-0.0343426656437508));
#1617=CARTESIAN_POINT('',(-0.0771398466825487,-0.015,-0.0349194246580919));
#1618=CARTESIAN_POINT('',(-0.0771398466825487,-0.015,0.0195886613159563));
#1619=CARTESIAN_POINT('',(-0.0771398466825487,-0.015,0.0740967472900044));
#1620=CARTESIAN_POINT('',(-0.0709017873741687,-0.015,0.0711593434500107));
#1621=CARTESIAN_POINT('',(-0.132139846682549,-0.015,0.0999953806971328));
#1622=CARTESIAN_POINT('',(-0.234211198985577,-0.015,0.0999953806971328));
#1623=CARTESIAN_POINT('',(-0.333282551288604,-0.015,0.0999953806971328));
#1624=CARTESIAN_POINT('',(-0.336282551288604,-0.015,0.083849162632367));
#1625=CARTESIAN_POINT('',(-0.336282551288604,-0.015,-0.0370046193028672));
#1626=CARTESIAN_POINT('',(-0.336282551288604,-0.00299999999999993,-0.0370046193028672));
#1627=CARTESIAN_POINT('',(-0.336282551288604,-0.012,-0.0370046193028672));
#1628=CARTESIAN_POINT('',(-0.336282551288604,-0.012,0.0999953806971328));
#1629=CARTESIAN_POINT('',(-0.336282551288604,-0.012,0.0969953806971328));
#1630=CARTESIAN_POINT('',(-0.336282551288604,-0.015,0.0969953806971328));
#1631=CARTESIAN_POINT('',(-0.336282551288604,-0.00299999999999993,0.0969953806971328));
#1632=CARTESIAN_POINT('',(-0.336282551288604,-0.00299999999999993,0.083849162632367));
#1633=CARTESIAN_POINT('',(-0.303504376697463,-0.015,-0.0400046193028672));
#1634=CARTESIAN_POINT('',(-0.270726202106322,-0.015,-0.0400046193028672));
#1635=CARTESIAN_POINT('',(-0.270726202106322,-0.012,-0.0400046193028672));
#1636=CARTESIAN_POINT('',(-0.270726202106322,-0.00299999999999993,-0.0400046193028672));
#1637=CARTESIAN_POINT('',(-0.303504376697463,-0.012,-0.0400046193028672));
#1638=CARTESIAN_POINT('',(-0.333282551288604,-0.012,-0.0400046193028672));
#1639=CARTESIAN_POINT('',(-0.333282551288604,6.76542155631111E-17,-0.0400046193028672));
#1640=CARTESIAN_POINT('',(-0.333282551288604,-0.00299999999999994,-0.0400046193028672));
#1641=CARTESIAN_POINT('',(-0.270726202106322,-0.00299999999999994,-0.0400046193028672));
#1642=CARTESIAN_POINT('',(-0.270726202106322,-0.015,-0.0500046193028672));
#1643=CARTESIAN_POINT('',(-0.270726202106322,-0.015,-0.0600046193028672));
#1644=CARTESIAN_POINT('',(-0.270726202106322,-0.012,-0.0600046193028672));
#1645=CARTESIAN_POINT('',(-0.270726202106322,-0.00299999999999993,-0.0600046193028672));
#1646=CARTESIAN_POINT('',(-0.270726202106322,-0.012,-0.0400046193028672));
#1647=CARTESIAN_POINT('',(-0.270726202106322,-0.00299999999999993,-0.0500046193028672));
#1648=CARTESIAN_POINT('',(-0.0921398466825487,-0.015,0.0199953806971329));
#1649=CARTESIAN_POINT('',(-0.0921398466825487,-0.0149,0.0199953806971329));
#1650=CARTESIAN_POINT('',(-0.0947898466825487,-0.0149,0.0199953806971329));
#1651=CARTESIAN_POINT('',(-0.0921398466825487,-0.015,0.0549953806971328));
#1652=CARTESIAN_POINT('',(-0.0921398466825487,-0.0149,0.0549953806971328));
#1653=CARTESIAN_POINT('',(-0.0947898466825487,-0.0149,0.0549953806971328));
#1654=CARTESIAN_POINT('',(-0.117139846682549,-0.015,0.0199953806971329));
#1655=CARTESIAN_POINT('',(-0.117139846682549,-0.0149,0.0199953806971329));
#1656=CARTESIAN_POINT('',(-0.119789846682549,-0.0149,0.0199953806971329));
#1657=CARTESIAN_POINT('',(-0.117139846682549,-0.015,0.0549953806971328));
#1658=CARTESIAN_POINT('',(-0.117139846682549,-0.0149,0.0549953806971328));
#1659=CARTESIAN_POINT('',(-0.119789846682549,-0.0149,0.0549953806971328));
#1660=CARTESIAN_POINT('',(-0.0921398466825487,-0.015,-0.0150046193028672));
#1661=CARTESIAN_POINT('',(-0.0921398466825487,-0.0149,-0.0150046193028672));
#1662=CARTESIAN_POINT('',(-0.0947898466825487,-0.0149,-0.0150046193028672));
#1663=CARTESIAN_POINT('',(-0.238492712841871,-0.015,0.0097953806971359));
#1664=CARTESIAN_POINT('',(-0.240726202106322,-0.015,-0.0600046193028672));
#1665=CARTESIAN_POINT('',(-0.240726202106322,-0.012,-0.0600046193028672));
#1666=CARTESIAN_POINT('',(-0.210726202106322,-0.00299999999999994,-0.0600046193028672));
#1667=CARTESIAN_POINT('',(-0.117139846682549,-0.015,-0.0150046193028672));
#1668=CARTESIAN_POINT('',(-0.117139846682549,-0.0149,-0.0150046193028672));
#1669=CARTESIAN_POINT('',(-0.119789846682549,-0.0149,-0.0150046193028672));
#1670=CARTESIAN_POINT('',(-0.258692712841894,-0.02,0.0651953806971376));
#1671=CARTESIAN_POINT('',(-0.258692712841894,-0.0149,0.0651953806971376));
#1672=CARTESIAN_POINT('',(-0.261342712841894,-0.0149,0.0651953806971376));
#1673=CARTESIAN_POINT('',(-0.218292712841849,-0.02,-0.00520461930286237));
#1674=CARTESIAN_POINT('',(-0.218292712841849,-0.0149,-0.00520461930286237));
#1675=CARTESIAN_POINT('',(-0.220942712841849,-0.0149,-0.00520461930286237));
#1676=CARTESIAN_POINT('',(-0.258692712841894,-0.02,-0.00520461930286237));
#1677=CARTESIAN_POINT('',(-0.258692712841894,-0.0149,-0.00520461930286237));
#1678=CARTESIAN_POINT('',(-0.261342712841894,-0.0149,-0.00520461930286237));
#1679=CARTESIAN_POINT('',(-0.218292712841849,-0.02,0.0651953806971376));
#1680=CARTESIAN_POINT('',(-0.218292712841849,-0.0149,0.0651953806971376));
#1681=CARTESIAN_POINT('',(-0.220942712841849,-0.0149,0.0651953806971376));
#1682=CARTESIAN_POINT('',(-0.225169852924038,0.01,-0.0181032393033951));
#1683=CARTESIAN_POINT('',(-0.225169852924038,-0.0149,-0.0181032393033951));
#1684=CARTESIAN_POINT('',(-0.227819852924038,-0.0149,-0.0181032393033951));
#1685=CARTESIAN_POINT('',(-0.225169852924038,-9.99999999999317E-5,-0.0181032393033951));
#1686=CARTESIAN_POINT('',(-0.227819852924038,-9.99999999999317E-5,-0.0181032393033951));
#1687=CARTESIAN_POINT('',(-0.225169852924038,0.01,-0.0492159376679616));
#1688=CARTESIAN_POINT('',(-0.225169852924038,-0.0149,-0.0492159376679616));
#1689=CARTESIAN_POINT('',(-0.227819852924038,-0.0149,-0.0492159376679616));
#1690=CARTESIAN_POINT('',(-0.225169852924038,-9.99999999999352E-5,-0.0492159376679616));
#1691=CARTESIAN_POINT('',(-0.227819852924038,-9.99999999999352E-5,-0.0492159376679616));
#1692=CARTESIAN_POINT('',(-0.240726202106322,0.01,-0.0336595884856783));
#1693=CARTESIAN_POINT('',(-0.240726202106322,-9.999999999993E-5,-0.0336595884856783));
#1694=CARTESIAN_POINT('',(-0.258826202106322,-9.999999999993E-5,-0.0336595884856783));
#1695=CARTESIAN_POINT('',(-0.256282551288605,0.01,-0.0492159376679616));
#1696=CARTESIAN_POINT('',(-0.256282551288605,-0.0149,-0.0492159376679616));
#1697=CARTESIAN_POINT('',(-0.258932551288605,-0.0149,-0.0492159376679616));
#1698=CARTESIAN_POINT('',(-0.256282551288605,-9.99999999999352E-5,-0.0492159376679616));
#1699=CARTESIAN_POINT('',(-0.258932551288605,-9.99999999999352E-5,-0.0492159376679616));
#1700=CARTESIAN_POINT('',(-0.256282551288604,0.01,-0.0181032393033951));
#1701=CARTESIAN_POINT('',(-0.256282551288604,-0.0149,-0.0181032393033951));
#1702=CARTESIAN_POINT('',(-0.258932551288604,-0.0149,-0.0181032393033951));
#1703=CARTESIAN_POINT('',(-0.256282551288604,-9.99999999999317E-5,-0.0181032393033951));
#1704=CARTESIAN_POINT('',(-0.258932551288604,-9.99999999999317E-5,-0.0181032393033951));
#1705=CARTESIAN_POINT('',(-0.213726202106322,-0.00299999999999994,0.0199953806971329));
#1706=CARTESIAN_POINT('',(-0.213726202106322,-0.00299999999999994,-0.0570046193028671));
#1707=CARTESIAN_POINT('',(-0.148635266244688,-0.00299999999999994,-0.0570046193028671));
#1708=CARTESIAN_POINT('',(-0.267726202106322,-0.00299999999999993,-0.0570046193028672));
#1709=CARTESIAN_POINT('',(-0.267726202106322,-0.00299999999999993,-0.0500046193028672));
#1710=CARTESIAN_POINT('',(-0.267726202106322,-0.00299999999999993,-0.0370046193028672));
#1711=CARTESIAN_POINT('',(-0.148635266244688,-0.00299999999999994,-0.0370046193028672));
#1712=CARTESIAN_POINT('',(-0.333282551288604,-0.00299999999999994,-0.0370046193028672));
#1713=CARTESIAN_POINT('',(-0.333282551288604,-0.00299999999999993,0.083849162632367));
#1714=CARTESIAN_POINT('',(-0.333282551288604,-0.00299999999999993,0.0969953806971328));
#1715=CARTESIAN_POINT('',(-0.333282551288604,-0.00299999999999993,-0.0370046193028672));
#1716=CARTESIAN_POINT('',(-0.333282551288604,-0.00299999999999994,-0.0370046193028672));
#1717=CARTESIAN_POINT('',(-0.333282551288604,-0.00299999999999994,-0.0370046193028672));
#1718=CARTESIAN_POINT('',(-0.333282551288604,-0.015,0.0969953806971328));
#1719=CARTESIAN_POINT('',(-0.333282551288604,-0.012,0.0969953806971328));
#1720=CARTESIAN_POINT('',(-0.333282551288604,-0.015,-0.0370046193028672));
#1721=CARTESIAN_POINT('',(-0.333282551288604,-0.012,-0.0370046193028672));
#1722=CARTESIAN_POINT('',(-0.333282551288604,-0.012,0.0199953806971329));
#1723=CARTESIAN_POINT('',(-0.333282551288604,-0.012,-0.0370046193028672));
#1724=CARTESIAN_POINT('',(-0.333282551288604,-0.012,-0.0370046193028672));
#1725=CARTESIAN_POINT('',(-0.333282551288604,-0.012,-0.0370046193028672));
#1726=CARTESIAN_POINT('',(-0.303504376697463,-0.012,-0.0370046193028672));
#1727=CARTESIAN_POINT('',(-0.267726202106322,-0.012,-0.0370046193028672));
#1728=CARTESIAN_POINT('',(-0.267726202106322,-0.012,0.0199953806971329));
#1729=CARTESIAN_POINT('',(-0.267726202106322,-0.012,-0.0570046193028672));
#1730=CARTESIAN_POINT('',(-0.240726202106322,-0.012,-0.0570046193028672));
#1731=CARTESIAN_POINT('',(-0.213726202106322,-0.012,-0.0570046193028672));
#1732=CARTESIAN_POINT('',(-0.213726202106322,-0.012,-0.0500046193028672));
#1733=CARTESIAN_POINT('',(-0.225169852924038,-0.0149,-0.0492159376679616));
#1734=CARTESIAN_POINT('',(-0.256282551288605,-0.0149,-0.0492159376679616));
#1735=CARTESIAN_POINT('',(-0.256282551288604,-0.0149,-0.0181032393033951));
#1736=CARTESIAN_POINT('',(-0.225169852924038,-0.0149,-0.0181032393033951));
#1737=CARTESIAN_POINT('',(-0.240726202106322,6.76542155630955E-17,-0.0336595884856783));
#1738=CARTESIAN_POINT('',(-0.225169852924038,6.76542155630955E-17,-0.0492159376679616));
#1739=CARTESIAN_POINT('',(-0.256282551288605,6.76542155630955E-17,-0.0492159376679616));
#1740=CARTESIAN_POINT('',(-0.256282551288604,6.76542155630955E-17,-0.0181032393033951));
#1741=CARTESIAN_POINT('',(-0.225169852924038,6.76542155630955E-17,-0.0181032393033951));
#1742=CARTESIAN_POINT('',(-0.218292712841849,-0.015,0.0651953806971376));
#1743=CARTESIAN_POINT('',(-0.258692712841894,-0.0149,0.0651953806971376));
#1744=CARTESIAN_POINT('',(-0.218292712841849,-0.015,-0.00520461930286237));
#1745=CARTESIAN_POINT('',(-0.258692712841894,-0.0149,-0.00520461930286237));
#1746=CARTESIAN_POINT('',(-0.0921398466825487,-0.015,0.0199953806971329));
#1747=CARTESIAN_POINT('',(-0.117139846682549,-0.015,-0.0150046193028672));
#1748=CARTESIAN_POINT('',(-0.0921398466825487,-0.015,-0.0150046193028672));
#1749=CARTESIAN_POINT('',(-0.117139846682549,-0.015,0.0199953806971329));
#1750=CARTESIAN_POINT('',(-0.0921398466825487,-0.015,0.0549953806971328));
#1751=CARTESIAN_POINT('',(-0.117139846682549,-0.015,0.0549953806971328));
#1752=MECHANICAL_DESIGN_GEOMETRIC_PRESENTATION_REPRESENTATION('',(#1022),
#1753);
#1753=(
GEOMETRIC_REPRESENTATION_CONTEXT(3)
GLOBAL_UNCERTAINTY_ASSIGNED_CONTEXT((#1754))
GLOBAL_UNIT_ASSIGNED_CONTEXT((#1757,#1756,#1755))
REPRESENTATION_CONTEXT('GantryUpper-Left','TOP_LEVEL_ASSEMBLY_PART')
);
#1754=UNCERTAINTY_MEASURE_WITH_UNIT(LENGTH_MEASURE(1.E-8),#1757,
'DISTANCE_ACCURACY_VALUE','Maximum Tolerance applied to model');
#1755=(
NAMED_UNIT(*)
SI_UNIT($,.STERADIAN.)
SOLID_ANGLE_UNIT()
);
#1756=(
NAMED_UNIT(*)
PLANE_ANGLE_UNIT()
SI_UNIT($,.RADIAN.)
);
#1757=(
LENGTH_UNIT()
NAMED_UNIT(*)
SI_UNIT($,.METRE.)
);
#1758=PRODUCT_DEFINITION_SHAPE('','',#1759);
#1759=PRODUCT_DEFINITION('','',#1761,#1760);
#1760=PRODUCT_DEFINITION_CONTEXT('',#1767,'design');
#1761=PRODUCT_DEFINITION_FORMATION_WITH_SPECIFIED_SOURCE('','',#1763,
 .NOT_KNOWN.);
#1762=PRODUCT_RELATED_PRODUCT_CATEGORY('','',(#1763));
#1763=PRODUCT('GantryUpper-Left','GantryUpper-Left','GantryUpper-Left',
(#1765));
#1764=PRODUCT_CATEGORY('','');
#1765=PRODUCT_CONTEXT('',#1767,'mechanical');
#1766=APPLICATION_PROTOCOL_DEFINITION('international standard',
'ap242_managed_model_based_3d_engineering',2020,#1767);
#1767=APPLICATION_CONTEXT('managed model based 3d engineering');
ENDSEC;
END-ISO-10303-21;
