ISO-10303-21;
HEADER;
/* Generated by software containing ST-Developer
 * from STEP Tools, Inc. (www.steptools.com) 
 */
/* OPTION: using custom renumber hook */

FILE_DESCRIPTION(
/* description */ ('STEP AP242 Edition 2',
'CAx-IF Rec.Pracs.---Representation and Presentation of Product Manufa
cturing Information (PMI)---4.0---2014-10-13',
'CAx-IF Rec.Pracs.---3D Tessellated Geometry---0.4---2014-09-14','2;1',
'CAx-IF Rec.Pracs.---User Defined Attributes---1.5---2016-08-15'),
/* implementation_level */ '2;1');

FILE_NAME(
/* name */ 'Router - ElectricalBox',
/* time_stamp */ '2026-08-15T23:20:14Z',
/* author */ (''),
/* organization */ (''),
/* preprocessor_version */ 'ST-DEVELOPER v20',
/* originating_system */ 'ONSHAPE BY PTC INC, 1.219',
/* authorisation */ '  ');

FILE_SCHEMA (('AP242_MANAGED_MODEL_BASED_3D_ENGINEERING_MIM_LF { 1 0 10303 442 3 1 4 }'));
ENDSEC;

DATA;
#10=SHAPE_REPRESENTATION_RELATIONSHIP('','',#877,#11);
#11=ADVANCED_BREP_SHAPE_REPRESENTATION('',(#875),#1441);
#12=ELLIPSE('',#942,0.00424264068711928,0.003);
#13=ELLIPSE('',#943,0.00424264068711928,0.003);
#14=ELLIPSE('',#945,0.00424264068711928,0.003);
#15=ELLIPSE('',#947,0.00424264068711928,0.003);
#16=CYLINDRICAL_SURFACE('',#894,0.00275);
#17=CYLINDRICAL_SURFACE('',#897,0.00275);
#18=CYLINDRICAL_SURFACE('',#900,0.00275);
#19=CYLINDRICAL_SURFACE('',#903,0.00275);
#20=CYLINDRICAL_SURFACE('',#919,0.0045);
#21=CYLINDRICAL_SURFACE('',#922,0.0045);
#22=CYLINDRICAL_SURFACE('',#925,0.0045);
#23=CYLINDRICAL_SURFACE('',#928,0.0045);
#24=CYLINDRICAL_SURFACE('',#935,0.0025);
#25=CYLINDRICAL_SURFACE('',#936,0.0025);
#26=CYLINDRICAL_SURFACE('',#941,0.003);
#27=CYLINDRICAL_SURFACE('',#944,0.003);
#28=CYLINDRICAL_SURFACE('',#946,0.003);
#29=CYLINDRICAL_SURFACE('',#948,0.003);
#30=CYLINDRICAL_SURFACE('',#949,0.003);
#31=CYLINDRICAL_SURFACE('',#950,0.003);
#32=CYLINDRICAL_SURFACE('',#951,0.003);
#33=CYLINDRICAL_SURFACE('',#952,0.003);
#34=CIRCLE('',#881,0.0025);
#35=CIRCLE('',#882,0.0025);
#36=CIRCLE('',#883,0.003);
#37=CIRCLE('',#884,0.003);
#38=CIRCLE('',#885,0.003);
#39=CIRCLE('',#886,0.003);
#40=CIRCLE('',#888,0.0025);
#41=CIRCLE('',#889,0.0025);
#42=CIRCLE('',#890,0.003);
#43=CIRCLE('',#891,0.003);
#44=CIRCLE('',#892,0.003);
#45=CIRCLE('',#893,0.003);
#46=CIRCLE('',#895,0.00275);
#47=CIRCLE('',#896,0.00275);
#48=CIRCLE('',#898,0.00275);
#49=CIRCLE('',#899,0.00275);
#50=CIRCLE('',#901,0.00275);
#51=CIRCLE('',#902,0.00275);
#52=CIRCLE('',#904,0.00275);
#53=CIRCLE('',#905,0.00275);
#54=CIRCLE('',#915,0.0045);
#55=CIRCLE('',#916,0.0045);
#56=CIRCLE('',#917,0.0045);
#57=CIRCLE('',#918,0.0045);
#58=CIRCLE('',#920,0.0045);
#59=CIRCLE('',#923,0.0045);
#60=CIRCLE('',#926,0.0045);
#61=CIRCLE('',#929,0.0045);
#62=ORIENTED_EDGE('',*,*,#282,.T.);
#63=ORIENTED_EDGE('',*,*,#283,.T.);
#64=ORIENTED_EDGE('',*,*,#284,.T.);
#65=ORIENTED_EDGE('',*,*,#285,.F.);
#66=ORIENTED_EDGE('',*,*,#286,.F.);
#67=ORIENTED_EDGE('',*,*,#287,.F.);
#68=ORIENTED_EDGE('',*,*,#288,.T.);
#69=ORIENTED_EDGE('',*,*,#289,.T.);
#70=ORIENTED_EDGE('',*,*,#290,.F.);
#71=ORIENTED_EDGE('',*,*,#291,.F.);
#72=ORIENTED_EDGE('',*,*,#292,.F.);
#73=ORIENTED_EDGE('',*,*,#293,.T.);
#74=ORIENTED_EDGE('',*,*,#294,.T.);
#75=ORIENTED_EDGE('',*,*,#295,.T.);
#76=ORIENTED_EDGE('',*,*,#296,.T.);
#77=ORIENTED_EDGE('',*,*,#297,.T.);
#78=ORIENTED_EDGE('',*,*,#298,.F.);
#79=ORIENTED_EDGE('',*,*,#299,.T.);
#80=ORIENTED_EDGE('',*,*,#300,.T.);
#81=ORIENTED_EDGE('',*,*,#301,.T.);
#82=ORIENTED_EDGE('',*,*,#302,.T.);
#83=ORIENTED_EDGE('',*,*,#285,.T.);
#84=ORIENTED_EDGE('',*,*,#303,.T.);
#85=ORIENTED_EDGE('',*,*,#304,.F.);
#86=ORIENTED_EDGE('',*,*,#305,.T.);
#87=ORIENTED_EDGE('',*,*,#306,.T.);
#88=ORIENTED_EDGE('',*,*,#307,.F.);
#89=ORIENTED_EDGE('',*,*,#308,.F.);
#90=ORIENTED_EDGE('',*,*,#309,.T.);
#91=ORIENTED_EDGE('',*,*,#310,.T.);
#92=ORIENTED_EDGE('',*,*,#311,.F.);
#93=ORIENTED_EDGE('',*,*,#312,.F.);
#94=ORIENTED_EDGE('',*,*,#313,.T.);
#95=ORIENTED_EDGE('',*,*,#314,.F.);
#96=ORIENTED_EDGE('',*,*,#315,.F.);
#97=ORIENTED_EDGE('',*,*,#316,.T.);
#98=ORIENTED_EDGE('',*,*,#317,.F.);
#99=ORIENTED_EDGE('',*,*,#318,.F.);
#100=ORIENTED_EDGE('',*,*,#319,.F.);
#101=ORIENTED_EDGE('',*,*,#320,.T.);
#102=ORIENTED_EDGE('',*,*,#321,.T.);
#103=ORIENTED_EDGE('',*,*,#322,.T.);
#104=ORIENTED_EDGE('',*,*,#323,.T.);
#105=ORIENTED_EDGE('',*,*,#324,.T.);
#106=ORIENTED_EDGE('',*,*,#325,.F.);
#107=ORIENTED_EDGE('',*,*,#326,.T.);
#108=ORIENTED_EDGE('',*,*,#327,.F.);
#109=ORIENTED_EDGE('',*,*,#328,.T.);
#110=ORIENTED_EDGE('',*,*,#329,.F.);
#111=ORIENTED_EDGE('',*,*,#330,.T.);
#112=ORIENTED_EDGE('',*,*,#331,.F.);
#113=ORIENTED_EDGE('',*,*,#332,.T.);
#114=ORIENTED_EDGE('',*,*,#333,.F.);
#115=ORIENTED_EDGE('',*,*,#334,.T.);
#116=ORIENTED_EDGE('',*,*,#335,.F.);
#117=ORIENTED_EDGE('',*,*,#316,.F.);
#118=ORIENTED_EDGE('',*,*,#336,.T.);
#119=ORIENTED_EDGE('',*,*,#337,.T.);
#120=ORIENTED_EDGE('',*,*,#338,.T.);
#121=ORIENTED_EDGE('',*,*,#339,.F.);
#122=ORIENTED_EDGE('',*,*,#340,.F.);
#123=ORIENTED_EDGE('',*,*,#314,.T.);
#124=ORIENTED_EDGE('',*,*,#341,.F.);
#125=ORIENTED_EDGE('',*,*,#337,.F.);
#126=ORIENTED_EDGE('',*,*,#342,.T.);
#127=ORIENTED_EDGE('',*,*,#339,.T.);
#128=ORIENTED_EDGE('',*,*,#333,.T.);
#129=ORIENTED_EDGE('',*,*,#331,.T.);
#130=ORIENTED_EDGE('',*,*,#329,.T.);
#131=ORIENTED_EDGE('',*,*,#327,.T.);
#132=ORIENTED_EDGE('',*,*,#335,.T.);
#133=ORIENTED_EDGE('',*,*,#341,.T.);
#134=ORIENTED_EDGE('',*,*,#338,.F.);
#135=ORIENTED_EDGE('',*,*,#313,.F.);
#136=ORIENTED_EDGE('',*,*,#343,.F.);
#137=ORIENTED_EDGE('',*,*,#344,.T.);
#138=ORIENTED_EDGE('',*,*,#308,.T.);
#139=ORIENTED_EDGE('',*,*,#345,.T.);
#140=ORIENTED_EDGE('',*,*,#346,.F.);
#141=ORIENTED_EDGE('',*,*,#347,.T.);
#142=ORIENTED_EDGE('',*,*,#343,.T.);
#143=ORIENTED_EDGE('',*,*,#348,.T.);
#144=ORIENTED_EDGE('',*,*,#306,.F.);
#145=ORIENTED_EDGE('',*,*,#349,.T.);
#146=ORIENTED_EDGE('',*,*,#346,.T.);
#147=ORIENTED_EDGE('',*,*,#350,.F.);
#148=ORIENTED_EDGE('',*,*,#351,.T.);
#149=ORIENTED_EDGE('',*,*,#352,.T.);
#150=ORIENTED_EDGE('',*,*,#353,.T.);
#151=ORIENTED_EDGE('',*,*,#354,.T.);
#152=ORIENTED_EDGE('',*,*,#336,.F.);
#153=ORIENTED_EDGE('',*,*,#315,.T.);
#154=ORIENTED_EDGE('',*,*,#340,.T.);
#155=ORIENTED_EDGE('',*,*,#342,.F.);
#156=ORIENTED_EDGE('',*,*,#355,.F.);
#157=ORIENTED_EDGE('',*,*,#356,.F.);
#158=ORIENTED_EDGE('',*,*,#357,.F.);
#159=ORIENTED_EDGE('',*,*,#358,.F.);
#160=ORIENTED_EDGE('',*,*,#345,.F.);
#161=ORIENTED_EDGE('',*,*,#307,.T.);
#162=ORIENTED_EDGE('',*,*,#350,.T.);
#163=ORIENTED_EDGE('',*,*,#348,.F.);
#164=ORIENTED_EDGE('',*,*,#359,.F.);
#165=ORIENTED_EDGE('',*,*,#357,.T.);
#166=ORIENTED_EDGE('',*,*,#334,.F.);
#167=ORIENTED_EDGE('',*,*,#359,.T.);
#168=ORIENTED_EDGE('',*,*,#360,.F.);
#169=ORIENTED_EDGE('',*,*,#358,.T.);
#170=ORIENTED_EDGE('',*,*,#332,.F.);
#171=ORIENTED_EDGE('',*,*,#360,.T.);
#172=ORIENTED_EDGE('',*,*,#361,.F.);
#173=ORIENTED_EDGE('',*,*,#355,.T.);
#174=ORIENTED_EDGE('',*,*,#330,.F.);
#175=ORIENTED_EDGE('',*,*,#361,.T.);
#176=ORIENTED_EDGE('',*,*,#362,.F.);
#177=ORIENTED_EDGE('',*,*,#356,.T.);
#178=ORIENTED_EDGE('',*,*,#328,.F.);
#179=ORIENTED_EDGE('',*,*,#362,.T.);
#180=ORIENTED_EDGE('',*,*,#363,.T.);
#181=ORIENTED_EDGE('',*,*,#309,.F.);
#182=ORIENTED_EDGE('',*,*,#364,.F.);
#183=ORIENTED_EDGE('',*,*,#289,.F.);
#184=ORIENTED_EDGE('',*,*,#290,.T.);
#185=ORIENTED_EDGE('',*,*,#364,.T.);
#186=ORIENTED_EDGE('',*,*,#312,.T.);
#187=ORIENTED_EDGE('',*,*,#365,.F.);
#188=ORIENTED_EDGE('',*,*,#291,.T.);
#189=ORIENTED_EDGE('',*,*,#365,.T.);
#190=ORIENTED_EDGE('',*,*,#311,.T.);
#191=ORIENTED_EDGE('',*,*,#366,.F.);
#192=ORIENTED_EDGE('',*,*,#366,.T.);
#193=ORIENTED_EDGE('',*,*,#310,.F.);
#194=ORIENTED_EDGE('',*,*,#363,.F.);
#195=ORIENTED_EDGE('',*,*,#288,.F.);
#196=ORIENTED_EDGE('',*,*,#287,.T.);
#197=ORIENTED_EDGE('',*,*,#317,.T.);
#198=ORIENTED_EDGE('',*,*,#286,.T.);
#199=ORIENTED_EDGE('',*,*,#318,.T.);
#200=ORIENTED_EDGE('',*,*,#296,.F.);
#201=ORIENTED_EDGE('',*,*,#367,.T.);
#202=ORIENTED_EDGE('',*,*,#321,.F.);
#203=ORIENTED_EDGE('',*,*,#368,.T.);
#204=ORIENTED_EDGE('',*,*,#298,.T.);
#205=ORIENTED_EDGE('',*,*,#369,.T.);
#206=ORIENTED_EDGE('',*,*,#319,.T.);
#207=ORIENTED_EDGE('',*,*,#370,.T.);
#208=ORIENTED_EDGE('',*,*,#292,.T.);
#209=ORIENTED_EDGE('',*,*,#371,.T.);
#210=ORIENTED_EDGE('',*,*,#325,.T.);
#211=ORIENTED_EDGE('',*,*,#372,.T.);
#212=ORIENTED_EDGE('',*,*,#323,.F.);
#213=ORIENTED_EDGE('',*,*,#373,.T.);
#214=ORIENTED_EDGE('',*,*,#294,.F.);
#215=ORIENTED_EDGE('',*,*,#374,.T.);
#216=ORIENTED_EDGE('',*,*,#375,.F.);
#217=ORIENTED_EDGE('',*,*,#354,.F.);
#218=ORIENTED_EDGE('',*,*,#376,.F.);
#219=ORIENTED_EDGE('',*,*,#347,.F.);
#220=ORIENTED_EDGE('',*,*,#376,.T.);
#221=ORIENTED_EDGE('',*,*,#353,.F.);
#222=ORIENTED_EDGE('',*,*,#377,.F.);
#223=ORIENTED_EDGE('',*,*,#344,.F.);
#224=ORIENTED_EDGE('',*,*,#375,.T.);
#225=ORIENTED_EDGE('',*,*,#349,.F.);
#226=ORIENTED_EDGE('',*,*,#378,.F.);
#227=ORIENTED_EDGE('',*,*,#351,.F.);
#228=ORIENTED_EDGE('',*,*,#377,.T.);
#229=ORIENTED_EDGE('',*,*,#352,.F.);
#230=ORIENTED_EDGE('',*,*,#378,.T.);
#231=ORIENTED_EDGE('',*,*,#305,.F.);
#232=ORIENTED_EDGE('',*,*,#379,.F.);
#233=ORIENTED_EDGE('',*,*,#300,.F.);
#234=ORIENTED_EDGE('',*,*,#295,.F.);
#235=ORIENTED_EDGE('',*,*,#373,.F.);
#236=ORIENTED_EDGE('',*,*,#322,.F.);
#237=ORIENTED_EDGE('',*,*,#367,.F.);
#238=ORIENTED_EDGE('',*,*,#297,.F.);
#239=ORIENTED_EDGE('',*,*,#368,.F.);
#240=ORIENTED_EDGE('',*,*,#320,.F.);
#241=ORIENTED_EDGE('',*,*,#369,.F.);
#242=ORIENTED_EDGE('',*,*,#299,.F.);
#243=ORIENTED_EDGE('',*,*,#370,.F.);
#244=ORIENTED_EDGE('',*,*,#326,.F.);
#245=ORIENTED_EDGE('',*,*,#371,.F.);
#246=ORIENTED_EDGE('',*,*,#293,.F.);
#247=ORIENTED_EDGE('',*,*,#372,.F.);
#248=ORIENTED_EDGE('',*,*,#324,.F.);
#249=ORIENTED_EDGE('',*,*,#374,.F.);
#250=ORIENTED_EDGE('',*,*,#379,.T.);
#251=ORIENTED_EDGE('',*,*,#380,.F.);
#252=ORIENTED_EDGE('',*,*,#381,.F.);
#253=ORIENTED_EDGE('',*,*,#382,.T.);
#254=ORIENTED_EDGE('',*,*,#304,.T.);
#255=ORIENTED_EDGE('',*,*,#383,.F.);
#256=ORIENTED_EDGE('',*,*,#384,.F.);
#257=ORIENTED_EDGE('',*,*,#380,.T.);
#258=ORIENTED_EDGE('',*,*,#303,.F.);
#259=ORIENTED_EDGE('',*,*,#284,.F.);
#260=ORIENTED_EDGE('',*,*,#385,.F.);
#261=ORIENTED_EDGE('',*,*,#386,.F.);
#262=ORIENTED_EDGE('',*,*,#387,.T.);
#263=ORIENTED_EDGE('',*,*,#383,.T.);
#264=ORIENTED_EDGE('',*,*,#387,.F.);
#265=ORIENTED_EDGE('',*,*,#388,.F.);
#266=ORIENTED_EDGE('',*,*,#381,.T.);
#267=ORIENTED_EDGE('',*,*,#384,.T.);
#268=ORIENTED_EDGE('',*,*,#283,.F.);
#269=ORIENTED_EDGE('',*,*,#389,.F.);
#270=ORIENTED_EDGE('',*,*,#390,.T.);
#271=ORIENTED_EDGE('',*,*,#385,.T.);
#272=ORIENTED_EDGE('',*,*,#282,.F.);
#273=ORIENTED_EDGE('',*,*,#302,.F.);
#274=ORIENTED_EDGE('',*,*,#391,.T.);
#275=ORIENTED_EDGE('',*,*,#389,.T.);
#276=ORIENTED_EDGE('',*,*,#390,.F.);
#277=ORIENTED_EDGE('',*,*,#391,.F.);
#278=ORIENTED_EDGE('',*,*,#301,.F.);
#279=ORIENTED_EDGE('',*,*,#382,.F.);
#280=ORIENTED_EDGE('',*,*,#388,.T.);
#281=ORIENTED_EDGE('',*,*,#386,.T.);
#282=EDGE_CURVE('',#392,#393,#470,.T.);
#283=EDGE_CURVE('',#393,#394,#471,.T.);
#284=EDGE_CURVE('',#394,#395,#472,.T.);
#285=EDGE_CURVE('',#392,#395,#473,.T.);
#286=EDGE_CURVE('',#396,#396,#34,.T.);
#287=EDGE_CURVE('',#397,#397,#35,.T.);
#288=EDGE_CURVE('',#398,#399,#474,.T.);
#289=EDGE_CURVE('',#399,#400,#475,.T.);
#290=EDGE_CURVE('',#401,#400,#476,.T.);
#291=EDGE_CURVE('',#398,#401,#477,.T.);
#292=EDGE_CURVE('',#402,#403,#478,.T.);
#293=EDGE_CURVE('',#402,#404,#36,.F.);
#294=EDGE_CURVE('',#404,#405,#479,.T.);
#295=EDGE_CURVE('',#405,#406,#37,.F.);
#296=EDGE_CURVE('',#406,#407,#480,.T.);
#297=EDGE_CURVE('',#407,#408,#38,.F.);
#298=EDGE_CURVE('',#409,#408,#481,.T.);
#299=EDGE_CURVE('',#409,#403,#39,.F.);
#300=EDGE_CURVE('',#410,#411,#482,.T.);
#301=EDGE_CURVE('',#411,#412,#483,.T.);
#302=EDGE_CURVE('',#412,#392,#484,.T.);
#303=EDGE_CURVE('',#395,#413,#485,.T.);
#304=EDGE_CURVE('',#414,#413,#486,.T.);
#305=EDGE_CURVE('',#414,#415,#487,.T.);
#306=EDGE_CURVE('',#415,#416,#488,.T.);
#307=EDGE_CURVE('',#417,#416,#489,.T.);
#308=EDGE_CURVE('',#410,#417,#490,.T.);
#309=EDGE_CURVE('',#418,#419,#491,.T.);
#310=EDGE_CURVE('',#419,#420,#492,.T.);
#311=EDGE_CURVE('',#421,#420,#493,.T.);
#312=EDGE_CURVE('',#418,#421,#494,.T.);
#313=EDGE_CURVE('',#422,#423,#495,.T.);
#314=EDGE_CURVE('',#424,#423,#496,.T.);
#315=EDGE_CURVE('',#425,#424,#497,.T.);
#316=EDGE_CURVE('',#425,#422,#498,.T.);
#317=EDGE_CURVE('',#426,#426,#40,.T.);
#318=EDGE_CURVE('',#427,#427,#41,.T.);
#319=EDGE_CURVE('',#428,#429,#499,.T.);
#320=EDGE_CURVE('',#428,#430,#42,.T.);
#321=EDGE_CURVE('',#430,#431,#500,.T.);
#322=EDGE_CURVE('',#431,#432,#43,.T.);
#323=EDGE_CURVE('',#432,#433,#501,.T.);
#324=EDGE_CURVE('',#433,#434,#44,.T.);
#325=EDGE_CURVE('',#435,#434,#502,.T.);
#326=EDGE_CURVE('',#435,#429,#45,.T.);
#327=EDGE_CURVE('',#436,#436,#46,.T.);
#328=EDGE_CURVE('',#437,#437,#47,.T.);
#329=EDGE_CURVE('',#438,#438,#48,.T.);
#330=EDGE_CURVE('',#439,#439,#49,.T.);
#331=EDGE_CURVE('',#440,#440,#50,.T.);
#332=EDGE_CURVE('',#441,#441,#51,.T.);
#333=EDGE_CURVE('',#442,#442,#52,.T.);
#334=EDGE_CURVE('',#443,#443,#53,.T.);
#335=EDGE_CURVE('',#422,#444,#503,.T.);
#336=EDGE_CURVE('',#425,#445,#504,.T.);
#337=EDGE_CURVE('',#445,#444,#505,.T.);
#338=EDGE_CURVE('',#423,#446,#506,.T.);
#339=EDGE_CURVE('',#447,#446,#507,.T.);
#340=EDGE_CURVE('',#424,#447,#508,.T.);
#341=EDGE_CURVE('',#444,#446,#509,.T.);
#342=EDGE_CURVE('',#445,#447,#510,.T.);
#343=EDGE_CURVE('',#448,#449,#511,.T.);
#344=EDGE_CURVE('',#448,#410,#512,.F.);
#345=EDGE_CURVE('',#417,#449,#513,.T.);
#346=EDGE_CURVE('',#450,#451,#514,.T.);
#347=EDGE_CURVE('',#450,#448,#515,.F.);
#348=EDGE_CURVE('',#449,#451,#516,.T.);
#349=EDGE_CURVE('',#415,#450,#517,.T.);
#350=EDGE_CURVE('',#416,#451,#518,.T.);
#351=EDGE_CURVE('',#452,#453,#519,.F.);
#352=EDGE_CURVE('',#453,#454,#520,.F.);
#353=EDGE_CURVE('',#454,#455,#521,.T.);
#354=EDGE_CURVE('',#455,#452,#522,.T.);
#355=EDGE_CURVE('',#456,#456,#54,.T.);
#356=EDGE_CURVE('',#457,#457,#55,.T.);
#357=EDGE_CURVE('',#458,#458,#56,.T.);
#358=EDGE_CURVE('',#459,#459,#57,.T.);
#359=EDGE_CURVE('',#460,#460,#58,.T.);
#360=EDGE_CURVE('',#461,#461,#59,.T.);
#361=EDGE_CURVE('',#462,#462,#60,.T.);
#362=EDGE_CURVE('',#463,#463,#61,.T.);
#363=EDGE_CURVE('',#399,#419,#523,.T.);
#364=EDGE_CURVE('',#400,#418,#524,.T.);
#365=EDGE_CURVE('',#401,#421,#525,.T.);
#366=EDGE_CURVE('',#398,#420,#526,.T.);
#367=EDGE_CURVE('',#406,#431,#527,.T.);
#368=EDGE_CURVE('',#430,#407,#528,.F.);
#369=EDGE_CURVE('',#408,#428,#529,.T.);
#370=EDGE_CURVE('',#429,#409,#530,.F.);
#371=EDGE_CURVE('',#403,#435,#531,.T.);
#372=EDGE_CURVE('',#434,#402,#532,.F.);
#373=EDGE_CURVE('',#432,#405,#533,.F.);
#374=EDGE_CURVE('',#404,#433,#534,.T.);
#375=EDGE_CURVE('',#452,#450,#12,.F.);
#376=EDGE_CURVE('',#448,#455,#13,.T.);
#377=EDGE_CURVE('',#410,#454,#14,.T.);
#378=EDGE_CURVE('',#453,#415,#15,.F.);
#379=EDGE_CURVE('',#411,#414,#535,.T.);
#380=EDGE_CURVE('',#464,#414,#536,.T.);
#381=EDGE_CURVE('',#465,#464,#537,.T.);
#382=EDGE_CURVE('',#465,#411,#538,.T.);
#383=EDGE_CURVE('',#466,#413,#539,.T.);
#384=EDGE_CURVE('',#464,#466,#540,.T.);
#385=EDGE_CURVE('',#467,#394,#541,.T.);
#386=EDGE_CURVE('',#468,#467,#542,.T.);
#387=EDGE_CURVE('',#468,#466,#543,.T.);
#388=EDGE_CURVE('',#465,#468,#544,.T.);
#389=EDGE_CURVE('',#469,#393,#545,.T.);
#390=EDGE_CURVE('',#469,#467,#546,.T.);
#391=EDGE_CURVE('',#412,#469,#547,.T.);
#392=VERTEX_POINT('',#1205);
#393=VERTEX_POINT('',#1206);
#394=VERTEX_POINT('',#1208);
#395=VERTEX_POINT('',#1210);
#396=VERTEX_POINT('',#1214);
#397=VERTEX_POINT('',#1216);
#398=VERTEX_POINT('',#1218);
#399=VERTEX_POINT('',#1219);
#400=VERTEX_POINT('',#1221);
#401=VERTEX_POINT('',#1223);
#402=VERTEX_POINT('',#1226);
#403=VERTEX_POINT('',#1227);
#404=VERTEX_POINT('',#1229);
#405=VERTEX_POINT('',#1231);
#406=VERTEX_POINT('',#1233);
#407=VERTEX_POINT('',#1235);
#408=VERTEX_POINT('',#1237);
#409=VERTEX_POINT('',#1239);
#410=VERTEX_POINT('',#1242);
#411=VERTEX_POINT('',#1243);
#412=VERTEX_POINT('',#1245);
#413=VERTEX_POINT('',#1248);
#414=VERTEX_POINT('',#1250);
#415=VERTEX_POINT('',#1252);
#416=VERTEX_POINT('',#1254);
#417=VERTEX_POINT('',#1256);
#418=VERTEX_POINT('',#1260);
#419=VERTEX_POINT('',#1261);
#420=VERTEX_POINT('',#1263);
#421=VERTEX_POINT('',#1265);
#422=VERTEX_POINT('',#1268);
#423=VERTEX_POINT('',#1269);
#424=VERTEX_POINT('',#1271);
#425=VERTEX_POINT('',#1273);
#426=VERTEX_POINT('',#1276);
#427=VERTEX_POINT('',#1278);
#428=VERTEX_POINT('',#1280);
#429=VERTEX_POINT('',#1281);
#430=VERTEX_POINT('',#1283);
#431=VERTEX_POINT('',#1285);
#432=VERTEX_POINT('',#1287);
#433=VERTEX_POINT('',#1289);
#434=VERTEX_POINT('',#1291);
#435=VERTEX_POINT('',#1293);
#436=VERTEX_POINT('',#1297);
#437=VERTEX_POINT('',#1299);
#438=VERTEX_POINT('',#1302);
#439=VERTEX_POINT('',#1304);
#440=VERTEX_POINT('',#1307);
#441=VERTEX_POINT('',#1309);
#442=VERTEX_POINT('',#1312);
#443=VERTEX_POINT('',#1314);
#444=VERTEX_POINT('',#1317);
#445=VERTEX_POINT('',#1319);
#446=VERTEX_POINT('',#1323);
#447=VERTEX_POINT('',#1325);
#448=VERTEX_POINT('',#1333);
#449=VERTEX_POINT('',#1334);
#450=VERTEX_POINT('',#1339);
#451=VERTEX_POINT('',#1340);
#452=VERTEX_POINT('',#1348);
#453=VERTEX_POINT('',#1349);
#454=VERTEX_POINT('',#1351);
#455=VERTEX_POINT('',#1353);
#456=VERTEX_POINT('',#1357);
#457=VERTEX_POINT('',#1359);
#458=VERTEX_POINT('',#1361);
#459=VERTEX_POINT('',#1363);
#460=VERTEX_POINT('',#1366);
#461=VERTEX_POINT('',#1370);
#462=VERTEX_POINT('',#1374);
#463=VERTEX_POINT('',#1378);
#464=VERTEX_POINT('',#1417);
#465=VERTEX_POINT('',#1419);
#466=VERTEX_POINT('',#1423);
#467=VERTEX_POINT('',#1427);
#468=VERTEX_POINT('',#1429);
#469=VERTEX_POINT('',#1435);
#470=LINE('',#1204,#548);
#471=LINE('',#1207,#549);
#472=LINE('',#1209,#550);
#473=LINE('',#1211,#551);
#474=LINE('',#1217,#552);
#475=LINE('',#1220,#553);
#476=LINE('',#1222,#554);
#477=LINE('',#1224,#555);
#478=LINE('',#1225,#556);
#479=LINE('',#1230,#557);
#480=LINE('',#1234,#558);
#481=LINE('',#1238,#559);
#482=LINE('',#1241,#560);
#483=LINE('',#1244,#561);
#484=LINE('',#1246,#562);
#485=LINE('',#1247,#563);
#486=LINE('',#1249,#564);
#487=LINE('',#1251,#565);
#488=LINE('',#1253,#566);
#489=LINE('',#1255,#567);
#490=LINE('',#1257,#568);
#491=LINE('',#1259,#569);
#492=LINE('',#1262,#570);
#493=LINE('',#1264,#571);
#494=LINE('',#1266,#572);
#495=LINE('',#1267,#573);
#496=LINE('',#1270,#574);
#497=LINE('',#1272,#575);
#498=LINE('',#1274,#576);
#499=LINE('',#1279,#577);
#500=LINE('',#1284,#578);
#501=LINE('',#1288,#579);
#502=LINE('',#1292,#580);
#503=LINE('',#1316,#581);
#504=LINE('',#1318,#582);
#505=LINE('',#1320,#583);
#506=LINE('',#1322,#584);
#507=LINE('',#1324,#585);
#508=LINE('',#1326,#586);
#509=LINE('',#1328,#587);
#510=LINE('',#1329,#588);
#511=LINE('',#1332,#589);
#512=LINE('',#1335,#590);
#513=LINE('',#1336,#591);
#514=LINE('',#1338,#592);
#515=LINE('',#1341,#593);
#516=LINE('',#1342,#594);
#517=LINE('',#1344,#595);
#518=LINE('',#1345,#596);
#519=LINE('',#1347,#597);
#520=LINE('',#1350,#598);
#521=LINE('',#1352,#599);
#522=LINE('',#1354,#600);
#523=LINE('',#1381,#601);
#524=LINE('',#1382,#602);
#525=LINE('',#1384,#603);
#526=LINE('',#1386,#604);
#527=LINE('',#1391,#605);
#528=LINE('',#1392,#606);
#529=LINE('',#1394,#607);
#530=LINE('',#1395,#608);
#531=LINE('',#1397,#609);
#532=LINE('',#1398,#610);
#533=LINE('',#1400,#611);
#534=LINE('',#1401,#612);
#535=LINE('',#1410,#613);
#536=LINE('',#1416,#614);
#537=LINE('',#1418,#615);
#538=LINE('',#1420,#616);
#539=LINE('',#1422,#617);
#540=LINE('',#1424,#618);
#541=LINE('',#1426,#619);
#542=LINE('',#1428,#620);
#543=LINE('',#1430,#621);
#544=LINE('',#1432,#622);
#545=LINE('',#1434,#623);
#546=LINE('',#1436,#624);
#547=LINE('',#1438,#625);
#548=VECTOR('',#964,1.);
#549=VECTOR('',#965,1.);
#550=VECTOR('',#966,1.);
#551=VECTOR('',#967,1.);
#552=VECTOR('',#974,1.);
#553=VECTOR('',#975,1.);
#554=VECTOR('',#976,1.);
#555=VECTOR('',#977,1.);
#556=VECTOR('',#978,1.);
#557=VECTOR('',#981,1.);
#558=VECTOR('',#984,1.);
#559=VECTOR('',#987,1.);
#560=VECTOR('',#990,1.);
#561=VECTOR('',#991,1.);
#562=VECTOR('',#992,1.);
#563=VECTOR('',#993,1.);
#564=VECTOR('',#994,1.);
#565=VECTOR('',#995,1.);
#566=VECTOR('',#996,1.);
#567=VECTOR('',#997,1.);
#568=VECTOR('',#998,1.);
#569=VECTOR('',#1001,1.);
#570=VECTOR('',#1002,1.);
#571=VECTOR('',#1003,1.);
#572=VECTOR('',#1004,1.);
#573=VECTOR('',#1005,1.);
#574=VECTOR('',#1006,1.);
#575=VECTOR('',#1007,1.);
#576=VECTOR('',#1008,1.);
#577=VECTOR('',#1013,1.);
#578=VECTOR('',#1016,1.);
#579=VECTOR('',#1019,1.);
#580=VECTOR('',#1022,1.);
#581=VECTOR('',#1051,1.);
#582=VECTOR('',#1052,1.);
#583=VECTOR('',#1053,1.);
#584=VECTOR('',#1056,1.);
#585=VECTOR('',#1057,1.);
#586=VECTOR('',#1058,1.);
#587=VECTOR('',#1061,1.);
#588=VECTOR('',#1062,1.);
#589=VECTOR('',#1067,1.);
#590=VECTOR('',#1068,1.);
#591=VECTOR('',#1069,1.);
#592=VECTOR('',#1072,1.);
#593=VECTOR('',#1073,1.);
#594=VECTOR('',#1074,1.);
#595=VECTOR('',#1077,1.);
#596=VECTOR('',#1078,1.);
#597=VECTOR('',#1081,1.);
#598=VECTOR('',#1082,1.);
#599=VECTOR('',#1083,1.);
#600=VECTOR('',#1084,1.);
#601=VECTOR('',#1121,1.);
#602=VECTOR('',#1122,1.);
#603=VECTOR('',#1125,1.);
#604=VECTOR('',#1128,1.);
#605=VECTOR('',#1137,1.);
#606=VECTOR('',#1138,1.);
#607=VECTOR('',#1141,1.);
#608=VECTOR('',#1142,1.);
#609=VECTOR('',#1145,1.);
#610=VECTOR('',#1146,1.);
#611=VECTOR('',#1149,1.);
#612=VECTOR('',#1150,1.);
#613=VECTOR('',#1167,1.);
#614=VECTOR('',#1178,1.);
#615=VECTOR('',#1179,1.);
#616=VECTOR('',#1180,1.);
#617=VECTOR('',#1183,1.);
#618=VECTOR('',#1184,1.);
#619=VECTOR('',#1187,1.);
#620=VECTOR('',#1188,1.);
#621=VECTOR('',#1189,1.);
#622=VECTOR('',#1192,1.);
#623=VECTOR('',#1195,1.);
#624=VECTOR('',#1196,1.);
#625=VECTOR('',#1199,1.);
#626=EDGE_LOOP('',(#62,#63,#64,#65));
#627=EDGE_LOOP('',(#66));
#628=EDGE_LOOP('',(#67));
#629=EDGE_LOOP('',(#68,#69,#70,#71));
#630=EDGE_LOOP('',(#72,#73,#74,#75,#76,#77,#78,#79));
#631=EDGE_LOOP('',(#80,#81,#82,#83,#84,#85,#86,#87,#88,#89));
#632=EDGE_LOOP('',(#90,#91,#92,#93));
#633=EDGE_LOOP('',(#94,#95,#96,#97));
#634=EDGE_LOOP('',(#98));
#635=EDGE_LOOP('',(#99));
#636=EDGE_LOOP('',(#100,#101,#102,#103,#104,#105,#106,#107));
#637=EDGE_LOOP('',(#108));
#638=EDGE_LOOP('',(#109));
#639=EDGE_LOOP('',(#110));
#640=EDGE_LOOP('',(#111));
#641=EDGE_LOOP('',(#112));
#642=EDGE_LOOP('',(#113));
#643=EDGE_LOOP('',(#114));
#644=EDGE_LOOP('',(#115));
#645=EDGE_LOOP('',(#116,#117,#118,#119));
#646=EDGE_LOOP('',(#120,#121,#122,#123));
#647=EDGE_LOOP('',(#124,#125,#126,#127));
#648=EDGE_LOOP('',(#128));
#649=EDGE_LOOP('',(#129));
#650=EDGE_LOOP('',(#130));
#651=EDGE_LOOP('',(#131));
#652=EDGE_LOOP('',(#132,#133,#134,#135));
#653=EDGE_LOOP('',(#136,#137,#138,#139));
#654=EDGE_LOOP('',(#140,#141,#142,#143));
#655=EDGE_LOOP('',(#144,#145,#146,#147));
#656=EDGE_LOOP('',(#148,#149,#150,#151));
#657=EDGE_LOOP('',(#152,#153,#154,#155));
#658=EDGE_LOOP('',(#156));
#659=EDGE_LOOP('',(#157));
#660=EDGE_LOOP('',(#158));
#661=EDGE_LOOP('',(#159));
#662=EDGE_LOOP('',(#160,#161,#162,#163));
#663=EDGE_LOOP('',(#164));
#664=EDGE_LOOP('',(#165));
#665=EDGE_LOOP('',(#166));
#666=EDGE_LOOP('',(#167));
#667=EDGE_LOOP('',(#168));
#668=EDGE_LOOP('',(#169));
#669=EDGE_LOOP('',(#170));
#670=EDGE_LOOP('',(#171));
#671=EDGE_LOOP('',(#172));
#672=EDGE_LOOP('',(#173));
#673=EDGE_LOOP('',(#174));
#674=EDGE_LOOP('',(#175));
#675=EDGE_LOOP('',(#176));
#676=EDGE_LOOP('',(#177));
#677=EDGE_LOOP('',(#178));
#678=EDGE_LOOP('',(#179));
#679=EDGE_LOOP('',(#180,#181,#182,#183));
#680=EDGE_LOOP('',(#184,#185,#186,#187));
#681=EDGE_LOOP('',(#188,#189,#190,#191));
#682=EDGE_LOOP('',(#192,#193,#194,#195));
#683=EDGE_LOOP('',(#196));
#684=EDGE_LOOP('',(#197));
#685=EDGE_LOOP('',(#198));
#686=EDGE_LOOP('',(#199));
#687=EDGE_LOOP('',(#200,#201,#202,#203));
#688=EDGE_LOOP('',(#204,#205,#206,#207));
#689=EDGE_LOOP('',(#208,#209,#210,#211));
#690=EDGE_LOOP('',(#212,#213,#214,#215));
#691=EDGE_LOOP('',(#216,#217,#218,#219));
#692=EDGE_LOOP('',(#220,#221,#222,#223));
#693=EDGE_LOOP('',(#224,#225,#226,#227));
#694=EDGE_LOOP('',(#228,#229,#230,#231,#232,#233));
#695=EDGE_LOOP('',(#234,#235,#236,#237));
#696=EDGE_LOOP('',(#238,#239,#240,#241));
#697=EDGE_LOOP('',(#242,#243,#244,#245));
#698=EDGE_LOOP('',(#246,#247,#248,#249));
#699=EDGE_LOOP('',(#250,#251,#252,#253));
#700=EDGE_LOOP('',(#254,#255,#256,#257));
#701=EDGE_LOOP('',(#258,#259,#260,#261,#262,#263));
#702=EDGE_LOOP('',(#264,#265,#266,#267));
#703=EDGE_LOOP('',(#268,#269,#270,#271));
#704=EDGE_LOOP('',(#272,#273,#274,#275));
#705=EDGE_LOOP('',(#276,#277,#278,#279,#280,#281));
#706=FACE_BOUND('',#626,.T.);
#707=FACE_BOUND('',#627,.T.);
#708=FACE_BOUND('',#628,.T.);
#709=FACE_BOUND('',#629,.T.);
#710=FACE_BOUND('',#630,.T.);
#711=FACE_BOUND('',#631,.T.);
#712=FACE_BOUND('',#632,.T.);
#713=FACE_BOUND('',#633,.T.);
#714=FACE_BOUND('',#634,.T.);
#715=FACE_BOUND('',#635,.T.);
#716=FACE_BOUND('',#636,.T.);
#717=FACE_BOUND('',#637,.T.);
#718=FACE_BOUND('',#638,.T.);
#719=FACE_BOUND('',#639,.T.);
#720=FACE_BOUND('',#640,.T.);
#721=FACE_BOUND('',#641,.T.);
#722=FACE_BOUND('',#642,.T.);
#723=FACE_BOUND('',#643,.T.);
#724=FACE_BOUND('',#644,.T.);
#725=FACE_BOUND('',#645,.T.);
#726=FACE_BOUND('',#646,.T.);
#727=FACE_BOUND('',#647,.T.);
#728=FACE_BOUND('',#648,.T.);
#729=FACE_BOUND('',#649,.T.);
#730=FACE_BOUND('',#650,.T.);
#731=FACE_BOUND('',#651,.T.);
#732=FACE_BOUND('',#652,.T.);
#733=FACE_BOUND('',#653,.T.);
#734=FACE_BOUND('',#654,.T.);
#735=FACE_BOUND('',#655,.T.);
#736=FACE_BOUND('',#656,.T.);
#737=FACE_BOUND('',#657,.T.);
#738=FACE_BOUND('',#658,.T.);
#739=FACE_BOUND('',#659,.T.);
#740=FACE_BOUND('',#660,.T.);
#741=FACE_BOUND('',#661,.T.);
#742=FACE_BOUND('',#662,.T.);
#743=FACE_BOUND('',#663,.T.);
#744=FACE_BOUND('',#664,.T.);
#745=FACE_BOUND('',#665,.T.);
#746=FACE_BOUND('',#666,.T.);
#747=FACE_BOUND('',#667,.T.);
#748=FACE_BOUND('',#668,.T.);
#749=FACE_BOUND('',#669,.T.);
#750=FACE_BOUND('',#670,.T.);
#751=FACE_BOUND('',#671,.T.);
#752=FACE_BOUND('',#672,.T.);
#753=FACE_BOUND('',#673,.T.);
#754=FACE_BOUND('',#674,.T.);
#755=FACE_BOUND('',#675,.T.);
#756=FACE_BOUND('',#676,.T.);
#757=FACE_BOUND('',#677,.T.);
#758=FACE_BOUND('',#678,.T.);
#759=FACE_BOUND('',#679,.T.);
#760=FACE_BOUND('',#680,.T.);
#761=FACE_BOUND('',#681,.T.);
#762=FACE_BOUND('',#682,.T.);
#763=FACE_BOUND('',#683,.T.);
#764=FACE_BOUND('',#684,.T.);
#765=FACE_BOUND('',#685,.T.);
#766=FACE_BOUND('',#686,.T.);
#767=FACE_BOUND('',#687,.T.);
#768=FACE_BOUND('',#688,.T.);
#769=FACE_BOUND('',#689,.T.);
#770=FACE_BOUND('',#690,.T.);
#771=FACE_BOUND('',#691,.T.);
#772=FACE_BOUND('',#692,.T.);
#773=FACE_BOUND('',#693,.T.);
#774=FACE_BOUND('',#694,.T.);
#775=FACE_BOUND('',#695,.T.);
#776=FACE_BOUND('',#696,.T.);
#777=FACE_BOUND('',#697,.T.);
#778=FACE_BOUND('',#698,.T.);
#779=FACE_BOUND('',#699,.T.);
#780=FACE_BOUND('',#700,.T.);
#781=FACE_BOUND('',#701,.T.);
#782=FACE_BOUND('',#702,.T.);
#783=FACE_BOUND('',#703,.T.);
#784=FACE_BOUND('',#704,.T.);
#785=FACE_BOUND('',#705,.T.);
#786=PLANE('',#879);
#787=PLANE('',#880);
#788=PLANE('',#887);
#789=PLANE('',#906);
#790=PLANE('',#907);
#791=PLANE('',#908);
#792=PLANE('',#909);
#793=PLANE('',#910);
#794=PLANE('',#911);
#795=PLANE('',#912);
#796=PLANE('',#913);
#797=PLANE('',#914);
#798=PLANE('',#921);
#799=PLANE('',#924);
#800=PLANE('',#927);
#801=PLANE('',#930);
#802=PLANE('',#931);
#803=PLANE('',#932);
#804=PLANE('',#933);
#805=PLANE('',#934);
#806=PLANE('',#937);
#807=PLANE('',#938);
#808=PLANE('',#939);
#809=PLANE('',#940);
#810=PLANE('',#953);
#811=PLANE('',#954);
#812=PLANE('',#955);
#813=PLANE('',#956);
#814=PLANE('',#957);
#815=PLANE('',#958);
#816=PLANE('',#959);
#817=ADVANCED_FACE('',(#706),#786,.T.);
#818=ADVANCED_FACE('',(#707,#708,#709,#710,#711),#787,.T.);
#819=ADVANCED_FACE('',(#712,#713,#714,#715,#716),#788,.F.);
#820=ADVANCED_FACE('',(#717,#718),#16,.F.);
#821=ADVANCED_FACE('',(#719,#720),#17,.F.);
#822=ADVANCED_FACE('',(#721,#722),#18,.F.);
#823=ADVANCED_FACE('',(#723,#724),#19,.F.);
#824=ADVANCED_FACE('',(#725),#789,.T.);
#825=ADVANCED_FACE('',(#726),#790,.F.);
#826=ADVANCED_FACE('',(#727),#791,.T.);
#827=ADVANCED_FACE('',(#728,#729,#730,#731,#732),#792,.F.);
#828=ADVANCED_FACE('',(#733),#793,.F.);
#829=ADVANCED_FACE('',(#734),#794,.F.);
#830=ADVANCED_FACE('',(#735),#795,.T.);
#831=ADVANCED_FACE('',(#736,#737),#796,.T.);
#832=ADVANCED_FACE('',(#738,#739,#740,#741,#742),#797,.T.);
#833=ADVANCED_FACE('',(#743,#744),#20,.F.);
#834=ADVANCED_FACE('',(#745,#746),#798,.T.);
#835=ADVANCED_FACE('',(#747,#748),#21,.F.);
#836=ADVANCED_FACE('',(#749,#750),#799,.T.);
#837=ADVANCED_FACE('',(#751,#752),#22,.F.);
#838=ADVANCED_FACE('',(#753,#754),#800,.T.);
#839=ADVANCED_FACE('',(#755,#756),#23,.F.);
#840=ADVANCED_FACE('',(#757,#758),#801,.T.);
#841=ADVANCED_FACE('',(#759),#802,.T.);
#842=ADVANCED_FACE('',(#760),#803,.F.);
#843=ADVANCED_FACE('',(#761),#804,.F.);
#844=ADVANCED_FACE('',(#762),#805,.T.);
#845=ADVANCED_FACE('',(#763,#764),#24,.F.);
#846=ADVANCED_FACE('',(#765,#766),#25,.F.);
#847=ADVANCED_FACE('',(#767),#806,.T.);
#848=ADVANCED_FACE('',(#768),#807,.F.);
#849=ADVANCED_FACE('',(#769),#808,.F.);
#850=ADVANCED_FACE('',(#770),#809,.T.);
#851=ADVANCED_FACE('',(#771),#26,.T.);
#852=ADVANCED_FACE('',(#772),#27,.T.);
#853=ADVANCED_FACE('',(#773),#28,.T.);
#854=ADVANCED_FACE('',(#774),#29,.T.);
#855=ADVANCED_FACE('',(#775),#30,.F.);
#856=ADVANCED_FACE('',(#776),#31,.F.);
#857=ADVANCED_FACE('',(#777),#32,.F.);
#858=ADVANCED_FACE('',(#778),#33,.F.);
#859=ADVANCED_FACE('',(#779),#810,.F.);
#860=ADVANCED_FACE('',(#780),#811,.F.);
#861=ADVANCED_FACE('',(#781),#812,.T.);
#862=ADVANCED_FACE('',(#782),#813,.T.);
#863=ADVANCED_FACE('',(#783),#814,.T.);
#864=ADVANCED_FACE('',(#784),#815,.T.);
#865=ADVANCED_FACE('',(#785),#816,.T.);
#866=CLOSED_SHELL('',(#817,#818,#819,#820,#821,#822,#823,#824,#825,#826,
#827,#828,#829,#830,#831,#832,#833,#834,#835,#836,#837,#838,#839,#840,#841,
#842,#843,#844,#845,#846,#847,#848,#849,#850,#851,#852,#853,#854,#855,#856,
#857,#858,#859,#860,#861,#862,#863,#864,#865));
#867=STYLED_ITEM('',(#868),#875);
#868=PRESENTATION_STYLE_ASSIGNMENT((#869));
#869=SURFACE_STYLE_USAGE(.BOTH.,#870);
#870=SURFACE_SIDE_STYLE('',(#871));
#871=SURFACE_STYLE_FILL_AREA(#872);
#872=FILL_AREA_STYLE('',(#873));
#873=FILL_AREA_STYLE_COLOUR('',#874);
#874=COLOUR_RGB('',0.615686274509804,0.811764705882353,0.929411764705882);
#875=MANIFOLD_SOLID_BREP('ElectricalBox',#866);
#876=SHAPE_DEFINITION_REPRESENTATION(#1446,#877);
#877=SHAPE_REPRESENTATION('ElectricalBox',(#878),#1441);
#878=AXIS2_PLACEMENT_3D('',#1202,#960,#961);
#879=AXIS2_PLACEMENT_3D('',#1203,#962,#963);
#880=AXIS2_PLACEMENT_3D('',#1212,#968,#969);
#881=AXIS2_PLACEMENT_3D('',#1213,#970,#971);
#882=AXIS2_PLACEMENT_3D('',#1215,#972,#973);
#883=AXIS2_PLACEMENT_3D('',#1228,#979,#980);
#884=AXIS2_PLACEMENT_3D('',#1232,#982,#983);
#885=AXIS2_PLACEMENT_3D('',#1236,#985,#986);
#886=AXIS2_PLACEMENT_3D('',#1240,#988,#989);
#887=AXIS2_PLACEMENT_3D('',#1258,#999,#1000);
#888=AXIS2_PLACEMENT_3D('',#1275,#1009,#1010);
#889=AXIS2_PLACEMENT_3D('',#1277,#1011,#1012);
#890=AXIS2_PLACEMENT_3D('',#1282,#1014,#1015);
#891=AXIS2_PLACEMENT_3D('',#1286,#1017,#1018);
#892=AXIS2_PLACEMENT_3D('',#1290,#1020,#1021);
#893=AXIS2_PLACEMENT_3D('',#1294,#1023,#1024);
#894=AXIS2_PLACEMENT_3D('',#1295,#1025,#1026);
#895=AXIS2_PLACEMENT_3D('',#1296,#1027,#1028);
#896=AXIS2_PLACEMENT_3D('',#1298,#1029,#1030);
#897=AXIS2_PLACEMENT_3D('',#1300,#1031,#1032);
#898=AXIS2_PLACEMENT_3D('',#1301,#1033,#1034);
#899=AXIS2_PLACEMENT_3D('',#1303,#1035,#1036);
#900=AXIS2_PLACEMENT_3D('',#1305,#1037,#1038);
#901=AXIS2_PLACEMENT_3D('',#1306,#1039,#1040);
#902=AXIS2_PLACEMENT_3D('',#1308,#1041,#1042);
#903=AXIS2_PLACEMENT_3D('',#1310,#1043,#1044);
#904=AXIS2_PLACEMENT_3D('',#1311,#1045,#1046);
#905=AXIS2_PLACEMENT_3D('',#1313,#1047,#1048);
#906=AXIS2_PLACEMENT_3D('',#1315,#1049,#1050);
#907=AXIS2_PLACEMENT_3D('',#1321,#1054,#1055);
#908=AXIS2_PLACEMENT_3D('',#1327,#1059,#1060);
#909=AXIS2_PLACEMENT_3D('',#1330,#1063,#1064);
#910=AXIS2_PLACEMENT_3D('',#1331,#1065,#1066);
#911=AXIS2_PLACEMENT_3D('',#1337,#1070,#1071);
#912=AXIS2_PLACEMENT_3D('',#1343,#1075,#1076);
#913=AXIS2_PLACEMENT_3D('',#1346,#1079,#1080);
#914=AXIS2_PLACEMENT_3D('',#1355,#1085,#1086);
#915=AXIS2_PLACEMENT_3D('',#1356,#1087,#1088);
#916=AXIS2_PLACEMENT_3D('',#1358,#1089,#1090);
#917=AXIS2_PLACEMENT_3D('',#1360,#1091,#1092);
#918=AXIS2_PLACEMENT_3D('',#1362,#1093,#1094);
#919=AXIS2_PLACEMENT_3D('',#1364,#1095,#1096);
#920=AXIS2_PLACEMENT_3D('',#1365,#1097,#1098);
#921=AXIS2_PLACEMENT_3D('',#1367,#1099,#1100);
#922=AXIS2_PLACEMENT_3D('',#1368,#1101,#1102);
#923=AXIS2_PLACEMENT_3D('',#1369,#1103,#1104);
#924=AXIS2_PLACEMENT_3D('',#1371,#1105,#1106);
#925=AXIS2_PLACEMENT_3D('',#1372,#1107,#1108);
#926=AXIS2_PLACEMENT_3D('',#1373,#1109,#1110);
#927=AXIS2_PLACEMENT_3D('',#1375,#1111,#1112);
#928=AXIS2_PLACEMENT_3D('',#1376,#1113,#1114);
#929=AXIS2_PLACEMENT_3D('',#1377,#1115,#1116);
#930=AXIS2_PLACEMENT_3D('',#1379,#1117,#1118);
#931=AXIS2_PLACEMENT_3D('',#1380,#1119,#1120);
#932=AXIS2_PLACEMENT_3D('',#1383,#1123,#1124);
#933=AXIS2_PLACEMENT_3D('',#1385,#1126,#1127);
#934=AXIS2_PLACEMENT_3D('',#1387,#1129,#1130);
#935=AXIS2_PLACEMENT_3D('',#1388,#1131,#1132);
#936=AXIS2_PLACEMENT_3D('',#1389,#1133,#1134);
#937=AXIS2_PLACEMENT_3D('',#1390,#1135,#1136);
#938=AXIS2_PLACEMENT_3D('',#1393,#1139,#1140);
#939=AXIS2_PLACEMENT_3D('',#1396,#1143,#1144);
#940=AXIS2_PLACEMENT_3D('',#1399,#1147,#1148);
#941=AXIS2_PLACEMENT_3D('',#1402,#1151,#1152);
#942=AXIS2_PLACEMENT_3D('',#1403,#1153,#1154);
#943=AXIS2_PLACEMENT_3D('',#1404,#1155,#1156);
#944=AXIS2_PLACEMENT_3D('',#1405,#1157,#1158);
#945=AXIS2_PLACEMENT_3D('',#1406,#1159,#1160);
#946=AXIS2_PLACEMENT_3D('',#1407,#1161,#1162);
#947=AXIS2_PLACEMENT_3D('',#1408,#1163,#1164);
#948=AXIS2_PLACEMENT_3D('',#1409,#1165,#1166);
#949=AXIS2_PLACEMENT_3D('',#1411,#1168,#1169);
#950=AXIS2_PLACEMENT_3D('',#1412,#1170,#1171);
#951=AXIS2_PLACEMENT_3D('',#1413,#1172,#1173);
#952=AXIS2_PLACEMENT_3D('',#1414,#1174,#1175);
#953=AXIS2_PLACEMENT_3D('',#1415,#1176,#1177);
#954=AXIS2_PLACEMENT_3D('',#1421,#1181,#1182);
#955=AXIS2_PLACEMENT_3D('',#1425,#1185,#1186);
#956=AXIS2_PLACEMENT_3D('',#1431,#1190,#1191);
#957=AXIS2_PLACEMENT_3D('',#1433,#1193,#1194);
#958=AXIS2_PLACEMENT_3D('',#1437,#1197,#1198);
#959=AXIS2_PLACEMENT_3D('',#1439,#1200,#1201);
#960=DIRECTION('',(0.,0.,1.));
#961=DIRECTION('',(1.,0.,0.));
#962=DIRECTION('',(8.76491861546176E-16,0.,-1.));
#963=DIRECTION('',(-1.,0.,-8.76491861546176E-16));
#964=DIRECTION('',(1.,0.,8.76491861546176E-16));
#965=DIRECTION('',(0.,-1.,0.));
#966=DIRECTION('',(-1.,-1.57617542611259E-30,-8.76491861546176E-16));
#967=DIRECTION('',(1.57617542611259E-30,-1.,1.38150493335676E-45));
#968=DIRECTION('',(1.,1.57617542611259E-30,8.76491861546176E-16));
#969=DIRECTION('',(8.76491861546176E-16,0.,-1.));
#970=DIRECTION('',(1.,1.57617542611259E-30,8.76491861546176E-16));
#971=DIRECTION('',(8.76491861546176E-16,0.,-1.));
#972=DIRECTION('',(1.,1.57617542611259E-30,8.76491861546176E-16));
#973=DIRECTION('',(8.76491861546176E-16,0.,-1.));
#974=DIRECTION('',(-8.76491861546176E-16,-1.44748453386038E-45,1.));
#975=DIRECTION('',(-1.57617542611259E-30,1.,-1.24993303494183E-45));
#976=DIRECTION('',(-8.76491861546176E-16,-1.44748453386038E-45,1.));
#977=DIRECTION('',(-1.57617542611259E-30,1.,-1.24993303494183E-45));
#978=DIRECTION('',(-8.76491861546176E-16,-1.44748453386038E-45,1.));
#979=DIRECTION('',(1.,1.57617542611259E-30,8.76491861546176E-16));
#980=DIRECTION('',(8.76491861546176E-16,0.,-1.));
#981=DIRECTION('',(1.57617542611259E-30,-1.,1.24993303494183E-45));
#982=DIRECTION('',(1.,1.57617542611259E-30,8.76491861546176E-16));
#983=DIRECTION('',(8.76491861546176E-16,0.,-1.));
#984=DIRECTION('',(-8.76491861546176E-16,-1.44748453386038E-45,1.));
#985=DIRECTION('',(1.,1.57617542611259E-30,8.76491861546176E-16));
#986=DIRECTION('',(8.76491861546176E-16,0.,-1.));
#987=DIRECTION('',(1.57617542611259E-30,-1.,1.24993303494183E-45));
#988=DIRECTION('',(1.,1.57617542611259E-30,8.76491861546176E-16));
#989=DIRECTION('',(8.76491861546176E-16,0.,-1.));
#990=DIRECTION('',(-8.76491861546176E-16,-9.01785410636717E-16,1.));
#991=DIRECTION('',(1.57617542611259E-30,-1.,1.38150493335676E-45));
#992=DIRECTION('',(-8.76491861546176E-16,0.,1.));
#993=DIRECTION('',(-8.76491861546176E-16,-1.73472347597681E-15,1.));
#994=DIRECTION('',(1.57617542611259E-30,-1.,1.38150493335676E-45));
#995=DIRECTION('',(-8.76491861546176E-16,-9.01785410636717E-16,1.));
#996=DIRECTION('',(2.36658299939675E-30,-1.,-9.01785410636717E-16));
#997=DIRECTION('',(-8.76491861546176E-16,-9.01785410636717E-16,1.));
#998=DIRECTION('',(2.36658299939675E-30,-1.,-9.01785410636717E-16));
#999=DIRECTION('',(1.,1.65145233785394E-30,7.93016446160826E-16));
#1000=DIRECTION('',(7.93016446160826E-16,0.,-1.));
#1001=DIRECTION('',(1.65145233785394E-30,-1.,1.30962886396892E-45));
#1002=DIRECTION('',(7.93016446160826E-16,1.30962886396892E-45,-1.));
#1003=DIRECTION('',(1.65145233785394E-30,-1.,1.30962886396892E-45));
#1004=DIRECTION('',(7.93016446160826E-16,1.30962886396892E-45,-1.));
#1005=DIRECTION('',(-7.93016446160826E-16,-9.01785410636717E-16,1.));
#1006=DIRECTION('',(2.36658299939675E-30,-1.,-9.01785410636717E-16));
#1007=DIRECTION('',(-7.93016446160826E-16,-9.01785410636717E-16,1.));
#1008=DIRECTION('',(2.36658299939675E-30,-1.,-9.01785410636717E-16));
#1009=DIRECTION('',(-1.,-1.65145233785394E-30,-7.93016446160826E-16));
#1010=DIRECTION('',(-7.93016446160826E-16,0.,1.));
#1011=DIRECTION('',(-1.,-1.65145233785394E-30,-7.93016446160826E-16));
#1012=DIRECTION('',(-7.93016446160826E-16,0.,1.));
#1013=DIRECTION('',(-1.65145233785394E-30,1.,-1.30962886396892E-45));
#1014=DIRECTION('',(1.,1.65145233785394E-30,7.93016446160826E-16));
#1015=DIRECTION('',(7.93016446160826E-16,0.,-1.));
#1016=DIRECTION('',(7.93016446160826E-16,1.30962886396892E-45,-1.));
#1017=DIRECTION('',(1.,1.65145233785394E-30,7.93016446160826E-16));
#1018=DIRECTION('',(7.93016446160826E-16,0.,-1.));
#1019=DIRECTION('',(-1.65145233785394E-30,1.,-1.30962886396892E-45));
#1020=DIRECTION('',(1.,1.65145233785394E-30,7.93016446160826E-16));
#1021=DIRECTION('',(7.93016446160826E-16,0.,-1.));
#1022=DIRECTION('',(7.93016446160826E-16,1.30962886396892E-45,-1.));
#1023=DIRECTION('',(1.,1.65145233785394E-30,7.93016446160826E-16));
#1024=DIRECTION('',(7.93016446160826E-16,0.,-1.));
#1025=DIRECTION('',(-2.36658299939675E-30,1.,9.01785410636717E-16));
#1026=DIRECTION('',(0.,-9.01785410636717E-16,1.));
#1027=DIRECTION('',(-2.36658299939675E-30,1.,9.01785410636717E-16));
#1028=DIRECTION('',(0.,-9.01785410636717E-16,1.));
#1029=DIRECTION('',(-2.36658299939675E-30,1.,9.01785410636717E-16));
#1030=DIRECTION('',(0.,-9.01785410636717E-16,1.));
#1031=DIRECTION('',(-2.36658299939675E-30,1.,9.01785410636717E-16));
#1032=DIRECTION('',(0.,-9.01785410636717E-16,1.));
#1033=DIRECTION('',(-2.36658299939675E-30,1.,9.01785410636717E-16));
#1034=DIRECTION('',(0.,-9.01785410636717E-16,1.));
#1035=DIRECTION('',(-2.36658299939675E-30,1.,9.01785410636717E-16));
#1036=DIRECTION('',(0.,-9.01785410636717E-16,1.));
#1037=DIRECTION('',(-2.36658299939675E-30,1.,9.01785410636717E-16));
#1038=DIRECTION('',(0.,-9.01785410636717E-16,1.));
#1039=DIRECTION('',(-2.36658299939675E-30,1.,9.01785410636717E-16));
#1040=DIRECTION('',(0.,-9.01785410636717E-16,1.));
#1041=DIRECTION('',(-2.36658299939675E-30,1.,9.01785410636717E-16));
#1042=DIRECTION('',(0.,-9.01785410636717E-16,1.));
#1043=DIRECTION('',(-2.36658299939675E-30,1.,9.01785410636717E-16));
#1044=DIRECTION('',(0.,-9.01785410636717E-16,1.));
#1045=DIRECTION('',(-2.36658299939675E-30,1.,9.01785410636717E-16));
#1046=DIRECTION('',(0.,-9.01785410636717E-16,1.));
#1047=DIRECTION('',(-2.36658299939675E-30,1.,9.01785410636717E-16));
#1048=DIRECTION('',(0.,-9.01785410636717E-16,1.));
#1049=DIRECTION('',(7.33166148337367E-16,9.01785410636717E-16,-1.));
#1050=DIRECTION('',(0.,1.,9.01785410636717E-16));
#1051=DIRECTION('',(1.,1.7054244632534E-30,7.33166148337367E-16));
#1052=DIRECTION('',(1.,1.7054244632534E-30,7.33166148337367E-16));
#1053=DIRECTION('',(2.36658299939675E-30,-1.,-9.01785410636717E-16));
#1054=DIRECTION('',(7.06981643039604E-16,9.01785410636717E-16,-1.));
#1055=DIRECTION('',(0.,1.,9.01785410636717E-16));
#1056=DIRECTION('',(1.,1.72903726811566E-30,7.06981643039604E-16));
#1057=DIRECTION('',(2.36658299939675E-30,-1.,-9.01785410636717E-16));
#1058=DIRECTION('',(1.,1.72903726811566E-30,7.06981643039604E-16));
#1059=DIRECTION('',(1.,1.65145233785394E-30,7.93016446160826E-16));
#1060=DIRECTION('',(7.93016446160826E-16,0.,-1.));
#1061=DIRECTION('',(-7.93016446160826E-16,-9.01785410636717E-16,1.));
#1062=DIRECTION('',(-7.93016446160826E-16,-9.01785410636717E-16,1.));
#1063=DIRECTION('',(-2.36658299939675E-30,1.,9.01785410636717E-16));
#1064=DIRECTION('',(1.,2.36658299939675E-30,2.13415002191687E-45));
#1065=DIRECTION('',(6.79728382423565E-16,9.01785410636717E-16,-1.));
#1066=DIRECTION('',(0.,1.,9.01785410636717E-16));
#1067=DIRECTION('',(2.36658299939675E-30,-1.,-9.01785410636717E-16));
#1068=DIRECTION('',(1.,1.75361386093148E-30,6.79728382423565E-16));
#1069=DIRECTION('',(1.,1.75361386093148E-30,6.79728382423565E-16));
#1070=DIRECTION('',(1.,1.57617542611259E-30,8.76491861546176E-16));
#1071=DIRECTION('',(8.76491861546176E-16,0.,-1.));
#1072=DIRECTION('',(2.36658299939675E-30,-1.,-9.01785410636717E-16));
#1073=DIRECTION('',(-8.76491861546176E-16,-9.01785410636717E-16,1.));
#1074=DIRECTION('',(-8.76491861546176E-16,-9.01785410636717E-16,1.));
#1075=DIRECTION('',(7.0805039835788E-16,9.01785410636717E-16,-1.));
#1076=DIRECTION('',(0.,1.,9.01785410636717E-16));
#1077=DIRECTION('',(1.,1.7280734801621E-30,7.0805039835788E-16));
#1078=DIRECTION('',(1.,1.7280734801621E-30,7.0805039835788E-16));
#1079=DIRECTION('',(-2.36658299939675E-30,1.,9.01785410636717E-16));
#1080=DIRECTION('',(1.,2.36658299939675E-30,2.13415002191687E-45));
#1081=DIRECTION('',(1.,1.7280734801621E-30,7.0805039835788E-16));
#1082=DIRECTION('',(-8.76491861546176E-16,-9.01785410636717E-16,1.));
#1083=DIRECTION('',(1.,1.75361386093148E-30,6.79728382423565E-16));
#1084=DIRECTION('',(-8.76491861546176E-16,-9.01785410636717E-16,1.));
#1085=DIRECTION('',(-2.36658299939675E-30,1.,9.01785410636717E-16));
#1086=DIRECTION('',(1.,2.36658299939675E-30,2.13415002191687E-45));
#1087=DIRECTION('',(-2.36658299939675E-30,1.,9.01785410636717E-16));
#1088=DIRECTION('',(0.,-9.01785410636717E-16,1.));
#1089=DIRECTION('',(-2.36658299939675E-30,1.,9.01785410636717E-16));
#1090=DIRECTION('',(0.,-9.01785410636717E-16,1.));
#1091=DIRECTION('',(-2.36658299939675E-30,1.,9.01785410636717E-16));
#1092=DIRECTION('',(0.,-9.01785410636717E-16,1.));
#1093=DIRECTION('',(-2.36658299939675E-30,1.,9.01785410636717E-16));
#1094=DIRECTION('',(0.,-9.01785410636717E-16,1.));
#1095=DIRECTION('',(-2.36658299939675E-30,1.,9.01785410636717E-16));
#1096=DIRECTION('',(0.,-9.01785410636717E-16,1.));
#1097=DIRECTION('',(-2.36658299939675E-30,1.,9.01785410636717E-16));
#1098=DIRECTION('',(0.,-9.01785410636717E-16,1.));
#1099=DIRECTION('',(-2.36658299939675E-30,1.,9.01785410636717E-16));
#1100=DIRECTION('',(1.,2.36658299939675E-30,2.13415002191687E-45));
#1101=DIRECTION('',(-2.36658299939675E-30,1.,9.01785410636717E-16));
#1102=DIRECTION('',(0.,-9.01785410636717E-16,1.));
#1103=DIRECTION('',(-2.36658299939675E-30,1.,9.01785410636717E-16));
#1104=DIRECTION('',(0.,-9.01785410636717E-16,1.));
#1105=DIRECTION('',(-2.36658299939675E-30,1.,9.01785410636717E-16));
#1106=DIRECTION('',(1.,2.36658299939675E-30,2.13415002191687E-45));
#1107=DIRECTION('',(-2.36658299939675E-30,1.,9.01785410636717E-16));
#1108=DIRECTION('',(0.,-9.01785410636717E-16,1.));
#1109=DIRECTION('',(-2.36658299939675E-30,1.,9.01785410636717E-16));
#1110=DIRECTION('',(0.,-9.01785410636717E-16,1.));
#1111=DIRECTION('',(-2.36658299939675E-30,1.,9.01785410636717E-16));
#1112=DIRECTION('',(1.,2.36658299939675E-30,2.13415002191687E-45));
#1113=DIRECTION('',(-2.36658299939675E-30,1.,9.01785410636717E-16));
#1114=DIRECTION('',(0.,-9.01785410636717E-16,1.));
#1115=DIRECTION('',(-2.36658299939675E-30,1.,9.01785410636717E-16));
#1116=DIRECTION('',(0.,-9.01785410636717E-16,1.));
#1117=DIRECTION('',(-2.36658299939675E-30,1.,9.01785410636717E-16));
#1118=DIRECTION('',(1.,2.36658299939675E-30,2.13415002191687E-45));
#1119=DIRECTION('',(7.93016446160826E-16,0.,-1.));
#1120=DIRECTION('',(-1.,0.,-7.93016446160826E-16));
#1121=DIRECTION('',(-1.,-1.65145233785394E-30,-7.93016446160826E-16));
#1122=DIRECTION('',(-1.,-1.65145233785394E-30,-7.93016446160826E-16));
#1123=DIRECTION('',(-1.65145233785394E-30,1.,0.));
#1124=DIRECTION('',(1.,1.65145233785394E-30,0.));
#1125=DIRECTION('',(-1.,-1.65145233785394E-30,-7.93016446160826E-16));
#1126=DIRECTION('',(7.93016446160826E-16,0.,-1.));
#1127=DIRECTION('',(-1.,0.,-7.93016446160826E-16));
#1128=DIRECTION('',(-1.,-1.65145233785394E-30,-7.93016446160826E-16));
#1129=DIRECTION('',(-1.65145233785394E-30,1.,0.));
#1130=DIRECTION('',(1.,1.65145233785394E-30,0.));
#1131=DIRECTION('',(-1.,-1.65145233785394E-30,-7.93016446160826E-16));
#1132=DIRECTION('',(-7.93016446160826E-16,0.,1.));
#1133=DIRECTION('',(-1.,-1.65145233785394E-30,-7.93016446160826E-16));
#1134=DIRECTION('',(-7.93016446160826E-16,0.,1.));
#1135=DIRECTION('',(-1.65145233785394E-30,1.,0.));
#1136=DIRECTION('',(1.,1.65145233785394E-30,0.));
#1137=DIRECTION('',(-1.,-1.65145233785394E-30,-7.93016446160826E-16));
#1138=DIRECTION('',(-1.,-1.65145233785394E-30,-7.93016446160826E-16));
#1139=DIRECTION('',(-7.93016446160826E-16,0.,1.));
#1140=DIRECTION('',(1.,0.,7.93016446160826E-16));
#1141=DIRECTION('',(-1.,-1.65145233785394E-30,-7.93016446160826E-16));
#1142=DIRECTION('',(-1.,-1.65145233785394E-30,-7.93016446160826E-16));
#1143=DIRECTION('',(-1.65145233785394E-30,1.,0.));
#1144=DIRECTION('',(1.,1.65145233785394E-30,0.));
#1145=DIRECTION('',(-1.,-1.65145233785394E-30,-7.93016446160826E-16));
#1146=DIRECTION('',(-1.,-1.65145233785394E-30,-7.93016446160826E-16));
#1147=DIRECTION('',(-7.93016446160826E-16,0.,1.));
#1148=DIRECTION('',(1.,0.,7.93016446160826E-16));
#1149=DIRECTION('',(-1.,-1.65145233785394E-30,-7.93016446160826E-16));
#1150=DIRECTION('',(-1.,-1.65145233785394E-30,-7.93016446160826E-16));
#1151=DIRECTION('',(8.76491861546176E-16,9.01785410636717E-16,-1.));
#1152=DIRECTION('',(0.,1.,9.01785410636717E-16));
#1153=DIRECTION('',(0.707106781186548,6.37658579036319E-16,-0.707106781186547));
#1154=DIRECTION('',(0.707106781186547,-6.37658579036317E-16,0.707106781186548));
#1155=DIRECTION('',(-0.707106781186547,6.37658579036317E-16,-0.707106781186548));
#1156=DIRECTION('',(-0.707106781186548,-6.37658579036319E-16,0.707106781186547));
#1157=DIRECTION('',(-1.,-1.75361386093148E-30,-6.79728382423565E-16));
#1158=DIRECTION('',(-6.79728382423565E-16,0.,1.));
#1159=DIRECTION('',(-0.707106781186548,-6.37658579036319E-16,0.707106781186547));
#1160=DIRECTION('',(0.707106781186547,-6.37658579036317E-16,0.707106781186548));
#1161=DIRECTION('',(1.,1.7280734801621E-30,7.0805039835788E-16));
#1162=DIRECTION('',(7.0805039835788E-16,0.,-1.));
#1163=DIRECTION('',(0.707106781186547,-6.37658579036317E-16,0.707106781186548));
#1164=DIRECTION('',(-0.707106781186548,-6.37658579036319E-16,0.707106781186547));
#1165=DIRECTION('',(-8.76491861546176E-16,-9.01785410636717E-16,1.));
#1166=DIRECTION('',(0.,-1.,-9.01785410636717E-16));
#1167=DIRECTION('',(-8.76491861546176E-16,-9.01785410636717E-16,1.));
#1168=DIRECTION('',(1.,1.65145233785394E-30,7.93016446160826E-16));
#1169=DIRECTION('',(7.93016446160826E-16,0.,-1.));
#1170=DIRECTION('',(-1.,-1.65145233785394E-30,-7.93016446160826E-16));
#1171=DIRECTION('',(-7.93016446160826E-16,0.,1.));
#1172=DIRECTION('',(1.,1.65145233785394E-30,7.93016446160826E-16));
#1173=DIRECTION('',(7.93016446160826E-16,0.,-1.));
#1174=DIRECTION('',(-1.,-1.65145233785394E-30,-7.93016446160826E-16));
#1175=DIRECTION('',(-7.93016446160826E-16,0.,1.));
#1176=DIRECTION('',(2.36658299939675E-30,-1.,-9.01785410636717E-16));
#1177=DIRECTION('',(0.,9.01785410636717E-16,-1.));
#1178=DIRECTION('',(-1.,-1.57617542611259E-30,-8.76491861546176E-16));
#1179=DIRECTION('',(-8.76491861546176E-16,-9.01785410636717E-16,1.));
#1180=DIRECTION('',(-1.,-1.57617542611259E-30,-8.76491861546176E-16));
#1181=DIRECTION('',(8.76491861546176E-16,0.,-1.));
#1182=DIRECTION('',(-1.,0.,-8.76491861546176E-16));
#1183=DIRECTION('',(-1.,-1.57617542611259E-30,-8.76491861546176E-16));
#1184=DIRECTION('',(1.57617542611259E-30,-1.,1.38150493335676E-45));
#1185=DIRECTION('',(3.09664643483936E-30,-1.,-1.73472347597681E-15));
#1186=DIRECTION('',(0.,1.73472347597681E-15,-1.));
#1187=DIRECTION('',(-8.76491861546176E-16,0.,1.));
#1188=DIRECTION('',(-1.,-1.57617542611259E-30,-8.76491861546176E-16));
#1189=DIRECTION('',(-8.76491861546176E-16,-1.73472347597681E-15,1.));
#1190=DIRECTION('',(1.,1.57617542611259E-30,8.76491861546176E-16));
#1191=DIRECTION('',(8.76491861546176E-16,1.38150493335676E-45,-1.));
#1192=DIRECTION('',(1.57617542611259E-30,-1.,1.38150493335676E-45));
#1193=DIRECTION('',(-1.,0.,-8.76491861546176E-16));
#1194=DIRECTION('',(-8.76491861546176E-16,0.,1.));
#1195=DIRECTION('',(-8.76491861546176E-16,0.,1.));
#1196=DIRECTION('',(0.,-1.,0.));
#1197=DIRECTION('',(0.,-1.,0.));
#1198=DIRECTION('',(-1.,0.,0.));
#1199=DIRECTION('',(1.,0.,8.76491861546176E-16));
#1200=DIRECTION('',(8.76491861546176E-16,0.,-1.));
#1201=DIRECTION('',(-1.,0.,-8.76491861546176E-16));
#1202=CARTESIAN_POINT('',(0.,0.,0.));
#1203=CARTESIAN_POINT('',(-0.359015370278693,0.1435,-0.109));
#1204=CARTESIAN_POINT('',(-0.384015370278693,0.192,-0.109));
#1205=CARTESIAN_POINT('',(-0.404015370278693,0.192,-0.109));
#1206=CARTESIAN_POINT('',(-0.364015370278693,0.192,-0.109));
#1207=CARTESIAN_POINT('',(-0.364015370278693,0.141,-0.109));
#1208=CARTESIAN_POINT('',(-0.364015370278693,0.09,-0.109));
#1209=CARTESIAN_POINT('',(-0.359015370278693,0.09,-0.109));
#1210=CARTESIAN_POINT('',(-0.404015370278693,0.09,-0.109));
#1211=CARTESIAN_POINT('',(-0.404015370278693,0.1435,-0.109));
#1212=CARTESIAN_POINT('',(-0.404015370278693,0.2,-0.069));
#1213=CARTESIAN_POINT('',(-0.404015370278693,0.182,-0.0125));
#1214=CARTESIAN_POINT('',(-0.404015370278693,0.182,-0.015));
#1215=CARTESIAN_POINT('',(-0.404015370278693,0.141,-0.0125));
#1216=CARTESIAN_POINT('',(-0.404015370278693,0.141,-0.015));
#1217=CARTESIAN_POINT('',(-0.404015370278693,0.148,-0.069));
#1218=CARTESIAN_POINT('',(-0.404015370278693,0.148,-0.036));
#1219=CARTESIAN_POINT('',(-0.404015370278693,0.148,0.011));
#1220=CARTESIAN_POINT('',(-0.404015370278693,0.2,0.011));
#1221=CARTESIAN_POINT('',(-0.404015370278693,0.175,0.011));
#1222=CARTESIAN_POINT('',(-0.404015370278693,0.175,-0.069));
#1223=CARTESIAN_POINT('',(-0.404015370278693,0.175,-0.036));
#1224=CARTESIAN_POINT('',(-0.404015370278693,0.2,-0.036));
#1225=CARTESIAN_POINT('',(-0.404015370278693,0.185,-0.069));
#1226=CARTESIAN_POINT('',(-0.404015370278693,0.185,-0.156));
#1227=CARTESIAN_POINT('',(-0.404015370278693,0.185,-0.117));
#1228=CARTESIAN_POINT('',(-0.404015370278693,0.182,-0.156));
#1229=CARTESIAN_POINT('',(-0.404015370278693,0.182,-0.159));
#1230=CARTESIAN_POINT('',(-0.404015370278693,0.2,-0.159));
#1231=CARTESIAN_POINT('',(-0.404015370278693,0.143,-0.159));
#1232=CARTESIAN_POINT('',(-0.404015370278693,0.143,-0.156));
#1233=CARTESIAN_POINT('',(-0.404015370278693,0.14,-0.156));
#1234=CARTESIAN_POINT('',(-0.404015370278693,0.14,-0.069));
#1235=CARTESIAN_POINT('',(-0.404015370278693,0.14,-0.117));
#1236=CARTESIAN_POINT('',(-0.404015370278693,0.143,-0.117));
#1237=CARTESIAN_POINT('',(-0.404015370278693,0.143,-0.114));
#1238=CARTESIAN_POINT('',(-0.404015370278693,0.2,-0.114));
#1239=CARTESIAN_POINT('',(-0.404015370278693,0.182,-0.114));
#1240=CARTESIAN_POINT('',(-0.404015370278693,0.182,-0.117));
#1241=CARTESIAN_POINT('',(-0.404015370278693,0.197,-0.069));
#1242=CARTESIAN_POINT('',(-0.404015370278693,0.197,-0.164));
#1243=CARTESIAN_POINT('',(-0.404015370278693,0.197,-0.139));
#1244=CARTESIAN_POINT('',(-0.404015370278693,0.1435,-0.139));
#1245=CARTESIAN_POINT('',(-0.404015370278693,0.192,-0.139));
#1246=CARTESIAN_POINT('',(-0.404015370278693,0.192,-0.139));
#1247=CARTESIAN_POINT('',(-0.404015370278693,0.09,-0.105));
#1248=CARTESIAN_POINT('',(-0.404015370278693,0.09,-0.101));
#1249=CARTESIAN_POINT('',(-0.404015370278693,0.1435,-0.101));
#1250=CARTESIAN_POINT('',(-0.404015370278693,0.197,-0.101));
#1251=CARTESIAN_POINT('',(-0.404015370278693,0.197,-0.069));
#1252=CARTESIAN_POINT('',(-0.404015370278693,0.197,0.026));
#1253=CARTESIAN_POINT('',(-0.404015370278693,0.2,0.026));
#1254=CARTESIAN_POINT('',(-0.404015370278693,0.05,0.026));
#1255=CARTESIAN_POINT('',(-0.404015370278693,0.05,-0.069));
#1256=CARTESIAN_POINT('',(-0.404015370278693,0.05,-0.164));
#1257=CARTESIAN_POINT('',(-0.404015370278693,0.2,-0.164));
#1258=CARTESIAN_POINT('',(-0.414015370278693,0.05,-0.069));
#1259=CARTESIAN_POINT('',(-0.414015370278693,0.1615,0.011));
#1260=CARTESIAN_POINT('',(-0.414015370278693,0.175,0.011));
#1261=CARTESIAN_POINT('',(-0.414015370278693,0.148,0.011));
#1262=CARTESIAN_POINT('',(-0.414015370278693,0.148,-0.0125));
#1263=CARTESIAN_POINT('',(-0.414015370278693,0.148,-0.036));
#1264=CARTESIAN_POINT('',(-0.414015370278693,0.1615,-0.036));
#1265=CARTESIAN_POINT('',(-0.414015370278693,0.175,-0.036));
#1266=CARTESIAN_POINT('',(-0.414015370278693,0.175,-0.0125));
#1267=CARTESIAN_POINT('',(-0.414015370278693,0.03,-0.069));
#1268=CARTESIAN_POINT('',(-0.414015370278693,0.03,-0.174));
#1269=CARTESIAN_POINT('',(-0.414015370278693,0.03,0.036));
#1270=CARTESIAN_POINT('',(-0.414015370278693,0.05,0.036));
#1271=CARTESIAN_POINT('',(-0.414015370278693,0.2,0.036));
#1272=CARTESIAN_POINT('',(-0.414015370278693,0.2,-0.069));
#1273=CARTESIAN_POINT('',(-0.414015370278693,0.2,-0.174));
#1274=CARTESIAN_POINT('',(-0.414015370278693,0.05,-0.174));
#1275=CARTESIAN_POINT('',(-0.414015370278693,0.141,-0.0125));
#1276=CARTESIAN_POINT('',(-0.414015370278693,0.141,-0.01));
#1277=CARTESIAN_POINT('',(-0.414015370278693,0.182,-0.0125));
#1278=CARTESIAN_POINT('',(-0.414015370278693,0.182,-0.01));
#1279=CARTESIAN_POINT('',(-0.414015370278693,0.1625,-0.114));
#1280=CARTESIAN_POINT('',(-0.414015370278693,0.143,-0.114));
#1281=CARTESIAN_POINT('',(-0.414015370278693,0.182,-0.114));
#1282=CARTESIAN_POINT('',(-0.414015370278693,0.143,-0.117));
#1283=CARTESIAN_POINT('',(-0.414015370278693,0.14,-0.117));
#1284=CARTESIAN_POINT('',(-0.414015370278693,0.14,-0.1365));
#1285=CARTESIAN_POINT('',(-0.414015370278693,0.14,-0.156));
#1286=CARTESIAN_POINT('',(-0.414015370278693,0.143,-0.156));
#1287=CARTESIAN_POINT('',(-0.414015370278693,0.143,-0.159));
#1288=CARTESIAN_POINT('',(-0.414015370278693,0.1625,-0.159));
#1289=CARTESIAN_POINT('',(-0.414015370278693,0.182,-0.159));
#1290=CARTESIAN_POINT('',(-0.414015370278693,0.182,-0.156));
#1291=CARTESIAN_POINT('',(-0.414015370278693,0.185,-0.156));
#1292=CARTESIAN_POINT('',(-0.414015370278693,0.185,-0.1365));
#1293=CARTESIAN_POINT('',(-0.414015370278693,0.185,-0.117));
#1294=CARTESIAN_POINT('',(-0.414015370278693,0.182,-0.117));
#1295=CARTESIAN_POINT('',(-0.184015370278693,-1.16106014873669,-0.0200000000000012));
#1296=CARTESIAN_POINT('',(-0.184015370278693,0.03,-0.02));
#1297=CARTESIAN_POINT('',(-0.184015370278693,0.03,-0.01725));
#1298=CARTESIAN_POINT('',(-0.184015370278693,0.044,-0.02));
#1299=CARTESIAN_POINT('',(-0.184015370278693,0.044,-0.01725));
#1300=CARTESIAN_POINT('',(-0.379015370278693,-1.16106014873669,0.0199999999999987));
#1301=CARTESIAN_POINT('',(-0.379015370278693,0.03,0.02));
#1302=CARTESIAN_POINT('',(-0.379015370278693,0.03,0.02275));
#1303=CARTESIAN_POINT('',(-0.379015370278693,0.044,0.02));
#1304=CARTESIAN_POINT('',(-0.379015370278693,0.044,0.02275));
#1305=CARTESIAN_POINT('',(-0.379015370278693,-1.16106014873669,-0.0200000000000012));
#1306=CARTESIAN_POINT('',(-0.379015370278693,0.03,-0.02));
#1307=CARTESIAN_POINT('',(-0.379015370278693,0.03,-0.01725));
#1308=CARTESIAN_POINT('',(-0.379015370278693,0.044,-0.02));
#1309=CARTESIAN_POINT('',(-0.379015370278693,0.044,-0.01725));
#1310=CARTESIAN_POINT('',(-0.184015370278693,-1.16106014873669,0.0199999999999987));
#1311=CARTESIAN_POINT('',(-0.184015370278693,0.03,0.02));
#1312=CARTESIAN_POINT('',(-0.184015370278693,0.03,0.02275));
#1313=CARTESIAN_POINT('',(-0.184015370278693,0.044,0.02));
#1314=CARTESIAN_POINT('',(-0.184015370278693,0.044,0.02275));
#1315=CARTESIAN_POINT('',(-0.281515370278693,0.05,-0.174));
#1316=CARTESIAN_POINT('',(-0.281515370278693,0.03,-0.174));
#1317=CARTESIAN_POINT('',(-0.149015370278693,0.03,-0.174));
#1318=CARTESIAN_POINT('',(-0.281515370278693,0.2,-0.174));
#1319=CARTESIAN_POINT('',(-0.149015370278693,0.2,-0.174));
#1320=CARTESIAN_POINT('',(-0.149015370278693,0.05,-0.174));
#1321=CARTESIAN_POINT('',(-0.281515370278693,0.05,0.036));
#1322=CARTESIAN_POINT('',(-0.281515370278693,0.03,0.036));
#1323=CARTESIAN_POINT('',(-0.149015370278693,0.03,0.036));
#1324=CARTESIAN_POINT('',(-0.149015370278693,0.05,0.036));
#1325=CARTESIAN_POINT('',(-0.149015370278693,0.2,0.036));
#1326=CARTESIAN_POINT('',(-0.281515370278693,0.2,0.036));
#1327=CARTESIAN_POINT('',(-0.149015370278693,0.05,-0.069));
#1328=CARTESIAN_POINT('',(-0.149015370278693,0.03,-0.069));
#1329=CARTESIAN_POINT('',(-0.149015370278693,0.2,-0.069));
#1330=CARTESIAN_POINT('',(-0.0795730782891992,0.03,-0.0119724031798543));
#1331=CARTESIAN_POINT('',(-0.281515370278693,0.2,-0.164));
#1332=CARTESIAN_POINT('',(-0.159015370278693,0.2,-0.164));
#1333=CARTESIAN_POINT('',(-0.159015370278693,0.197,-0.164));
#1334=CARTESIAN_POINT('',(-0.159015370278693,0.05,-0.164));
#1335=CARTESIAN_POINT('',(-0.404015370278693,0.197,-0.164));
#1336=CARTESIAN_POINT('',(-0.281515370278693,0.05,-0.164));
#1337=CARTESIAN_POINT('',(-0.159015370278693,0.2,-0.069));
#1338=CARTESIAN_POINT('',(-0.159015370278693,0.2,0.026));
#1339=CARTESIAN_POINT('',(-0.159015370278693,0.197,0.026));
#1340=CARTESIAN_POINT('',(-0.159015370278693,0.05,0.026));
#1341=CARTESIAN_POINT('',(-0.159015370278693,0.197,-0.164));
#1342=CARTESIAN_POINT('',(-0.159015370278693,0.05,-0.069));
#1343=CARTESIAN_POINT('',(-0.281515370278693,0.2,0.026));
#1344=CARTESIAN_POINT('',(-0.281515370278693,0.197,0.026));
#1345=CARTESIAN_POINT('',(-0.281515370278693,0.05,0.026));
#1346=CARTESIAN_POINT('',(-0.0795730782891992,0.2,-0.0119724031798541));
#1347=CARTESIAN_POINT('',(-0.0795730782891992,0.2,0.029));
#1348=CARTESIAN_POINT('',(-0.156015370278693,0.2,0.029));
#1349=CARTESIAN_POINT('',(-0.407015370278693,0.2,0.029));
#1350=CARTESIAN_POINT('',(-0.407015370278693,0.2,-0.0119724031798544));
#1351=CARTESIAN_POINT('',(-0.407015370278693,0.2,-0.167));
#1352=CARTESIAN_POINT('',(-0.159015370278693,0.2,-0.167));
#1353=CARTESIAN_POINT('',(-0.156015370278693,0.2,-0.167));
#1354=CARTESIAN_POINT('',(-0.156015370278693,0.2,0.026));
#1355=CARTESIAN_POINT('',(-0.0795730782891992,0.05,-0.0119724031798542));
#1356=CARTESIAN_POINT('',(-0.379015370278693,0.05,0.02));
#1357=CARTESIAN_POINT('',(-0.379015370278693,0.05,0.0245));
#1358=CARTESIAN_POINT('',(-0.184015370278693,0.05,-0.02));
#1359=CARTESIAN_POINT('',(-0.184015370278693,0.05,-0.0155));
#1360=CARTESIAN_POINT('',(-0.184015370278693,0.05,0.02));
#1361=CARTESIAN_POINT('',(-0.184015370278693,0.05,0.0245));
#1362=CARTESIAN_POINT('',(-0.379015370278693,0.05,-0.02));
#1363=CARTESIAN_POINT('',(-0.379015370278693,0.05,-0.0155));
#1364=CARTESIAN_POINT('',(-0.184015370278693,0.044,0.02));
#1365=CARTESIAN_POINT('',(-0.184015370278693,0.044,0.02));
#1366=CARTESIAN_POINT('',(-0.184015370278693,0.044,0.0245));
#1367=CARTESIAN_POINT('',(0.0874923148606531,0.044,-0.069));
#1368=CARTESIAN_POINT('',(-0.379015370278693,0.044,-0.02));
#1369=CARTESIAN_POINT('',(-0.379015370278693,0.044,-0.02));
#1370=CARTESIAN_POINT('',(-0.379015370278693,0.044,-0.0155));
#1371=CARTESIAN_POINT('',(0.0874923148606531,0.044,-0.069));
#1372=CARTESIAN_POINT('',(-0.379015370278693,0.044,0.02));
#1373=CARTESIAN_POINT('',(-0.379015370278693,0.044,0.02));
#1374=CARTESIAN_POINT('',(-0.379015370278693,0.044,0.0245));
#1375=CARTESIAN_POINT('',(0.0874923148606531,0.044,-0.069));
#1376=CARTESIAN_POINT('',(-0.184015370278693,0.044,-0.02));
#1377=CARTESIAN_POINT('',(-0.184015370278693,0.044,-0.02));
#1378=CARTESIAN_POINT('',(-0.184015370278693,0.044,-0.0155));
#1379=CARTESIAN_POINT('',(0.0874923148606531,0.044,-0.069));
#1380=CARTESIAN_POINT('',(-0.389015370278693,0.1615,0.011));
#1381=CARTESIAN_POINT('',(-0.389015370278693,0.148,0.011));
#1382=CARTESIAN_POINT('',(-0.389015370278693,0.175,0.011));
#1383=CARTESIAN_POINT('',(-0.389015370278693,0.175,-0.0125));
#1384=CARTESIAN_POINT('',(-0.389015370278693,0.175,-0.036));
#1385=CARTESIAN_POINT('',(-0.389015370278693,0.1615,-0.036));
#1386=CARTESIAN_POINT('',(-0.389015370278693,0.148,-0.036));
#1387=CARTESIAN_POINT('',(-0.389015370278693,0.148,-0.0125));
#1388=CARTESIAN_POINT('',(-0.389015370278693,0.141,-0.0125));
#1389=CARTESIAN_POINT('',(-0.389015370278693,0.182,-0.0125));
#1390=CARTESIAN_POINT('',(-0.389015370278693,0.14,-0.1365));
#1391=CARTESIAN_POINT('',(-0.414015370278693,0.14,-0.156));
#1392=CARTESIAN_POINT('',(-0.389015370278693,0.14,-0.117));
#1393=CARTESIAN_POINT('',(-0.389015370278693,0.1625,-0.114));
#1394=CARTESIAN_POINT('',(-0.389015370278693,0.143,-0.114));
#1395=CARTESIAN_POINT('',(-0.404015370278693,0.182,-0.114));
#1396=CARTESIAN_POINT('',(-0.389015370278693,0.185,-0.1365));
#1397=CARTESIAN_POINT('',(-0.414015370278693,0.185,-0.117));
#1398=CARTESIAN_POINT('',(-0.389015370278693,0.185,-0.156));
#1399=CARTESIAN_POINT('',(-0.389015370278693,0.1625,-0.159));
#1400=CARTESIAN_POINT('',(-0.404015370278693,0.143,-0.159));
#1401=CARTESIAN_POINT('',(-0.389015370278693,0.182,-0.159));
#1402=CARTESIAN_POINT('',(-0.156015370278693,0.197,-0.0119724031798542));
#1403=CARTESIAN_POINT('',(-0.156015370278693,0.197,0.029));
#1404=CARTESIAN_POINT('',(-0.156015370278693,0.197,-0.167));
#1405=CARTESIAN_POINT('',(-0.0795730782891991,0.197,-0.167));
#1406=CARTESIAN_POINT('',(-0.407015370278693,0.197,-0.167));
#1407=CARTESIAN_POINT('',(-0.281515370278693,0.197,0.029));
#1408=CARTESIAN_POINT('',(-0.407015370278693,0.197,0.029));
#1409=CARTESIAN_POINT('',(-0.407015370278693,0.197,-0.069));
#1410=CARTESIAN_POINT('',(-0.404015370278693,0.197,-0.069));
#1411=CARTESIAN_POINT('',(-0.389015370278693,0.143,-0.156));
#1412=CARTESIAN_POINT('',(-0.389015370278693,0.143,-0.117));
#1413=CARTESIAN_POINT('',(-0.389015370278693,0.182,-0.117));
#1414=CARTESIAN_POINT('',(-0.389015370278693,0.182,-0.156));
#1415=CARTESIAN_POINT('',(-0.359015370278693,0.197,-0.069));
#1416=CARTESIAN_POINT('',(-0.359015370278693,0.197,-0.101));
#1417=CARTESIAN_POINT('',(-0.359015370278693,0.197,-0.101));
#1418=CARTESIAN_POINT('',(-0.359015370278693,0.197,-0.069));
#1419=CARTESIAN_POINT('',(-0.359015370278693,0.197,-0.139));
#1420=CARTESIAN_POINT('',(-0.359015370278693,0.197,-0.139));
#1421=CARTESIAN_POINT('',(-0.359015370278693,0.1435,-0.101));
#1422=CARTESIAN_POINT('',(-0.359015370278693,0.09,-0.101));
#1423=CARTESIAN_POINT('',(-0.359015370278693,0.09,-0.101));
#1424=CARTESIAN_POINT('',(-0.359015370278693,0.1435,-0.101));
#1425=CARTESIAN_POINT('',(-0.359015370278693,0.09,-0.105));
#1426=CARTESIAN_POINT('',(-0.364015370278693,0.09,-0.139));
#1427=CARTESIAN_POINT('',(-0.364015370278693,0.09,-0.139));
#1428=CARTESIAN_POINT('',(-0.359015370278693,0.09,-0.139));
#1429=CARTESIAN_POINT('',(-0.359015370278693,0.09,-0.139));
#1430=CARTESIAN_POINT('',(-0.359015370278693,0.09,-0.105));
#1431=CARTESIAN_POINT('',(-0.359015370278693,0.1235,-0.069));
#1432=CARTESIAN_POINT('',(-0.359015370278693,0.1435,-0.139));
#1433=CARTESIAN_POINT('',(-0.364015370278693,0.141,-0.139));
#1434=CARTESIAN_POINT('',(-0.364015370278693,0.192,-0.139));
#1435=CARTESIAN_POINT('',(-0.364015370278693,0.192,-0.139));
#1436=CARTESIAN_POINT('',(-0.364015370278693,0.141,-0.139));
#1437=CARTESIAN_POINT('',(-0.384015370278693,0.192,-0.139));
#1438=CARTESIAN_POINT('',(-0.384015370278693,0.192,-0.139));
#1439=CARTESIAN_POINT('',(-0.381515370278693,0.1435,-0.139));
#1440=MECHANICAL_DESIGN_GEOMETRIC_PRESENTATION_REPRESENTATION('',(#867),
#1441);
#1441=(
GEOMETRIC_REPRESENTATION_CONTEXT(3)
GLOBAL_UNCERTAINTY_ASSIGNED_CONTEXT((#1442))
GLOBAL_UNIT_ASSIGNED_CONTEXT((#1445,#1444,#1443))
REPRESENTATION_CONTEXT('ElectricalBox','TOP_LEVEL_ASSEMBLY_PART')
);
#1442=UNCERTAINTY_MEASURE_WITH_UNIT(LENGTH_MEASURE(1.E-8),#1445,
'DISTANCE_ACCURACY_VALUE','Maximum Tolerance applied to model');
#1443=(
NAMED_UNIT(*)
SI_UNIT($,.STERADIAN.)
SOLID_ANGLE_UNIT()
);
#1444=(
NAMED_UNIT(*)
PLANE_ANGLE_UNIT()
SI_UNIT($,.RADIAN.)
);
#1445=(
LENGTH_UNIT()
NAMED_UNIT(*)
SI_UNIT($,.METRE.)
);
#1446=PRODUCT_DEFINITION_SHAPE('','',#1447);
#1447=PRODUCT_DEFINITION('','',#1449,#1448);
#1448=PRODUCT_DEFINITION_CONTEXT('',#1455,'design');
#1449=PRODUCT_DEFINITION_FORMATION_WITH_SPECIFIED_SOURCE('','',#1451,
 .NOT_KNOWN.);
#1450=PRODUCT_RELATED_PRODUCT_CATEGORY('','',(#1451));
#1451=PRODUCT('ElectricalBox','ElectricalBox','ElectricalBox',(#1453));
#1452=PRODUCT_CATEGORY('','');
#1453=PRODUCT_CONTEXT('',#1455,'mechanical');
#1454=APPLICATION_PROTOCOL_DEFINITION('international standard',
'ap242_managed_model_based_3d_engineering',2020,#1455);
#1455=APPLICATION_CONTEXT('managed model based 3d engineering');
ENDSEC;
END-ISO-10303-21;
