ISO-10303-21;
HEADER;
/* Generated by software containing ST-Developer
 * from STEP Tools, Inc. (www.steptools.com) 
 */
/* OPTION: using custom renumber hook */

FILE_DESCRIPTION(
/* description */ ('STEP AP242 Edition 2',
'CAx-IF Rec.Pracs.---Representation and Presentation of Product Manufa
cturing Information (PMI)---4.0---2014-10-13',
'CAx-IF Rec.Pracs.---3D Tessellated Geometry---0.4---2014-09-14','2;1',
'CAx-IF Rec.Pracs.---User Defined Attributes---1.5---2016-08-15'),
/* implementation_level */ '2;1');

FILE_NAME(
/* name */ 'Router - BallScrewHolder0',
/* time_stamp */ '2026-08-08T09:25:06Z',
/* author */ (''),
/* organization */ (''),
/* preprocessor_version */ 'ST-DEVELOPER v20',
/* originating_system */ 'ONSHAPE BY PTC INC, 1.219',
/* authorisation */ '  ');

FILE_SCHEMA (('AP242_MANAGED_MODEL_BASED_3D_ENGINEERING_MIM_LF { 1 0 10303 442 3 1 4 }'));
ENDSEC;

DATA;
#10=SHAPE_REPRESENTATION_RELATIONSHIP('','',#1144,#11);
#11=ADVANCED_BREP_SHAPE_REPRESENTATION('',(#1142),#1867);
#12=ELLIPSE('',#1201,0.00279329554469266,0.002);
#13=ELLIPSE('',#1202,0.00279329554469266,0.002);
#14=ELLIPSE('',#1239,0.00282842712474619,0.002);
#15=ELLIPSE('',#1241,0.00215916749759876,0.002);
#16=ELLIPSE('',#1244,0.00215916749759876,0.002);
#17=ELLIPSE('',#1246,0.00282842712474619,0.002);
#18=CONICAL_SURFACE('',#1193,0.00275,0.785398163397511);
#19=CONICAL_SURFACE('',#1194,0.00275,0.785398163397377);
#20=CONICAL_SURFACE('',#1195,0.00275,0.785398163397446);
#21=CONICAL_SURFACE('',#1196,0.00275,0.785398163397657);
#22=CONICAL_SURFACE('',#1197,0.00275,0.785398163397622);
#23=CONICAL_SURFACE('',#1198,0.00275,0.785398163397691);
#24=CONICAL_SURFACE('',#1199,0.00275,0.785398163397691);
#25=CYLINDRICAL_SURFACE('',#1166,0.00265);
#26=CYLINDRICAL_SURFACE('',#1168,0.00265);
#27=CYLINDRICAL_SURFACE('',#1179,0.00265);
#28=CYLINDRICAL_SURFACE('',#1181,0.00265);
#29=CYLINDRICAL_SURFACE('',#1183,0.00445);
#30=CYLINDRICAL_SURFACE('',#1185,0.00445);
#31=CYLINDRICAL_SURFACE('',#1187,0.00275);
#32=CYLINDRICAL_SURFACE('',#1189,0.00275);
#33=CYLINDRICAL_SURFACE('',#1191,0.00275);
#34=CYLINDRICAL_SURFACE('',#1219,0.00175);
#35=CYLINDRICAL_SURFACE('',#1221,0.00175);
#36=CYLINDRICAL_SURFACE('',#1223,0.00175);
#37=CYLINDRICAL_SURFACE('',#1225,0.0175);
#38=CYLINDRICAL_SURFACE('',#1227,0.00175);
#39=CYLINDRICAL_SURFACE('',#1238,0.002);
#40=CYLINDRICAL_SURFACE('',#1240,0.002);
#41=CYLINDRICAL_SURFACE('',#1242,0.002);
#42=CYLINDRICAL_SURFACE('',#1243,0.002);
#43=CYLINDRICAL_SURFACE('',#1245,0.002);
#44=CYLINDRICAL_SURFACE('',#1247,0.002);
#45=CYLINDRICAL_SURFACE('',#1248,0.01);
#46=LINE('',#1561,#146);
#47=LINE('',#1564,#147);
#48=LINE('',#1566,#148);
#49=LINE('',#1568,#149);
#50=LINE('',#1570,#150);
#51=LINE('',#1572,#151);
#52=LINE('',#1574,#152);
#53=LINE('',#1576,#153);
#54=LINE('',#1578,#154);
#55=LINE('',#1580,#155);
#56=LINE('',#1582,#156);
#57=LINE('',#1584,#157);
#58=LINE('',#1604,#158);
#59=LINE('',#1607,#159);
#60=LINE('',#1609,#160);
#61=LINE('',#1611,#161);
#62=LINE('',#1613,#162);
#63=LINE('',#1615,#163);
#64=LINE('',#1617,#164);
#65=LINE('',#1619,#165);
#66=LINE('',#1623,#166);
#67=LINE('',#1627,#167);
#68=LINE('',#1631,#168);
#69=LINE('',#1633,#169);
#70=LINE('',#1635,#170);
#71=LINE('',#1637,#171);
#72=LINE('',#1640,#172);
#73=LINE('',#1642,#173);
#74=LINE('',#1643,#174);
#75=LINE('',#1645,#175);
#76=LINE('',#1649,#176);
#77=LINE('',#1651,#177);
#78=LINE('',#1653,#178);
#79=LINE('',#1655,#179);
#80=LINE('',#1657,#180);
#81=LINE('',#1667,#181);
#82=LINE('',#1669,#182);
#83=LINE('',#1671,#183);
#84=LINE('',#1672,#184);
#85=LINE('',#1675,#185);
#86=LINE('',#1677,#186);
#87=LINE('',#1679,#187);
#88=LINE('',#1681,#188);
#89=LINE('',#1682,#189);
#90=LINE('',#1684,#190);
#91=LINE('',#1686,#191);
#92=LINE('',#1688,#192);
#93=LINE('',#1690,#193);
#94=LINE('',#1692,#194);
#95=LINE('',#1699,#195);
#96=LINE('',#1704,#196);
#97=LINE('',#1706,#197);
#98=LINE('',#1709,#198);
#99=LINE('',#1711,#199);
#100=LINE('',#1713,#200);
#101=LINE('',#1714,#201);
#102=LINE('',#1717,#202);
#103=LINE('',#1718,#203);
#104=LINE('',#1719,#204);
#105=LINE('',#1722,#205);
#106=LINE('',#1724,#206);
#107=LINE('',#1725,#207);
#108=LINE('',#1727,#208);
#109=LINE('',#1729,#209);
#110=LINE('',#1731,#210);
#111=LINE('',#1732,#211);
#112=LINE('',#1734,#212);
#113=LINE('',#1736,#213);
#114=LINE('',#1738,#214);
#115=LINE('',#1740,#215);
#116=LINE('',#1770,#216);
#117=LINE('',#1771,#217);
#118=LINE('',#1775,#218);
#119=LINE('',#1778,#219);
#120=LINE('',#1779,#220);
#121=LINE('',#1781,#221);
#122=LINE('',#1782,#222);
#123=LINE('',#1784,#223);
#124=LINE('',#1785,#224);
#125=LINE('',#1787,#225);
#126=LINE('',#1790,#226);
#127=LINE('',#1791,#227);
#128=LINE('',#1793,#228);
#129=LINE('',#1794,#229);
#130=LINE('',#1796,#230);
#131=LINE('',#1797,#231);
#132=LINE('',#1803,#232);
#133=LINE('',#1805,#233);
#134=LINE('',#1806,#234);
#135=LINE('',#1808,#235);
#136=LINE('',#1809,#236);
#137=LINE('',#1811,#237);
#138=LINE('',#1812,#238);
#139=LINE('',#1814,#239);
#140=LINE('',#1841,#240);
#141=LINE('',#1842,#241);
#142=LINE('',#1844,#242);
#143=LINE('',#1847,#243);
#144=LINE('',#1850,#244);
#145=LINE('',#1853,#245);
#146=VECTOR('',#1255,1.);
#147=VECTOR('',#1256,1.);
#148=VECTOR('',#1257,1.);
#149=VECTOR('',#1258,1.);
#150=VECTOR('',#1259,1.);
#151=VECTOR('',#1260,1.);
#152=VECTOR('',#1261,1.);
#153=VECTOR('',#1262,1.);
#154=VECTOR('',#1263,1.);
#155=VECTOR('',#1264,1.);
#156=VECTOR('',#1265,1.);
#157=VECTOR('',#1266,1.);
#158=VECTOR('',#1287,1.);
#159=VECTOR('',#1288,1.);
#160=VECTOR('',#1289,1.);
#161=VECTOR('',#1290,1.);
#162=VECTOR('',#1291,1.);
#163=VECTOR('',#1292,1.);
#164=VECTOR('',#1293,1.);
#165=VECTOR('',#1294,1.);
#166=VECTOR('',#1297,1.);
#167=VECTOR('',#1300,1.);
#168=VECTOR('',#1305,1.);
#169=VECTOR('',#1306,1.);
#170=VECTOR('',#1307,1.);
#171=VECTOR('',#1310,1.);
#172=VECTOR('',#1311,1.);
#173=VECTOR('',#1312,1.);
#174=VECTOR('',#1313,1.);
#175=VECTOR('',#1314,1.);
#176=VECTOR('',#1319,1.);
#177=VECTOR('',#1320,1.);
#178=VECTOR('',#1321,1.);
#179=VECTOR('',#1322,1.);
#180=VECTOR('',#1323,1.);
#181=VECTOR('',#1336,1.);
#182=VECTOR('',#1337,1.);
#183=VECTOR('',#1338,1.);
#184=VECTOR('',#1339,1.);
#185=VECTOR('',#1340,1.);
#186=VECTOR('',#1341,1.);
#187=VECTOR('',#1342,1.);
#188=VECTOR('',#1343,1.);
#189=VECTOR('',#1344,1.);
#190=VECTOR('',#1345,1.);
#191=VECTOR('',#1346,1.);
#192=VECTOR('',#1349,1.);
#193=VECTOR('',#1350,1.);
#194=VECTOR('',#1351,1.);
#195=VECTOR('',#1358,1.);
#196=VECTOR('',#1361,1.);
#197=VECTOR('',#1362,1.);
#198=VECTOR('',#1367,1.);
#199=VECTOR('',#1368,1.);
#200=VECTOR('',#1369,1.);
#201=VECTOR('',#1370,1.);
#202=VECTOR('',#1371,1.);
#203=VECTOR('',#1372,1.);
#204=VECTOR('',#1373,1.);
#205=VECTOR('',#1374,1.);
#206=VECTOR('',#1375,1.);
#207=VECTOR('',#1376,1.);
#208=VECTOR('',#1379,1.);
#209=VECTOR('',#1380,1.);
#210=VECTOR('',#1381,1.);
#211=VECTOR('',#1382,1.);
#212=VECTOR('',#1383,1.);
#213=VECTOR('',#1384,1.);
#214=VECTOR('',#1385,1.);
#215=VECTOR('',#1386,1.);
#216=VECTOR('',#1433,1.);
#217=VECTOR('',#1434,1.);
#218=VECTOR('',#1439,1.);
#219=VECTOR('',#1440,1.);
#220=VECTOR('',#1441,1.);
#221=VECTOR('',#1444,1.);
#222=VECTOR('',#1445,1.);
#223=VECTOR('',#1448,1.);
#224=VECTOR('',#1449,1.);
#225=VECTOR('',#1452,1.);
#226=VECTOR('',#1453,1.);
#227=VECTOR('',#1454,1.);
#228=VECTOR('',#1457,1.);
#229=VECTOR('',#1458,1.);
#230=VECTOR('',#1461,1.);
#231=VECTOR('',#1462,1.);
#232=VECTOR('',#1473,1.);
#233=VECTOR('',#1474,1.);
#234=VECTOR('',#1475,1.);
#235=VECTOR('',#1476,1.);
#236=VECTOR('',#1477,1.);
#237=VECTOR('',#1478,1.);
#238=VECTOR('',#1479,1.);
#239=VECTOR('',#1480,1.);
#240=VECTOR('',#1513,1.);
#241=VECTOR('',#1514,1.);
#242=VECTOR('',#1517,1.);
#243=VECTOR('',#1522,1.);
#244=VECTOR('',#1527,1.);
#245=VECTOR('',#1532,1.);
#246=ORIENTED_EDGE('',*,*,#536,.F.);
#247=ORIENTED_EDGE('',*,*,#537,.F.);
#248=ORIENTED_EDGE('',*,*,#538,.T.);
#249=ORIENTED_EDGE('',*,*,#539,.T.);
#250=ORIENTED_EDGE('',*,*,#540,.F.);
#251=ORIENTED_EDGE('',*,*,#541,.T.);
#252=ORIENTED_EDGE('',*,*,#542,.T.);
#253=ORIENTED_EDGE('',*,*,#543,.F.);
#254=ORIENTED_EDGE('',*,*,#544,.T.);
#255=ORIENTED_EDGE('',*,*,#545,.F.);
#256=ORIENTED_EDGE('',*,*,#546,.F.);
#257=ORIENTED_EDGE('',*,*,#547,.T.);
#258=ORIENTED_EDGE('',*,*,#548,.F.);
#259=ORIENTED_EDGE('',*,*,#549,.F.);
#260=ORIENTED_EDGE('',*,*,#550,.F.);
#261=ORIENTED_EDGE('',*,*,#551,.F.);
#262=ORIENTED_EDGE('',*,*,#552,.F.);
#263=ORIENTED_EDGE('',*,*,#553,.T.);
#264=ORIENTED_EDGE('',*,*,#554,.T.);
#265=ORIENTED_EDGE('',*,*,#555,.T.);
#266=ORIENTED_EDGE('',*,*,#556,.T.);
#267=ORIENTED_EDGE('',*,*,#557,.T.);
#268=ORIENTED_EDGE('',*,*,#558,.F.);
#269=ORIENTED_EDGE('',*,*,#559,.T.);
#270=ORIENTED_EDGE('',*,*,#560,.T.);
#271=ORIENTED_EDGE('',*,*,#561,.F.);
#272=ORIENTED_EDGE('',*,*,#562,.F.);
#273=ORIENTED_EDGE('',*,*,#563,.T.);
#274=ORIENTED_EDGE('',*,*,#564,.T.);
#275=ORIENTED_EDGE('',*,*,#565,.T.);
#276=ORIENTED_EDGE('',*,*,#566,.F.);
#277=ORIENTED_EDGE('',*,*,#567,.T.);
#278=ORIENTED_EDGE('',*,*,#568,.F.);
#279=ORIENTED_EDGE('',*,*,#569,.T.);
#280=ORIENTED_EDGE('',*,*,#570,.T.);
#281=ORIENTED_EDGE('',*,*,#571,.T.);
#282=ORIENTED_EDGE('',*,*,#572,.T.);
#283=ORIENTED_EDGE('',*,*,#573,.T.);
#284=ORIENTED_EDGE('',*,*,#567,.F.);
#285=ORIENTED_EDGE('',*,*,#574,.F.);
#286=ORIENTED_EDGE('',*,*,#575,.T.);
#287=ORIENTED_EDGE('',*,*,#576,.F.);
#288=ORIENTED_EDGE('',*,*,#569,.F.);
#289=ORIENTED_EDGE('',*,*,#577,.T.);
#290=ORIENTED_EDGE('',*,*,#578,.T.);
#291=ORIENTED_EDGE('',*,*,#579,.T.);
#292=ORIENTED_EDGE('',*,*,#580,.T.);
#293=ORIENTED_EDGE('',*,*,#581,.T.);
#294=ORIENTED_EDGE('',*,*,#582,.T.);
#295=ORIENTED_EDGE('',*,*,#583,.T.);
#296=ORIENTED_EDGE('',*,*,#584,.T.);
#297=ORIENTED_EDGE('',*,*,#565,.F.);
#298=ORIENTED_EDGE('',*,*,#585,.T.);
#299=ORIENTED_EDGE('',*,*,#586,.T.);
#300=ORIENTED_EDGE('',*,*,#550,.T.);
#301=ORIENTED_EDGE('',*,*,#587,.T.);
#302=ORIENTED_EDGE('',*,*,#549,.T.);
#303=ORIENTED_EDGE('',*,*,#588,.F.);
#304=ORIENTED_EDGE('',*,*,#548,.T.);
#305=ORIENTED_EDGE('',*,*,#589,.T.);
#306=ORIENTED_EDGE('',*,*,#590,.F.);
#307=ORIENTED_EDGE('',*,*,#591,.T.);
#308=ORIENTED_EDGE('',*,*,#592,.T.);
#309=ORIENTED_EDGE('',*,*,#593,.T.);
#310=ORIENTED_EDGE('',*,*,#594,.F.);
#311=ORIENTED_EDGE('',*,*,#595,.T.);
#312=ORIENTED_EDGE('',*,*,#564,.F.);
#313=ORIENTED_EDGE('',*,*,#596,.T.);
#314=ORIENTED_EDGE('',*,*,#597,.T.);
#315=ORIENTED_EDGE('',*,*,#598,.T.);
#316=ORIENTED_EDGE('',*,*,#580,.F.);
#317=ORIENTED_EDGE('',*,*,#599,.F.);
#318=ORIENTED_EDGE('',*,*,#545,.T.);
#319=ORIENTED_EDGE('',*,*,#600,.T.);
#320=ORIENTED_EDGE('',*,*,#601,.F.);
#321=ORIENTED_EDGE('',*,*,#602,.T.);
#322=ORIENTED_EDGE('',*,*,#603,.T.);
#323=ORIENTED_EDGE('',*,*,#604,.T.);
#324=ORIENTED_EDGE('',*,*,#605,.T.);
#325=ORIENTED_EDGE('',*,*,#606,.T.);
#326=ORIENTED_EDGE('',*,*,#607,.T.);
#327=ORIENTED_EDGE('',*,*,#608,.F.);
#328=ORIENTED_EDGE('',*,*,#593,.F.);
#329=ORIENTED_EDGE('',*,*,#609,.T.);
#330=ORIENTED_EDGE('',*,*,#610,.F.);
#331=ORIENTED_EDGE('',*,*,#542,.F.);
#332=ORIENTED_EDGE('',*,*,#611,.T.);
#333=ORIENTED_EDGE('',*,*,#612,.T.);
#334=ORIENTED_EDGE('',*,*,#613,.F.);
#335=ORIENTED_EDGE('',*,*,#614,.T.);
#336=ORIENTED_EDGE('',*,*,#558,.T.);
#337=ORIENTED_EDGE('',*,*,#576,.T.);
#338=ORIENTED_EDGE('',*,*,#615,.T.);
#339=ORIENTED_EDGE('',*,*,#616,.T.);
#340=ORIENTED_EDGE('',*,*,#617,.T.);
#341=ORIENTED_EDGE('',*,*,#618,.T.);
#342=ORIENTED_EDGE('',*,*,#607,.F.);
#343=ORIENTED_EDGE('',*,*,#619,.T.);
#344=ORIENTED_EDGE('',*,*,#539,.F.);
#345=ORIENTED_EDGE('',*,*,#620,.T.);
#346=ORIENTED_EDGE('',*,*,#621,.T.);
#347=ORIENTED_EDGE('',*,*,#622,.F.);
#348=ORIENTED_EDGE('',*,*,#623,.T.);
#349=ORIENTED_EDGE('',*,*,#624,.T.);
#350=ORIENTED_EDGE('',*,*,#625,.F.);
#351=ORIENTED_EDGE('',*,*,#626,.T.);
#352=ORIENTED_EDGE('',*,*,#627,.T.);
#353=ORIENTED_EDGE('',*,*,#561,.T.);
#354=ORIENTED_EDGE('',*,*,#628,.T.);
#355=ORIENTED_EDGE('',*,*,#552,.T.);
#356=ORIENTED_EDGE('',*,*,#629,.T.);
#357=ORIENTED_EDGE('',*,*,#551,.T.);
#358=ORIENTED_EDGE('',*,*,#566,.T.);
#359=ORIENTED_EDGE('',*,*,#584,.F.);
#360=ORIENTED_EDGE('',*,*,#630,.F.);
#361=ORIENTED_EDGE('',*,*,#571,.F.);
#362=ORIENTED_EDGE('',*,*,#573,.F.);
#363=ORIENTED_EDGE('',*,*,#631,.F.);
#364=ORIENTED_EDGE('',*,*,#577,.F.);
#365=ORIENTED_EDGE('',*,*,#568,.T.);
#366=ORIENTED_EDGE('',*,*,#632,.T.);
#367=ORIENTED_EDGE('',*,*,#604,.F.);
#368=ORIENTED_EDGE('',*,*,#633,.T.);
#369=ORIENTED_EDGE('',*,*,#603,.F.);
#370=ORIENTED_EDGE('',*,*,#634,.T.);
#371=ORIENTED_EDGE('',*,*,#602,.F.);
#372=ORIENTED_EDGE('',*,*,#570,.F.);
#373=ORIENTED_EDGE('',*,*,#633,.F.);
#374=ORIENTED_EDGE('',*,*,#579,.F.);
#375=ORIENTED_EDGE('',*,*,#632,.F.);
#376=ORIENTED_EDGE('',*,*,#585,.F.);
#377=ORIENTED_EDGE('',*,*,#634,.F.);
#378=ORIENTED_EDGE('',*,*,#587,.F.);
#379=ORIENTED_EDGE('',*,*,#554,.F.);
#380=ORIENTED_EDGE('',*,*,#586,.F.);
#381=ORIENTED_EDGE('',*,*,#555,.F.);
#382=ORIENTED_EDGE('',*,*,#628,.F.);
#383=ORIENTED_EDGE('',*,*,#556,.F.);
#384=ORIENTED_EDGE('',*,*,#629,.F.);
#385=ORIENTED_EDGE('',*,*,#557,.F.);
#386=ORIENTED_EDGE('',*,*,#618,.F.);
#387=ORIENTED_EDGE('',*,*,#635,.T.);
#388=ORIENTED_EDGE('',*,*,#636,.F.);
#389=ORIENTED_EDGE('',*,*,#578,.F.);
#390=ORIENTED_EDGE('',*,*,#631,.T.);
#391=ORIENTED_EDGE('',*,*,#572,.F.);
#392=ORIENTED_EDGE('',*,*,#630,.T.);
#393=ORIENTED_EDGE('',*,*,#583,.F.);
#394=ORIENTED_EDGE('',*,*,#637,.F.);
#395=ORIENTED_EDGE('',*,*,#638,.T.);
#396=ORIENTED_EDGE('',*,*,#594,.T.);
#397=ORIENTED_EDGE('',*,*,#608,.T.);
#398=ORIENTED_EDGE('',*,*,#639,.T.);
#399=ORIENTED_EDGE('',*,*,#640,.T.);
#400=ORIENTED_EDGE('',*,*,#597,.F.);
#401=ORIENTED_EDGE('',*,*,#641,.T.);
#402=ORIENTED_EDGE('',*,*,#627,.F.);
#403=ORIENTED_EDGE('',*,*,#642,.T.);
#404=ORIENTED_EDGE('',*,*,#637,.T.);
#405=ORIENTED_EDGE('',*,*,#643,.F.);
#406=ORIENTED_EDGE('',*,*,#639,.F.);
#407=ORIENTED_EDGE('',*,*,#644,.T.);
#408=ORIENTED_EDGE('',*,*,#562,.T.);
#409=ORIENTED_EDGE('',*,*,#643,.T.);
#410=ORIENTED_EDGE('',*,*,#582,.F.);
#411=ORIENTED_EDGE('',*,*,#645,.T.);
#412=ORIENTED_EDGE('',*,*,#646,.F.);
#413=ORIENTED_EDGE('',*,*,#647,.T.);
#414=ORIENTED_EDGE('',*,*,#613,.T.);
#415=ORIENTED_EDGE('',*,*,#648,.T.);
#416=ORIENTED_EDGE('',*,*,#636,.T.);
#417=ORIENTED_EDGE('',*,*,#649,.T.);
#418=ORIENTED_EDGE('',*,*,#623,.F.);
#419=ORIENTED_EDGE('',*,*,#650,.T.);
#420=ORIENTED_EDGE('',*,*,#560,.F.);
#421=ORIENTED_EDGE('',*,*,#651,.T.);
#422=ORIENTED_EDGE('',*,*,#646,.T.);
#423=ORIENTED_EDGE('',*,*,#652,.T.);
#424=ORIENTED_EDGE('',*,*,#574,.T.);
#425=ORIENTED_EDGE('',*,*,#650,.F.);
#426=ORIENTED_EDGE('',*,*,#651,.F.);
#427=ORIENTED_EDGE('',*,*,#559,.F.);
#428=ORIENTED_EDGE('',*,*,#614,.F.);
#429=ORIENTED_EDGE('',*,*,#647,.F.);
#430=ORIENTED_EDGE('',*,*,#652,.F.);
#431=ORIENTED_EDGE('',*,*,#648,.F.);
#432=ORIENTED_EDGE('',*,*,#615,.F.);
#433=ORIENTED_EDGE('',*,*,#575,.F.);
#434=ORIENTED_EDGE('',*,*,#645,.F.);
#435=ORIENTED_EDGE('',*,*,#581,.F.);
#436=ORIENTED_EDGE('',*,*,#598,.F.);
#437=ORIENTED_EDGE('',*,*,#640,.F.);
#438=ORIENTED_EDGE('',*,*,#644,.F.);
#439=ORIENTED_EDGE('',*,*,#641,.F.);
#440=ORIENTED_EDGE('',*,*,#596,.F.);
#441=ORIENTED_EDGE('',*,*,#563,.F.);
#442=ORIENTED_EDGE('',*,*,#653,.F.);
#443=ORIENTED_EDGE('',*,*,#654,.T.);
#444=ORIENTED_EDGE('',*,*,#601,.T.);
#445=ORIENTED_EDGE('',*,*,#655,.F.);
#446=ORIENTED_EDGE('',*,*,#656,.T.);
#447=ORIENTED_EDGE('',*,*,#612,.F.);
#448=ORIENTED_EDGE('',*,*,#657,.F.);
#449=ORIENTED_EDGE('',*,*,#658,.T.);
#450=ORIENTED_EDGE('',*,*,#621,.F.);
#451=ORIENTED_EDGE('',*,*,#659,.F.);
#452=ORIENTED_EDGE('',*,*,#660,.T.);
#453=ORIENTED_EDGE('',*,*,#590,.T.);
#454=ORIENTED_EDGE('',*,*,#661,.F.);
#455=ORIENTED_EDGE('',*,*,#662,.F.);
#456=ORIENTED_EDGE('',*,*,#663,.F.);
#457=ORIENTED_EDGE('',*,*,#664,.F.);
#458=ORIENTED_EDGE('',*,*,#665,.F.);
#459=ORIENTED_EDGE('',*,*,#664,.T.);
#460=ORIENTED_EDGE('',*,*,#666,.F.);
#461=ORIENTED_EDGE('',*,*,#663,.T.);
#462=ORIENTED_EDGE('',*,*,#667,.F.);
#463=ORIENTED_EDGE('',*,*,#662,.T.);
#464=ORIENTED_EDGE('',*,*,#668,.F.);
#465=ORIENTED_EDGE('',*,*,#661,.T.);
#466=ORIENTED_EDGE('',*,*,#669,.F.);
#467=ORIENTED_EDGE('',*,*,#665,.T.);
#468=ORIENTED_EDGE('',*,*,#670,.F.);
#469=ORIENTED_EDGE('',*,*,#625,.T.);
#470=ORIENTED_EDGE('',*,*,#671,.T.);
#471=ORIENTED_EDGE('',*,*,#605,.F.);
#472=ORIENTED_EDGE('',*,*,#672,.T.);
#473=ORIENTED_EDGE('',*,*,#669,.T.);
#474=ORIENTED_EDGE('',*,*,#668,.T.);
#475=ORIENTED_EDGE('',*,*,#667,.T.);
#476=ORIENTED_EDGE('',*,*,#666,.T.);
#477=ORIENTED_EDGE('',*,*,#670,.T.);
#478=ORIENTED_EDGE('',*,*,#673,.T.);
#479=ORIENTED_EDGE('',*,*,#659,.T.);
#480=ORIENTED_EDGE('',*,*,#620,.F.);
#481=ORIENTED_EDGE('',*,*,#538,.F.);
#482=ORIENTED_EDGE('',*,*,#660,.F.);
#483=ORIENTED_EDGE('',*,*,#673,.F.);
#484=ORIENTED_EDGE('',*,*,#537,.T.);
#485=ORIENTED_EDGE('',*,*,#588,.T.);
#486=ORIENTED_EDGE('',*,*,#674,.T.);
#487=ORIENTED_EDGE('',*,*,#655,.T.);
#488=ORIENTED_EDGE('',*,*,#600,.F.);
#489=ORIENTED_EDGE('',*,*,#544,.F.);
#490=ORIENTED_EDGE('',*,*,#656,.F.);
#491=ORIENTED_EDGE('',*,*,#674,.F.);
#492=ORIENTED_EDGE('',*,*,#543,.T.);
#493=ORIENTED_EDGE('',*,*,#610,.T.);
#494=ORIENTED_EDGE('',*,*,#675,.T.);
#495=ORIENTED_EDGE('',*,*,#657,.T.);
#496=ORIENTED_EDGE('',*,*,#611,.F.);
#497=ORIENTED_EDGE('',*,*,#541,.F.);
#498=ORIENTED_EDGE('',*,*,#658,.F.);
#499=ORIENTED_EDGE('',*,*,#675,.F.);
#500=ORIENTED_EDGE('',*,*,#540,.T.);
#501=ORIENTED_EDGE('',*,*,#622,.T.);
#502=ORIENTED_EDGE('',*,*,#654,.F.);
#503=ORIENTED_EDGE('',*,*,#676,.F.);
#504=ORIENTED_EDGE('',*,*,#546,.T.);
#505=ORIENTED_EDGE('',*,*,#599,.T.);
#506=ORIENTED_EDGE('',*,*,#676,.T.);
#507=ORIENTED_EDGE('',*,*,#653,.T.);
#508=ORIENTED_EDGE('',*,*,#589,.F.);
#509=ORIENTED_EDGE('',*,*,#547,.F.);
#510=ORIENTED_EDGE('',*,*,#606,.F.);
#511=ORIENTED_EDGE('',*,*,#671,.F.);
#512=ORIENTED_EDGE('',*,*,#677,.F.);
#513=ORIENTED_EDGE('',*,*,#619,.F.);
#514=ORIENTED_EDGE('',*,*,#677,.T.);
#515=ORIENTED_EDGE('',*,*,#624,.F.);
#516=ORIENTED_EDGE('',*,*,#678,.F.);
#517=ORIENTED_EDGE('',*,*,#616,.F.);
#518=ORIENTED_EDGE('',*,*,#678,.T.);
#519=ORIENTED_EDGE('',*,*,#649,.F.);
#520=ORIENTED_EDGE('',*,*,#635,.F.);
#521=ORIENTED_EDGE('',*,*,#617,.F.);
#522=ORIENTED_EDGE('',*,*,#638,.F.);
#523=ORIENTED_EDGE('',*,*,#642,.F.);
#524=ORIENTED_EDGE('',*,*,#679,.F.);
#525=ORIENTED_EDGE('',*,*,#595,.F.);
#526=ORIENTED_EDGE('',*,*,#679,.T.);
#527=ORIENTED_EDGE('',*,*,#626,.F.);
#528=ORIENTED_EDGE('',*,*,#680,.F.);
#529=ORIENTED_EDGE('',*,*,#591,.F.);
#530=ORIENTED_EDGE('',*,*,#680,.T.);
#531=ORIENTED_EDGE('',*,*,#672,.F.);
#532=ORIENTED_EDGE('',*,*,#609,.F.);
#533=ORIENTED_EDGE('',*,*,#592,.F.);
#534=ORIENTED_EDGE('',*,*,#536,.T.);
#535=ORIENTED_EDGE('',*,*,#553,.F.);
#536=EDGE_CURVE('',#681,#681,#786,.T.);
#537=EDGE_CURVE('',#682,#683,#46,.T.);
#538=EDGE_CURVE('',#682,#684,#47,.T.);
#539=EDGE_CURVE('',#684,#685,#48,.T.);
#540=EDGE_CURVE('',#686,#685,#49,.T.);
#541=EDGE_CURVE('',#686,#687,#50,.T.);
#542=EDGE_CURVE('',#687,#688,#51,.T.);
#543=EDGE_CURVE('',#689,#688,#52,.T.);
#544=EDGE_CURVE('',#689,#690,#53,.T.);
#545=EDGE_CURVE('',#691,#690,#54,.T.);
#546=EDGE_CURVE('',#692,#691,#55,.T.);
#547=EDGE_CURVE('',#692,#693,#56,.T.);
#548=EDGE_CURVE('',#683,#693,#57,.T.);
#549=EDGE_CURVE('',#694,#694,#787,.T.);
#550=EDGE_CURVE('',#695,#695,#788,.T.);
#551=EDGE_CURVE('',#696,#696,#789,.T.);
#552=EDGE_CURVE('',#697,#697,#790,.T.);
#553=EDGE_CURVE('',#698,#698,#791,.T.);
#554=EDGE_CURVE('',#699,#699,#792,.T.);
#555=EDGE_CURVE('',#700,#700,#793,.T.);
#556=EDGE_CURVE('',#701,#701,#794,.T.);
#557=EDGE_CURVE('',#702,#702,#795,.T.);
#558=EDGE_CURVE('',#703,#704,#58,.T.);
#559=EDGE_CURVE('',#703,#705,#59,.T.);
#560=EDGE_CURVE('',#705,#706,#60,.T.);
#561=EDGE_CURVE('',#707,#706,#61,.T.);
#562=EDGE_CURVE('',#708,#707,#62,.T.);
#563=EDGE_CURVE('',#708,#709,#63,.T.);
#564=EDGE_CURVE('',#709,#710,#64,.T.);
#565=EDGE_CURVE('',#710,#711,#65,.T.);
#566=EDGE_CURVE('',#712,#711,#796,.T.);
#567=EDGE_CURVE('',#712,#713,#66,.T.);
#568=EDGE_CURVE('',#714,#713,#797,.T.);
#569=EDGE_CURVE('',#714,#704,#67,.T.);
#570=EDGE_CURVE('',#715,#715,#798,.F.);
#571=EDGE_CURVE('',#712,#716,#68,.T.);
#572=EDGE_CURVE('',#716,#717,#69,.T.);
#573=EDGE_CURVE('',#717,#713,#70,.F.);
#574=EDGE_CURVE('',#718,#719,#71,.T.);
#575=EDGE_CURVE('',#718,#720,#72,.T.);
#576=EDGE_CURVE('',#704,#720,#73,.T.);
#577=EDGE_CURVE('',#714,#721,#74,.T.);
#578=EDGE_CURVE('',#721,#719,#75,.T.);
#579=EDGE_CURVE('',#722,#722,#799,.F.);
#580=EDGE_CURVE('',#710,#723,#76,.T.);
#581=EDGE_CURVE('',#723,#724,#77,.T.);
#582=EDGE_CURVE('',#724,#725,#78,.T.);
#583=EDGE_CURVE('',#725,#726,#79,.T.);
#584=EDGE_CURVE('',#726,#711,#80,.F.);
#585=EDGE_CURVE('',#727,#727,#800,.F.);
#586=EDGE_CURVE('',#728,#728,#801,.F.);
#587=EDGE_CURVE('',#729,#729,#802,.F.);
#588=EDGE_CURVE('',#683,#730,#81,.T.);
#589=EDGE_CURVE('',#693,#731,#82,.T.);
#590=EDGE_CURVE('',#730,#731,#83,.T.);
#591=EDGE_CURVE('',#732,#733,#84,.F.);
#592=EDGE_CURVE('',#733,#734,#85,.T.);
#593=EDGE_CURVE('',#734,#735,#86,.T.);
#594=EDGE_CURVE('',#736,#735,#87,.T.);
#595=EDGE_CURVE('',#736,#732,#88,.F.);
#596=EDGE_CURVE('',#709,#737,#89,.T.);
#597=EDGE_CURVE('',#737,#738,#90,.T.);
#598=EDGE_CURVE('',#738,#723,#91,.F.);
#599=EDGE_CURVE('',#691,#739,#92,.T.);
#600=EDGE_CURVE('',#690,#740,#93,.T.);
#601=EDGE_CURVE('',#739,#740,#94,.T.);
#602=EDGE_CURVE('',#741,#741,#803,.T.);
#603=EDGE_CURVE('',#742,#742,#804,.T.);
#604=EDGE_CURVE('',#743,#743,#805,.T.);
#605=EDGE_CURVE('',#744,#745,#95,.T.);
#606=EDGE_CURVE('',#745,#746,#806,.F.);
#607=EDGE_CURVE('',#746,#747,#96,.T.);
#608=EDGE_CURVE('',#735,#747,#97,.T.);
#609=EDGE_CURVE('',#734,#744,#807,.F.);
#610=EDGE_CURVE('',#688,#748,#98,.T.);
#611=EDGE_CURVE('',#687,#749,#99,.T.);
#612=EDGE_CURVE('',#749,#748,#100,.T.);
#613=EDGE_CURVE('',#750,#751,#101,.T.);
#614=EDGE_CURVE('',#750,#703,#102,.F.);
#615=EDGE_CURVE('',#720,#751,#103,.T.);
#616=EDGE_CURVE('',#752,#753,#104,.T.);
#617=EDGE_CURVE('',#753,#754,#105,.T.);
#618=EDGE_CURVE('',#754,#747,#106,.T.);
#619=EDGE_CURVE('',#746,#752,#107,.F.);
#620=EDGE_CURVE('',#684,#755,#108,.T.);
#621=EDGE_CURVE('',#755,#756,#109,.T.);
#622=EDGE_CURVE('',#685,#756,#110,.T.);
#623=EDGE_CURVE('',#706,#757,#111,.T.);
#624=EDGE_CURVE('',#757,#758,#112,.F.);
#625=EDGE_CURVE('',#759,#758,#113,.T.);
#626=EDGE_CURVE('',#759,#760,#114,.T.);
#627=EDGE_CURVE('',#760,#707,#115,.T.);
#628=EDGE_CURVE('',#761,#761,#808,.F.);
#629=EDGE_CURVE('',#762,#762,#809,.F.);
#630=EDGE_CURVE('',#716,#726,#810,.T.);
#631=EDGE_CURVE('',#721,#717,#811,.T.);
#632=EDGE_CURVE('',#763,#763,#812,.T.);
#633=EDGE_CURVE('',#764,#764,#813,.T.);
#634=EDGE_CURVE('',#765,#765,#814,.T.);
#635=EDGE_CURVE('',#754,#766,#12,.F.);
#636=EDGE_CURVE('',#719,#766,#116,.T.);
#637=EDGE_CURVE('',#767,#725,#117,.T.);
#638=EDGE_CURVE('',#767,#736,#13,.F.);
#639=EDGE_CURVE('',#768,#769,#118,.T.);
#640=EDGE_CURVE('',#769,#738,#119,.T.);
#641=EDGE_CURVE('',#737,#768,#120,.T.);
#642=EDGE_CURVE('',#760,#767,#121,.T.);
#643=EDGE_CURVE('',#707,#725,#122,.T.);
#644=EDGE_CURVE('',#768,#708,#123,.T.);
#645=EDGE_CURVE('',#724,#769,#124,.F.);
#646=EDGE_CURVE('',#770,#771,#125,.T.);
#647=EDGE_CURVE('',#770,#750,#126,.T.);
#648=EDGE_CURVE('',#751,#771,#127,.T.);
#649=EDGE_CURVE('',#766,#757,#128,.F.);
#650=EDGE_CURVE('',#706,#719,#129,.T.);
#651=EDGE_CURVE('',#705,#770,#130,.F.);
#652=EDGE_CURVE('',#771,#718,#131,.T.);
#653=EDGE_CURVE('',#772,#731,#132,.T.);
#654=EDGE_CURVE('',#772,#739,#133,.T.);
#655=EDGE_CURVE('',#773,#740,#134,.T.);
#656=EDGE_CURVE('',#773,#748,#135,.T.);
#657=EDGE_CURVE('',#774,#749,#136,.T.);
#658=EDGE_CURVE('',#774,#756,#137,.T.);
#659=EDGE_CURVE('',#775,#755,#138,.T.);
#660=EDGE_CURVE('',#775,#730,#139,.T.);
#661=EDGE_CURVE('',#776,#776,#815,.T.);
#662=EDGE_CURVE('',#777,#777,#816,.T.);
#663=EDGE_CURVE('',#778,#778,#817,.T.);
#664=EDGE_CURVE('',#779,#779,#818,.T.);
#665=EDGE_CURVE('',#780,#780,#819,.T.);
#666=EDGE_CURVE('',#781,#781,#820,.T.);
#667=EDGE_CURVE('',#782,#782,#821,.T.);
#668=EDGE_CURVE('',#783,#783,#822,.T.);
#669=EDGE_CURVE('',#784,#784,#823,.T.);
#670=EDGE_CURVE('',#785,#785,#824,.T.);
#671=EDGE_CURVE('',#758,#745,#140,.T.);
#672=EDGE_CURVE('',#744,#759,#141,.F.);
#673=EDGE_CURVE('',#682,#775,#142,.T.);
#674=EDGE_CURVE('',#689,#773,#143,.T.);
#675=EDGE_CURVE('',#686,#774,#144,.T.);
#676=EDGE_CURVE('',#692,#772,#145,.T.);
#677=EDGE_CURVE('',#752,#758,#14,.T.);
#678=EDGE_CURVE('',#753,#757,#15,.T.);
#679=EDGE_CURVE('',#732,#760,#16,.T.);
#680=EDGE_CURVE('',#733,#759,#17,.T.);
#681=VERTEX_POINT('',#1560);
#682=VERTEX_POINT('',#1562);
#683=VERTEX_POINT('',#1563);
#684=VERTEX_POINT('',#1565);
#685=VERTEX_POINT('',#1567);
#686=VERTEX_POINT('',#1569);
#687=VERTEX_POINT('',#1571);
#688=VERTEX_POINT('',#1573);
#689=VERTEX_POINT('',#1575);
#690=VERTEX_POINT('',#1577);
#691=VERTEX_POINT('',#1579);
#692=VERTEX_POINT('',#1581);
#693=VERTEX_POINT('',#1583);
#694=VERTEX_POINT('',#1586);
#695=VERTEX_POINT('',#1588);
#696=VERTEX_POINT('',#1590);
#697=VERTEX_POINT('',#1592);
#698=VERTEX_POINT('',#1595);
#699=VERTEX_POINT('',#1597);
#700=VERTEX_POINT('',#1599);
#701=VERTEX_POINT('',#1601);
#702=VERTEX_POINT('',#1603);
#703=VERTEX_POINT('',#1605);
#704=VERTEX_POINT('',#1606);
#705=VERTEX_POINT('',#1608);
#706=VERTEX_POINT('',#1610);
#707=VERTEX_POINT('',#1612);
#708=VERTEX_POINT('',#1614);
#709=VERTEX_POINT('',#1616);
#710=VERTEX_POINT('',#1618);
#711=VERTEX_POINT('',#1620);
#712=VERTEX_POINT('',#1622);
#713=VERTEX_POINT('',#1624);
#714=VERTEX_POINT('',#1626);
#715=VERTEX_POINT('',#1630);
#716=VERTEX_POINT('',#1632);
#717=VERTEX_POINT('',#1634);
#718=VERTEX_POINT('',#1638);
#719=VERTEX_POINT('',#1639);
#720=VERTEX_POINT('',#1641);
#721=VERTEX_POINT('',#1644);
#722=VERTEX_POINT('',#1647);
#723=VERTEX_POINT('',#1650);
#724=VERTEX_POINT('',#1652);
#725=VERTEX_POINT('',#1654);
#726=VERTEX_POINT('',#1656);
#727=VERTEX_POINT('',#1659);
#728=VERTEX_POINT('',#1662);
#729=VERTEX_POINT('',#1665);
#730=VERTEX_POINT('',#1668);
#731=VERTEX_POINT('',#1670);
#732=VERTEX_POINT('',#1673);
#733=VERTEX_POINT('',#1674);
#734=VERTEX_POINT('',#1676);
#735=VERTEX_POINT('',#1678);
#736=VERTEX_POINT('',#1680);
#737=VERTEX_POINT('',#1683);
#738=VERTEX_POINT('',#1685);
#739=VERTEX_POINT('',#1689);
#740=VERTEX_POINT('',#1691);
#741=VERTEX_POINT('',#1694);
#742=VERTEX_POINT('',#1696);
#743=VERTEX_POINT('',#1698);
#744=VERTEX_POINT('',#1700);
#745=VERTEX_POINT('',#1701);
#746=VERTEX_POINT('',#1703);
#747=VERTEX_POINT('',#1705);
#748=VERTEX_POINT('',#1710);
#749=VERTEX_POINT('',#1712);
#750=VERTEX_POINT('',#1715);
#751=VERTEX_POINT('',#1716);
#752=VERTEX_POINT('',#1720);
#753=VERTEX_POINT('',#1721);
#754=VERTEX_POINT('',#1723);
#755=VERTEX_POINT('',#1728);
#756=VERTEX_POINT('',#1730);
#757=VERTEX_POINT('',#1733);
#758=VERTEX_POINT('',#1735);
#759=VERTEX_POINT('',#1737);
#760=VERTEX_POINT('',#1739);
#761=VERTEX_POINT('',#1743);
#762=VERTEX_POINT('',#1746);
#763=VERTEX_POINT('',#1753);
#764=VERTEX_POINT('',#1756);
#765=VERTEX_POINT('',#1759);
#766=VERTEX_POINT('',#1769);
#767=VERTEX_POINT('',#1772);
#768=VERTEX_POINT('',#1776);
#769=VERTEX_POINT('',#1777);
#770=VERTEX_POINT('',#1788);
#771=VERTEX_POINT('',#1789);
#772=VERTEX_POINT('',#1804);
#773=VERTEX_POINT('',#1807);
#774=VERTEX_POINT('',#1810);
#775=VERTEX_POINT('',#1813);
#776=VERTEX_POINT('',#1816);
#777=VERTEX_POINT('',#1818);
#778=VERTEX_POINT('',#1820);
#779=VERTEX_POINT('',#1822);
#780=VERTEX_POINT('',#1824);
#781=VERTEX_POINT('',#1827);
#782=VERTEX_POINT('',#1830);
#783=VERTEX_POINT('',#1833);
#784=VERTEX_POINT('',#1836);
#785=VERTEX_POINT('',#1839);
#786=CIRCLE('',#1147,0.01);
#787=CIRCLE('',#1148,0.00265);
#788=CIRCLE('',#1149,0.00265);
#789=CIRCLE('',#1150,0.00265);
#790=CIRCLE('',#1151,0.00265);
#791=CIRCLE('',#1153,0.01);
#792=CIRCLE('',#1154,0.00274999999999985);
#793=CIRCLE('',#1155,0.00274999999999981);
#794=CIRCLE('',#1156,0.00275);
#795=CIRCLE('',#1157,0.00275);
#796=CIRCLE('',#1158,0.00445);
#797=CIRCLE('',#1159,0.00445);
#798=CIRCLE('',#1161,0.00285);
#799=CIRCLE('',#1163,0.00285);
#800=CIRCLE('',#1165,0.00285);
#801=CIRCLE('',#1167,0.00265);
#802=CIRCLE('',#1169,0.00265);
#803=CIRCLE('',#1172,0.00275);
#804=CIRCLE('',#1173,0.00275);
#805=CIRCLE('',#1174,0.00275);
#806=CIRCLE('',#1175,0.002);
#807=CIRCLE('',#1176,0.002);
#808=CIRCLE('',#1180,0.00265);
#809=CIRCLE('',#1182,0.00265);
#810=CIRCLE('',#1184,0.00445);
#811=CIRCLE('',#1186,0.00445);
#812=CIRCLE('',#1188,0.00275);
#813=CIRCLE('',#1190,0.00275);
#814=CIRCLE('',#1192,0.00275);
#815=CIRCLE('',#1214,0.0175);
#816=CIRCLE('',#1215,0.00175);
#817=CIRCLE('',#1216,0.00175);
#818=CIRCLE('',#1217,0.00175);
#819=CIRCLE('',#1218,0.00175);
#820=CIRCLE('',#1220,0.00175);
#821=CIRCLE('',#1222,0.00175);
#822=CIRCLE('',#1224,0.00175);
#823=CIRCLE('',#1226,0.0175);
#824=CIRCLE('',#1228,0.00175);
#825=EDGE_LOOP('',(#246));
#826=EDGE_LOOP('',(#247,#248,#249,#250,#251,#252,#253,#254,#255,#256,#257,
#258));
#827=EDGE_LOOP('',(#259));
#828=EDGE_LOOP('',(#260));
#829=EDGE_LOOP('',(#261));
#830=EDGE_LOOP('',(#262));
#831=EDGE_LOOP('',(#263));
#832=EDGE_LOOP('',(#264));
#833=EDGE_LOOP('',(#265));
#834=EDGE_LOOP('',(#266));
#835=EDGE_LOOP('',(#267));
#836=EDGE_LOOP('',(#268,#269,#270,#271,#272,#273,#274,#275,#276,#277,#278,
#279));
#837=EDGE_LOOP('',(#280));
#838=EDGE_LOOP('',(#281,#282,#283,#284));
#839=EDGE_LOOP('',(#285,#286,#287,#288,#289,#290));
#840=EDGE_LOOP('',(#291));
#841=EDGE_LOOP('',(#292,#293,#294,#295,#296,#297));
#842=EDGE_LOOP('',(#298));
#843=EDGE_LOOP('',(#299));
#844=EDGE_LOOP('',(#300));
#845=EDGE_LOOP('',(#301));
#846=EDGE_LOOP('',(#302));
#847=EDGE_LOOP('',(#303,#304,#305,#306));
#848=EDGE_LOOP('',(#307,#308,#309,#310,#311));
#849=EDGE_LOOP('',(#312,#313,#314,#315,#316));
#850=EDGE_LOOP('',(#317,#318,#319,#320));
#851=EDGE_LOOP('',(#321));
#852=EDGE_LOOP('',(#322));
#853=EDGE_LOOP('',(#323));
#854=EDGE_LOOP('',(#324,#325,#326,#327,#328,#329));
#855=EDGE_LOOP('',(#330,#331,#332,#333));
#856=EDGE_LOOP('',(#334,#335,#336,#337,#338));
#857=EDGE_LOOP('',(#339,#340,#341,#342,#343));
#858=EDGE_LOOP('',(#344,#345,#346,#347));
#859=EDGE_LOOP('',(#348,#349,#350,#351,#352,#353));
#860=EDGE_LOOP('',(#354));
#861=EDGE_LOOP('',(#355));
#862=EDGE_LOOP('',(#356));
#863=EDGE_LOOP('',(#357));
#864=EDGE_LOOP('',(#358,#359,#360,#361));
#865=EDGE_LOOP('',(#362,#363,#364,#365));
#866=EDGE_LOOP('',(#366));
#867=EDGE_LOOP('',(#367));
#868=EDGE_LOOP('',(#368));
#869=EDGE_LOOP('',(#369));
#870=EDGE_LOOP('',(#370));
#871=EDGE_LOOP('',(#371));
#872=EDGE_LOOP('',(#372));
#873=EDGE_LOOP('',(#373));
#874=EDGE_LOOP('',(#374));
#875=EDGE_LOOP('',(#375));
#876=EDGE_LOOP('',(#376));
#877=EDGE_LOOP('',(#377));
#878=EDGE_LOOP('',(#378));
#879=EDGE_LOOP('',(#379));
#880=EDGE_LOOP('',(#380));
#881=EDGE_LOOP('',(#381));
#882=EDGE_LOOP('',(#382));
#883=EDGE_LOOP('',(#383));
#884=EDGE_LOOP('',(#384));
#885=EDGE_LOOP('',(#385));
#886=EDGE_LOOP('',(#386,#387,#388,#389,#390,#391,#392,#393,#394,#395,#396,
#397));
#887=EDGE_LOOP('',(#398,#399,#400,#401));
#888=EDGE_LOOP('',(#402,#403,#404,#405));
#889=EDGE_LOOP('',(#406,#407,#408,#409,#410,#411));
#890=EDGE_LOOP('',(#412,#413,#414,#415));
#891=EDGE_LOOP('',(#416,#417,#418,#419));
#892=EDGE_LOOP('',(#420,#421,#422,#423,#424,#425));
#893=EDGE_LOOP('',(#426,#427,#428,#429));
#894=EDGE_LOOP('',(#430,#431,#432,#433));
#895=EDGE_LOOP('',(#434,#435,#436,#437));
#896=EDGE_LOOP('',(#438,#439,#440,#441));
#897=EDGE_LOOP('',(#442,#443,#444,#445,#446,#447,#448,#449,#450,#451,#452,
#453));
#898=EDGE_LOOP('',(#454));
#899=EDGE_LOOP('',(#455));
#900=EDGE_LOOP('',(#456));
#901=EDGE_LOOP('',(#457));
#902=EDGE_LOOP('',(#458));
#903=EDGE_LOOP('',(#459));
#904=EDGE_LOOP('',(#460));
#905=EDGE_LOOP('',(#461));
#906=EDGE_LOOP('',(#462));
#907=EDGE_LOOP('',(#463));
#908=EDGE_LOOP('',(#464));
#909=EDGE_LOOP('',(#465));
#910=EDGE_LOOP('',(#466));
#911=EDGE_LOOP('',(#467));
#912=EDGE_LOOP('',(#468));
#913=EDGE_LOOP('',(#469,#470,#471,#472));
#914=EDGE_LOOP('',(#473));
#915=EDGE_LOOP('',(#474));
#916=EDGE_LOOP('',(#475));
#917=EDGE_LOOP('',(#476));
#918=EDGE_LOOP('',(#477));
#919=EDGE_LOOP('',(#478,#479,#480,#481));
#920=EDGE_LOOP('',(#482,#483,#484,#485));
#921=EDGE_LOOP('',(#486,#487,#488,#489));
#922=EDGE_LOOP('',(#490,#491,#492,#493));
#923=EDGE_LOOP('',(#494,#495,#496,#497));
#924=EDGE_LOOP('',(#498,#499,#500,#501));
#925=EDGE_LOOP('',(#502,#503,#504,#505));
#926=EDGE_LOOP('',(#506,#507,#508,#509));
#927=EDGE_LOOP('',(#510,#511,#512,#513));
#928=EDGE_LOOP('',(#514,#515,#516,#517));
#929=EDGE_LOOP('',(#518,#519,#520,#521));
#930=EDGE_LOOP('',(#522,#523,#524,#525));
#931=EDGE_LOOP('',(#526,#527,#528,#529));
#932=EDGE_LOOP('',(#530,#531,#532,#533));
#933=EDGE_LOOP('',(#534));
#934=EDGE_LOOP('',(#535));
#935=FACE_BOUND('',#825,.T.);
#936=FACE_BOUND('',#826,.T.);
#937=FACE_BOUND('',#827,.T.);
#938=FACE_BOUND('',#828,.T.);
#939=FACE_BOUND('',#829,.T.);
#940=FACE_BOUND('',#830,.T.);
#941=FACE_BOUND('',#831,.T.);
#942=FACE_BOUND('',#832,.T.);
#943=FACE_BOUND('',#833,.T.);
#944=FACE_BOUND('',#834,.T.);
#945=FACE_BOUND('',#835,.T.);
#946=FACE_BOUND('',#836,.T.);
#947=FACE_BOUND('',#837,.T.);
#948=FACE_BOUND('',#838,.T.);
#949=FACE_BOUND('',#839,.T.);
#950=FACE_BOUND('',#840,.T.);
#951=FACE_BOUND('',#841,.T.);
#952=FACE_BOUND('',#842,.T.);
#953=FACE_BOUND('',#843,.T.);
#954=FACE_BOUND('',#844,.T.);
#955=FACE_BOUND('',#845,.T.);
#956=FACE_BOUND('',#846,.T.);
#957=FACE_BOUND('',#847,.T.);
#958=FACE_BOUND('',#848,.T.);
#959=FACE_BOUND('',#849,.T.);
#960=FACE_BOUND('',#850,.T.);
#961=FACE_BOUND('',#851,.T.);
#962=FACE_BOUND('',#852,.T.);
#963=FACE_BOUND('',#853,.T.);
#964=FACE_BOUND('',#854,.T.);
#965=FACE_BOUND('',#855,.T.);
#966=FACE_BOUND('',#856,.T.);
#967=FACE_BOUND('',#857,.T.);
#968=FACE_BOUND('',#858,.T.);
#969=FACE_BOUND('',#859,.T.);
#970=FACE_BOUND('',#860,.T.);
#971=FACE_BOUND('',#861,.T.);
#972=FACE_BOUND('',#862,.T.);
#973=FACE_BOUND('',#863,.T.);
#974=FACE_BOUND('',#864,.T.);
#975=FACE_BOUND('',#865,.T.);
#976=FACE_BOUND('',#866,.T.);
#977=FACE_BOUND('',#867,.T.);
#978=FACE_BOUND('',#868,.T.);
#979=FACE_BOUND('',#869,.T.);
#980=FACE_BOUND('',#870,.T.);
#981=FACE_BOUND('',#871,.T.);
#982=FACE_BOUND('',#872,.T.);
#983=FACE_BOUND('',#873,.T.);
#984=FACE_BOUND('',#874,.T.);
#985=FACE_BOUND('',#875,.T.);
#986=FACE_BOUND('',#876,.T.);
#987=FACE_BOUND('',#877,.T.);
#988=FACE_BOUND('',#878,.T.);
#989=FACE_BOUND('',#879,.T.);
#990=FACE_BOUND('',#880,.T.);
#991=FACE_BOUND('',#881,.T.);
#992=FACE_BOUND('',#882,.T.);
#993=FACE_BOUND('',#883,.T.);
#994=FACE_BOUND('',#884,.T.);
#995=FACE_BOUND('',#885,.T.);
#996=FACE_BOUND('',#886,.T.);
#997=FACE_BOUND('',#887,.T.);
#998=FACE_BOUND('',#888,.T.);
#999=FACE_BOUND('',#889,.T.);
#1000=FACE_BOUND('',#890,.T.);
#1001=FACE_BOUND('',#891,.T.);
#1002=FACE_BOUND('',#892,.T.);
#1003=FACE_BOUND('',#893,.T.);
#1004=FACE_BOUND('',#894,.T.);
#1005=FACE_BOUND('',#895,.T.);
#1006=FACE_BOUND('',#896,.T.);
#1007=FACE_BOUND('',#897,.T.);
#1008=FACE_BOUND('',#898,.T.);
#1009=FACE_BOUND('',#899,.T.);
#1010=FACE_BOUND('',#900,.T.);
#1011=FACE_BOUND('',#901,.T.);
#1012=FACE_BOUND('',#902,.T.);
#1013=FACE_BOUND('',#903,.T.);
#1014=FACE_BOUND('',#904,.T.);
#1015=FACE_BOUND('',#905,.T.);
#1016=FACE_BOUND('',#906,.T.);
#1017=FACE_BOUND('',#907,.T.);
#1018=FACE_BOUND('',#908,.T.);
#1019=FACE_BOUND('',#909,.T.);
#1020=FACE_BOUND('',#910,.T.);
#1021=FACE_BOUND('',#911,.T.);
#1022=FACE_BOUND('',#912,.T.);
#1023=FACE_BOUND('',#913,.T.);
#1024=FACE_BOUND('',#914,.T.);
#1025=FACE_BOUND('',#915,.T.);
#1026=FACE_BOUND('',#916,.T.);
#1027=FACE_BOUND('',#917,.T.);
#1028=FACE_BOUND('',#918,.T.);
#1029=FACE_BOUND('',#919,.T.);
#1030=FACE_BOUND('',#920,.T.);
#1031=FACE_BOUND('',#921,.T.);
#1032=FACE_BOUND('',#922,.T.);
#1033=FACE_BOUND('',#923,.T.);
#1034=FACE_BOUND('',#924,.T.);
#1035=FACE_BOUND('',#925,.T.);
#1036=FACE_BOUND('',#926,.T.);
#1037=FACE_BOUND('',#927,.T.);
#1038=FACE_BOUND('',#928,.T.);
#1039=FACE_BOUND('',#929,.T.);
#1040=FACE_BOUND('',#930,.T.);
#1041=FACE_BOUND('',#931,.T.);
#1042=FACE_BOUND('',#932,.T.);
#1043=FACE_BOUND('',#933,.T.);
#1044=FACE_BOUND('',#934,.T.);
#1045=PLANE('',#1146);
#1046=PLANE('',#1152);
#1047=PLANE('',#1160);
#1048=PLANE('',#1162);
#1049=PLANE('',#1164);
#1050=PLANE('',#1170);
#1051=PLANE('',#1171);
#1052=PLANE('',#1177);
#1053=PLANE('',#1178);
#1054=PLANE('',#1200);
#1055=PLANE('',#1203);
#1056=PLANE('',#1204);
#1057=PLANE('',#1205);
#1058=PLANE('',#1206);
#1059=PLANE('',#1207);
#1060=PLANE('',#1208);
#1061=PLANE('',#1209);
#1062=PLANE('',#1210);
#1063=PLANE('',#1211);
#1064=PLANE('',#1212);
#1065=PLANE('',#1213);
#1066=PLANE('',#1229);
#1067=PLANE('',#1230);
#1068=PLANE('',#1231);
#1069=PLANE('',#1232);
#1070=PLANE('',#1233);
#1071=PLANE('',#1234);
#1072=PLANE('',#1235);
#1073=PLANE('',#1236);
#1074=PLANE('',#1237);
#1075=ADVANCED_FACE('',(#935,#936,#937,#938,#939,#940),#1045,.T.);
#1076=ADVANCED_FACE('',(#941,#942,#943,#944,#945,#946),#1046,.F.);
#1077=ADVANCED_FACE('',(#947,#948),#1047,.T.);
#1078=ADVANCED_FACE('',(#949,#950),#1048,.T.);
#1079=ADVANCED_FACE('',(#951,#952),#1049,.T.);
#1080=ADVANCED_FACE('',(#953,#954),#25,.F.);
#1081=ADVANCED_FACE('',(#955,#956),#26,.F.);
#1082=ADVANCED_FACE('',(#957,#958,#959),#1050,.F.);
#1083=ADVANCED_FACE('',(#960,#961,#962,#963,#964),#1051,.F.);
#1084=ADVANCED_FACE('',(#965,#966,#967),#1052,.T.);
#1085=ADVANCED_FACE('',(#968,#969),#1053,.T.);
#1086=ADVANCED_FACE('',(#970,#971),#27,.F.);
#1087=ADVANCED_FACE('',(#972,#973),#28,.F.);
#1088=ADVANCED_FACE('',(#974),#29,.F.);
#1089=ADVANCED_FACE('',(#975),#30,.F.);
#1090=ADVANCED_FACE('',(#976,#977),#31,.F.);
#1091=ADVANCED_FACE('',(#978,#979),#32,.F.);
#1092=ADVANCED_FACE('',(#980,#981),#33,.F.);
#1093=ADVANCED_FACE('',(#982,#983),#18,.F.);
#1094=ADVANCED_FACE('',(#984,#985),#19,.F.);
#1095=ADVANCED_FACE('',(#986,#987),#20,.F.);
#1096=ADVANCED_FACE('',(#988,#989),#21,.F.);
#1097=ADVANCED_FACE('',(#990,#991),#22,.F.);
#1098=ADVANCED_FACE('',(#992,#993),#23,.F.);
#1099=ADVANCED_FACE('',(#994,#995),#24,.F.);
#1100=ADVANCED_FACE('',(#996),#1054,.F.);
#1101=ADVANCED_FACE('',(#997),#1055,.T.);
#1102=ADVANCED_FACE('',(#998),#1056,.F.);
#1103=ADVANCED_FACE('',(#999),#1057,.F.);
#1104=ADVANCED_FACE('',(#1000),#1058,.F.);
#1105=ADVANCED_FACE('',(#1001),#1059,.T.);
#1106=ADVANCED_FACE('',(#1002),#1060,.T.);
#1107=ADVANCED_FACE('',(#1003),#1061,.T.);
#1108=ADVANCED_FACE('',(#1004),#1062,.F.);
#1109=ADVANCED_FACE('',(#1005),#1063,.T.);
#1110=ADVANCED_FACE('',(#1006),#1064,.F.);
#1111=ADVANCED_FACE('',(#1007,#1008,#1009,#1010,#1011,#1012),#1065,.T.);
#1112=ADVANCED_FACE('',(#1013,#1014),#34,.F.);
#1113=ADVANCED_FACE('',(#1015,#1016),#35,.F.);
#1114=ADVANCED_FACE('',(#1017,#1018),#36,.F.);
#1115=ADVANCED_FACE('',(#1019,#1020),#37,.F.);
#1116=ADVANCED_FACE('',(#1021,#1022),#38,.F.);
#1117=ADVANCED_FACE('',(#1023,#1024,#1025,#1026,#1027,#1028),#1066,.F.);
#1118=ADVANCED_FACE('',(#1029),#1067,.T.);
#1119=ADVANCED_FACE('',(#1030),#1068,.F.);
#1120=ADVANCED_FACE('',(#1031),#1069,.T.);
#1121=ADVANCED_FACE('',(#1032),#1070,.F.);
#1122=ADVANCED_FACE('',(#1033),#1071,.T.);
#1123=ADVANCED_FACE('',(#1034),#1072,.F.);
#1124=ADVANCED_FACE('',(#1035),#1073,.F.);
#1125=ADVANCED_FACE('',(#1036),#1074,.T.);
#1126=ADVANCED_FACE('',(#1037),#39,.T.);
#1127=ADVANCED_FACE('',(#1038),#40,.T.);
#1128=ADVANCED_FACE('',(#1039),#41,.T.);
#1129=ADVANCED_FACE('',(#1040),#42,.T.);
#1130=ADVANCED_FACE('',(#1041),#43,.T.);
#1131=ADVANCED_FACE('',(#1042),#44,.T.);
#1132=ADVANCED_FACE('',(#1043,#1044),#45,.F.);
#1133=CLOSED_SHELL('',(#1075,#1076,#1077,#1078,#1079,#1080,#1081,#1082,
#1083,#1084,#1085,#1086,#1087,#1088,#1089,#1090,#1091,#1092,#1093,#1094,
#1095,#1096,#1097,#1098,#1099,#1100,#1101,#1102,#1103,#1104,#1105,#1106,
#1107,#1108,#1109,#1110,#1111,#1112,#1113,#1114,#1115,#1116,#1117,#1118,
#1119,#1120,#1121,#1122,#1123,#1124,#1125,#1126,#1127,#1128,#1129,#1130,
#1131,#1132));
#1134=STYLED_ITEM('',(#1135),#1142);
#1135=PRESENTATION_STYLE_ASSIGNMENT((#1136));
#1136=SURFACE_STYLE_USAGE(.BOTH.,#1137);
#1137=SURFACE_SIDE_STYLE('',(#1138));
#1138=SURFACE_STYLE_FILL_AREA(#1139);
#1139=FILL_AREA_STYLE('',(#1140));
#1140=FILL_AREA_STYLE_COLOUR('',#1141);
#1141=COLOUR_RGB('',0.768627450980392,0.886274509803922,0.952941176470588);
#1142=MANIFOLD_SOLID_BREP('BallScrewHolder0',#1133);
#1143=SHAPE_DEFINITION_REPRESENTATION(#1872,#1144);
#1144=SHAPE_REPRESENTATION('BallScrewHolder0',(#1145),#1867);
#1145=AXIS2_PLACEMENT_3D('',#1557,#1249,#1250);
#1146=AXIS2_PLACEMENT_3D('',#1558,#1251,#1252);
#1147=AXIS2_PLACEMENT_3D('',#1559,#1253,#1254);
#1148=AXIS2_PLACEMENT_3D('',#1585,#1267,#1268);
#1149=AXIS2_PLACEMENT_3D('',#1587,#1269,#1270);
#1150=AXIS2_PLACEMENT_3D('',#1589,#1271,#1272);
#1151=AXIS2_PLACEMENT_3D('',#1591,#1273,#1274);
#1152=AXIS2_PLACEMENT_3D('',#1593,#1275,#1276);
#1153=AXIS2_PLACEMENT_3D('',#1594,#1277,#1278);
#1154=AXIS2_PLACEMENT_3D('',#1596,#1279,#1280);
#1155=AXIS2_PLACEMENT_3D('',#1598,#1281,#1282);
#1156=AXIS2_PLACEMENT_3D('',#1600,#1283,#1284);
#1157=AXIS2_PLACEMENT_3D('',#1602,#1285,#1286);
#1158=AXIS2_PLACEMENT_3D('',#1621,#1295,#1296);
#1159=AXIS2_PLACEMENT_3D('',#1625,#1298,#1299);
#1160=AXIS2_PLACEMENT_3D('',#1628,#1301,#1302);
#1161=AXIS2_PLACEMENT_3D('',#1629,#1303,#1304);
#1162=AXIS2_PLACEMENT_3D('',#1636,#1308,#1309);
#1163=AXIS2_PLACEMENT_3D('',#1646,#1315,#1316);
#1164=AXIS2_PLACEMENT_3D('',#1648,#1317,#1318);
#1165=AXIS2_PLACEMENT_3D('',#1658,#1324,#1325);
#1166=AXIS2_PLACEMENT_3D('',#1660,#1326,#1327);
#1167=AXIS2_PLACEMENT_3D('',#1661,#1328,#1329);
#1168=AXIS2_PLACEMENT_3D('',#1663,#1330,#1331);
#1169=AXIS2_PLACEMENT_3D('',#1664,#1332,#1333);
#1170=AXIS2_PLACEMENT_3D('',#1666,#1334,#1335);
#1171=AXIS2_PLACEMENT_3D('',#1687,#1347,#1348);
#1172=AXIS2_PLACEMENT_3D('',#1693,#1352,#1353);
#1173=AXIS2_PLACEMENT_3D('',#1695,#1354,#1355);
#1174=AXIS2_PLACEMENT_3D('',#1697,#1356,#1357);
#1175=AXIS2_PLACEMENT_3D('',#1702,#1359,#1360);
#1176=AXIS2_PLACEMENT_3D('',#1707,#1363,#1364);
#1177=AXIS2_PLACEMENT_3D('',#1708,#1365,#1366);
#1178=AXIS2_PLACEMENT_3D('',#1726,#1377,#1378);
#1179=AXIS2_PLACEMENT_3D('',#1741,#1387,#1388);
#1180=AXIS2_PLACEMENT_3D('',#1742,#1389,#1390);
#1181=AXIS2_PLACEMENT_3D('',#1744,#1391,#1392);
#1182=AXIS2_PLACEMENT_3D('',#1745,#1393,#1394);
#1183=AXIS2_PLACEMENT_3D('',#1747,#1395,#1396);
#1184=AXIS2_PLACEMENT_3D('',#1748,#1397,#1398);
#1185=AXIS2_PLACEMENT_3D('',#1749,#1399,#1400);
#1186=AXIS2_PLACEMENT_3D('',#1750,#1401,#1402);
#1187=AXIS2_PLACEMENT_3D('',#1751,#1403,#1404);
#1188=AXIS2_PLACEMENT_3D('',#1752,#1405,#1406);
#1189=AXIS2_PLACEMENT_3D('',#1754,#1407,#1408);
#1190=AXIS2_PLACEMENT_3D('',#1755,#1409,#1410);
#1191=AXIS2_PLACEMENT_3D('',#1757,#1411,#1412);
#1192=AXIS2_PLACEMENT_3D('',#1758,#1413,#1414);
#1193=AXIS2_PLACEMENT_3D('',#1760,#1415,#1416);
#1194=AXIS2_PLACEMENT_3D('',#1761,#1417,#1418);
#1195=AXIS2_PLACEMENT_3D('',#1762,#1419,#1420);
#1196=AXIS2_PLACEMENT_3D('',#1763,#1421,#1422);
#1197=AXIS2_PLACEMENT_3D('',#1764,#1423,#1424);
#1198=AXIS2_PLACEMENT_3D('',#1765,#1425,#1426);
#1199=AXIS2_PLACEMENT_3D('',#1766,#1427,#1428);
#1200=AXIS2_PLACEMENT_3D('',#1767,#1429,#1430);
#1201=AXIS2_PLACEMENT_3D('',#1768,#1431,#1432);
#1202=AXIS2_PLACEMENT_3D('',#1773,#1435,#1436);
#1203=AXIS2_PLACEMENT_3D('',#1774,#1437,#1438);
#1204=AXIS2_PLACEMENT_3D('',#1780,#1442,#1443);
#1205=AXIS2_PLACEMENT_3D('',#1783,#1446,#1447);
#1206=AXIS2_PLACEMENT_3D('',#1786,#1450,#1451);
#1207=AXIS2_PLACEMENT_3D('',#1792,#1455,#1456);
#1208=AXIS2_PLACEMENT_3D('',#1795,#1459,#1460);
#1209=AXIS2_PLACEMENT_3D('',#1798,#1463,#1464);
#1210=AXIS2_PLACEMENT_3D('',#1799,#1465,#1466);
#1211=AXIS2_PLACEMENT_3D('',#1800,#1467,#1468);
#1212=AXIS2_PLACEMENT_3D('',#1801,#1469,#1470);
#1213=AXIS2_PLACEMENT_3D('',#1802,#1471,#1472);
#1214=AXIS2_PLACEMENT_3D('',#1815,#1481,#1482);
#1215=AXIS2_PLACEMENT_3D('',#1817,#1483,#1484);
#1216=AXIS2_PLACEMENT_3D('',#1819,#1485,#1486);
#1217=AXIS2_PLACEMENT_3D('',#1821,#1487,#1488);
#1218=AXIS2_PLACEMENT_3D('',#1823,#1489,#1490);
#1219=AXIS2_PLACEMENT_3D('',#1825,#1491,#1492);
#1220=AXIS2_PLACEMENT_3D('',#1826,#1493,#1494);
#1221=AXIS2_PLACEMENT_3D('',#1828,#1495,#1496);
#1222=AXIS2_PLACEMENT_3D('',#1829,#1497,#1498);
#1223=AXIS2_PLACEMENT_3D('',#1831,#1499,#1500);
#1224=AXIS2_PLACEMENT_3D('',#1832,#1501,#1502);
#1225=AXIS2_PLACEMENT_3D('',#1834,#1503,#1504);
#1226=AXIS2_PLACEMENT_3D('',#1835,#1505,#1506);
#1227=AXIS2_PLACEMENT_3D('',#1837,#1507,#1508);
#1228=AXIS2_PLACEMENT_3D('',#1838,#1509,#1510);
#1229=AXIS2_PLACEMENT_3D('',#1840,#1511,#1512);
#1230=AXIS2_PLACEMENT_3D('',#1843,#1515,#1516);
#1231=AXIS2_PLACEMENT_3D('',#1845,#1518,#1519);
#1232=AXIS2_PLACEMENT_3D('',#1846,#1520,#1521);
#1233=AXIS2_PLACEMENT_3D('',#1848,#1523,#1524);
#1234=AXIS2_PLACEMENT_3D('',#1849,#1525,#1526);
#1235=AXIS2_PLACEMENT_3D('',#1851,#1528,#1529);
#1236=AXIS2_PLACEMENT_3D('',#1852,#1530,#1531);
#1237=AXIS2_PLACEMENT_3D('',#1854,#1533,#1534);
#1238=AXIS2_PLACEMENT_3D('',#1855,#1535,#1536);
#1239=AXIS2_PLACEMENT_3D('',#1856,#1537,#1538);
#1240=AXIS2_PLACEMENT_3D('',#1857,#1539,#1540);
#1241=AXIS2_PLACEMENT_3D('',#1858,#1541,#1542);
#1242=AXIS2_PLACEMENT_3D('',#1859,#1543,#1544);
#1243=AXIS2_PLACEMENT_3D('',#1860,#1545,#1546);
#1244=AXIS2_PLACEMENT_3D('',#1861,#1547,#1548);
#1245=AXIS2_PLACEMENT_3D('',#1862,#1549,#1550);
#1246=AXIS2_PLACEMENT_3D('',#1863,#1551,#1552);
#1247=AXIS2_PLACEMENT_3D('',#1864,#1553,#1554);
#1248=AXIS2_PLACEMENT_3D('',#1865,#1555,#1556);
#1249=DIRECTION('',(0.,0.,1.));
#1250=DIRECTION('',(1.,0.,0.));
#1251=DIRECTION('',(-2.97381167310236E-16,-5.72862171146041E-14,-1.));
#1252=DIRECTION('',(0.,1.,-5.72862171146041E-14));
#1253=DIRECTION('',(-2.97381167310236E-16,-5.72862171146041E-14,-1.));
#1254=DIRECTION('',(0.,1.,-5.72862171146041E-14));
#1255=DIRECTION('',(-1.,1.70853660277764E-29,2.97381167310236E-16));
#1256=DIRECTION('',(-5.27871164228615E-31,1.,-5.72862171146041E-14));
#1257=DIRECTION('',(1.,1.30719991201268E-15,-2.97381167310311E-16));
#1258=DIRECTION('',(2.97527383031921E-31,1.,-5.72862171146041E-14));
#1259=DIRECTION('',(1.,-1.70853660277764E-29,-2.97381167310236E-16));
#1260=DIRECTION('',(1.30719991189349E-15,-1.,5.72862171146041E-14));
#1261=DIRECTION('',(1.,-1.70853660277764E-29,-2.97381167310236E-16));
#1262=DIRECTION('',(-2.97527383031916E-31,-1.,5.72862171146041E-14));
#1263=DIRECTION('',(1.,1.30719991189348E-15,-2.97381167310311E-16));
#1264=DIRECTION('',(-2.97527383031913E-31,-1.,5.72862171146041E-14));
#1265=DIRECTION('',(-1.,1.70853660277764E-29,2.97381167310236E-16));
#1266=DIRECTION('',(1.30719991189349E-15,-1.,5.72862171146041E-14));
#1267=DIRECTION('',(-2.97381167310236E-16,-5.72862171146041E-14,-1.));
#1268=DIRECTION('',(0.,1.,-5.72862171146041E-14));
#1269=DIRECTION('',(-2.97381167310236E-16,-5.72862171146041E-14,-1.));
#1270=DIRECTION('',(0.,1.,-5.72862171146041E-14));
#1271=DIRECTION('',(-2.97381167310236E-16,-5.72862171146041E-14,-1.));
#1272=DIRECTION('',(0.,1.,-5.72862171146041E-14));
#1273=DIRECTION('',(-2.97381167310236E-16,-5.72862171146041E-14,-1.));
#1274=DIRECTION('',(0.,1.,-5.72862171146041E-14));
#1275=DIRECTION('',(7.38219825041088E-29,-5.72862171146041E-14,-1.));
#1276=DIRECTION('',(0.,1.,-5.72862171146041E-14));
#1277=DIRECTION('',(7.38219825041088E-29,-5.72862171146041E-14,-1.));
#1278=DIRECTION('',(0.,1.,-5.72862171146041E-14));
#1279=DIRECTION('',(7.38219825041088E-29,-5.72862171146041E-14,-1.));
#1280=DIRECTION('',(0.,1.,-5.72862171146041E-14));
#1281=DIRECTION('',(7.38219825041088E-29,-5.72862171146041E-14,-1.));
#1282=DIRECTION('',(0.,1.,-5.72862171146041E-14));
#1283=DIRECTION('',(7.38219825041088E-29,-5.72862171146041E-14,-1.));
#1284=DIRECTION('',(0.,1.,-5.72862171146041E-14));
#1285=DIRECTION('',(7.38219825041088E-29,-5.72862171146041E-14,-1.));
#1286=DIRECTION('',(0.,1.,-5.72862171146041E-14));
#1287=DIRECTION('',(1.30719991189349E-15,-1.,5.72862171146041E-14));
#1288=DIRECTION('',(-1.,-1.30719991189342E-15,1.06255546080914E-30));
#1289=DIRECTION('',(-1.30719991189349E-15,1.,-5.76316884464727E-14));
#1290=DIRECTION('',(1.,1.3071999120127E-15,-1.06255546764201E-30));
#1291=DIRECTION('',(-1.30719991189349E-15,1.,-5.76316884464727E-14));
#1292=DIRECTION('',(-1.,-1.30719991189342E-15,1.06255546080914E-30));
#1293=DIRECTION('',(1.30719991189349E-15,-1.,5.72862171146041E-14));
#1294=DIRECTION('',(1.,1.30719991189349E-15,4.61605857796438E-30));
#1295=DIRECTION('',(7.38219825041088E-29,-5.72862171146041E-14,-1.));
#1296=DIRECTION('',(0.,1.,-5.72862171146041E-14));
#1297=DIRECTION('',(1.,1.30719991189349E-15,4.61605857796438E-30));
#1298=DIRECTION('',(7.38219825041088E-29,-5.72862171146041E-14,-1.));
#1299=DIRECTION('',(0.,1.,-5.72862171146041E-14));
#1300=DIRECTION('',(1.,1.30719991189349E-15,4.61605857796438E-30));
#1301=DIRECTION('',(-1.30719991189349E-15,1.,-5.72862171146041E-14));
#1302=DIRECTION('',(1.,1.30719991189349E-15,-7.48845379649221E-29));
#1303=DIRECTION('',(-1.30719991189349E-15,1.,-5.72862171146041E-14));
#1304=DIRECTION('',(0.,5.72862171146041E-14,1.));
#1305=DIRECTION('',(2.97381167310236E-16,5.72862171146041E-14,1.));
#1306=DIRECTION('',(1.,1.30719991189349E-15,4.61605857796438E-30));
#1307=DIRECTION('',(2.97381167310236E-16,5.72862171146041E-14,1.));
#1308=DIRECTION('',(-1.30719991189349E-15,1.,-5.72862171146041E-14));
#1309=DIRECTION('',(1.,1.30719991189349E-15,-7.48845379649221E-29));
#1310=DIRECTION('',(9.25541690558382E-31,5.61908962353098E-14,1.));
#1311=DIRECTION('',(1.,1.30719991189349E-15,-7.42982300588714E-29));
#1312=DIRECTION('',(-5.06261666350234E-31,5.72862171146041E-14,1.));
#1313=DIRECTION('',(2.97381167310236E-16,5.72862171146041E-14,1.));
#1314=DIRECTION('',(1.,1.30719991189349E-15,4.61605857796438E-30));
#1315=DIRECTION('',(-1.30719991189349E-15,1.,-5.72862171146041E-14));
#1316=DIRECTION('',(0.,5.72862171146041E-14,1.));
#1317=DIRECTION('',(-1.30719991189349E-15,1.,-5.72862171146041E-14));
#1318=DIRECTION('',(1.,1.30719991189349E-15,-7.48845379649221E-29));
#1319=DIRECTION('',(-5.06261666350234E-31,5.72862171146041E-14,1.));
#1320=DIRECTION('',(1.,1.30719991189349E-15,-7.42982300588714E-29));
#1321=DIRECTION('',(9.25541690558382E-31,5.61908962353098E-14,1.));
#1322=DIRECTION('',(1.,1.30719991189349E-15,4.61605857796438E-30));
#1323=DIRECTION('',(2.97381167310236E-16,5.72862171146041E-14,1.));
#1324=DIRECTION('',(-1.30719991189349E-15,1.,-5.72862171146041E-14));
#1325=DIRECTION('',(0.,5.72862171146041E-14,1.));
#1326=DIRECTION('',(-2.97381167310236E-16,-5.72862171146041E-14,-1.));
#1327=DIRECTION('',(0.,1.,-5.72862171146041E-14));
#1328=DIRECTION('',(0.,0.,-1.));
#1329=DIRECTION('',(0.,1.,0.));
#1330=DIRECTION('',(-2.97381167310236E-16,-5.72862171146041E-14,-1.));
#1331=DIRECTION('',(0.,1.,-5.72862171146041E-14));
#1332=DIRECTION('',(0.,0.,-1.));
#1333=DIRECTION('',(0.,1.,0.));
#1334=DIRECTION('',(1.,1.30719991189349E-15,-7.43782762985719E-29));
#1335=DIRECTION('',(1.30719991189349E-15,-1.,0.));
#1336=DIRECTION('',(-2.97381167189975E-16,-5.74527505635639E-14,-1.));
#1337=DIRECTION('',(-2.97381167189975E-16,-5.74527505635639E-14,-1.));
#1338=DIRECTION('',(1.38777878078143E-15,-1.,5.74527505635639E-14));
#1339=DIRECTION('',(-5.06261664307316E-31,5.72862171130413E-14,1.));
#1340=DIRECTION('',(1.30719991189349E-15,-1.,5.74527505635639E-14));
#1341=DIRECTION('',(-5.06261666350168E-31,5.72862171146041E-14,1.));
#1342=DIRECTION('',(1.30719991189349E-15,-1.,5.72862171146041E-14));
#1343=DIRECTION('',(9.12556436441362E-16,-0.698100136129492,0.716000139620087));
#1344=DIRECTION('',(-9.2432992206635E-16,0.70710678118659,0.707106781186506));
#1345=DIRECTION('',(9.12556436441362E-16,-0.698100136129493,0.716000139620087));
#1346=DIRECTION('',(-9.24329922066349E-16,0.707106781186589,0.707106781186507));
#1347=DIRECTION('',(-1.30719991189349E-15,1.,-5.72862171146041E-14));
#1348=DIRECTION('',(1.,1.30719991189349E-15,-7.48845379649221E-29));
#1349=DIRECTION('',(-2.97381167189975E-16,-5.74527505635639E-14,-1.));
#1350=DIRECTION('',(-2.97381167189975E-16,-5.74527505635639E-14,-1.));
#1351=DIRECTION('',(1.,1.38777878078143E-15,-2.97381167190054E-16));
#1352=DIRECTION('',(-1.30719991189349E-15,1.,-5.72862171146041E-14));
#1353=DIRECTION('',(0.,5.72862171146041E-14,1.));
#1354=DIRECTION('',(-1.30719991189349E-15,1.,-5.72862171146041E-14));
#1355=DIRECTION('',(0.,5.72862171146041E-14,1.));
#1356=DIRECTION('',(-1.30719991189349E-15,1.,-5.72862171146041E-14));
#1357=DIRECTION('',(0.,5.72862171146041E-14,1.));
#1358=DIRECTION('',(1.,1.38777878078143E-15,-2.97381167190054E-16));
#1359=DIRECTION('',(-1.30719991189349E-15,1.,-5.72862171146041E-14));
#1360=DIRECTION('',(0.,5.72862171146041E-14,1.));
#1361=DIRECTION('',(-5.06261666350168E-31,5.72862171146041E-14,1.));
#1362=DIRECTION('',(1.,1.30719991189349E-15,4.61605857796438E-30));
#1363=DIRECTION('',(-1.30719991189349E-15,1.,-5.72862171146041E-14));
#1364=DIRECTION('',(0.,5.72862171146041E-14,1.));
#1365=DIRECTION('',(1.,1.30719991189349E-15,-7.43782762985719E-29));
#1366=DIRECTION('',(1.30719991189349E-15,-1.,0.));
#1367=DIRECTION('',(-2.97381167189975E-16,-5.74527505635639E-14,-1.));
#1368=DIRECTION('',(-2.97381167189975E-16,-5.74527505635639E-14,-1.));
#1369=DIRECTION('',(1.38777878078144E-15,-1.,5.74527505635639E-14));
#1370=DIRECTION('',(9.12556436441362E-16,-0.698100136129493,0.716000139620087));
#1371=DIRECTION('',(-9.24329922066349E-16,0.707106781186589,0.707106781186506));
#1372=DIRECTION('',(-9.24329922066347E-16,0.707106781186587,0.707106781186508));
#1373=DIRECTION('',(-5.06261664307316E-31,5.72862171130413E-14,1.));
#1374=DIRECTION('',(9.12556436441362E-16,-0.698100136129492,0.716000139620087));
#1375=DIRECTION('',(1.30719991189349E-15,-1.,5.72862171146041E-14));
#1376=DIRECTION('',(1.30719991189349E-15,-1.,5.74527505635639E-14));
#1377=DIRECTION('',(-1.30719991201269E-15,1.,-5.72862171130408E-14));
#1378=DIRECTION('',(1.,1.30719991225375E-15,3.14361070730579E-27));
#1379=DIRECTION('',(-2.97381167189975E-16,-5.74527505635639E-14,-1.));
#1380=DIRECTION('',(1.,1.21430643318375E-15,-2.97381167190044E-16));
#1381=DIRECTION('',(-2.97381167189975E-16,-5.74527505635639E-14,-1.));
#1382=DIRECTION('',(1.,1.30719991189349E-15,-7.43782762985719E-29));
#1383=DIRECTION('',(-5.06261664307298E-31,5.72862171130413E-14,1.));
#1384=DIRECTION('',(1.,1.21430643318375E-15,-2.97381167190044E-16));
#1385=DIRECTION('',(-5.06261664307298E-31,5.72862171130413E-14,1.));
#1386=DIRECTION('',(1.,1.3071999120127E-15,-1.06255546764201E-30));
#1387=DIRECTION('',(-2.97381167310236E-16,-5.72862171146041E-14,-1.));
#1388=DIRECTION('',(0.,1.,-5.72862171146041E-14));
#1389=DIRECTION('',(0.,-6.93889390391184E-14,-1.));
#1390=DIRECTION('',(0.,1.,-6.93889390391184E-14));
#1391=DIRECTION('',(-2.97381167310236E-16,-5.72862171146041E-14,-1.));
#1392=DIRECTION('',(0.,1.,-5.72862171146041E-14));
#1393=DIRECTION('',(0.,-6.93889390391184E-14,-1.));
#1394=DIRECTION('',(0.,1.,-6.93889390391184E-14));
#1395=DIRECTION('',(2.97381167310236E-16,5.72862171146041E-14,1.));
#1396=DIRECTION('',(0.,-1.,5.72862171146041E-14));
#1397=DIRECTION('',(-2.97381167310236E-16,-5.72862171146041E-14,-1.));
#1398=DIRECTION('',(0.,1.,-5.72862171146041E-14));
#1399=DIRECTION('',(2.97381167310236E-16,5.72862171146041E-14,1.));
#1400=DIRECTION('',(0.,-1.,5.72862171146041E-14));
#1401=DIRECTION('',(-2.97381167310236E-16,-5.72862171146041E-14,-1.));
#1402=DIRECTION('',(0.,1.,-5.72862171146041E-14));
#1403=DIRECTION('',(-1.30719991189349E-15,1.,-5.72862171146041E-14));
#1404=DIRECTION('',(0.,5.72862171146041E-14,1.));
#1405=DIRECTION('',(0.,1.,-6.93889390390607E-14));
#1406=DIRECTION('',(0.,6.93889390390607E-14,1.));
#1407=DIRECTION('',(-1.30719991189349E-15,1.,-5.72862171146041E-14));
#1408=DIRECTION('',(0.,5.72862171146041E-14,1.));
#1409=DIRECTION('',(-1.30719991189364E-15,1.,-6.93889390390703E-14));
#1410=DIRECTION('',(0.,6.93889390390703E-14,1.));
#1411=DIRECTION('',(-1.30719991189349E-15,1.,-5.72862171146041E-14));
#1412=DIRECTION('',(0.,5.72862171146041E-14,1.));
#1413=DIRECTION('',(0.,1.,-6.93889390390655E-14));
#1414=DIRECTION('',(0.,6.93889390390655E-14,1.));
#1415=DIRECTION('',(-1.30719991189364E-15,1.,-6.93889390390703E-14));
#1416=DIRECTION('',(0.,6.93889390390703E-14,1.));
#1417=DIRECTION('',(0.,1.,-6.93889390390607E-14));
#1418=DIRECTION('',(0.,6.93889390390607E-14,1.));
#1419=DIRECTION('',(0.,1.,-6.93889390390655E-14));
#1420=DIRECTION('',(0.,6.93889390390655E-14,1.));
#1421=DIRECTION('',(0.,0.,1.));
#1422=DIRECTION('',(0.,-1.,0.));
#1423=DIRECTION('',(0.,0.,1.));
#1424=DIRECTION('',(0.,-1.,0.));
#1425=DIRECTION('',(0.,6.93889390391184E-14,1.));
#1426=DIRECTION('',(0.,-1.,6.93889390391184E-14));
#1427=DIRECTION('',(0.,6.93889390391184E-14,1.));
#1428=DIRECTION('',(0.,-1.,6.93889390391184E-14));
#1429=DIRECTION('',(7.95005965428865E-29,-5.72862171146041E-14,-1.));
#1430=DIRECTION('',(0.,1.,-5.72862171146041E-14));
#1431=DIRECTION('',(7.95005965428865E-29,-5.72862171146041E-14,-1.));
#1432=DIRECTION('',(1.30719991189358E-15,-1.,5.72862171146041E-14));
#1433=DIRECTION('',(1.,1.30719991189349E-15,-7.43782762985719E-29));
#1434=DIRECTION('',(1.,1.30719991189349E-15,4.61605857796438E-30));
#1435=DIRECTION('',(7.95005965428865E-29,-5.72862171146041E-14,-1.));
#1436=DIRECTION('',(1.30719991189358E-15,-1.,5.72862171146041E-14));
#1437=DIRECTION('',(9.35955319427056E-16,-0.716000139620087,-0.698100136129493));
#1438=DIRECTION('',(0.,0.698100136129493,-0.716000139620087));
#1439=DIRECTION('',(9.12556436441362E-16,-0.698100136129493,0.716000139620087));
#1440=DIRECTION('',(-1.,-1.30719991189349E-15,7.43110719539025E-29));
#1441=DIRECTION('',(1.,1.30719991189342E-15,-1.04208522826175E-30));
#1442=DIRECTION('',(9.35955319427056E-16,-0.716000139620087,-0.698100136129492));
#1443=DIRECTION('',(0.,0.698100136129492,-0.716000139620087));
#1444=DIRECTION('',(9.12556436441362E-16,-0.698100136129492,0.716000139620087));
#1445=DIRECTION('',(9.12556436441362E-16,-0.698100136129492,0.716000139620087));
#1446=DIRECTION('',(-1.,-1.30719991189349E-15,7.43782762985719E-29));
#1447=DIRECTION('',(7.43782762985719E-29,9.72272762242832E-44,1.));
#1448=DIRECTION('',(9.2432992206635E-16,-0.70710678118659,-0.707106781186506));
#1449=DIRECTION('',(9.24329922066349E-16,-0.707106781186589,-0.707106781186507));
#1450=DIRECTION('',(-9.35955319427056E-16,0.716000139620087,0.698100136129493));
#1451=DIRECTION('',(0.,-0.698100136129493,0.716000139620087));
#1452=DIRECTION('',(9.12556436441362E-16,-0.698100136129493,0.716000139620087));
#1453=DIRECTION('',(1.,1.30719991189342E-15,-1.04208522826175E-30));
#1454=DIRECTION('',(-1.,-1.30719991189349E-15,7.43110719539025E-29));
#1455=DIRECTION('',(-9.35955319427056E-16,0.716000139620087,0.698100136129492));
#1456=DIRECTION('',(0.,-0.698100136129492,0.716000139620087));
#1457=DIRECTION('',(9.12556436441362E-16,-0.698100136129492,0.716000139620087));
#1458=DIRECTION('',(9.12556436441362E-16,-0.698100136129492,0.716000139620087));
#1459=DIRECTION('',(-1.,-1.30719991189349E-15,7.43782762985719E-29));
#1460=DIRECTION('',(7.43782762985719E-29,9.72272762242832E-44,1.));
#1461=DIRECTION('',(9.24329922066349E-16,-0.707106781186589,-0.707106781186506));
#1462=DIRECTION('',(9.24329922066347E-16,-0.707106781186587,-0.707106781186508));
#1463=DIRECTION('',(9.24329922066243E-16,-0.707106781186506,0.707106781186589));
#1464=DIRECTION('',(-1.,-1.30719991189342E-15,1.06255546080915E-30));
#1465=DIRECTION('',(9.24329922066348E-16,-0.707106781186508,0.707106781186587));
#1466=DIRECTION('',(1.,1.30719991189349E-15,-7.4396837672024E-29));
#1467=DIRECTION('',(-9.24329922066347E-16,0.707106781186507,-0.707106781186589));
#1468=DIRECTION('',(1.,1.30719991189349E-15,-7.44954452851767E-29));
#1469=DIRECTION('',(-9.24329922066242E-16,0.707106781186505,-0.70710678118659));
#1470=DIRECTION('',(-1.,-1.30719991189342E-15,1.06255546080915E-30));
#1471=DIRECTION('',(2.97381167189975E-16,5.74527505635639E-14,1.));
#1472=DIRECTION('',(1.,-1.70853660208671E-29,-2.97381167189975E-16));
#1473=DIRECTION('',(-1.,1.70853660208671E-29,2.97381167189975E-16));
#1474=DIRECTION('',(-2.48003471604078E-31,-1.,5.74527505635639E-14));
#1475=DIRECTION('',(-2.48003471604081E-31,-1.,5.74527505635639E-14));
#1476=DIRECTION('',(1.,-1.70853660208671E-29,-2.97381167189975E-16));
#1477=DIRECTION('',(1.,-1.70853660208671E-29,-2.97381167189975E-16));
#1478=DIRECTION('',(2.48003471604086E-31,1.,-5.74527505635639E-14));
#1479=DIRECTION('',(-5.7739507565645E-31,1.,-5.74527505635639E-14));
#1480=DIRECTION('',(-1.,1.70853660208671E-29,2.97381167189975E-16));
#1481=DIRECTION('',(2.97381167189975E-16,5.74527505635639E-14,1.));
#1482=DIRECTION('',(0.,-1.,5.74527505635639E-14));
#1483=DIRECTION('',(2.97381167189975E-16,5.74527505635639E-14,1.));
#1484=DIRECTION('',(0.,-1.,5.74527505635639E-14));
#1485=DIRECTION('',(2.97381167189975E-16,5.74527505635639E-14,1.));
#1486=DIRECTION('',(0.,-1.,5.74527505635639E-14));
#1487=DIRECTION('',(2.97381167189975E-16,5.74527505635639E-14,1.));
#1488=DIRECTION('',(0.,-1.,5.74527505635639E-14));
#1489=DIRECTION('',(2.97381167189975E-16,5.74527505635639E-14,1.));
#1490=DIRECTION('',(0.,-1.,5.74527505635639E-14));
#1491=DIRECTION('',(-2.97381167189975E-16,-5.74527505635639E-14,-1.));
#1492=DIRECTION('',(0.,1.,-5.74527505635639E-14));
#1493=DIRECTION('',(2.97381167189975E-16,5.74527505635639E-14,1.));
#1494=DIRECTION('',(0.,-1.,5.74527505635639E-14));
#1495=DIRECTION('',(-2.97381167189975E-16,-5.74527505635639E-14,-1.));
#1496=DIRECTION('',(0.,1.,-5.74527505635639E-14));
#1497=DIRECTION('',(2.97381167189975E-16,5.74527505635639E-14,1.));
#1498=DIRECTION('',(0.,-1.,5.74527505635639E-14));
#1499=DIRECTION('',(-2.97381167189975E-16,-5.74527505635639E-14,-1.));
#1500=DIRECTION('',(0.,1.,-5.74527505635639E-14));
#1501=DIRECTION('',(2.97381167189975E-16,5.74527505635639E-14,1.));
#1502=DIRECTION('',(0.,-1.,5.74527505635639E-14));
#1503=DIRECTION('',(-2.97381167189975E-16,-5.74527505635639E-14,-1.));
#1504=DIRECTION('',(0.,1.,-5.74527505635639E-14));
#1505=DIRECTION('',(2.97381167189975E-16,5.74527505635639E-14,1.));
#1506=DIRECTION('',(0.,-1.,5.74527505635639E-14));
#1507=DIRECTION('',(-2.97381167189975E-16,-5.74527505635639E-14,-1.));
#1508=DIRECTION('',(0.,1.,-5.74527505635639E-14));
#1509=DIRECTION('',(2.97381167189975E-16,5.74527505635639E-14,1.));
#1510=DIRECTION('',(0.,-1.,5.74527505635639E-14));
#1511=DIRECTION('',(2.97381167189975E-16,5.74527505635639E-14,1.));
#1512=DIRECTION('',(1.,-1.70853660208671E-29,-2.97381167189975E-16));
#1513=DIRECTION('',(1.30719991189349E-15,-1.,5.74527505635639E-14));
#1514=DIRECTION('',(1.30719991189349E-15,-1.,5.74527505635639E-14));
#1515=DIRECTION('',(1.,-1.65079709452107E-29,-2.97381167189975E-16));
#1516=DIRECTION('',(-2.97381167189975E-16,0.,-1.));
#1517=DIRECTION('',(-2.97381167189975E-16,-5.74527505635639E-14,-1.));
#1518=DIRECTION('',(0.,1.,-5.74527505635639E-14));
#1519=DIRECTION('',(0.,5.74527505635639E-14,1.));
#1520=DIRECTION('',(-1.,1.73333694924712E-29,2.97381167189975E-16));
#1521=DIRECTION('',(2.97381167189975E-16,0.,1.));
#1522=DIRECTION('',(-2.97381167189975E-16,-5.74527505635639E-14,-1.));
#1523=DIRECTION('',(0.,-1.,5.74527505635639E-14));
#1524=DIRECTION('',(0.,-5.74527505635639E-14,-1.));
#1525=DIRECTION('',(0.,-1.,5.74527505635639E-14));
#1526=DIRECTION('',(0.,-5.74527505635639E-14,-1.));
#1527=DIRECTION('',(-2.97381167189975E-16,-5.74527505635639E-14,-1.));
#1528=DIRECTION('',(1.,-1.73333694924712E-29,-2.97381167189975E-16));
#1529=DIRECTION('',(-2.97381167189975E-16,0.,-1.));
#1530=DIRECTION('',(-1.,1.73333694924712E-29,2.97381167189975E-16));
#1531=DIRECTION('',(2.97381167189975E-16,0.,1.));
#1532=DIRECTION('',(-2.97381167189975E-16,-5.74527505635639E-14,-1.));
#1533=DIRECTION('',(0.,1.,-5.74527505635639E-14));
#1534=DIRECTION('',(0.,5.74527505635639E-14,1.));
#1535=DIRECTION('',(-1.30719991189349E-15,1.,-5.74527505635639E-14));
#1536=DIRECTION('',(0.,5.74527505635639E-14,1.));
#1537=DIRECTION('',(-9.24329922066348E-16,0.707106781186588,0.707106781186507));
#1538=DIRECTION('',(-9.24329922066347E-16,0.707106781186507,-0.707106781186588));
#1539=DIRECTION('',(-5.06261664307309E-31,5.72862171130413E-14,1.));
#1540=DIRECTION('',(0.,-1.,5.72862171130413E-14));
#1541=DIRECTION('',(4.92590549322186E-16,-0.376828780999987,0.926282931835659));
#1542=DIRECTION('',(-1.21083696688399E-15,0.926282931835659,0.376828780999987));
#1543=DIRECTION('',(9.12556436441362E-16,-0.698100136129492,0.716000139620087));
#1544=DIRECTION('',(0.,-0.716000139620087,-0.698100136129492));
#1545=DIRECTION('',(9.12556436441362E-16,-0.698100136129492,0.716000139620087));
#1546=DIRECTION('',(0.,-0.716000139620087,-0.698100136129492));
#1547=DIRECTION('',(-4.92590549322186E-16,0.376828780999987,-0.926282931835659));
#1548=DIRECTION('',(1.21083696688399E-15,-0.926282931835659,-0.376828780999987));
#1549=DIRECTION('',(5.06261664307309E-31,-5.72862171130413E-14,-1.));
#1550=DIRECTION('',(0.,1.,-5.72862171130413E-14));
#1551=DIRECTION('',(9.24329922066348E-16,-0.707106781186588,-0.707106781186507));
#1552=DIRECTION('',(-9.24329922066347E-16,0.707106781186507,-0.707106781186588));
#1553=DIRECTION('',(1.30719991189349E-15,-1.,5.74527505635639E-14));
#1554=DIRECTION('',(0.,-5.74527505635639E-14,-1.));
#1555=DIRECTION('',(-2.97381167310236E-16,-5.72862171146041E-14,-1.));
#1556=DIRECTION('',(0.,1.,-5.72862171146041E-14));
#1557=CARTESIAN_POINT('',(0.,0.,0.));
#1558=CARTESIAN_POINT('',(-2.4385580561379E-10,-0.0136760178470065,-0.0504527135457785));
#1559=CARTESIAN_POINT('',(-2.58750233045335E-10,-0.0356780178470062,-0.0504527135457773));
#1560=CARTESIAN_POINT('',(-2.58750233045335E-10,-0.0256780178470062,-0.0504527135457779));
#1561=CARTESIAN_POINT('',(-0.0300000002438558,-0.0236780178470065,-0.0504527135457779));
#1562=CARTESIAN_POINT('',(-0.0250000002438558,-0.0236780178470065,-0.0504527135457782));
#1563=CARTESIAN_POINT('',(-0.0350000002438558,-0.0236780178470065,-0.0504527135457779));
#1564=CARTESIAN_POINT('',(-0.0250000002438558,-0.0186780178470065,-0.0504527135457782));
#1565=CARTESIAN_POINT('',(-0.0250000002438558,-0.0136780178470065,-0.0504527135457785));
#1566=CARTESIAN_POINT('',(-2.43855805611175E-10,-0.0136780178470065,-0.0504527135457785));
#1567=CARTESIAN_POINT('',(0.0249999997561442,-0.0136780178470064,-0.0504527135457783));
#1568=CARTESIAN_POINT('',(0.0249999997561442,-0.0186780178470064,-0.0504527135457783));
#1569=CARTESIAN_POINT('',(0.0249999997561442,-0.0236780178470064,-0.050452713545778));
#1570=CARTESIAN_POINT('',(0.0299999997561442,-0.0236780178470064,-0.050452713545778));
#1571=CARTESIAN_POINT('',(0.0349999997561442,-0.0236780178470064,-0.050452713545778));
#1572=CARTESIAN_POINT('',(0.0349999997561442,-0.0136760178470064,-0.0504527135457785));
#1573=CARTESIAN_POINT('',(0.0349999997561442,-0.0476780178470057,-0.0504527135457766));
#1574=CARTESIAN_POINT('',(0.0299999997561442,-0.0476780178470057,-0.0504527135457766));
#1575=CARTESIAN_POINT('',(0.0249999997561442,-0.0476780178470057,-0.0504527135457763));
#1576=CARTESIAN_POINT('',(0.0249999997561442,-0.0526780178470057,-0.0504527135457763));
#1577=CARTESIAN_POINT('',(0.0249999997561442,-0.0576780178470057,-0.050452713545776));
#1578=CARTESIAN_POINT('',(-2.4385574809438E-10,-0.0576780178470057,-0.050452713545776));
#1579=CARTESIAN_POINT('',(-0.0250000002438557,-0.0576780178470058,-0.0504527135457763));
#1580=CARTESIAN_POINT('',(-0.0250000002438557,-0.0526780178470058,-0.0504527135457763));
#1581=CARTESIAN_POINT('',(-0.0250000002438557,-0.0476780178470058,-0.0504527135457763));
#1582=CARTESIAN_POINT('',(-0.0300000002438558,-0.0476780178470058,-0.0504527135457766));
#1583=CARTESIAN_POINT('',(-0.0350000002438558,-0.0476780178470058,-0.0504527135457766));
#1584=CARTESIAN_POINT('',(-0.0350000002438558,-0.0136760178470065,-0.0504527135457785));
#1585=CARTESIAN_POINT('',(-0.0155563494410329,-0.0512343670292889,-0.0504527135457764));
#1586=CARTESIAN_POINT('',(-0.0155563494410329,-0.0485843670292889,-0.0504527135457766));
#1587=CARTESIAN_POINT('',(0.0155563489235333,-0.0512343670292888,-0.0504527135457764));
#1588=CARTESIAN_POINT('',(0.0155563489235333,-0.0485843670292888,-0.0504527135457766));
#1589=CARTESIAN_POINT('',(0.0155563489235332,-0.0201216686647231,-0.0504527135457782));
#1590=CARTESIAN_POINT('',(0.0155563489235332,-0.0174716686647231,-0.0504527135457784));
#1591=CARTESIAN_POINT('',(-0.0155563494410331,-0.0201216686647231,-0.0504527135457782));
#1592=CARTESIAN_POINT('',(-0.0155563494410331,-0.0174716686647231,-0.0504527135457784));
#1593=CARTESIAN_POINT('',(-2.4385580561379E-10,-0.0136760178470062,-0.0454527135457785));
#1594=CARTESIAN_POINT('',(-2.58750231558429E-10,-0.0356780178470059,-0.0454527135457773));
#1595=CARTESIAN_POINT('',(-2.58750231558429E-10,-0.0256780178470059,-0.0454527135457779));
#1596=CARTESIAN_POINT('',(-0.0155563494410329,-0.0512343670292886,-0.0454527135457764));
#1597=CARTESIAN_POINT('',(-0.0155563494410329,-0.0484843670292888,-0.0454527135457766));
#1598=CARTESIAN_POINT('',(0.0155563489235333,-0.0512343670292885,-0.0454527135457764));
#1599=CARTESIAN_POINT('',(0.0155563489235333,-0.0484843670292887,-0.0454527135457766));
#1600=CARTESIAN_POINT('',(-0.0155563494410331,-0.0201216686647229,-0.0454527135457782));
#1601=CARTESIAN_POINT('',(-0.0155563494410331,-0.0173716686647229,-0.0454527135457784));
#1602=CARTESIAN_POINT('',(0.0155563489235332,-0.0201216686647229,-0.0454527135457782));
#1603=CARTESIAN_POINT('',(0.0155563489235332,-0.0173716686647229,-0.0454527135457784));
#1604=CARTESIAN_POINT('',(0.0349999997561442,-0.0136760178470061,-0.0454527135457785));
#1605=CARTESIAN_POINT('',(0.0349999997561442,-0.0246612567087377,-0.0454527135457779));
#1606=CARTESIAN_POINT('',(0.0349999997561442,-0.0526780178470054,-0.0454527135457763));
#1607=CARTESIAN_POINT('',(0.0199999997561442,-0.0246612567087377,-0.0454527135457779));
#1608=CARTESIAN_POINT('',(0.0199999997561442,-0.0246612567087377,-0.0454527135457779));
#1609=CARTESIAN_POINT('',(0.0199999997561442,-0.0171696372778719,-0.0454527135457783));
#1610=CARTESIAN_POINT('',(0.0199999997561442,-0.0136780178470061,-0.0454527135457785));
#1611=CARTESIAN_POINT('',(-2.43855805611175E-10,-0.0136780178470062,-0.0454527135457785));
#1612=CARTESIAN_POINT('',(-0.0200000002438558,-0.0136780178470061,-0.0454527135457785));
#1613=CARTESIAN_POINT('',(-0.0200000002438558,-0.017169637277872,-0.0454527135457783));
#1614=CARTESIAN_POINT('',(-0.0200000002438558,-0.0246612567087378,-0.0454527135457779));
#1615=CARTESIAN_POINT('',(-2.43855791253886E-10,-0.0246612567087378,-0.0454527135457779));
#1616=CARTESIAN_POINT('',(-0.0350000002438558,-0.0246612567087378,-0.0454527135457779));
#1617=CARTESIAN_POINT('',(-0.0350000002438558,-0.0136760178470062,-0.0454527135457785));
#1618=CARTESIAN_POINT('',(-0.0350000002438558,-0.0526780178470055,-0.0454527135457763));
#1619=CARTESIAN_POINT('',(-2.43855754630379E-10,-0.0526780178470054,-0.0454527135457763));
#1620=CARTESIAN_POINT('',(-0.0197656691386212,-0.0526780178470055,-0.0454527135457763));
#1621=CARTESIAN_POINT('',(-0.0155563494410329,-0.0512343670292886,-0.0454527135457764));
#1622=CARTESIAN_POINT('',(-0.0113470297434445,-0.0526780178470055,-0.0454527135457763));
#1623=CARTESIAN_POINT('',(-2.43855754630379E-10,-0.0526780178470054,-0.0454527135457763));
#1624=CARTESIAN_POINT('',(0.0113470292259449,-0.0526780178470054,-0.0454527135457763));
#1625=CARTESIAN_POINT('',(0.0155563489235333,-0.0512343670292885,-0.0454527135457764));
#1626=CARTESIAN_POINT('',(0.0197656686211217,-0.0526780178470054,-0.0454527135457763));
#1627=CARTESIAN_POINT('',(-2.43855754630379E-10,-0.0526780178470054,-0.0454527135457763));
#1628=CARTESIAN_POINT('',(-2.58756086530582E-10,-0.0526780178469996,0.0565472864578304));
#1629=CARTESIAN_POINT('',(6.89552581700781E-17,-0.0526780178470052,-0.0404527135457733));
#1630=CARTESIAN_POINT('',(6.89552581700781E-17,-0.052678017847005,-0.0376027135457733));
#1631=CARTESIAN_POINT('',(-0.0113470297434445,-0.0526780178470055,-0.0454547135457763));
#1632=CARTESIAN_POINT('',(-0.0113470297434445,-0.0526780178470032,-0.00545271354577626));
#1633=CARTESIAN_POINT('',(-2.43855754630379E-10,-0.0526780178470032,-0.00545271354577629));
#1634=CARTESIAN_POINT('',(0.0113470292259449,-0.0526780178470031,-0.00545271354577626));
#1635=CARTESIAN_POINT('',(0.0113470292259449,-0.0526780178470054,-0.0454547135457763));
#1636=CARTESIAN_POINT('',(-2.58756086530582E-10,-0.0526780178469996,0.0565472864578304));
#1637=CARTESIAN_POINT('',(0.0199999997561442,-0.0526780178470033,-0.00903386167999772));
#1638=CARTESIAN_POINT('',(0.0199999997561442,-0.0526780178470038,-0.0166150098142192));
#1639=CARTESIAN_POINT('',(0.0199999997561442,-0.0526780178470031,-0.0054527135457763));
#1640=CARTESIAN_POINT('',(-2.58756086530582E-10,-0.0526780178470038,-0.0166150098142192));
#1641=CARTESIAN_POINT('',(0.0349999997561442,-0.0526780178470037,-0.0166150098142192));
#1642=CARTESIAN_POINT('',(0.0349999997561442,-0.0526780178470051,-0.0404527135457763));
#1643=CARTESIAN_POINT('',(0.0197656686211217,-0.0526780178470054,-0.0454547135457763));
#1644=CARTESIAN_POINT('',(0.0197656686211217,-0.0526780178470031,-0.00545271354577629));
#1645=CARTESIAN_POINT('',(-2.43855754630379E-10,-0.0526780178470032,-0.00545271354577629));
#1646=CARTESIAN_POINT('',(0.027382834188633,-0.0526780178470051,-0.0404527135457733));
#1647=CARTESIAN_POINT('',(0.027382834188633,-0.0526780178470049,-0.0376027135457733));
#1648=CARTESIAN_POINT('',(-2.58756086530582E-10,-0.0526780178469996,0.0565472864578304));
#1649=CARTESIAN_POINT('',(-0.0350000002438558,-0.0526780178470052,-0.0404527135457763));
#1650=CARTESIAN_POINT('',(-0.0350000002438558,-0.0526780178470038,-0.0166150098142192));
#1651=CARTESIAN_POINT('',(-0.0200000002438557,-0.0526780178470038,-0.0166150098142192));
#1652=CARTESIAN_POINT('',(-0.0200000002438557,-0.0526780178470038,-0.0166150098142192));
#1653=CARTESIAN_POINT('',(-0.0200000002438557,-0.0526780178470034,-0.00903386167999772));
#1654=CARTESIAN_POINT('',(-0.0200000002438558,-0.0526780178470032,-0.00545271354577629));
#1655=CARTESIAN_POINT('',(-2.43855754630379E-10,-0.0526780178470032,-0.00545271354577629));
#1656=CARTESIAN_POINT('',(-0.0197656691386212,-0.0526780178470032,-0.00545271354577626));
#1657=CARTESIAN_POINT('',(-0.0197656691386212,-0.0526780178470055,-0.0454547135457763));
#1658=CARTESIAN_POINT('',(-0.0273828346912385,-0.0526780178470052,-0.0404527135457733));
#1659=CARTESIAN_POINT('',(-0.0273828346912385,-0.052678017847005,-0.0376027135457733));
#1660=CARTESIAN_POINT('',(0.0155563489235333,-0.0512343670292722,0.239148809120236));
#1661=CARTESIAN_POINT('',(0.0155563489235333,-0.0512343670292885,-0.0455527135457763));
#1662=CARTESIAN_POINT('',(0.0155563489235333,-0.0485843670292885,-0.0455527135457763));
#1663=CARTESIAN_POINT('',(-0.0155563494410328,-0.0512343670292723,0.239148809120236));
#1664=CARTESIAN_POINT('',(-0.0155563494410329,-0.0512343670292886,-0.0455527135457763));
#1665=CARTESIAN_POINT('',(-0.0155563494410329,-0.0485843670292886,-0.0455527135457763));
#1666=CARTESIAN_POINT('',(-0.0350000002438558,-0.0136760178470064,-0.0479527135457785));
#1667=CARTESIAN_POINT('',(-0.0350000002438558,-0.0236780178470065,-0.0504507135457779));
#1668=CARTESIAN_POINT('',(-0.0350000002438558,-0.0236780178470107,-0.124052713541516));
#1669=CARTESIAN_POINT('',(-0.0350000002438558,-0.0476780178470058,-0.0504507135457766));
#1670=CARTESIAN_POINT('',(-0.0350000002438558,-0.04767801784701,-0.124052713541515));
#1671=CARTESIAN_POINT('',(-0.0350000002438558,-0.0186780178470107,-0.124052713541516));
#1672=CARTESIAN_POINT('',(-0.0350000002438558,-0.0156780178470113,-0.134052713541517));
#1673=CARTESIAN_POINT('',(-0.0350000002438558,-0.0156780178470062,-0.0462663500018734));
#1674=CARTESIAN_POINT('',(-0.0350000002438558,-0.0156780178470111,-0.132052713541517));
#1675=CARTESIAN_POINT('',(-0.0350000002438558,-0.0136760178470112,-0.132052713541517));
#1676=CARTESIAN_POINT('',(-0.0350000002438558,-0.0576780178470104,-0.132052713541514));
#1677=CARTESIAN_POINT('',(-0.0350000002438558,-0.0576780178470056,-0.047952713545776));
#1678=CARTESIAN_POINT('',(-0.0350000002438558,-0.0576780178470032,-0.00545271354577601));
#1679=CARTESIAN_POINT('',(-0.0350000002438558,-0.0526780178470032,-0.00545271354577629));
#1680=CARTESIAN_POINT('',(-0.0350000002438558,-0.0554713133916958,-0.00545271354577613));
#1681=CARTESIAN_POINT('',(-0.0350000002438558,-0.0138594439513025,-0.0481315539974673));
#1682=CARTESIAN_POINT('',(-0.0350000002438558,-0.0204186372778717,-0.0412100941149123));
#1683=CARTESIAN_POINT('',(-0.0350000002438558,-0.0226359402530415,-0.0434273970900818));
#1684=CARTESIAN_POINT('',(-0.0350000002438558,-0.0366696372778707,-0.0290338616799986));
#1685=CARTESIAN_POINT('',(-0.0350000002438558,-0.0507033343026999,-0.0146403262699155));
#1686=CARTESIAN_POINT('',(-0.0350000002438558,-0.0488458697127825,-0.0127828616799983));
#1687=CARTESIAN_POINT('',(-2.58756079994582E-10,-0.0576780178469996,0.0565472864578307));
#1688=CARTESIAN_POINT('',(-0.0250000002438557,-0.0576780178470058,-0.050450713545776));
#1689=CARTESIAN_POINT('',(-0.0250000002438558,-0.05767801784701,-0.124052713541514));
#1690=CARTESIAN_POINT('',(0.0249999997561442,-0.0576780178470057,-0.050450713545776));
#1691=CARTESIAN_POINT('',(0.0249999997561442,-0.0576780178470099,-0.124052713541514));
#1692=CARTESIAN_POINT('',(-0.0300000002438558,-0.05767801784701,-0.124052713541514));
#1693=CARTESIAN_POINT('',(-0.0273828346912385,-0.0576780178470052,-0.0404527135457729));
#1694=CARTESIAN_POINT('',(-0.0273828346912385,-0.057678017847005,-0.0377027135457729));
#1695=CARTESIAN_POINT('',(7.54912577295456E-17,-0.0576780178470052,-0.0404527135457729));
#1696=CARTESIAN_POINT('',(7.54912577295456E-17,-0.057678017847005,-0.0377027135457729));
#1697=CARTESIAN_POINT('',(0.027382834188633,-0.0576780178470051,-0.0404527135457729));
#1698=CARTESIAN_POINT('',(0.027382834188633,-0.0576780178470049,-0.0377027135457729));
#1699=CARTESIAN_POINT('',(-0.0300000002438558,-0.0576780178470106,-0.134052713541514));
#1700=CARTESIAN_POINT('',(-0.0330000002438557,-0.0576780178470106,-0.134052713541514));
#1701=CARTESIAN_POINT('',(0.0329999997561442,-0.0576780178470105,-0.134052713541514));
#1702=CARTESIAN_POINT('',(0.0329999997561442,-0.0576780178470104,-0.132052713541514));
#1703=CARTESIAN_POINT('',(0.0349999997561442,-0.0576780178470104,-0.132052713541514));
#1704=CARTESIAN_POINT('',(0.0349999997561442,-0.0576780178470055,-0.047952713545776));
#1705=CARTESIAN_POINT('',(0.0349999997561442,-0.0576780178470031,-0.00545271354577601));
#1706=CARTESIAN_POINT('',(-2.4385574809438E-10,-0.0576780178470032,-0.00545271354577601));
#1707=CARTESIAN_POINT('',(-0.0330000002438557,-0.0576780178470104,-0.132052713541514));
#1708=CARTESIAN_POINT('',(0.0349999997561442,-0.0136760178470063,-0.0479527135457785));
#1709=CARTESIAN_POINT('',(0.0349999997561442,-0.0476780178470057,-0.0504507135457766));
#1710=CARTESIAN_POINT('',(0.0349999997561442,-0.0476780178470099,-0.124052713541515));
#1711=CARTESIAN_POINT('',(0.0349999997561442,-0.0236780178470064,-0.0504507135457779));
#1712=CARTESIAN_POINT('',(0.0349999997561442,-0.0236780178470106,-0.124052713541516));
#1713=CARTESIAN_POINT('',(0.0349999997561442,-0.0526780178470099,-0.124052713541514));
#1714=CARTESIAN_POINT('',(0.0349999997561442,-0.0366696372778706,-0.0290338616799986));
#1715=CARTESIAN_POINT('',(0.0349999997561442,-0.0226359402530414,-0.0434273970900818));
#1716=CARTESIAN_POINT('',(0.0349999997561442,-0.0507033343026999,-0.0146403262699155));
#1717=CARTESIAN_POINT('',(0.0349999997561442,-0.0226359402530414,-0.0434273970900818));
#1718=CARTESIAN_POINT('',(0.0349999997561442,-0.0526780178470037,-0.0166150098142192));
#1719=CARTESIAN_POINT('',(0.0349999997561442,-0.0156780178470062,-0.0479527135457784));
#1720=CARTESIAN_POINT('',(0.0349999997561442,-0.0156780178470111,-0.132052713541517));
#1721=CARTESIAN_POINT('',(0.0349999997561442,-0.0156780178470061,-0.0462663500018734));
#1722=CARTESIAN_POINT('',(0.0349999997561442,-0.0138594439513024,-0.0481315539974673));
#1723=CARTESIAN_POINT('',(0.0349999997561442,-0.0554713133916958,-0.00545271354577613));
#1724=CARTESIAN_POINT('',(0.0349999997561442,-0.0526780178470031,-0.00545271354577629));
#1725=CARTESIAN_POINT('',(0.0349999997561442,-0.0136780178470111,-0.132052713541517));
#1726=CARTESIAN_POINT('',(-0.0156524761012483,-0.013678017847008,-0.0774527135421855));
#1727=CARTESIAN_POINT('',(-0.0250000002438558,-0.0136780178470065,-0.0504507135457785));
#1728=CARTESIAN_POINT('',(-0.0250000002438558,-0.0136780178470107,-0.124052713541516));
#1729=CARTESIAN_POINT('',(-0.0300000002438559,-0.0136780178470107,-0.124052713541517));
#1730=CARTESIAN_POINT('',(0.0249999997561442,-0.0136780178470107,-0.124052713541517));
#1731=CARTESIAN_POINT('',(0.0249999997561442,-0.0136780178470064,-0.0504507135457785));
#1732=CARTESIAN_POINT('',(0.0199999997561442,-0.0136780178470061,-0.0454527135457785));
#1733=CARTESIAN_POINT('',(0.0329999997561442,-0.0136780178470061,-0.0454527135457785));
#1734=CARTESIAN_POINT('',(0.0329999997561442,-0.013678017847008,-0.0774527135421855));
#1735=CARTESIAN_POINT('',(0.0329999997561442,-0.0136780178470112,-0.134052713541517));
#1736=CARTESIAN_POINT('',(-0.0300000002438559,-0.0136780178470113,-0.134052713541517));
#1737=CARTESIAN_POINT('',(-0.0330000002438558,-0.0136780178470113,-0.134052713541517));
#1738=CARTESIAN_POINT('',(-0.0330000002438558,-0.0136780178470062,-0.0454527135457785));
#1739=CARTESIAN_POINT('',(-0.0330000002438558,-0.0136780178470062,-0.0454527135457785));
#1740=CARTESIAN_POINT('',(-2.43855805611175E-10,-0.0136780178470062,-0.0454527135457785));
#1741=CARTESIAN_POINT('',(-0.015556349441033,-0.0201216686647066,0.239148809120234));
#1742=CARTESIAN_POINT('',(-0.0155563494410331,-0.0201216686647229,-0.0455527135457781));
#1743=CARTESIAN_POINT('',(-0.0155563494410331,-0.0174716686647229,-0.0455527135457783));
#1744=CARTESIAN_POINT('',(0.0155563489235333,-0.0201216686647066,0.239148809120234));
#1745=CARTESIAN_POINT('',(0.0155563489235332,-0.0201216686647229,-0.0455527135457781));
#1746=CARTESIAN_POINT('',(0.0155563489235332,-0.0174716686647229,-0.0455527135457783));
#1747=CARTESIAN_POINT('',(-0.0155563494410329,-0.0512343670292886,-0.0454547135457764));
#1748=CARTESIAN_POINT('',(-0.0155563494410329,-0.0512343670292863,-0.00545271354577634));
#1749=CARTESIAN_POINT('',(0.0155563489235333,-0.0512343670292885,-0.0454547135457764));
#1750=CARTESIAN_POINT('',(0.0155563489235333,-0.0512343670292862,-0.00545271354577635));
#1751=CARTESIAN_POINT('',(0.027382834188633,-0.0861780178470051,-0.0404527135457714));
#1752=CARTESIAN_POINT('',(0.027382834188633,-0.0527780178470051,-0.0404527135457733));
#1753=CARTESIAN_POINT('',(0.027382834188633,-0.0527780178470049,-0.0377027135457733));
#1754=CARTESIAN_POINT('',(1.1274645521851E-16,-0.0861780178470052,-0.0404527135457714));
#1755=CARTESIAN_POINT('',(6.90859781612674E-17,-0.0527780178470052,-0.0404527135457733));
#1756=CARTESIAN_POINT('',(6.90859781612674E-17,-0.052778017847005,-0.0377027135457733));
#1757=CARTESIAN_POINT('',(-0.0273828346912384,-0.0861780178470052,-0.0404527135457714));
#1758=CARTESIAN_POINT('',(-0.0273828346912385,-0.0527780178470052,-0.0404527135457733));
#1759=CARTESIAN_POINT('',(-0.0273828346912385,-0.052778017847005,-0.0377027135457733));
#1760=CARTESIAN_POINT('',(6.90859781612675E-17,-0.0527780178470052,-0.0404527135457733));
#1761=CARTESIAN_POINT('',(0.027382834188633,-0.0527780178470051,-0.0404527135457733));
#1762=CARTESIAN_POINT('',(-0.0273828346912385,-0.0527780178470052,-0.0404527135457733));
#1763=CARTESIAN_POINT('',(-0.0155563494410329,-0.0512343670292886,-0.0454527135457764));
#1764=CARTESIAN_POINT('',(0.0155563489235333,-0.0512343670292885,-0.0454527135457764));
#1765=CARTESIAN_POINT('',(-0.0155563494410331,-0.0201216686647229,-0.0454527135457782));
#1766=CARTESIAN_POINT('',(0.0155563489235332,-0.0201216686647229,-0.0454527135457782));
#1767=CARTESIAN_POINT('',(-2.43855754630379E-10,-0.0526780178470032,-0.00545271354577629));
#1768=CARTESIAN_POINT('',(0.0329999997561442,-0.0554713133916958,-0.00545271354577613));
#1769=CARTESIAN_POINT('',(0.0329999997561442,-0.0526780178470031,-0.0054527135457763));
#1770=CARTESIAN_POINT('',(0.0199999997561442,-0.0526780178470031,-0.0054527135457763));
#1771=CARTESIAN_POINT('',(-2.43855754630379E-10,-0.0526780178470032,-0.00545271354577629));
#1772=CARTESIAN_POINT('',(-0.0330000002438557,-0.0526780178470032,-0.00545271354577629));
#1773=CARTESIAN_POINT('',(-0.0330000002438557,-0.0554713133916959,-0.00545271354577613));
#1774=CARTESIAN_POINT('',(-0.0200000002438558,-0.0366696372778707,-0.0290338616799986));
#1775=CARTESIAN_POINT('',(-0.0200000002438558,-0.0366696372778707,-0.0290338616799986));
#1776=CARTESIAN_POINT('',(-0.0200000002438558,-0.0226359402530414,-0.0434273970900818));
#1777=CARTESIAN_POINT('',(-0.0200000002438557,-0.0507033343026999,-0.0146403262699155));
#1778=CARTESIAN_POINT('',(-0.0350000002438558,-0.0507033343026999,-0.0146403262699155));
#1779=CARTESIAN_POINT('',(-0.0200000002438558,-0.0226359402530414,-0.0434273970900818));
#1780=CARTESIAN_POINT('',(-0.0200000002438558,-0.0331780178470047,-0.0254527135457774));
#1781=CARTESIAN_POINT('',(-0.0330000002438558,-0.0331780178470047,-0.0254527135457774));
#1782=CARTESIAN_POINT('',(-0.0200000002438558,-0.0331780178470047,-0.0254527135457774));
#1783=CARTESIAN_POINT('',(-0.0200000002438558,-0.0331780178470049,-0.0254527135457774));
#1784=CARTESIAN_POINT('',(-0.0200000002438558,-0.0189196372778716,-0.0397110941149124));
#1785=CARTESIAN_POINT('',(-0.0200000002438557,-0.0473468697127823,-0.0112838616799983));
#1786=CARTESIAN_POINT('',(0.0199999997561442,-0.0366696372778706,-0.0290338616799986));
#1787=CARTESIAN_POINT('',(0.0199999997561442,-0.0366696372778706,-0.0290338616799986));
#1788=CARTESIAN_POINT('',(0.0199999997561442,-0.0226359402530414,-0.0434273970900818));
#1789=CARTESIAN_POINT('',(0.0199999997561442,-0.0507033343026999,-0.0146403262699155));
#1790=CARTESIAN_POINT('',(0.0349999997561442,-0.0226359402530414,-0.0434273970900818));
#1791=CARTESIAN_POINT('',(0.0199999997561442,-0.0507033343026999,-0.0146403262699155));
#1792=CARTESIAN_POINT('',(0.0199999997561442,-0.0331780178470046,-0.0254527135457774));
#1793=CARTESIAN_POINT('',(0.0329999997561442,-0.0331780178470046,-0.0254527135457774));
#1794=CARTESIAN_POINT('',(0.0199999997561442,-0.0331780178470046,-0.0254527135457774));
#1795=CARTESIAN_POINT('',(0.0199999997561442,-0.0331780178470048,-0.0254527135457774));
#1796=CARTESIAN_POINT('',(0.0199999997561442,-0.0226359402530414,-0.0434273970900818));
#1797=CARTESIAN_POINT('',(0.0199999997561442,-0.0526780178470038,-0.0166150098142192));
#1798=CARTESIAN_POINT('',(0.0199999997561442,-0.0226359402530414,-0.0434273970900818));
#1799=CARTESIAN_POINT('',(-2.58756086530582E-10,-0.0526780178470038,-0.0166150098142192));
#1800=CARTESIAN_POINT('',(-0.0200000002438557,-0.0507033343026999,-0.0146403262699155));
#1801=CARTESIAN_POINT('',(-2.43855791253886E-10,-0.0246612567087378,-0.0454527135457779));
#1802=CARTESIAN_POINT('',(-2.43855798863108E-10,-0.0356780178470103,-0.124052713541515));
#1803=CARTESIAN_POINT('',(-2.43855798863108E-10,-0.04767801784701,-0.124052713541515));
#1804=CARTESIAN_POINT('',(-0.0250000002438558,-0.04767801784701,-0.124052713541514));
#1805=CARTESIAN_POINT('',(-0.0250000002438558,-0.0356780178470103,-0.124052713541515));
#1806=CARTESIAN_POINT('',(0.0249999997561442,-0.0356780178470103,-0.124052713541515));
#1807=CARTESIAN_POINT('',(0.0249999997561442,-0.0476780178470057,-0.124052713541515));
#1808=CARTESIAN_POINT('',(-2.43855798863108E-10,-0.0476780178470099,-0.124052713541515));
#1809=CARTESIAN_POINT('',(-2.43855798863108E-10,-0.0236780178470106,-0.124052713541516));
#1810=CARTESIAN_POINT('',(0.0249999997561442,-0.0236780178470106,-0.124052713541516));
#1811=CARTESIAN_POINT('',(0.0249999997561442,-0.0356780178470103,-0.124052713541515));
#1812=CARTESIAN_POINT('',(-0.0250000002438558,-0.0356780178470103,-0.124052713541515));
#1813=CARTESIAN_POINT('',(-0.0250000002438558,-0.0236780178470113,-0.124052713541516));
#1814=CARTESIAN_POINT('',(-2.43855798863108E-10,-0.0236780178470107,-0.124052713541516));
#1815=CARTESIAN_POINT('',(-2.58750230071524E-10,-0.0356780178470104,-0.124052713541515));
#1816=CARTESIAN_POINT('',(-2.58750230071524E-10,-0.0531780178470104,-0.124052713541514));
#1817=CARTESIAN_POINT('',(0.0154999997412498,-0.0511780178470103,-0.124052713541515));
#1818=CARTESIAN_POINT('',(0.0154999997412498,-0.0529280178470103,-0.124052713541514));
#1819=CARTESIAN_POINT('',(0.0154999997412498,-0.0201780178470104,-0.124052713541516));
#1820=CARTESIAN_POINT('',(0.0154999997412498,-0.0219280178470104,-0.124052713541516));
#1821=CARTESIAN_POINT('',(-0.0155000002587503,-0.0511780178470103,-0.124052713541515));
#1822=CARTESIAN_POINT('',(-0.0155000002587503,-0.0529280178470103,-0.124052713541514));
#1823=CARTESIAN_POINT('',(-0.0155000002587503,-0.0201780178470104,-0.124052713541516));
#1824=CARTESIAN_POINT('',(-0.0155000002587503,-0.0219280178470104,-0.124052713541516));
#1825=CARTESIAN_POINT('',(-0.0155000002587503,-0.0511780178470103,-0.124052713541515));
#1826=CARTESIAN_POINT('',(-0.0155000002587503,-0.0511780178470109,-0.134052713541515));
#1827=CARTESIAN_POINT('',(-0.0155000002587503,-0.0529280178470109,-0.134052713541514));
#1828=CARTESIAN_POINT('',(0.0154999997412498,-0.0201780178470104,-0.124052713541516));
#1829=CARTESIAN_POINT('',(0.0154999997412498,-0.020178017847011,-0.134052713541516));
#1830=CARTESIAN_POINT('',(0.0154999997412498,-0.021928017847011,-0.134052713541516));
#1831=CARTESIAN_POINT('',(0.0154999997412498,-0.0511780178470103,-0.124052713541515));
#1832=CARTESIAN_POINT('',(0.0154999997412498,-0.0511780178470109,-0.134052713541515));
#1833=CARTESIAN_POINT('',(0.0154999997412498,-0.0529280178470109,-0.134052713541514));
#1834=CARTESIAN_POINT('',(-2.58750230071524E-10,-0.0356780178470104,-0.124052713541515));
#1835=CARTESIAN_POINT('',(-2.58750233045335E-10,-0.0356780178470109,-0.134052713541515));
#1836=CARTESIAN_POINT('',(-2.58750233045335E-10,-0.0531780178470109,-0.134052713541514));
#1837=CARTESIAN_POINT('',(-0.0155000002587503,-0.0201780178470104,-0.124052713541516));
#1838=CARTESIAN_POINT('',(-0.0155000002587503,-0.020178017847011,-0.134052713541516));
#1839=CARTESIAN_POINT('',(-0.0155000002587503,-0.021928017847011,-0.134052713541516));
#1840=CARTESIAN_POINT('',(-2.43855801836919E-10,-0.0356780178470108,-0.134052713541515));
#1841=CARTESIAN_POINT('',(0.0329999997561442,-0.0576780178470105,-0.134052713541514));
#1842=CARTESIAN_POINT('',(-0.0330000002438558,-0.0356780178470108,-0.134052713541515));
#1843=CARTESIAN_POINT('',(-0.0250000002438558,-0.0186780178470065,-0.0504507135457783));
#1844=CARTESIAN_POINT('',(-0.0250000002438558,-0.0236780178470065,-0.050450713545778));
#1845=CARTESIAN_POINT('',(-0.0300000002438558,-0.0236780178470065,-0.050450713545778));
#1846=CARTESIAN_POINT('',(0.0249999997561442,-0.0526780178470057,-0.0504507135457763));
#1847=CARTESIAN_POINT('',(0.0249999997561442,-0.0476780178470057,-0.0504507135457766));
#1848=CARTESIAN_POINT('',(0.0299999997561442,-0.0476780178470057,-0.0504507135457766));
#1849=CARTESIAN_POINT('',(0.0299999997561442,-0.0236780178470064,-0.0504507135457779));
#1850=CARTESIAN_POINT('',(0.0249999997561442,-0.0236780178470064,-0.0504507135457779));
#1851=CARTESIAN_POINT('',(0.0249999997561442,-0.0186780178470064,-0.0504507135457782));
#1852=CARTESIAN_POINT('',(-0.0250000002438557,-0.0526780178470058,-0.0504507135457763));
#1853=CARTESIAN_POINT('',(-0.0250000002438557,-0.0476780178470058,-0.0504507135457766));
#1854=CARTESIAN_POINT('',(-0.0300000002438558,-0.0476780178470058,-0.0504507135457766));
#1855=CARTESIAN_POINT('',(0.0329999997561442,-0.0356780178470107,-0.132052713541515));
#1856=CARTESIAN_POINT('',(0.0329999997561442,-0.0156780178470111,-0.132052713541517));
#1857=CARTESIAN_POINT('',(0.0329999997561442,-0.0156780178470062,-0.0479527135457784));
#1858=CARTESIAN_POINT('',(0.0329999997561442,-0.0156780178470061,-0.0462663500018734));
#1859=CARTESIAN_POINT('',(0.0329999997561442,-0.0138594439513024,-0.0481315539974673));
#1860=CARTESIAN_POINT('',(-0.0330000002438558,-0.0346100181262448,-0.0268489138180364));
#1861=CARTESIAN_POINT('',(-0.0330000002438558,-0.0156780178470062,-0.0462663500018734));
#1862=CARTESIAN_POINT('',(-0.0330000002438558,-0.015678017847008,-0.0774527135421854));
#1863=CARTESIAN_POINT('',(-0.0330000002438558,-0.0156780178470111,-0.132052713541517));
#1864=CARTESIAN_POINT('',(-0.0330000002438558,-0.0136760178470112,-0.132052713541517));
#1865=CARTESIAN_POINT('',(-2.58750225610806E-10,-0.0356780178470047,-0.0254527135457773));
#1866=MECHANICAL_DESIGN_GEOMETRIC_PRESENTATION_REPRESENTATION('',(#1134),
#1867);
#1867=(
GEOMETRIC_REPRESENTATION_CONTEXT(3)
GLOBAL_UNCERTAINTY_ASSIGNED_CONTEXT((#1868))
GLOBAL_UNIT_ASSIGNED_CONTEXT((#1871,#1870,#1869))
REPRESENTATION_CONTEXT('BallScrewHolder0','TOP_LEVEL_ASSEMBLY_PART')
);
#1868=UNCERTAINTY_MEASURE_WITH_UNIT(LENGTH_MEASURE(1.E-8),#1871,
'DISTANCE_ACCURACY_VALUE','Maximum Tolerance applied to model');
#1869=(
NAMED_UNIT(*)
SI_UNIT($,.STERADIAN.)
SOLID_ANGLE_UNIT()
);
#1870=(
NAMED_UNIT(*)
PLANE_ANGLE_UNIT()
SI_UNIT($,.RADIAN.)
);
#1871=(
LENGTH_UNIT()
NAMED_UNIT(*)
SI_UNIT($,.METRE.)
);
#1872=PRODUCT_DEFINITION_SHAPE('','',#1873);
#1873=PRODUCT_DEFINITION('','',#1875,#1874);
#1874=PRODUCT_DEFINITION_CONTEXT('',#1881,'design');
#1875=PRODUCT_DEFINITION_FORMATION_WITH_SPECIFIED_SOURCE('','',#1877,
 .NOT_KNOWN.);
#1876=PRODUCT_RELATED_PRODUCT_CATEGORY('','',(#1877));
#1877=PRODUCT('BallScrewHolder0','BallScrewHolder0','BallScrewHolder0',
(#1879));
#1878=PRODUCT_CATEGORY('','');
#1879=PRODUCT_CONTEXT('',#1881,'mechanical');
#1880=APPLICATION_PROTOCOL_DEFINITION('international standard',
'ap242_managed_model_based_3d_engineering',2020,#1881);
#1881=APPLICATION_CONTEXT('managed model based 3d engineering');
ENDSEC;
END-ISO-10303-21;
