ISO-10303-21;
HEADER;
/* Generated by software containing ST-Developer
 * from STEP Tools, Inc. (www.steptools.com) 
 */
/* OPTION: using custom renumber hook */

FILE_DESCRIPTION(
/* description */ ('STEP AP242 Edition 2',
'CAx-IF Rec.Pracs.---Representation and Presentation of Product Manufa
cturing Information (PMI)---4.0---2014-10-13',
'CAx-IF Rec.Pracs.---3D Tessellated Geometry---0.4---2014-09-14','2;1',
'CAx-IF Rec.Pracs.---User Defined Attributes---1.5---2016-08-15'),
/* implementation_level */ '2;1');

FILE_NAME(
/* name */ 'Router - GantryUpper-Right',
/* time_stamp */ '2026-08-01T11:31:43Z',
/* author */ (''),
/* organization */ (''),
/* preprocessor_version */ 'ST-DEVELOPER v20',
/* originating_system */ 'ONSHAPE BY PTC INC, 1.218',
/* authorisation */ '  ');

FILE_SCHEMA (('AP242_MANAGED_MODEL_BASED_3D_ENGINEERING_MIM_LF { 1 0 10303 442 3 1 4 }'));
ENDSEC;

DATA;
#10=SHAPE_REPRESENTATION_RELATIONSHIP('','',#971,#11);
#11=ADVANCED_BREP_SHAPE_REPRESENTATION('',(#969),#1648);
#12=ELLIPSE('',#1046,0.00424264068711928,0.003);
#13=ELLIPSE('',#1053,0.00300319036098705,0.003);
#14=ELLIPSE('',#1059,0.00424264068711928,0.003);
#15=ELLIPSE('',#1061,0.00405986812237634,0.003);
#16=ELLIPSE('',#1067,0.00355282659966259,0.003);
#17=ELLIPSE('',#1069,0.00424264068711928,0.003);
#18=ELLIPSE('',#1074,0.00307412267728896,0.003);
#19=ELLIPSE('',#1088,0.00424264068711928,0.003);
#20=SPHERICAL_SURFACE('',#1035,0.003);
#21=SPHERICAL_SURFACE('',#1047,0.003);
#22=SPHERICAL_SURFACE('',#1049,0.003);
#23=SPHERICAL_SURFACE('',#1062,0.003);
#24=SPHERICAL_SURFACE('',#1070,0.003);
#25=SPHERICAL_SURFACE('',#1083,0.003);
#26=SPHERICAL_SURFACE('',#1085,0.003);
#27=CYLINDRICAL_SURFACE('',#1018,0.00265);
#28=CYLINDRICAL_SURFACE('',#1019,0.00265);
#29=CYLINDRICAL_SURFACE('',#1020,0.00265);
#30=CYLINDRICAL_SURFACE('',#1021,0.00265);
#31=CYLINDRICAL_SURFACE('',#1022,0.00265);
#32=CYLINDRICAL_SURFACE('',#1025,0.00265);
#33=CYLINDRICAL_SURFACE('',#1026,0.00265);
#34=CYLINDRICAL_SURFACE('',#1027,0.00265);
#35=CYLINDRICAL_SURFACE('',#1028,0.00265);
#36=CYLINDRICAL_SURFACE('',#1029,0.00265);
#37=CYLINDRICAL_SURFACE('',#1030,0.01);
#38=CYLINDRICAL_SURFACE('',#1031,0.00224999999999997);
#39=CYLINDRICAL_SURFACE('',#1032,0.00225);
#40=CYLINDRICAL_SURFACE('',#1033,0.00225);
#41=CYLINDRICAL_SURFACE('',#1034,0.00224999999999997);
#42=CYLINDRICAL_SURFACE('',#1039,0.003);
#43=CYLINDRICAL_SURFACE('',#1041,0.003);
#44=CYLINDRICAL_SURFACE('',#1043,0.003);
#45=CYLINDRICAL_SURFACE('',#1045,0.003);
#46=CYLINDRICAL_SURFACE('',#1052,0.003);
#47=CYLINDRICAL_SURFACE('',#1054,0.003);
#48=CYLINDRICAL_SURFACE('',#1056,0.003);
#49=CYLINDRICAL_SURFACE('',#1058,0.003);
#50=CYLINDRICAL_SURFACE('',#1060,0.003);
#51=CYLINDRICAL_SURFACE('',#1064,0.003);
#52=CYLINDRICAL_SURFACE('',#1066,0.003);
#53=CYLINDRICAL_SURFACE('',#1068,0.003);
#54=CYLINDRICAL_SURFACE('',#1073,0.003);
#55=CYLINDRICAL_SURFACE('',#1075,0.003);
#56=CYLINDRICAL_SURFACE('',#1077,0.003);
#57=CYLINDRICAL_SURFACE('',#1079,0.003);
#58=CYLINDRICAL_SURFACE('',#1081,0.003);
#59=CYLINDRICAL_SURFACE('',#1087,0.003);
#60=CYLINDRICAL_SURFACE('',#1089,0.003);
#61=CIRCLE('',#974,0.00224999999999997);
#62=CIRCLE('',#975,0.00225);
#63=CIRCLE('',#976,0.00225);
#64=CIRCLE('',#977,0.00224999999999997);
#65=CIRCLE('',#978,0.01);
#66=CIRCLE('',#979,0.00265);
#67=CIRCLE('',#980,0.00265);
#68=CIRCLE('',#981,0.00265);
#69=CIRCLE('',#982,0.00265);
#70=CIRCLE('',#983,0.00265);
#71=CIRCLE('',#984,0.00265);
#72=CIRCLE('',#985,0.00265);
#73=CIRCLE('',#986,0.00265);
#74=CIRCLE('',#987,0.00265);
#75=CIRCLE('',#988,0.00265);
#76=CIRCLE('',#990,0.00224999999999997);
#77=CIRCLE('',#991,0.00225);
#78=CIRCLE('',#992,0.00225);
#79=CIRCLE('',#993,0.00224999999999997);
#80=CIRCLE('',#994,0.01);
#81=CIRCLE('',#995,0.00265);
#82=CIRCLE('',#996,0.00265);
#83=CIRCLE('',#997,0.00265);
#84=CIRCLE('',#998,0.00265);
#85=CIRCLE('',#999,0.00265);
#86=CIRCLE('',#1000,0.00265);
#87=CIRCLE('',#1001,0.00265);
#88=CIRCLE('',#1002,0.00265);
#89=CIRCLE('',#1003,0.00265);
#90=CIRCLE('',#1004,0.00265);
#91=CIRCLE('',#1010,0.003);
#92=CIRCLE('',#1036,0.003);
#93=CIRCLE('',#1037,0.003);
#94=CIRCLE('',#1038,0.003);
#95=CIRCLE('',#1040,0.003);
#96=CIRCLE('',#1042,0.003);
#97=CIRCLE('',#1044,0.003);
#98=CIRCLE('',#1048,0.003);
#99=CIRCLE('',#1050,0.003);
#100=CIRCLE('',#1051,0.003);
#101=CIRCLE('',#1055,0.003);
#102=CIRCLE('',#1057,0.003);
#103=CIRCLE('',#1063,0.003);
#104=CIRCLE('',#1065,0.003);
#105=CIRCLE('',#1071,0.003);
#106=CIRCLE('',#1072,0.003);
#107=CIRCLE('',#1076,0.003);
#108=CIRCLE('',#1078,0.003);
#109=CIRCLE('',#1080,0.003);
#110=CIRCLE('',#1082,0.003);
#111=CIRCLE('',#1084,0.003);
#112=CIRCLE('',#1086,0.003);
#113=ORIENTED_EDGE('',*,*,#355,.T.);
#114=ORIENTED_EDGE('',*,*,#356,.T.);
#115=ORIENTED_EDGE('',*,*,#357,.T.);
#116=ORIENTED_EDGE('',*,*,#358,.T.);
#117=ORIENTED_EDGE('',*,*,#359,.T.);
#118=ORIENTED_EDGE('',*,*,#360,.T.);
#119=ORIENTED_EDGE('',*,*,#361,.T.);
#120=ORIENTED_EDGE('',*,*,#362,.T.);
#121=ORIENTED_EDGE('',*,*,#363,.T.);
#122=ORIENTED_EDGE('',*,*,#364,.T.);
#123=ORIENTED_EDGE('',*,*,#365,.F.);
#124=ORIENTED_EDGE('',*,*,#366,.F.);
#125=ORIENTED_EDGE('',*,*,#367,.F.);
#126=ORIENTED_EDGE('',*,*,#368,.F.);
#127=ORIENTED_EDGE('',*,*,#369,.F.);
#128=ORIENTED_EDGE('',*,*,#370,.F.);
#129=ORIENTED_EDGE('',*,*,#371,.T.);
#130=ORIENTED_EDGE('',*,*,#372,.T.);
#131=ORIENTED_EDGE('',*,*,#373,.T.);
#132=ORIENTED_EDGE('',*,*,#374,.F.);
#133=ORIENTED_EDGE('',*,*,#375,.T.);
#134=ORIENTED_EDGE('',*,*,#376,.F.);
#135=ORIENTED_EDGE('',*,*,#377,.F.);
#136=ORIENTED_EDGE('',*,*,#378,.F.);
#137=ORIENTED_EDGE('',*,*,#379,.F.);
#138=ORIENTED_EDGE('',*,*,#380,.F.);
#139=ORIENTED_EDGE('',*,*,#381,.F.);
#140=ORIENTED_EDGE('',*,*,#382,.T.);
#141=ORIENTED_EDGE('',*,*,#383,.F.);
#142=ORIENTED_EDGE('',*,*,#384,.F.);
#143=ORIENTED_EDGE('',*,*,#385,.F.);
#144=ORIENTED_EDGE('',*,*,#386,.F.);
#145=ORIENTED_EDGE('',*,*,#387,.F.);
#146=ORIENTED_EDGE('',*,*,#388,.F.);
#147=ORIENTED_EDGE('',*,*,#389,.F.);
#148=ORIENTED_EDGE('',*,*,#390,.F.);
#149=ORIENTED_EDGE('',*,*,#391,.T.);
#150=ORIENTED_EDGE('',*,*,#392,.F.);
#151=ORIENTED_EDGE('',*,*,#393,.F.);
#152=ORIENTED_EDGE('',*,*,#394,.F.);
#153=ORIENTED_EDGE('',*,*,#395,.F.);
#154=ORIENTED_EDGE('',*,*,#396,.T.);
#155=ORIENTED_EDGE('',*,*,#397,.T.);
#156=ORIENTED_EDGE('',*,*,#398,.T.);
#157=ORIENTED_EDGE('',*,*,#399,.T.);
#158=ORIENTED_EDGE('',*,*,#400,.T.);
#159=ORIENTED_EDGE('',*,*,#401,.F.);
#160=ORIENTED_EDGE('',*,*,#402,.F.);
#161=ORIENTED_EDGE('',*,*,#403,.T.);
#162=ORIENTED_EDGE('',*,*,#404,.F.);
#163=ORIENTED_EDGE('',*,*,#405,.T.);
#164=ORIENTED_EDGE('',*,*,#406,.T.);
#165=ORIENTED_EDGE('',*,*,#407,.T.);
#166=ORIENTED_EDGE('',*,*,#408,.T.);
#167=ORIENTED_EDGE('',*,*,#409,.T.);
#168=ORIENTED_EDGE('',*,*,#410,.T.);
#169=ORIENTED_EDGE('',*,*,#411,.T.);
#170=ORIENTED_EDGE('',*,*,#412,.T.);
#171=ORIENTED_EDGE('',*,*,#401,.T.);
#172=ORIENTED_EDGE('',*,*,#413,.F.);
#173=ORIENTED_EDGE('',*,*,#372,.F.);
#174=ORIENTED_EDGE('',*,*,#414,.T.);
#175=ORIENTED_EDGE('',*,*,#402,.T.);
#176=ORIENTED_EDGE('',*,*,#414,.F.);
#177=ORIENTED_EDGE('',*,*,#375,.F.);
#178=ORIENTED_EDGE('',*,*,#415,.T.);
#179=ORIENTED_EDGE('',*,*,#403,.F.);
#180=ORIENTED_EDGE('',*,*,#415,.F.);
#181=ORIENTED_EDGE('',*,*,#374,.T.);
#182=ORIENTED_EDGE('',*,*,#416,.T.);
#183=ORIENTED_EDGE('',*,*,#417,.T.);
#184=ORIENTED_EDGE('',*,*,#418,.T.);
#185=ORIENTED_EDGE('',*,*,#419,.T.);
#186=ORIENTED_EDGE('',*,*,#420,.T.);
#187=ORIENTED_EDGE('',*,*,#417,.F.);
#188=ORIENTED_EDGE('',*,*,#421,.T.);
#189=ORIENTED_EDGE('',*,*,#422,.T.);
#190=ORIENTED_EDGE('',*,*,#392,.T.);
#191=ORIENTED_EDGE('',*,*,#423,.T.);
#192=ORIENTED_EDGE('',*,*,#422,.F.);
#193=ORIENTED_EDGE('',*,*,#424,.T.);
#194=ORIENTED_EDGE('',*,*,#425,.T.);
#195=ORIENTED_EDGE('',*,*,#393,.T.);
#196=ORIENTED_EDGE('',*,*,#425,.F.);
#197=ORIENTED_EDGE('',*,*,#426,.T.);
#198=ORIENTED_EDGE('',*,*,#427,.T.);
#199=ORIENTED_EDGE('',*,*,#394,.T.);
#200=ORIENTED_EDGE('',*,*,#427,.F.);
#201=ORIENTED_EDGE('',*,*,#428,.T.);
#202=ORIENTED_EDGE('',*,*,#429,.T.);
#203=ORIENTED_EDGE('',*,*,#395,.T.);
#204=ORIENTED_EDGE('',*,*,#430,.T.);
#205=ORIENTED_EDGE('',*,*,#431,.T.);
#206=ORIENTED_EDGE('',*,*,#396,.F.);
#207=ORIENTED_EDGE('',*,*,#429,.F.);
#208=ORIENTED_EDGE('',*,*,#432,.T.);
#209=ORIENTED_EDGE('',*,*,#433,.T.);
#210=ORIENTED_EDGE('',*,*,#434,.T.);
#211=ORIENTED_EDGE('',*,*,#435,.T.);
#212=ORIENTED_EDGE('',*,*,#436,.T.);
#213=ORIENTED_EDGE('',*,*,#437,.T.);
#214=ORIENTED_EDGE('',*,*,#438,.T.);
#215=ORIENTED_EDGE('',*,*,#439,.T.);
#216=ORIENTED_EDGE('',*,*,#440,.T.);
#217=ORIENTED_EDGE('',*,*,#441,.T.);
#218=ORIENTED_EDGE('',*,*,#436,.F.);
#219=ORIENTED_EDGE('',*,*,#442,.T.);
#220=ORIENTED_EDGE('',*,*,#380,.T.);
#221=ORIENTED_EDGE('',*,*,#409,.F.);
#222=ORIENTED_EDGE('',*,*,#379,.T.);
#223=ORIENTED_EDGE('',*,*,#408,.F.);
#224=ORIENTED_EDGE('',*,*,#378,.T.);
#225=ORIENTED_EDGE('',*,*,#407,.F.);
#226=ORIENTED_EDGE('',*,*,#377,.T.);
#227=ORIENTED_EDGE('',*,*,#406,.F.);
#228=ORIENTED_EDGE('',*,*,#376,.T.);
#229=ORIENTED_EDGE('',*,*,#405,.F.);
#230=ORIENTED_EDGE('',*,*,#404,.T.);
#231=ORIENTED_EDGE('',*,*,#416,.F.);
#232=ORIENTED_EDGE('',*,*,#373,.F.);
#233=ORIENTED_EDGE('',*,*,#413,.T.);
#234=ORIENTED_EDGE('',*,*,#443,.T.);
#235=ORIENTED_EDGE('',*,*,#444,.T.);
#236=ORIENTED_EDGE('',*,*,#445,.T.);
#237=ORIENTED_EDGE('',*,*,#446,.T.);
#238=ORIENTED_EDGE('',*,*,#381,.T.);
#239=ORIENTED_EDGE('',*,*,#410,.F.);
#240=ORIENTED_EDGE('',*,*,#371,.F.);
#241=ORIENTED_EDGE('',*,*,#390,.T.);
#242=ORIENTED_EDGE('',*,*,#370,.T.);
#243=ORIENTED_EDGE('',*,*,#411,.F.);
#244=ORIENTED_EDGE('',*,*,#382,.F.);
#245=ORIENTED_EDGE('',*,*,#389,.T.);
#246=ORIENTED_EDGE('',*,*,#383,.T.);
#247=ORIENTED_EDGE('',*,*,#412,.F.);
#248=ORIENTED_EDGE('',*,*,#369,.T.);
#249=ORIENTED_EDGE('',*,*,#388,.T.);
#250=ORIENTED_EDGE('',*,*,#368,.T.);
#251=ORIENTED_EDGE('',*,*,#387,.T.);
#252=ORIENTED_EDGE('',*,*,#367,.T.);
#253=ORIENTED_EDGE('',*,*,#386,.T.);
#254=ORIENTED_EDGE('',*,*,#366,.T.);
#255=ORIENTED_EDGE('',*,*,#385,.T.);
#256=ORIENTED_EDGE('',*,*,#365,.T.);
#257=ORIENTED_EDGE('',*,*,#384,.T.);
#258=ORIENTED_EDGE('',*,*,#447,.F.);
#259=ORIENTED_EDGE('',*,*,#448,.F.);
#260=ORIENTED_EDGE('',*,*,#449,.F.);
#261=ORIENTED_EDGE('',*,*,#423,.F.);
#262=ORIENTED_EDGE('',*,*,#391,.F.);
#263=ORIENTED_EDGE('',*,*,#450,.F.);
#264=ORIENTED_EDGE('',*,*,#418,.F.);
#265=ORIENTED_EDGE('',*,*,#448,.T.);
#266=ORIENTED_EDGE('',*,*,#419,.F.);
#267=ORIENTED_EDGE('',*,*,#451,.F.);
#268=ORIENTED_EDGE('',*,*,#444,.F.);
#269=ORIENTED_EDGE('',*,*,#449,.T.);
#270=ORIENTED_EDGE('',*,*,#443,.F.);
#271=ORIENTED_EDGE('',*,*,#452,.F.);
#272=ORIENTED_EDGE('',*,*,#361,.F.);
#273=ORIENTED_EDGE('',*,*,#447,.T.);
#274=ORIENTED_EDGE('',*,*,#360,.F.);
#275=ORIENTED_EDGE('',*,*,#453,.F.);
#276=ORIENTED_EDGE('',*,*,#420,.F.);
#277=ORIENTED_EDGE('',*,*,#451,.T.);
#278=ORIENTED_EDGE('',*,*,#450,.T.);
#279=ORIENTED_EDGE('',*,*,#454,.F.);
#280=ORIENTED_EDGE('',*,*,#455,.F.);
#281=ORIENTED_EDGE('',*,*,#452,.T.);
#282=ORIENTED_EDGE('',*,*,#456,.F.);
#283=ORIENTED_EDGE('',*,*,#453,.T.);
#284=ORIENTED_EDGE('',*,*,#359,.F.);
#285=ORIENTED_EDGE('',*,*,#457,.F.);
#286=ORIENTED_EDGE('',*,*,#421,.F.);
#287=ORIENTED_EDGE('',*,*,#454,.T.);
#288=ORIENTED_EDGE('',*,*,#400,.F.);
#289=ORIENTED_EDGE('',*,*,#458,.F.);
#290=ORIENTED_EDGE('',*,*,#445,.F.);
#291=ORIENTED_EDGE('',*,*,#456,.T.);
#292=ORIENTED_EDGE('',*,*,#446,.F.);
#293=ORIENTED_EDGE('',*,*,#459,.F.);
#294=ORIENTED_EDGE('',*,*,#440,.F.);
#295=ORIENTED_EDGE('',*,*,#455,.T.);
#296=ORIENTED_EDGE('',*,*,#442,.F.);
#297=ORIENTED_EDGE('',*,*,#460,.F.);
#298=ORIENTED_EDGE('',*,*,#362,.F.);
#299=ORIENTED_EDGE('',*,*,#457,.T.);
#300=ORIENTED_EDGE('',*,*,#358,.F.);
#301=ORIENTED_EDGE('',*,*,#461,.F.);
#302=ORIENTED_EDGE('',*,*,#424,.F.);
#303=ORIENTED_EDGE('',*,*,#459,.T.);
#304=ORIENTED_EDGE('',*,*,#458,.T.);
#305=ORIENTED_EDGE('',*,*,#462,.F.);
#306=ORIENTED_EDGE('',*,*,#460,.T.);
#307=ORIENTED_EDGE('',*,*,#439,.F.);
#308=ORIENTED_EDGE('',*,*,#463,.F.);
#309=ORIENTED_EDGE('',*,*,#363,.F.);
#310=ORIENTED_EDGE('',*,*,#461,.T.);
#311=ORIENTED_EDGE('',*,*,#357,.F.);
#312=ORIENTED_EDGE('',*,*,#464,.F.);
#313=ORIENTED_EDGE('',*,*,#426,.F.);
#314=ORIENTED_EDGE('',*,*,#462,.T.);
#315=ORIENTED_EDGE('',*,*,#399,.F.);
#316=ORIENTED_EDGE('',*,*,#465,.F.);
#317=ORIENTED_EDGE('',*,*,#441,.F.);
#318=ORIENTED_EDGE('',*,*,#466,.F.);
#319=ORIENTED_EDGE('',*,*,#463,.T.);
#320=ORIENTED_EDGE('',*,*,#467,.F.);
#321=ORIENTED_EDGE('',*,*,#464,.T.);
#322=ORIENTED_EDGE('',*,*,#356,.F.);
#323=ORIENTED_EDGE('',*,*,#468,.F.);
#324=ORIENTED_EDGE('',*,*,#428,.F.);
#325=ORIENTED_EDGE('',*,*,#465,.T.);
#326=ORIENTED_EDGE('',*,*,#398,.F.);
#327=ORIENTED_EDGE('',*,*,#469,.F.);
#328=ORIENTED_EDGE('',*,*,#437,.F.);
#329=ORIENTED_EDGE('',*,*,#467,.T.);
#330=ORIENTED_EDGE('',*,*,#438,.F.);
#331=ORIENTED_EDGE('',*,*,#470,.F.);
#332=ORIENTED_EDGE('',*,*,#432,.F.);
#333=ORIENTED_EDGE('',*,*,#466,.T.);
#334=ORIENTED_EDGE('',*,*,#435,.F.);
#335=ORIENTED_EDGE('',*,*,#471,.F.);
#336=ORIENTED_EDGE('',*,*,#364,.F.);
#337=ORIENTED_EDGE('',*,*,#468,.T.);
#338=ORIENTED_EDGE('',*,*,#355,.F.);
#339=ORIENTED_EDGE('',*,*,#472,.F.);
#340=ORIENTED_EDGE('',*,*,#430,.F.);
#341=ORIENTED_EDGE('',*,*,#470,.T.);
#342=ORIENTED_EDGE('',*,*,#469,.T.);
#343=ORIENTED_EDGE('',*,*,#473,.F.);
#344=ORIENTED_EDGE('',*,*,#472,.T.);
#345=ORIENTED_EDGE('',*,*,#471,.T.);
#346=ORIENTED_EDGE('',*,*,#474,.F.);
#347=ORIENTED_EDGE('',*,*,#473,.T.);
#348=ORIENTED_EDGE('',*,*,#397,.F.);
#349=ORIENTED_EDGE('',*,*,#475,.F.);
#350=ORIENTED_EDGE('',*,*,#433,.F.);
#351=ORIENTED_EDGE('',*,*,#474,.T.);
#352=ORIENTED_EDGE('',*,*,#434,.F.);
#353=ORIENTED_EDGE('',*,*,#475,.T.);
#354=ORIENTED_EDGE('',*,*,#431,.F.);
#355=EDGE_CURVE('',#476,#477,#557,.F.);
#356=EDGE_CURVE('',#477,#478,#558,.T.);
#357=EDGE_CURVE('',#478,#479,#559,.T.);
#358=EDGE_CURVE('',#479,#480,#560,.T.);
#359=EDGE_CURVE('',#480,#481,#561,.T.);
#360=EDGE_CURVE('',#481,#482,#562,.T.);
#361=EDGE_CURVE('',#482,#483,#563,.T.);
#362=EDGE_CURVE('',#483,#484,#564,.F.);
#363=EDGE_CURVE('',#484,#485,#565,.T.);
#364=EDGE_CURVE('',#485,#476,#566,.F.);
#365=EDGE_CURVE('',#486,#486,#61,.T.);
#366=EDGE_CURVE('',#487,#487,#62,.T.);
#367=EDGE_CURVE('',#488,#488,#63,.T.);
#368=EDGE_CURVE('',#489,#489,#64,.T.);
#369=EDGE_CURVE('',#490,#490,#65,.T.);
#370=EDGE_CURVE('',#491,#491,#66,.F.);
#371=EDGE_CURVE('',#492,#492,#67,.T.);
#372=EDGE_CURVE('',#493,#494,#567,.T.);
#373=EDGE_CURVE('',#494,#495,#568,.T.);
#374=EDGE_CURVE('',#496,#495,#569,.T.);
#375=EDGE_CURVE('',#496,#493,#570,.T.);
#376=EDGE_CURVE('',#497,#497,#68,.T.);
#377=EDGE_CURVE('',#498,#498,#69,.T.);
#378=EDGE_CURVE('',#499,#499,#70,.T.);
#379=EDGE_CURVE('',#500,#500,#71,.T.);
#380=EDGE_CURVE('',#501,#501,#72,.T.);
#381=EDGE_CURVE('',#502,#502,#73,.T.);
#382=EDGE_CURVE('',#503,#503,#74,.T.);
#383=EDGE_CURVE('',#504,#504,#75,.F.);
#384=EDGE_CURVE('',#505,#505,#76,.T.);
#385=EDGE_CURVE('',#506,#506,#77,.T.);
#386=EDGE_CURVE('',#507,#507,#78,.T.);
#387=EDGE_CURVE('',#508,#508,#79,.T.);
#388=EDGE_CURVE('',#509,#509,#80,.T.);
#389=EDGE_CURVE('',#510,#510,#81,.T.);
#390=EDGE_CURVE('',#511,#511,#82,.T.);
#391=EDGE_CURVE('',#512,#513,#571,.F.);
#392=EDGE_CURVE('',#514,#513,#572,.T.);
#393=EDGE_CURVE('',#515,#514,#573,.T.);
#394=EDGE_CURVE('',#516,#515,#574,.T.);
#395=EDGE_CURVE('',#517,#516,#575,.T.);
#396=EDGE_CURVE('',#517,#518,#576,.T.);
#397=EDGE_CURVE('',#518,#519,#577,.T.);
#398=EDGE_CURVE('',#519,#520,#578,.F.);
#399=EDGE_CURVE('',#520,#521,#579,.T.);
#400=EDGE_CURVE('',#521,#512,#580,.F.);
#401=EDGE_CURVE('',#522,#523,#581,.T.);
#402=EDGE_CURVE('',#524,#522,#582,.T.);
#403=EDGE_CURVE('',#524,#525,#583,.T.);
#404=EDGE_CURVE('',#523,#525,#584,.T.);
#405=EDGE_CURVE('',#526,#526,#83,.T.);
#406=EDGE_CURVE('',#527,#527,#84,.T.);
#407=EDGE_CURVE('',#528,#528,#85,.T.);
#408=EDGE_CURVE('',#529,#529,#86,.T.);
#409=EDGE_CURVE('',#530,#530,#87,.T.);
#410=EDGE_CURVE('',#531,#531,#88,.T.);
#411=EDGE_CURVE('',#532,#532,#89,.F.);
#412=EDGE_CURVE('',#533,#533,#90,.F.);
#413=EDGE_CURVE('',#494,#523,#585,.T.);
#414=EDGE_CURVE('',#493,#522,#586,.T.);
#415=EDGE_CURVE('',#496,#524,#587,.T.);
#416=EDGE_CURVE('',#495,#525,#588,.T.);
#417=EDGE_CURVE('',#534,#535,#589,.T.);
#418=EDGE_CURVE('',#535,#536,#590,.T.);
#419=EDGE_CURVE('',#536,#537,#591,.F.);
#420=EDGE_CURVE('',#537,#534,#592,.F.);
#421=EDGE_CURVE('',#534,#538,#593,.F.);
#422=EDGE_CURVE('',#538,#514,#594,.T.);
#423=EDGE_CURVE('',#513,#535,#91,.F.);
#424=EDGE_CURVE('',#538,#539,#595,.F.);
#425=EDGE_CURVE('',#539,#515,#596,.T.);
#426=EDGE_CURVE('',#539,#540,#597,.F.);
#427=EDGE_CURVE('',#540,#516,#598,.T.);
#428=EDGE_CURVE('',#540,#541,#599,.F.);
#429=EDGE_CURVE('',#541,#517,#600,.T.);
#430=EDGE_CURVE('',#541,#542,#601,.T.);
#431=EDGE_CURVE('',#542,#518,#602,.T.);
#432=EDGE_CURVE('',#543,#544,#603,.T.);
#433=EDGE_CURVE('',#544,#545,#604,.F.);
#434=EDGE_CURVE('',#545,#546,#605,.F.);
#435=EDGE_CURVE('',#546,#543,#606,.T.);
#436=EDGE_CURVE('',#547,#548,#607,.T.);
#437=EDGE_CURVE('',#548,#549,#608,.T.);
#438=EDGE_CURVE('',#549,#550,#609,.F.);
#439=EDGE_CURVE('',#550,#547,#610,.F.);
#440=EDGE_CURVE('',#551,#552,#611,.T.);
#441=EDGE_CURVE('',#552,#548,#612,.F.);
#442=EDGE_CURVE('',#547,#551,#613,.T.);
#443=EDGE_CURVE('',#553,#554,#614,.F.);
#444=EDGE_CURVE('',#554,#555,#615,.T.);
#445=EDGE_CURVE('',#555,#556,#616,.T.);
#446=EDGE_CURVE('',#556,#553,#617,.F.);
#447=EDGE_CURVE('',#537,#482,#92,.F.);
#448=EDGE_CURVE('',#554,#537,#93,.F.);
#449=EDGE_CURVE('',#482,#554,#94,.F.);
#450=EDGE_CURVE('',#536,#512,#95,.T.);
#451=EDGE_CURVE('',#555,#536,#96,.T.);
#452=EDGE_CURVE('',#483,#553,#97,.T.);
#453=EDGE_CURVE('',#534,#481,#12,.F.);
#454=EDGE_CURVE('',#555,#512,#98,.F.);
#455=EDGE_CURVE('',#483,#551,#99,.F.);
#456=EDGE_CURVE('',#551,#553,#100,.F.);
#457=EDGE_CURVE('',#538,#480,#13,.F.);
#458=EDGE_CURVE('',#556,#521,#101,.T.);
#459=EDGE_CURVE('',#552,#556,#102,.T.);
#460=EDGE_CURVE('',#484,#547,#14,.T.);
#461=EDGE_CURVE('',#539,#479,#15,.F.);
#462=EDGE_CURVE('',#552,#521,#103,.F.);
#463=EDGE_CURVE('',#485,#550,#104,.T.);
#464=EDGE_CURVE('',#540,#478,#16,.F.);
#465=EDGE_CURVE('',#548,#520,#17,.F.);
#466=EDGE_CURVE('',#485,#543,#105,.F.);
#467=EDGE_CURVE('',#543,#550,#106,.F.);
#468=EDGE_CURVE('',#541,#477,#18,.F.);
#469=EDGE_CURVE('',#549,#519,#107,.T.);
#470=EDGE_CURVE('',#544,#549,#108,.T.);
#471=EDGE_CURVE('',#476,#546,#109,.T.);
#472=EDGE_CURVE('',#542,#476,#110,.T.);
#473=EDGE_CURVE('',#544,#519,#111,.F.);
#474=EDGE_CURVE('',#542,#546,#112,.F.);
#475=EDGE_CURVE('',#545,#518,#19,.F.);
#476=VERTEX_POINT('',#1390);
#477=VERTEX_POINT('',#1391);
#478=VERTEX_POINT('',#1393);
#479=VERTEX_POINT('',#1395);
#480=VERTEX_POINT('',#1397);
#481=VERTEX_POINT('',#1399);
#482=VERTEX_POINT('',#1401);
#483=VERTEX_POINT('',#1403);
#484=VERTEX_POINT('',#1405);
#485=VERTEX_POINT('',#1407);
#486=VERTEX_POINT('',#1410);
#487=VERTEX_POINT('',#1412);
#488=VERTEX_POINT('',#1414);
#489=VERTEX_POINT('',#1416);
#490=VERTEX_POINT('',#1418);
#491=VERTEX_POINT('',#1420);
#492=VERTEX_POINT('',#1422);
#493=VERTEX_POINT('',#1424);
#494=VERTEX_POINT('',#1425);
#495=VERTEX_POINT('',#1427);
#496=VERTEX_POINT('',#1429);
#497=VERTEX_POINT('',#1432);
#498=VERTEX_POINT('',#1434);
#499=VERTEX_POINT('',#1436);
#500=VERTEX_POINT('',#1438);
#501=VERTEX_POINT('',#1440);
#502=VERTEX_POINT('',#1442);
#503=VERTEX_POINT('',#1444);
#504=VERTEX_POINT('',#1446);
#505=VERTEX_POINT('',#1449);
#506=VERTEX_POINT('',#1451);
#507=VERTEX_POINT('',#1453);
#508=VERTEX_POINT('',#1455);
#509=VERTEX_POINT('',#1457);
#510=VERTEX_POINT('',#1459);
#511=VERTEX_POINT('',#1461);
#512=VERTEX_POINT('',#1463);
#513=VERTEX_POINT('',#1464);
#514=VERTEX_POINT('',#1466);
#515=VERTEX_POINT('',#1468);
#516=VERTEX_POINT('',#1470);
#517=VERTEX_POINT('',#1472);
#518=VERTEX_POINT('',#1474);
#519=VERTEX_POINT('',#1476);
#520=VERTEX_POINT('',#1478);
#521=VERTEX_POINT('',#1480);
#522=VERTEX_POINT('',#1483);
#523=VERTEX_POINT('',#1484);
#524=VERTEX_POINT('',#1486);
#525=VERTEX_POINT('',#1488);
#526=VERTEX_POINT('',#1491);
#527=VERTEX_POINT('',#1493);
#528=VERTEX_POINT('',#1495);
#529=VERTEX_POINT('',#1497);
#530=VERTEX_POINT('',#1499);
#531=VERTEX_POINT('',#1501);
#532=VERTEX_POINT('',#1503);
#533=VERTEX_POINT('',#1505);
#534=VERTEX_POINT('',#1515);
#535=VERTEX_POINT('',#1516);
#536=VERTEX_POINT('',#1518);
#537=VERTEX_POINT('',#1520);
#538=VERTEX_POINT('',#1524);
#539=VERTEX_POINT('',#1529);
#540=VERTEX_POINT('',#1533);
#541=VERTEX_POINT('',#1537);
#542=VERTEX_POINT('',#1541);
#543=VERTEX_POINT('',#1545);
#544=VERTEX_POINT('',#1546);
#545=VERTEX_POINT('',#1548);
#546=VERTEX_POINT('',#1550);
#547=VERTEX_POINT('',#1554);
#548=VERTEX_POINT('',#1555);
#549=VERTEX_POINT('',#1557);
#550=VERTEX_POINT('',#1559);
#551=VERTEX_POINT('',#1563);
#552=VERTEX_POINT('',#1564);
#553=VERTEX_POINT('',#1575);
#554=VERTEX_POINT('',#1576);
#555=VERTEX_POINT('',#1578);
#556=VERTEX_POINT('',#1580);
#557=LINE('',#1389,#618);
#558=LINE('',#1392,#619);
#559=LINE('',#1394,#620);
#560=LINE('',#1396,#621);
#561=LINE('',#1398,#622);
#562=LINE('',#1400,#623);
#563=LINE('',#1402,#624);
#564=LINE('',#1404,#625);
#565=LINE('',#1406,#626);
#566=LINE('',#1408,#627);
#567=LINE('',#1423,#628);
#568=LINE('',#1426,#629);
#569=LINE('',#1428,#630);
#570=LINE('',#1430,#631);
#571=LINE('',#1462,#632);
#572=LINE('',#1465,#633);
#573=LINE('',#1467,#634);
#574=LINE('',#1469,#635);
#575=LINE('',#1471,#636);
#576=LINE('',#1473,#637);
#577=LINE('',#1475,#638);
#578=LINE('',#1477,#639);
#579=LINE('',#1479,#640);
#580=LINE('',#1481,#641);
#581=LINE('',#1482,#642);
#582=LINE('',#1485,#643);
#583=LINE('',#1487,#644);
#584=LINE('',#1489,#645);
#585=LINE('',#1507,#646);
#586=LINE('',#1508,#647);
#587=LINE('',#1510,#648);
#588=LINE('',#1512,#649);
#589=LINE('',#1514,#650);
#590=LINE('',#1517,#651);
#591=LINE('',#1519,#652);
#592=LINE('',#1521,#653);
#593=LINE('',#1523,#654);
#594=LINE('',#1525,#655);
#595=LINE('',#1528,#656);
#596=LINE('',#1530,#657);
#597=LINE('',#1532,#658);
#598=LINE('',#1534,#659);
#599=LINE('',#1536,#660);
#600=LINE('',#1538,#661);
#601=LINE('',#1540,#662);
#602=LINE('',#1542,#663);
#603=LINE('',#1544,#664);
#604=LINE('',#1547,#665);
#605=LINE('',#1549,#666);
#606=LINE('',#1551,#667);
#607=LINE('',#1553,#668);
#608=LINE('',#1556,#669);
#609=LINE('',#1558,#670);
#610=LINE('',#1560,#671);
#611=LINE('',#1562,#672);
#612=LINE('',#1565,#673);
#613=LINE('',#1566,#674);
#614=LINE('',#1574,#675);
#615=LINE('',#1577,#676);
#616=LINE('',#1579,#677);
#617=LINE('',#1581,#678);
#618=VECTOR('',#1094,1.);
#619=VECTOR('',#1095,1.);
#620=VECTOR('',#1096,1.);
#621=VECTOR('',#1097,1.);
#622=VECTOR('',#1098,1.);
#623=VECTOR('',#1099,1.);
#624=VECTOR('',#1100,1.);
#625=VECTOR('',#1101,1.);
#626=VECTOR('',#1102,1.);
#627=VECTOR('',#1103,1.);
#628=VECTOR('',#1118,1.);
#629=VECTOR('',#1119,1.);
#630=VECTOR('',#1120,1.);
#631=VECTOR('',#1121,1.);
#632=VECTOR('',#1154,1.);
#633=VECTOR('',#1155,1.);
#634=VECTOR('',#1156,1.);
#635=VECTOR('',#1157,1.);
#636=VECTOR('',#1158,1.);
#637=VECTOR('',#1159,1.);
#638=VECTOR('',#1160,1.);
#639=VECTOR('',#1161,1.);
#640=VECTOR('',#1162,1.);
#641=VECTOR('',#1163,1.);
#642=VECTOR('',#1164,1.);
#643=VECTOR('',#1165,1.);
#644=VECTOR('',#1166,1.);
#645=VECTOR('',#1167,1.);
#646=VECTOR('',#1186,1.);
#647=VECTOR('',#1187,1.);
#648=VECTOR('',#1190,1.);
#649=VECTOR('',#1193,1.);
#650=VECTOR('',#1196,1.);
#651=VECTOR('',#1197,1.);
#652=VECTOR('',#1198,1.);
#653=VECTOR('',#1199,1.);
#654=VECTOR('',#1202,1.);
#655=VECTOR('',#1203,1.);
#656=VECTOR('',#1208,1.);
#657=VECTOR('',#1209,1.);
#658=VECTOR('',#1212,1.);
#659=VECTOR('',#1213,1.);
#660=VECTOR('',#1216,1.);
#661=VECTOR('',#1217,1.);
#662=VECTOR('',#1220,1.);
#663=VECTOR('',#1221,1.);
#664=VECTOR('',#1224,1.);
#665=VECTOR('',#1225,1.);
#666=VECTOR('',#1226,1.);
#667=VECTOR('',#1227,1.);
#668=VECTOR('',#1230,1.);
#669=VECTOR('',#1231,1.);
#670=VECTOR('',#1232,1.);
#671=VECTOR('',#1233,1.);
#672=VECTOR('',#1236,1.);
#673=VECTOR('',#1237,1.);
#674=VECTOR('',#1238,1.);
#675=VECTOR('',#1253,1.);
#676=VECTOR('',#1254,1.);
#677=VECTOR('',#1255,1.);
#678=VECTOR('',#1256,1.);
#679=EDGE_LOOP('',(#113,#114,#115,#116,#117,#118,#119,#120,#121,#122));
#680=EDGE_LOOP('',(#123));
#681=EDGE_LOOP('',(#124));
#682=EDGE_LOOP('',(#125));
#683=EDGE_LOOP('',(#126));
#684=EDGE_LOOP('',(#127));
#685=EDGE_LOOP('',(#128));
#686=EDGE_LOOP('',(#129));
#687=EDGE_LOOP('',(#130,#131,#132,#133));
#688=EDGE_LOOP('',(#134));
#689=EDGE_LOOP('',(#135));
#690=EDGE_LOOP('',(#136));
#691=EDGE_LOOP('',(#137));
#692=EDGE_LOOP('',(#138));
#693=EDGE_LOOP('',(#139));
#694=EDGE_LOOP('',(#140));
#695=EDGE_LOOP('',(#141));
#696=EDGE_LOOP('',(#142));
#697=EDGE_LOOP('',(#143));
#698=EDGE_LOOP('',(#144));
#699=EDGE_LOOP('',(#145));
#700=EDGE_LOOP('',(#146));
#701=EDGE_LOOP('',(#147));
#702=EDGE_LOOP('',(#148));
#703=EDGE_LOOP('',(#149,#150,#151,#152,#153,#154,#155,#156,#157,#158));
#704=EDGE_LOOP('',(#159,#160,#161,#162));
#705=EDGE_LOOP('',(#163));
#706=EDGE_LOOP('',(#164));
#707=EDGE_LOOP('',(#165));
#708=EDGE_LOOP('',(#166));
#709=EDGE_LOOP('',(#167));
#710=EDGE_LOOP('',(#168));
#711=EDGE_LOOP('',(#169));
#712=EDGE_LOOP('',(#170));
#713=EDGE_LOOP('',(#171,#172,#173,#174));
#714=EDGE_LOOP('',(#175,#176,#177,#178));
#715=EDGE_LOOP('',(#179,#180,#181,#182));
#716=EDGE_LOOP('',(#183,#184,#185,#186));
#717=EDGE_LOOP('',(#187,#188,#189,#190,#191));
#718=EDGE_LOOP('',(#192,#193,#194,#195));
#719=EDGE_LOOP('',(#196,#197,#198,#199));
#720=EDGE_LOOP('',(#200,#201,#202,#203));
#721=EDGE_LOOP('',(#204,#205,#206,#207));
#722=EDGE_LOOP('',(#208,#209,#210,#211));
#723=EDGE_LOOP('',(#212,#213,#214,#215));
#724=EDGE_LOOP('',(#216,#217,#218,#219));
#725=EDGE_LOOP('',(#220));
#726=EDGE_LOOP('',(#221));
#727=EDGE_LOOP('',(#222));
#728=EDGE_LOOP('',(#223));
#729=EDGE_LOOP('',(#224));
#730=EDGE_LOOP('',(#225));
#731=EDGE_LOOP('',(#226));
#732=EDGE_LOOP('',(#227));
#733=EDGE_LOOP('',(#228));
#734=EDGE_LOOP('',(#229));
#735=EDGE_LOOP('',(#230,#231,#232,#233));
#736=EDGE_LOOP('',(#234,#235,#236,#237));
#737=EDGE_LOOP('',(#238));
#738=EDGE_LOOP('',(#239));
#739=EDGE_LOOP('',(#240));
#740=EDGE_LOOP('',(#241));
#741=EDGE_LOOP('',(#242));
#742=EDGE_LOOP('',(#243));
#743=EDGE_LOOP('',(#244));
#744=EDGE_LOOP('',(#245));
#745=EDGE_LOOP('',(#246));
#746=EDGE_LOOP('',(#247));
#747=EDGE_LOOP('',(#248));
#748=EDGE_LOOP('',(#249));
#749=EDGE_LOOP('',(#250));
#750=EDGE_LOOP('',(#251));
#751=EDGE_LOOP('',(#252));
#752=EDGE_LOOP('',(#253));
#753=EDGE_LOOP('',(#254));
#754=EDGE_LOOP('',(#255));
#755=EDGE_LOOP('',(#256));
#756=EDGE_LOOP('',(#257));
#757=EDGE_LOOP('',(#258,#259,#260));
#758=EDGE_LOOP('',(#261,#262,#263,#264));
#759=EDGE_LOOP('',(#265,#266,#267,#268));
#760=EDGE_LOOP('',(#269,#270,#271,#272));
#761=EDGE_LOOP('',(#273,#274,#275,#276));
#762=EDGE_LOOP('',(#277,#278,#279));
#763=EDGE_LOOP('',(#280,#281,#282));
#764=EDGE_LOOP('',(#283,#284,#285,#286));
#765=EDGE_LOOP('',(#287,#288,#289,#290));
#766=EDGE_LOOP('',(#291,#292,#293,#294));
#767=EDGE_LOOP('',(#295,#296,#297,#298));
#768=EDGE_LOOP('',(#299,#300,#301,#302));
#769=EDGE_LOOP('',(#303,#304,#305));
#770=EDGE_LOOP('',(#306,#307,#308,#309));
#771=EDGE_LOOP('',(#310,#311,#312,#313));
#772=EDGE_LOOP('',(#314,#315,#316,#317));
#773=EDGE_LOOP('',(#318,#319,#320));
#774=EDGE_LOOP('',(#321,#322,#323,#324));
#775=EDGE_LOOP('',(#325,#326,#327,#328));
#776=EDGE_LOOP('',(#329,#330,#331,#332));
#777=EDGE_LOOP('',(#333,#334,#335,#336));
#778=EDGE_LOOP('',(#337,#338,#339,#340));
#779=EDGE_LOOP('',(#341,#342,#343));
#780=EDGE_LOOP('',(#344,#345,#346));
#781=EDGE_LOOP('',(#347,#348,#349,#350));
#782=EDGE_LOOP('',(#351,#352,#353,#354));
#783=FACE_BOUND('',#679,.T.);
#784=FACE_BOUND('',#680,.T.);
#785=FACE_BOUND('',#681,.T.);
#786=FACE_BOUND('',#682,.T.);
#787=FACE_BOUND('',#683,.T.);
#788=FACE_BOUND('',#684,.T.);
#789=FACE_BOUND('',#685,.T.);
#790=FACE_BOUND('',#686,.T.);
#791=FACE_BOUND('',#687,.T.);
#792=FACE_BOUND('',#688,.T.);
#793=FACE_BOUND('',#689,.T.);
#794=FACE_BOUND('',#690,.T.);
#795=FACE_BOUND('',#691,.T.);
#796=FACE_BOUND('',#692,.T.);
#797=FACE_BOUND('',#693,.T.);
#798=FACE_BOUND('',#694,.T.);
#799=FACE_BOUND('',#695,.T.);
#800=FACE_BOUND('',#696,.T.);
#801=FACE_BOUND('',#697,.T.);
#802=FACE_BOUND('',#698,.T.);
#803=FACE_BOUND('',#699,.T.);
#804=FACE_BOUND('',#700,.T.);
#805=FACE_BOUND('',#701,.T.);
#806=FACE_BOUND('',#702,.T.);
#807=FACE_BOUND('',#703,.T.);
#808=FACE_BOUND('',#704,.T.);
#809=FACE_BOUND('',#705,.T.);
#810=FACE_BOUND('',#706,.T.);
#811=FACE_BOUND('',#707,.T.);
#812=FACE_BOUND('',#708,.T.);
#813=FACE_BOUND('',#709,.T.);
#814=FACE_BOUND('',#710,.T.);
#815=FACE_BOUND('',#711,.T.);
#816=FACE_BOUND('',#712,.T.);
#817=FACE_BOUND('',#713,.T.);
#818=FACE_BOUND('',#714,.T.);
#819=FACE_BOUND('',#715,.T.);
#820=FACE_BOUND('',#716,.T.);
#821=FACE_BOUND('',#717,.T.);
#822=FACE_BOUND('',#718,.T.);
#823=FACE_BOUND('',#719,.T.);
#824=FACE_BOUND('',#720,.T.);
#825=FACE_BOUND('',#721,.T.);
#826=FACE_BOUND('',#722,.T.);
#827=FACE_BOUND('',#723,.T.);
#828=FACE_BOUND('',#724,.T.);
#829=FACE_BOUND('',#725,.T.);
#830=FACE_BOUND('',#726,.T.);
#831=FACE_BOUND('',#727,.T.);
#832=FACE_BOUND('',#728,.T.);
#833=FACE_BOUND('',#729,.T.);
#834=FACE_BOUND('',#730,.T.);
#835=FACE_BOUND('',#731,.T.);
#836=FACE_BOUND('',#732,.T.);
#837=FACE_BOUND('',#733,.T.);
#838=FACE_BOUND('',#734,.T.);
#839=FACE_BOUND('',#735,.T.);
#840=FACE_BOUND('',#736,.T.);
#841=FACE_BOUND('',#737,.T.);
#842=FACE_BOUND('',#738,.T.);
#843=FACE_BOUND('',#739,.T.);
#844=FACE_BOUND('',#740,.T.);
#845=FACE_BOUND('',#741,.T.);
#846=FACE_BOUND('',#742,.T.);
#847=FACE_BOUND('',#743,.T.);
#848=FACE_BOUND('',#744,.T.);
#849=FACE_BOUND('',#745,.T.);
#850=FACE_BOUND('',#746,.T.);
#851=FACE_BOUND('',#747,.T.);
#852=FACE_BOUND('',#748,.T.);
#853=FACE_BOUND('',#749,.T.);
#854=FACE_BOUND('',#750,.T.);
#855=FACE_BOUND('',#751,.T.);
#856=FACE_BOUND('',#752,.T.);
#857=FACE_BOUND('',#753,.T.);
#858=FACE_BOUND('',#754,.T.);
#859=FACE_BOUND('',#755,.T.);
#860=FACE_BOUND('',#756,.T.);
#861=FACE_BOUND('',#757,.T.);
#862=FACE_BOUND('',#758,.T.);
#863=FACE_BOUND('',#759,.T.);
#864=FACE_BOUND('',#760,.T.);
#865=FACE_BOUND('',#761,.T.);
#866=FACE_BOUND('',#762,.T.);
#867=FACE_BOUND('',#763,.T.);
#868=FACE_BOUND('',#764,.T.);
#869=FACE_BOUND('',#765,.T.);
#870=FACE_BOUND('',#766,.T.);
#871=FACE_BOUND('',#767,.T.);
#872=FACE_BOUND('',#768,.T.);
#873=FACE_BOUND('',#769,.T.);
#874=FACE_BOUND('',#770,.T.);
#875=FACE_BOUND('',#771,.T.);
#876=FACE_BOUND('',#772,.T.);
#877=FACE_BOUND('',#773,.T.);
#878=FACE_BOUND('',#774,.T.);
#879=FACE_BOUND('',#775,.T.);
#880=FACE_BOUND('',#776,.T.);
#881=FACE_BOUND('',#777,.T.);
#882=FACE_BOUND('',#778,.T.);
#883=FACE_BOUND('',#779,.T.);
#884=FACE_BOUND('',#780,.T.);
#885=FACE_BOUND('',#781,.T.);
#886=FACE_BOUND('',#782,.T.);
#887=PLANE('',#973);
#888=PLANE('',#989);
#889=PLANE('',#1005);
#890=PLANE('',#1006);
#891=PLANE('',#1007);
#892=PLANE('',#1008);
#893=PLANE('',#1009);
#894=PLANE('',#1011);
#895=PLANE('',#1012);
#896=PLANE('',#1013);
#897=PLANE('',#1014);
#898=PLANE('',#1015);
#899=PLANE('',#1016);
#900=PLANE('',#1017);
#901=PLANE('',#1023);
#902=PLANE('',#1024);
#903=ADVANCED_FACE('',(#783,#784,#785,#786,#787,#788,#789,#790,#791,#792,
#793,#794,#795,#796,#797,#798,#799),#887,.T.);
#904=ADVANCED_FACE('',(#800,#801,#802,#803,#804,#805,#806,#807,#808,#809,
#810,#811,#812,#813,#814,#815,#816),#888,.F.);
#905=ADVANCED_FACE('',(#817),#889,.T.);
#906=ADVANCED_FACE('',(#818),#890,.T.);
#907=ADVANCED_FACE('',(#819),#891,.F.);
#908=ADVANCED_FACE('',(#820),#892,.T.);
#909=ADVANCED_FACE('',(#821),#893,.T.);
#910=ADVANCED_FACE('',(#822),#894,.T.);
#911=ADVANCED_FACE('',(#823),#895,.T.);
#912=ADVANCED_FACE('',(#824),#896,.T.);
#913=ADVANCED_FACE('',(#825),#897,.F.);
#914=ADVANCED_FACE('',(#826),#898,.F.);
#915=ADVANCED_FACE('',(#827),#899,.T.);
#916=ADVANCED_FACE('',(#828),#900,.F.);
#917=ADVANCED_FACE('',(#829,#830),#27,.F.);
#918=ADVANCED_FACE('',(#831,#832),#28,.F.);
#919=ADVANCED_FACE('',(#833,#834),#29,.F.);
#920=ADVANCED_FACE('',(#835,#836),#30,.F.);
#921=ADVANCED_FACE('',(#837,#838),#31,.F.);
#922=ADVANCED_FACE('',(#839),#901,.T.);
#923=ADVANCED_FACE('',(#840),#902,.T.);
#924=ADVANCED_FACE('',(#841,#842),#32,.F.);
#925=ADVANCED_FACE('',(#843,#844),#33,.F.);
#926=ADVANCED_FACE('',(#845,#846),#34,.F.);
#927=ADVANCED_FACE('',(#847,#848),#35,.F.);
#928=ADVANCED_FACE('',(#849,#850),#36,.F.);
#929=ADVANCED_FACE('',(#851,#852),#37,.F.);
#930=ADVANCED_FACE('',(#853,#854),#38,.F.);
#931=ADVANCED_FACE('',(#855,#856),#39,.F.);
#932=ADVANCED_FACE('',(#857,#858),#40,.F.);
#933=ADVANCED_FACE('',(#859,#860),#41,.F.);
#934=ADVANCED_FACE('',(#861),#20,.T.);
#935=ADVANCED_FACE('',(#862),#42,.T.);
#936=ADVANCED_FACE('',(#863),#43,.T.);
#937=ADVANCED_FACE('',(#864),#44,.T.);
#938=ADVANCED_FACE('',(#865),#45,.T.);
#939=ADVANCED_FACE('',(#866),#21,.T.);
#940=ADVANCED_FACE('',(#867),#22,.T.);
#941=ADVANCED_FACE('',(#868),#46,.T.);
#942=ADVANCED_FACE('',(#869),#47,.T.);
#943=ADVANCED_FACE('',(#870),#48,.T.);
#944=ADVANCED_FACE('',(#871),#49,.T.);
#945=ADVANCED_FACE('',(#872),#50,.T.);
#946=ADVANCED_FACE('',(#873),#23,.T.);
#947=ADVANCED_FACE('',(#874),#51,.T.);
#948=ADVANCED_FACE('',(#875),#52,.T.);
#949=ADVANCED_FACE('',(#876),#53,.T.);
#950=ADVANCED_FACE('',(#877),#24,.T.);
#951=ADVANCED_FACE('',(#878),#54,.T.);
#952=ADVANCED_FACE('',(#879),#55,.T.);
#953=ADVANCED_FACE('',(#880),#56,.T.);
#954=ADVANCED_FACE('',(#881),#57,.T.);
#955=ADVANCED_FACE('',(#882),#58,.T.);
#956=ADVANCED_FACE('',(#883),#25,.T.);
#957=ADVANCED_FACE('',(#884),#26,.T.);
#958=ADVANCED_FACE('',(#885),#59,.T.);
#959=ADVANCED_FACE('',(#886),#60,.T.);
#960=CLOSED_SHELL('',(#903,#904,#905,#906,#907,#908,#909,#910,#911,#912,
#913,#914,#915,#916,#917,#918,#919,#920,#921,#922,#923,#924,#925,#926,#927,
#928,#929,#930,#931,#932,#933,#934,#935,#936,#937,#938,#939,#940,#941,#942,
#943,#944,#945,#946,#947,#948,#949,#950,#951,#952,#953,#954,#955,#956,#957,
#958,#959));
#961=STYLED_ITEM('',(#962),#969);
#962=PRESENTATION_STYLE_ASSIGNMENT((#963));
#963=SURFACE_STYLE_USAGE(.BOTH.,#964);
#964=SURFACE_SIDE_STYLE('',(#965));
#965=SURFACE_STYLE_FILL_AREA(#966);
#966=FILL_AREA_STYLE('',(#967));
#967=FILL_AREA_STYLE_COLOUR('',#968);
#968=COLOUR_RGB('',0.647058823529412,0.647058823529412,0.647058823529412);
#969=MANIFOLD_SOLID_BREP('GantryUpper-Right',#960);
#970=SHAPE_DEFINITION_REPRESENTATION(#1653,#971);
#971=SHAPE_REPRESENTATION('GantryUpper-Right',(#972),#1648);
#972=AXIS2_PLACEMENT_3D('',#1387,#1090,#1091);
#973=AXIS2_PLACEMENT_3D('',#1388,#1092,#1093);
#974=AXIS2_PLACEMENT_3D('',#1409,#1104,#1105);
#975=AXIS2_PLACEMENT_3D('',#1411,#1106,#1107);
#976=AXIS2_PLACEMENT_3D('',#1413,#1108,#1109);
#977=AXIS2_PLACEMENT_3D('',#1415,#1110,#1111);
#978=AXIS2_PLACEMENT_3D('',#1417,#1112,#1113);
#979=AXIS2_PLACEMENT_3D('',#1419,#1114,#1115);
#980=AXIS2_PLACEMENT_3D('',#1421,#1116,#1117);
#981=AXIS2_PLACEMENT_3D('',#1431,#1122,#1123);
#982=AXIS2_PLACEMENT_3D('',#1433,#1124,#1125);
#983=AXIS2_PLACEMENT_3D('',#1435,#1126,#1127);
#984=AXIS2_PLACEMENT_3D('',#1437,#1128,#1129);
#985=AXIS2_PLACEMENT_3D('',#1439,#1130,#1131);
#986=AXIS2_PLACEMENT_3D('',#1441,#1132,#1133);
#987=AXIS2_PLACEMENT_3D('',#1443,#1134,#1135);
#988=AXIS2_PLACEMENT_3D('',#1445,#1136,#1137);
#989=AXIS2_PLACEMENT_3D('',#1447,#1138,#1139);
#990=AXIS2_PLACEMENT_3D('',#1448,#1140,#1141);
#991=AXIS2_PLACEMENT_3D('',#1450,#1142,#1143);
#992=AXIS2_PLACEMENT_3D('',#1452,#1144,#1145);
#993=AXIS2_PLACEMENT_3D('',#1454,#1146,#1147);
#994=AXIS2_PLACEMENT_3D('',#1456,#1148,#1149);
#995=AXIS2_PLACEMENT_3D('',#1458,#1150,#1151);
#996=AXIS2_PLACEMENT_3D('',#1460,#1152,#1153);
#997=AXIS2_PLACEMENT_3D('',#1490,#1168,#1169);
#998=AXIS2_PLACEMENT_3D('',#1492,#1170,#1171);
#999=AXIS2_PLACEMENT_3D('',#1494,#1172,#1173);
#1000=AXIS2_PLACEMENT_3D('',#1496,#1174,#1175);
#1001=AXIS2_PLACEMENT_3D('',#1498,#1176,#1177);
#1002=AXIS2_PLACEMENT_3D('',#1500,#1178,#1179);
#1003=AXIS2_PLACEMENT_3D('',#1502,#1180,#1181);
#1004=AXIS2_PLACEMENT_3D('',#1504,#1182,#1183);
#1005=AXIS2_PLACEMENT_3D('',#1506,#1184,#1185);
#1006=AXIS2_PLACEMENT_3D('',#1509,#1188,#1189);
#1007=AXIS2_PLACEMENT_3D('',#1511,#1191,#1192);
#1008=AXIS2_PLACEMENT_3D('',#1513,#1194,#1195);
#1009=AXIS2_PLACEMENT_3D('',#1522,#1200,#1201);
#1010=AXIS2_PLACEMENT_3D('',#1526,#1204,#1205);
#1011=AXIS2_PLACEMENT_3D('',#1527,#1206,#1207);
#1012=AXIS2_PLACEMENT_3D('',#1531,#1210,#1211);
#1013=AXIS2_PLACEMENT_3D('',#1535,#1214,#1215);
#1014=AXIS2_PLACEMENT_3D('',#1539,#1218,#1219);
#1015=AXIS2_PLACEMENT_3D('',#1543,#1222,#1223);
#1016=AXIS2_PLACEMENT_3D('',#1552,#1228,#1229);
#1017=AXIS2_PLACEMENT_3D('',#1561,#1234,#1235);
#1018=AXIS2_PLACEMENT_3D('',#1567,#1239,#1240);
#1019=AXIS2_PLACEMENT_3D('',#1568,#1241,#1242);
#1020=AXIS2_PLACEMENT_3D('',#1569,#1243,#1244);
#1021=AXIS2_PLACEMENT_3D('',#1570,#1245,#1246);
#1022=AXIS2_PLACEMENT_3D('',#1571,#1247,#1248);
#1023=AXIS2_PLACEMENT_3D('',#1572,#1249,#1250);
#1024=AXIS2_PLACEMENT_3D('',#1573,#1251,#1252);
#1025=AXIS2_PLACEMENT_3D('',#1582,#1257,#1258);
#1026=AXIS2_PLACEMENT_3D('',#1583,#1259,#1260);
#1027=AXIS2_PLACEMENT_3D('',#1584,#1261,#1262);
#1028=AXIS2_PLACEMENT_3D('',#1585,#1263,#1264);
#1029=AXIS2_PLACEMENT_3D('',#1586,#1265,#1266);
#1030=AXIS2_PLACEMENT_3D('',#1587,#1267,#1268);
#1031=AXIS2_PLACEMENT_3D('',#1588,#1269,#1270);
#1032=AXIS2_PLACEMENT_3D('',#1589,#1271,#1272);
#1033=AXIS2_PLACEMENT_3D('',#1590,#1273,#1274);
#1034=AXIS2_PLACEMENT_3D('',#1591,#1275,#1276);
#1035=AXIS2_PLACEMENT_3D('',#1592,#1277,#1278);
#1036=AXIS2_PLACEMENT_3D('',#1593,#1279,#1280);
#1037=AXIS2_PLACEMENT_3D('',#1594,#1281,#1282);
#1038=AXIS2_PLACEMENT_3D('',#1595,#1283,#1284);
#1039=AXIS2_PLACEMENT_3D('',#1596,#1285,#1286);
#1040=AXIS2_PLACEMENT_3D('',#1597,#1287,#1288);
#1041=AXIS2_PLACEMENT_3D('',#1598,#1289,#1290);
#1042=AXIS2_PLACEMENT_3D('',#1599,#1291,#1292);
#1043=AXIS2_PLACEMENT_3D('',#1600,#1293,#1294);
#1044=AXIS2_PLACEMENT_3D('',#1601,#1295,#1296);
#1045=AXIS2_PLACEMENT_3D('',#1602,#1297,#1298);
#1046=AXIS2_PLACEMENT_3D('',#1603,#1299,#1300);
#1047=AXIS2_PLACEMENT_3D('',#1604,#1301,#1302);
#1048=AXIS2_PLACEMENT_3D('',#1605,#1303,#1304);
#1049=AXIS2_PLACEMENT_3D('',#1606,#1305,#1306);
#1050=AXIS2_PLACEMENT_3D('',#1607,#1307,#1308);
#1051=AXIS2_PLACEMENT_3D('',#1608,#1309,#1310);
#1052=AXIS2_PLACEMENT_3D('',#1609,#1311,#1312);
#1053=AXIS2_PLACEMENT_3D('',#1610,#1313,#1314);
#1054=AXIS2_PLACEMENT_3D('',#1611,#1315,#1316);
#1055=AXIS2_PLACEMENT_3D('',#1612,#1317,#1318);
#1056=AXIS2_PLACEMENT_3D('',#1613,#1319,#1320);
#1057=AXIS2_PLACEMENT_3D('',#1614,#1321,#1322);
#1058=AXIS2_PLACEMENT_3D('',#1615,#1323,#1324);
#1059=AXIS2_PLACEMENT_3D('',#1616,#1325,#1326);
#1060=AXIS2_PLACEMENT_3D('',#1617,#1327,#1328);
#1061=AXIS2_PLACEMENT_3D('',#1618,#1329,#1330);
#1062=AXIS2_PLACEMENT_3D('',#1619,#1331,#1332);
#1063=AXIS2_PLACEMENT_3D('',#1620,#1333,#1334);
#1064=AXIS2_PLACEMENT_3D('',#1621,#1335,#1336);
#1065=AXIS2_PLACEMENT_3D('',#1622,#1337,#1338);
#1066=AXIS2_PLACEMENT_3D('',#1623,#1339,#1340);
#1067=AXIS2_PLACEMENT_3D('',#1624,#1341,#1342);
#1068=AXIS2_PLACEMENT_3D('',#1625,#1343,#1344);
#1069=AXIS2_PLACEMENT_3D('',#1626,#1345,#1346);
#1070=AXIS2_PLACEMENT_3D('',#1627,#1347,#1348);
#1071=AXIS2_PLACEMENT_3D('',#1628,#1349,#1350);
#1072=AXIS2_PLACEMENT_3D('',#1629,#1351,#1352);
#1073=AXIS2_PLACEMENT_3D('',#1630,#1353,#1354);
#1074=AXIS2_PLACEMENT_3D('',#1631,#1355,#1356);
#1075=AXIS2_PLACEMENT_3D('',#1632,#1357,#1358);
#1076=AXIS2_PLACEMENT_3D('',#1633,#1359,#1360);
#1077=AXIS2_PLACEMENT_3D('',#1634,#1361,#1362);
#1078=AXIS2_PLACEMENT_3D('',#1635,#1363,#1364);
#1079=AXIS2_PLACEMENT_3D('',#1636,#1365,#1366);
#1080=AXIS2_PLACEMENT_3D('',#1637,#1367,#1368);
#1081=AXIS2_PLACEMENT_3D('',#1638,#1369,#1370);
#1082=AXIS2_PLACEMENT_3D('',#1639,#1371,#1372);
#1083=AXIS2_PLACEMENT_3D('',#1640,#1373,#1374);
#1084=AXIS2_PLACEMENT_3D('',#1641,#1375,#1376);
#1085=AXIS2_PLACEMENT_3D('',#1642,#1377,#1378);
#1086=AXIS2_PLACEMENT_3D('',#1643,#1379,#1380);
#1087=AXIS2_PLACEMENT_3D('',#1644,#1381,#1382);
#1088=AXIS2_PLACEMENT_3D('',#1645,#1383,#1384);
#1089=AXIS2_PLACEMENT_3D('',#1646,#1385,#1386);
#1090=DIRECTION('',(0.,0.,1.));
#1091=DIRECTION('',(1.,0.,0.));
#1092=DIRECTION('',(3.19330894433465E-27,1.,-1.55740864212744E-26));
#1093=DIRECTION('',(1.,-3.19330894433465E-27,4.97328694688964E-53));
#1094=DIRECTION('',(-1.,3.19330894433465E-27,-3.31081162872275E-53));
#1095=DIRECTION('',(0.904715499236465,-9.5238503589721E-27,-0.426016273681316));
#1096=DIRECTION('',(2.07558597076832E-59,-1.55740864212744E-26,-1.));
#1097=DIRECTION('',(-0.995752961343963,1.74591216438234E-27,-0.0920654113917342));
#1098=DIRECTION('',(-1.,3.19330894433465E-27,-8.82964207525544E-17));
#1099=DIRECTION('',(1.25953845638074E-57,-1.55740864212744E-26,-1.));
#1100=DIRECTION('',(-1.,3.19330894433465E-27,-2.31296463463574E-16));
#1101=DIRECTION('',(1.25953845637147E-57,-1.55740864212744E-26,-1.));
#1102=DIRECTION('',(-1.,3.19330894433465E-27,-1.05846252734624E-16));
#1103=DIRECTION('',(8.63377052071894E-58,-1.55740864212744E-26,-1.));
#1104=DIRECTION('',(3.19330894433465E-27,1.,-1.55740864212744E-26));
#1105=DIRECTION('',(0.,1.55740864212744E-26,1.));
#1106=DIRECTION('',(3.19330894433465E-27,1.,-1.55740864212744E-26));
#1107=DIRECTION('',(0.,1.55740864212744E-26,1.));
#1108=DIRECTION('',(3.19330894433465E-27,1.,-1.55740864212744E-26));
#1109=DIRECTION('',(0.,1.55740864212744E-26,1.));
#1110=DIRECTION('',(3.19330894433465E-27,1.,-1.55740864212744E-26));
#1111=DIRECTION('',(0.,1.55740864212744E-26,1.));
#1112=DIRECTION('',(3.19330894433465E-27,1.,-1.55740864212744E-26));
#1113=DIRECTION('',(0.,1.55740864212744E-26,1.));
#1114=DIRECTION('',(-3.19330894433465E-27,-1.,1.55740864212744E-26));
#1115=DIRECTION('',(0.,-1.55740864212744E-26,-1.));
#1116=DIRECTION('',(-3.19330894433465E-27,-1.,1.55740864212744E-26));
#1117=DIRECTION('',(0.,-1.55740864212744E-26,-1.));
#1118=DIRECTION('',(2.74807679362663E-14,-1.55740864212745E-26,-1.));
#1119=DIRECTION('',(1.,-3.19330894433509E-27,-2.86431085568154E-14));
#1120=DIRECTION('',(2.74807679362663E-14,-1.55740864212745E-26,-1.));
#1121=DIRECTION('',(-1.,3.19330894433509E-27,2.86431085568154E-14));
#1122=DIRECTION('',(3.19330894433465E-27,1.,-1.55740864212744E-26));
#1123=DIRECTION('',(0.,1.55740864212744E-26,1.));
#1124=DIRECTION('',(3.19330894433465E-27,1.,-1.55740864212744E-26));
#1125=DIRECTION('',(0.,1.55740864212744E-26,1.));
#1126=DIRECTION('',(3.19330894433465E-27,1.,-1.55740864212744E-26));
#1127=DIRECTION('',(0.,1.55740864212744E-26,1.));
#1128=DIRECTION('',(3.19330894433465E-27,1.,-1.55740864212744E-26));
#1129=DIRECTION('',(0.,1.55740864212744E-26,1.));
#1130=DIRECTION('',(3.19330894433465E-27,1.,-1.55740864212744E-26));
#1131=DIRECTION('',(0.,1.55740864212744E-26,1.));
#1132=DIRECTION('',(3.19330894433465E-27,1.,-1.55740864212744E-26));
#1133=DIRECTION('',(0.,1.55740864212744E-26,1.));
#1134=DIRECTION('',(-3.19330894433465E-27,-1.,1.55740864212744E-26));
#1135=DIRECTION('',(0.,-1.55740864212744E-26,-1.));
#1136=DIRECTION('',(-3.19330894433465E-27,-1.,1.55740864212744E-26));
#1137=DIRECTION('',(0.,-1.55740864212744E-26,-1.));
#1138=DIRECTION('',(3.19330894433465E-27,1.,-1.55740864212744E-26));
#1139=DIRECTION('',(1.,-3.19330894433465E-27,4.97328694688964E-53));
#1140=DIRECTION('',(-3.19330894433465E-27,-1.,1.55740864212744E-26));
#1141=DIRECTION('',(0.,-1.55740864212744E-26,-1.));
#1142=DIRECTION('',(-3.19330894433465E-27,-1.,1.55740864212744E-26));
#1143=DIRECTION('',(0.,-1.55740864212744E-26,-1.));
#1144=DIRECTION('',(-3.19330894433465E-27,-1.,1.55740864212744E-26));
#1145=DIRECTION('',(0.,-1.55740864212744E-26,-1.));
#1146=DIRECTION('',(-3.19330894433465E-27,-1.,1.55740864212744E-26));
#1147=DIRECTION('',(0.,-1.55740864212744E-26,-1.));
#1148=DIRECTION('',(-3.19330894433465E-27,-1.,1.55740864212744E-26));
#1149=DIRECTION('',(0.,-1.55740864212744E-26,-1.));
#1150=DIRECTION('',(-3.19330894433465E-27,-1.,1.55740864212744E-26));
#1151=DIRECTION('',(0.,-1.55740864212744E-26,-1.));
#1152=DIRECTION('',(-3.19330894433465E-27,-1.,1.55740864212744E-26));
#1153=DIRECTION('',(0.,-1.55740864212744E-26,-1.));
#1154=DIRECTION('',(1.25953845638074E-57,-1.55740864212744E-26,-1.));
#1155=DIRECTION('',(-1.,3.19330894433465E-27,-8.82964207525544E-17));
#1156=DIRECTION('',(-0.995752961343963,1.74591216438234E-27,-0.0920654113917342));
#1157=DIRECTION('',(2.07558597127182E-59,-1.55740864212744E-26,-1.));
#1158=DIRECTION('',(0.904715499236465,-9.5238503589721E-27,-0.426016273681316));
#1159=DIRECTION('',(-1.,3.19330894433465E-27,-3.31081162872275E-53));
#1160=DIRECTION('',(8.63377052071894E-58,-1.55740864212744E-26,-1.));
#1161=DIRECTION('',(-1.,3.19330894433465E-27,-1.05846252734624E-16));
#1162=DIRECTION('',(1.25953845637147E-57,-1.55740864212744E-26,-1.));
#1163=DIRECTION('',(-1.,3.19330894433465E-27,-2.31296463463574E-16));
#1164=DIRECTION('',(2.74807679362663E-14,-1.55740864212745E-26,-1.));
#1165=DIRECTION('',(-1.,3.19330894433509E-27,2.86431085568154E-14));
#1166=DIRECTION('',(2.74807679362663E-14,-1.55740864212745E-26,-1.));
#1167=DIRECTION('',(1.,-3.19330894433509E-27,-2.86431085568154E-14));
#1168=DIRECTION('',(3.19330894433465E-27,1.,-1.55740864212744E-26));
#1169=DIRECTION('',(0.,1.55740864212744E-26,1.));
#1170=DIRECTION('',(3.19330894433465E-27,1.,-1.55740864212744E-26));
#1171=DIRECTION('',(0.,1.55740864212744E-26,1.));
#1172=DIRECTION('',(3.19330894433465E-27,1.,-1.55740864212744E-26));
#1173=DIRECTION('',(0.,1.55740864212744E-26,1.));
#1174=DIRECTION('',(3.19330894433465E-27,1.,-1.55740864212744E-26));
#1175=DIRECTION('',(0.,1.55740864212744E-26,1.));
#1176=DIRECTION('',(3.19330894433465E-27,1.,-1.55740864212744E-26));
#1177=DIRECTION('',(0.,1.55740864212744E-26,1.));
#1178=DIRECTION('',(3.19330894433465E-27,1.,-1.55740864212744E-26));
#1179=DIRECTION('',(0.,1.55740864212744E-26,1.));
#1180=DIRECTION('',(-3.19330894433465E-27,-1.,1.55740864212744E-26));
#1181=DIRECTION('',(0.,-1.55740864212744E-26,-1.));
#1182=DIRECTION('',(-3.19330894433465E-27,-1.,1.55740864212744E-26));
#1183=DIRECTION('',(0.,-1.55740864212744E-26,-1.));
#1184=DIRECTION('',(1.,-3.19330894433422E-27,2.74807679362663E-14));
#1185=DIRECTION('',(2.74807679362663E-14,-1.03679988773198E-26,-1.));
#1186=DIRECTION('',(-3.19330894433465E-27,-1.,1.55740864212744E-26));
#1187=DIRECTION('',(-3.19330894433465E-27,-1.,1.55740864212744E-26));
#1188=DIRECTION('',(-2.86431085568154E-14,-1.55740864212743E-26,-1.));
#1189=DIRECTION('',(-1.,2.96971717360011E-40,2.86431085568154E-14));
#1190=DIRECTION('',(-3.19330894433465E-27,-1.,1.55740864212744E-26));
#1191=DIRECTION('',(1.,-3.19330894433422E-27,2.74807679362663E-14));
#1192=DIRECTION('',(2.74807679362663E-14,-1.03679988773198E-26,-1.));
#1193=DIRECTION('',(-3.19330894433465E-27,-1.,1.55740864212744E-26));
#1194=DIRECTION('',(1.,-3.19330894433465E-27,4.97341290073528E-53));
#1195=DIRECTION('',(3.19330894433465E-27,1.,-1.03679988773198E-26));
#1196=DIRECTION('',(-3.19330894433465E-27,-1.,1.55740864212744E-26));
#1197=DIRECTION('',(1.25953845638074E-57,-1.55740864212744E-26,-1.));
#1198=DIRECTION('',(-3.19330894433465E-27,-1.,1.55740864212744E-26));
#1199=DIRECTION('',(1.25953845638074E-57,-1.55740864212744E-26,-1.));
#1200=DIRECTION('',(8.82964207525544E-17,-1.55740864212744E-26,-1.));
#1201=DIRECTION('',(-1.,-9.15457191233837E-43,-8.82964207525544E-17));
#1202=DIRECTION('',(-1.,3.19330894433465E-27,-8.82964207525544E-17));
#1203=DIRECTION('',(-3.19330894433465E-27,-1.,1.55740864212744E-26));
#1204=DIRECTION('',(8.82964207525544E-17,-1.55740864212744E-26,-1.));
#1205=DIRECTION('',(-1.,0.,-8.82964207525544E-17));
#1206=DIRECTION('',(0.0920654113917342,-1.58019359758719E-26,-0.995752961343962));
#1207=DIRECTION('',(-0.995752961343963,-9.54534081949482E-28,-0.0920654113917342));
#1208=DIRECTION('',(-0.995752961343963,1.74591216438234E-27,-0.0920654113917342));
#1209=DIRECTION('',(-3.19330894433465E-27,-1.,1.55740864212744E-26));
#1210=DIRECTION('',(1.,-3.19330894433465E-27,4.97328902247562E-53));
#1211=DIRECTION('',(3.19330894433465E-27,1.,-1.03679988773198E-26));
#1212=DIRECTION('',(2.07558597076832E-59,-1.55740864212744E-26,-1.));
#1213=DIRECTION('',(-3.19330894433465E-27,-1.,1.55740864212744E-26));
#1214=DIRECTION('',(0.426016273681316,1.27297157945965E-26,0.904715499236465));
#1215=DIRECTION('',(0.904715499236465,-4.41693624724783E-27,-0.426016273681316));
#1216=DIRECTION('',(0.904715499236465,-9.5238503589721E-27,-0.426016273681316));
#1217=DIRECTION('',(-3.19330894433465E-27,-1.,1.55740864212744E-26));
#1218=DIRECTION('',(-1.6624753181669E-53,-1.55740864212744E-26,-1.));
#1219=DIRECTION('',(0.,-1.,1.55740864212744E-26));
#1220=DIRECTION('',(-1.,3.19330894433465E-27,-3.31081162872275E-53));
#1221=DIRECTION('',(-3.19330894433465E-27,-1.,1.55740864212744E-26));
#1222=DIRECTION('',(1.,-3.19330894433465E-27,4.97337328459485E-53));
#1223=DIRECTION('',(3.19330894433465E-27,1.,-1.03679988773198E-26));
#1224=DIRECTION('',(-3.19330894433465E-27,-1.,1.55740864212744E-26));
#1225=DIRECTION('',(8.63377052071894E-58,-1.55740864212744E-26,-1.));
#1226=DIRECTION('',(-3.19330894433465E-27,-1.,1.55740864212744E-26));
#1227=DIRECTION('',(8.63377052071894E-58,-1.55740864212744E-26,-1.));
#1228=DIRECTION('',(1.05846252734624E-16,-1.55740864212744E-26,-1.));
#1229=DIRECTION('',(-1.,-1.09741382952109E-42,-1.05846252734624E-16));
#1230=DIRECTION('',(-3.19330894433465E-27,-1.,1.55740864212744E-26));
#1231=DIRECTION('',(-1.,3.19330894433465E-27,-1.05846252734624E-16));
#1232=DIRECTION('',(-3.19330894433465E-27,-1.,1.55740864212744E-26));
#1233=DIRECTION('',(-1.,3.19330894433465E-27,-1.05846252734624E-16));
#1234=DIRECTION('',(1.,-3.19330894433465E-27,4.97341290073528E-53));
#1235=DIRECTION('',(3.19330894433465E-27,1.,-1.03679988773198E-26));
#1236=DIRECTION('',(-3.19330894433465E-27,-1.,1.55740864212744E-26));
#1237=DIRECTION('',(1.25953845637147E-57,-1.55740864212744E-26,-1.));
#1238=DIRECTION('',(1.25953845637147E-57,-1.55740864212744E-26,-1.));
#1239=DIRECTION('',(-3.19330894433465E-27,-1.,1.55740864212744E-26));
#1240=DIRECTION('',(0.,1.55740864212744E-26,1.));
#1241=DIRECTION('',(-3.19330894433465E-27,-1.,1.55740864212744E-26));
#1242=DIRECTION('',(0.,1.55740864212744E-26,1.));
#1243=DIRECTION('',(-3.19330894433465E-27,-1.,1.55740864212744E-26));
#1244=DIRECTION('',(0.,1.55740864212744E-26,1.));
#1245=DIRECTION('',(-3.19330894433465E-27,-1.,1.55740864212744E-26));
#1246=DIRECTION('',(0.,1.55740864212744E-26,1.));
#1247=DIRECTION('',(-3.19330894433465E-27,-1.,1.55740864212744E-26));
#1248=DIRECTION('',(0.,1.55740864212744E-26,1.));
#1249=DIRECTION('',(2.86431085568154E-14,1.55740864212743E-26,1.));
#1250=DIRECTION('',(1.,-2.96971717360011E-40,-2.86431085568154E-14));
#1251=DIRECTION('',(2.31296463463574E-16,-1.55740864212744E-26,-1.));
#1252=DIRECTION('',(-1.,-2.39808147351837E-42,-2.31296463463574E-16));
#1253=DIRECTION('',(-1.,3.19330894433465E-27,-2.31296463463574E-16));
#1254=DIRECTION('',(-3.19330894433465E-27,-1.,1.55740864212744E-26));
#1255=DIRECTION('',(-1.,3.19330894433465E-27,-2.31296463463574E-16));
#1256=DIRECTION('',(-3.19330894433465E-27,-1.,1.55740864212744E-26));
#1257=DIRECTION('',(-3.19330894433465E-27,-1.,1.55740864212744E-26));
#1258=DIRECTION('',(0.,1.55740864212744E-26,1.));
#1259=DIRECTION('',(-3.19330894433465E-27,-1.,1.55740864212744E-26));
#1260=DIRECTION('',(0.,1.55740864212744E-26,1.));
#1261=DIRECTION('',(-3.19330894433465E-27,-1.,1.55740864212744E-26));
#1262=DIRECTION('',(0.,1.55740864212744E-26,1.));
#1263=DIRECTION('',(-3.19330894433465E-27,-1.,1.55740864212744E-26));
#1264=DIRECTION('',(0.,1.55740864212744E-26,1.));
#1265=DIRECTION('',(-3.19330894433465E-27,-1.,1.55740864212744E-26));
#1266=DIRECTION('',(0.,1.55740864212744E-26,1.));
#1267=DIRECTION('',(-3.19330894433465E-27,-1.,1.55740864212744E-26));
#1268=DIRECTION('',(0.,-1.55740864212744E-26,-1.));
#1269=DIRECTION('',(-3.19330894433465E-27,-1.,1.55740864212744E-26));
#1270=DIRECTION('',(0.,-1.55740864212744E-26,-1.));
#1271=DIRECTION('',(-3.19330894433465E-27,-1.,1.55740864212744E-26));
#1272=DIRECTION('',(0.,-1.55740864212744E-26,-1.));
#1273=DIRECTION('',(-3.19330894433465E-27,-1.,1.55740864212744E-26));
#1274=DIRECTION('',(0.,-1.55740864212744E-26,-1.));
#1275=DIRECTION('',(-3.19330894433465E-27,-1.,1.55740864212744E-26));
#1276=DIRECTION('',(0.,-1.55740864212744E-26,-1.));
#1277=DIRECTION('',(0.,0.,-1.));
#1278=DIRECTION('',(0.,1.,0.));
#1279=DIRECTION('',(-2.31296463463574E-15,0.,-1.));
#1280=DIRECTION('',(-1.,0.,2.31296463463574E-15));
#1281=DIRECTION('',(0.,1.,0.));
#1282=DIRECTION('',(1.,0.,0.));
#1283=DIRECTION('',(1.,0.,0.));
#1284=DIRECTION('',(0.,-1.,0.));
#1285=DIRECTION('',(-1.25953845638074E-57,1.55740864212744E-26,1.));
#1286=DIRECTION('',(0.,-1.,1.55740864212744E-26));
#1287=DIRECTION('',(0.,0.,-1.));
#1288=DIRECTION('',(0.,1.,0.));
#1289=DIRECTION('',(-3.19330894433465E-27,-1.,1.55740864212744E-26));
#1290=DIRECTION('',(0.,-1.55740864212744E-26,-1.));
#1291=DIRECTION('',(0.,-1.,0.));
#1292=DIRECTION('',(-1.,0.,0.));
#1293=DIRECTION('',(-1.,3.19330894433465E-27,-2.31296463463574E-16));
#1294=DIRECTION('',(-2.31296463463574E-16,0.,1.));
#1295=DIRECTION('',(-1.,0.,0.));
#1296=DIRECTION('',(0.,1.,0.));
#1297=DIRECTION('',(1.25953845638074E-57,-1.55740864212744E-26,-1.));
#1298=DIRECTION('',(0.,1.,-1.55740864212744E-26));
#1299=DIRECTION('',(-0.707106781186548,-8.75453171030579E-27,-0.707106781186548));
#1300=DIRECTION('',(-0.707106781186548,1.32705525282312E-26,0.707106781186548));
#1301=DIRECTION('',(1.,0.,0.));
#1302=DIRECTION('',(0.,-1.,0.));
#1303=DIRECTION('',(1.,0.,0.));
#1304=DIRECTION('',(0.,-1.,0.));
#1305=DIRECTION('',(0.,0.,-1.));
#1306=DIRECTION('',(0.,1.,0.));
#1307=DIRECTION('',(0.,2.31296463463574E-15,-1.));
#1308=DIRECTION('',(0.,1.,2.31296463463574E-15));
#1309=DIRECTION('',(0.,1.,0.));
#1310=DIRECTION('',(1.,0.,0.));
#1311=DIRECTION('',(-1.,3.19330894433465E-27,-8.82964207525544E-17));
#1312=DIRECTION('',(-8.82964207525544E-17,0.,1.));
#1313=DIRECTION('',(-0.998937676069924,2.47223687074711E-27,-0.0460816593453273));
#1314=DIRECTION('',(-0.0460816593453251,1.57046946715373E-26,0.998937676069924));
#1315=DIRECTION('',(1.,-3.19330894433465E-27,2.31296463463574E-16));
#1316=DIRECTION('',(2.31296463463574E-16,0.,-1.));
#1317=DIRECTION('',(-1.,0.,0.));
#1318=DIRECTION('',(0.,1.,0.));
#1319=DIRECTION('',(3.19330894433465E-27,1.,-1.55740864212744E-26));
#1320=DIRECTION('',(0.,1.55740864212744E-26,1.));
#1321=DIRECTION('',(0.,-1.,0.));
#1322=DIRECTION('',(-1.,0.,0.));
#1323=DIRECTION('',(-1.25953845637147E-57,1.55740864212744E-26,1.));
#1324=DIRECTION('',(0.,-1.,1.55740864212744E-26));
#1325=DIRECTION('',(-0.707106781186548,1.32705525282312E-26,0.707106781186548));
#1326=DIRECTION('',(0.707106781186548,8.75453171030579E-27,0.707106781186548));
#1327=DIRECTION('',(-0.995752961343963,1.74591216438234E-27,-0.0920654113917342));
#1328=DIRECTION('',(-0.0920654113917342,0.,0.995752961343962));
#1329=DIRECTION('',(-0.673770950920365,-9.35676064270355E-27,-0.738940258543184));
#1330=DIRECTION('',(-0.738940258543184,1.28530315547129E-26,0.673770950920365));
#1331=DIRECTION('',(0.,0.,-1.));
#1332=DIRECTION('',(0.,1.,0.));
#1333=DIRECTION('',(0.,0.,-1.));
#1334=DIRECTION('',(0.,1.,0.));
#1335=DIRECTION('',(-1.,3.19330894433465E-27,-1.05846252734624E-16));
#1336=DIRECTION('',(-1.05846252734624E-16,0.,1.));
#1337=DIRECTION('',(-1.,0.,0.));
#1338=DIRECTION('',(0.,1.,0.));
#1339=DIRECTION('',(2.07558597076832E-59,-1.55740864212744E-26,-1.));
#1340=DIRECTION('',(0.,1.,-1.55740864212744E-26));
#1341=DIRECTION('',(0.535716215135721,-1.4861436231585E-26,-0.844398091447783));
#1342=DIRECTION('',(-0.844398091447783,-5.64686665380245E-27,-0.535716215135721));
#1343=DIRECTION('',(1.25953845637147E-57,-1.55740864212744E-26,-1.));
#1344=DIRECTION('',(0.,1.,-1.55740864212744E-26));
#1345=DIRECTION('',(0.707106781186548,-1.32705525282312E-26,-0.707106781186548));
#1346=DIRECTION('',(-0.707106781186548,-8.75453171030579E-27,-0.707106781186548));
#1347=DIRECTION('',(0.,0.,-1.));
#1348=DIRECTION('',(0.,1.,0.));
#1349=DIRECTION('',(0.,-2.31296463463574E-15,-1.));
#1350=DIRECTION('',(0.,1.,-2.31296463463574E-15));
#1351=DIRECTION('',(0.,1.,0.));
#1352=DIRECTION('',(1.,0.,0.));
#1353=DIRECTION('',(0.904715499236465,-9.5238503589721E-27,-0.426016273681316));
#1354=DIRECTION('',(-0.426016273681316,0.,-0.904715499236465));
#1355=DIRECTION('',(0.975888184997765,-6.51568463416527E-27,-0.218271047969646));
#1356=DIRECTION('',(0.218271047969645,1.45015600408851E-26,0.975888184997765));
#1357=DIRECTION('',(1.,-3.19330894433465E-27,1.05846252734624E-16));
#1358=DIRECTION('',(1.05846252734624E-16,0.,-1.));
#1359=DIRECTION('',(-1.,0.,0.));
#1360=DIRECTION('',(0.,1.,0.));
#1361=DIRECTION('',(3.19330894433465E-27,1.,-1.55740864212744E-26));
#1362=DIRECTION('',(0.,1.55740864212744E-26,1.));
#1363=DIRECTION('',(0.,-1.,0.));
#1364=DIRECTION('',(-1.,0.,0.));
#1365=DIRECTION('',(-8.63377052071894E-58,1.55740864212744E-26,1.));
#1366=DIRECTION('',(0.,-1.,1.55740864212744E-26));
#1367=DIRECTION('',(0.,0.,1.));
#1368=DIRECTION('',(0.,-1.,0.));
#1369=DIRECTION('',(1.,-3.19330894433465E-27,3.31081162872275E-53));
#1370=DIRECTION('',(-3.19330894433465E-27,-1.,0.));
#1371=DIRECTION('',(-1.,0.,0.));
#1372=DIRECTION('',(0.,1.,0.));
#1373=DIRECTION('',(0.,0.,-1.));
#1374=DIRECTION('',(0.,1.,0.));
#1375=DIRECTION('',(0.,0.,-1.));
#1376=DIRECTION('',(0.,1.,0.));
#1377=DIRECTION('',(0.,1.,0.));
#1378=DIRECTION('',(1.,0.,0.));
#1379=DIRECTION('',(0.,1.,0.));
#1380=DIRECTION('',(1.,0.,0.));
#1381=DIRECTION('',(8.63377052071894E-58,-1.55740864212744E-26,-1.));
#1382=DIRECTION('',(0.,1.,-1.55740864212744E-26));
#1383=DIRECTION('',(-2.25801040896269E-27,-0.707106781186548,-0.707106781186548));
#1384=DIRECTION('',(2.25801040896269E-27,0.707106781186548,-0.707106781186548));
#1385=DIRECTION('',(-3.19330894433465E-27,-1.,1.55740864212744E-26));
#1386=DIRECTION('',(0.,-1.55740864212744E-26,-1.));
#1387=CARTESIAN_POINT('',(0.,0.,0.));
#1388=CARTESIAN_POINT('',(-0.148635266244688,-0.723195367020017,0.0199953806971329));
#1389=CARTESIAN_POINT('',(-0.132139846682549,-0.723195367020017,0.0969953806971328));
#1390=CARTESIAN_POINT('',(-0.333282551288604,-0.723195367020017,0.0969953806971328));
#1391=CARTESIAN_POINT('',(-0.132810838660908,-0.723195367020017,0.0969953806971328));
#1392=CARTESIAN_POINT('',(-0.116085681530886,-0.723195367020017,0.0891197677300953));
#1393=CARTESIAN_POINT('',(-0.0801398466825487,-0.723195367020017,0.0721934404709997));
#1394=CARTESIAN_POINT('',(-0.0801398466825487,-0.723195367020017,0.0199953806971329));
#1395=CARTESIAN_POINT('',(-0.0801398466825487,-0.723195367020017,-0.0321840034526671));
#1396=CARTESIAN_POINT('',(-0.143271182281415,-0.723195367020017,-0.0380210058109373));
#1397=CARTESIAN_POINT('',(-0.132278238677713,-0.723195367020017,-0.0370046193028672));
#1398=CARTESIAN_POINT('',(-0.148635266244688,-0.723195367020017,-0.0370046193028672));
#1399=CARTESIAN_POINT('',(-0.213726202106322,-0.723195367020017,-0.0370046193028672));
#1400=CARTESIAN_POINT('',(-0.213726202106322,-0.723195367020017,0.0199953806971329));
#1401=CARTESIAN_POINT('',(-0.213726202106322,-0.723195367020017,-0.0570046193028671));
#1402=CARTESIAN_POINT('',(-0.148635266244688,-0.723195367020017,-0.0570046193028671));
#1403=CARTESIAN_POINT('',(-0.267726202106322,-0.723195367020017,-0.0570046193028672));
#1404=CARTESIAN_POINT('',(-0.267726202106322,-0.723195367020017,-0.0400046193028672));
#1405=CARTESIAN_POINT('',(-0.267726202106322,-0.723195367020017,-0.0370046193028672));
#1406=CARTESIAN_POINT('',(-0.148635266244688,-0.723195367020017,-0.0370046193028672));
#1407=CARTESIAN_POINT('',(-0.333282551288604,-0.723195367020017,-0.0370046193028672));
#1408=CARTESIAN_POINT('',(-0.333282551288604,-0.723195367020017,0.0999953806971328));
#1409=CARTESIAN_POINT('',(-0.255575472621131,-0.723195367020017,-0.0187117499304389));
#1410=CARTESIAN_POINT('',(-0.255575472621131,-0.723195367020017,-0.0164617499304389));
#1411=CARTESIAN_POINT('',(-0.225876983551543,-0.723195367020017,-0.0187116979701778));
#1412=CARTESIAN_POINT('',(-0.225876983551543,-0.723195367020017,-0.0164616979701778));
#1413=CARTESIAN_POINT('',(-0.225876931591282,-0.723195367020017,-0.0484101870397661));
#1414=CARTESIAN_POINT('',(-0.225876931591282,-0.723195367020017,-0.0461601870397661));
#1415=CARTESIAN_POINT('',(-0.25557542066087,-0.723195367020017,-0.0484102390000272));
#1416=CARTESIAN_POINT('',(-0.25557542066087,-0.723195367020017,-0.0461602390000272));
#1417=CARTESIAN_POINT('',(-0.240726202106206,-0.723195367020017,-0.0335609684851025));
#1418=CARTESIAN_POINT('',(-0.240726202106206,-0.723195367020017,-0.0235609684851025));
#1419=CARTESIAN_POINT('',(-0.218292712841849,-0.723195367020017,-0.00520461930286237));
#1420=CARTESIAN_POINT('',(-0.218292712841849,-0.723195367020017,-0.00785461930286237));
#1421=CARTESIAN_POINT('',(-0.258692712841894,-0.723195367020017,0.0651953806971376));
#1422=CARTESIAN_POINT('',(-0.258692712841894,-0.723195367020017,0.0625453806971376));
#1423=CARTESIAN_POINT('',(-0.298692712841895,-0.723195367020017,0.0299953806971376));
#1424=CARTESIAN_POINT('',(-0.298692712841896,-0.723195367020017,0.0501953806971376));
#1425=CARTESIAN_POINT('',(-0.298692712841895,-0.723195367020017,0.00979538069713762));
#1426=CARTESIAN_POINT('',(-0.238492712841871,-0.723195367020017,0.0097953806971359));
#1427=CARTESIAN_POINT('',(-0.178292712841848,-0.723195367020017,0.00979538069713418));
#1428=CARTESIAN_POINT('',(-0.178292712841849,-0.723195367020017,0.0299953806971342));
#1429=CARTESIAN_POINT('',(-0.17829271284185,-0.723195367020017,0.0501953806971341));
#1430=CARTESIAN_POINT('',(-0.238492712841872,-0.723195367020017,0.0501953806971359));
#1431=CARTESIAN_POINT('',(-0.0921398466825487,-0.723195367020017,-0.0150046193028672));
#1432=CARTESIAN_POINT('',(-0.0921398466825487,-0.723195367020017,-0.0123546193028672));
#1433=CARTESIAN_POINT('',(-0.117139846682549,-0.723195367020017,0.0549953806971328));
#1434=CARTESIAN_POINT('',(-0.117139846682549,-0.723195367020017,0.0576453806971328));
#1435=CARTESIAN_POINT('',(-0.117139846682549,-0.723195367020017,0.0199953806971329));
#1436=CARTESIAN_POINT('',(-0.117139846682549,-0.723195367020017,0.0226453806971329));
#1437=CARTESIAN_POINT('',(-0.0921398466825487,-0.723195367020017,0.0549953806971328));
#1438=CARTESIAN_POINT('',(-0.0921398466825487,-0.723195367020017,0.0576453806971328));
#1439=CARTESIAN_POINT('',(-0.0921398466825487,-0.723195367020017,0.0199953806971329));
#1440=CARTESIAN_POINT('',(-0.0921398466825487,-0.723195367020017,0.0226453806971329));
#1441=CARTESIAN_POINT('',(-0.117139846682549,-0.723195367020017,-0.0150046193028672));
#1442=CARTESIAN_POINT('',(-0.117139846682549,-0.723195367020017,-0.0123546193028672));
#1443=CARTESIAN_POINT('',(-0.258692712841894,-0.723195367020017,-0.00520461930286237));
#1444=CARTESIAN_POINT('',(-0.258692712841894,-0.723195367020017,-0.00785461930286237));
#1445=CARTESIAN_POINT('',(-0.218292712841849,-0.723195367020017,0.0651953806971376));
#1446=CARTESIAN_POINT('',(-0.218292712841849,-0.723195367020017,0.0625453806971376));
#1447=CARTESIAN_POINT('',(-0.148635266244688,-0.738195367020017,0.0199953806971329));
#1448=CARTESIAN_POINT('',(-0.255575472621131,-0.738195367020017,-0.0187117499304389));
#1449=CARTESIAN_POINT('',(-0.255575472621131,-0.738195367020017,-0.0209617499304388));
#1450=CARTESIAN_POINT('',(-0.225876983551543,-0.738195367020017,-0.0187116979701778));
#1451=CARTESIAN_POINT('',(-0.225876983551543,-0.738195367020017,-0.0209616979701778));
#1452=CARTESIAN_POINT('',(-0.225876931591282,-0.738195367020017,-0.0484101870397661));
#1453=CARTESIAN_POINT('',(-0.225876931591282,-0.738195367020017,-0.0506601870397661));
#1454=CARTESIAN_POINT('',(-0.25557542066087,-0.738195367020017,-0.0484102390000272));
#1455=CARTESIAN_POINT('',(-0.25557542066087,-0.738195367020017,-0.0506602390000272));
#1456=CARTESIAN_POINT('',(-0.240726202106206,-0.738195367020017,-0.0335609684851025));
#1457=CARTESIAN_POINT('',(-0.240726202106206,-0.738195367020017,-0.0435609684851025));
#1458=CARTESIAN_POINT('',(-0.258692712841894,-0.738195367020017,-0.00520461930286237));
#1459=CARTESIAN_POINT('',(-0.258692712841894,-0.738195367020017,-0.00785461930286237));
#1460=CARTESIAN_POINT('',(-0.258692712841894,-0.738195367020017,0.0651953806971376));
#1461=CARTESIAN_POINT('',(-0.258692712841894,-0.738195367020017,0.0625453806971376));
#1462=CARTESIAN_POINT('',(-0.213726202106322,-0.738195367020017,-0.0400046193028672));
#1463=CARTESIAN_POINT('',(-0.213726202106322,-0.738195367020017,-0.0570046193028672));
#1464=CARTESIAN_POINT('',(-0.213726202106322,-0.738195367020017,-0.0400046193028672));
#1465=CARTESIAN_POINT('',(-0.171433024394435,-0.738195367020017,-0.0400046193028672));
#1466=CARTESIAN_POINT('',(-0.132139846682549,-0.738195367020017,-0.0400046193028672));
#1467=CARTESIAN_POINT('',(-0.0709017873741687,-0.738195367020017,-0.0343426656437508));
#1468=CARTESIAN_POINT('',(-0.0771398466825487,-0.738195367020017,-0.0349194246580919));
#1469=CARTESIAN_POINT('',(-0.0771398466825487,-0.738195367020017,0.0195886613159563));
#1470=CARTESIAN_POINT('',(-0.0771398466825487,-0.738195367020017,0.0740967472900044));
#1471=CARTESIAN_POINT('',(-0.0709017873741687,-0.738195367020017,0.0711593434500107));
#1472=CARTESIAN_POINT('',(-0.132139846682549,-0.738195367020017,0.0999953806971328));
#1473=CARTESIAN_POINT('',(-0.234211198985577,-0.738195367020017,0.0999953806971328));
#1474=CARTESIAN_POINT('',(-0.333282551288604,-0.738195367020017,0.0999953806971328));
#1475=CARTESIAN_POINT('',(-0.333282551288604,-0.738195367020017,0.0199953806971329));
#1476=CARTESIAN_POINT('',(-0.333282551288604,-0.738195367020017,-0.0370046193028672));
#1477=CARTESIAN_POINT('',(-0.270726202106322,-0.738195367020017,-0.0370046193028672));
#1478=CARTESIAN_POINT('',(-0.267726202106322,-0.738195367020017,-0.0370046193028672));
#1479=CARTESIAN_POINT('',(-0.267726202106322,-0.738195367020017,0.0199953806971329));
#1480=CARTESIAN_POINT('',(-0.267726202106322,-0.738195367020017,-0.0570046193028672));
#1481=CARTESIAN_POINT('',(-0.210726202106322,-0.738195367020017,-0.0570046193028672));
#1482=CARTESIAN_POINT('',(-0.298692712841895,-0.738195367020017,0.0299953806971376));
#1483=CARTESIAN_POINT('',(-0.298692712841896,-0.738195367020017,0.0501953806971376));
#1484=CARTESIAN_POINT('',(-0.298692712841895,-0.738195367020017,0.00979538069713762));
#1485=CARTESIAN_POINT('',(-0.238492712841872,-0.738195367020017,0.0501953806971359));
#1486=CARTESIAN_POINT('',(-0.17829271284185,-0.738195367020017,0.0501953806971341));
#1487=CARTESIAN_POINT('',(-0.178292712841849,-0.738195367020017,0.0299953806971342));
#1488=CARTESIAN_POINT('',(-0.178292712841848,-0.738195367020017,0.00979538069713418));
#1489=CARTESIAN_POINT('',(-0.238492712841871,-0.738195367020017,0.0097953806971359));
#1490=CARTESIAN_POINT('',(-0.0921398466825487,-0.738195367020017,-0.0150046193028672));
#1491=CARTESIAN_POINT('',(-0.0921398466825487,-0.738195367020017,-0.0123546193028672));
#1492=CARTESIAN_POINT('',(-0.117139846682549,-0.738195367020017,0.0549953806971328));
#1493=CARTESIAN_POINT('',(-0.117139846682549,-0.738195367020017,0.0576453806971328));
#1494=CARTESIAN_POINT('',(-0.117139846682549,-0.738195367020017,0.0199953806971329));
#1495=CARTESIAN_POINT('',(-0.117139846682549,-0.738195367020017,0.0226453806971329));
#1496=CARTESIAN_POINT('',(-0.0921398466825487,-0.738195367020017,0.0549953806971328));
#1497=CARTESIAN_POINT('',(-0.0921398466825487,-0.738195367020017,0.0576453806971328));
#1498=CARTESIAN_POINT('',(-0.0921398466825487,-0.738195367020017,0.0199953806971329));
#1499=CARTESIAN_POINT('',(-0.0921398466825487,-0.738195367020017,0.0226453806971329));
#1500=CARTESIAN_POINT('',(-0.117139846682549,-0.738195367020017,-0.0150046193028672));
#1501=CARTESIAN_POINT('',(-0.117139846682549,-0.738195367020017,-0.0123546193028672));
#1502=CARTESIAN_POINT('',(-0.218292712841849,-0.738195367020017,-0.00520461930286237));
#1503=CARTESIAN_POINT('',(-0.218292712841849,-0.738195367020017,-0.00785461930286237));
#1504=CARTESIAN_POINT('',(-0.218292712841849,-0.738195367020017,0.0651953806971376));
#1505=CARTESIAN_POINT('',(-0.218292712841849,-0.738195367020017,0.0625453806971376));
#1506=CARTESIAN_POINT('',(-0.298692712841895,-0.723195367020017,0.0299953806971376));
#1507=CARTESIAN_POINT('',(-0.298692712841895,-0.723195367020017,0.00979538069713762));
#1508=CARTESIAN_POINT('',(-0.298692712841896,-0.723195367020017,0.0501953806971376));
#1509=CARTESIAN_POINT('',(-0.238492712841872,-0.723195367020017,0.0501953806971359));
#1510=CARTESIAN_POINT('',(-0.17829271284185,-0.723195367020017,0.0501953806971341));
#1511=CARTESIAN_POINT('',(-0.178292712841849,-0.723195367020017,0.0299953806971342));
#1512=CARTESIAN_POINT('',(-0.178292712841848,-0.723195367020017,0.00979538069713418));
#1513=CARTESIAN_POINT('',(-0.210726202106322,-0.723195367020017,-0.0500046193028672));
#1514=CARTESIAN_POINT('',(-0.210726202106322,-0.723195367020017,-0.0400046193028672));
#1515=CARTESIAN_POINT('',(-0.210726202106322,-0.726195367020017,-0.0400046193028672));
#1516=CARTESIAN_POINT('',(-0.210726202106322,-0.735195367020017,-0.0400046193028672));
#1517=CARTESIAN_POINT('',(-0.210726202106322,-0.735195367020017,-0.0600046193028672));
#1518=CARTESIAN_POINT('',(-0.210726202106322,-0.735195367020017,-0.0570046193028672));
#1519=CARTESIAN_POINT('',(-0.210726202106322,-0.723195367020017,-0.0570046193028672));
#1520=CARTESIAN_POINT('',(-0.210726202106322,-0.726195367020017,-0.0570046193028672));
#1521=CARTESIAN_POINT('',(-0.210726202106322,-0.726195367020017,-0.0500046193028672));
#1522=CARTESIAN_POINT('',(-0.171433024394435,-0.723195367020017,-0.0400046193028672));
#1523=CARTESIAN_POINT('',(-0.171433024394435,-0.726195367020017,-0.0400046193028672));
#1524=CARTESIAN_POINT('',(-0.132139846682549,-0.726195367020017,-0.0400046193028672));
#1525=CARTESIAN_POINT('',(-0.132139846682549,-0.723195367020017,-0.0400046193028672));
#1526=CARTESIAN_POINT('',(-0.213726202106322,-0.735195367020017,-0.0400046193028672));
#1527=CARTESIAN_POINT('',(-0.0709017873741687,-0.723195367020017,-0.0343426656437508));
#1528=CARTESIAN_POINT('',(-0.0709017873741687,-0.726195367020017,-0.0343426656437508));
#1529=CARTESIAN_POINT('',(-0.0771398466825487,-0.726195367020017,-0.0349194246580919));
#1530=CARTESIAN_POINT('',(-0.0771398466825487,-0.723195367020017,-0.0349194246580919));
#1531=CARTESIAN_POINT('',(-0.0771398466825487,-0.723195367020017,0.0195886613159563));
#1532=CARTESIAN_POINT('',(-0.0771398466825487,-0.726195367020017,0.0195886613159563));
#1533=CARTESIAN_POINT('',(-0.0771398466825487,-0.726195367020017,0.0740967472900044));
#1534=CARTESIAN_POINT('',(-0.0771398466825487,-0.723195367020017,0.0740967472900044));
#1535=CARTESIAN_POINT('',(-0.0709017873741687,-0.723195367020017,0.0711593434500107));
#1536=CARTESIAN_POINT('',(-0.0709017873741687,-0.726195367020017,0.0711593434500107));
#1537=CARTESIAN_POINT('',(-0.132139846682549,-0.726195367020017,0.0999953806971328));
#1538=CARTESIAN_POINT('',(-0.132139846682549,-0.723195367020017,0.0999953806971328));
#1539=CARTESIAN_POINT('',(-0.234211198985577,-0.723195367020017,0.0999953806971328));
#1540=CARTESIAN_POINT('',(-0.336282551288604,-0.726195367020017,0.0999953806971328));
#1541=CARTESIAN_POINT('',(-0.333282551288604,-0.726195367020017,0.0999953806971328));
#1542=CARTESIAN_POINT('',(-0.333282551288604,-0.723195367020017,0.0999953806971328));
#1543=CARTESIAN_POINT('',(-0.336282551288604,-0.723195367020017,0.083849162632367));
#1544=CARTESIAN_POINT('',(-0.336282551288604,-0.738195367020017,-0.0370046193028672));
#1545=CARTESIAN_POINT('',(-0.336282551288604,-0.726195367020017,-0.0370046193028672));
#1546=CARTESIAN_POINT('',(-0.336282551288604,-0.735195367020017,-0.0370046193028672));
#1547=CARTESIAN_POINT('',(-0.336282551288604,-0.735195367020017,0.083849162632367));
#1548=CARTESIAN_POINT('',(-0.336282551288604,-0.735195367020017,0.0969953806971328));
#1549=CARTESIAN_POINT('',(-0.336282551288604,-0.723195367020017,0.0969953806971328));
#1550=CARTESIAN_POINT('',(-0.336282551288604,-0.726195367020017,0.0969953806971328));
#1551=CARTESIAN_POINT('',(-0.336282551288604,-0.726195367020017,-0.0400046193028672));
#1552=CARTESIAN_POINT('',(-0.303504376697463,-0.723195367020017,-0.0400046193028672));
#1553=CARTESIAN_POINT('',(-0.270726202106322,-0.723195367020017,-0.0400046193028672));
#1554=CARTESIAN_POINT('',(-0.270726202106322,-0.726195367020017,-0.0400046193028672));
#1555=CARTESIAN_POINT('',(-0.270726202106322,-0.735195367020017,-0.0400046193028672));
#1556=CARTESIAN_POINT('',(-0.336282551288604,-0.735195367020017,-0.0400046193028672));
#1557=CARTESIAN_POINT('',(-0.333282551288604,-0.735195367020017,-0.0400046193028672));
#1558=CARTESIAN_POINT('',(-0.333282551288604,-0.723195367020017,-0.0400046193028672));
#1559=CARTESIAN_POINT('',(-0.333282551288604,-0.726195367020017,-0.0400046193028672));
#1560=CARTESIAN_POINT('',(-0.303504376697463,-0.726195367020017,-0.0400046193028672));
#1561=CARTESIAN_POINT('',(-0.270726202106322,-0.723195367020017,-0.0500046193028672));
#1562=CARTESIAN_POINT('',(-0.270726202106322,-0.738195367020017,-0.0570046193028672));
#1563=CARTESIAN_POINT('',(-0.270726202106322,-0.726195367020017,-0.0570046193028672));
#1564=CARTESIAN_POINT('',(-0.270726202106322,-0.735195367020017,-0.0570046193028672));
#1565=CARTESIAN_POINT('',(-0.270726202106322,-0.735195367020017,-0.0500046193028672));
#1566=CARTESIAN_POINT('',(-0.270726202106322,-0.726195367020017,-0.0600046193028672));
#1567=CARTESIAN_POINT('',(-0.0921398466825487,-0.723195367020017,0.0199953806971329));
#1568=CARTESIAN_POINT('',(-0.0921398466825487,-0.723195367020017,0.0549953806971328));
#1569=CARTESIAN_POINT('',(-0.117139846682549,-0.723195367020017,0.0199953806971329));
#1570=CARTESIAN_POINT('',(-0.117139846682549,-0.723195367020017,0.0549953806971328));
#1571=CARTESIAN_POINT('',(-0.0921398466825487,-0.723195367020017,-0.0150046193028672));
#1572=CARTESIAN_POINT('',(-0.238492712841871,-0.723195367020017,0.0097953806971359));
#1573=CARTESIAN_POINT('',(-0.240726202106322,-0.723195367020017,-0.0600046193028672));
#1574=CARTESIAN_POINT('',(-0.240726202106322,-0.726195367020017,-0.0600046193028672));
#1575=CARTESIAN_POINT('',(-0.267726202106322,-0.726195367020017,-0.0600046193028672));
#1576=CARTESIAN_POINT('',(-0.213726202106322,-0.726195367020017,-0.0600046193028672));
#1577=CARTESIAN_POINT('',(-0.213726202106322,-0.723195367020017,-0.0600046193028672));
#1578=CARTESIAN_POINT('',(-0.213726202106322,-0.735195367020017,-0.0600046193028672));
#1579=CARTESIAN_POINT('',(-0.270726202106322,-0.735195367020017,-0.0600046193028672));
#1580=CARTESIAN_POINT('',(-0.267726202106322,-0.735195367020017,-0.0600046193028672));
#1581=CARTESIAN_POINT('',(-0.267726202106322,-0.723195367020017,-0.0600046193028672));
#1582=CARTESIAN_POINT('',(-0.117139846682549,-0.723195367020017,-0.0150046193028672));
#1583=CARTESIAN_POINT('',(-0.258692712841894,-0.718195367020017,0.0651953806971376));
#1584=CARTESIAN_POINT('',(-0.218292712841849,-0.718195367020017,-0.00520461930286237));
#1585=CARTESIAN_POINT('',(-0.258692712841894,-0.718195367020017,-0.00520461930286237));
#1586=CARTESIAN_POINT('',(-0.218292712841849,-0.718195367020017,0.0651953806971376));
#1587=CARTESIAN_POINT('',(-0.240726202106206,0.192715109099487,-0.0335609684851025));
#1588=CARTESIAN_POINT('',(-0.25557542066087,0.192715109099487,-0.0484102390000272));
#1589=CARTESIAN_POINT('',(-0.225876931591282,0.192715109099487,-0.0484101870397661));
#1590=CARTESIAN_POINT('',(-0.225876983551543,0.192715109099487,-0.0187116979701778));
#1591=CARTESIAN_POINT('',(-0.255575472621131,0.192715109099487,-0.0187117499304389));
#1592=CARTESIAN_POINT('',(-0.213726202106322,-0.726195367020017,-0.0570046193028672));
#1593=CARTESIAN_POINT('',(-0.213726202106322,-0.726195367020017,-0.0570046193028671));
#1594=CARTESIAN_POINT('',(-0.213726202106322,-0.726195367020017,-0.0570046193028672));
#1595=CARTESIAN_POINT('',(-0.213726202106322,-0.726195367020017,-0.0570046193028672));
#1596=CARTESIAN_POINT('',(-0.213726202106322,-0.735195367020017,-0.0500046193028672));
#1597=CARTESIAN_POINT('',(-0.213726202106322,-0.735195367020017,-0.0570046193028672));
#1598=CARTESIAN_POINT('',(-0.213726202106322,-0.723195367020017,-0.0570046193028672));
#1599=CARTESIAN_POINT('',(-0.213726202106322,-0.735195367020017,-0.0570046193028672));
#1600=CARTESIAN_POINT('',(-0.148635266244688,-0.726195367020017,-0.0570046193028671));
#1601=CARTESIAN_POINT('',(-0.267726202106322,-0.726195367020017,-0.0570046193028672));
#1602=CARTESIAN_POINT('',(-0.213726202106322,-0.726195367020017,0.0199953806971329));
#1603=CARTESIAN_POINT('',(-0.213726202106322,-0.726195367020017,-0.0370046193028672));
#1604=CARTESIAN_POINT('',(-0.213726202106322,-0.735195367020017,-0.0570046193028672));
#1605=CARTESIAN_POINT('',(-0.213726202106322,-0.735195367020017,-0.0570046193028672));
#1606=CARTESIAN_POINT('',(-0.267726202106322,-0.726195367020017,-0.0570046193028672));
#1607=CARTESIAN_POINT('',(-0.267726202106322,-0.726195367020017,-0.0570046193028672));
#1608=CARTESIAN_POINT('',(-0.267726202106322,-0.726195367020017,-0.0570046193028672));
#1609=CARTESIAN_POINT('',(-0.148635266244688,-0.726195367020017,-0.0370046193028672));
#1610=CARTESIAN_POINT('',(-0.132278238677713,-0.726195367020017,-0.0370046193028672));
#1611=CARTESIAN_POINT('',(-0.240726202106322,-0.735195367020017,-0.0570046193028672));
#1612=CARTESIAN_POINT('',(-0.267726202106322,-0.735195367020017,-0.0570046193028672));
#1613=CARTESIAN_POINT('',(-0.267726202106322,-0.723195367020017,-0.0570046193028672));
#1614=CARTESIAN_POINT('',(-0.267726202106322,-0.735195367020017,-0.0570046193028672));
#1615=CARTESIAN_POINT('',(-0.267726202106322,-0.726195367020017,-0.0500046193028672));
#1616=CARTESIAN_POINT('',(-0.267726202106322,-0.726195367020017,-0.0370046193028672));
#1617=CARTESIAN_POINT('',(-0.143271182281415,-0.726195367020017,-0.0380210058109373));
#1618=CARTESIAN_POINT('',(-0.0801398466825487,-0.726195367020017,-0.0321840034526671));
#1619=CARTESIAN_POINT('',(-0.267726202106322,-0.735195367020017,-0.0570046193028672));
#1620=CARTESIAN_POINT('',(-0.267726202106322,-0.735195367020017,-0.0570046193028672));
#1621=CARTESIAN_POINT('',(-0.148635266244688,-0.726195367020017,-0.0370046193028672));
#1622=CARTESIAN_POINT('',(-0.333282551288604,-0.726195367020017,-0.0370046193028672));
#1623=CARTESIAN_POINT('',(-0.0801398466825487,-0.726195367020017,0.0199953806971329));
#1624=CARTESIAN_POINT('',(-0.0801398466825487,-0.726195367020017,0.0721934404709997));
#1625=CARTESIAN_POINT('',(-0.267726202106322,-0.735195367020017,0.0199953806971329));
#1626=CARTESIAN_POINT('',(-0.267726202106322,-0.735195367020017,-0.0370046193028672));
#1627=CARTESIAN_POINT('',(-0.333282551288604,-0.726195367020017,-0.0370046193028672));
#1628=CARTESIAN_POINT('',(-0.333282551288604,-0.726195367020017,-0.0370046193028672));
#1629=CARTESIAN_POINT('',(-0.333282551288604,-0.726195367020017,-0.0370046193028672));
#1630=CARTESIAN_POINT('',(-0.116085681530886,-0.726195367020017,0.0891197677300953));
#1631=CARTESIAN_POINT('',(-0.132810838660908,-0.726195367020017,0.0969953806971329));
#1632=CARTESIAN_POINT('',(-0.303504376697463,-0.735195367020017,-0.0370046193028672));
#1633=CARTESIAN_POINT('',(-0.333282551288604,-0.735195367020017,-0.0370046193028672));
#1634=CARTESIAN_POINT('',(-0.333282551288604,-0.723195367020017,-0.0370046193028672));
#1635=CARTESIAN_POINT('',(-0.333282551288604,-0.735195367020017,-0.0370046193028672));
#1636=CARTESIAN_POINT('',(-0.333282551288604,-0.726195367020017,0.083849162632367));
#1637=CARTESIAN_POINT('',(-0.333282551288604,-0.726195367020017,0.0969953806971328));
#1638=CARTESIAN_POINT('',(-0.234211198985577,-0.726195367020017,0.0969953806971328));
#1639=CARTESIAN_POINT('',(-0.333282551288604,-0.726195367020017,0.0969953806971328));
#1640=CARTESIAN_POINT('',(-0.333282551288604,-0.735195367020017,-0.0370046193028672));
#1641=CARTESIAN_POINT('',(-0.333282551288604,-0.735195367020017,-0.0370046193028672));
#1642=CARTESIAN_POINT('',(-0.333282551288604,-0.726195367020017,0.0969953806971328));
#1643=CARTESIAN_POINT('',(-0.333282551288604,-0.726195367020017,0.0969953806971328));
#1644=CARTESIAN_POINT('',(-0.333282551288604,-0.735195367020017,0.0199953806971329));
#1645=CARTESIAN_POINT('',(-0.333282551288604,-0.735195367020017,0.0969953806971328));
#1646=CARTESIAN_POINT('',(-0.333282551288604,-0.723195367020017,0.0969953806971328));
#1647=MECHANICAL_DESIGN_GEOMETRIC_PRESENTATION_REPRESENTATION('',(#961),
#1648);
#1648=(
GEOMETRIC_REPRESENTATION_CONTEXT(3)
GLOBAL_UNCERTAINTY_ASSIGNED_CONTEXT((#1649))
GLOBAL_UNIT_ASSIGNED_CONTEXT((#1652,#1651,#1650))
REPRESENTATION_CONTEXT('GantryUpper-Right','TOP_LEVEL_ASSEMBLY_PART')
);
#1649=UNCERTAINTY_MEASURE_WITH_UNIT(LENGTH_MEASURE(1.E-8),#1652,
'DISTANCE_ACCURACY_VALUE','Maximum Tolerance applied to model');
#1650=(
NAMED_UNIT(*)
SI_UNIT($,.STERADIAN.)
SOLID_ANGLE_UNIT()
);
#1651=(
NAMED_UNIT(*)
PLANE_ANGLE_UNIT()
SI_UNIT($,.RADIAN.)
);
#1652=(
LENGTH_UNIT()
NAMED_UNIT(*)
SI_UNIT($,.METRE.)
);
#1653=PRODUCT_DEFINITION_SHAPE('','',#1654);
#1654=PRODUCT_DEFINITION('','',#1656,#1655);
#1655=PRODUCT_DEFINITION_CONTEXT('',#1662,'design');
#1656=PRODUCT_DEFINITION_FORMATION_WITH_SPECIFIED_SOURCE('','',#1658,
 .NOT_KNOWN.);
#1657=PRODUCT_RELATED_PRODUCT_CATEGORY('','',(#1658));
#1658=PRODUCT('GantryUpper-Right','GantryUpper-Right',
'GantryUpper-Right',(#1660));
#1659=PRODUCT_CATEGORY('','');
#1660=PRODUCT_CONTEXT('',#1662,'mechanical');
#1661=APPLICATION_PROTOCOL_DEFINITION('international standard',
'ap242_managed_model_based_3d_engineering',2020,#1662);
#1662=APPLICATION_CONTEXT('managed model based 3d engineering');
ENDSEC;
END-ISO-10303-21;
