ISO-10303-21;
HEADER;
/* Generated by software containing ST-Developer
 * from STEP Tools, Inc. (www.steptools.com) 
 */
/* OPTION: using custom renumber hook */

FILE_DESCRIPTION(
/* description */ ('STEP AP242 Edition 2',
'CAx-IF Rec.Pracs.---Representation and Presentation of Product Manufa
cturing Information (PMI)---4.0---2014-10-13',
'CAx-IF Rec.Pracs.---3D Tessellated Geometry---0.4---2014-09-14','2;1',
'CAx-IF Rec.Pracs.---User Defined Attributes---1.5---2016-08-15'),
/* implementation_level */ '2;1');

FILE_NAME(
/* name */ 'Router - SpindleHolder',
/* time_stamp */ '2026-08-01T11:31:46Z',
/* author */ (''),
/* organization */ (''),
/* preprocessor_version */ 'ST-DEVELOPER v20',
/* originating_system */ 'ONSHAPE BY PTC INC, 1.218',
/* authorisation */ '  ');

FILE_SCHEMA (('AP242_MANAGED_MODEL_BASED_3D_ENGINEERING_MIM_LF { 1 0 10303 442 3 1 4 }'));
ENDSEC;

DATA;
#10=SHAPE_REPRESENTATION_RELATIONSHIP('','',#815,#11);
#11=ADVANCED_BREP_SHAPE_REPRESENTATION('',(#813),#1413);
#12=ELLIPSE('',#922,0.00424264068711928,0.003);
#13=ELLIPSE('',#923,0.00424264068711928,0.003);
#14=ELLIPSE('',#925,0.00424264068711928,0.003);
#15=ELLIPSE('',#927,0.00424264068711928,0.003);
#16=ELLIPSE('',#930,0.00424264068711928,0.003);
#17=ELLIPSE('',#931,0.00424264068711928,0.003);
#18=ELLIPSE('',#933,0.00424264068711928,0.003);
#19=ELLIPSE('',#935,0.00424264068711928,0.003);
#20=LINE('',#1271,#40);
#21=LINE('',#1274,#41);
#22=LINE('',#1276,#42);
#23=LINE('',#1278,#43);
#24=LINE('',#1280,#44);
#25=LINE('',#1283,#45);
#26=LINE('',#1285,#46);
#27=LINE('',#1287,#47);
#28=LINE('',#1289,#48);
#29=LINE('',#1292,#49);
#30=LINE('',#1294,#50);
#31=LINE('',#1296,#51);
#32=LINE('',#1298,#52);
#33=LINE('',#1301,#53);
#34=LINE('',#1303,#54);
#35=LINE('',#1305,#55);
#36=LINE('',#1335,#56);
#37=LINE('',#1336,#57);
#38=LINE('',#1338,#58);
#39=LINE('',#1339,#59);
#40=VECTOR('',#1025,1.);
#41=VECTOR('',#1026,1.);
#42=VECTOR('',#1027,1.);
#43=VECTOR('',#1028,1.);
#44=VECTOR('',#1031,1.);
#45=VECTOR('',#1032,1.);
#46=VECTOR('',#1033,1.);
#47=VECTOR('',#1034,1.);
#48=VECTOR('',#1037,1.);
#49=VECTOR('',#1038,1.);
#50=VECTOR('',#1039,1.);
#51=VECTOR('',#1040,1.);
#52=VECTOR('',#1043,1.);
#53=VECTOR('',#1044,1.);
#54=VECTOR('',#1045,1.);
#55=VECTOR('',#1046,1.);
#56=VECTOR('',#1077,1.);
#57=VECTOR('',#1078,1.);
#58=VECTOR('',#1081,1.);
#59=VECTOR('',#1082,1.);
#60=PLANE('',#859);
#61=PLANE('',#860);
#62=PLANE('',#861);
#63=PLANE('',#862);
#64=PLANE('',#863);
#65=PLANE('',#878);
#66=PLANE('',#881);
#67=PLANE('',#884);
#68=PLANE('',#887);
#69=PLANE('',#890);
#70=PLANE('',#893);
#71=PLANE('',#896);
#72=PLANE('',#899);
#73=PLANE('',#902);
#74=PLANE('',#905);
#75=PLANE('',#908);
#76=PLANE('',#911);
#77=PLANE('',#914);
#78=PLANE('',#917);
#79=PLANE('',#920);
#80=ORIENTED_EDGE('',*,*,#248,.F.);
#81=ORIENTED_EDGE('',*,*,#249,.T.);
#82=ORIENTED_EDGE('',*,*,#250,.F.);
#83=ORIENTED_EDGE('',*,*,#251,.T.);
#84=ORIENTED_EDGE('',*,*,#252,.F.);
#85=ORIENTED_EDGE('',*,*,#253,.T.);
#86=ORIENTED_EDGE('',*,*,#254,.F.);
#87=ORIENTED_EDGE('',*,*,#255,.T.);
#88=ORIENTED_EDGE('',*,*,#256,.F.);
#89=ORIENTED_EDGE('',*,*,#257,.T.);
#90=ORIENTED_EDGE('',*,*,#258,.F.);
#91=ORIENTED_EDGE('',*,*,#259,.T.);
#92=ORIENTED_EDGE('',*,*,#260,.F.);
#93=ORIENTED_EDGE('',*,*,#261,.T.);
#94=ORIENTED_EDGE('',*,*,#262,.F.);
#95=ORIENTED_EDGE('',*,*,#263,.T.);
#96=ORIENTED_EDGE('',*,*,#264,.F.);
#97=ORIENTED_EDGE('',*,*,#265,.T.);
#98=ORIENTED_EDGE('',*,*,#266,.F.);
#99=ORIENTED_EDGE('',*,*,#267,.T.);
#100=ORIENTED_EDGE('',*,*,#268,.F.);
#101=ORIENTED_EDGE('',*,*,#269,.T.);
#102=ORIENTED_EDGE('',*,*,#270,.F.);
#103=ORIENTED_EDGE('',*,*,#271,.T.);
#104=ORIENTED_EDGE('',*,*,#272,.F.);
#105=ORIENTED_EDGE('',*,*,#273,.T.);
#106=ORIENTED_EDGE('',*,*,#274,.F.);
#107=ORIENTED_EDGE('',*,*,#275,.T.);
#108=ORIENTED_EDGE('',*,*,#276,.F.);
#109=ORIENTED_EDGE('',*,*,#277,.T.);
#110=ORIENTED_EDGE('',*,*,#278,.T.);
#111=ORIENTED_EDGE('',*,*,#279,.T.);
#112=ORIENTED_EDGE('',*,*,#280,.T.);
#113=ORIENTED_EDGE('',*,*,#281,.T.);
#114=ORIENTED_EDGE('',*,*,#282,.T.);
#115=ORIENTED_EDGE('',*,*,#283,.T.);
#116=ORIENTED_EDGE('',*,*,#284,.F.);
#117=ORIENTED_EDGE('',*,*,#285,.T.);
#118=ORIENTED_EDGE('',*,*,#286,.T.);
#119=ORIENTED_EDGE('',*,*,#287,.T.);
#120=ORIENTED_EDGE('',*,*,#288,.T.);
#121=ORIENTED_EDGE('',*,*,#289,.T.);
#122=ORIENTED_EDGE('',*,*,#290,.T.);
#123=ORIENTED_EDGE('',*,*,#291,.T.);
#124=ORIENTED_EDGE('',*,*,#292,.F.);
#125=ORIENTED_EDGE('',*,*,#293,.F.);
#126=ORIENTED_EDGE('',*,*,#294,.F.);
#127=ORIENTED_EDGE('',*,*,#295,.F.);
#128=ORIENTED_EDGE('',*,*,#296,.F.);
#129=ORIENTED_EDGE('',*,*,#297,.F.);
#130=ORIENTED_EDGE('',*,*,#298,.F.);
#131=ORIENTED_EDGE('',*,*,#299,.F.);
#132=ORIENTED_EDGE('',*,*,#300,.F.);
#133=ORIENTED_EDGE('',*,*,#301,.F.);
#134=ORIENTED_EDGE('',*,*,#302,.F.);
#135=ORIENTED_EDGE('',*,*,#303,.F.);
#136=ORIENTED_EDGE('',*,*,#304,.F.);
#137=ORIENTED_EDGE('',*,*,#305,.F.);
#138=ORIENTED_EDGE('',*,*,#284,.T.);
#139=ORIENTED_EDGE('',*,*,#306,.T.);
#140=ORIENTED_EDGE('',*,*,#278,.F.);
#141=ORIENTED_EDGE('',*,*,#307,.T.);
#142=ORIENTED_EDGE('',*,*,#276,.T.);
#143=ORIENTED_EDGE('',*,*,#308,.T.);
#144=ORIENTED_EDGE('',*,*,#286,.F.);
#145=ORIENTED_EDGE('',*,*,#309,.T.);
#146=ORIENTED_EDGE('',*,*,#272,.T.);
#147=ORIENTED_EDGE('',*,*,#270,.T.);
#148=ORIENTED_EDGE('',*,*,#268,.T.);
#149=ORIENTED_EDGE('',*,*,#266,.T.);
#150=ORIENTED_EDGE('',*,*,#258,.T.);
#151=ORIENTED_EDGE('',*,*,#256,.T.);
#152=ORIENTED_EDGE('',*,*,#254,.T.);
#153=ORIENTED_EDGE('',*,*,#252,.T.);
#154=ORIENTED_EDGE('',*,*,#250,.T.);
#155=ORIENTED_EDGE('',*,*,#248,.T.);
#156=ORIENTED_EDGE('',*,*,#264,.T.);
#157=ORIENTED_EDGE('',*,*,#262,.T.);
#158=ORIENTED_EDGE('',*,*,#260,.T.);
#159=ORIENTED_EDGE('',*,*,#274,.T.);
#160=ORIENTED_EDGE('',*,*,#310,.F.);
#161=ORIENTED_EDGE('',*,*,#305,.T.);
#162=ORIENTED_EDGE('',*,*,#263,.F.);
#163=ORIENTED_EDGE('',*,*,#310,.T.);
#164=ORIENTED_EDGE('',*,*,#311,.F.);
#165=ORIENTED_EDGE('',*,*,#304,.T.);
#166=ORIENTED_EDGE('',*,*,#271,.F.);
#167=ORIENTED_EDGE('',*,*,#311,.T.);
#168=ORIENTED_EDGE('',*,*,#312,.F.);
#169=ORIENTED_EDGE('',*,*,#303,.T.);
#170=ORIENTED_EDGE('',*,*,#275,.F.);
#171=ORIENTED_EDGE('',*,*,#312,.T.);
#172=ORIENTED_EDGE('',*,*,#313,.F.);
#173=ORIENTED_EDGE('',*,*,#302,.T.);
#174=ORIENTED_EDGE('',*,*,#261,.F.);
#175=ORIENTED_EDGE('',*,*,#313,.T.);
#176=ORIENTED_EDGE('',*,*,#314,.F.);
#177=ORIENTED_EDGE('',*,*,#301,.T.);
#178=ORIENTED_EDGE('',*,*,#273,.F.);
#179=ORIENTED_EDGE('',*,*,#314,.T.);
#180=ORIENTED_EDGE('',*,*,#315,.F.);
#181=ORIENTED_EDGE('',*,*,#300,.T.);
#182=ORIENTED_EDGE('',*,*,#265,.F.);
#183=ORIENTED_EDGE('',*,*,#315,.T.);
#184=ORIENTED_EDGE('',*,*,#316,.F.);
#185=ORIENTED_EDGE('',*,*,#299,.T.);
#186=ORIENTED_EDGE('',*,*,#269,.F.);
#187=ORIENTED_EDGE('',*,*,#316,.T.);
#188=ORIENTED_EDGE('',*,*,#317,.F.);
#189=ORIENTED_EDGE('',*,*,#298,.T.);
#190=ORIENTED_EDGE('',*,*,#267,.F.);
#191=ORIENTED_EDGE('',*,*,#317,.T.);
#192=ORIENTED_EDGE('',*,*,#318,.F.);
#193=ORIENTED_EDGE('',*,*,#297,.T.);
#194=ORIENTED_EDGE('',*,*,#257,.F.);
#195=ORIENTED_EDGE('',*,*,#318,.T.);
#196=ORIENTED_EDGE('',*,*,#319,.F.);
#197=ORIENTED_EDGE('',*,*,#296,.T.);
#198=ORIENTED_EDGE('',*,*,#249,.F.);
#199=ORIENTED_EDGE('',*,*,#319,.T.);
#200=ORIENTED_EDGE('',*,*,#320,.F.);
#201=ORIENTED_EDGE('',*,*,#295,.T.);
#202=ORIENTED_EDGE('',*,*,#251,.F.);
#203=ORIENTED_EDGE('',*,*,#320,.T.);
#204=ORIENTED_EDGE('',*,*,#321,.F.);
#205=ORIENTED_EDGE('',*,*,#294,.T.);
#206=ORIENTED_EDGE('',*,*,#253,.F.);
#207=ORIENTED_EDGE('',*,*,#321,.T.);
#208=ORIENTED_EDGE('',*,*,#322,.F.);
#209=ORIENTED_EDGE('',*,*,#293,.T.);
#210=ORIENTED_EDGE('',*,*,#255,.F.);
#211=ORIENTED_EDGE('',*,*,#322,.T.);
#212=ORIENTED_EDGE('',*,*,#323,.F.);
#213=ORIENTED_EDGE('',*,*,#292,.T.);
#214=ORIENTED_EDGE('',*,*,#259,.F.);
#215=ORIENTED_EDGE('',*,*,#323,.T.);
#216=ORIENTED_EDGE('',*,*,#324,.F.);
#217=ORIENTED_EDGE('',*,*,#308,.F.);
#218=ORIENTED_EDGE('',*,*,#325,.F.);
#219=ORIENTED_EDGE('',*,*,#290,.F.);
#220=ORIENTED_EDGE('',*,*,#325,.T.);
#221=ORIENTED_EDGE('',*,*,#279,.F.);
#222=ORIENTED_EDGE('',*,*,#326,.F.);
#223=ORIENTED_EDGE('',*,*,#291,.F.);
#224=ORIENTED_EDGE('',*,*,#324,.T.);
#225=ORIENTED_EDGE('',*,*,#289,.F.);
#226=ORIENTED_EDGE('',*,*,#327,.F.);
#227=ORIENTED_EDGE('',*,*,#287,.F.);
#228=ORIENTED_EDGE('',*,*,#326,.T.);
#229=ORIENTED_EDGE('',*,*,#306,.F.);
#230=ORIENTED_EDGE('',*,*,#327,.T.);
#231=ORIENTED_EDGE('',*,*,#288,.F.);
#232=ORIENTED_EDGE('',*,*,#328,.F.);
#233=ORIENTED_EDGE('',*,*,#307,.F.);
#234=ORIENTED_EDGE('',*,*,#329,.F.);
#235=ORIENTED_EDGE('',*,*,#282,.F.);
#236=ORIENTED_EDGE('',*,*,#329,.T.);
#237=ORIENTED_EDGE('',*,*,#277,.F.);
#238=ORIENTED_EDGE('',*,*,#330,.F.);
#239=ORIENTED_EDGE('',*,*,#283,.F.);
#240=ORIENTED_EDGE('',*,*,#328,.T.);
#241=ORIENTED_EDGE('',*,*,#281,.F.);
#242=ORIENTED_EDGE('',*,*,#331,.F.);
#243=ORIENTED_EDGE('',*,*,#285,.F.);
#244=ORIENTED_EDGE('',*,*,#330,.T.);
#245=ORIENTED_EDGE('',*,*,#309,.F.);
#246=ORIENTED_EDGE('',*,*,#331,.T.);
#247=ORIENTED_EDGE('',*,*,#280,.F.);
#248=EDGE_CURVE('',#332,#332,#404,.T.);
#249=EDGE_CURVE('',#333,#333,#405,.T.);
#250=EDGE_CURVE('',#334,#334,#406,.T.);
#251=EDGE_CURVE('',#335,#335,#407,.T.);
#252=EDGE_CURVE('',#336,#336,#408,.T.);
#253=EDGE_CURVE('',#337,#337,#409,.T.);
#254=EDGE_CURVE('',#338,#338,#410,.T.);
#255=EDGE_CURVE('',#339,#339,#411,.T.);
#256=EDGE_CURVE('',#340,#340,#412,.T.);
#257=EDGE_CURVE('',#341,#341,#413,.T.);
#258=EDGE_CURVE('',#342,#342,#414,.T.);
#259=EDGE_CURVE('',#343,#343,#415,.T.);
#260=EDGE_CURVE('',#344,#344,#416,.T.);
#261=EDGE_CURVE('',#345,#345,#417,.T.);
#262=EDGE_CURVE('',#346,#346,#418,.T.);
#263=EDGE_CURVE('',#347,#347,#419,.T.);
#264=EDGE_CURVE('',#348,#348,#420,.T.);
#265=EDGE_CURVE('',#349,#349,#421,.T.);
#266=EDGE_CURVE('',#350,#350,#422,.T.);
#267=EDGE_CURVE('',#351,#351,#423,.T.);
#268=EDGE_CURVE('',#352,#352,#424,.T.);
#269=EDGE_CURVE('',#353,#353,#425,.T.);
#270=EDGE_CURVE('',#354,#354,#426,.T.);
#271=EDGE_CURVE('',#355,#355,#427,.T.);
#272=EDGE_CURVE('',#356,#356,#428,.T.);
#273=EDGE_CURVE('',#357,#357,#429,.T.);
#274=EDGE_CURVE('',#358,#358,#430,.T.);
#275=EDGE_CURVE('',#359,#359,#431,.T.);
#276=EDGE_CURVE('',#360,#361,#20,.T.);
#277=EDGE_CURVE('',#360,#362,#21,.F.);
#278=EDGE_CURVE('',#362,#363,#22,.T.);
#279=EDGE_CURVE('',#363,#361,#23,.T.);
#280=EDGE_CURVE('',#364,#365,#24,.T.);
#281=EDGE_CURVE('',#365,#366,#25,.F.);
#282=EDGE_CURVE('',#366,#367,#26,.F.);
#283=EDGE_CURVE('',#367,#364,#27,.T.);
#284=EDGE_CURVE('',#368,#369,#28,.T.);
#285=EDGE_CURVE('',#368,#370,#29,.T.);
#286=EDGE_CURVE('',#370,#371,#30,.T.);
#287=EDGE_CURVE('',#371,#369,#31,.F.);
#288=EDGE_CURVE('',#372,#373,#32,.T.);
#289=EDGE_CURVE('',#373,#374,#33,.T.);
#290=EDGE_CURVE('',#374,#375,#34,.F.);
#291=EDGE_CURVE('',#375,#372,#35,.F.);
#292=EDGE_CURVE('',#376,#376,#432,.T.);
#293=EDGE_CURVE('',#377,#377,#433,.T.);
#294=EDGE_CURVE('',#378,#378,#434,.T.);
#295=EDGE_CURVE('',#379,#379,#435,.T.);
#296=EDGE_CURVE('',#380,#380,#436,.T.);
#297=EDGE_CURVE('',#381,#381,#437,.T.);
#298=EDGE_CURVE('',#382,#382,#438,.T.);
#299=EDGE_CURVE('',#383,#383,#439,.T.);
#300=EDGE_CURVE('',#384,#384,#440,.T.);
#301=EDGE_CURVE('',#385,#385,#441,.T.);
#302=EDGE_CURVE('',#386,#386,#442,.T.);
#303=EDGE_CURVE('',#387,#387,#443,.T.);
#304=EDGE_CURVE('',#388,#388,#444,.T.);
#305=EDGE_CURVE('',#389,#389,#445,.T.);
#306=EDGE_CURVE('',#369,#363,#36,.F.);
#307=EDGE_CURVE('',#362,#368,#37,.T.);
#308=EDGE_CURVE('',#361,#371,#38,.T.);
#309=EDGE_CURVE('',#370,#360,#39,.F.);
#310=EDGE_CURVE('',#390,#390,#446,.T.);
#311=EDGE_CURVE('',#391,#391,#447,.T.);
#312=EDGE_CURVE('',#392,#392,#448,.T.);
#313=EDGE_CURVE('',#393,#393,#449,.T.);
#314=EDGE_CURVE('',#394,#394,#450,.T.);
#315=EDGE_CURVE('',#395,#395,#451,.T.);
#316=EDGE_CURVE('',#396,#396,#452,.T.);
#317=EDGE_CURVE('',#397,#397,#453,.T.);
#318=EDGE_CURVE('',#398,#398,#454,.T.);
#319=EDGE_CURVE('',#399,#399,#455,.T.);
#320=EDGE_CURVE('',#400,#400,#456,.T.);
#321=EDGE_CURVE('',#401,#401,#457,.T.);
#322=EDGE_CURVE('',#402,#402,#458,.T.);
#323=EDGE_CURVE('',#403,#403,#459,.T.);
#324=EDGE_CURVE('',#371,#374,#12,.T.);
#325=EDGE_CURVE('',#375,#361,#13,.F.);
#326=EDGE_CURVE('',#372,#363,#14,.F.);
#327=EDGE_CURVE('',#369,#373,#15,.T.);
#328=EDGE_CURVE('',#368,#366,#16,.T.);
#329=EDGE_CURVE('',#367,#362,#17,.F.);
#330=EDGE_CURVE('',#364,#360,#18,.F.);
#331=EDGE_CURVE('',#370,#365,#19,.T.);
#332=VERTEX_POINT('',#1202);
#333=VERTEX_POINT('',#1204);
#334=VERTEX_POINT('',#1207);
#335=VERTEX_POINT('',#1209);
#336=VERTEX_POINT('',#1212);
#337=VERTEX_POINT('',#1214);
#338=VERTEX_POINT('',#1217);
#339=VERTEX_POINT('',#1219);
#340=VERTEX_POINT('',#1222);
#341=VERTEX_POINT('',#1224);
#342=VERTEX_POINT('',#1227);
#343=VERTEX_POINT('',#1229);
#344=VERTEX_POINT('',#1232);
#345=VERTEX_POINT('',#1234);
#346=VERTEX_POINT('',#1237);
#347=VERTEX_POINT('',#1239);
#348=VERTEX_POINT('',#1242);
#349=VERTEX_POINT('',#1244);
#350=VERTEX_POINT('',#1247);
#351=VERTEX_POINT('',#1249);
#352=VERTEX_POINT('',#1252);
#353=VERTEX_POINT('',#1254);
#354=VERTEX_POINT('',#1257);
#355=VERTEX_POINT('',#1259);
#356=VERTEX_POINT('',#1262);
#357=VERTEX_POINT('',#1264);
#358=VERTEX_POINT('',#1267);
#359=VERTEX_POINT('',#1269);
#360=VERTEX_POINT('',#1272);
#361=VERTEX_POINT('',#1273);
#362=VERTEX_POINT('',#1275);
#363=VERTEX_POINT('',#1277);
#364=VERTEX_POINT('',#1281);
#365=VERTEX_POINT('',#1282);
#366=VERTEX_POINT('',#1284);
#367=VERTEX_POINT('',#1286);
#368=VERTEX_POINT('',#1290);
#369=VERTEX_POINT('',#1291);
#370=VERTEX_POINT('',#1293);
#371=VERTEX_POINT('',#1295);
#372=VERTEX_POINT('',#1299);
#373=VERTEX_POINT('',#1300);
#374=VERTEX_POINT('',#1302);
#375=VERTEX_POINT('',#1304);
#376=VERTEX_POINT('',#1308);
#377=VERTEX_POINT('',#1310);
#378=VERTEX_POINT('',#1312);
#379=VERTEX_POINT('',#1314);
#380=VERTEX_POINT('',#1316);
#381=VERTEX_POINT('',#1318);
#382=VERTEX_POINT('',#1320);
#383=VERTEX_POINT('',#1322);
#384=VERTEX_POINT('',#1324);
#385=VERTEX_POINT('',#1326);
#386=VERTEX_POINT('',#1328);
#387=VERTEX_POINT('',#1330);
#388=VERTEX_POINT('',#1332);
#389=VERTEX_POINT('',#1334);
#390=VERTEX_POINT('',#1342);
#391=VERTEX_POINT('',#1346);
#392=VERTEX_POINT('',#1350);
#393=VERTEX_POINT('',#1354);
#394=VERTEX_POINT('',#1358);
#395=VERTEX_POINT('',#1362);
#396=VERTEX_POINT('',#1366);
#397=VERTEX_POINT('',#1370);
#398=VERTEX_POINT('',#1374);
#399=VERTEX_POINT('',#1378);
#400=VERTEX_POINT('',#1382);
#401=VERTEX_POINT('',#1386);
#402=VERTEX_POINT('',#1390);
#403=VERTEX_POINT('',#1394);
#404=CIRCLE('',#818,0.00325);
#405=CIRCLE('',#819,0.00325);
#406=CIRCLE('',#821,0.00325);
#407=CIRCLE('',#822,0.00325);
#408=CIRCLE('',#824,0.00325);
#409=CIRCLE('',#825,0.00325);
#410=CIRCLE('',#827,0.00325);
#411=CIRCLE('',#828,0.00325);
#412=CIRCLE('',#830,0.00325);
#413=CIRCLE('',#831,0.00325);
#414=CIRCLE('',#833,0.00325);
#415=CIRCLE('',#834,0.00325);
#416=CIRCLE('',#836,0.00275);
#417=CIRCLE('',#837,0.00275);
#418=CIRCLE('',#839,0.00275);
#419=CIRCLE('',#840,0.00275);
#420=CIRCLE('',#842,0.00275);
#421=CIRCLE('',#843,0.00275);
#422=CIRCLE('',#845,0.00275);
#423=CIRCLE('',#846,0.00275);
#424=CIRCLE('',#848,0.00275);
#425=CIRCLE('',#849,0.00275);
#426=CIRCLE('',#851,0.00275);
#427=CIRCLE('',#852,0.00275);
#428=CIRCLE('',#854,0.00275);
#429=CIRCLE('',#855,0.00275);
#430=CIRCLE('',#857,0.00275);
#431=CIRCLE('',#858,0.00275);
#432=CIRCLE('',#864,0.00525);
#433=CIRCLE('',#865,0.00525);
#434=CIRCLE('',#866,0.00525);
#435=CIRCLE('',#867,0.00525);
#436=CIRCLE('',#868,0.00525);
#437=CIRCLE('',#869,0.00525);
#438=CIRCLE('',#870,0.0044);
#439=CIRCLE('',#871,0.0044);
#440=CIRCLE('',#872,0.0044);
#441=CIRCLE('',#873,0.0044);
#442=CIRCLE('',#874,0.0044);
#443=CIRCLE('',#875,0.0044);
#444=CIRCLE('',#876,0.0044);
#445=CIRCLE('',#877,0.0044);
#446=CIRCLE('',#880,0.0044);
#447=CIRCLE('',#883,0.0044);
#448=CIRCLE('',#886,0.0044);
#449=CIRCLE('',#889,0.0044);
#450=CIRCLE('',#892,0.0044);
#451=CIRCLE('',#895,0.0044);
#452=CIRCLE('',#898,0.0044);
#453=CIRCLE('',#901,0.0044);
#454=CIRCLE('',#904,0.00525);
#455=CIRCLE('',#907,0.00525);
#456=CIRCLE('',#910,0.00525);
#457=CIRCLE('',#913,0.00525);
#458=CIRCLE('',#916,0.00525);
#459=CIRCLE('',#919,0.00525);
#460=EDGE_LOOP('',(#80));
#461=EDGE_LOOP('',(#81));
#462=EDGE_LOOP('',(#82));
#463=EDGE_LOOP('',(#83));
#464=EDGE_LOOP('',(#84));
#465=EDGE_LOOP('',(#85));
#466=EDGE_LOOP('',(#86));
#467=EDGE_LOOP('',(#87));
#468=EDGE_LOOP('',(#88));
#469=EDGE_LOOP('',(#89));
#470=EDGE_LOOP('',(#90));
#471=EDGE_LOOP('',(#91));
#472=EDGE_LOOP('',(#92));
#473=EDGE_LOOP('',(#93));
#474=EDGE_LOOP('',(#94));
#475=EDGE_LOOP('',(#95));
#476=EDGE_LOOP('',(#96));
#477=EDGE_LOOP('',(#97));
#478=EDGE_LOOP('',(#98));
#479=EDGE_LOOP('',(#99));
#480=EDGE_LOOP('',(#100));
#481=EDGE_LOOP('',(#101));
#482=EDGE_LOOP('',(#102));
#483=EDGE_LOOP('',(#103));
#484=EDGE_LOOP('',(#104));
#485=EDGE_LOOP('',(#105));
#486=EDGE_LOOP('',(#106));
#487=EDGE_LOOP('',(#107));
#488=EDGE_LOOP('',(#108,#109,#110,#111));
#489=EDGE_LOOP('',(#112,#113,#114,#115));
#490=EDGE_LOOP('',(#116,#117,#118,#119));
#491=EDGE_LOOP('',(#120,#121,#122,#123));
#492=EDGE_LOOP('',(#124));
#493=EDGE_LOOP('',(#125));
#494=EDGE_LOOP('',(#126));
#495=EDGE_LOOP('',(#127));
#496=EDGE_LOOP('',(#128));
#497=EDGE_LOOP('',(#129));
#498=EDGE_LOOP('',(#130));
#499=EDGE_LOOP('',(#131));
#500=EDGE_LOOP('',(#132));
#501=EDGE_LOOP('',(#133));
#502=EDGE_LOOP('',(#134));
#503=EDGE_LOOP('',(#135));
#504=EDGE_LOOP('',(#136));
#505=EDGE_LOOP('',(#137));
#506=EDGE_LOOP('',(#138,#139,#140,#141));
#507=EDGE_LOOP('',(#142,#143,#144,#145));
#508=EDGE_LOOP('',(#146));
#509=EDGE_LOOP('',(#147));
#510=EDGE_LOOP('',(#148));
#511=EDGE_LOOP('',(#149));
#512=EDGE_LOOP('',(#150));
#513=EDGE_LOOP('',(#151));
#514=EDGE_LOOP('',(#152));
#515=EDGE_LOOP('',(#153));
#516=EDGE_LOOP('',(#154));
#517=EDGE_LOOP('',(#155));
#518=EDGE_LOOP('',(#156));
#519=EDGE_LOOP('',(#157));
#520=EDGE_LOOP('',(#158));
#521=EDGE_LOOP('',(#159));
#522=EDGE_LOOP('',(#160));
#523=EDGE_LOOP('',(#161));
#524=EDGE_LOOP('',(#162));
#525=EDGE_LOOP('',(#163));
#526=EDGE_LOOP('',(#164));
#527=EDGE_LOOP('',(#165));
#528=EDGE_LOOP('',(#166));
#529=EDGE_LOOP('',(#167));
#530=EDGE_LOOP('',(#168));
#531=EDGE_LOOP('',(#169));
#532=EDGE_LOOP('',(#170));
#533=EDGE_LOOP('',(#171));
#534=EDGE_LOOP('',(#172));
#535=EDGE_LOOP('',(#173));
#536=EDGE_LOOP('',(#174));
#537=EDGE_LOOP('',(#175));
#538=EDGE_LOOP('',(#176));
#539=EDGE_LOOP('',(#177));
#540=EDGE_LOOP('',(#178));
#541=EDGE_LOOP('',(#179));
#542=EDGE_LOOP('',(#180));
#543=EDGE_LOOP('',(#181));
#544=EDGE_LOOP('',(#182));
#545=EDGE_LOOP('',(#183));
#546=EDGE_LOOP('',(#184));
#547=EDGE_LOOP('',(#185));
#548=EDGE_LOOP('',(#186));
#549=EDGE_LOOP('',(#187));
#550=EDGE_LOOP('',(#188));
#551=EDGE_LOOP('',(#189));
#552=EDGE_LOOP('',(#190));
#553=EDGE_LOOP('',(#191));
#554=EDGE_LOOP('',(#192));
#555=EDGE_LOOP('',(#193));
#556=EDGE_LOOP('',(#194));
#557=EDGE_LOOP('',(#195));
#558=EDGE_LOOP('',(#196));
#559=EDGE_LOOP('',(#197));
#560=EDGE_LOOP('',(#198));
#561=EDGE_LOOP('',(#199));
#562=EDGE_LOOP('',(#200));
#563=EDGE_LOOP('',(#201));
#564=EDGE_LOOP('',(#202));
#565=EDGE_LOOP('',(#203));
#566=EDGE_LOOP('',(#204));
#567=EDGE_LOOP('',(#205));
#568=EDGE_LOOP('',(#206));
#569=EDGE_LOOP('',(#207));
#570=EDGE_LOOP('',(#208));
#571=EDGE_LOOP('',(#209));
#572=EDGE_LOOP('',(#210));
#573=EDGE_LOOP('',(#211));
#574=EDGE_LOOP('',(#212));
#575=EDGE_LOOP('',(#213));
#576=EDGE_LOOP('',(#214));
#577=EDGE_LOOP('',(#215));
#578=EDGE_LOOP('',(#216,#217,#218,#219));
#579=EDGE_LOOP('',(#220,#221,#222,#223));
#580=EDGE_LOOP('',(#224,#225,#226,#227));
#581=EDGE_LOOP('',(#228,#229,#230,#231));
#582=EDGE_LOOP('',(#232,#233,#234,#235));
#583=EDGE_LOOP('',(#236,#237,#238,#239));
#584=EDGE_LOOP('',(#240,#241,#242,#243));
#585=EDGE_LOOP('',(#244,#245,#246,#247));
#586=FACE_BOUND('',#460,.T.);
#587=FACE_BOUND('',#461,.T.);
#588=FACE_BOUND('',#462,.T.);
#589=FACE_BOUND('',#463,.T.);
#590=FACE_BOUND('',#464,.T.);
#591=FACE_BOUND('',#465,.T.);
#592=FACE_BOUND('',#466,.T.);
#593=FACE_BOUND('',#467,.T.);
#594=FACE_BOUND('',#468,.T.);
#595=FACE_BOUND('',#469,.T.);
#596=FACE_BOUND('',#470,.T.);
#597=FACE_BOUND('',#471,.T.);
#598=FACE_BOUND('',#472,.T.);
#599=FACE_BOUND('',#473,.T.);
#600=FACE_BOUND('',#474,.T.);
#601=FACE_BOUND('',#475,.T.);
#602=FACE_BOUND('',#476,.T.);
#603=FACE_BOUND('',#477,.T.);
#604=FACE_BOUND('',#478,.T.);
#605=FACE_BOUND('',#479,.T.);
#606=FACE_BOUND('',#480,.T.);
#607=FACE_BOUND('',#481,.T.);
#608=FACE_BOUND('',#482,.T.);
#609=FACE_BOUND('',#483,.T.);
#610=FACE_BOUND('',#484,.T.);
#611=FACE_BOUND('',#485,.T.);
#612=FACE_BOUND('',#486,.T.);
#613=FACE_BOUND('',#487,.T.);
#614=FACE_BOUND('',#488,.T.);
#615=FACE_BOUND('',#489,.T.);
#616=FACE_BOUND('',#490,.T.);
#617=FACE_BOUND('',#491,.T.);
#618=FACE_BOUND('',#492,.T.);
#619=FACE_BOUND('',#493,.T.);
#620=FACE_BOUND('',#494,.T.);
#621=FACE_BOUND('',#495,.T.);
#622=FACE_BOUND('',#496,.T.);
#623=FACE_BOUND('',#497,.T.);
#624=FACE_BOUND('',#498,.T.);
#625=FACE_BOUND('',#499,.T.);
#626=FACE_BOUND('',#500,.T.);
#627=FACE_BOUND('',#501,.T.);
#628=FACE_BOUND('',#502,.T.);
#629=FACE_BOUND('',#503,.T.);
#630=FACE_BOUND('',#504,.T.);
#631=FACE_BOUND('',#505,.T.);
#632=FACE_BOUND('',#506,.T.);
#633=FACE_BOUND('',#507,.T.);
#634=FACE_BOUND('',#508,.T.);
#635=FACE_BOUND('',#509,.T.);
#636=FACE_BOUND('',#510,.T.);
#637=FACE_BOUND('',#511,.T.);
#638=FACE_BOUND('',#512,.T.);
#639=FACE_BOUND('',#513,.T.);
#640=FACE_BOUND('',#514,.T.);
#641=FACE_BOUND('',#515,.T.);
#642=FACE_BOUND('',#516,.T.);
#643=FACE_BOUND('',#517,.T.);
#644=FACE_BOUND('',#518,.T.);
#645=FACE_BOUND('',#519,.T.);
#646=FACE_BOUND('',#520,.T.);
#647=FACE_BOUND('',#521,.T.);
#648=FACE_BOUND('',#522,.T.);
#649=FACE_BOUND('',#523,.T.);
#650=FACE_BOUND('',#524,.T.);
#651=FACE_BOUND('',#525,.T.);
#652=FACE_BOUND('',#526,.T.);
#653=FACE_BOUND('',#527,.T.);
#654=FACE_BOUND('',#528,.T.);
#655=FACE_BOUND('',#529,.T.);
#656=FACE_BOUND('',#530,.T.);
#657=FACE_BOUND('',#531,.T.);
#658=FACE_BOUND('',#532,.T.);
#659=FACE_BOUND('',#533,.T.);
#660=FACE_BOUND('',#534,.T.);
#661=FACE_BOUND('',#535,.T.);
#662=FACE_BOUND('',#536,.T.);
#663=FACE_BOUND('',#537,.T.);
#664=FACE_BOUND('',#538,.T.);
#665=FACE_BOUND('',#539,.T.);
#666=FACE_BOUND('',#540,.T.);
#667=FACE_BOUND('',#541,.T.);
#668=FACE_BOUND('',#542,.T.);
#669=FACE_BOUND('',#543,.T.);
#670=FACE_BOUND('',#544,.T.);
#671=FACE_BOUND('',#545,.T.);
#672=FACE_BOUND('',#546,.T.);
#673=FACE_BOUND('',#547,.T.);
#674=FACE_BOUND('',#548,.T.);
#675=FACE_BOUND('',#549,.T.);
#676=FACE_BOUND('',#550,.T.);
#677=FACE_BOUND('',#551,.T.);
#678=FACE_BOUND('',#552,.T.);
#679=FACE_BOUND('',#553,.T.);
#680=FACE_BOUND('',#554,.T.);
#681=FACE_BOUND('',#555,.T.);
#682=FACE_BOUND('',#556,.T.);
#683=FACE_BOUND('',#557,.T.);
#684=FACE_BOUND('',#558,.T.);
#685=FACE_BOUND('',#559,.T.);
#686=FACE_BOUND('',#560,.T.);
#687=FACE_BOUND('',#561,.T.);
#688=FACE_BOUND('',#562,.T.);
#689=FACE_BOUND('',#563,.T.);
#690=FACE_BOUND('',#564,.T.);
#691=FACE_BOUND('',#565,.T.);
#692=FACE_BOUND('',#566,.T.);
#693=FACE_BOUND('',#567,.T.);
#694=FACE_BOUND('',#568,.T.);
#695=FACE_BOUND('',#569,.T.);
#696=FACE_BOUND('',#570,.T.);
#697=FACE_BOUND('',#571,.T.);
#698=FACE_BOUND('',#572,.T.);
#699=FACE_BOUND('',#573,.T.);
#700=FACE_BOUND('',#574,.T.);
#701=FACE_BOUND('',#575,.T.);
#702=FACE_BOUND('',#576,.T.);
#703=FACE_BOUND('',#577,.T.);
#704=FACE_BOUND('',#578,.T.);
#705=FACE_BOUND('',#579,.T.);
#706=FACE_BOUND('',#580,.T.);
#707=FACE_BOUND('',#581,.T.);
#708=FACE_BOUND('',#582,.T.);
#709=FACE_BOUND('',#583,.T.);
#710=FACE_BOUND('',#584,.T.);
#711=FACE_BOUND('',#585,.T.);
#712=CYLINDRICAL_SURFACE('',#817,0.00325);
#713=CYLINDRICAL_SURFACE('',#820,0.00325);
#714=CYLINDRICAL_SURFACE('',#823,0.00325);
#715=CYLINDRICAL_SURFACE('',#826,0.00325);
#716=CYLINDRICAL_SURFACE('',#829,0.00325);
#717=CYLINDRICAL_SURFACE('',#832,0.00325);
#718=CYLINDRICAL_SURFACE('',#835,0.00275);
#719=CYLINDRICAL_SURFACE('',#838,0.00275);
#720=CYLINDRICAL_SURFACE('',#841,0.00275);
#721=CYLINDRICAL_SURFACE('',#844,0.00275);
#722=CYLINDRICAL_SURFACE('',#847,0.00275);
#723=CYLINDRICAL_SURFACE('',#850,0.00275);
#724=CYLINDRICAL_SURFACE('',#853,0.00275);
#725=CYLINDRICAL_SURFACE('',#856,0.00275);
#726=CYLINDRICAL_SURFACE('',#879,0.0044);
#727=CYLINDRICAL_SURFACE('',#882,0.0044);
#728=CYLINDRICAL_SURFACE('',#885,0.0044);
#729=CYLINDRICAL_SURFACE('',#888,0.0044);
#730=CYLINDRICAL_SURFACE('',#891,0.0044);
#731=CYLINDRICAL_SURFACE('',#894,0.0044);
#732=CYLINDRICAL_SURFACE('',#897,0.0044);
#733=CYLINDRICAL_SURFACE('',#900,0.0044);
#734=CYLINDRICAL_SURFACE('',#903,0.00525);
#735=CYLINDRICAL_SURFACE('',#906,0.00525);
#736=CYLINDRICAL_SURFACE('',#909,0.00525);
#737=CYLINDRICAL_SURFACE('',#912,0.00525);
#738=CYLINDRICAL_SURFACE('',#915,0.00525);
#739=CYLINDRICAL_SURFACE('',#918,0.00525);
#740=CYLINDRICAL_SURFACE('',#921,0.003);
#741=CYLINDRICAL_SURFACE('',#924,0.003);
#742=CYLINDRICAL_SURFACE('',#926,0.003);
#743=CYLINDRICAL_SURFACE('',#928,0.003);
#744=CYLINDRICAL_SURFACE('',#929,0.003);
#745=CYLINDRICAL_SURFACE('',#932,0.003);
#746=CYLINDRICAL_SURFACE('',#934,0.003);
#747=CYLINDRICAL_SURFACE('',#936,0.003);
#748=ADVANCED_FACE('',(#586,#587),#712,.F.);
#749=ADVANCED_FACE('',(#588,#589),#713,.F.);
#750=ADVANCED_FACE('',(#590,#591),#714,.F.);
#751=ADVANCED_FACE('',(#592,#593),#715,.F.);
#752=ADVANCED_FACE('',(#594,#595),#716,.F.);
#753=ADVANCED_FACE('',(#596,#597),#717,.F.);
#754=ADVANCED_FACE('',(#598,#599),#718,.F.);
#755=ADVANCED_FACE('',(#600,#601),#719,.F.);
#756=ADVANCED_FACE('',(#602,#603),#720,.F.);
#757=ADVANCED_FACE('',(#604,#605),#721,.F.);
#758=ADVANCED_FACE('',(#606,#607),#722,.F.);
#759=ADVANCED_FACE('',(#608,#609),#723,.F.);
#760=ADVANCED_FACE('',(#610,#611),#724,.F.);
#761=ADVANCED_FACE('',(#612,#613),#725,.F.);
#762=ADVANCED_FACE('',(#614),#60,.T.);
#763=ADVANCED_FACE('',(#615),#61,.F.);
#764=ADVANCED_FACE('',(#616),#62,.F.);
#765=ADVANCED_FACE('',(#617),#63,.T.);
#766=ADVANCED_FACE('',(#618,#619,#620,#621,#622,#623,#624,#625,#626,#627,
#628,#629,#630,#631,#632),#64,.T.);
#767=ADVANCED_FACE('',(#633,#634,#635,#636,#637,#638,#639,#640,#641,#642,
#643,#644,#645,#646,#647),#65,.F.);
#768=ADVANCED_FACE('',(#648,#649),#726,.F.);
#769=ADVANCED_FACE('',(#650,#651),#66,.T.);
#770=ADVANCED_FACE('',(#652,#653),#727,.F.);
#771=ADVANCED_FACE('',(#654,#655),#67,.T.);
#772=ADVANCED_FACE('',(#656,#657),#728,.F.);
#773=ADVANCED_FACE('',(#658,#659),#68,.T.);
#774=ADVANCED_FACE('',(#660,#661),#729,.F.);
#775=ADVANCED_FACE('',(#662,#663),#69,.T.);
#776=ADVANCED_FACE('',(#664,#665),#730,.F.);
#777=ADVANCED_FACE('',(#666,#667),#70,.T.);
#778=ADVANCED_FACE('',(#668,#669),#731,.F.);
#779=ADVANCED_FACE('',(#670,#671),#71,.T.);
#780=ADVANCED_FACE('',(#672,#673),#732,.F.);
#781=ADVANCED_FACE('',(#674,#675),#72,.T.);
#782=ADVANCED_FACE('',(#676,#677),#733,.F.);
#783=ADVANCED_FACE('',(#678,#679),#73,.T.);
#784=ADVANCED_FACE('',(#680,#681),#734,.F.);
#785=ADVANCED_FACE('',(#682,#683),#74,.T.);
#786=ADVANCED_FACE('',(#684,#685),#735,.F.);
#787=ADVANCED_FACE('',(#686,#687),#75,.T.);
#788=ADVANCED_FACE('',(#688,#689),#736,.F.);
#789=ADVANCED_FACE('',(#690,#691),#76,.T.);
#790=ADVANCED_FACE('',(#692,#693),#737,.F.);
#791=ADVANCED_FACE('',(#694,#695),#77,.T.);
#792=ADVANCED_FACE('',(#696,#697),#738,.F.);
#793=ADVANCED_FACE('',(#698,#699),#78,.T.);
#794=ADVANCED_FACE('',(#700,#701),#739,.F.);
#795=ADVANCED_FACE('',(#702,#703),#79,.T.);
#796=ADVANCED_FACE('',(#704),#740,.T.);
#797=ADVANCED_FACE('',(#705),#741,.T.);
#798=ADVANCED_FACE('',(#706),#742,.T.);
#799=ADVANCED_FACE('',(#707),#743,.T.);
#800=ADVANCED_FACE('',(#708),#744,.T.);
#801=ADVANCED_FACE('',(#709),#745,.T.);
#802=ADVANCED_FACE('',(#710),#746,.T.);
#803=ADVANCED_FACE('',(#711),#747,.T.);
#804=CLOSED_SHELL('',(#748,#749,#750,#751,#752,#753,#754,#755,#756,#757,
#758,#759,#760,#761,#762,#763,#764,#765,#766,#767,#768,#769,#770,#771,#772,
#773,#774,#775,#776,#777,#778,#779,#780,#781,#782,#783,#784,#785,#786,#787,
#788,#789,#790,#791,#792,#793,#794,#795,#796,#797,#798,#799,#800,#801,#802,
#803));
#805=STYLED_ITEM('',(#806),#813);
#806=PRESENTATION_STYLE_ASSIGNMENT((#807));
#807=SURFACE_STYLE_USAGE(.BOTH.,#808);
#808=SURFACE_SIDE_STYLE('',(#809));
#809=SURFACE_STYLE_FILL_AREA(#810);
#810=FILL_AREA_STYLE('',(#811));
#811=FILL_AREA_STYLE_COLOUR('',#812);
#812=COLOUR_RGB('',0.972549019607843,0.529411764705882,0.00392156862745098);
#813=MANIFOLD_SOLID_BREP('SpindleHolder',#804);
#814=SHAPE_DEFINITION_REPRESENTATION(#1418,#815);
#815=SHAPE_REPRESENTATION('SpindleHolder',(#816),#1413);
#816=AXIS2_PLACEMENT_3D('',#1199,#937,#938);
#817=AXIS2_PLACEMENT_3D('',#1200,#939,#940);
#818=AXIS2_PLACEMENT_3D('',#1201,#941,#942);
#819=AXIS2_PLACEMENT_3D('',#1203,#943,#944);
#820=AXIS2_PLACEMENT_3D('',#1205,#945,#946);
#821=AXIS2_PLACEMENT_3D('',#1206,#947,#948);
#822=AXIS2_PLACEMENT_3D('',#1208,#949,#950);
#823=AXIS2_PLACEMENT_3D('',#1210,#951,#952);
#824=AXIS2_PLACEMENT_3D('',#1211,#953,#954);
#825=AXIS2_PLACEMENT_3D('',#1213,#955,#956);
#826=AXIS2_PLACEMENT_3D('',#1215,#957,#958);
#827=AXIS2_PLACEMENT_3D('',#1216,#959,#960);
#828=AXIS2_PLACEMENT_3D('',#1218,#961,#962);
#829=AXIS2_PLACEMENT_3D('',#1220,#963,#964);
#830=AXIS2_PLACEMENT_3D('',#1221,#965,#966);
#831=AXIS2_PLACEMENT_3D('',#1223,#967,#968);
#832=AXIS2_PLACEMENT_3D('',#1225,#969,#970);
#833=AXIS2_PLACEMENT_3D('',#1226,#971,#972);
#834=AXIS2_PLACEMENT_3D('',#1228,#973,#974);
#835=AXIS2_PLACEMENT_3D('',#1230,#975,#976);
#836=AXIS2_PLACEMENT_3D('',#1231,#977,#978);
#837=AXIS2_PLACEMENT_3D('',#1233,#979,#980);
#838=AXIS2_PLACEMENT_3D('',#1235,#981,#982);
#839=AXIS2_PLACEMENT_3D('',#1236,#983,#984);
#840=AXIS2_PLACEMENT_3D('',#1238,#985,#986);
#841=AXIS2_PLACEMENT_3D('',#1240,#987,#988);
#842=AXIS2_PLACEMENT_3D('',#1241,#989,#990);
#843=AXIS2_PLACEMENT_3D('',#1243,#991,#992);
#844=AXIS2_PLACEMENT_3D('',#1245,#993,#994);
#845=AXIS2_PLACEMENT_3D('',#1246,#995,#996);
#846=AXIS2_PLACEMENT_3D('',#1248,#997,#998);
#847=AXIS2_PLACEMENT_3D('',#1250,#999,#1000);
#848=AXIS2_PLACEMENT_3D('',#1251,#1001,#1002);
#849=AXIS2_PLACEMENT_3D('',#1253,#1003,#1004);
#850=AXIS2_PLACEMENT_3D('',#1255,#1005,#1006);
#851=AXIS2_PLACEMENT_3D('',#1256,#1007,#1008);
#852=AXIS2_PLACEMENT_3D('',#1258,#1009,#1010);
#853=AXIS2_PLACEMENT_3D('',#1260,#1011,#1012);
#854=AXIS2_PLACEMENT_3D('',#1261,#1013,#1014);
#855=AXIS2_PLACEMENT_3D('',#1263,#1015,#1016);
#856=AXIS2_PLACEMENT_3D('',#1265,#1017,#1018);
#857=AXIS2_PLACEMENT_3D('',#1266,#1019,#1020);
#858=AXIS2_PLACEMENT_3D('',#1268,#1021,#1022);
#859=AXIS2_PLACEMENT_3D('',#1270,#1023,#1024);
#860=AXIS2_PLACEMENT_3D('',#1279,#1029,#1030);
#861=AXIS2_PLACEMENT_3D('',#1288,#1035,#1036);
#862=AXIS2_PLACEMENT_3D('',#1297,#1041,#1042);
#863=AXIS2_PLACEMENT_3D('',#1306,#1047,#1048);
#864=AXIS2_PLACEMENT_3D('',#1307,#1049,#1050);
#865=AXIS2_PLACEMENT_3D('',#1309,#1051,#1052);
#866=AXIS2_PLACEMENT_3D('',#1311,#1053,#1054);
#867=AXIS2_PLACEMENT_3D('',#1313,#1055,#1056);
#868=AXIS2_PLACEMENT_3D('',#1315,#1057,#1058);
#869=AXIS2_PLACEMENT_3D('',#1317,#1059,#1060);
#870=AXIS2_PLACEMENT_3D('',#1319,#1061,#1062);
#871=AXIS2_PLACEMENT_3D('',#1321,#1063,#1064);
#872=AXIS2_PLACEMENT_3D('',#1323,#1065,#1066);
#873=AXIS2_PLACEMENT_3D('',#1325,#1067,#1068);
#874=AXIS2_PLACEMENT_3D('',#1327,#1069,#1070);
#875=AXIS2_PLACEMENT_3D('',#1329,#1071,#1072);
#876=AXIS2_PLACEMENT_3D('',#1331,#1073,#1074);
#877=AXIS2_PLACEMENT_3D('',#1333,#1075,#1076);
#878=AXIS2_PLACEMENT_3D('',#1337,#1079,#1080);
#879=AXIS2_PLACEMENT_3D('',#1340,#1083,#1084);
#880=AXIS2_PLACEMENT_3D('',#1341,#1085,#1086);
#881=AXIS2_PLACEMENT_3D('',#1343,#1087,#1088);
#882=AXIS2_PLACEMENT_3D('',#1344,#1089,#1090);
#883=AXIS2_PLACEMENT_3D('',#1345,#1091,#1092);
#884=AXIS2_PLACEMENT_3D('',#1347,#1093,#1094);
#885=AXIS2_PLACEMENT_3D('',#1348,#1095,#1096);
#886=AXIS2_PLACEMENT_3D('',#1349,#1097,#1098);
#887=AXIS2_PLACEMENT_3D('',#1351,#1099,#1100);
#888=AXIS2_PLACEMENT_3D('',#1352,#1101,#1102);
#889=AXIS2_PLACEMENT_3D('',#1353,#1103,#1104);
#890=AXIS2_PLACEMENT_3D('',#1355,#1105,#1106);
#891=AXIS2_PLACEMENT_3D('',#1356,#1107,#1108);
#892=AXIS2_PLACEMENT_3D('',#1357,#1109,#1110);
#893=AXIS2_PLACEMENT_3D('',#1359,#1111,#1112);
#894=AXIS2_PLACEMENT_3D('',#1360,#1113,#1114);
#895=AXIS2_PLACEMENT_3D('',#1361,#1115,#1116);
#896=AXIS2_PLACEMENT_3D('',#1363,#1117,#1118);
#897=AXIS2_PLACEMENT_3D('',#1364,#1119,#1120);
#898=AXIS2_PLACEMENT_3D('',#1365,#1121,#1122);
#899=AXIS2_PLACEMENT_3D('',#1367,#1123,#1124);
#900=AXIS2_PLACEMENT_3D('',#1368,#1125,#1126);
#901=AXIS2_PLACEMENT_3D('',#1369,#1127,#1128);
#902=AXIS2_PLACEMENT_3D('',#1371,#1129,#1130);
#903=AXIS2_PLACEMENT_3D('',#1372,#1131,#1132);
#904=AXIS2_PLACEMENT_3D('',#1373,#1133,#1134);
#905=AXIS2_PLACEMENT_3D('',#1375,#1135,#1136);
#906=AXIS2_PLACEMENT_3D('',#1376,#1137,#1138);
#907=AXIS2_PLACEMENT_3D('',#1377,#1139,#1140);
#908=AXIS2_PLACEMENT_3D('',#1379,#1141,#1142);
#909=AXIS2_PLACEMENT_3D('',#1380,#1143,#1144);
#910=AXIS2_PLACEMENT_3D('',#1381,#1145,#1146);
#911=AXIS2_PLACEMENT_3D('',#1383,#1147,#1148);
#912=AXIS2_PLACEMENT_3D('',#1384,#1149,#1150);
#913=AXIS2_PLACEMENT_3D('',#1385,#1151,#1152);
#914=AXIS2_PLACEMENT_3D('',#1387,#1153,#1154);
#915=AXIS2_PLACEMENT_3D('',#1388,#1155,#1156);
#916=AXIS2_PLACEMENT_3D('',#1389,#1157,#1158);
#917=AXIS2_PLACEMENT_3D('',#1391,#1159,#1160);
#918=AXIS2_PLACEMENT_3D('',#1392,#1161,#1162);
#919=AXIS2_PLACEMENT_3D('',#1393,#1163,#1164);
#920=AXIS2_PLACEMENT_3D('',#1395,#1165,#1166);
#921=AXIS2_PLACEMENT_3D('',#1396,#1167,#1168);
#922=AXIS2_PLACEMENT_3D('',#1397,#1169,#1170);
#923=AXIS2_PLACEMENT_3D('',#1398,#1171,#1172);
#924=AXIS2_PLACEMENT_3D('',#1399,#1173,#1174);
#925=AXIS2_PLACEMENT_3D('',#1400,#1175,#1176);
#926=AXIS2_PLACEMENT_3D('',#1401,#1177,#1178);
#927=AXIS2_PLACEMENT_3D('',#1402,#1179,#1180);
#928=AXIS2_PLACEMENT_3D('',#1403,#1181,#1182);
#929=AXIS2_PLACEMENT_3D('',#1404,#1183,#1184);
#930=AXIS2_PLACEMENT_3D('',#1405,#1185,#1186);
#931=AXIS2_PLACEMENT_3D('',#1406,#1187,#1188);
#932=AXIS2_PLACEMENT_3D('',#1407,#1189,#1190);
#933=AXIS2_PLACEMENT_3D('',#1408,#1191,#1192);
#934=AXIS2_PLACEMENT_3D('',#1409,#1193,#1194);
#935=AXIS2_PLACEMENT_3D('',#1410,#1195,#1196);
#936=AXIS2_PLACEMENT_3D('',#1411,#1197,#1198);
#937=DIRECTION('',(0.,0.,1.));
#938=DIRECTION('',(1.,0.,0.));
#939=DIRECTION('',(1.04948489504458E-23,-1.,4.96295745757333E-24));
#940=DIRECTION('',(-1.,-1.04948489504458E-23,0.));
#941=DIRECTION('',(-1.04948489504458E-23,1.,-4.96295745757333E-24));
#942=DIRECTION('',(1.,1.04948489504458E-23,0.));
#943=DIRECTION('',(-1.04948489504458E-23,1.,-4.96295745757333E-24));
#944=DIRECTION('',(1.,1.04948489504458E-23,0.));
#945=DIRECTION('',(1.04948489504458E-23,-1.,4.96295745757333E-24));
#946=DIRECTION('',(-1.,-1.04948489504458E-23,0.));
#947=DIRECTION('',(-1.04948489504458E-23,1.,-4.96295745757333E-24));
#948=DIRECTION('',(1.,1.04948489504458E-23,0.));
#949=DIRECTION('',(-1.04948489504458E-23,1.,-4.96295745757333E-24));
#950=DIRECTION('',(1.,1.04948489504458E-23,0.));
#951=DIRECTION('',(1.04948489504458E-23,-1.,4.96295745757333E-24));
#952=DIRECTION('',(-1.,-1.04948489504458E-23,0.));
#953=DIRECTION('',(-1.04948489504458E-23,1.,-4.96295745757333E-24));
#954=DIRECTION('',(1.,1.04948489504458E-23,0.));
#955=DIRECTION('',(-1.04948489504458E-23,1.,-4.96295745757333E-24));
#956=DIRECTION('',(1.,1.04948489504458E-23,0.));
#957=DIRECTION('',(1.04948489504458E-23,-1.,4.96295745757333E-24));
#958=DIRECTION('',(-1.,-1.04948489504458E-23,0.));
#959=DIRECTION('',(-1.04948489504458E-23,1.,-4.96295745757333E-24));
#960=DIRECTION('',(1.,1.04948489504458E-23,0.));
#961=DIRECTION('',(-1.04948489504458E-23,1.,-4.96295745757333E-24));
#962=DIRECTION('',(1.,1.04948489504458E-23,0.));
#963=DIRECTION('',(1.04948489504458E-23,-1.,4.96295745757333E-24));
#964=DIRECTION('',(-1.,-1.04948489504458E-23,0.));
#965=DIRECTION('',(-1.04948489504458E-23,1.,-4.96295745757333E-24));
#966=DIRECTION('',(1.,1.04948489504458E-23,0.));
#967=DIRECTION('',(-1.04948489504458E-23,1.,-4.96295745757333E-24));
#968=DIRECTION('',(1.,1.04948489504458E-23,0.));
#969=DIRECTION('',(1.04948489504458E-23,-1.,4.96295745757333E-24));
#970=DIRECTION('',(-1.,-1.04948489504458E-23,0.));
#971=DIRECTION('',(-1.04948489504458E-23,1.,-4.96295745757333E-24));
#972=DIRECTION('',(1.,1.04948489504458E-23,0.));
#973=DIRECTION('',(-1.04948489504458E-23,1.,-4.96295745757333E-24));
#974=DIRECTION('',(1.,1.04948489504458E-23,0.));
#975=DIRECTION('',(1.04948489504458E-23,-1.,4.96295745757333E-24));
#976=DIRECTION('',(-1.,-1.04948489504458E-23,0.));
#977=DIRECTION('',(-1.04948489504458E-23,1.,-4.96295745757333E-24));
#978=DIRECTION('',(1.,1.04948489504458E-23,0.));
#979=DIRECTION('',(-1.04948489504458E-23,1.,-4.96295745757333E-24));
#980=DIRECTION('',(1.,1.04948489504458E-23,0.));
#981=DIRECTION('',(1.04948489504458E-23,-1.,4.96295745757333E-24));
#982=DIRECTION('',(-1.,-1.04948489504458E-23,0.));
#983=DIRECTION('',(-1.04948489504458E-23,1.,-4.96295745757333E-24));
#984=DIRECTION('',(1.,1.04948489504458E-23,0.));
#985=DIRECTION('',(-1.04948489504458E-23,1.,-4.96295745757333E-24));
#986=DIRECTION('',(1.,1.04948489504458E-23,0.));
#987=DIRECTION('',(1.04948489504458E-23,-1.,4.96295745757333E-24));
#988=DIRECTION('',(-1.,-1.04948489504458E-23,0.));
#989=DIRECTION('',(-1.04948489504458E-23,1.,-4.96295745757333E-24));
#990=DIRECTION('',(1.,1.04948489504458E-23,0.));
#991=DIRECTION('',(-1.04948489504458E-23,1.,-4.96295745757333E-24));
#992=DIRECTION('',(1.,1.04948489504458E-23,0.));
#993=DIRECTION('',(1.04948489504458E-23,-1.,4.96295745757333E-24));
#994=DIRECTION('',(-1.,-1.04948489504458E-23,0.));
#995=DIRECTION('',(-1.04948489504458E-23,1.,-4.96295745757333E-24));
#996=DIRECTION('',(1.,1.04948489504458E-23,0.));
#997=DIRECTION('',(-1.04948489504458E-23,1.,-4.96295745757333E-24));
#998=DIRECTION('',(1.,1.04948489504458E-23,0.));
#999=DIRECTION('',(1.04948489504458E-23,-1.,4.96295745757333E-24));
#1000=DIRECTION('',(-1.,-1.04948489504458E-23,0.));
#1001=DIRECTION('',(-1.04948489504458E-23,1.,-4.96295745757333E-24));
#1002=DIRECTION('',(1.,1.04948489504458E-23,0.));
#1003=DIRECTION('',(-1.04948489504458E-23,1.,-4.96295745757333E-24));
#1004=DIRECTION('',(1.,1.04948489504458E-23,0.));
#1005=DIRECTION('',(1.04948489504458E-23,-1.,4.96295745757333E-24));
#1006=DIRECTION('',(-1.,-1.04948489504458E-23,0.));
#1007=DIRECTION('',(-1.04948489504458E-23,1.,-4.96295745757333E-24));
#1008=DIRECTION('',(1.,1.04948489504458E-23,0.));
#1009=DIRECTION('',(-1.04948489504458E-23,1.,-4.96295745757333E-24));
#1010=DIRECTION('',(1.,1.04948489504458E-23,0.));
#1011=DIRECTION('',(1.04948489504458E-23,-1.,4.96295745757333E-24));
#1012=DIRECTION('',(-1.,-1.04948489504458E-23,0.));
#1013=DIRECTION('',(-1.04948489504458E-23,1.,-4.96295745757333E-24));
#1014=DIRECTION('',(1.,1.04948489504458E-23,0.));
#1015=DIRECTION('',(-1.04948489504458E-23,1.,-4.96295745757333E-24));
#1016=DIRECTION('',(1.,1.04948489504458E-23,0.));
#1017=DIRECTION('',(1.04948489504458E-23,-1.,4.96295745757333E-24));
#1018=DIRECTION('',(-1.,-1.04948489504458E-23,0.));
#1019=DIRECTION('',(-1.04948489504458E-23,1.,-4.96295745757333E-24));
#1020=DIRECTION('',(1.,1.04948489504458E-23,0.));
#1021=DIRECTION('',(-1.04948489504458E-23,1.,-4.96295745757333E-24));
#1022=DIRECTION('',(1.,1.04948489504458E-23,0.));
#1023=DIRECTION('',(1.07339009949721E-16,4.96295745757333E-24,1.));
#1024=DIRECTION('',(1.,0.,-1.07339009949721E-16));
#1025=DIRECTION('',(-1.,-1.04948489504458E-23,1.07339009949721E-16));
#1026=DIRECTION('',(1.04948489504458E-23,-1.,4.96295745757333E-24));
#1027=DIRECTION('',(-1.,-1.04948489504458E-23,1.07339009949721E-16));
#1028=DIRECTION('',(1.04948489504458E-23,-1.,4.96295745757333E-24));
#1029=DIRECTION('',(-1.,-1.04948489504458E-23,0.));
#1030=DIRECTION('',(-1.04948489504458E-23,1.,0.));
#1031=DIRECTION('',(5.20854888647204E-47,-4.96295745757333E-24,-1.));
#1032=DIRECTION('',(1.04948489504458E-23,-1.,4.96295745757333E-24));
#1033=DIRECTION('',(5.20854888647204E-47,-4.96295745757333E-24,-1.));
#1034=DIRECTION('',(1.04948489504458E-23,-1.,4.96295745757333E-24));
#1035=DIRECTION('',(1.6326809185664E-16,4.96295745757333E-24,1.));
#1036=DIRECTION('',(1.,0.,-1.6326809185664E-16));
#1037=DIRECTION('',(-1.,-1.04948489504458E-23,1.6326809185664E-16));
#1038=DIRECTION('',(1.04948489504458E-23,-1.,4.96295745757333E-24));
#1039=DIRECTION('',(-1.,-1.04948489504458E-23,1.6326809185664E-16));
#1040=DIRECTION('',(1.04948489504458E-23,-1.,4.96295745757333E-24));
#1041=DIRECTION('',(-1.,-1.04948489504458E-23,-7.77124717458173E-17));
#1042=DIRECTION('',(-7.77124717458173E-17,0.,1.));
#1043=DIRECTION('',(7.77124717458173E-17,-4.96295745757333E-24,-1.));
#1044=DIRECTION('',(1.04948489504458E-23,-1.,4.96295745757333E-24));
#1045=DIRECTION('',(7.77124717458173E-17,-4.96295745757333E-24,-1.));
#1046=DIRECTION('',(1.04948489504458E-23,-1.,4.96295745757333E-24));
#1047=DIRECTION('',(-1.04948489504458E-23,1.,-4.96295745757333E-24));
#1048=DIRECTION('',(1.,1.04948489504458E-23,-5.20854888647204E-47));
#1049=DIRECTION('',(-1.04948489504458E-23,1.,-4.96295745757333E-24));
#1050=DIRECTION('',(1.,1.04948489504458E-23,0.));
#1051=DIRECTION('',(-1.04948489504458E-23,1.,-4.96295745757333E-24));
#1052=DIRECTION('',(1.,1.04948489504458E-23,0.));
#1053=DIRECTION('',(-1.04948489504458E-23,1.,-4.96295745757333E-24));
#1054=DIRECTION('',(1.,1.04948489504458E-23,0.));
#1055=DIRECTION('',(-1.04948489504458E-23,1.,-4.96295745757333E-24));
#1056=DIRECTION('',(1.,1.04948489504458E-23,0.));
#1057=DIRECTION('',(-1.04948489504458E-23,1.,-4.96295745757333E-24));
#1058=DIRECTION('',(1.,1.04948489504458E-23,0.));
#1059=DIRECTION('',(-1.04948489504458E-23,1.,-4.96295745757333E-24));
#1060=DIRECTION('',(1.,1.04948489504458E-23,0.));
#1061=DIRECTION('',(-1.04948489504458E-23,1.,-4.96295745757333E-24));
#1062=DIRECTION('',(1.,1.04948489504458E-23,0.));
#1063=DIRECTION('',(-1.04948489504458E-23,1.,-4.96295745757333E-24));
#1064=DIRECTION('',(1.,1.04948489504458E-23,0.));
#1065=DIRECTION('',(-1.04948489504458E-23,1.,-4.96295745757333E-24));
#1066=DIRECTION('',(1.,1.04948489504458E-23,0.));
#1067=DIRECTION('',(-1.04948489504458E-23,1.,-4.96295745757333E-24));
#1068=DIRECTION('',(1.,1.04948489504458E-23,0.));
#1069=DIRECTION('',(-1.04948489504458E-23,1.,-4.96295745757333E-24));
#1070=DIRECTION('',(1.,1.04948489504458E-23,0.));
#1071=DIRECTION('',(-1.04948489504458E-23,1.,-4.96295745757333E-24));
#1072=DIRECTION('',(1.,1.04948489504458E-23,0.));
#1073=DIRECTION('',(-1.04948489504458E-23,1.,-4.96295745757333E-24));
#1074=DIRECTION('',(1.,1.04948489504458E-23,0.));
#1075=DIRECTION('',(-1.04948489504458E-23,1.,-4.96295745757333E-24));
#1076=DIRECTION('',(1.,1.04948489504458E-23,0.));
#1077=DIRECTION('',(7.77124717458173E-17,-4.96295745757333E-24,-1.));
#1078=DIRECTION('',(5.20854888647204E-47,-4.96295745757333E-24,-1.));
#1079=DIRECTION('',(-1.04948489504458E-23,1.,-4.96295745757333E-24));
#1080=DIRECTION('',(1.,1.04948489504458E-23,-5.20854888647204E-47));
#1081=DIRECTION('',(7.77124717458173E-17,-4.96295745757333E-24,-1.));
#1082=DIRECTION('',(5.20854888647204E-47,-4.96295745757333E-24,-1.));
#1083=DIRECTION('',(-1.04948489504458E-23,1.,-4.96295745757333E-24));
#1084=DIRECTION('',(1.,1.04948489504458E-23,0.));
#1085=DIRECTION('',(-1.04948489504458E-23,1.,-4.96295745757333E-24));
#1086=DIRECTION('',(1.,1.04948489504458E-23,0.));
#1087=DIRECTION('',(-1.04948489504458E-23,1.,-4.96295745757333E-24));
#1088=DIRECTION('',(1.,1.04948489504458E-23,-5.20854888647204E-47));
#1089=DIRECTION('',(-1.04948489504458E-23,1.,-4.96295745757333E-24));
#1090=DIRECTION('',(1.,1.04948489504458E-23,0.));
#1091=DIRECTION('',(-1.04948489504458E-23,1.,-4.96295745757333E-24));
#1092=DIRECTION('',(1.,1.04948489504458E-23,0.));
#1093=DIRECTION('',(-1.04948489504458E-23,1.,-4.96295745757333E-24));
#1094=DIRECTION('',(1.,1.04948489504458E-23,-5.20854888647204E-47));
#1095=DIRECTION('',(-1.04948489504458E-23,1.,-4.96295745757333E-24));
#1096=DIRECTION('',(1.,1.04948489504458E-23,0.));
#1097=DIRECTION('',(-1.04948489504458E-23,1.,-4.96295745757333E-24));
#1098=DIRECTION('',(1.,1.04948489504458E-23,0.));
#1099=DIRECTION('',(-1.04948489504458E-23,1.,-4.96295745757333E-24));
#1100=DIRECTION('',(1.,1.04948489504458E-23,-5.20854888647204E-47));
#1101=DIRECTION('',(-1.04948489504458E-23,1.,-4.96295745757333E-24));
#1102=DIRECTION('',(1.,1.04948489504458E-23,0.));
#1103=DIRECTION('',(-1.04948489504458E-23,1.,-4.96295745757333E-24));
#1104=DIRECTION('',(1.,1.04948489504458E-23,0.));
#1105=DIRECTION('',(-1.04948489504458E-23,1.,-4.96295745757333E-24));
#1106=DIRECTION('',(1.,1.04948489504458E-23,-5.20854888647204E-47));
#1107=DIRECTION('',(-1.04948489504458E-23,1.,-4.96295745757333E-24));
#1108=DIRECTION('',(1.,1.04948489504458E-23,0.));
#1109=DIRECTION('',(-1.04948489504458E-23,1.,-4.96295745757333E-24));
#1110=DIRECTION('',(1.,1.04948489504458E-23,0.));
#1111=DIRECTION('',(-1.04948489504458E-23,1.,-4.96295745757333E-24));
#1112=DIRECTION('',(1.,1.04948489504458E-23,-5.20854888647204E-47));
#1113=DIRECTION('',(-1.04948489504458E-23,1.,-4.96295745757333E-24));
#1114=DIRECTION('',(1.,1.04948489504458E-23,0.));
#1115=DIRECTION('',(-1.04948489504458E-23,1.,-4.96295745757333E-24));
#1116=DIRECTION('',(1.,1.04948489504458E-23,0.));
#1117=DIRECTION('',(-1.04948489504458E-23,1.,-4.96295745757333E-24));
#1118=DIRECTION('',(1.,1.04948489504458E-23,-5.20854888647204E-47));
#1119=DIRECTION('',(-1.04948489504458E-23,1.,-4.96295745757333E-24));
#1120=DIRECTION('',(1.,1.04948489504458E-23,0.));
#1121=DIRECTION('',(-1.04948489504458E-23,1.,-4.96295745757333E-24));
#1122=DIRECTION('',(1.,1.04948489504458E-23,0.));
#1123=DIRECTION('',(-1.04948489504458E-23,1.,-4.96295745757333E-24));
#1124=DIRECTION('',(1.,1.04948489504458E-23,-5.20854888647204E-47));
#1125=DIRECTION('',(-1.04948489504458E-23,1.,-4.96295745757333E-24));
#1126=DIRECTION('',(1.,1.04948489504458E-23,0.));
#1127=DIRECTION('',(-1.04948489504458E-23,1.,-4.96295745757333E-24));
#1128=DIRECTION('',(1.,1.04948489504458E-23,0.));
#1129=DIRECTION('',(-1.04948489504458E-23,1.,-4.96295745757333E-24));
#1130=DIRECTION('',(1.,1.04948489504458E-23,-5.20854888647204E-47));
#1131=DIRECTION('',(-1.04948489504458E-23,1.,-4.96295745757333E-24));
#1132=DIRECTION('',(1.,1.04948489504458E-23,0.));
#1133=DIRECTION('',(-1.04948489504458E-23,1.,-4.96295745757333E-24));
#1134=DIRECTION('',(1.,1.04948489504458E-23,0.));
#1135=DIRECTION('',(-1.04948489504458E-23,1.,-4.96295745757333E-24));
#1136=DIRECTION('',(1.,1.04948489504458E-23,-5.20854888647204E-47));
#1137=DIRECTION('',(-1.04948489504458E-23,1.,-4.96295745757333E-24));
#1138=DIRECTION('',(1.,1.04948489504458E-23,0.));
#1139=DIRECTION('',(-1.04948489504458E-23,1.,-4.96295745757333E-24));
#1140=DIRECTION('',(1.,1.04948489504458E-23,0.));
#1141=DIRECTION('',(-1.04948489504458E-23,1.,-4.96295745757333E-24));
#1142=DIRECTION('',(1.,1.04948489504458E-23,-5.20854888647204E-47));
#1143=DIRECTION('',(-1.04948489504458E-23,1.,-4.96295745757333E-24));
#1144=DIRECTION('',(1.,1.04948489504458E-23,0.));
#1145=DIRECTION('',(-1.04948489504458E-23,1.,-4.96295745757333E-24));
#1146=DIRECTION('',(1.,1.04948489504458E-23,0.));
#1147=DIRECTION('',(-1.04948489504458E-23,1.,-4.96295745757333E-24));
#1148=DIRECTION('',(1.,1.04948489504458E-23,-5.20854888647204E-47));
#1149=DIRECTION('',(-1.04948489504458E-23,1.,-4.96295745757333E-24));
#1150=DIRECTION('',(1.,1.04948489504458E-23,0.));
#1151=DIRECTION('',(-1.04948489504458E-23,1.,-4.96295745757333E-24));
#1152=DIRECTION('',(1.,1.04948489504458E-23,0.));
#1153=DIRECTION('',(-1.04948489504458E-23,1.,-4.96295745757333E-24));
#1154=DIRECTION('',(1.,1.04948489504458E-23,-5.20854888647204E-47));
#1155=DIRECTION('',(-1.04948489504458E-23,1.,-4.96295745757333E-24));
#1156=DIRECTION('',(1.,1.04948489504458E-23,0.));
#1157=DIRECTION('',(-1.04948489504458E-23,1.,-4.96295745757333E-24));
#1158=DIRECTION('',(1.,1.04948489504458E-23,0.));
#1159=DIRECTION('',(-1.04948489504458E-23,1.,-4.96295745757333E-24));
#1160=DIRECTION('',(1.,1.04948489504458E-23,-5.20854888647204E-47));
#1161=DIRECTION('',(-1.04948489504458E-23,1.,-4.96295745757333E-24));
#1162=DIRECTION('',(1.,1.04948489504458E-23,0.));
#1163=DIRECTION('',(-1.04948489504458E-23,1.,-4.96295745757333E-24));
#1164=DIRECTION('',(1.,1.04948489504458E-23,0.));
#1165=DIRECTION('',(-1.04948489504458E-23,1.,-4.96295745757333E-24));
#1166=DIRECTION('',(1.,1.04948489504458E-23,-5.20854888647204E-47));
#1167=DIRECTION('',(-7.77124717458173E-17,4.96295745757333E-24,1.));
#1168=DIRECTION('',(1.,0.,7.77124717458173E-17));
#1169=DIRECTION('',(5.49510083332565E-17,0.707106781186548,-0.707106781186548));
#1170=DIRECTION('',(-5.49510231752142E-17,0.707106781186548,0.707106781186548));
#1171=DIRECTION('',(5.49510231752142E-17,-0.707106781186548,-0.707106781186548));
#1172=DIRECTION('',(-5.49510083332565E-17,-0.707106781186548,0.707106781186548));
#1173=DIRECTION('',(1.04948489504458E-23,-1.,4.96295745757333E-24));
#1174=DIRECTION('',(-1.,-1.04948489504458E-23,0.));
#1175=DIRECTION('',(-5.49510083332565E-17,-0.707106781186548,0.707106781186548));
#1176=DIRECTION('',(5.49510231752142E-17,-0.707106781186548,-0.707106781186548));
#1177=DIRECTION('',(-1.04948489504458E-23,1.,-4.96295745757333E-24));
#1178=DIRECTION('',(1.,1.04948489504458E-23,0.));
#1179=DIRECTION('',(-5.49510231752142E-17,0.707106781186548,0.707106781186548));
#1180=DIRECTION('',(5.49510083332565E-17,0.707106781186548,-0.707106781186548));
#1181=DIRECTION('',(7.77124717458173E-17,-4.96295745757333E-24,-1.));
#1182=DIRECTION('',(-1.,0.,-7.77124717458173E-17));
#1183=DIRECTION('',(-5.20854888647204E-47,4.96295745757333E-24,1.));
#1184=DIRECTION('',(0.,-1.,4.96295745757333E-24));
#1185=DIRECTION('',(7.42097886038872E-24,-0.707106781186548,-0.707106781186548));
#1186=DIRECTION('',(7.42097886038872E-24,-0.707106781186548,0.707106781186548));
#1187=DIRECTION('',(-7.42097886038872E-24,0.707106781186548,-0.707106781186548));
#1188=DIRECTION('',(-7.42097886038872E-24,0.707106781186548,0.707106781186548));
#1189=DIRECTION('',(-1.04948489504458E-23,1.,-4.96295745757333E-24));
#1190=DIRECTION('',(1.,1.04948489504458E-23,0.));
#1191=DIRECTION('',(-7.42097886038872E-24,0.707106781186548,0.707106781186548));
#1192=DIRECTION('',(-7.42097886038872E-24,0.707106781186548,-0.707106781186548));
#1193=DIRECTION('',(1.04948489504458E-23,-1.,4.96295745757333E-24));
#1194=DIRECTION('',(-1.,-1.04948489504458E-23,0.));
#1195=DIRECTION('',(7.42097886038872E-24,-0.707106781186548,0.707106781186548));
#1196=DIRECTION('',(7.42097886038872E-24,-0.707106781186548,-0.707106781186548));
#1197=DIRECTION('',(5.20854888647204E-47,-4.96295745757333E-24,-1.));
#1198=DIRECTION('',(0.,1.,-4.96295745757333E-24));
#1199=CARTESIAN_POINT('',(0.,0.,0.));
#1200=CARTESIAN_POINT('',(0.112047286363362,0.037,-0.0350000001557633));
#1201=CARTESIAN_POINT('',(0.112047286363362,0.025,-0.0350000001557633));
#1202=CARTESIAN_POINT('',(0.115297286363362,0.025,-0.0350000001557633));
#1203=CARTESIAN_POINT('',(0.112047286363362,0.0305,-0.0350000001557633));
#1204=CARTESIAN_POINT('',(0.115297286363362,0.0305,-0.0350000001557633));
#1205=CARTESIAN_POINT('',(0.112047286478135,0.037,-1.5576318033089E-10));
#1206=CARTESIAN_POINT('',(0.112047286478135,0.025,-1.5576318033089E-10));
#1207=CARTESIAN_POINT('',(0.115297286478135,0.025,-1.5576318033089E-10));
#1208=CARTESIAN_POINT('',(0.112047286478135,0.0305,-1.5576318033089E-10));
#1209=CARTESIAN_POINT('',(0.115297286478135,0.0305,-1.5576318033089E-10));
#1210=CARTESIAN_POINT('',(0.112047286592908,0.037,0.0349999998442369));
#1211=CARTESIAN_POINT('',(0.112047286592908,0.025,0.0349999998442369));
#1212=CARTESIAN_POINT('',(0.115297286592908,0.025,0.0349999998442369));
#1213=CARTESIAN_POINT('',(0.112047286592908,0.0305,0.0349999998442369));
#1214=CARTESIAN_POINT('',(0.115297286592908,0.0305,0.0349999998442369));
#1215=CARTESIAN_POINT('',(0.017047286592909,0.037,0.0350000001557651));
#1216=CARTESIAN_POINT('',(0.017047286592909,0.025,0.0350000001557651));
#1217=CARTESIAN_POINT('',(0.020297286592909,0.025,0.0350000001557651));
#1218=CARTESIAN_POINT('',(0.017047286592909,0.0305,0.0350000001557651));
#1219=CARTESIAN_POINT('',(0.020297286592909,0.0305,0.0350000001557651));
#1220=CARTESIAN_POINT('',(0.0170472864781359,0.037,1.55764956289719E-10));
#1221=CARTESIAN_POINT('',(0.0170472864781359,0.025,1.55764956289719E-10));
#1222=CARTESIAN_POINT('',(0.0202972864781359,0.025,1.55764956289719E-10));
#1223=CARTESIAN_POINT('',(0.0170472864781359,0.0305,1.55764956289719E-10));
#1224=CARTESIAN_POINT('',(0.0202972864781359,0.0305,1.55764956289719E-10));
#1225=CARTESIAN_POINT('',(0.017047286363363,0.037,-0.0349999998442352));
#1226=CARTESIAN_POINT('',(0.017047286363363,0.025,-0.0349999998442352));
#1227=CARTESIAN_POINT('',(0.020297286363363,0.025,-0.0349999998442352));
#1228=CARTESIAN_POINT('',(0.017047286363363,0.0305,-0.0349999998442352));
#1229=CARTESIAN_POINT('',(0.020297286363363,0.0305,-0.0349999998442352));
#1230=CARTESIAN_POINT('',(0.0325472869246985,0.037,-0.018));
#1231=CARTESIAN_POINT('',(0.0325472869246985,0.025,-0.018));
#1232=CARTESIAN_POINT('',(0.0352972869246986,0.025,-0.018));
#1233=CARTESIAN_POINT('',(0.0325472869246985,0.0311,-0.018));
#1234=CARTESIAN_POINT('',(0.0352972869246986,0.0311,-0.018));
#1235=CARTESIAN_POINT('',(0.0965472869246985,0.037,-0.018));
#1236=CARTESIAN_POINT('',(0.0965472869246985,0.025,-0.018));
#1237=CARTESIAN_POINT('',(0.0992972869246985,0.025,-0.018));
#1238=CARTESIAN_POINT('',(0.0965472869246985,0.0311,-0.018));
#1239=CARTESIAN_POINT('',(0.0992972869246985,0.0311,-0.018));
#1240=CARTESIAN_POINT('',(0.0965472869246985,0.037,0.018));
#1241=CARTESIAN_POINT('',(0.0965472869246985,0.025,0.018));
#1242=CARTESIAN_POINT('',(0.0992972869246985,0.025,0.018));
#1243=CARTESIAN_POINT('',(0.0965472869246985,0.0311,0.018));
#1244=CARTESIAN_POINT('',(0.0992972869246985,0.0311,0.018));
#1245=CARTESIAN_POINT('',(0.128547286924698,0.037,-0.018));
#1246=CARTESIAN_POINT('',(0.128547286924698,0.025,-0.018));
#1247=CARTESIAN_POINT('',(0.131297286924698,0.025,-0.018));
#1248=CARTESIAN_POINT('',(0.128547286924698,0.0311,-0.018));
#1249=CARTESIAN_POINT('',(0.131297286924698,0.0311,-0.018));
#1250=CARTESIAN_POINT('',(0.128547286924698,0.037,0.018));
#1251=CARTESIAN_POINT('',(0.128547286924698,0.025,0.018));
#1252=CARTESIAN_POINT('',(0.131297286924698,0.025,0.018));
#1253=CARTESIAN_POINT('',(0.128547286924698,0.0311,0.018));
#1254=CARTESIAN_POINT('',(0.131297286924698,0.0311,0.018));
#1255=CARTESIAN_POINT('',(0.000547286924698534,0.037,0.018));
#1256=CARTESIAN_POINT('',(0.000547286924698534,0.025,0.018));
#1257=CARTESIAN_POINT('',(0.00329728692469853,0.025,0.018));
#1258=CARTESIAN_POINT('',(0.000547286924698534,0.0311,0.018));
#1259=CARTESIAN_POINT('',(0.00329728692469853,0.0311,0.018));
#1260=CARTESIAN_POINT('',(0.000547286924698534,0.037,-0.018));
#1261=CARTESIAN_POINT('',(0.000547286924698534,0.025,-0.018));
#1262=CARTESIAN_POINT('',(0.00329728692469853,0.025,-0.018));
#1263=CARTESIAN_POINT('',(0.000547286924698534,0.0311,-0.018));
#1264=CARTESIAN_POINT('',(0.00329728692469853,0.0311,-0.018));
#1265=CARTESIAN_POINT('',(0.0325472869246985,0.037,0.018));
#1266=CARTESIAN_POINT('',(0.0325472869246985,0.025,0.018));
#1267=CARTESIAN_POINT('',(0.0352972869246986,0.025,0.018));
#1268=CARTESIAN_POINT('',(0.0325472869246985,0.0311,0.018));
#1269=CARTESIAN_POINT('',(0.0352972869246986,0.0311,0.018));
#1270=CARTESIAN_POINT('',(0.0849026257506134,0.037,0.065));
#1271=CARTESIAN_POINT('',(0.0849026257506134,0.025,0.065));
#1272=CARTESIAN_POINT('',(0.146547286691286,0.025,0.065));
#1273=CARTESIAN_POINT('',(-0.017452713308714,0.025,0.065));
#1274=CARTESIAN_POINT('',(0.146547286691286,0.037,0.065));
#1275=CARTESIAN_POINT('',(0.146547286691286,0.037,0.065));
#1276=CARTESIAN_POINT('',(0.0849026257506134,0.037,0.065));
#1277=CARTESIAN_POINT('',(-0.017452713308714,0.037,0.065));
#1278=CARTESIAN_POINT('',(-0.017452713308714,0.037,0.065));
#1279=CARTESIAN_POINT('',(0.149547286691286,0.037,1.3877787748259E-17));
#1280=CARTESIAN_POINT('',(0.149547286691286,0.028,1.38777877929256E-17));
#1281=CARTESIAN_POINT('',(0.149547286691286,0.028,0.062));
#1282=CARTESIAN_POINT('',(0.149547286691286,0.028,-0.062));
#1283=CARTESIAN_POINT('',(0.149547286691286,0.037,-0.062));
#1284=CARTESIAN_POINT('',(0.149547286691286,0.034,-0.062));
#1285=CARTESIAN_POINT('',(0.149547286691286,0.034,0.065));
#1286=CARTESIAN_POINT('',(0.149547286691286,0.034,0.062));
#1287=CARTESIAN_POINT('',(0.149547286691286,0.025,0.062));
#1288=CARTESIAN_POINT('',(0.064547286691286,0.037,-0.065));
#1289=CARTESIAN_POINT('',(0.064547286691286,0.037,-0.065));
#1290=CARTESIAN_POINT('',(0.146547286691286,0.037,-0.065));
#1291=CARTESIAN_POINT('',(-0.017452713308714,0.037,-0.065));
#1292=CARTESIAN_POINT('',(0.146547286691286,0.037,-0.065));
#1293=CARTESIAN_POINT('',(0.146547286691286,0.025,-0.065));
#1294=CARTESIAN_POINT('',(0.064547286691286,0.025,-0.065));
#1295=CARTESIAN_POINT('',(-0.017452713308714,0.025,-0.065));
#1296=CARTESIAN_POINT('',(-0.017452713308714,0.037,-0.065));
#1297=CARTESIAN_POINT('',(-0.0204527133087141,0.037,-0.0203553390593274));
#1298=CARTESIAN_POINT('',(-0.0204527133087141,0.034,-0.0203553390593274));
#1299=CARTESIAN_POINT('',(-0.0204527133087141,0.034,0.062));
#1300=CARTESIAN_POINT('',(-0.020452713308714,0.034,-0.062));
#1301=CARTESIAN_POINT('',(-0.020452713308714,0.025,-0.062));
#1302=CARTESIAN_POINT('',(-0.020452713308714,0.028,-0.062));
#1303=CARTESIAN_POINT('',(-0.0204527133087141,0.028,0.065));
#1304=CARTESIAN_POINT('',(-0.0204527133087141,0.028,0.062));
#1305=CARTESIAN_POINT('',(-0.0204527133087141,0.037,0.062));
#1306=CARTESIAN_POINT('',(0.064547286691286,0.037,-1.83629425930213E-25));
#1307=CARTESIAN_POINT('',(0.017047286363363,0.037,-0.0349999998442352));
#1308=CARTESIAN_POINT('',(0.022297286363363,0.037,-0.0349999998442352));
#1309=CARTESIAN_POINT('',(0.017047286592909,0.037,0.0350000001557651));
#1310=CARTESIAN_POINT('',(0.022297286592909,0.037,0.0350000001557651));
#1311=CARTESIAN_POINT('',(0.112047286592908,0.037,0.0349999998442369));
#1312=CARTESIAN_POINT('',(0.117297286592908,0.037,0.0349999998442369));
#1313=CARTESIAN_POINT('',(0.112047286478135,0.037,-1.55763180453355E-10));
#1314=CARTESIAN_POINT('',(0.117297286478135,0.037,-1.55763180453355E-10));
#1315=CARTESIAN_POINT('',(0.112047286363362,0.037,-0.0350000001557633));
#1316=CARTESIAN_POINT('',(0.117297286363362,0.037,-0.0350000001557633));
#1317=CARTESIAN_POINT('',(0.0170472864781359,0.037,1.55764956167254E-10));
#1318=CARTESIAN_POINT('',(0.022297286478136,0.037,1.55764956167254E-10));
#1319=CARTESIAN_POINT('',(0.128547286924698,0.037,-0.018));
#1320=CARTESIAN_POINT('',(0.132947286924698,0.037,-0.018));
#1321=CARTESIAN_POINT('',(0.128547286924698,0.037,0.018));
#1322=CARTESIAN_POINT('',(0.132947286924698,0.037,0.018));
#1323=CARTESIAN_POINT('',(0.0965472869246985,0.037,0.018));
#1324=CARTESIAN_POINT('',(0.100947286924698,0.037,0.018));
#1325=CARTESIAN_POINT('',(0.000547286924698534,0.037,-0.018));
#1326=CARTESIAN_POINT('',(0.00494728692469853,0.037,-0.018));
#1327=CARTESIAN_POINT('',(0.0325472869246985,0.037,-0.018));
#1328=CARTESIAN_POINT('',(0.0369472869246985,0.037,-0.018));
#1329=CARTESIAN_POINT('',(0.0325472869246985,0.037,0.018));
#1330=CARTESIAN_POINT('',(0.0369472869246985,0.037,0.018));
#1331=CARTESIAN_POINT('',(0.000547286924698534,0.037,0.018));
#1332=CARTESIAN_POINT('',(0.00494728692469853,0.037,0.018));
#1333=CARTESIAN_POINT('',(0.0965472869246985,0.037,-0.018));
#1334=CARTESIAN_POINT('',(0.100947286924698,0.037,-0.018));
#1335=CARTESIAN_POINT('',(-0.017452713308714,0.037,-6.37242286678644E-18));
#1336=CARTESIAN_POINT('',(0.146547286691286,0.037,-0.065));
#1337=CARTESIAN_POINT('',(0.064547286691286,0.025,-1.24073936439333E-25));
#1338=CARTESIAN_POINT('',(-0.017452713308714,0.025,-0.065));
#1339=CARTESIAN_POINT('',(0.146547286691286,0.025,-1.24073936439333E-25));
#1340=CARTESIAN_POINT('',(0.0965472869246985,0.0311,-0.018));
#1341=CARTESIAN_POINT('',(0.0965472869246985,0.0311,-0.018));
#1342=CARTESIAN_POINT('',(0.100947286924698,0.0311,-0.018));
#1343=CARTESIAN_POINT('',(0.064547286691286,0.0311,-1.54347976930531E-25));
#1344=CARTESIAN_POINT('',(0.000547286924698534,0.0311,0.018));
#1345=CARTESIAN_POINT('',(0.000547286924698534,0.0311,0.018));
#1346=CARTESIAN_POINT('',(0.00494728692469853,0.0311,0.018));
#1347=CARTESIAN_POINT('',(0.064547286691286,0.0311,-1.54347976930531E-25));
#1348=CARTESIAN_POINT('',(0.0325472869246985,0.0311,0.018));
#1349=CARTESIAN_POINT('',(0.0325472869246985,0.0311,0.018));
#1350=CARTESIAN_POINT('',(0.0369472869246985,0.0311,0.018));
#1351=CARTESIAN_POINT('',(0.064547286691286,0.0311,-1.54347976930531E-25));
#1352=CARTESIAN_POINT('',(0.0325472869246985,0.0311,-0.018));
#1353=CARTESIAN_POINT('',(0.0325472869246985,0.0311,-0.018));
#1354=CARTESIAN_POINT('',(0.0369472869246985,0.0311,-0.018));
#1355=CARTESIAN_POINT('',(0.064547286691286,0.0311,-1.54347976930531E-25));
#1356=CARTESIAN_POINT('',(0.000547286924698534,0.0311,-0.018));
#1357=CARTESIAN_POINT('',(0.000547286924698534,0.0311,-0.018));
#1358=CARTESIAN_POINT('',(0.00494728692469853,0.0311,-0.018));
#1359=CARTESIAN_POINT('',(0.064547286691286,0.0311,-1.54347976930531E-25));
#1360=CARTESIAN_POINT('',(0.0965472869246985,0.0311,0.018));
#1361=CARTESIAN_POINT('',(0.0965472869246985,0.0311,0.018));
#1362=CARTESIAN_POINT('',(0.100947286924698,0.0311,0.018));
#1363=CARTESIAN_POINT('',(0.064547286691286,0.0311,-1.54347976930531E-25));
#1364=CARTESIAN_POINT('',(0.128547286924698,0.0311,0.018));
#1365=CARTESIAN_POINT('',(0.128547286924698,0.0311,0.018));
#1366=CARTESIAN_POINT('',(0.132947286924698,0.0311,0.018));
#1367=CARTESIAN_POINT('',(0.064547286691286,0.0311,-1.54347976930531E-25));
#1368=CARTESIAN_POINT('',(0.128547286924698,0.0311,-0.018));
#1369=CARTESIAN_POINT('',(0.128547286924698,0.0311,-0.018));
#1370=CARTESIAN_POINT('',(0.132947286924698,0.0311,-0.018));
#1371=CARTESIAN_POINT('',(0.064547286691286,0.0311,-1.54347976930531E-25));
#1372=CARTESIAN_POINT('',(0.0170472864781359,0.0305,1.55764956167254E-10));
#1373=CARTESIAN_POINT('',(0.0170472864781359,0.0305,1.55764956167254E-10));
#1374=CARTESIAN_POINT('',(0.022297286478136,0.0305,1.55764956167254E-10));
#1375=CARTESIAN_POINT('',(0.064547286691286,0.0305,-1.51370202455987E-25));
#1376=CARTESIAN_POINT('',(0.112047286363362,0.0305,-0.0350000001557633));
#1377=CARTESIAN_POINT('',(0.112047286363362,0.0305,-0.0350000001557633));
#1378=CARTESIAN_POINT('',(0.117297286363362,0.0305,-0.0350000001557633));
#1379=CARTESIAN_POINT('',(0.064547286691286,0.0305,-1.51370202455987E-25));
#1380=CARTESIAN_POINT('',(0.112047286478135,0.0305,-1.55763180453355E-10));
#1381=CARTESIAN_POINT('',(0.112047286478135,0.0305,-1.55763180453355E-10));
#1382=CARTESIAN_POINT('',(0.117297286478135,0.0305,-1.55763180453355E-10));
#1383=CARTESIAN_POINT('',(0.064547286691286,0.0305,-1.51370202455987E-25));
#1384=CARTESIAN_POINT('',(0.112047286592908,0.0305,0.0349999998442369));
#1385=CARTESIAN_POINT('',(0.112047286592908,0.0305,0.0349999998442369));
#1386=CARTESIAN_POINT('',(0.117297286592908,0.0305,0.0349999998442369));
#1387=CARTESIAN_POINT('',(0.064547286691286,0.0305,-1.51370202455987E-25));
#1388=CARTESIAN_POINT('',(0.017047286592909,0.0305,0.0350000001557651));
#1389=CARTESIAN_POINT('',(0.017047286592909,0.0305,0.0350000001557651));
#1390=CARTESIAN_POINT('',(0.022297286592909,0.0305,0.0350000001557651));
#1391=CARTESIAN_POINT('',(0.064547286691286,0.0305,-1.51370202455987E-25));
#1392=CARTESIAN_POINT('',(0.017047286363363,0.0305,-0.0349999998442352));
#1393=CARTESIAN_POINT('',(0.017047286363363,0.0305,-0.0349999998442352));
#1394=CARTESIAN_POINT('',(0.022297286363363,0.0305,-0.0349999998442352));
#1395=CARTESIAN_POINT('',(0.064547286691286,0.0305,-1.51370202455987E-25));
#1396=CARTESIAN_POINT('',(-0.017452713308714,0.028,-6.37242282211982E-18));
#1397=CARTESIAN_POINT('',(-0.017452713308714,0.028,-0.062));
#1398=CARTESIAN_POINT('',(-0.017452713308714,0.028,0.062));
#1399=CARTESIAN_POINT('',(-0.017452713308714,0.037,0.062));
#1400=CARTESIAN_POINT('',(-0.017452713308714,0.034,0.062));
#1401=CARTESIAN_POINT('',(-0.017452713308714,0.037,-0.062));
#1402=CARTESIAN_POINT('',(-0.017452713308714,0.034,-0.062));
#1403=CARTESIAN_POINT('',(-0.017452713308714,0.034,-0.0203553390593274));
#1404=CARTESIAN_POINT('',(0.146547286691286,0.034,-1.68740553557493E-25));
#1405=CARTESIAN_POINT('',(0.146547286691286,0.034,-0.062));
#1406=CARTESIAN_POINT('',(0.146547286691286,0.034,0.062));
#1407=CARTESIAN_POINT('',(0.146547286691286,0.037,0.062));
#1408=CARTESIAN_POINT('',(0.146547286691286,0.028,0.062));
#1409=CARTESIAN_POINT('',(0.146547286691286,0.037,-0.062));
#1410=CARTESIAN_POINT('',(0.146547286691286,0.028,-0.062));
#1411=CARTESIAN_POINT('',(0.146547286691286,0.028,1.38777877929256E-17));
#1412=MECHANICAL_DESIGN_GEOMETRIC_PRESENTATION_REPRESENTATION('',(#805),
#1413);
#1413=(
GEOMETRIC_REPRESENTATION_CONTEXT(3)
GLOBAL_UNCERTAINTY_ASSIGNED_CONTEXT((#1414))
GLOBAL_UNIT_ASSIGNED_CONTEXT((#1417,#1416,#1415))
REPRESENTATION_CONTEXT('SpindleHolder','TOP_LEVEL_ASSEMBLY_PART')
);
#1414=UNCERTAINTY_MEASURE_WITH_UNIT(LENGTH_MEASURE(1.E-8),#1417,
'DISTANCE_ACCURACY_VALUE','Maximum Tolerance applied to model');
#1415=(
NAMED_UNIT(*)
SI_UNIT($,.STERADIAN.)
SOLID_ANGLE_UNIT()
);
#1416=(
NAMED_UNIT(*)
PLANE_ANGLE_UNIT()
SI_UNIT($,.RADIAN.)
);
#1417=(
LENGTH_UNIT()
NAMED_UNIT(*)
SI_UNIT($,.METRE.)
);
#1418=PRODUCT_DEFINITION_SHAPE('','',#1419);
#1419=PRODUCT_DEFINITION('','',#1421,#1420);
#1420=PRODUCT_DEFINITION_CONTEXT('',#1427,'design');
#1421=PRODUCT_DEFINITION_FORMATION_WITH_SPECIFIED_SOURCE('','',#1423,
 .NOT_KNOWN.);
#1422=PRODUCT_RELATED_PRODUCT_CATEGORY('','',(#1423));
#1423=PRODUCT('SpindleHolder','SpindleHolder','SpindleHolder',(#1425));
#1424=PRODUCT_CATEGORY('','');
#1425=PRODUCT_CONTEXT('',#1427,'mechanical');
#1426=APPLICATION_PROTOCOL_DEFINITION('international standard',
'ap242_managed_model_based_3d_engineering',2020,#1427);
#1427=APPLICATION_CONTEXT('managed model based 3d engineering');
ENDSEC;
END-ISO-10303-21;
