ISO-10303-21;
HEADER;
/* Generated by software containing ST-Developer
 * from STEP Tools, Inc. (www.steptools.com) 
 */
/* OPTION: using custom renumber hook */

FILE_DESCRIPTION(
/* description */ ('STEP AP242 Edition 2',
'CAx-IF Rec.Pracs.---Representation and Presentation of Product Manufa
cturing Information (PMI)---4.0---2014-10-13',
'CAx-IF Rec.Pracs.---3D Tessellated Geometry---0.4---2014-09-14','2;1',
'CAx-IF Rec.Pracs.---User Defined Attributes---1.5---2016-08-15'),
/* implementation_level */ '2;1');

FILE_NAME(
/* name */ 'Router - BallScrewHolder-RL',
/* time_stamp */ '2026-08-01T11:31:39Z',
/* author */ (''),
/* organization */ (''),
/* preprocessor_version */ 'ST-DEVELOPER v20',
/* originating_system */ 'ONSHAPE BY PTC INC, 1.218',
/* authorisation */ '  ');

FILE_SCHEMA (('AP242_MANAGED_MODEL_BASED_3D_ENGINEERING_MIM_LF { 1 0 10303 442 3 1 4 }'));
ENDSEC;

DATA;
#10=SHAPE_REPRESENTATION_RELATIONSHIP('','',#740,#11);
#11=ADVANCED_BREP_SHAPE_REPRESENTATION('',(#738),#1267);
#12=CONICAL_SURFACE('',#802,0.01,0.785398163397491);
#13=CONICAL_SURFACE('',#803,0.00405,0.785398163397466);
#14=CONICAL_SURFACE('',#804,0.00405,0.785398163397463);
#15=CONICAL_SURFACE('',#835,0.00365,0.78539816339745);
#16=CONICAL_SURFACE('',#836,0.00365,0.785398163397474);
#17=CONICAL_SURFACE('',#837,0.00365,0.785398163397483);
#18=CONICAL_SURFACE('',#838,0.00365,0.7853981633975);
#19=CYLINDRICAL_SURFACE('',#784,0.00265);
#20=CYLINDRICAL_SURFACE('',#786,0.00265);
#21=CYLINDRICAL_SURFACE('',#788,0.00265);
#22=CYLINDRICAL_SURFACE('',#790,0.00265);
#23=CYLINDRICAL_SURFACE('',#796,0.01);
#24=CYLINDRICAL_SURFACE('',#798,0.00405);
#25=CYLINDRICAL_SURFACE('',#800,0.00405);
#26=CYLINDRICAL_SURFACE('',#805,0.0026);
#27=CYLINDRICAL_SURFACE('',#806,0.0026);
#28=CYLINDRICAL_SURFACE('',#807,0.0026);
#29=CYLINDRICAL_SURFACE('',#808,0.0026);
#30=CYLINDRICAL_SURFACE('',#811,0.003);
#31=CYLINDRICAL_SURFACE('',#812,0.003);
#32=CYLINDRICAL_SURFACE('',#813,0.003);
#33=CYLINDRICAL_SURFACE('',#814,0.003);
#34=CYLINDRICAL_SURFACE('',#815,0.003);
#35=CYLINDRICAL_SURFACE('',#816,0.003);
#36=CYLINDRICAL_SURFACE('',#817,0.003);
#37=CYLINDRICAL_SURFACE('',#818,0.001);
#38=CYLINDRICAL_SURFACE('',#819,0.00385);
#39=CYLINDRICAL_SURFACE('',#823,0.00385);
#40=CYLINDRICAL_SURFACE('',#827,0.00385);
#41=CYLINDRICAL_SURFACE('',#831,0.00385);
#42=CIRCLE('',#745,0.003);
#43=CIRCLE('',#746,0.001);
#44=CIRCLE('',#747,0.003);
#45=CIRCLE('',#748,0.0026);
#46=CIRCLE('',#749,0.0026);
#47=CIRCLE('',#750,0.0102);
#48=CIRCLE('',#751,0.00425);
#49=CIRCLE('',#752,0.00425);
#50=CIRCLE('',#753,0.003);
#51=CIRCLE('',#754,0.003);
#52=CIRCLE('',#755,0.003);
#53=CIRCLE('',#756,0.003);
#54=CIRCLE('',#757,0.003);
#55=CIRCLE('',#758,0.0026);
#56=CIRCLE('',#759,0.0026);
#57=CIRCLE('',#760,0.00265);
#58=CIRCLE('',#761,0.00265);
#59=CIRCLE('',#762,0.00265);
#60=CIRCLE('',#763,0.00265);
#61=CIRCLE('',#765,0.00385);
#62=CIRCLE('',#766,0.00385);
#63=CIRCLE('',#767,0.00385);
#64=CIRCLE('',#768,0.00385);
#65=CIRCLE('',#769,0.003);
#66=CIRCLE('',#770,0.003);
#67=CIRCLE('',#771,0.003);
#68=CIRCLE('',#772,0.003);
#69=CIRCLE('',#773,0.003);
#70=CIRCLE('',#774,0.0026);
#71=CIRCLE('',#775,0.0026);
#72=CIRCLE('',#776,0.00405);
#73=CIRCLE('',#777,0.00405);
#74=CIRCLE('',#778,0.01);
#75=CIRCLE('',#779,0.003);
#76=CIRCLE('',#780,0.001);
#77=CIRCLE('',#781,0.003);
#78=CIRCLE('',#782,0.0026);
#79=CIRCLE('',#783,0.0026);
#80=CIRCLE('',#785,0.00265);
#81=CIRCLE('',#787,0.00265);
#82=CIRCLE('',#789,0.00265);
#83=CIRCLE('',#791,0.00265);
#84=CIRCLE('',#797,0.01);
#85=CIRCLE('',#799,0.00405);
#86=CIRCLE('',#801,0.00405);
#87=CIRCLE('',#820,0.00385);
#88=CIRCLE('',#822,0.00364999999999991);
#89=CIRCLE('',#824,0.00385);
#90=CIRCLE('',#826,0.00364999999999989);
#91=CIRCLE('',#828,0.00385);
#92=CIRCLE('',#830,0.00365000000000015);
#93=CIRCLE('',#832,0.00385);
#94=CIRCLE('',#834,0.00365000000000015);
#95=ORIENTED_EDGE('',*,*,#265,.T.);
#96=ORIENTED_EDGE('',*,*,#266,.T.);
#97=ORIENTED_EDGE('',*,*,#267,.T.);
#98=ORIENTED_EDGE('',*,*,#268,.T.);
#99=ORIENTED_EDGE('',*,*,#269,.F.);
#100=ORIENTED_EDGE('',*,*,#270,.T.);
#101=ORIENTED_EDGE('',*,*,#271,.F.);
#102=ORIENTED_EDGE('',*,*,#272,.T.);
#103=ORIENTED_EDGE('',*,*,#267,.F.);
#104=ORIENTED_EDGE('',*,*,#273,.T.);
#105=ORIENTED_EDGE('',*,*,#274,.F.);
#106=ORIENTED_EDGE('',*,*,#275,.T.);
#107=ORIENTED_EDGE('',*,*,#269,.T.);
#108=ORIENTED_EDGE('',*,*,#276,.T.);
#109=ORIENTED_EDGE('',*,*,#277,.F.);
#110=ORIENTED_EDGE('',*,*,#278,.F.);
#111=ORIENTED_EDGE('',*,*,#279,.T.);
#112=ORIENTED_EDGE('',*,*,#280,.T.);
#113=ORIENTED_EDGE('',*,*,#281,.T.);
#114=ORIENTED_EDGE('',*,*,#282,.F.);
#115=ORIENTED_EDGE('',*,*,#283,.T.);
#116=ORIENTED_EDGE('',*,*,#284,.T.);
#117=ORIENTED_EDGE('',*,*,#285,.T.);
#118=ORIENTED_EDGE('',*,*,#286,.T.);
#119=ORIENTED_EDGE('',*,*,#287,.T.);
#120=ORIENTED_EDGE('',*,*,#288,.F.);
#121=ORIENTED_EDGE('',*,*,#289,.T.);
#122=ORIENTED_EDGE('',*,*,#290,.T.);
#123=ORIENTED_EDGE('',*,*,#291,.T.);
#124=ORIENTED_EDGE('',*,*,#292,.T.);
#125=ORIENTED_EDGE('',*,*,#293,.T.);
#126=ORIENTED_EDGE('',*,*,#294,.F.);
#127=ORIENTED_EDGE('',*,*,#295,.F.);
#128=ORIENTED_EDGE('',*,*,#296,.F.);
#129=ORIENTED_EDGE('',*,*,#297,.F.);
#130=ORIENTED_EDGE('',*,*,#298,.F.);
#131=ORIENTED_EDGE('',*,*,#299,.F.);
#132=ORIENTED_EDGE('',*,*,#300,.F.);
#133=ORIENTED_EDGE('',*,*,#301,.F.);
#134=ORIENTED_EDGE('',*,*,#302,.T.);
#135=ORIENTED_EDGE('',*,*,#303,.T.);
#136=ORIENTED_EDGE('',*,*,#304,.F.);
#137=ORIENTED_EDGE('',*,*,#305,.T.);
#138=ORIENTED_EDGE('',*,*,#306,.T.);
#139=ORIENTED_EDGE('',*,*,#307,.T.);
#140=ORIENTED_EDGE('',*,*,#308,.F.);
#141=ORIENTED_EDGE('',*,*,#309,.T.);
#142=ORIENTED_EDGE('',*,*,#310,.T.);
#143=ORIENTED_EDGE('',*,*,#311,.T.);
#144=ORIENTED_EDGE('',*,*,#312,.T.);
#145=ORIENTED_EDGE('',*,*,#313,.T.);
#146=ORIENTED_EDGE('',*,*,#314,.T.);
#147=ORIENTED_EDGE('',*,*,#315,.T.);
#148=ORIENTED_EDGE('',*,*,#316,.T.);
#149=ORIENTED_EDGE('',*,*,#265,.F.);
#150=ORIENTED_EDGE('',*,*,#317,.T.);
#151=ORIENTED_EDGE('',*,*,#271,.T.);
#152=ORIENTED_EDGE('',*,*,#318,.T.);
#153=ORIENTED_EDGE('',*,*,#319,.F.);
#154=ORIENTED_EDGE('',*,*,#320,.T.);
#155=ORIENTED_EDGE('',*,*,#321,.F.);
#156=ORIENTED_EDGE('',*,*,#322,.F.);
#157=ORIENTED_EDGE('',*,*,#294,.T.);
#158=ORIENTED_EDGE('',*,*,#323,.F.);
#159=ORIENTED_EDGE('',*,*,#297,.T.);
#160=ORIENTED_EDGE('',*,*,#324,.F.);
#161=ORIENTED_EDGE('',*,*,#296,.T.);
#162=ORIENTED_EDGE('',*,*,#325,.F.);
#163=ORIENTED_EDGE('',*,*,#295,.T.);
#164=ORIENTED_EDGE('',*,*,#326,.F.);
#165=ORIENTED_EDGE('',*,*,#304,.T.);
#166=ORIENTED_EDGE('',*,*,#327,.T.);
#167=ORIENTED_EDGE('',*,*,#282,.T.);
#168=ORIENTED_EDGE('',*,*,#328,.T.);
#169=ORIENTED_EDGE('',*,*,#284,.F.);
#170=ORIENTED_EDGE('',*,*,#329,.T.);
#171=ORIENTED_EDGE('',*,*,#302,.F.);
#172=ORIENTED_EDGE('',*,*,#330,.T.);
#173=ORIENTED_EDGE('',*,*,#286,.F.);
#174=ORIENTED_EDGE('',*,*,#331,.T.);
#175=ORIENTED_EDGE('',*,*,#310,.F.);
#176=ORIENTED_EDGE('',*,*,#332,.T.);
#177=ORIENTED_EDGE('',*,*,#288,.T.);
#178=ORIENTED_EDGE('',*,*,#333,.T.);
#179=ORIENTED_EDGE('',*,*,#308,.T.);
#180=ORIENTED_EDGE('',*,*,#334,.T.);
#181=ORIENTED_EDGE('',*,*,#335,.T.);
#182=ORIENTED_EDGE('',*,*,#316,.F.);
#183=ORIENTED_EDGE('',*,*,#336,.T.);
#184=ORIENTED_EDGE('',*,*,#315,.F.);
#185=ORIENTED_EDGE('',*,*,#337,.T.);
#186=ORIENTED_EDGE('',*,*,#314,.F.);
#187=ORIENTED_EDGE('',*,*,#279,.F.);
#188=ORIENTED_EDGE('',*,*,#335,.F.);
#189=ORIENTED_EDGE('',*,*,#280,.F.);
#190=ORIENTED_EDGE('',*,*,#337,.F.);
#191=ORIENTED_EDGE('',*,*,#281,.F.);
#192=ORIENTED_EDGE('',*,*,#336,.F.);
#193=ORIENTED_EDGE('',*,*,#278,.T.);
#194=ORIENTED_EDGE('',*,*,#313,.F.);
#195=ORIENTED_EDGE('',*,*,#277,.T.);
#196=ORIENTED_EDGE('',*,*,#312,.F.);
#197=ORIENTED_EDGE('',*,*,#292,.F.);
#198=ORIENTED_EDGE('',*,*,#321,.T.);
#199=ORIENTED_EDGE('',*,*,#293,.F.);
#200=ORIENTED_EDGE('',*,*,#322,.T.);
#201=ORIENTED_EDGE('',*,*,#319,.T.);
#202=ORIENTED_EDGE('',*,*,#338,.T.);
#203=ORIENTED_EDGE('',*,*,#274,.T.);
#204=ORIENTED_EDGE('',*,*,#339,.T.);
#205=ORIENTED_EDGE('',*,*,#290,.F.);
#206=ORIENTED_EDGE('',*,*,#340,.T.);
#207=ORIENTED_EDGE('',*,*,#306,.F.);
#208=ORIENTED_EDGE('',*,*,#341,.T.);
#209=ORIENTED_EDGE('',*,*,#273,.F.);
#210=ORIENTED_EDGE('',*,*,#266,.F.);
#211=ORIENTED_EDGE('',*,*,#320,.F.);
#212=ORIENTED_EDGE('',*,*,#339,.F.);
#213=ORIENTED_EDGE('',*,*,#317,.F.);
#214=ORIENTED_EDGE('',*,*,#268,.F.);
#215=ORIENTED_EDGE('',*,*,#276,.F.);
#216=ORIENTED_EDGE('',*,*,#272,.F.);
#217=ORIENTED_EDGE('',*,*,#303,.F.);
#218=ORIENTED_EDGE('',*,*,#329,.F.);
#219=ORIENTED_EDGE('',*,*,#283,.F.);
#220=ORIENTED_EDGE('',*,*,#327,.F.);
#221=ORIENTED_EDGE('',*,*,#311,.F.);
#222=ORIENTED_EDGE('',*,*,#331,.F.);
#223=ORIENTED_EDGE('',*,*,#285,.F.);
#224=ORIENTED_EDGE('',*,*,#330,.F.);
#225=ORIENTED_EDGE('',*,*,#309,.F.);
#226=ORIENTED_EDGE('',*,*,#333,.F.);
#227=ORIENTED_EDGE('',*,*,#287,.F.);
#228=ORIENTED_EDGE('',*,*,#332,.F.);
#229=ORIENTED_EDGE('',*,*,#289,.F.);
#230=ORIENTED_EDGE('',*,*,#334,.F.);
#231=ORIENTED_EDGE('',*,*,#307,.F.);
#232=ORIENTED_EDGE('',*,*,#340,.F.);
#233=ORIENTED_EDGE('',*,*,#305,.F.);
#234=ORIENTED_EDGE('',*,*,#328,.F.);
#235=ORIENTED_EDGE('',*,*,#291,.F.);
#236=ORIENTED_EDGE('',*,*,#341,.F.);
#237=ORIENTED_EDGE('',*,*,#275,.F.);
#238=ORIENTED_EDGE('',*,*,#338,.F.);
#239=ORIENTED_EDGE('',*,*,#318,.F.);
#240=ORIENTED_EDGE('',*,*,#270,.F.);
#241=ORIENTED_EDGE('',*,*,#342,.T.);
#242=ORIENTED_EDGE('',*,*,#301,.T.);
#243=ORIENTED_EDGE('',*,*,#343,.T.);
#244=ORIENTED_EDGE('',*,*,#324,.T.);
#245=ORIENTED_EDGE('',*,*,#344,.T.);
#246=ORIENTED_EDGE('',*,*,#300,.T.);
#247=ORIENTED_EDGE('',*,*,#345,.T.);
#248=ORIENTED_EDGE('',*,*,#325,.T.);
#249=ORIENTED_EDGE('',*,*,#346,.T.);
#250=ORIENTED_EDGE('',*,*,#299,.T.);
#251=ORIENTED_EDGE('',*,*,#347,.T.);
#252=ORIENTED_EDGE('',*,*,#326,.T.);
#253=ORIENTED_EDGE('',*,*,#348,.T.);
#254=ORIENTED_EDGE('',*,*,#298,.T.);
#255=ORIENTED_EDGE('',*,*,#349,.T.);
#256=ORIENTED_EDGE('',*,*,#323,.T.);
#257=ORIENTED_EDGE('',*,*,#348,.F.);
#258=ORIENTED_EDGE('',*,*,#349,.F.);
#259=ORIENTED_EDGE('',*,*,#346,.F.);
#260=ORIENTED_EDGE('',*,*,#347,.F.);
#261=ORIENTED_EDGE('',*,*,#344,.F.);
#262=ORIENTED_EDGE('',*,*,#345,.F.);
#263=ORIENTED_EDGE('',*,*,#342,.F.);
#264=ORIENTED_EDGE('',*,*,#343,.F.);
#265=EDGE_CURVE('',#350,#351,#419,.T.);
#266=EDGE_CURVE('',#351,#352,#420,.F.);
#267=EDGE_CURVE('',#352,#353,#421,.T.);
#268=EDGE_CURVE('',#353,#350,#422,.F.);
#269=EDGE_CURVE('',#354,#355,#423,.T.);
#270=EDGE_CURVE('',#354,#356,#424,.T.);
#271=EDGE_CURVE('',#357,#356,#425,.T.);
#272=EDGE_CURVE('',#357,#355,#426,.T.);
#273=EDGE_CURVE('',#352,#358,#42,.T.);
#274=EDGE_CURVE('',#359,#358,#427,.T.);
#275=EDGE_CURVE('',#359,#354,#43,.T.);
#276=EDGE_CURVE('',#355,#353,#44,.T.);
#277=EDGE_CURVE('',#360,#360,#45,.T.);
#278=EDGE_CURVE('',#361,#361,#46,.T.);
#279=EDGE_CURVE('',#362,#362,#47,.T.);
#280=EDGE_CURVE('',#363,#363,#48,.T.);
#281=EDGE_CURVE('',#364,#364,#49,.T.);
#282=EDGE_CURVE('',#365,#366,#428,.T.);
#283=EDGE_CURVE('',#365,#367,#50,.F.);
#284=EDGE_CURVE('',#367,#368,#429,.T.);
#285=EDGE_CURVE('',#368,#369,#51,.F.);
#286=EDGE_CURVE('',#369,#370,#430,.T.);
#287=EDGE_CURVE('',#370,#371,#52,.F.);
#288=EDGE_CURVE('',#372,#371,#431,.T.);
#289=EDGE_CURVE('',#372,#373,#53,.F.);
#290=EDGE_CURVE('',#373,#374,#432,.T.);
#291=EDGE_CURVE('',#374,#366,#54,.F.);
#292=EDGE_CURVE('',#375,#375,#55,.T.);
#293=EDGE_CURVE('',#376,#376,#56,.T.);
#294=EDGE_CURVE('',#377,#377,#57,.F.);
#295=EDGE_CURVE('',#378,#378,#58,.F.);
#296=EDGE_CURVE('',#379,#379,#59,.F.);
#297=EDGE_CURVE('',#380,#380,#60,.F.);
#298=EDGE_CURVE('',#381,#381,#61,.T.);
#299=EDGE_CURVE('',#382,#382,#62,.T.);
#300=EDGE_CURVE('',#383,#383,#63,.T.);
#301=EDGE_CURVE('',#384,#384,#64,.T.);
#302=EDGE_CURVE('',#385,#386,#433,.T.);
#303=EDGE_CURVE('',#386,#387,#65,.F.);
#304=EDGE_CURVE('',#388,#387,#434,.T.);
#305=EDGE_CURVE('',#388,#389,#66,.F.);
#306=EDGE_CURVE('',#389,#390,#435,.T.);
#307=EDGE_CURVE('',#390,#391,#67,.F.);
#308=EDGE_CURVE('',#392,#391,#436,.T.);
#309=EDGE_CURVE('',#392,#393,#68,.F.);
#310=EDGE_CURVE('',#393,#394,#437,.T.);
#311=EDGE_CURVE('',#394,#385,#69,.F.);
#312=EDGE_CURVE('',#395,#395,#70,.T.);
#313=EDGE_CURVE('',#396,#396,#71,.T.);
#314=EDGE_CURVE('',#397,#397,#72,.T.);
#315=EDGE_CURVE('',#398,#398,#73,.T.);
#316=EDGE_CURVE('',#399,#399,#74,.T.);
#317=EDGE_CURVE('',#350,#357,#75,.T.);
#318=EDGE_CURVE('',#356,#400,#76,.T.);
#319=EDGE_CURVE('',#401,#400,#438,.T.);
#320=EDGE_CURVE('',#401,#351,#77,.T.);
#321=EDGE_CURVE('',#402,#402,#78,.F.);
#322=EDGE_CURVE('',#403,#403,#79,.F.);
#323=EDGE_CURVE('',#404,#404,#80,.T.);
#324=EDGE_CURVE('',#405,#405,#81,.T.);
#325=EDGE_CURVE('',#406,#406,#82,.T.);
#326=EDGE_CURVE('',#407,#407,#83,.T.);
#327=EDGE_CURVE('',#387,#365,#439,.T.);
#328=EDGE_CURVE('',#366,#388,#440,.F.);
#329=EDGE_CURVE('',#367,#386,#441,.F.);
#330=EDGE_CURVE('',#385,#368,#442,.T.);
#331=EDGE_CURVE('',#369,#394,#443,.F.);
#332=EDGE_CURVE('',#393,#370,#444,.T.);
#333=EDGE_CURVE('',#371,#392,#445,.F.);
#334=EDGE_CURVE('',#391,#372,#446,.F.);
#335=EDGE_CURVE('',#408,#408,#84,.F.);
#336=EDGE_CURVE('',#409,#409,#85,.F.);
#337=EDGE_CURVE('',#410,#410,#86,.F.);
#338=EDGE_CURVE('',#400,#359,#447,.F.);
#339=EDGE_CURVE('',#358,#401,#448,.T.);
#340=EDGE_CURVE('',#373,#390,#449,.T.);
#341=EDGE_CURVE('',#389,#374,#450,.T.);
#342=EDGE_CURVE('',#411,#411,#87,.F.);
#343=EDGE_CURVE('',#412,#412,#88,.T.);
#344=EDGE_CURVE('',#413,#413,#89,.F.);
#345=EDGE_CURVE('',#414,#414,#90,.T.);
#346=EDGE_CURVE('',#415,#415,#91,.F.);
#347=EDGE_CURVE('',#416,#416,#92,.T.);
#348=EDGE_CURVE('',#417,#417,#93,.F.);
#349=EDGE_CURVE('',#418,#418,#94,.T.);
#350=VERTEX_POINT('',#1070);
#351=VERTEX_POINT('',#1071);
#352=VERTEX_POINT('',#1073);
#353=VERTEX_POINT('',#1075);
#354=VERTEX_POINT('',#1079);
#355=VERTEX_POINT('',#1080);
#356=VERTEX_POINT('',#1082);
#357=VERTEX_POINT('',#1084);
#358=VERTEX_POINT('',#1088);
#359=VERTEX_POINT('',#1090);
#360=VERTEX_POINT('',#1094);
#361=VERTEX_POINT('',#1096);
#362=VERTEX_POINT('',#1098);
#363=VERTEX_POINT('',#1100);
#364=VERTEX_POINT('',#1102);
#365=VERTEX_POINT('',#1104);
#366=VERTEX_POINT('',#1105);
#367=VERTEX_POINT('',#1107);
#368=VERTEX_POINT('',#1109);
#369=VERTEX_POINT('',#1111);
#370=VERTEX_POINT('',#1113);
#371=VERTEX_POINT('',#1115);
#372=VERTEX_POINT('',#1117);
#373=VERTEX_POINT('',#1119);
#374=VERTEX_POINT('',#1121);
#375=VERTEX_POINT('',#1124);
#376=VERTEX_POINT('',#1126);
#377=VERTEX_POINT('',#1128);
#378=VERTEX_POINT('',#1130);
#379=VERTEX_POINT('',#1132);
#380=VERTEX_POINT('',#1134);
#381=VERTEX_POINT('',#1137);
#382=VERTEX_POINT('',#1139);
#383=VERTEX_POINT('',#1141);
#384=VERTEX_POINT('',#1143);
#385=VERTEX_POINT('',#1145);
#386=VERTEX_POINT('',#1146);
#387=VERTEX_POINT('',#1148);
#388=VERTEX_POINT('',#1150);
#389=VERTEX_POINT('',#1152);
#390=VERTEX_POINT('',#1154);
#391=VERTEX_POINT('',#1156);
#392=VERTEX_POINT('',#1158);
#393=VERTEX_POINT('',#1160);
#394=VERTEX_POINT('',#1162);
#395=VERTEX_POINT('',#1165);
#396=VERTEX_POINT('',#1167);
#397=VERTEX_POINT('',#1169);
#398=VERTEX_POINT('',#1171);
#399=VERTEX_POINT('',#1173);
#400=VERTEX_POINT('',#1176);
#401=VERTEX_POINT('',#1178);
#402=VERTEX_POINT('',#1181);
#403=VERTEX_POINT('',#1183);
#404=VERTEX_POINT('',#1186);
#405=VERTEX_POINT('',#1189);
#406=VERTEX_POINT('',#1192);
#407=VERTEX_POINT('',#1195);
#408=VERTEX_POINT('',#1210);
#409=VERTEX_POINT('',#1213);
#410=VERTEX_POINT('',#1216);
#411=VERTEX_POINT('',#1240);
#412=VERTEX_POINT('',#1243);
#413=VERTEX_POINT('',#1246);
#414=VERTEX_POINT('',#1249);
#415=VERTEX_POINT('',#1252);
#416=VERTEX_POINT('',#1255);
#417=VERTEX_POINT('',#1258);
#418=VERTEX_POINT('',#1261);
#419=LINE('',#1069,#451);
#420=LINE('',#1072,#452);
#421=LINE('',#1074,#453);
#422=LINE('',#1076,#454);
#423=LINE('',#1078,#455);
#424=LINE('',#1081,#456);
#425=LINE('',#1083,#457);
#426=LINE('',#1085,#458);
#427=LINE('',#1089,#459);
#428=LINE('',#1103,#460);
#429=LINE('',#1108,#461);
#430=LINE('',#1112,#462);
#431=LINE('',#1116,#463);
#432=LINE('',#1120,#464);
#433=LINE('',#1144,#465);
#434=LINE('',#1149,#466);
#435=LINE('',#1153,#467);
#436=LINE('',#1157,#468);
#437=LINE('',#1161,#469);
#438=LINE('',#1177,#470);
#439=LINE('',#1197,#471);
#440=LINE('',#1198,#472);
#441=LINE('',#1200,#473);
#442=LINE('',#1201,#474);
#443=LINE('',#1203,#475);
#444=LINE('',#1204,#476);
#445=LINE('',#1206,#477);
#446=LINE('',#1207,#478);
#447=LINE('',#1225,#479);
#448=LINE('',#1226,#480);
#449=LINE('',#1228,#481);
#450=LINE('',#1229,#482);
#451=VECTOR('',#843,1.);
#452=VECTOR('',#844,1.);
#453=VECTOR('',#845,1.);
#454=VECTOR('',#846,1.);
#455=VECTOR('',#849,1.);
#456=VECTOR('',#850,1.);
#457=VECTOR('',#851,1.);
#458=VECTOR('',#852,1.);
#459=VECTOR('',#857,1.);
#460=VECTOR('',#872,1.);
#461=VECTOR('',#875,1.);
#462=VECTOR('',#878,1.);
#463=VECTOR('',#881,1.);
#464=VECTOR('',#884,1.);
#465=VECTOR('',#909,1.);
#466=VECTOR('',#912,1.);
#467=VECTOR('',#915,1.);
#468=VECTOR('',#918,1.);
#469=VECTOR('',#921,1.);
#470=VECTOR('',#938,1.);
#471=VECTOR('',#963,1.);
#472=VECTOR('',#964,1.);
#473=VECTOR('',#967,1.);
#474=VECTOR('',#968,1.);
#475=VECTOR('',#971,1.);
#476=VECTOR('',#972,1.);
#477=VECTOR('',#975,1.);
#478=VECTOR('',#976,1.);
#479=VECTOR('',#1005,1.);
#480=VECTOR('',#1006,1.);
#481=VECTOR('',#1009,1.);
#482=VECTOR('',#1010,1.);
#483=EDGE_LOOP('',(#95,#96,#97,#98));
#484=EDGE_LOOP('',(#99,#100,#101,#102));
#485=EDGE_LOOP('',(#103,#104,#105,#106,#107,#108));
#486=EDGE_LOOP('',(#109));
#487=EDGE_LOOP('',(#110));
#488=EDGE_LOOP('',(#111));
#489=EDGE_LOOP('',(#112));
#490=EDGE_LOOP('',(#113));
#491=EDGE_LOOP('',(#114,#115,#116,#117,#118,#119,#120,#121,#122,#123));
#492=EDGE_LOOP('',(#124));
#493=EDGE_LOOP('',(#125));
#494=EDGE_LOOP('',(#126));
#495=EDGE_LOOP('',(#127));
#496=EDGE_LOOP('',(#128));
#497=EDGE_LOOP('',(#129));
#498=EDGE_LOOP('',(#130));
#499=EDGE_LOOP('',(#131));
#500=EDGE_LOOP('',(#132));
#501=EDGE_LOOP('',(#133));
#502=EDGE_LOOP('',(#134,#135,#136,#137,#138,#139,#140,#141,#142,#143));
#503=EDGE_LOOP('',(#144));
#504=EDGE_LOOP('',(#145));
#505=EDGE_LOOP('',(#146));
#506=EDGE_LOOP('',(#147));
#507=EDGE_LOOP('',(#148));
#508=EDGE_LOOP('',(#149,#150,#151,#152,#153,#154));
#509=EDGE_LOOP('',(#155));
#510=EDGE_LOOP('',(#156));
#511=EDGE_LOOP('',(#157));
#512=EDGE_LOOP('',(#158));
#513=EDGE_LOOP('',(#159));
#514=EDGE_LOOP('',(#160));
#515=EDGE_LOOP('',(#161));
#516=EDGE_LOOP('',(#162));
#517=EDGE_LOOP('',(#163));
#518=EDGE_LOOP('',(#164));
#519=EDGE_LOOP('',(#165,#166,#167,#168));
#520=EDGE_LOOP('',(#169,#170,#171,#172));
#521=EDGE_LOOP('',(#173,#174,#175,#176));
#522=EDGE_LOOP('',(#177,#178,#179,#180));
#523=EDGE_LOOP('',(#181));
#524=EDGE_LOOP('',(#182));
#525=EDGE_LOOP('',(#183));
#526=EDGE_LOOP('',(#184));
#527=EDGE_LOOP('',(#185));
#528=EDGE_LOOP('',(#186));
#529=EDGE_LOOP('',(#187));
#530=EDGE_LOOP('',(#188));
#531=EDGE_LOOP('',(#189));
#532=EDGE_LOOP('',(#190));
#533=EDGE_LOOP('',(#191));
#534=EDGE_LOOP('',(#192));
#535=EDGE_LOOP('',(#193));
#536=EDGE_LOOP('',(#194));
#537=EDGE_LOOP('',(#195));
#538=EDGE_LOOP('',(#196));
#539=EDGE_LOOP('',(#197));
#540=EDGE_LOOP('',(#198));
#541=EDGE_LOOP('',(#199));
#542=EDGE_LOOP('',(#200));
#543=EDGE_LOOP('',(#201,#202,#203,#204));
#544=EDGE_LOOP('',(#205,#206,#207,#208));
#545=EDGE_LOOP('',(#209,#210,#211,#212));
#546=EDGE_LOOP('',(#213,#214,#215,#216));
#547=EDGE_LOOP('',(#217,#218,#219,#220));
#548=EDGE_LOOP('',(#221,#222,#223,#224));
#549=EDGE_LOOP('',(#225,#226,#227,#228));
#550=EDGE_LOOP('',(#229,#230,#231,#232));
#551=EDGE_LOOP('',(#233,#234,#235,#236));
#552=EDGE_LOOP('',(#237,#238,#239,#240));
#553=EDGE_LOOP('',(#241));
#554=EDGE_LOOP('',(#242));
#555=EDGE_LOOP('',(#243));
#556=EDGE_LOOP('',(#244));
#557=EDGE_LOOP('',(#245));
#558=EDGE_LOOP('',(#246));
#559=EDGE_LOOP('',(#247));
#560=EDGE_LOOP('',(#248));
#561=EDGE_LOOP('',(#249));
#562=EDGE_LOOP('',(#250));
#563=EDGE_LOOP('',(#251));
#564=EDGE_LOOP('',(#252));
#565=EDGE_LOOP('',(#253));
#566=EDGE_LOOP('',(#254));
#567=EDGE_LOOP('',(#255));
#568=EDGE_LOOP('',(#256));
#569=EDGE_LOOP('',(#257));
#570=EDGE_LOOP('',(#258));
#571=EDGE_LOOP('',(#259));
#572=EDGE_LOOP('',(#260));
#573=EDGE_LOOP('',(#261));
#574=EDGE_LOOP('',(#262));
#575=EDGE_LOOP('',(#263));
#576=EDGE_LOOP('',(#264));
#577=FACE_BOUND('',#483,.T.);
#578=FACE_BOUND('',#484,.T.);
#579=FACE_BOUND('',#485,.T.);
#580=FACE_BOUND('',#486,.T.);
#581=FACE_BOUND('',#487,.T.);
#582=FACE_BOUND('',#488,.T.);
#583=FACE_BOUND('',#489,.T.);
#584=FACE_BOUND('',#490,.T.);
#585=FACE_BOUND('',#491,.T.);
#586=FACE_BOUND('',#492,.T.);
#587=FACE_BOUND('',#493,.T.);
#588=FACE_BOUND('',#494,.T.);
#589=FACE_BOUND('',#495,.T.);
#590=FACE_BOUND('',#496,.T.);
#591=FACE_BOUND('',#497,.T.);
#592=FACE_BOUND('',#498,.T.);
#593=FACE_BOUND('',#499,.T.);
#594=FACE_BOUND('',#500,.T.);
#595=FACE_BOUND('',#501,.T.);
#596=FACE_BOUND('',#502,.T.);
#597=FACE_BOUND('',#503,.T.);
#598=FACE_BOUND('',#504,.T.);
#599=FACE_BOUND('',#505,.T.);
#600=FACE_BOUND('',#506,.T.);
#601=FACE_BOUND('',#507,.T.);
#602=FACE_BOUND('',#508,.T.);
#603=FACE_BOUND('',#509,.T.);
#604=FACE_BOUND('',#510,.T.);
#605=FACE_BOUND('',#511,.T.);
#606=FACE_BOUND('',#512,.T.);
#607=FACE_BOUND('',#513,.T.);
#608=FACE_BOUND('',#514,.T.);
#609=FACE_BOUND('',#515,.T.);
#610=FACE_BOUND('',#516,.T.);
#611=FACE_BOUND('',#517,.T.);
#612=FACE_BOUND('',#518,.T.);
#613=FACE_BOUND('',#519,.T.);
#614=FACE_BOUND('',#520,.T.);
#615=FACE_BOUND('',#521,.T.);
#616=FACE_BOUND('',#522,.T.);
#617=FACE_BOUND('',#523,.T.);
#618=FACE_BOUND('',#524,.T.);
#619=FACE_BOUND('',#525,.T.);
#620=FACE_BOUND('',#526,.T.);
#621=FACE_BOUND('',#527,.T.);
#622=FACE_BOUND('',#528,.T.);
#623=FACE_BOUND('',#529,.T.);
#624=FACE_BOUND('',#530,.T.);
#625=FACE_BOUND('',#531,.T.);
#626=FACE_BOUND('',#532,.T.);
#627=FACE_BOUND('',#533,.T.);
#628=FACE_BOUND('',#534,.T.);
#629=FACE_BOUND('',#535,.T.);
#630=FACE_BOUND('',#536,.T.);
#631=FACE_BOUND('',#537,.T.);
#632=FACE_BOUND('',#538,.T.);
#633=FACE_BOUND('',#539,.T.);
#634=FACE_BOUND('',#540,.T.);
#635=FACE_BOUND('',#541,.T.);
#636=FACE_BOUND('',#542,.T.);
#637=FACE_BOUND('',#543,.T.);
#638=FACE_BOUND('',#544,.T.);
#639=FACE_BOUND('',#545,.T.);
#640=FACE_BOUND('',#546,.T.);
#641=FACE_BOUND('',#547,.T.);
#642=FACE_BOUND('',#548,.T.);
#643=FACE_BOUND('',#549,.T.);
#644=FACE_BOUND('',#550,.T.);
#645=FACE_BOUND('',#551,.T.);
#646=FACE_BOUND('',#552,.T.);
#647=FACE_BOUND('',#553,.T.);
#648=FACE_BOUND('',#554,.T.);
#649=FACE_BOUND('',#555,.T.);
#650=FACE_BOUND('',#556,.T.);
#651=FACE_BOUND('',#557,.T.);
#652=FACE_BOUND('',#558,.T.);
#653=FACE_BOUND('',#559,.T.);
#654=FACE_BOUND('',#560,.T.);
#655=FACE_BOUND('',#561,.T.);
#656=FACE_BOUND('',#562,.T.);
#657=FACE_BOUND('',#563,.T.);
#658=FACE_BOUND('',#564,.T.);
#659=FACE_BOUND('',#565,.T.);
#660=FACE_BOUND('',#566,.T.);
#661=FACE_BOUND('',#567,.T.);
#662=FACE_BOUND('',#568,.T.);
#663=FACE_BOUND('',#569,.T.);
#664=FACE_BOUND('',#570,.T.);
#665=FACE_BOUND('',#571,.T.);
#666=FACE_BOUND('',#572,.T.);
#667=FACE_BOUND('',#573,.T.);
#668=FACE_BOUND('',#574,.T.);
#669=FACE_BOUND('',#575,.T.);
#670=FACE_BOUND('',#576,.T.);
#671=PLANE('',#742);
#672=PLANE('',#743);
#673=PLANE('',#744);
#674=PLANE('',#764);
#675=PLANE('',#792);
#676=PLANE('',#793);
#677=PLANE('',#794);
#678=PLANE('',#795);
#679=PLANE('',#809);
#680=PLANE('',#810);
#681=PLANE('',#821);
#682=PLANE('',#825);
#683=PLANE('',#829);
#684=PLANE('',#833);
#685=ADVANCED_FACE('',(#577),#671,.F.);
#686=ADVANCED_FACE('',(#578),#672,.T.);
#687=ADVANCED_FACE('',(#579,#580,#581,#582,#583,#584,#585,#586,#587,#588,
#589,#590,#591),#673,.F.);
#688=ADVANCED_FACE('',(#592,#593,#594,#595,#596,#597,#598,#599,#600,#601,
#602,#603,#604),#674,.F.);
#689=ADVANCED_FACE('',(#605,#606),#19,.F.);
#690=ADVANCED_FACE('',(#607,#608),#20,.F.);
#691=ADVANCED_FACE('',(#609,#610),#21,.F.);
#692=ADVANCED_FACE('',(#611,#612),#22,.F.);
#693=ADVANCED_FACE('',(#613),#675,.F.);
#694=ADVANCED_FACE('',(#614),#676,.T.);
#695=ADVANCED_FACE('',(#615),#677,.T.);
#696=ADVANCED_FACE('',(#616),#678,.F.);
#697=ADVANCED_FACE('',(#617,#618),#23,.F.);
#698=ADVANCED_FACE('',(#619,#620),#24,.F.);
#699=ADVANCED_FACE('',(#621,#622),#25,.F.);
#700=ADVANCED_FACE('',(#623,#624),#12,.F.);
#701=ADVANCED_FACE('',(#625,#626),#13,.F.);
#702=ADVANCED_FACE('',(#627,#628),#14,.F.);
#703=ADVANCED_FACE('',(#629,#630),#26,.F.);
#704=ADVANCED_FACE('',(#631,#632),#27,.F.);
#705=ADVANCED_FACE('',(#633,#634),#28,.F.);
#706=ADVANCED_FACE('',(#635,#636),#29,.F.);
#707=ADVANCED_FACE('',(#637),#679,.F.);
#708=ADVANCED_FACE('',(#638),#680,.T.);
#709=ADVANCED_FACE('',(#639),#30,.F.);
#710=ADVANCED_FACE('',(#640),#31,.F.);
#711=ADVANCED_FACE('',(#641),#32,.T.);
#712=ADVANCED_FACE('',(#642),#33,.T.);
#713=ADVANCED_FACE('',(#643),#34,.T.);
#714=ADVANCED_FACE('',(#644),#35,.T.);
#715=ADVANCED_FACE('',(#645),#36,.T.);
#716=ADVANCED_FACE('',(#646),#37,.F.);
#717=ADVANCED_FACE('',(#647,#648),#38,.T.);
#718=ADVANCED_FACE('',(#649,#650),#681,.T.);
#719=ADVANCED_FACE('',(#651,#652),#39,.T.);
#720=ADVANCED_FACE('',(#653,#654),#682,.T.);
#721=ADVANCED_FACE('',(#655,#656),#40,.T.);
#722=ADVANCED_FACE('',(#657,#658),#683,.T.);
#723=ADVANCED_FACE('',(#659,#660),#41,.T.);
#724=ADVANCED_FACE('',(#661,#662),#684,.T.);
#725=ADVANCED_FACE('',(#663,#664),#15,.T.);
#726=ADVANCED_FACE('',(#665,#666),#16,.T.);
#727=ADVANCED_FACE('',(#667,#668),#17,.T.);
#728=ADVANCED_FACE('',(#669,#670),#18,.T.);
#729=CLOSED_SHELL('',(#685,#686,#687,#688,#689,#690,#691,#692,#693,#694,
#695,#696,#697,#698,#699,#700,#701,#702,#703,#704,#705,#706,#707,#708,#709,
#710,#711,#712,#713,#714,#715,#716,#717,#718,#719,#720,#721,#722,#723,#724,
#725,#726,#727,#728));
#730=STYLED_ITEM('',(#731),#738);
#731=PRESENTATION_STYLE_ASSIGNMENT((#732));
#732=SURFACE_STYLE_USAGE(.BOTH.,#733);
#733=SURFACE_SIDE_STYLE('',(#734));
#734=SURFACE_STYLE_FILL_AREA(#735);
#735=FILL_AREA_STYLE('',(#736));
#736=FILL_AREA_STYLE_COLOUR('',#737);
#737=COLOUR_RGB('',0.615686274509804,0.811764705882353,0.929411764705882);
#738=MANIFOLD_SOLID_BREP('BallScrewHolder-RL',#729);
#739=SHAPE_DEFINITION_REPRESENTATION(#1272,#740);
#740=SHAPE_REPRESENTATION('BallScrewHolder-RL',(#741),#1267);
#741=AXIS2_PLACEMENT_3D('',#1067,#839,#840);
#742=AXIS2_PLACEMENT_3D('',#1068,#841,#842);
#743=AXIS2_PLACEMENT_3D('',#1077,#847,#848);
#744=AXIS2_PLACEMENT_3D('',#1086,#853,#854);
#745=AXIS2_PLACEMENT_3D('',#1087,#855,#856);
#746=AXIS2_PLACEMENT_3D('',#1091,#858,#859);
#747=AXIS2_PLACEMENT_3D('',#1092,#860,#861);
#748=AXIS2_PLACEMENT_3D('',#1093,#862,#863);
#749=AXIS2_PLACEMENT_3D('',#1095,#864,#865);
#750=AXIS2_PLACEMENT_3D('',#1097,#866,#867);
#751=AXIS2_PLACEMENT_3D('',#1099,#868,#869);
#752=AXIS2_PLACEMENT_3D('',#1101,#870,#871);
#753=AXIS2_PLACEMENT_3D('',#1106,#873,#874);
#754=AXIS2_PLACEMENT_3D('',#1110,#876,#877);
#755=AXIS2_PLACEMENT_3D('',#1114,#879,#880);
#756=AXIS2_PLACEMENT_3D('',#1118,#882,#883);
#757=AXIS2_PLACEMENT_3D('',#1122,#885,#886);
#758=AXIS2_PLACEMENT_3D('',#1123,#887,#888);
#759=AXIS2_PLACEMENT_3D('',#1125,#889,#890);
#760=AXIS2_PLACEMENT_3D('',#1127,#891,#892);
#761=AXIS2_PLACEMENT_3D('',#1129,#893,#894);
#762=AXIS2_PLACEMENT_3D('',#1131,#895,#896);
#763=AXIS2_PLACEMENT_3D('',#1133,#897,#898);
#764=AXIS2_PLACEMENT_3D('',#1135,#899,#900);
#765=AXIS2_PLACEMENT_3D('',#1136,#901,#902);
#766=AXIS2_PLACEMENT_3D('',#1138,#903,#904);
#767=AXIS2_PLACEMENT_3D('',#1140,#905,#906);
#768=AXIS2_PLACEMENT_3D('',#1142,#907,#908);
#769=AXIS2_PLACEMENT_3D('',#1147,#910,#911);
#770=AXIS2_PLACEMENT_3D('',#1151,#913,#914);
#771=AXIS2_PLACEMENT_3D('',#1155,#916,#917);
#772=AXIS2_PLACEMENT_3D('',#1159,#919,#920);
#773=AXIS2_PLACEMENT_3D('',#1163,#922,#923);
#774=AXIS2_PLACEMENT_3D('',#1164,#924,#925);
#775=AXIS2_PLACEMENT_3D('',#1166,#926,#927);
#776=AXIS2_PLACEMENT_3D('',#1168,#928,#929);
#777=AXIS2_PLACEMENT_3D('',#1170,#930,#931);
#778=AXIS2_PLACEMENT_3D('',#1172,#932,#933);
#779=AXIS2_PLACEMENT_3D('',#1174,#934,#935);
#780=AXIS2_PLACEMENT_3D('',#1175,#936,#937);
#781=AXIS2_PLACEMENT_3D('',#1179,#939,#940);
#782=AXIS2_PLACEMENT_3D('',#1180,#941,#942);
#783=AXIS2_PLACEMENT_3D('',#1182,#943,#944);
#784=AXIS2_PLACEMENT_3D('',#1184,#945,#946);
#785=AXIS2_PLACEMENT_3D('',#1185,#947,#948);
#786=AXIS2_PLACEMENT_3D('',#1187,#949,#950);
#787=AXIS2_PLACEMENT_3D('',#1188,#951,#952);
#788=AXIS2_PLACEMENT_3D('',#1190,#953,#954);
#789=AXIS2_PLACEMENT_3D('',#1191,#955,#956);
#790=AXIS2_PLACEMENT_3D('',#1193,#957,#958);
#791=AXIS2_PLACEMENT_3D('',#1194,#959,#960);
#792=AXIS2_PLACEMENT_3D('',#1196,#961,#962);
#793=AXIS2_PLACEMENT_3D('',#1199,#965,#966);
#794=AXIS2_PLACEMENT_3D('',#1202,#969,#970);
#795=AXIS2_PLACEMENT_3D('',#1205,#973,#974);
#796=AXIS2_PLACEMENT_3D('',#1208,#977,#978);
#797=AXIS2_PLACEMENT_3D('',#1209,#979,#980);
#798=AXIS2_PLACEMENT_3D('',#1211,#981,#982);
#799=AXIS2_PLACEMENT_3D('',#1212,#983,#984);
#800=AXIS2_PLACEMENT_3D('',#1214,#985,#986);
#801=AXIS2_PLACEMENT_3D('',#1215,#987,#988);
#802=AXIS2_PLACEMENT_3D('',#1217,#989,#990);
#803=AXIS2_PLACEMENT_3D('',#1218,#991,#992);
#804=AXIS2_PLACEMENT_3D('',#1219,#993,#994);
#805=AXIS2_PLACEMENT_3D('',#1220,#995,#996);
#806=AXIS2_PLACEMENT_3D('',#1221,#997,#998);
#807=AXIS2_PLACEMENT_3D('',#1222,#999,#1000);
#808=AXIS2_PLACEMENT_3D('',#1223,#1001,#1002);
#809=AXIS2_PLACEMENT_3D('',#1224,#1003,#1004);
#810=AXIS2_PLACEMENT_3D('',#1227,#1007,#1008);
#811=AXIS2_PLACEMENT_3D('',#1230,#1011,#1012);
#812=AXIS2_PLACEMENT_3D('',#1231,#1013,#1014);
#813=AXIS2_PLACEMENT_3D('',#1232,#1015,#1016);
#814=AXIS2_PLACEMENT_3D('',#1233,#1017,#1018);
#815=AXIS2_PLACEMENT_3D('',#1234,#1019,#1020);
#816=AXIS2_PLACEMENT_3D('',#1235,#1021,#1022);
#817=AXIS2_PLACEMENT_3D('',#1236,#1023,#1024);
#818=AXIS2_PLACEMENT_3D('',#1237,#1025,#1026);
#819=AXIS2_PLACEMENT_3D('',#1238,#1027,#1028);
#820=AXIS2_PLACEMENT_3D('',#1239,#1029,#1030);
#821=AXIS2_PLACEMENT_3D('',#1241,#1031,#1032);
#822=AXIS2_PLACEMENT_3D('',#1242,#1033,#1034);
#823=AXIS2_PLACEMENT_3D('',#1244,#1035,#1036);
#824=AXIS2_PLACEMENT_3D('',#1245,#1037,#1038);
#825=AXIS2_PLACEMENT_3D('',#1247,#1039,#1040);
#826=AXIS2_PLACEMENT_3D('',#1248,#1041,#1042);
#827=AXIS2_PLACEMENT_3D('',#1250,#1043,#1044);
#828=AXIS2_PLACEMENT_3D('',#1251,#1045,#1046);
#829=AXIS2_PLACEMENT_3D('',#1253,#1047,#1048);
#830=AXIS2_PLACEMENT_3D('',#1254,#1049,#1050);
#831=AXIS2_PLACEMENT_3D('',#1256,#1051,#1052);
#832=AXIS2_PLACEMENT_3D('',#1257,#1053,#1054);
#833=AXIS2_PLACEMENT_3D('',#1259,#1055,#1056);
#834=AXIS2_PLACEMENT_3D('',#1260,#1057,#1058);
#835=AXIS2_PLACEMENT_3D('',#1262,#1059,#1060);
#836=AXIS2_PLACEMENT_3D('',#1263,#1061,#1062);
#837=AXIS2_PLACEMENT_3D('',#1264,#1063,#1064);
#838=AXIS2_PLACEMENT_3D('',#1265,#1065,#1066);
#839=DIRECTION('',(0.,0.,1.));
#840=DIRECTION('',(1.,0.,0.));
#841=DIRECTION('',(2.57655601150073E-33,1.31708706258496E-14,-1.));
#842=DIRECTION('',(0.,1.,1.31708706258496E-14));
#843=DIRECTION('',(-1.,-1.04996817769229E-11,-1.38289952872999E-25));
#844=DIRECTION('',(-1.04995173821372E-11,1.,1.31708706258496E-14));
#845=DIRECTION('',(1.,-1.95625337508101E-19,4.33666454503762E-44));
#846=DIRECTION('',(-1.95625337508101E-19,-1.,-1.31708706258496E-14));
#847=DIRECTION('',(-1.,1.95625337508101E-19,2.57655601145736E-33));
#848=DIRECTION('',(1.95625337508101E-19,1.,0.));
#849=DIRECTION('',(0.,1.31708706258496E-14,-1.));
#850=DIRECTION('',(1.95625337508101E-19,1.,4.25409876830241E-11));
#851=DIRECTION('',(1.30261743360419E-34,-1.25049970482257E-14,1.));
#852=DIRECTION('',(-1.95625337508101E-19,-1.,-1.31708706258496E-14));
#853=DIRECTION('',(1.95625337508101E-19,1.,1.31708706258496E-14));
#854=DIRECTION('',(1.,-1.95625337508101E-19,-2.57655601145736E-33));
#855=DIRECTION('',(1.95625337508101E-19,1.,1.31708706258496E-14));
#856=DIRECTION('',(0.,-1.31708706258496E-14,1.));
#857=DIRECTION('',(-0.239689085120755,1.27869827019517E-14,-0.970849701279233));
#858=DIRECTION('',(1.95625337508101E-19,1.,1.31708706258496E-14));
#859=DIRECTION('',(0.,-1.31708706258496E-14,1.));
#860=DIRECTION('',(1.95625337508101E-19,1.,1.31708706258496E-14));
#861=DIRECTION('',(0.,-1.31708706258496E-14,1.));
#862=DIRECTION('',(-1.95625337508101E-19,-1.,-1.31708706258496E-14));
#863=DIRECTION('',(0.,1.31708706258496E-14,-1.));
#864=DIRECTION('',(-1.95625337508101E-19,-1.,-1.31708706258496E-14));
#865=DIRECTION('',(0.,1.31708706258496E-14,-1.));
#866=DIRECTION('',(1.95625337508101E-19,1.,1.31708706258496E-14));
#867=DIRECTION('',(0.,-1.31708706258496E-14,1.));
#868=DIRECTION('',(1.95625337508101E-19,1.,1.31708706258496E-14));
#869=DIRECTION('',(0.,-1.31708706258496E-14,1.));
#870=DIRECTION('',(1.95625337508101E-19,1.,1.31708706258496E-14));
#871=DIRECTION('',(0.,-1.31708706258496E-14,1.));
#872=DIRECTION('',(-3.08642361661612E-49,-1.31708706258496E-14,1.));
#873=DIRECTION('',(1.95625337508101E-19,1.,1.31708706258496E-14));
#874=DIRECTION('',(0.,-1.31708706258496E-14,1.));
#875=DIRECTION('',(1.,-1.95625337508101E-19,2.1735006304982E-44));
#876=DIRECTION('',(1.95625337508101E-19,1.,1.31708706258496E-14));
#877=DIRECTION('',(0.,-1.31708706258496E-14,1.));
#878=DIRECTION('',(1.69522400477171E-16,-1.31708706258496E-14,1.));
#879=DIRECTION('',(1.95625337508101E-19,1.,1.31708706258496E-14));
#880=DIRECTION('',(0.,-1.31708706258496E-14,1.));
#881=DIRECTION('',(1.,-1.95625337508101E-19,-1.16043905110249E-44));
#882=DIRECTION('',(1.95625337508101E-19,1.,1.31708706258496E-14));
#883=DIRECTION('',(0.,-1.31708706258496E-14,1.));
#884=DIRECTION('',(-0.239689085120755,1.27869827019517E-14,-0.970849701279233));
#885=DIRECTION('',(1.95625337508101E-19,1.,1.31708706258496E-14));
#886=DIRECTION('',(0.,-1.31708706258496E-14,1.));
#887=DIRECTION('',(1.95625337508101E-19,1.,1.31708706258496E-14));
#888=DIRECTION('',(0.,1.31708706258496E-14,-1.));
#889=DIRECTION('',(1.95625337508101E-19,1.,1.31708706258496E-14));
#890=DIRECTION('',(0.,1.31708706258496E-14,-1.));
#891=DIRECTION('',(1.95625337508101E-19,1.,1.31708706258496E-14));
#892=DIRECTION('',(0.,-1.31708706258496E-14,1.));
#893=DIRECTION('',(1.95625337508101E-19,1.,1.31708706258496E-14));
#894=DIRECTION('',(0.,-1.31708706258496E-14,1.));
#895=DIRECTION('',(1.95625337508101E-19,1.,1.31708706258496E-14));
#896=DIRECTION('',(0.,-1.31708706258496E-14,1.));
#897=DIRECTION('',(1.95625337508101E-19,1.,1.31708706258496E-14));
#898=DIRECTION('',(0.,-1.31708706258496E-14,1.));
#899=DIRECTION('',(1.0499681776923E-11,-1.,-1.25049970482257E-14));
#900=DIRECTION('',(1.83880688509885E-16,-8.29031844795177E-15,1.));
#901=DIRECTION('',(-1.04996817769229E-11,1.,1.25049970482257E-14));
#902=DIRECTION('',(1.,1.04996817769229E-11,0.));
#903=DIRECTION('',(-1.04996817769229E-11,1.,1.25049970482257E-14));
#904=DIRECTION('',(1.,1.04996817769229E-11,0.));
#905=DIRECTION('',(-1.04996817769229E-11,1.,1.25049970482257E-14));
#906=DIRECTION('',(1.,1.04996817769229E-11,0.));
#907=DIRECTION('',(-1.04996817769229E-11,1.,1.25049970482257E-14));
#908=DIRECTION('',(1.,1.04996817769229E-11,0.));
#909=DIRECTION('',(-1.,-1.04996817769229E-11,-1.38289952872999E-25));
#910=DIRECTION('',(1.0499681776923E-11,-1.,-1.25049970482257E-14));
#911=DIRECTION('',(-1.,-1.04996817769229E-11,0.));
#912=DIRECTION('',(-1.30261743360419E-34,1.25049970482257E-14,-1.));
#913=DIRECTION('',(1.0499681776923E-11,-1.,-1.25049970482257E-14));
#914=DIRECTION('',(-1.,-1.04996817769229E-11,0.));
#915=DIRECTION('',(0.239689085120755,2.50451864652096E-12,0.970849701279233));
#916=DIRECTION('',(1.0499681776923E-11,-1.,-1.25049970482257E-14));
#917=DIRECTION('',(-1.,-1.04996817769229E-11,0.));
#918=DIRECTION('',(-1.,-1.04996817769229E-11,-1.38289952872999E-25));
#919=DIRECTION('',(1.0499681776923E-11,-1.,-1.25049970482257E-14));
#920=DIRECTION('',(-1.,-1.04996817769229E-11,0.));
#921=DIRECTION('',(-1.69522400477171E-16,1.25049970482239E-14,-1.));
#922=DIRECTION('',(1.0499681776923E-11,-1.,-1.25049970482257E-14));
#923=DIRECTION('',(-1.,-1.04996817769229E-11,0.));
#924=DIRECTION('',(1.0499681776923E-11,-1.,-1.25049970482257E-14));
#925=DIRECTION('',(-1.,-1.04996817769229E-11,0.));
#926=DIRECTION('',(1.0499681776923E-11,-1.,-1.25049970482257E-14));
#927=DIRECTION('',(-1.,-1.04996817769229E-11,0.));
#928=DIRECTION('',(1.0499681776923E-11,-1.,-1.25049970482257E-14));
#929=DIRECTION('',(-1.,-1.04996817769229E-11,0.));
#930=DIRECTION('',(1.0499681776923E-11,-1.,-1.25049970482257E-14));
#931=DIRECTION('',(-1.,-1.04996817769229E-11,0.));
#932=DIRECTION('',(1.0499681776923E-11,-1.,-1.25049970482257E-14));
#933=DIRECTION('',(-1.,-1.04996817769229E-11,0.));
#934=DIRECTION('',(1.0499681776923E-11,-1.,-1.25049970482257E-14));
#935=DIRECTION('',(-1.,-1.04996817769229E-11,0.));
#936=DIRECTION('',(1.0499681776923E-11,-1.,-1.25049970482257E-14));
#937=DIRECTION('',(-1.,-1.04996817769229E-11,0.));
#938=DIRECTION('',(0.239689085120755,2.50451864652096E-12,0.970849701279233));
#939=DIRECTION('',(1.0499681776923E-11,-1.,-1.25049970482257E-14));
#940=DIRECTION('',(-1.,-1.04996817769229E-11,0.));
#941=DIRECTION('',(1.0499681776923E-11,-1.,-1.25049970482257E-14));
#942=DIRECTION('',(-1.,-1.04996817769229E-11,0.));
#943=DIRECTION('',(1.0499681776923E-11,-1.,-1.25049970482257E-14));
#944=DIRECTION('',(-1.,-1.04996817769229E-11,0.));
#945=DIRECTION('',(0.,1.,0.));
#946=DIRECTION('',(1.,0.,0.));
#947=DIRECTION('',(1.0499681776923E-11,-1.,-1.25049970482257E-14));
#948=DIRECTION('',(-1.,-1.04996817769229E-11,0.));
#949=DIRECTION('',(0.,1.,0.));
#950=DIRECTION('',(1.,0.,0.));
#951=DIRECTION('',(1.0499681776923E-11,-1.,-1.25049970482257E-14));
#952=DIRECTION('',(-1.,-1.04996817769229E-11,0.));
#953=DIRECTION('',(0.,1.,0.));
#954=DIRECTION('',(1.,0.,0.));
#955=DIRECTION('',(1.0499681776923E-11,-1.,-1.25049970482257E-14));
#956=DIRECTION('',(-1.,-1.04996817769229E-11,0.));
#957=DIRECTION('',(0.,1.,0.));
#958=DIRECTION('',(1.,0.,0.));
#959=DIRECTION('',(1.0499681776923E-11,-1.,-1.25049970482257E-14));
#960=DIRECTION('',(-1.,-1.04996817769229E-11,0.));
#961=DIRECTION('',(1.,-1.95625337508101E-19,-2.57655601145736E-33));
#962=DIRECTION('',(-1.95625337508101E-19,-1.,0.));
#963=DIRECTION('',(-1.95625337508101E-19,-1.,-1.31708706258496E-14));
#964=DIRECTION('',(-1.95625337508101E-19,-1.,-4.25409876830241E-11));
#965=DIRECTION('',(2.5765560114791E-33,1.31708706258496E-14,-1.));
#966=DIRECTION('',(0.,1.,1.31708706258496E-14));
#967=DIRECTION('',(-1.95625337508101E-19,-1.,-1.31708706258496E-14));
#968=DIRECTION('',(-1.95625337508101E-19,-1.,-1.31708706258496E-14));
#969=DIRECTION('',(1.,-1.95625337505868E-19,-1.69522400477171E-16));
#970=DIRECTION('',(-1.69522400477171E-16,0.,-1.));
#971=DIRECTION('',(-1.95625337508101E-19,-1.,-1.31708706258496E-14));
#972=DIRECTION('',(-1.95625337508101E-19,-1.,-1.31708706258496E-14));
#973=DIRECTION('',(2.57655601144576E-33,1.31708706258496E-14,-1.));
#974=DIRECTION('',(0.,1.,1.31708706258496E-14));
#975=DIRECTION('',(-1.95625337508101E-19,-1.,-1.31708706258496E-14));
#976=DIRECTION('',(-1.04995173821372E-11,1.,1.31708706258496E-14));
#977=DIRECTION('',(-1.95625337508101E-19,-1.,-1.31708706258496E-14));
#978=DIRECTION('',(0.,1.31708706258496E-14,-1.));
#979=DIRECTION('',(0.,1.,8.67361737988499E-15));
#980=DIRECTION('',(0.,-8.67361737988499E-15,1.));
#981=DIRECTION('',(-1.95625337508101E-19,-1.,-1.31708706258496E-14));
#982=DIRECTION('',(0.,1.31708706258496E-14,-1.));
#983=DIRECTION('',(0.,1.,0.));
#984=DIRECTION('',(1.,0.,0.));
#985=DIRECTION('',(-1.95625337508101E-19,-1.,-1.31708706258496E-14));
#986=DIRECTION('',(0.,1.31708706258496E-14,-1.));
#987=DIRECTION('',(0.,1.,0.));
#988=DIRECTION('',(1.,0.,0.));
#989=DIRECTION('',(0.,-1.,-8.67361737988499E-15));
#990=DIRECTION('',(0.,8.67361737988499E-15,-1.));
#991=DIRECTION('',(0.,-1.,0.));
#992=DIRECTION('',(-1.,0.,0.));
#993=DIRECTION('',(0.,-1.,0.));
#994=DIRECTION('',(-1.,0.,0.));
#995=DIRECTION('',(-1.95625337508101E-19,-1.,-1.31708706258496E-14));
#996=DIRECTION('',(0.,1.31708706258496E-14,-1.));
#997=DIRECTION('',(-1.95625337508101E-19,-1.,-1.31708706258496E-14));
#998=DIRECTION('',(0.,1.31708706258496E-14,-1.));
#999=DIRECTION('',(-1.95625337508101E-19,-1.,-1.31708706258496E-14));
#1000=DIRECTION('',(0.,1.31708706258496E-14,-1.));
#1001=DIRECTION('',(-1.95625337508101E-19,-1.,-1.31708706258496E-14));
#1002=DIRECTION('',(0.,1.31708706258496E-14,-1.));
#1003=DIRECTION('',(-0.970849701279233,-1.01966102279546E-11,0.239689085120755));
#1004=DIRECTION('',(0.239689085120755,0.,0.970849701279233));
#1005=DIRECTION('',(1.95625337508106E-19,1.,4.25409876830241E-11));
#1006=DIRECTION('',(-1.04995173821372E-11,1.,1.31708706258501E-14));
#1007=DIRECTION('',(-0.970849701279233,-1.01966102279546E-11,0.239689085120755));
#1008=DIRECTION('',(0.239689085120755,0.,0.970849701279233));
#1009=DIRECTION('',(-1.04995173821372E-11,1.,1.31708706258497E-14));
#1010=DIRECTION('',(-1.9562533905706E-19,-1.,-4.25409876830241E-11));
#1011=DIRECTION('',(1.04995173821372E-11,-1.,-1.31708706258496E-14));
#1012=DIRECTION('',(-1.,-1.04995173821372E-11,0.));
#1013=DIRECTION('',(-1.95625337508101E-19,-1.,-1.31708706258496E-14));
#1014=DIRECTION('',(0.,1.31708706258496E-14,-1.));
#1015=DIRECTION('',(1.95625337508101E-19,1.,1.31708706258496E-14));
#1016=DIRECTION('',(0.,-1.31708706258496E-14,1.));
#1017=DIRECTION('',(-1.95625337508101E-19,-1.,-1.31708706258496E-14));
#1018=DIRECTION('',(0.,1.31708706258496E-14,-1.));
#1019=DIRECTION('',(1.95625337508101E-19,1.,1.31708706258496E-14));
#1020=DIRECTION('',(0.,-1.31708706258496E-14,1.));
#1021=DIRECTION('',(1.04995173821372E-11,-1.,-1.31708706258496E-14));
#1022=DIRECTION('',(-1.,-1.04995173821372E-11,0.));
#1023=DIRECTION('',(1.95625337508101E-19,1.,4.25409876830241E-11));
#1024=DIRECTION('',(0.,-4.25409876830241E-11,1.));
#1025=DIRECTION('',(1.95625339144066E-19,1.,4.25409876830241E-11));
#1026=DIRECTION('',(0.,-4.25409876830241E-11,1.));
#1027=DIRECTION('',(1.04996817769229E-11,-1.,-1.25049970482257E-14));
#1028=DIRECTION('',(-1.,-1.04996817769229E-11,0.));
#1029=DIRECTION('',(-1.04777297949E-11,1.,1.30104260698261E-14));
#1030=DIRECTION('',(1.,1.04777297949E-11,0.));
#1031=DIRECTION('',(-1.04996817769229E-11,1.,1.25049970482257E-14));
#1032=DIRECTION('',(1.,1.04996817769229E-11,1.3129848962773E-25));
#1033=DIRECTION('',(-1.04996817769229E-11,1.,1.25049970482257E-14));
#1034=DIRECTION('',(1.,1.04996817769229E-11,0.));
#1035=DIRECTION('',(1.04996817769229E-11,-1.,-1.25049970482257E-14));
#1036=DIRECTION('',(-1.,-1.04996817769229E-11,0.));
#1037=DIRECTION('',(-1.04777297948992E-11,1.,1.7347234759767E-14));
#1038=DIRECTION('',(1.,1.04777297948992E-11,0.));
#1039=DIRECTION('',(-1.04996817769229E-11,1.,1.25049970482257E-14));
#1040=DIRECTION('',(1.,1.04996817769229E-11,1.3129848962773E-25));
#1041=DIRECTION('',(-1.04996817769229E-11,1.,1.25049970482257E-14));
#1042=DIRECTION('',(1.,1.04996817769229E-11,0.));
#1043=DIRECTION('',(1.04996817769229E-11,-1.,-1.25049970482257E-14));
#1044=DIRECTION('',(-1.,-1.04996817769229E-11,0.));
#1045=DIRECTION('',(-1.05471187339392E-11,1.,1.73472347597685E-14));
#1046=DIRECTION('',(1.,1.05471187339392E-11,0.));
#1047=DIRECTION('',(-1.04996817769229E-11,1.,1.25049970482257E-14));
#1048=DIRECTION('',(1.,1.04996817769229E-11,1.3129848962773E-25));
#1049=DIRECTION('',(-1.04996817769229E-11,1.,1.25049970482257E-14));
#1050=DIRECTION('',(1.,1.04996817769229E-11,0.));
#1051=DIRECTION('',(1.04996817769229E-11,-1.,-1.25049970482257E-14));
#1052=DIRECTION('',(-1.,-1.04996817769229E-11,0.));
#1053=DIRECTION('',(-1.05471187339383E-11,1.,1.30104260698252E-14));
#1054=DIRECTION('',(1.,1.05471187339383E-11,0.));
#1055=DIRECTION('',(-1.04996817769229E-11,1.,1.25049970482257E-14));
#1056=DIRECTION('',(1.,1.04996817769229E-11,1.3129848962773E-25));
#1057=DIRECTION('',(-1.04996817769229E-11,1.,1.25049970482257E-14));
#1058=DIRECTION('',(1.,1.04996817769229E-11,0.));
#1059=DIRECTION('',(1.05471187339383E-11,-1.,-1.30104260698252E-14));
#1060=DIRECTION('',(-1.,-1.05471187339383E-11,0.));
#1061=DIRECTION('',(1.05471187339392E-11,-1.,-1.73472347597685E-14));
#1062=DIRECTION('',(-1.,-1.05471187339392E-11,0.));
#1063=DIRECTION('',(1.04777297948992E-11,-1.,-1.7347234759767E-14));
#1064=DIRECTION('',(-1.,-1.04777297948992E-11,0.));
#1065=DIRECTION('',(1.04777297949E-11,-1.,-1.30104260698261E-14));
#1066=DIRECTION('',(-1.,-1.04777297949E-11,0.));
#1067=CARTESIAN_POINT('',(0.,0.,0.));
#1068=CARTESIAN_POINT('',(0.0798966069296773,0.013218347163885,-0.0430649928748606));
#1069=CARTESIAN_POINT('',(0.0798966069296773,0.0132163471632654,-0.0430649928748606));
#1070=CARTESIAN_POINT('',(0.0884368646770716,0.013216347163355,-0.0430649928748606));
#1071=CARTESIAN_POINT('',(0.0804272879073201,0.0132163471632709,-0.0430649928748606));
#1072=CARTESIAN_POINT('',(0.0804272879074589,4.12904643765581E-14,-0.0430649928748607));
#1073=CARTESIAN_POINT('',(0.0804272879074589,1.06960250417124E-15,-0.0430649928748607));
#1074=CARTESIAN_POINT('',(0.0798966069296773,1.06960260798588E-15,-0.0430649928748607));
#1075=CARTESIAN_POINT('',(0.0884368646770716,1.06960093729508E-15,-0.0430649928748607));
#1076=CARTESIAN_POINT('',(0.0884368646770716,0.013218347163885,-0.0430649928748606));
#1077=CARTESIAN_POINT('',(0.0914368646770716,0.0132183471638845,-0.00644784141331894));
#1078=CARTESIAN_POINT('',(0.0914368646770716,5.87320585831962E-16,-0.00644784141331911));
#1079=CARTESIAN_POINT('',(0.0914368646770716,3.86197104809857E-16,0.00882248404469365));
#1080=CARTESIAN_POINT('',(0.0914368646770716,1.03008773854152E-15,-0.0400649928748607));
#1081=CARTESIAN_POINT('',(0.0914368646770716,0.0132183471632349,0.00882248404525597));
#1082=CARTESIAN_POINT('',(0.0914368646770716,0.0132163471633859,0.00882248404525588));
#1083=CARTESIAN_POINT('',(0.0914368646770716,0.0132163471633861,-0.00644784141331894));
#1084=CARTESIAN_POINT('',(0.0914368646770716,0.0132163471633865,-0.0400649928748606));
#1085=CARTESIAN_POINT('',(0.0914368646770716,0.0132183471638849,-0.0400649928748606));
#1086=CARTESIAN_POINT('',(0.103629887255372,1.12462185730446E-15,-0.0472426887700399));
#1087=CARTESIAN_POINT('',(0.0804272879074589,1.03008989616664E-15,-0.0400649928748607));
#1088=CARTESIAN_POINT('',(0.0775147388036212,1.020619635333E-15,-0.0393459256194985));
#1089=CARTESIAN_POINT('',(0.0840167091400031,6.73751182069752E-16,-0.0130099914837301));
#1090=CARTESIAN_POINT('',(0.0894660149757924,3.83040491490007E-16,0.00906217312981441));
#1091=CARTESIAN_POINT('',(0.0904368646770716,3.85108611666851E-16,0.00882248404469365));
#1092=CARTESIAN_POINT('',(0.0884368646770716,1.03042574473022E-15,-0.0400649928748607));
#1093=CARTESIAN_POINT('',(0.0819308880783068,1.6269108459606E-15,-0.08537872077967));
#1094=CARTESIAN_POINT('',(0.0819308880783068,1.6611551095878E-15,-0.08797872077967));
#1095=CARTESIAN_POINT('',(0.0819308880783068,2.04837870598779E-15,-0.11737872077967));
#1096=CARTESIAN_POINT('',(0.0819308880783068,2.08262296961499E-15,-0.11997872077967));
#1097=CARTESIAN_POINT('',(0.116356349182283,3.91181793348569E-16,0.00844365081771727));
#1098=CARTESIAN_POINT('',(0.116356349182283,2.56838912964903E-16,0.0186436508177173));
#1099=CARTESIAN_POINT('',(0.0820572336751143,1.28513077957502E-15,-0.0594290283577902));
#1100=CARTESIAN_POINT('',(0.0820572336751143,1.22915457941516E-15,-0.0551790283577902));
#1101=CARTESIAN_POINT('',(0.122057233675115,1.28512295456152E-15,-0.0594290283577902));
#1102=CARTESIAN_POINT('',(0.122057233675115,1.22914675440166E-15,-0.0551790283577902));
#1103=CARTESIAN_POINT('',(0.0683563491822829,1.60871517568052E-15,-0.0839970106163254));
#1104=CARTESIAN_POINT('',(0.0683563491822829,2.10831287393078E-15,-0.12192902835779));
#1105=CARTESIAN_POINT('',(0.0683563491822829,1.07441027603129E-15,-0.0434298442666251));
#1106=CARTESIAN_POINT('',(0.0713563491822829,2.10768902331182E-15,-0.12192902835779));
#1107=CARTESIAN_POINT('',(0.0713563491822829,2.14782489893232E-15,-0.12492902835779));
#1108=CARTESIAN_POINT('',(0.129263573738278,2.14781357081197E-15,-0.12492902835779));
#1109=CARTESIAN_POINT('',(0.13590342532846,2.14781227188876E-15,-0.12492902835779));
#1110=CARTESIAN_POINT('',(0.13590342532846,2.10768902331182E-15,-0.12192902835779));
#1111=CARTESIAN_POINT('',(0.13890342532846,2.10829907313519E-15,-0.12192902835779));
#1112=CARTESIAN_POINT('',(0.13890342532846,1.60870137488494E-15,-0.0839970106163253));
#1113=CARTESIAN_POINT('',(0.13890342532846,1.44544147460456E-16,0.0271693100482225));
#1114=CARTESIAN_POINT('',(0.13590342532846,1.43982048506075E-16,0.0271693100482225));
#1115=CARTESIAN_POINT('',(0.13590342532846,1.0503212245892E-16,0.0301693100482226));
#1116=CARTESIAN_POINT('',(0.115170145002766,1.05036178413881E-16,0.0301693100482226));
#1117=CARTESIAN_POINT('',(0.0887862836878278,1.05041339765655E-16,0.0301693100482226));
#1118=CARTESIAN_POINT('',(0.0887862836878278,1.44553795745472E-16,0.0271693100482225));
#1119=CARTESIAN_POINT('',(0.0858737345839901,1.35083775421535E-16,0.0278883773035849));
#1120=CARTESIAN_POINT('',(0.077396606929816,5.87323328263712E-16,-0.0064478414133191));
#1121=CARTESIAN_POINT('',(0.0684438000784452,1.06493951293361E-15,-0.0427107770112628));
#1122=CARTESIAN_POINT('',(0.0713563491822829,1.0744096245823E-15,-0.0434298442666251));
#1123=CARTESIAN_POINT('',(0.12218357927163,1.62690297151429E-15,-0.08537872077967));
#1124=CARTESIAN_POINT('',(0.12218357927163,1.6611472351415E-15,-0.08797872077967));
#1125=CARTESIAN_POINT('',(0.12218357927163,2.04837083154149E-15,-0.11737872077967));
#1126=CARTESIAN_POINT('',(0.12218357927163,2.08261509516869E-15,-0.11997872077967));
#1127=CARTESIAN_POINT('',(0.131912698364567,5.96744875736022E-16,-0.00711269836456661));
#1128=CARTESIAN_POINT('',(0.131912698364567,5.6184206857752E-16,-0.00446269836456661));
#1129=CARTESIAN_POINT('',(0.131912698364567,1.86482773667507E-16,0.0240000000000007));
#1130=CARTESIAN_POINT('',(0.131912698364567,1.51579966509005E-16,0.0266500000000007));
#1131=CARTESIAN_POINT('',(0.1008,1.86482773667507E-16,0.0240000000000011));
#1132=CARTESIAN_POINT('',(0.1008,1.51579966509005E-16,0.0266500000000011));
#1133=CARTESIAN_POINT('',(0.1008,5.96744875736022E-16,-0.00711269836456615));
#1134=CARTESIAN_POINT('',(0.1008,5.6184206857752E-16,-0.00446269836456615));
#1135=CARTESIAN_POINT('',(0.102057233675114,0.0132163471634982,-0.05942902835779));
#1136=CARTESIAN_POINT('',(0.131912698364567,0.0132163471638111,-0.00711269836456643));
#1137=CARTESIAN_POINT('',(0.135762698364567,0.0132163471638515,-0.00711269836456643));
#1138=CARTESIAN_POINT('',(0.131912698364567,0.0132163471638107,0.0240000000000009));
#1139=CARTESIAN_POINT('',(0.135762698364567,0.0132163471638511,0.0240000000000009));
#1140=CARTESIAN_POINT('',(0.1008,0.0132163471634841,0.0240000000000014));
#1141=CARTESIAN_POINT('',(0.10465,0.0132163471635245,0.0240000000000014));
#1142=CARTESIAN_POINT('',(0.1008,0.0132163471634844,-0.00711269836456598));
#1143=CARTESIAN_POINT('',(0.10465,0.0132163471635249,-0.00711269836456598));
#1144=CARTESIAN_POINT('',(0.129263573738278,0.0132163471637847,-0.12492902835779));
#1145=CARTESIAN_POINT('',(0.13590342532846,0.0132163471638544,-0.12492902835779));
#1146=CARTESIAN_POINT('',(0.0713563491822829,0.0132163471631767,-0.12492902835779));
#1147=CARTESIAN_POINT('',(0.0713563491822829,0.0132163471631767,-0.12192902835779));
#1148=CARTESIAN_POINT('',(0.0683563491822829,0.0132163471631452,-0.12192902835779));
#1149=CARTESIAN_POINT('',(0.0683563491822829,0.0132163471631447,-0.0839970106163252));
#1150=CARTESIAN_POINT('',(0.0683563491822829,0.0132163471631442,-0.0434298442660628));
#1151=CARTESIAN_POINT('',(0.0713563491822829,0.0132163471631757,-0.0434298442660628));
#1152=CARTESIAN_POINT('',(0.0684438000784452,0.0132163471631452,-0.0427107770107005));
#1153=CARTESIAN_POINT('',(0.0773966069296773,0.0132163471632387,-0.00644784141331894));
#1154=CARTESIAN_POINT('',(0.0858737345838514,0.0132163471633273,0.027888377303585));
#1155=CARTESIAN_POINT('',(0.0887862836876891,0.0132163471633578,0.0271693100482227));
#1156=CARTESIAN_POINT('',(0.0887862836876891,0.0132163471633578,0.0301693100482227));
#1157=CARTESIAN_POINT('',(0.115170145002766,0.0132163471636348,0.0301693100482227));
#1158=CARTESIAN_POINT('',(0.13590342532846,0.0132163471638525,0.0301693100482227));
#1159=CARTESIAN_POINT('',(0.13590342532846,0.0132163471638525,0.0271693100482227));
#1160=CARTESIAN_POINT('',(0.13890342532846,0.013216347163884,0.0271693100482227));
#1161=CARTESIAN_POINT('',(0.13890342532846,0.0132163471638854,-0.0839970106163252));
#1162=CARTESIAN_POINT('',(0.13890342532846,0.0132163471638859,-0.12192902835779));
#1163=CARTESIAN_POINT('',(0.13590342532846,0.0132163471638544,-0.12192902835779));
#1164=CARTESIAN_POINT('',(0.0819308880783068,0.0132163471632873,-0.0853787207796698));
#1165=CARTESIAN_POINT('',(0.0793308880783068,0.01321634716326,-0.0853787207796698));
#1166=CARTESIAN_POINT('',(0.0819308880783068,0.0132163471632876,-0.11737872077967));
#1167=CARTESIAN_POINT('',(0.0793308880783068,0.0132163471632603,-0.11737872077967));
#1168=CARTESIAN_POINT('',(0.0820572336751143,0.0132163471632883,-0.05942902835779));
#1169=CARTESIAN_POINT('',(0.0780072336751143,0.0132163471632457,-0.05942902835779));
#1170=CARTESIAN_POINT('',(0.122057233675115,0.0132163471637083,-0.05942902835779));
#1171=CARTESIAN_POINT('',(0.118007233675115,0.0132163471636657,-0.05942902835779));
#1172=CARTESIAN_POINT('',(0.116356349182283,0.0132163471636476,0.00844365081771744));
#1173=CARTESIAN_POINT('',(0.106356349182283,0.0132163471635426,0.00844365081771744));
#1174=CARTESIAN_POINT('',(0.0884368646770716,0.013216347163355,-0.0400649928748606));
#1175=CARTESIAN_POINT('',(0.0904368646770716,0.0132163471633754,0.00882248404525588));
#1176=CARTESIAN_POINT('',(0.0894660149757924,0.0132163471633652,0.00906217313037664));
#1177=CARTESIAN_POINT('',(0.0840167091398643,0.0132163471633083,-0.0130099914837299));
#1178=CARTESIAN_POINT('',(0.0775147388034824,0.0132163471632404,-0.0393459256194983));
#1179=CARTESIAN_POINT('',(0.0804272879073201,0.0132163471632709,-0.0400649928748606));
#1180=CARTESIAN_POINT('',(0.12218357927163,0.0132163471637099,-0.0853787207796698));
#1181=CARTESIAN_POINT('',(0.11958357927163,0.0132163471636826,-0.0853787207796698));
#1182=CARTESIAN_POINT('',(0.12218357927163,0.0132163471637103,-0.11737872077967));
#1183=CARTESIAN_POINT('',(0.11958357927163,0.013216347163683,-0.11737872077967));
#1184=CARTESIAN_POINT('',(0.131912698364567,-0.0040019999975912,-0.00711269836456661));
#1185=CARTESIAN_POINT('',(0.131912698364525,0.017216347163811,-0.00711269836456638));
#1186=CARTESIAN_POINT('',(0.129262698364525,0.0172163471637832,-0.00711269836456638));
#1187=CARTESIAN_POINT('',(0.1008,-0.0040019999975912,-0.00711269836456615));
#1188=CARTESIAN_POINT('',(0.100799999999958,0.0172163471634844,-0.00711269836456593));
#1189=CARTESIAN_POINT('',(0.0981499999999576,0.0172163471634566,-0.00711269836456593));
#1190=CARTESIAN_POINT('',(0.1008,-0.0040019999975912,0.0240000000000011));
#1191=CARTESIAN_POINT('',(0.100799999999958,0.017216347163484,0.0240000000000014));
#1192=CARTESIAN_POINT('',(0.098149999999958,0.0172163471634562,0.0240000000000014));
#1193=CARTESIAN_POINT('',(0.131912698364567,-0.0040019999975912,0.0240000000000007));
#1194=CARTESIAN_POINT('',(0.131912698364525,0.0172163471638107,0.0240000000000009));
#1195=CARTESIAN_POINT('',(0.129262698364525,0.0172163471637829,0.0240000000000009));
#1196=CARTESIAN_POINT('',(0.0683563491822829,0.0132183471638855,-0.0839970106163252));
#1197=CARTESIAN_POINT('',(0.0683563491822829,2.10768961018784E-15,-0.12192902835779));
#1198=CARTESIAN_POINT('',(0.0683563491822829,0.0132163471631602,-0.0434298442660628));
#1199=CARTESIAN_POINT('',(0.129263573738278,0.013218347163886,-0.12492902835779));
#1200=CARTESIAN_POINT('',(0.0713563491822829,0.0132163471631447,-0.12492902835779));
#1201=CARTESIAN_POINT('',(0.13590342532846,0.013218347163886,-0.12492902835779));
#1202=CARTESIAN_POINT('',(0.13890342532846,0.0132183471638855,-0.0839970106163252));
#1203=CARTESIAN_POINT('',(0.13890342532846,0.013218347163886,-0.12192902835779));
#1204=CARTESIAN_POINT('',(0.13890342532846,1.45716185106039E-16,0.0271693100482225));
#1205=CARTESIAN_POINT('',(0.115170145002766,0.013218347163884,0.0301693100482227));
#1206=CARTESIAN_POINT('',(0.13590342532846,0.013216347163885,0.0301693100482227));
#1207=CARTESIAN_POINT('',(0.0887862836878278,2.47728068946758E-14,0.0301693100482226));
#1208=CARTESIAN_POINT('',(0.116356349182283,0.175615142010076,0.00844365081771958));
#1209=CARTESIAN_POINT('',(0.116356349182283,0.000200000000000394,0.00844365081771727));
#1210=CARTESIAN_POINT('',(0.116356349182283,0.000200000000000308,0.0184436508177173));
#1211=CARTESIAN_POINT('',(0.122057233675115,0.175615142010077,-0.0594290283577879));
#1212=CARTESIAN_POINT('',(0.122057233675115,0.000200000000001311,-0.0594290283577902));
#1213=CARTESIAN_POINT('',(0.126107233675115,0.000200000000001311,-0.0594290283577902));
#1214=CARTESIAN_POINT('',(0.0820572336751143,0.175615142010077,-0.0594290283577879));
#1215=CARTESIAN_POINT('',(0.0820572336751143,0.000200000000001311,-0.0594290283577902));
#1216=CARTESIAN_POINT('',(0.0861072336751143,0.000200000000001311,-0.0594290283577902));
#1217=CARTESIAN_POINT('',(0.116356349182283,0.000200000000000394,0.00844365081771727));
#1218=CARTESIAN_POINT('',(0.0820572336751143,0.000200000000001311,-0.0594290283577902));
#1219=CARTESIAN_POINT('',(0.122057233675115,0.000200000000001311,-0.0594290283577902));
#1220=CARTESIAN_POINT('',(0.0819308880783068,0.175615142010078,-0.117378720779668));
#1221=CARTESIAN_POINT('',(0.0819308880783068,0.175615142010078,-0.0853787207796677));
#1222=CARTESIAN_POINT('',(0.12218357927163,0.175615142010078,-0.0853787207796677));
#1223=CARTESIAN_POINT('',(0.12218357927163,0.175615142010078,-0.117378720779668));
#1224=CARTESIAN_POINT('',(0.0840167091400031,-2.00000007772802E-6,-0.0130099914837301));
#1225=CARTESIAN_POINT('',(0.0894660149757924,-2.00000101669971E-6,0.00906217312981431));
#1226=CARTESIAN_POINT('',(0.0775147388034824,0.0132163471632403,-0.0393459256194983));
#1227=CARTESIAN_POINT('',(0.077396606929816,-2.00000014731819E-6,-0.0064478414133191));
#1228=CARTESIAN_POINT('',(0.0858737345838514,0.0132163471633273,0.027888377303585));
#1229=CARTESIAN_POINT('',(0.0684438000784452,-1.39990878255521E-14,-0.0427107770112628));
#1230=CARTESIAN_POINT('',(0.0804272879074589,-2.00000011505888E-6,-0.0400649928748607));
#1231=CARTESIAN_POINT('',(0.0884368646770716,0.0132183471638849,-0.0400649928748606));
#1232=CARTESIAN_POINT('',(0.0713563491822829,0.013218347163886,-0.12192902835779));
#1233=CARTESIAN_POINT('',(0.13590342532846,0.013218347163886,-0.12192902835779));
#1234=CARTESIAN_POINT('',(0.13590342532846,0.013218347163884,0.0271693100482227));
#1235=CARTESIAN_POINT('',(0.0887862836878278,-2.00000002817484E-6,0.0271693100482225));
#1236=CARTESIAN_POINT('',(0.0713563491822829,-1.99999857406726E-6,-0.0434298442666251));
#1237=CARTESIAN_POINT('',(0.0904368646770716,0.0132183471632349,0.00882248404525597));
#1238=CARTESIAN_POINT('',(0.100799999999958,0.0172163471634844,-0.00711269836456593));
#1239=CARTESIAN_POINT('',(0.10079999999996,0.0170163471634844,-0.00711269836456593));
#1240=CARTESIAN_POINT('',(0.10464999999996,0.0170163471635248,-0.00711269836456593));
#1241=CARTESIAN_POINT('',(0.10362988725533,0.0172163471635146,-0.0473798591547835));
#1242=CARTESIAN_POINT('',(0.100799999999958,0.0172163471634844,-0.00711269836456593));
#1243=CARTESIAN_POINT('',(0.104449999999958,0.0172163471635228,-0.00711269836456593));
#1244=CARTESIAN_POINT('',(0.100799999999958,0.017216347163484,0.0240000000000014));
#1245=CARTESIAN_POINT('',(0.10079999999996,0.0170163471634841,0.0240000000000014));
#1246=CARTESIAN_POINT('',(0.10464999999996,0.0170163471635244,0.0240000000000014));
#1247=CARTESIAN_POINT('',(0.10362988725533,0.0172163471635146,-0.0473798591547835));
#1248=CARTESIAN_POINT('',(0.100799999999958,0.017216347163484,0.0240000000000014));
#1249=CARTESIAN_POINT('',(0.104449999999958,0.0172163471635224,0.0240000000000014));
#1250=CARTESIAN_POINT('',(0.131912698364525,0.0172163471638107,0.0240000000000009));
#1251=CARTESIAN_POINT('',(0.131912698364527,0.0170163471638108,0.0240000000000009));
#1252=CARTESIAN_POINT('',(0.135762698364527,0.0170163471638514,0.0240000000000009));
#1253=CARTESIAN_POINT('',(0.10362988725533,0.0172163471635146,-0.0473798591547835));
#1254=CARTESIAN_POINT('',(0.131912698364525,0.0172163471638107,0.0240000000000009));
#1255=CARTESIAN_POINT('',(0.135562698364525,0.0172163471638491,0.0240000000000009));
#1256=CARTESIAN_POINT('',(0.131912698364525,0.0172163471638111,-0.00711269836456638));
#1257=CARTESIAN_POINT('',(0.131912698364527,0.0170163471638111,-0.00711269836456639));
#1258=CARTESIAN_POINT('',(0.135762698364527,0.0170163471638517,-0.00711269836456639));
#1259=CARTESIAN_POINT('',(0.10362988725533,0.0172163471635146,-0.0473798591547835));
#1260=CARTESIAN_POINT('',(0.131912698364525,0.0172163471638111,-0.00711269836456638));
#1261=CARTESIAN_POINT('',(0.135562698364525,0.0172163471638494,-0.00711269836456638));
#1262=CARTESIAN_POINT('',(0.131912698364525,0.0172163471638111,-0.00711269836456638));
#1263=CARTESIAN_POINT('',(0.131912698364525,0.0172163471638107,0.0240000000000009));
#1264=CARTESIAN_POINT('',(0.100799999999958,0.017216347163484,0.0240000000000014));
#1265=CARTESIAN_POINT('',(0.100799999999958,0.0172163471634844,-0.00711269836456593));
#1266=MECHANICAL_DESIGN_GEOMETRIC_PRESENTATION_REPRESENTATION('',(#730),
#1267);
#1267=(
GEOMETRIC_REPRESENTATION_CONTEXT(3)
GLOBAL_UNCERTAINTY_ASSIGNED_CONTEXT((#1268))
GLOBAL_UNIT_ASSIGNED_CONTEXT((#1271,#1270,#1269))
REPRESENTATION_CONTEXT('BallScrewHolder-RL','TOP_LEVEL_ASSEMBLY_PART')
);
#1268=UNCERTAINTY_MEASURE_WITH_UNIT(LENGTH_MEASURE(1.E-8),#1271,
'DISTANCE_ACCURACY_VALUE','Maximum Tolerance applied to model');
#1269=(
NAMED_UNIT(*)
SI_UNIT($,.STERADIAN.)
SOLID_ANGLE_UNIT()
);
#1270=(
NAMED_UNIT(*)
PLANE_ANGLE_UNIT()
SI_UNIT($,.RADIAN.)
);
#1271=(
LENGTH_UNIT()
NAMED_UNIT(*)
SI_UNIT($,.METRE.)
);
#1272=PRODUCT_DEFINITION_SHAPE('','',#1273);
#1273=PRODUCT_DEFINITION('','',#1275,#1274);
#1274=PRODUCT_DEFINITION_CONTEXT('',#1281,'design');
#1275=PRODUCT_DEFINITION_FORMATION_WITH_SPECIFIED_SOURCE('','',#1277,
 .NOT_KNOWN.);
#1276=PRODUCT_RELATED_PRODUCT_CATEGORY('','',(#1277));
#1277=PRODUCT('BallScrewHolder-RL','BallScrewHolder-RL',
'BallScrewHolder-RL',(#1279));
#1278=PRODUCT_CATEGORY('','');
#1279=PRODUCT_CONTEXT('',#1281,'mechanical');
#1280=APPLICATION_PROTOCOL_DEFINITION('international standard',
'ap242_managed_model_based_3d_engineering',2020,#1281);
#1281=APPLICATION_CONTEXT('managed model based 3d engineering');
ENDSEC;
END-ISO-10303-21;
