ISO-10303-21;
HEADER;
/* Generated by software containing ST-Developer
 * from STEP Tools, Inc. (www.steptools.com) 
 */
/* OPTION: using custom renumber hook */

FILE_DESCRIPTION(
/* description */ ('STEP AP242 Edition 2',
'CAx-IF Rec.Pracs.---Representation and Presentation of Product Manufa
cturing Information (PMI)---4.0---2014-10-13',
'CAx-IF Rec.Pracs.---3D Tessellated Geometry---0.4---2014-09-14','2;1',
'CAx-IF Rec.Pracs.---User Defined Attributes---1.5---2016-08-15'),
/* implementation_level */ '2;1');

FILE_NAME(
/* name */ 'Router - YAxis-KW12Holder',
/* time_stamp */ '2026-08-15T23:20:15Z',
/* author */ (''),
/* organization */ (''),
/* preprocessor_version */ 'ST-DEVELOPER v20',
/* originating_system */ 'ONSHAPE BY PTC INC, 1.219',
/* authorisation */ '  ');

FILE_SCHEMA (('AP242_MANAGED_MODEL_BASED_3D_ENGINEERING_MIM_LF { 1 0 10303 442 3 1 4 }'));
ENDSEC;

DATA;
#10=SHAPE_REPRESENTATION_RELATIONSHIP('','',#471,#11);
#11=ADVANCED_BREP_SHAPE_REPRESENTATION('',(#469),#849);
#12=B_SPLINE_SURFACE_WITH_KNOTS('',5,1,((#780,#781),(#782,#783),(#784,#785),
(#786,#787),(#788,#789),(#790,#791),(#792,#793),(#794,#795)),
 .SURF_OF_LINEAR_EXTRUSION.,.F.,.F.,.F.,(6,2,6),(2,2),(0.,0.5,1.),(0.,1.),
 .UNSPECIFIED.);
#13=B_SPLINE_SURFACE_WITH_KNOTS('',5,1,((#796,#797),(#798,#799),(#800,#801),
(#802,#803),(#804,#805),(#806,#807),(#808,#809),(#810,#811)),
 .SURF_OF_LINEAR_EXTRUSION.,.F.,.F.,.F.,(6,2,6),(2,2),(0.,0.5,1.),(0.,1.),
 .UNSPECIFIED.);
#14=B_SPLINE_SURFACE_WITH_KNOTS('',5,1,((#812,#813),(#814,#815),(#816,#817),
(#818,#819),(#820,#821),(#822,#823),(#824,#825),(#826,#827)),
 .SURF_OF_LINEAR_EXTRUSION.,.F.,.F.,.F.,(6,2,6),(2,2),(0.,0.5,1.),(0.,1.),
 .UNSPECIFIED.);
#15=B_SPLINE_SURFACE_WITH_KNOTS('',5,1,((#832,#833),(#834,#835),(#836,#837),
(#838,#839),(#840,#841),(#842,#843),(#844,#845),(#846,#847)),
 .SURF_OF_LINEAR_EXTRUSION.,.F.,.F.,.F.,(6,2,6),(2,2),(0.,0.5,1.),(0.,1.),
 .UNSPECIFIED.);
#16=CIRCLE('',#481,0.00275);
#17=CIRCLE('',#482,0.00275);
#18=CIRCLE('',#485,0.00275);
#19=CIRCLE('',#486,0.00275);
#20=CIRCLE('',#488,0.00192751440624779);
#21=CIRCLE('',#489,0.00192751440627842);
#22=CIRCLE('',#490,0.00192751440624786);
#23=CIRCLE('',#491,0.00192751440624789);
#24=CIRCLE('',#493,0.00192751440624789);
#25=CIRCLE('',#494,0.00192751440624786);
#26=CIRCLE('',#495,0.00192751440627842);
#27=CIRCLE('',#496,0.00192751440624779);
#28=CYLINDRICAL_SURFACE('',#480,0.00275);
#29=CYLINDRICAL_SURFACE('',#484,0.00275);
#30=CYLINDRICAL_SURFACE('',#501,0.00192751440624779);
#31=CYLINDRICAL_SURFACE('',#502,0.00192751440627842);
#32=CYLINDRICAL_SURFACE('',#503,0.00192751440624786);
#33=CYLINDRICAL_SURFACE('',#504,0.00192751440624789);
#34=B_SPLINE_CURVE_WITH_KNOTS('',3,(#612,#613,#614,#615),.UNSPECIFIED.,
 .F.,.F.,(4,4),(0.,1.),.UNSPECIFIED.);
#35=B_SPLINE_CURVE_WITH_KNOTS('',3,(#651,#652,#653,#654),.UNSPECIFIED.,
 .F.,.F.,(4,4),(0.,1.),.UNSPECIFIED.);
#36=B_SPLINE_CURVE_WITH_KNOTS('',3,(#663,#664,#665,#666),.UNSPECIFIED.,
 .F.,.F.,(4,4),(0.,1.),.UNSPECIFIED.);
#37=B_SPLINE_CURVE_WITH_KNOTS('',3,(#670,#671,#672,#673),.UNSPECIFIED.,
 .F.,.F.,(4,4),(0.,1.),.UNSPECIFIED.);
#38=B_SPLINE_CURVE_WITH_KNOTS('',3,(#678,#679,#680,#681),.UNSPECIFIED.,
 .F.,.F.,(4,4),(0.,1.),.UNSPECIFIED.);
#39=B_SPLINE_CURVE_WITH_KNOTS('',3,(#685,#686,#687,#688),.UNSPECIFIED.,
 .F.,.F.,(4,4),(0.,1.),.UNSPECIFIED.);
#40=B_SPLINE_CURVE_WITH_KNOTS('',3,(#698,#699,#700,#701),.UNSPECIFIED.,
 .F.,.F.,(4,4),(0.,1.),.UNSPECIFIED.);
#41=B_SPLINE_CURVE_WITH_KNOTS('',3,(#705,#706,#707,#708),.UNSPECIFIED.,
 .F.,.F.,(4,4),(0.,1.),.UNSPECIFIED.);
#42=B_SPLINE_CURVE_WITH_KNOTS('',3,(#723,#724,#725,#726),.UNSPECIFIED.,
 .F.,.F.,(4,4),(0.,1.),.UNSPECIFIED.);
#43=B_SPLINE_CURVE_WITH_KNOTS('',3,(#731,#732,#733,#734),.UNSPECIFIED.,
 .F.,.F.,(4,4),(0.,1.),.UNSPECIFIED.);
#44=B_SPLINE_CURVE_WITH_KNOTS('',3,(#735,#736,#737,#738),.UNSPECIFIED.,
 .F.,.F.,(4,4),(0.,1.),.UNSPECIFIED.);
#45=B_SPLINE_CURVE_WITH_KNOTS('',3,(#739,#740,#741,#742),.UNSPECIFIED.,
 .F.,.F.,(4,4),(0.,1.),.UNSPECIFIED.);
#46=B_SPLINE_CURVE_WITH_KNOTS('',3,(#752,#753,#754,#755),.UNSPECIFIED.,
 .F.,.F.,(4,4),(0.,1.),.UNSPECIFIED.);
#47=B_SPLINE_CURVE_WITH_KNOTS('',3,(#756,#757,#758,#759),.UNSPECIFIED.,
 .F.,.F.,(4,4),(0.,1.),.UNSPECIFIED.);
#48=B_SPLINE_CURVE_WITH_KNOTS('',3,(#760,#761,#762,#763),.UNSPECIFIED.,
 .F.,.F.,(4,4),(0.,1.),.UNSPECIFIED.);
#49=B_SPLINE_CURVE_WITH_KNOTS('',3,(#764,#765,#766,#767),.UNSPECIFIED.,
 .F.,.F.,(4,4),(0.,1.),.UNSPECIFIED.);
#50=ORIENTED_EDGE('',*,*,#178,.T.);
#51=ORIENTED_EDGE('',*,*,#179,.T.);
#52=ORIENTED_EDGE('',*,*,#180,.F.);
#53=ORIENTED_EDGE('',*,*,#181,.T.);
#54=ORIENTED_EDGE('',*,*,#182,.T.);
#55=ORIENTED_EDGE('',*,*,#183,.T.);
#56=ORIENTED_EDGE('',*,*,#184,.F.);
#57=ORIENTED_EDGE('',*,*,#185,.T.);
#58=ORIENTED_EDGE('',*,*,#186,.T.);
#59=ORIENTED_EDGE('',*,*,#187,.T.);
#60=ORIENTED_EDGE('',*,*,#188,.F.);
#61=ORIENTED_EDGE('',*,*,#189,.T.);
#62=ORIENTED_EDGE('',*,*,#190,.T.);
#63=ORIENTED_EDGE('',*,*,#191,.T.);
#64=ORIENTED_EDGE('',*,*,#192,.F.);
#65=ORIENTED_EDGE('',*,*,#193,.T.);
#66=ORIENTED_EDGE('',*,*,#194,.T.);
#67=ORIENTED_EDGE('',*,*,#195,.T.);
#68=ORIENTED_EDGE('',*,*,#196,.F.);
#69=ORIENTED_EDGE('',*,*,#197,.T.);
#70=ORIENTED_EDGE('',*,*,#198,.F.);
#71=ORIENTED_EDGE('',*,*,#199,.T.);
#72=ORIENTED_EDGE('',*,*,#200,.T.);
#73=ORIENTED_EDGE('',*,*,#201,.T.);
#74=ORIENTED_EDGE('',*,*,#202,.T.);
#75=ORIENTED_EDGE('',*,*,#203,.T.);
#76=ORIENTED_EDGE('',*,*,#204,.F.);
#77=ORIENTED_EDGE('',*,*,#205,.T.);
#78=ORIENTED_EDGE('',*,*,#206,.T.);
#79=ORIENTED_EDGE('',*,*,#207,.F.);
#80=ORIENTED_EDGE('',*,*,#208,.T.);
#81=ORIENTED_EDGE('',*,*,#209,.T.);
#82=ORIENTED_EDGE('',*,*,#210,.F.);
#83=ORIENTED_EDGE('',*,*,#211,.T.);
#84=ORIENTED_EDGE('',*,*,#212,.T.);
#85=ORIENTED_EDGE('',*,*,#213,.F.);
#86=ORIENTED_EDGE('',*,*,#214,.F.);
#87=ORIENTED_EDGE('',*,*,#215,.T.);
#88=ORIENTED_EDGE('',*,*,#216,.T.);
#89=ORIENTED_EDGE('',*,*,#217,.F.);
#90=ORIENTED_EDGE('',*,*,#210,.T.);
#91=ORIENTED_EDGE('',*,*,#218,.T.);
#92=ORIENTED_EDGE('',*,*,#178,.F.);
#93=ORIENTED_EDGE('',*,*,#219,.T.);
#94=ORIENTED_EDGE('',*,*,#182,.F.);
#95=ORIENTED_EDGE('',*,*,#220,.T.);
#96=ORIENTED_EDGE('',*,*,#186,.F.);
#97=ORIENTED_EDGE('',*,*,#221,.T.);
#98=ORIENTED_EDGE('',*,*,#190,.F.);
#99=ORIENTED_EDGE('',*,*,#222,.T.);
#100=ORIENTED_EDGE('',*,*,#196,.T.);
#101=ORIENTED_EDGE('',*,*,#223,.T.);
#102=ORIENTED_EDGE('',*,*,#198,.T.);
#103=ORIENTED_EDGE('',*,*,#224,.T.);
#104=ORIENTED_EDGE('',*,*,#204,.T.);
#105=ORIENTED_EDGE('',*,*,#225,.T.);
#106=ORIENTED_EDGE('',*,*,#206,.F.);
#107=ORIENTED_EDGE('',*,*,#212,.F.);
#108=ORIENTED_EDGE('',*,*,#226,.F.);
#109=ORIENTED_EDGE('',*,*,#227,.T.);
#110=ORIENTED_EDGE('',*,*,#228,.T.);
#111=ORIENTED_EDGE('',*,*,#229,.F.);
#112=ORIENTED_EDGE('',*,*,#180,.T.);
#113=ORIENTED_EDGE('',*,*,#230,.T.);
#114=ORIENTED_EDGE('',*,*,#208,.F.);
#115=ORIENTED_EDGE('',*,*,#231,.T.);
#116=ORIENTED_EDGE('',*,*,#202,.F.);
#117=ORIENTED_EDGE('',*,*,#232,.T.);
#118=ORIENTED_EDGE('',*,*,#200,.F.);
#119=ORIENTED_EDGE('',*,*,#233,.T.);
#120=ORIENTED_EDGE('',*,*,#194,.F.);
#121=ORIENTED_EDGE('',*,*,#234,.T.);
#122=ORIENTED_EDGE('',*,*,#192,.T.);
#123=ORIENTED_EDGE('',*,*,#235,.T.);
#124=ORIENTED_EDGE('',*,*,#188,.T.);
#125=ORIENTED_EDGE('',*,*,#236,.T.);
#126=ORIENTED_EDGE('',*,*,#184,.T.);
#127=ORIENTED_EDGE('',*,*,#237,.T.);
#128=ORIENTED_EDGE('',*,*,#207,.T.);
#129=ORIENTED_EDGE('',*,*,#213,.T.);
#130=ORIENTED_EDGE('',*,*,#214,.T.);
#131=ORIENTED_EDGE('',*,*,#238,.F.);
#132=ORIENTED_EDGE('',*,*,#227,.F.);
#133=ORIENTED_EDGE('',*,*,#239,.T.);
#134=ORIENTED_EDGE('',*,*,#215,.F.);
#135=ORIENTED_EDGE('',*,*,#239,.F.);
#136=ORIENTED_EDGE('',*,*,#226,.T.);
#137=ORIENTED_EDGE('',*,*,#240,.T.);
#138=ORIENTED_EDGE('',*,*,#216,.F.);
#139=ORIENTED_EDGE('',*,*,#240,.F.);
#140=ORIENTED_EDGE('',*,*,#229,.T.);
#141=ORIENTED_EDGE('',*,*,#241,.T.);
#142=ORIENTED_EDGE('',*,*,#217,.T.);
#143=ORIENTED_EDGE('',*,*,#241,.F.);
#144=ORIENTED_EDGE('',*,*,#228,.F.);
#145=ORIENTED_EDGE('',*,*,#238,.T.);
#146=ORIENTED_EDGE('',*,*,#218,.F.);
#147=ORIENTED_EDGE('',*,*,#209,.F.);
#148=ORIENTED_EDGE('',*,*,#230,.F.);
#149=ORIENTED_EDGE('',*,*,#179,.F.);
#150=ORIENTED_EDGE('',*,*,#225,.F.);
#151=ORIENTED_EDGE('',*,*,#203,.F.);
#152=ORIENTED_EDGE('',*,*,#231,.F.);
#153=ORIENTED_EDGE('',*,*,#211,.F.);
#154=ORIENTED_EDGE('',*,*,#223,.F.);
#155=ORIENTED_EDGE('',*,*,#195,.F.);
#156=ORIENTED_EDGE('',*,*,#233,.F.);
#157=ORIENTED_EDGE('',*,*,#199,.F.);
#158=ORIENTED_EDGE('',*,*,#219,.F.);
#159=ORIENTED_EDGE('',*,*,#181,.F.);
#160=ORIENTED_EDGE('',*,*,#237,.F.);
#161=ORIENTED_EDGE('',*,*,#183,.F.);
#162=ORIENTED_EDGE('',*,*,#220,.F.);
#163=ORIENTED_EDGE('',*,*,#185,.F.);
#164=ORIENTED_EDGE('',*,*,#236,.F.);
#165=ORIENTED_EDGE('',*,*,#187,.F.);
#166=ORIENTED_EDGE('',*,*,#221,.F.);
#167=ORIENTED_EDGE('',*,*,#189,.F.);
#168=ORIENTED_EDGE('',*,*,#235,.F.);
#169=ORIENTED_EDGE('',*,*,#191,.F.);
#170=ORIENTED_EDGE('',*,*,#222,.F.);
#171=ORIENTED_EDGE('',*,*,#193,.F.);
#172=ORIENTED_EDGE('',*,*,#234,.F.);
#173=ORIENTED_EDGE('',*,*,#197,.F.);
#174=ORIENTED_EDGE('',*,*,#224,.F.);
#175=ORIENTED_EDGE('',*,*,#201,.F.);
#176=ORIENTED_EDGE('',*,*,#232,.F.);
#177=ORIENTED_EDGE('',*,*,#205,.F.);
#178=EDGE_CURVE('',#242,#243,#286,.T.);
#179=EDGE_CURVE('',#243,#244,#34,.T.);
#180=EDGE_CURVE('',#245,#244,#287,.T.);
#181=EDGE_CURVE('',#245,#242,#288,.F.);
#182=EDGE_CURVE('',#246,#247,#289,.T.);
#183=EDGE_CURVE('',#247,#248,#290,.T.);
#184=EDGE_CURVE('',#249,#248,#291,.T.);
#185=EDGE_CURVE('',#249,#246,#292,.F.);
#186=EDGE_CURVE('',#250,#251,#293,.T.);
#187=EDGE_CURVE('',#251,#252,#294,.T.);
#188=EDGE_CURVE('',#253,#252,#295,.T.);
#189=EDGE_CURVE('',#253,#250,#296,.F.);
#190=EDGE_CURVE('',#254,#255,#297,.T.);
#191=EDGE_CURVE('',#255,#256,#298,.T.);
#192=EDGE_CURVE('',#257,#256,#299,.T.);
#193=EDGE_CURVE('',#257,#254,#300,.T.);
#194=EDGE_CURVE('',#258,#259,#301,.T.);
#195=EDGE_CURVE('',#259,#260,#35,.T.);
#196=EDGE_CURVE('',#261,#260,#302,.T.);
#197=EDGE_CURVE('',#261,#258,#303,.F.);
#198=EDGE_CURVE('',#262,#263,#304,.T.);
#199=EDGE_CURVE('',#262,#264,#36,.T.);
#200=EDGE_CURVE('',#264,#265,#305,.T.);
#201=EDGE_CURVE('',#265,#263,#37,.T.);
#202=EDGE_CURVE('',#266,#267,#306,.T.);
#203=EDGE_CURVE('',#267,#268,#38,.T.);
#204=EDGE_CURVE('',#269,#268,#307,.T.);
#205=EDGE_CURVE('',#269,#266,#39,.T.);
#206=EDGE_CURVE('',#270,#270,#16,.T.);
#207=EDGE_CURVE('',#271,#271,#17,.T.);
#208=EDGE_CURVE('',#272,#273,#308,.T.);
#209=EDGE_CURVE('',#273,#274,#40,.T.);
#210=EDGE_CURVE('',#275,#274,#309,.T.);
#211=EDGE_CURVE('',#275,#272,#41,.T.);
#212=EDGE_CURVE('',#276,#276,#18,.T.);
#213=EDGE_CURVE('',#277,#277,#19,.T.);
#214=EDGE_CURVE('',#278,#279,#310,.T.);
#215=EDGE_CURVE('',#278,#280,#311,.T.);
#216=EDGE_CURVE('',#280,#281,#312,.T.);
#217=EDGE_CURVE('',#279,#281,#313,.T.);
#218=EDGE_CURVE('',#274,#243,#42,.T.);
#219=EDGE_CURVE('',#242,#247,#20,.F.);
#220=EDGE_CURVE('',#246,#251,#21,.T.);
#221=EDGE_CURVE('',#250,#255,#22,.T.);
#222=EDGE_CURVE('',#254,#261,#23,.T.);
#223=EDGE_CURVE('',#260,#262,#43,.T.);
#224=EDGE_CURVE('',#263,#269,#44,.T.);
#225=EDGE_CURVE('',#268,#275,#45,.T.);
#226=EDGE_CURVE('',#282,#283,#314,.T.);
#227=EDGE_CURVE('',#282,#284,#315,.T.);
#228=EDGE_CURVE('',#284,#285,#316,.T.);
#229=EDGE_CURVE('',#283,#285,#317,.T.);
#230=EDGE_CURVE('',#244,#273,#46,.T.);
#231=EDGE_CURVE('',#272,#267,#47,.T.);
#232=EDGE_CURVE('',#266,#265,#48,.T.);
#233=EDGE_CURVE('',#264,#259,#49,.T.);
#234=EDGE_CURVE('',#258,#257,#24,.F.);
#235=EDGE_CURVE('',#256,#253,#25,.F.);
#236=EDGE_CURVE('',#252,#249,#26,.F.);
#237=EDGE_CURVE('',#248,#245,#27,.T.);
#238=EDGE_CURVE('',#284,#279,#318,.T.);
#239=EDGE_CURVE('',#282,#278,#319,.T.);
#240=EDGE_CURVE('',#283,#280,#320,.T.);
#241=EDGE_CURVE('',#285,#281,#321,.T.);
#242=VERTEX_POINT('',#610);
#243=VERTEX_POINT('',#611);
#244=VERTEX_POINT('',#616);
#245=VERTEX_POINT('',#618);
#246=VERTEX_POINT('',#622);
#247=VERTEX_POINT('',#623);
#248=VERTEX_POINT('',#625);
#249=VERTEX_POINT('',#627);
#250=VERTEX_POINT('',#631);
#251=VERTEX_POINT('',#632);
#252=VERTEX_POINT('',#634);
#253=VERTEX_POINT('',#636);
#254=VERTEX_POINT('',#640);
#255=VERTEX_POINT('',#641);
#256=VERTEX_POINT('',#643);
#257=VERTEX_POINT('',#645);
#258=VERTEX_POINT('',#649);
#259=VERTEX_POINT('',#650);
#260=VERTEX_POINT('',#655);
#261=VERTEX_POINT('',#657);
#262=VERTEX_POINT('',#661);
#263=VERTEX_POINT('',#662);
#264=VERTEX_POINT('',#667);
#265=VERTEX_POINT('',#669);
#266=VERTEX_POINT('',#676);
#267=VERTEX_POINT('',#677);
#268=VERTEX_POINT('',#682);
#269=VERTEX_POINT('',#684);
#270=VERTEX_POINT('',#691);
#271=VERTEX_POINT('',#693);
#272=VERTEX_POINT('',#696);
#273=VERTEX_POINT('',#697);
#274=VERTEX_POINT('',#702);
#275=VERTEX_POINT('',#704);
#276=VERTEX_POINT('',#711);
#277=VERTEX_POINT('',#713);
#278=VERTEX_POINT('',#716);
#279=VERTEX_POINT('',#717);
#280=VERTEX_POINT('',#719);
#281=VERTEX_POINT('',#721);
#282=VERTEX_POINT('',#745);
#283=VERTEX_POINT('',#746);
#284=VERTEX_POINT('',#748);
#285=VERTEX_POINT('',#750);
#286=LINE('',#609,#322);
#287=LINE('',#617,#323);
#288=LINE('',#619,#324);
#289=LINE('',#621,#325);
#290=LINE('',#624,#326);
#291=LINE('',#626,#327);
#292=LINE('',#628,#328);
#293=LINE('',#630,#329);
#294=LINE('',#633,#330);
#295=LINE('',#635,#331);
#296=LINE('',#637,#332);
#297=LINE('',#639,#333);
#298=LINE('',#642,#334);
#299=LINE('',#644,#335);
#300=LINE('',#646,#336);
#301=LINE('',#648,#337);
#302=LINE('',#656,#338);
#303=LINE('',#658,#339);
#304=LINE('',#660,#340);
#305=LINE('',#668,#341);
#306=LINE('',#675,#342);
#307=LINE('',#683,#343);
#308=LINE('',#695,#344);
#309=LINE('',#703,#345);
#310=LINE('',#715,#346);
#311=LINE('',#718,#347);
#312=LINE('',#720,#348);
#313=LINE('',#722,#349);
#314=LINE('',#744,#350);
#315=LINE('',#747,#351);
#316=LINE('',#749,#352);
#317=LINE('',#751,#353);
#318=LINE('',#773,#354);
#319=LINE('',#774,#355);
#320=LINE('',#776,#356);
#321=LINE('',#778,#357);
#322=VECTOR('',#509,1.);
#323=VECTOR('',#510,1.);
#324=VECTOR('',#511,1.);
#325=VECTOR('',#514,1.);
#326=VECTOR('',#515,1.);
#327=VECTOR('',#516,1.);
#328=VECTOR('',#517,1.);
#329=VECTOR('',#520,1.);
#330=VECTOR('',#521,1.);
#331=VECTOR('',#522,1.);
#332=VECTOR('',#523,1.);
#333=VECTOR('',#526,1.);
#334=VECTOR('',#527,1.);
#335=VECTOR('',#528,1.);
#336=VECTOR('',#529,1.);
#337=VECTOR('',#532,1.);
#338=VECTOR('',#533,1.);
#339=VECTOR('',#534,1.);
#340=VECTOR('',#537,1.);
#341=VECTOR('',#538,1.);
#342=VECTOR('',#541,1.);
#343=VECTOR('',#542,1.);
#344=VECTOR('',#551,1.);
#345=VECTOR('',#552,1.);
#346=VECTOR('',#561,1.);
#347=VECTOR('',#562,1.);
#348=VECTOR('',#563,1.);
#349=VECTOR('',#564,1.);
#350=VECTOR('',#575,1.);
#351=VECTOR('',#576,1.);
#352=VECTOR('',#577,1.);
#353=VECTOR('',#578,1.);
#354=VECTOR('',#589,1.);
#355=VECTOR('',#590,1.);
#356=VECTOR('',#593,1.);
#357=VECTOR('',#596,1.);
#358=EDGE_LOOP('',(#50,#51,#52,#53));
#359=EDGE_LOOP('',(#54,#55,#56,#57));
#360=EDGE_LOOP('',(#58,#59,#60,#61));
#361=EDGE_LOOP('',(#62,#63,#64,#65));
#362=EDGE_LOOP('',(#66,#67,#68,#69));
#363=EDGE_LOOP('',(#70,#71,#72,#73));
#364=EDGE_LOOP('',(#74,#75,#76,#77));
#365=EDGE_LOOP('',(#78));
#366=EDGE_LOOP('',(#79));
#367=EDGE_LOOP('',(#80,#81,#82,#83));
#368=EDGE_LOOP('',(#84));
#369=EDGE_LOOP('',(#85));
#370=EDGE_LOOP('',(#86,#87,#88,#89));
#371=EDGE_LOOP('',(#90,#91,#92,#93,#94,#95,#96,#97,#98,#99,#100,#101,#102,
#103,#104,#105));
#372=EDGE_LOOP('',(#106));
#373=EDGE_LOOP('',(#107));
#374=EDGE_LOOP('',(#108,#109,#110,#111));
#375=EDGE_LOOP('',(#112,#113,#114,#115,#116,#117,#118,#119,#120,#121,#122,
#123,#124,#125,#126,#127));
#376=EDGE_LOOP('',(#128));
#377=EDGE_LOOP('',(#129));
#378=EDGE_LOOP('',(#130,#131,#132,#133));
#379=EDGE_LOOP('',(#134,#135,#136,#137));
#380=EDGE_LOOP('',(#138,#139,#140,#141));
#381=EDGE_LOOP('',(#142,#143,#144,#145));
#382=EDGE_LOOP('',(#146,#147,#148,#149));
#383=EDGE_LOOP('',(#150,#151,#152,#153));
#384=EDGE_LOOP('',(#154,#155,#156,#157));
#385=EDGE_LOOP('',(#158,#159,#160,#161));
#386=EDGE_LOOP('',(#162,#163,#164,#165));
#387=EDGE_LOOP('',(#166,#167,#168,#169));
#388=EDGE_LOOP('',(#170,#171,#172,#173));
#389=EDGE_LOOP('',(#174,#175,#176,#177));
#390=FACE_BOUND('',#358,.T.);
#391=FACE_BOUND('',#359,.T.);
#392=FACE_BOUND('',#360,.T.);
#393=FACE_BOUND('',#361,.T.);
#394=FACE_BOUND('',#362,.T.);
#395=FACE_BOUND('',#363,.T.);
#396=FACE_BOUND('',#364,.T.);
#397=FACE_BOUND('',#365,.T.);
#398=FACE_BOUND('',#366,.T.);
#399=FACE_BOUND('',#367,.T.);
#400=FACE_BOUND('',#368,.T.);
#401=FACE_BOUND('',#369,.T.);
#402=FACE_BOUND('',#370,.T.);
#403=FACE_BOUND('',#371,.T.);
#404=FACE_BOUND('',#372,.T.);
#405=FACE_BOUND('',#373,.T.);
#406=FACE_BOUND('',#374,.T.);
#407=FACE_BOUND('',#375,.T.);
#408=FACE_BOUND('',#376,.T.);
#409=FACE_BOUND('',#377,.T.);
#410=FACE_BOUND('',#378,.T.);
#411=FACE_BOUND('',#379,.T.);
#412=FACE_BOUND('',#380,.T.);
#413=FACE_BOUND('',#381,.T.);
#414=FACE_BOUND('',#382,.T.);
#415=FACE_BOUND('',#383,.T.);
#416=FACE_BOUND('',#384,.T.);
#417=FACE_BOUND('',#385,.T.);
#418=FACE_BOUND('',#386,.T.);
#419=FACE_BOUND('',#387,.T.);
#420=FACE_BOUND('',#388,.T.);
#421=FACE_BOUND('',#389,.T.);
#422=PLANE('',#473);
#423=PLANE('',#474);
#424=PLANE('',#475);
#425=PLANE('',#476);
#426=PLANE('',#477);
#427=PLANE('',#478);
#428=PLANE('',#479);
#429=PLANE('',#483);
#430=PLANE('',#487);
#431=PLANE('',#492);
#432=PLANE('',#497);
#433=PLANE('',#498);
#434=PLANE('',#499);
#435=PLANE('',#500);
#436=ADVANCED_FACE('',(#390),#422,.T.);
#437=ADVANCED_FACE('',(#391),#423,.T.);
#438=ADVANCED_FACE('',(#392),#424,.T.);
#439=ADVANCED_FACE('',(#393),#425,.T.);
#440=ADVANCED_FACE('',(#394),#426,.F.);
#441=ADVANCED_FACE('',(#395),#427,.F.);
#442=ADVANCED_FACE('',(#396),#428,.F.);
#443=ADVANCED_FACE('',(#397,#398),#28,.F.);
#444=ADVANCED_FACE('',(#399),#429,.F.);
#445=ADVANCED_FACE('',(#400,#401),#29,.F.);
#446=ADVANCED_FACE('',(#402,#403,#404,#405),#430,.T.);
#447=ADVANCED_FACE('',(#406,#407,#408,#409),#431,.F.);
#448=ADVANCED_FACE('',(#410),#432,.F.);
#449=ADVANCED_FACE('',(#411),#433,.T.);
#450=ADVANCED_FACE('',(#412),#434,.T.);
#451=ADVANCED_FACE('',(#413),#435,.F.);
#452=ADVANCED_FACE('',(#414),#12,.T.);
#453=ADVANCED_FACE('',(#415),#13,.T.);
#454=ADVANCED_FACE('',(#416),#14,.T.);
#455=ADVANCED_FACE('',(#417),#30,.T.);
#456=ADVANCED_FACE('',(#418),#31,.F.);
#457=ADVANCED_FACE('',(#419),#32,.F.);
#458=ADVANCED_FACE('',(#420),#33,.T.);
#459=ADVANCED_FACE('',(#421),#15,.T.);
#460=CLOSED_SHELL('',(#436,#437,#438,#439,#440,#441,#442,#443,#444,#445,
#446,#447,#448,#449,#450,#451,#452,#453,#454,#455,#456,#457,#458,#459));
#461=STYLED_ITEM('',(#462),#469);
#462=PRESENTATION_STYLE_ASSIGNMENT((#463));
#463=SURFACE_STYLE_USAGE(.BOTH.,#464);
#464=SURFACE_SIDE_STYLE('',(#465));
#465=SURFACE_STYLE_FILL_AREA(#466);
#466=FILL_AREA_STYLE('',(#467));
#467=FILL_AREA_STYLE_COLOUR('',#468);
#468=COLOUR_RGB('',0.615686274509804,0.811764705882353,0.929411764705882);
#469=MANIFOLD_SOLID_BREP('YAxis-KW12Holder',#460);
#470=SHAPE_DEFINITION_REPRESENTATION(#854,#471);
#471=SHAPE_REPRESENTATION('YAxis-KW12Holder',(#472),#849);
#472=AXIS2_PLACEMENT_3D('',#607,#505,#506);
#473=AXIS2_PLACEMENT_3D('',#608,#507,#508);
#474=AXIS2_PLACEMENT_3D('',#620,#512,#513);
#475=AXIS2_PLACEMENT_3D('',#629,#518,#519);
#476=AXIS2_PLACEMENT_3D('',#638,#524,#525);
#477=AXIS2_PLACEMENT_3D('',#647,#530,#531);
#478=AXIS2_PLACEMENT_3D('',#659,#535,#536);
#479=AXIS2_PLACEMENT_3D('',#674,#539,#540);
#480=AXIS2_PLACEMENT_3D('',#689,#543,#544);
#481=AXIS2_PLACEMENT_3D('',#690,#545,#546);
#482=AXIS2_PLACEMENT_3D('',#692,#547,#548);
#483=AXIS2_PLACEMENT_3D('',#694,#549,#550);
#484=AXIS2_PLACEMENT_3D('',#709,#553,#554);
#485=AXIS2_PLACEMENT_3D('',#710,#555,#556);
#486=AXIS2_PLACEMENT_3D('',#712,#557,#558);
#487=AXIS2_PLACEMENT_3D('',#714,#559,#560);
#488=AXIS2_PLACEMENT_3D('',#727,#565,#566);
#489=AXIS2_PLACEMENT_3D('',#728,#567,#568);
#490=AXIS2_PLACEMENT_3D('',#729,#569,#570);
#491=AXIS2_PLACEMENT_3D('',#730,#571,#572);
#492=AXIS2_PLACEMENT_3D('',#743,#573,#574);
#493=AXIS2_PLACEMENT_3D('',#768,#579,#580);
#494=AXIS2_PLACEMENT_3D('',#769,#581,#582);
#495=AXIS2_PLACEMENT_3D('',#770,#583,#584);
#496=AXIS2_PLACEMENT_3D('',#771,#585,#586);
#497=AXIS2_PLACEMENT_3D('',#772,#587,#588);
#498=AXIS2_PLACEMENT_3D('',#775,#591,#592);
#499=AXIS2_PLACEMENT_3D('',#777,#594,#595);
#500=AXIS2_PLACEMENT_3D('',#779,#597,#598);
#501=AXIS2_PLACEMENT_3D('',#828,#599,#600);
#502=AXIS2_PLACEMENT_3D('',#829,#601,#602);
#503=AXIS2_PLACEMENT_3D('',#830,#603,#604);
#504=AXIS2_PLACEMENT_3D('',#831,#605,#606);
#505=DIRECTION('',(0.,0.,1.));
#506=DIRECTION('',(1.,0.,0.));
#507=DIRECTION('',(-8.7687420164625E-32,-3.80650403561971E-17,1.));
#508=DIRECTION('',(0.,-1.,-3.80650403561971E-17));
#509=DIRECTION('',(-1.,2.30362083802045E-15,0.));
#510=DIRECTION('',(-1.,2.30362083802045E-15,0.));
#511=DIRECTION('',(-1.30104260698021E-15,-1.,0.));
#512=DIRECTION('',(0.707106781186548,-1.65582196400891E-15,0.707106781186547));
#513=DIRECTION('',(0.707106781186547,0.,-0.707106781186548));
#514=DIRECTION('',(-0.707106781186547,1.60198986768489E-15,0.707106781186548));
#515=DIRECTION('',(-1.30104260698021E-15,-1.,0.));
#516=DIRECTION('',(-0.707106781186547,1.60198986768489E-15,0.707106781186548));
#517=DIRECTION('',(-5.91383003173858E-16,-1.,0.));
#518=DIRECTION('',(-8.76874201646251E-32,-3.80650403561971E-17,1.));
#519=DIRECTION('',(0.,-1.,-3.80650403561971E-17));
#520=DIRECTION('',(-1.,2.30362083802045E-15,-1.5014011096332E-47));
#521=DIRECTION('',(-5.91383003173858E-16,-1.,0.));
#522=DIRECTION('',(-1.,2.30362083802045E-15,-1.5014011096332E-47));
#523=DIRECTION('',(-1.0644894057119E-15,-1.,0.));
#524=DIRECTION('',(-0.707106781186548,1.60198986768489E-15,0.707106781186548));
#525=DIRECTION('',(0.707106781186548,0.,0.707106781186548));
#526=DIRECTION('',(-0.707106781186548,1.65582196400891E-15,-0.707106781186548));
#527=DIRECTION('',(-1.0644894057119E-15,-1.,0.));
#528=DIRECTION('',(-0.707106781186548,1.65582196400891E-15,-0.707106781186548));
#529=DIRECTION('',(0.,1.,0.));
#530=DIRECTION('',(8.7687420164625E-32,3.80650403561971E-17,-1.));
#531=DIRECTION('',(0.,1.,3.80650403561971E-17));
#532=DIRECTION('',(1.,-2.30362083802045E-15,-3.0028022192664E-47));
#533=DIRECTION('',(1.,-2.30362083802045E-15,-3.0028022192664E-47));
#534=DIRECTION('',(0.,1.,0.));
#535=DIRECTION('',(-1.,2.30362083802045E-15,8.76874201646242E-32));
#536=DIRECTION('',(2.30362083802045E-15,1.,0.));
#537=DIRECTION('',(8.94421050255533E-46,3.80650403561971E-17,-1.));
#538=DIRECTION('',(8.94421050255533E-46,3.80650403561971E-17,-1.));
#539=DIRECTION('',(1.38777878078144E-16,-3.80650403561974E-17,1.));
#540=DIRECTION('',(1.,0.,-1.38777878078144E-16));
#541=DIRECTION('',(-1.,2.30362083802045E-15,1.38777878078145E-16));
#542=DIRECTION('',(-1.,2.30362083802045E-15,1.38777878078145E-16));
#543=DIRECTION('',(-2.30362083802045E-15,-1.,-3.80650403561971E-17));
#544=DIRECTION('',(-1.,2.30362083802045E-15,0.));
#545=DIRECTION('',(2.30362083802045E-15,1.,3.80650403561971E-17));
#546=DIRECTION('',(1.,-2.30362083802045E-15,0.));
#547=DIRECTION('',(2.30362083802045E-15,1.,3.80650403561971E-17));
#548=DIRECTION('',(1.,-2.30362083802045E-15,0.));
#549=DIRECTION('',(1.,-2.30362083802045E-15,-5.19796831414776E-16));
#550=DIRECTION('',(-2.30362083802045E-15,-1.,0.));
#551=DIRECTION('',(5.19796831414775E-16,-3.80650403561983E-17,1.));
#552=DIRECTION('',(5.19796831414775E-16,-3.80650403561983E-17,1.));
#553=DIRECTION('',(-2.30362083802045E-15,-1.,-3.80650403561971E-17));
#554=DIRECTION('',(-1.,2.30362083802045E-15,0.));
#555=DIRECTION('',(2.30362083802045E-15,1.,3.80650403561971E-17));
#556=DIRECTION('',(1.,-2.30362083802045E-15,0.));
#557=DIRECTION('',(2.30362083802045E-15,1.,3.80650403561971E-17));
#558=DIRECTION('',(1.,-2.30362083802045E-15,0.));
#559=DIRECTION('',(2.30362083802045E-15,1.,3.80650403561971E-17));
#560=DIRECTION('',(1.,-2.30362083802045E-15,-8.7687420164625E-32));
#561=DIRECTION('',(-1.,2.30362083802045E-15,-1.3010426069826E-16));
#562=DIRECTION('',(4.00320802148494E-16,-3.8065040356198E-17,1.));
#563=DIRECTION('',(-1.,2.30362083802045E-15,-1.19262238973405E-16));
#564=DIRECTION('',(5.33761069531325E-16,-3.80650403561983E-17,1.));
#565=DIRECTION('',(-1.30104260698021E-15,-1.,0.));
#566=DIRECTION('',(1.,-1.30104260698021E-15,0.));
#567=DIRECTION('',(-5.91383003173858E-16,-1.,0.));
#568=DIRECTION('',(1.,-5.91383003173858E-16,0.));
#569=DIRECTION('',(-1.0644894057119E-15,-1.,0.));
#570=DIRECTION('',(1.,-1.0644894057119E-15,0.));
#571=DIRECTION('',(0.,1.,0.));
#572=DIRECTION('',(0.,0.,1.));
#573=DIRECTION('',(2.30362083802045E-15,1.,3.80650403561971E-17));
#574=DIRECTION('',(1.,-2.30362083802045E-15,-8.7687420164625E-32));
#575=DIRECTION('',(4.00320802148494E-16,-3.8065040356198E-17,1.));
#576=DIRECTION('',(-1.,2.30362083802045E-15,-1.3010426069826E-16));
#577=DIRECTION('',(5.33761069531325E-16,-3.80650403561983E-17,1.));
#578=DIRECTION('',(-1.,2.30362083802045E-15,-1.19262238973405E-16));
#579=DIRECTION('',(0.,1.,0.));
#580=DIRECTION('',(0.,0.,1.));
#581=DIRECTION('',(-1.0644894057119E-15,-1.,0.));
#582=DIRECTION('',(1.,-1.0644894057119E-15,0.));
#583=DIRECTION('',(-5.91383003173858E-16,-1.,0.));
#584=DIRECTION('',(1.,-5.91383003173858E-16,0.));
#585=DIRECTION('',(-1.30104260698021E-15,-1.,0.));
#586=DIRECTION('',(1.,-1.30104260698021E-15,0.));
#587=DIRECTION('',(1.30104260698261E-16,3.80650403561968E-17,-1.));
#588=DIRECTION('',(-1.,0.,-1.30104260698261E-16));
#589=DIRECTION('',(2.30362083802045E-15,1.,3.80650403561971E-17));
#590=DIRECTION('',(2.30362083802045E-15,1.,3.80650403561971E-17));
#591=DIRECTION('',(-1.,2.30362083802045E-15,4.00320802148494E-16));
#592=DIRECTION('',(2.30362083802045E-15,1.,0.));
#593=DIRECTION('',(2.30362083802045E-15,1.,3.80650403561971E-17));
#594=DIRECTION('',(1.19262238973406E-16,3.80650403561968E-17,-1.));
#595=DIRECTION('',(-1.,0.,-1.19262238973406E-16));
#596=DIRECTION('',(2.30362083802045E-15,1.,3.80650403561971E-17));
#597=DIRECTION('',(-1.,2.30362083802045E-15,5.33761069531325E-16));
#598=DIRECTION('',(2.30362083802045E-15,1.,0.));
#599=DIRECTION('',(-1.30104260698021E-15,-1.,0.));
#600=DIRECTION('',(0.382683432365089,-4.50022577402908E-16,0.923879532511287));
#601=DIRECTION('',(-5.91383003173858E-16,-1.,0.));
#602=DIRECTION('',(-0.382683432365067,4.50022577395512E-16,-0.923879532511296));
#603=DIRECTION('',(-1.0644894057119E-15,-1.,0.));
#604=DIRECTION('',(0.382683432365085,-4.5002257740289E-16,-0.923879532511289));
#605=DIRECTION('',(0.,1.,0.));
#606=DIRECTION('',(-0.382683432365091,0.,0.923879532511286));
#607=CARTESIAN_POINT('',(0.,0.,0.));
#608=CARTESIAN_POINT('',(-0.0175,0.0100000000000002,0.006));
#609=CARTESIAN_POINT('',(-0.0175,0.0100000000000002,0.006));
#610=CARTESIAN_POINT('',(0.00116217849128129,0.0100000000000002,0.006));
#611=CARTESIAN_POINT('',(-0.028,0.0100000000000002,0.006));
#612=CARTESIAN_POINT('',(-0.028,0.00999999999999956,0.006));
#613=CARTESIAN_POINT('',(-0.028,0.00666666666666656,0.006));
#614=CARTESIAN_POINT('',(-0.028,0.00333333333333355,0.006));
#615=CARTESIAN_POINT('',(-0.028,5.49907341884648E-16,0.006));
#616=CARTESIAN_POINT('',(-0.028,2.10067556929333E-16,0.006));
#617=CARTESIAN_POINT('',(-0.0175,1.85879538130119E-16,0.006));
#618=CARTESIAN_POINT('',(0.00116217849128128,1.42958264040622E-16,0.006));
#619=CARTESIAN_POINT('',(0.00116217849128128,1.42890138011739E-16,0.006));
#620=CARTESIAN_POINT('',(0.00467462120250047,0.0100000000000001,0.00332537879749954));
#621=CARTESIAN_POINT('',(0.00467462120250047,0.0100000000000001,0.00332537879749954));
#622=CARTESIAN_POINT('',(0.00675681313420411,0.0100000000000001,0.00124318686480264));
#623=CARTESIAN_POINT('',(0.00259242927023892,0.0100000000000001,0.00540757072976109));
#624=CARTESIAN_POINT('',(0.00259242927023892,0.0100000000000001,0.00540757072976109));
#625=CARTESIAN_POINT('',(0.00259242927023891,1.40512601554121E-16,0.00540757072976109));
#626=CARTESIAN_POINT('',(0.00467462120250045,1.34899428216839E-16,0.00332537879749954));
#627=CARTESIAN_POINT('',(0.0067568131342041,1.30151408085562E-16,0.00124318686480264));
#628=CARTESIAN_POINT('',(0.0067568131342041,1.29444082573246E-16,0.00124318686480264));
#629=CARTESIAN_POINT('',(0.0148492424050009,0.01,0.000650757594999094));
#630=CARTESIAN_POINT('',(0.0148492424050009,0.01,0.000650757594999094));
#631=CARTESIAN_POINT('',(0.0215114208962749,0.01,0.000650757594296759));
#632=CARTESIAN_POINT('',(0.00818706391379769,0.01,0.000650757594999094));
#633=CARTESIAN_POINT('',(0.00818706391379769,0.0100000000000001,0.000650757594999094));
#634=CARTESIAN_POINT('',(0.00818706391379769,1.26634813746307E-16,0.000650757594999094));
#635=CARTESIAN_POINT('',(0.0148492424050009,1.11562768359805E-16,0.000650757594999093));
#636=CARTESIAN_POINT('',(0.0215114208962749,9.62415496663233E-17,0.000650757594296759));
#637=CARTESIAN_POINT('',(0.0215114208962749,9.61711698263391E-17,0.000650757594296759));
#638=CARTESIAN_POINT('',(0.0250238636075014,0.01,0.00332537879749954));
#639=CARTESIAN_POINT('',(0.0250238636075014,0.01,0.00332537879749954));
#640=CARTESIAN_POINT('',(0.0271060555397635,0.01,0.0054075707297617));
#641=CARTESIAN_POINT('',(0.0229416716752403,0.0100000000000001,0.00124318686523846));
#642=CARTESIAN_POINT('',(0.0229416716752403,0.01,0.00124318686523846));
#643=CARTESIAN_POINT('',(0.0229416716752403,9.71445146547012E-17,0.00124318686523846));
#644=CARTESIAN_POINT('',(0.0250238636075014,8.80224893747499E-17,0.00332537879749954));
#645=CARTESIAN_POINT('',(0.0271060555397635,8.3176669159898E-17,0.0054075707297617));
#646=CARTESIAN_POINT('',(0.0271060555397635,8.21705229676114E-17,0.0054075707297617));
#647=CARTESIAN_POINT('',(0.0311984848100018,0.01,0.006));
#648=CARTESIAN_POINT('',(0.0311984848100018,7.36966937417763E-17,0.006));
#649=CARTESIAN_POINT('',(0.0285363063187206,8.15320033709099E-17,0.006));
#650=CARTESIAN_POINT('',(0.0326984848100018,7.02412624847456E-17,0.006));
#651=CARTESIAN_POINT('',(0.0326984848100018,-3.60822483003176E-16,0.006));
#652=CARTESIAN_POINT('',(0.0326984848100018,0.00333333333333334,0.006));
#653=CARTESIAN_POINT('',(0.0326984848100018,0.00666666666666705,0.006));
#654=CARTESIAN_POINT('',(0.0326984848100019,0.0100000000000007,0.006));
#655=CARTESIAN_POINT('',(0.0326984848100018,0.01,0.006));
#656=CARTESIAN_POINT('',(0.0311984848100018,0.01,0.006));
#657=CARTESIAN_POINT('',(0.0285363063187206,0.01,0.006));
#658=CARTESIAN_POINT('',(0.0285363063187206,0.01,0.006));
#659=CARTESIAN_POINT('',(0.0346984848100018,0.01,-0.000674621202500456));
#660=CARTESIAN_POINT('',(0.0346984848100018,0.01,-0.000674621202500456));
#661=CARTESIAN_POINT('',(0.0346984848100018,0.01,0.004));
#662=CARTESIAN_POINT('',(0.0346984848100018,0.01,-0.00534924240500091));
#663=CARTESIAN_POINT('',(0.0346984848100018,0.0100000000000008,0.00399999999999999));
#664=CARTESIAN_POINT('',(0.0346984848100018,0.00666666666666705,0.00399999999999999));
#665=CARTESIAN_POINT('',(0.0346984848100018,0.00333333333333334,0.00399999999999999));
#666=CARTESIAN_POINT('',(0.0346984848100018,-3.60822483003176E-16,0.00399999999999999));
#667=CARTESIAN_POINT('',(0.0346984848100018,6.57101508894171E-17,0.004));
#668=CARTESIAN_POINT('',(0.0346984848100018,6.58880905341402E-17,-0.000674621202500457));
#669=CARTESIAN_POINT('',(0.0346984848100018,6.60660301788633E-17,-0.00534924240500091));
#670=CARTESIAN_POINT('',(0.0346984848100018,-3.60822483003176E-16,-0.00534924240500092));
#671=CARTESIAN_POINT('',(0.0346984848100018,0.00333333333333334,-0.00534924240500092));
#672=CARTESIAN_POINT('',(0.0346984848100018,0.00666666666666705,-0.00534924240500092));
#673=CARTESIAN_POINT('',(0.0346984848100018,0.0100000000000008,-0.00534924240500092));
#674=CARTESIAN_POINT('',(-0.0175,0.0100000000000002,-0.00734924240500091));
#675=CARTESIAN_POINT('',(-0.0175,1.8638767758099E-16,-0.00734924240500091));
#676=CARTESIAN_POINT('',(0.0326984848100018,7.07494019356166E-17,-0.00734924240500091));
#677=CARTESIAN_POINT('',(-0.028,2.10575696380204E-16,-0.00734924240500091));
#678=CARTESIAN_POINT('',(-0.028,-1.40512601554121E-16,-0.00734924240500091));
#679=CARTESIAN_POINT('',(-0.028,0.00333333333333356,-0.00734924240500091));
#680=CARTESIAN_POINT('',(-0.028,0.00666666666666726,-0.00734924240500091));
#681=CARTESIAN_POINT('',(-0.028,0.010000000000001,-0.00734924240500091));
#682=CARTESIAN_POINT('',(-0.028,0.0100000000000002,-0.00734924240500091));
#683=CARTESIAN_POINT('',(-0.0175,0.0100000000000002,-0.00734924240500091));
#684=CARTESIAN_POINT('',(0.0326984848100018,0.01,-0.00734924240500091));
#685=CARTESIAN_POINT('',(0.0326984848100018,0.0100000000000008,-0.00734924240500092));
#686=CARTESIAN_POINT('',(0.0326984848100018,0.00666666666666712,-0.00734924240500092));
#687=CARTESIAN_POINT('',(0.0326984848100018,0.00333333333333341,-0.00734924240500092));
#688=CARTESIAN_POINT('',(0.0326984848100018,-3.00107161343988E-16,-0.00734924240500092));
#689=CARTESIAN_POINT('',(0.0296984848100019,0.01,7.30706474597081E-17));
#690=CARTESIAN_POINT('',(0.0296984848100019,0.01,7.30706474597081E-17));
#691=CARTESIAN_POINT('',(0.0324484848100018,0.00999999999999999,7.30706474597081E-17));
#692=CARTESIAN_POINT('',(0.0296984848100018,7.73805152409441E-17,7.26899970561461E-17));
#693=CARTESIAN_POINT('',(0.0324484848100018,7.10455579363879E-17,7.26899970561461E-17));
#694=CARTESIAN_POINT('',(-0.03,0.0100000000000002,-0.00067462120250045));
#695=CARTESIAN_POINT('',(-0.03,2.1492886833081E-16,-0.000674621202500451));
#696=CARTESIAN_POINT('',(-0.03,2.15106807975533E-16,-0.0053492424050009));
#697=CARTESIAN_POINT('',(-0.03,2.14750928686087E-16,0.004));
#698=CARTESIAN_POINT('',(-0.03,5.51642065360625E-16,0.004));
#699=CARTESIAN_POINT('',(-0.03,0.00333333333333355,0.004));
#700=CARTESIAN_POINT('',(-0.03,0.00666666666666656,0.004));
#701=CARTESIAN_POINT('',(-0.03,0.00999999999999956,0.004));
#702=CARTESIAN_POINT('',(-0.03,0.0100000000000002,0.004));
#703=CARTESIAN_POINT('',(-0.03,0.0100000000000002,-0.00067462120250045));
#704=CARTESIAN_POINT('',(-0.03,0.0100000000000002,-0.00534924240500091));
#705=CARTESIAN_POINT('',(-0.03,0.010000000000001,-0.0053492424050009));
#706=CARTESIAN_POINT('',(-0.03,0.00666666666666726,-0.0053492424050009));
#707=CARTESIAN_POINT('',(-0.03,0.00333333333333356,-0.0053492424050009));
#708=CARTESIAN_POINT('',(-0.03,-1.40512601554121E-16,-0.0053492424050009));
#709=CARTESIAN_POINT('',(2.30362083802045E-17,0.0100000000000001,2.12261468679216E-19));
#710=CARTESIAN_POINT('',(2.30362083802045E-17,0.0100000000000001,2.12261468679216E-19));
#711=CARTESIAN_POINT('',(0.00275000000000002,0.0100000000000001,2.12261468679216E-19));
#712=CARTESIAN_POINT('',(5.3239348229496E-48,1.45794563706898E-16,-1.68388934882756E-19));
#713=CARTESIAN_POINT('',(0.00275,1.39459606402342E-16,-1.68388934882756E-19));
#714=CARTESIAN_POINT('',(0.00234924240500092,0.0100000000000001,-0.000674621202500452));
#715=CARTESIAN_POINT('',(-0.015,0.0100000000000002,-0.0055));
#716=CARTESIAN_POINT('',(-0.005,0.0100000000000002,-0.0055));
#717=CARTESIAN_POINT('',(-0.025,0.0100000000000002,-0.0055));
#718=CARTESIAN_POINT('',(-0.005,0.0100000000000002,-0.00225));
#719=CARTESIAN_POINT('',(-0.005,0.0100000000000002,0.001));
#720=CARTESIAN_POINT('',(-0.015,0.0100000000000002,0.001));
#721=CARTESIAN_POINT('',(-0.025,0.0100000000000002,0.001));
#722=CARTESIAN_POINT('',(-0.025,0.0100000000000002,-0.00225));
#723=CARTESIAN_POINT('',(-0.03,0.0100000000000002,0.004));
#724=CARTESIAN_POINT('',(-0.03,0.0100000000000002,0.00533333333333333));
#725=CARTESIAN_POINT('',(-0.0293333333333333,0.0100000000000002,0.006));
#726=CARTESIAN_POINT('',(-0.028,0.0100000000000002,0.006));
#727=CARTESIAN_POINT('',(0.00120176579602141,0.0100000000000001,0.00407289215880476));
#728=CARTESIAN_POINT('',(0.0081474766089916,0.0100000000000001,0.00257786543622361));
#729=CARTESIAN_POINT('',(0.0215510082010223,0.0100000000000001,0.00257786543619441));
#730=CARTESIAN_POINT('',(0.0284967190139805,0.0100000000000001,0.00407289215880466));
#731=CARTESIAN_POINT('',(0.0326984848100018,0.0100000000000001,0.006));
#732=CARTESIAN_POINT('',(0.0340318181433351,0.0100000000000001,0.006));
#733=CARTESIAN_POINT('',(0.0346984848100018,0.0100000000000001,0.00533333333333333));
#734=CARTESIAN_POINT('',(0.0346984848100018,0.0100000000000001,0.004));
#735=CARTESIAN_POINT('',(0.0346984848100018,0.0100000000000001,-0.00534924240500091));
#736=CARTESIAN_POINT('',(0.0346984848100018,0.0100000000000001,-0.00668257573833424));
#737=CARTESIAN_POINT('',(0.0340318181433351,0.0100000000000001,-0.00734924240500091));
#738=CARTESIAN_POINT('',(0.0326984848100018,0.0100000000000001,-0.00734924240500091));
#739=CARTESIAN_POINT('',(-0.028,0.0100000000000002,-0.0073492424050009));
#740=CARTESIAN_POINT('',(-0.0293333333333333,0.0100000000000002,-0.0073492424050009));
#741=CARTESIAN_POINT('',(-0.03,0.0100000000000002,-0.00668257573833423));
#742=CARTESIAN_POINT('',(-0.03,0.0100000000000002,-0.0053492424050009));
#743=CARTESIAN_POINT('',(0.00234924240500089,1.40408479432475E-16,-0.000674621202500452));
#744=CARTESIAN_POINT('',(-0.005,1.57859836313889E-16,-0.00225));
#745=CARTESIAN_POINT('',(-0.005,1.57859836313889E-16,-0.0055));
#746=CARTESIAN_POINT('',(-0.005,1.57859836313889E-16,0.001));
#747=CARTESIAN_POINT('',(-0.015,1.80411241501588E-16,-0.0055));
#748=CARTESIAN_POINT('',(-0.025,2.02962646689286E-16,-0.0055));
#749=CARTESIAN_POINT('',(-0.025,2.02962646689286E-16,-0.00225));
#750=CARTESIAN_POINT('',(-0.025,2.03347019617053E-16,0.001));
#751=CARTESIAN_POINT('',(-0.015,1.80411241501588E-16,0.001));
#752=CARTESIAN_POINT('',(-0.028,2.10067556929333E-16,0.00600000000000001));
#753=CARTESIAN_POINT('',(-0.0293333333333333,2.13139051380027E-16,0.00600000000000001));
#754=CARTESIAN_POINT('',(-0.03,2.14700175298945E-16,0.00533333333333334));
#755=CARTESIAN_POINT('',(-0.03,2.14750928686087E-16,0.004));
#756=CARTESIAN_POINT('',(-0.03,2.15106807975533E-16,-0.0053492424050009));
#757=CARTESIAN_POINT('',(-0.03,2.15157561362675E-16,-0.00668257573833423));
#758=CARTESIAN_POINT('',(-0.0293333333333333,2.13647190830898E-16,-0.0073492424050009));
#759=CARTESIAN_POINT('',(-0.028,2.10575696380204E-16,-0.0073492424050009));
#760=CARTESIAN_POINT('',(0.0326984848100018,7.07494019356166E-17,-0.00734924240500091));
#761=CARTESIAN_POINT('',(0.0340318181433351,6.76779074849226E-17,-0.00734924240500091));
#762=CARTESIAN_POINT('',(0.0346984848100018,6.61167835660049E-17,-0.00668257573833424));
#763=CARTESIAN_POINT('',(0.0346984848100018,6.60660301788633E-17,-0.00534924240500091));
#764=CARTESIAN_POINT('',(0.0346984848100018,6.5710150889417E-17,0.004));
#765=CARTESIAN_POINT('',(0.0346984848100018,6.56593975022754E-17,0.00533333333333333));
#766=CARTESIAN_POINT('',(0.0340318181433351,6.71697680340516E-17,0.006));
#767=CARTESIAN_POINT('',(0.0326984848100018,7.02412624847455E-17,0.006));
#768=CARTESIAN_POINT('',(0.0284967190139805,8.32667268468867E-17,0.00407289215880466));
#769=CARTESIAN_POINT('',(0.0215510082010223,9.62771529167128E-17,0.00257786543619441));
#770=CARTESIAN_POINT('',(0.00814747660899159,1.29236898960272E-16,0.00257786543622361));
#771=CARTESIAN_POINT('',(0.0012017657960214,1.43114686768087E-16,0.00407289215880476));
#772=CARTESIAN_POINT('',(-0.015,1.80411241501588E-16,-0.0055));
#773=CARTESIAN_POINT('',(-0.025,2.02962646689286E-16,-0.0055));
#774=CARTESIAN_POINT('',(-0.005,1.57859836313889E-16,-0.0055));
#775=CARTESIAN_POINT('',(-0.005,1.57859836313889E-16,-0.00225));
#776=CARTESIAN_POINT('',(-0.005,1.57859836313889E-16,0.001));
#777=CARTESIAN_POINT('',(-0.015,1.80411241501588E-16,0.001));
#778=CARTESIAN_POINT('',(-0.025,2.02962646689286E-16,0.001));
#779=CARTESIAN_POINT('',(-0.025,2.02962646689286E-16,-0.00225));
#780=CARTESIAN_POINT('',(-0.03,2.13370987545147E-16,0.004));
#781=CARTESIAN_POINT('',(-0.03,0.0100000000000002,0.004));
#782=CARTESIAN_POINT('',(-0.03,2.13370987545147E-16,0.0043));
#783=CARTESIAN_POINT('',(-0.03,0.0100000000000002,0.0043));
#784=CARTESIAN_POINT('',(-0.03,2.13370987545147E-16,0.0046));
#785=CARTESIAN_POINT('',(-0.03,0.0100000000000002,0.0046));
#786=CARTESIAN_POINT('',(-0.0298,2.11636264069162E-16,0.00533333333333335));
#787=CARTESIAN_POINT('',(-0.0298,0.0100000000000002,0.00533333333333335));
#788=CARTESIAN_POINT('',(-0.0293333333333333,3.78863607153341E-15,0.00580000000000001));
#789=CARTESIAN_POINT('',(-0.0293333333333333,0.0100000000000038,0.00580000000000001));
#790=CARTESIAN_POINT('',(-0.0286,2.09901540593143E-16,0.006));
#791=CARTESIAN_POINT('',(-0.0286,0.0100000000000002,0.006));
#792=CARTESIAN_POINT('',(-0.0283,2.09901540593194E-16,0.006));
#793=CARTESIAN_POINT('',(-0.0283,0.0100000000000002,0.006));
#794=CARTESIAN_POINT('',(-0.028,2.09901540593194E-16,0.006));
#795=CARTESIAN_POINT('',(-0.028,0.0100000000000002,0.006));
#796=CARTESIAN_POINT('',(-0.03,0.010000000000001,-0.00534924240500088));
#797=CARTESIAN_POINT('',(-0.03,-1.40512601554121E-16,-0.0053492424050009));
#798=CARTESIAN_POINT('',(-0.03,0.010000000000001,-0.00564924240500089));
#799=CARTESIAN_POINT('',(-0.03,-1.40512601554121E-16,-0.0056492424050009));
#800=CARTESIAN_POINT('',(-0.03,0.010000000000001,-0.00594924240500089));
#801=CARTESIAN_POINT('',(-0.03,-1.40512601554121E-16,-0.0059492424050009));
#802=CARTESIAN_POINT('',(-0.0298,0.010000000000001,-0.00668257573833423));
#803=CARTESIAN_POINT('',(-0.0298,-1.42247325030098E-16,-0.00668257573833425));
#804=CARTESIAN_POINT('',(-0.0293333333333333,0.00999999999999978,-0.0071492424050009));
#805=CARTESIAN_POINT('',(-0.0293333333333333,-1.33573707650214E-15,-0.00714924240500092));
#806=CARTESIAN_POINT('',(-0.0286,0.010000000000001,-0.0073492424050009));
#807=CARTESIAN_POINT('',(-0.0286,-1.42247325030098E-16,-0.00734924240500092));
#808=CARTESIAN_POINT('',(-0.0283,0.010000000000001,-0.0073492424050009));
#809=CARTESIAN_POINT('',(-0.0283,-1.45716771982052E-16,-0.00734924240500091));
#810=CARTESIAN_POINT('',(-0.028,0.010000000000001,-0.00734924240500089));
#811=CARTESIAN_POINT('',(-0.028,-1.45716771982052E-16,-0.00734924240500091));
#812=CARTESIAN_POINT('',(0.0346984848100019,0.0100000000000008,0.00399999999999999));
#813=CARTESIAN_POINT('',(0.0346984848100017,-3.64291929955129E-16,0.00399999999999999));
#814=CARTESIAN_POINT('',(0.0346984848100019,0.0100000000000008,0.00429999999999999));
#815=CARTESIAN_POINT('',(0.0346984848100018,-3.64291929955129E-16,0.00429999999999999));
#816=CARTESIAN_POINT('',(0.0346984848100019,0.0100000000000008,0.00459999999999999));
#817=CARTESIAN_POINT('',(0.0346984848100018,-3.64291929955129E-16,0.00459999999999999));
#818=CARTESIAN_POINT('',(0.0344984848100019,0.0100000000000008,0.00533333333333334));
#819=CARTESIAN_POINT('',(0.0344984848100018,-3.64291929955129E-16,0.00533333333333334));
#820=CARTESIAN_POINT('',(0.0340318181433352,0.0100000000000019,0.00580000000000001));
#821=CARTESIAN_POINT('',(0.0340318181433351,8.32667268468867E-16,0.00580000000000001));
#822=CARTESIAN_POINT('',(0.0332984848100019,0.0100000000000008,0.00600000000000001));
#823=CARTESIAN_POINT('',(0.0332984848100017,-3.64291929955129E-16,0.00600000000000001));
#824=CARTESIAN_POINT('',(0.0329984848100019,0.0100000000000008,0.006));
#825=CARTESIAN_POINT('',(0.0329984848100017,-3.64291929955129E-16,0.006));
#826=CARTESIAN_POINT('',(0.0326984848100019,0.0100000000000008,0.006));
#827=CARTESIAN_POINT('',(0.0326984848100017,-3.60822483003176E-16,0.006));
#828=CARTESIAN_POINT('',(0.00120176579602141,0.0049999999999976,0.00407289215880476));
#829=CARTESIAN_POINT('',(0.0081474766089916,0.00500000000000236,0.00257786543622361));
#830=CARTESIAN_POINT('',(0.0215510082010223,0.00499999999999755,0.00257786543619441));
#831=CARTESIAN_POINT('',(0.0284967190139805,0.0050000000000023,0.00407289215880466));
#832=CARTESIAN_POINT('',(0.0326984848100018,0.0100000000000008,-0.0073492424050009));
#833=CARTESIAN_POINT('',(0.0326984848100018,-3.60822483003176E-16,-0.00734924240500093));
#834=CARTESIAN_POINT('',(0.0329984848100018,0.0100000000000008,-0.0073492424050009));
#835=CARTESIAN_POINT('',(0.0329984848100018,-3.67761376907083E-16,-0.00734924240500093));
#836=CARTESIAN_POINT('',(0.0332984848100018,0.0100000000000008,-0.00734924240500091));
#837=CARTESIAN_POINT('',(0.0332984848100018,-3.71230823859037E-16,-0.00734924240500093));
#838=CARTESIAN_POINT('',(0.0340318181433351,0.010000000000002,-0.0071492424050009));
#839=CARTESIAN_POINT('',(0.0340318181433351,8.2572837456496E-16,-0.00714924240500093));
#840=CARTESIAN_POINT('',(0.0344984848100018,0.0100000000000008,-0.00668257573833425));
#841=CARTESIAN_POINT('',(0.0344984848100018,-3.71230823859037E-16,-0.00668257573833427));
#842=CARTESIAN_POINT('',(0.0346984848100018,0.0100000000000008,-0.00594924240500089));
#843=CARTESIAN_POINT('',(0.0346984848100018,-3.6949610038306E-16,-0.00594924240500092));
#844=CARTESIAN_POINT('',(0.0346984848100018,0.0100000000000008,-0.00564924240500089));
#845=CARTESIAN_POINT('',(0.0346984848100018,-3.6949610038306E-16,-0.00564924240500092));
#846=CARTESIAN_POINT('',(0.0346984848100018,0.0100000000000008,-0.00534924240500089));
#847=CARTESIAN_POINT('',(0.0346984848100018,-3.6949610038306E-16,-0.00534924240500092));
#848=MECHANICAL_DESIGN_GEOMETRIC_PRESENTATION_REPRESENTATION('',(#461),
#849);
#849=(
GEOMETRIC_REPRESENTATION_CONTEXT(3)
GLOBAL_UNCERTAINTY_ASSIGNED_CONTEXT((#850))
GLOBAL_UNIT_ASSIGNED_CONTEXT((#853,#852,#851))
REPRESENTATION_CONTEXT('YAxis-KW12Holder','TOP_LEVEL_ASSEMBLY_PART')
);
#850=UNCERTAINTY_MEASURE_WITH_UNIT(LENGTH_MEASURE(2.E-5),#853,
'DISTANCE_ACCURACY_VALUE','Maximum Tolerance applied to model');
#851=(
NAMED_UNIT(*)
SI_UNIT($,.STERADIAN.)
SOLID_ANGLE_UNIT()
);
#852=(
NAMED_UNIT(*)
PLANE_ANGLE_UNIT()
SI_UNIT($,.RADIAN.)
);
#853=(
LENGTH_UNIT()
NAMED_UNIT(*)
SI_UNIT($,.METRE.)
);
#854=PRODUCT_DEFINITION_SHAPE('','',#855);
#855=PRODUCT_DEFINITION('','',#857,#856);
#856=PRODUCT_DEFINITION_CONTEXT('',#863,'design');
#857=PRODUCT_DEFINITION_FORMATION_WITH_SPECIFIED_SOURCE('','',#859,
 .NOT_KNOWN.);
#858=PRODUCT_RELATED_PRODUCT_CATEGORY('','',(#859));
#859=PRODUCT('YAxis-KW12Holder','YAxis-KW12Holder','YAxis-KW12Holder',(#861));
#860=PRODUCT_CATEGORY('','');
#861=PRODUCT_CONTEXT('',#863,'mechanical');
#862=APPLICATION_PROTOCOL_DEFINITION('international standard',
'ap242_managed_model_based_3d_engineering',2020,#863);
#863=APPLICATION_CONTEXT('managed model based 3d engineering');
ENDSEC;
END-ISO-10303-21;
