ISO-10303-21;
HEADER;
/* Generated by software containing ST-Developer
 * from STEP Tools, Inc. (www.steptools.com) 
 */
/* OPTION: using custom renumber hook */

FILE_DESCRIPTION(
/* description */ ('STEP AP242 Edition 2',
'CAx-IF Rec.Pracs.---Representation and Presentation of Product Manufa
cturing Information (PMI)---4.0---2014-10-13',
'CAx-IF Rec.Pracs.---3D Tessellated Geometry---0.4---2014-09-14','2;1',
'CAx-IF Rec.Pracs.---User Defined Attributes---1.5---2016-08-15'),
/* implementation_level */ '2;1');

FILE_NAME(
/* name */ 'Router - BallScrewHolder-RR',
/* time_stamp */ '2026-08-08T09:25:06Z',
/* author */ (''),
/* organization */ (''),
/* preprocessor_version */ 'ST-DEVELOPER v20',
/* originating_system */ 'ONSHAPE BY PTC INC, 1.219',
/* authorisation */ '  ');

FILE_SCHEMA (('AP242_MANAGED_MODEL_BASED_3D_ENGINEERING_MIM_LF { 1 0 10303 442 3 1 4 }'));
ENDSEC;

DATA;
#10=SHAPE_REPRESENTATION_RELATIONSHIP('','',#1224,#11);
#11=ADVANCED_BREP_SHAPE_REPRESENTATION('',(#1222),#2012);
#12=CONICAL_SURFACE('',#1289,0.01,0.785398163397491);
#13=CONICAL_SURFACE('',#1290,0.00405,0.785398163397466);
#14=CONICAL_SURFACE('',#1291,0.00405,0.785398163397463);
#15=CONICAL_SURFACE('',#1292,0.00385,0.785398163397442);
#16=CONICAL_SURFACE('',#1293,0.00385,0.785398163397443);
#17=CONICAL_SURFACE('',#1294,0.00385,0.785398163397446);
#18=CONICAL_SURFACE('',#1295,0.00385,0.785398163397446);
#19=CONICAL_SURFACE('',#1341,0.0018,0.785398163397429);
#20=CONICAL_SURFACE('',#1342,0.0018,0.785398163397435);
#21=CONICAL_SURFACE('',#1343,0.0018,0.785398163397435);
#22=CONICAL_SURFACE('',#1344,0.0018,0.785398163397428);
#23=CYLINDRICAL_SURFACE('',#1258,0.00385);
#24=CYLINDRICAL_SURFACE('',#1260,0.00265);
#25=CYLINDRICAL_SURFACE('',#1264,0.00385);
#26=CYLINDRICAL_SURFACE('',#1266,0.00265);
#27=CYLINDRICAL_SURFACE('',#1270,0.00385);
#28=CYLINDRICAL_SURFACE('',#1272,0.00265);
#29=CYLINDRICAL_SURFACE('',#1276,0.00385);
#30=CYLINDRICAL_SURFACE('',#1278,0.00265);
#31=CYLINDRICAL_SURFACE('',#1283,0.01);
#32=CYLINDRICAL_SURFACE('',#1285,0.00405);
#33=CYLINDRICAL_SURFACE('',#1287,0.00405);
#34=CYLINDRICAL_SURFACE('',#1296,0.0026);
#35=CYLINDRICAL_SURFACE('',#1297,0.0026);
#36=CYLINDRICAL_SURFACE('',#1300,0.001);
#37=CYLINDRICAL_SURFACE('',#1320,0.004);
#38=CYLINDRICAL_SURFACE('',#1332,0.0018);
#39=CYLINDRICAL_SURFACE('',#1334,0.0018);
#40=CYLINDRICAL_SURFACE('',#1336,0.0018);
#41=CYLINDRICAL_SURFACE('',#1338,0.0018);
#42=CYLINDRICAL_SURFACE('',#1340,0.0045);
#43=CIRCLE('',#1237,0.001);
#44=CIRCLE('',#1238,0.0026);
#45=CIRCLE('',#1239,0.0102);
#46=CIRCLE('',#1240,0.00425);
#47=CIRCLE('',#1241,0.00425);
#48=CIRCLE('',#1242,0.00385);
#49=CIRCLE('',#1243,0.00385);
#50=CIRCLE('',#1244,0.00385);
#51=CIRCLE('',#1245,0.00385);
#52=CIRCLE('',#1246,0.0026);
#53=CIRCLE('',#1248,0.0026);
#54=CIRCLE('',#1249,0.00405);
#55=CIRCLE('',#1250,0.00405);
#56=CIRCLE('',#1251,0.01);
#57=CIRCLE('',#1252,0.00265);
#58=CIRCLE('',#1253,0.00265);
#59=CIRCLE('',#1254,0.00265);
#60=CIRCLE('',#1255,0.00265);
#61=CIRCLE('',#1256,0.001);
#62=CIRCLE('',#1257,0.0026);
#63=CIRCLE('',#1259,0.00385);
#64=CIRCLE('',#1261,0.00265);
#65=CIRCLE('',#1263,0.00365000000000005);
#66=CIRCLE('',#1265,0.00385);
#67=CIRCLE('',#1267,0.00265);
#68=CIRCLE('',#1269,0.00365000000000005);
#69=CIRCLE('',#1271,0.00385);
#70=CIRCLE('',#1273,0.00265);
#71=CIRCLE('',#1275,0.00365000000000005);
#72=CIRCLE('',#1277,0.00385);
#73=CIRCLE('',#1279,0.00265);
#74=CIRCLE('',#1281,0.00365000000000005);
#75=CIRCLE('',#1284,0.01);
#76=CIRCLE('',#1286,0.00405);
#77=CIRCLE('',#1288,0.00405);
#78=CIRCLE('',#1302,0.0045);
#79=CIRCLE('',#1303,0.0018);
#80=CIRCLE('',#1304,0.0018);
#81=CIRCLE('',#1305,0.0018);
#82=CIRCLE('',#1306,0.0018);
#83=CIRCLE('',#1312,0.002);
#84=CIRCLE('',#1313,0.002);
#85=CIRCLE('',#1314,0.002);
#86=CIRCLE('',#1315,0.002);
#87=CIRCLE('',#1316,0.0045);
#88=CIRCLE('',#1321,0.004);
#89=CIRCLE('',#1333,0.0018);
#90=CIRCLE('',#1335,0.0018);
#91=CIRCLE('',#1337,0.0018);
#92=CIRCLE('',#1339,0.0018);
#93=ELLIPSE('',#1232,0.00622289530744165,0.004);
#94=ORIENTED_EDGE('',*,*,#386,.F.);
#95=ORIENTED_EDGE('',*,*,#387,.T.);
#96=ORIENTED_EDGE('',*,*,#388,.T.);
#97=ORIENTED_EDGE('',*,*,#389,.T.);
#98=ORIENTED_EDGE('',*,*,#390,.F.);
#99=ORIENTED_EDGE('',*,*,#391,.T.);
#100=ORIENTED_EDGE('',*,*,#392,.T.);
#101=ORIENTED_EDGE('',*,*,#393,.F.);
#102=ORIENTED_EDGE('',*,*,#394,.F.);
#103=ORIENTED_EDGE('',*,*,#395,.T.);
#104=ORIENTED_EDGE('',*,*,#390,.T.);
#105=ORIENTED_EDGE('',*,*,#396,.F.);
#106=ORIENTED_EDGE('',*,*,#397,.F.);
#107=ORIENTED_EDGE('',*,*,#394,.T.);
#108=ORIENTED_EDGE('',*,*,#398,.T.);
#109=ORIENTED_EDGE('',*,*,#392,.F.);
#110=ORIENTED_EDGE('',*,*,#399,.F.);
#111=ORIENTED_EDGE('',*,*,#400,.F.);
#112=ORIENTED_EDGE('',*,*,#401,.T.);
#113=ORIENTED_EDGE('',*,*,#402,.F.);
#114=ORIENTED_EDGE('',*,*,#403,.F.);
#115=ORIENTED_EDGE('',*,*,#404,.T.);
#116=ORIENTED_EDGE('',*,*,#405,.F.);
#117=ORIENTED_EDGE('',*,*,#406,.F.);
#118=ORIENTED_EDGE('',*,*,#407,.F.);
#119=ORIENTED_EDGE('',*,*,#408,.F.);
#120=ORIENTED_EDGE('',*,*,#409,.T.);
#121=ORIENTED_EDGE('',*,*,#410,.F.);
#122=ORIENTED_EDGE('',*,*,#389,.F.);
#123=ORIENTED_EDGE('',*,*,#411,.F.);
#124=ORIENTED_EDGE('',*,*,#412,.T.);
#125=ORIENTED_EDGE('',*,*,#413,.T.);
#126=ORIENTED_EDGE('',*,*,#410,.T.);
#127=ORIENTED_EDGE('',*,*,#414,.T.);
#128=ORIENTED_EDGE('',*,*,#415,.F.);
#129=ORIENTED_EDGE('',*,*,#416,.F.);
#130=ORIENTED_EDGE('',*,*,#417,.F.);
#131=ORIENTED_EDGE('',*,*,#418,.T.);
#132=ORIENTED_EDGE('',*,*,#419,.F.);
#133=ORIENTED_EDGE('',*,*,#420,.T.);
#134=ORIENTED_EDGE('',*,*,#421,.F.);
#135=ORIENTED_EDGE('',*,*,#422,.T.);
#136=ORIENTED_EDGE('',*,*,#423,.F.);
#137=ORIENTED_EDGE('',*,*,#419,.T.);
#138=ORIENTED_EDGE('',*,*,#418,.F.);
#139=ORIENTED_EDGE('',*,*,#424,.F.);
#140=ORIENTED_EDGE('',*,*,#425,.T.);
#141=ORIENTED_EDGE('',*,*,#421,.T.);
#142=ORIENTED_EDGE('',*,*,#426,.F.);
#143=ORIENTED_EDGE('',*,*,#427,.T.);
#144=ORIENTED_EDGE('',*,*,#428,.T.);
#145=ORIENTED_EDGE('',*,*,#429,.T.);
#146=ORIENTED_EDGE('',*,*,#430,.T.);
#147=ORIENTED_EDGE('',*,*,#431,.T.);
#148=ORIENTED_EDGE('',*,*,#432,.T.);
#149=ORIENTED_EDGE('',*,*,#433,.T.);
#150=ORIENTED_EDGE('',*,*,#434,.F.);
#151=ORIENTED_EDGE('',*,*,#435,.T.);
#152=ORIENTED_EDGE('',*,*,#402,.T.);
#153=ORIENTED_EDGE('',*,*,#415,.T.);
#154=ORIENTED_EDGE('',*,*,#436,.F.);
#155=ORIENTED_EDGE('',*,*,#437,.T.);
#156=ORIENTED_EDGE('',*,*,#438,.T.);
#157=ORIENTED_EDGE('',*,*,#439,.T.);
#158=ORIENTED_EDGE('',*,*,#400,.T.);
#159=ORIENTED_EDGE('',*,*,#440,.T.);
#160=ORIENTED_EDGE('',*,*,#441,.F.);
#161=ORIENTED_EDGE('',*,*,#442,.T.);
#162=ORIENTED_EDGE('',*,*,#443,.F.);
#163=ORIENTED_EDGE('',*,*,#444,.F.);
#164=ORIENTED_EDGE('',*,*,#445,.T.);
#165=ORIENTED_EDGE('',*,*,#446,.F.);
#166=ORIENTED_EDGE('',*,*,#447,.T.);
#167=ORIENTED_EDGE('',*,*,#448,.T.);
#168=ORIENTED_EDGE('',*,*,#449,.T.);
#169=ORIENTED_EDGE('',*,*,#450,.T.);
#170=ORIENTED_EDGE('',*,*,#451,.T.);
#171=ORIENTED_EDGE('',*,*,#452,.T.);
#172=ORIENTED_EDGE('',*,*,#453,.T.);
#173=ORIENTED_EDGE('',*,*,#454,.T.);
#174=ORIENTED_EDGE('',*,*,#423,.T.);
#175=ORIENTED_EDGE('',*,*,#455,.T.);
#176=ORIENTED_EDGE('',*,*,#456,.F.);
#177=ORIENTED_EDGE('',*,*,#420,.F.);
#178=ORIENTED_EDGE('',*,*,#457,.F.);
#179=ORIENTED_EDGE('',*,*,#458,.T.);
#180=ORIENTED_EDGE('',*,*,#430,.F.);
#181=ORIENTED_EDGE('',*,*,#459,.F.);
#182=ORIENTED_EDGE('',*,*,#453,.F.);
#183=ORIENTED_EDGE('',*,*,#460,.T.);
#184=ORIENTED_EDGE('',*,*,#459,.T.);
#185=ORIENTED_EDGE('',*,*,#461,.T.);
#186=ORIENTED_EDGE('',*,*,#431,.F.);
#187=ORIENTED_EDGE('',*,*,#462,.F.);
#188=ORIENTED_EDGE('',*,*,#454,.F.);
#189=ORIENTED_EDGE('',*,*,#463,.T.);
#190=ORIENTED_EDGE('',*,*,#462,.T.);
#191=ORIENTED_EDGE('',*,*,#464,.T.);
#192=ORIENTED_EDGE('',*,*,#432,.F.);
#193=ORIENTED_EDGE('',*,*,#465,.F.);
#194=ORIENTED_EDGE('',*,*,#451,.F.);
#195=ORIENTED_EDGE('',*,*,#466,.T.);
#196=ORIENTED_EDGE('',*,*,#465,.T.);
#197=ORIENTED_EDGE('',*,*,#467,.T.);
#198=ORIENTED_EDGE('',*,*,#433,.F.);
#199=ORIENTED_EDGE('',*,*,#468,.F.);
#200=ORIENTED_EDGE('',*,*,#452,.F.);
#201=ORIENTED_EDGE('',*,*,#469,.T.);
#202=ORIENTED_EDGE('',*,*,#468,.T.);
#203=ORIENTED_EDGE('',*,*,#441,.T.);
#204=ORIENTED_EDGE('',*,*,#470,.T.);
#205=ORIENTED_EDGE('',*,*,#434,.T.);
#206=ORIENTED_EDGE('',*,*,#471,.F.);
#207=ORIENTED_EDGE('',*,*,#472,.T.);
#208=ORIENTED_EDGE('',*,*,#450,.F.);
#209=ORIENTED_EDGE('',*,*,#473,.T.);
#210=ORIENTED_EDGE('',*,*,#449,.F.);
#211=ORIENTED_EDGE('',*,*,#474,.T.);
#212=ORIENTED_EDGE('',*,*,#448,.F.);
#213=ORIENTED_EDGE('',*,*,#427,.F.);
#214=ORIENTED_EDGE('',*,*,#472,.F.);
#215=ORIENTED_EDGE('',*,*,#428,.F.);
#216=ORIENTED_EDGE('',*,*,#474,.F.);
#217=ORIENTED_EDGE('',*,*,#429,.F.);
#218=ORIENTED_EDGE('',*,*,#473,.F.);
#219=ORIENTED_EDGE('',*,*,#469,.F.);
#220=ORIENTED_EDGE('',*,*,#467,.F.);
#221=ORIENTED_EDGE('',*,*,#466,.F.);
#222=ORIENTED_EDGE('',*,*,#464,.F.);
#223=ORIENTED_EDGE('',*,*,#463,.F.);
#224=ORIENTED_EDGE('',*,*,#461,.F.);
#225=ORIENTED_EDGE('',*,*,#460,.F.);
#226=ORIENTED_EDGE('',*,*,#458,.F.);
#227=ORIENTED_EDGE('',*,*,#426,.T.);
#228=ORIENTED_EDGE('',*,*,#447,.F.);
#229=ORIENTED_EDGE('',*,*,#439,.F.);
#230=ORIENTED_EDGE('',*,*,#457,.T.);
#231=ORIENTED_EDGE('',*,*,#456,.T.);
#232=ORIENTED_EDGE('',*,*,#475,.T.);
#233=ORIENTED_EDGE('',*,*,#424,.T.);
#234=ORIENTED_EDGE('',*,*,#417,.T.);
#235=ORIENTED_EDGE('',*,*,#438,.F.);
#236=ORIENTED_EDGE('',*,*,#476,.T.);
#237=ORIENTED_EDGE('',*,*,#442,.F.);
#238=ORIENTED_EDGE('',*,*,#471,.T.);
#239=ORIENTED_EDGE('',*,*,#425,.F.);
#240=ORIENTED_EDGE('',*,*,#475,.F.);
#241=ORIENTED_EDGE('',*,*,#455,.F.);
#242=ORIENTED_EDGE('',*,*,#422,.F.);
#243=ORIENTED_EDGE('',*,*,#477,.T.);
#244=ORIENTED_EDGE('',*,*,#478,.T.);
#245=ORIENTED_EDGE('',*,*,#479,.T.);
#246=ORIENTED_EDGE('',*,*,#480,.T.);
#247=ORIENTED_EDGE('',*,*,#481,.T.);
#248=ORIENTED_EDGE('',*,*,#482,.T.);
#249=ORIENTED_EDGE('',*,*,#483,.T.);
#250=ORIENTED_EDGE('',*,*,#484,.T.);
#251=ORIENTED_EDGE('',*,*,#485,.T.);
#252=ORIENTED_EDGE('',*,*,#486,.F.);
#253=ORIENTED_EDGE('',*,*,#487,.F.);
#254=ORIENTED_EDGE('',*,*,#488,.T.);
#255=ORIENTED_EDGE('',*,*,#489,.F.);
#256=ORIENTED_EDGE('',*,*,#490,.T.);
#257=ORIENTED_EDGE('',*,*,#491,.T.);
#258=ORIENTED_EDGE('',*,*,#482,.F.);
#259=ORIENTED_EDGE('',*,*,#492,.T.);
#260=ORIENTED_EDGE('',*,*,#488,.F.);
#261=ORIENTED_EDGE('',*,*,#493,.F.);
#262=ORIENTED_EDGE('',*,*,#445,.F.);
#263=ORIENTED_EDGE('',*,*,#494,.F.);
#264=ORIENTED_EDGE('',*,*,#490,.F.);
#265=ORIENTED_EDGE('',*,*,#495,.F.);
#266=ORIENTED_EDGE('',*,*,#496,.T.);
#267=ORIENTED_EDGE('',*,*,#485,.F.);
#268=ORIENTED_EDGE('',*,*,#497,.F.);
#269=ORIENTED_EDGE('',*,*,#498,.T.);
#270=ORIENTED_EDGE('',*,*,#499,.T.);
#271=ORIENTED_EDGE('',*,*,#500,.T.);
#272=ORIENTED_EDGE('',*,*,#501,.T.);
#273=ORIENTED_EDGE('',*,*,#502,.T.);
#274=ORIENTED_EDGE('',*,*,#503,.F.);
#275=ORIENTED_EDGE('',*,*,#504,.F.);
#276=ORIENTED_EDGE('',*,*,#505,.T.);
#277=ORIENTED_EDGE('',*,*,#506,.F.);
#278=ORIENTED_EDGE('',*,*,#507,.T.);
#279=ORIENTED_EDGE('',*,*,#498,.F.);
#280=ORIENTED_EDGE('',*,*,#508,.T.);
#281=ORIENTED_EDGE('',*,*,#412,.F.);
#282=ORIENTED_EDGE('',*,*,#509,.F.);
#283=ORIENTED_EDGE('',*,*,#510,.F.);
#284=ORIENTED_EDGE('',*,*,#511,.T.);
#285=ORIENTED_EDGE('',*,*,#512,.T.);
#286=ORIENTED_EDGE('',*,*,#511,.F.);
#287=ORIENTED_EDGE('',*,*,#513,.F.);
#288=ORIENTED_EDGE('',*,*,#514,.T.);
#289=ORIENTED_EDGE('',*,*,#515,.T.);
#290=ORIENTED_EDGE('',*,*,#516,.T.);
#291=ORIENTED_EDGE('',*,*,#509,.T.);
#292=ORIENTED_EDGE('',*,*,#517,.F.);
#293=ORIENTED_EDGE('',*,*,#514,.F.);
#294=ORIENTED_EDGE('',*,*,#405,.T.);
#295=ORIENTED_EDGE('',*,*,#518,.T.);
#296=ORIENTED_EDGE('',*,*,#519,.T.);
#297=ORIENTED_EDGE('',*,*,#497,.T.);
#298=ORIENTED_EDGE('',*,*,#484,.F.);
#299=ORIENTED_EDGE('',*,*,#520,.F.);
#300=ORIENTED_EDGE('',*,*,#408,.T.);
#301=ORIENTED_EDGE('',*,*,#476,.F.);
#302=ORIENTED_EDGE('',*,*,#437,.F.);
#303=ORIENTED_EDGE('',*,*,#521,.T.);
#304=ORIENTED_EDGE('',*,*,#443,.T.);
#305=ORIENTED_EDGE('',*,*,#414,.F.);
#306=ORIENTED_EDGE('',*,*,#409,.F.);
#307=ORIENTED_EDGE('',*,*,#520,.T.);
#308=ORIENTED_EDGE('',*,*,#483,.F.);
#309=ORIENTED_EDGE('',*,*,#493,.T.);
#310=ORIENTED_EDGE('',*,*,#491,.F.);
#311=ORIENTED_EDGE('',*,*,#494,.T.);
#312=ORIENTED_EDGE('',*,*,#444,.T.);
#313=ORIENTED_EDGE('',*,*,#521,.F.);
#314=ORIENTED_EDGE('',*,*,#436,.T.);
#315=ORIENTED_EDGE('',*,*,#512,.F.);
#316=ORIENTED_EDGE('',*,*,#515,.F.);
#317=ORIENTED_EDGE('',*,*,#517,.T.);
#318=ORIENTED_EDGE('',*,*,#522,.F.);
#319=ORIENTED_EDGE('',*,*,#523,.F.);
#320=ORIENTED_EDGE('',*,*,#406,.T.);
#321=ORIENTED_EDGE('',*,*,#519,.F.);
#322=ORIENTED_EDGE('',*,*,#518,.F.);
#323=ORIENTED_EDGE('',*,*,#404,.F.);
#324=ORIENTED_EDGE('',*,*,#524,.T.);
#325=ORIENTED_EDGE('',*,*,#522,.T.);
#326=ORIENTED_EDGE('',*,*,#510,.T.);
#327=ORIENTED_EDGE('',*,*,#516,.F.);
#328=ORIENTED_EDGE('',*,*,#513,.T.);
#329=ORIENTED_EDGE('',*,*,#524,.F.);
#330=ORIENTED_EDGE('',*,*,#403,.T.);
#331=ORIENTED_EDGE('',*,*,#413,.F.);
#332=ORIENTED_EDGE('',*,*,#508,.F.);
#333=ORIENTED_EDGE('',*,*,#407,.T.);
#334=ORIENTED_EDGE('',*,*,#523,.T.);
#335=ORIENTED_EDGE('',*,*,#496,.F.);
#336=ORIENTED_EDGE('',*,*,#507,.F.);
#337=ORIENTED_EDGE('',*,*,#525,.T.);
#338=ORIENTED_EDGE('',*,*,#486,.T.);
#339=ORIENTED_EDGE('',*,*,#506,.T.);
#340=ORIENTED_EDGE('',*,*,#526,.T.);
#341=ORIENTED_EDGE('',*,*,#386,.T.);
#342=ORIENTED_EDGE('',*,*,#416,.T.);
#343=ORIENTED_EDGE('',*,*,#401,.F.);
#344=ORIENTED_EDGE('',*,*,#446,.T.);
#345=ORIENTED_EDGE('',*,*,#495,.T.);
#346=ORIENTED_EDGE('',*,*,#489,.T.);
#347=ORIENTED_EDGE('',*,*,#492,.F.);
#348=ORIENTED_EDGE('',*,*,#487,.T.);
#349=ORIENTED_EDGE('',*,*,#525,.F.);
#350=ORIENTED_EDGE('',*,*,#393,.T.);
#351=ORIENTED_EDGE('',*,*,#398,.F.);
#352=ORIENTED_EDGE('',*,*,#396,.T.);
#353=ORIENTED_EDGE('',*,*,#388,.F.);
#354=ORIENTED_EDGE('',*,*,#527,.T.);
#355=ORIENTED_EDGE('',*,*,#504,.T.);
#356=ORIENTED_EDGE('',*,*,#411,.T.);
#357=ORIENTED_EDGE('',*,*,#391,.F.);
#358=ORIENTED_EDGE('',*,*,#395,.F.);
#359=ORIENTED_EDGE('',*,*,#397,.T.);
#360=ORIENTED_EDGE('',*,*,#527,.F.);
#361=ORIENTED_EDGE('',*,*,#387,.F.);
#362=ORIENTED_EDGE('',*,*,#526,.F.);
#363=ORIENTED_EDGE('',*,*,#505,.F.);
#364=ORIENTED_EDGE('',*,*,#528,.T.);
#365=ORIENTED_EDGE('',*,*,#481,.F.);
#366=ORIENTED_EDGE('',*,*,#529,.T.);
#367=ORIENTED_EDGE('',*,*,#480,.F.);
#368=ORIENTED_EDGE('',*,*,#530,.T.);
#369=ORIENTED_EDGE('',*,*,#479,.F.);
#370=ORIENTED_EDGE('',*,*,#531,.T.);
#371=ORIENTED_EDGE('',*,*,#478,.F.);
#372=ORIENTED_EDGE('',*,*,#503,.T.);
#373=ORIENTED_EDGE('',*,*,#477,.F.);
#374=ORIENTED_EDGE('',*,*,#499,.F.);
#375=ORIENTED_EDGE('',*,*,#531,.F.);
#376=ORIENTED_EDGE('',*,*,#500,.F.);
#377=ORIENTED_EDGE('',*,*,#530,.F.);
#378=ORIENTED_EDGE('',*,*,#501,.F.);
#379=ORIENTED_EDGE('',*,*,#529,.F.);
#380=ORIENTED_EDGE('',*,*,#502,.F.);
#381=ORIENTED_EDGE('',*,*,#528,.F.);
#382=ORIENTED_EDGE('',*,*,#440,.F.);
#383=ORIENTED_EDGE('',*,*,#399,.T.);
#384=ORIENTED_EDGE('',*,*,#435,.F.);
#385=ORIENTED_EDGE('',*,*,#470,.F.);
#386=EDGE_CURVE('',#532,#533,#644,.T.);
#387=EDGE_CURVE('',#532,#534,#645,.T.);
#388=EDGE_CURVE('',#534,#535,#646,.T.);
#389=EDGE_CURVE('',#535,#533,#647,.T.);
#390=EDGE_CURVE('',#536,#537,#648,.T.);
#391=EDGE_CURVE('',#536,#538,#649,.T.);
#392=EDGE_CURVE('',#538,#539,#650,.T.);
#393=EDGE_CURVE('',#537,#539,#651,.T.);
#394=EDGE_CURVE('',#540,#541,#652,.T.);
#395=EDGE_CURVE('',#540,#536,#653,.T.);
#396=EDGE_CURVE('',#541,#537,#654,.T.);
#397=EDGE_CURVE('',#540,#538,#655,.T.);
#398=EDGE_CURVE('',#541,#539,#656,.T.);
#399=EDGE_CURVE('',#542,#543,#657,.T.);
#400=EDGE_CURVE('',#544,#542,#658,.T.);
#401=EDGE_CURVE('',#544,#545,#659,.T.);
#402=EDGE_CURVE('',#543,#545,#660,.T.);
#403=EDGE_CURVE('',#546,#547,#661,.T.);
#404=EDGE_CURVE('',#546,#548,#662,.T.);
#405=EDGE_CURVE('',#549,#548,#93,.F.);
#406=EDGE_CURVE('',#550,#549,#663,.T.);
#407=EDGE_CURVE('',#551,#550,#664,.T.);
#408=EDGE_CURVE('',#552,#551,#665,.T.);
#409=EDGE_CURVE('',#552,#553,#666,.T.);
#410=EDGE_CURVE('',#547,#553,#667,.T.);
#411=EDGE_CURVE('',#554,#535,#668,.T.);
#412=EDGE_CURVE('',#554,#555,#669,.T.);
#413=EDGE_CURVE('',#555,#547,#670,.T.);
#414=EDGE_CURVE('',#553,#556,#671,.T.);
#415=EDGE_CURVE('',#545,#556,#672,.T.);
#416=EDGE_CURVE('',#533,#545,#673,.T.);
#417=EDGE_CURVE('',#557,#558,#674,.T.);
#418=EDGE_CURVE('',#557,#559,#675,.T.);
#419=EDGE_CURVE('',#560,#559,#676,.T.);
#420=EDGE_CURVE('',#560,#558,#677,.T.);
#421=EDGE_CURVE('',#561,#559,#678,.T.);
#422=EDGE_CURVE('',#561,#562,#679,.T.);
#423=EDGE_CURVE('',#560,#562,#680,.T.);
#424=EDGE_CURVE('',#563,#557,#681,.T.);
#425=EDGE_CURVE('',#563,#561,#43,.T.);
#426=EDGE_CURVE('',#564,#564,#44,.T.);
#427=EDGE_CURVE('',#565,#565,#45,.T.);
#428=EDGE_CURVE('',#566,#566,#46,.T.);
#429=EDGE_CURVE('',#567,#567,#47,.T.);
#430=EDGE_CURVE('',#568,#568,#48,.T.);
#431=EDGE_CURVE('',#569,#569,#49,.T.);
#432=EDGE_CURVE('',#570,#570,#50,.T.);
#433=EDGE_CURVE('',#571,#571,#51,.T.);
#434=EDGE_CURVE('',#572,#573,#682,.T.);
#435=EDGE_CURVE('',#572,#543,#683,.T.);
#436=EDGE_CURVE('',#574,#556,#684,.T.);
#437=EDGE_CURVE('',#574,#575,#685,.T.);
#438=EDGE_CURVE('',#575,#573,#686,.T.);
#439=EDGE_CURVE('',#576,#576,#52,.T.);
#440=EDGE_CURVE('',#542,#577,#687,.T.);
#441=EDGE_CURVE('',#578,#577,#688,.T.);
#442=EDGE_CURVE('',#578,#579,#689,.T.);
#443=EDGE_CURVE('',#580,#579,#690,.T.);
#444=EDGE_CURVE('',#581,#580,#691,.T.);
#445=EDGE_CURVE('',#581,#582,#692,.T.);
#446=EDGE_CURVE('',#544,#582,#693,.F.);
#447=EDGE_CURVE('',#583,#583,#53,.T.);
#448=EDGE_CURVE('',#584,#584,#54,.T.);
#449=EDGE_CURVE('',#585,#585,#55,.T.);
#450=EDGE_CURVE('',#586,#586,#56,.T.);
#451=EDGE_CURVE('',#587,#587,#57,.T.);
#452=EDGE_CURVE('',#588,#588,#58,.T.);
#453=EDGE_CURVE('',#589,#589,#59,.T.);
#454=EDGE_CURVE('',#590,#590,#60,.T.);
#455=EDGE_CURVE('',#562,#591,#61,.T.);
#456=EDGE_CURVE('',#558,#591,#694,.T.);
#457=EDGE_CURVE('',#592,#592,#62,.F.);
#458=EDGE_CURVE('',#593,#593,#63,.F.);
#459=EDGE_CURVE('',#594,#594,#64,.F.);
#460=EDGE_CURVE('',#595,#595,#65,.T.);
#461=EDGE_CURVE('',#596,#596,#66,.F.);
#462=EDGE_CURVE('',#597,#597,#67,.F.);
#463=EDGE_CURVE('',#598,#598,#68,.T.);
#464=EDGE_CURVE('',#599,#599,#69,.F.);
#465=EDGE_CURVE('',#600,#600,#70,.F.);
#466=EDGE_CURVE('',#601,#601,#71,.T.);
#467=EDGE_CURVE('',#602,#602,#72,.F.);
#468=EDGE_CURVE('',#603,#603,#73,.F.);
#469=EDGE_CURVE('',#604,#604,#74,.T.);
#470=EDGE_CURVE('',#577,#572,#695,.T.);
#471=EDGE_CURVE('',#578,#573,#696,.T.);
#472=EDGE_CURVE('',#605,#605,#75,.F.);
#473=EDGE_CURVE('',#606,#606,#76,.F.);
#474=EDGE_CURVE('',#607,#607,#77,.F.);
#475=EDGE_CURVE('',#591,#563,#697,.F.);
#476=EDGE_CURVE('',#575,#579,#698,.T.);
#477=EDGE_CURVE('',#608,#608,#78,.T.);
#478=EDGE_CURVE('',#609,#609,#79,.T.);
#479=EDGE_CURVE('',#610,#610,#80,.T.);
#480=EDGE_CURVE('',#611,#611,#81,.T.);
#481=EDGE_CURVE('',#612,#612,#82,.T.);
#482=EDGE_CURVE('',#613,#614,#699,.T.);
#483=EDGE_CURVE('',#614,#615,#700,.T.);
#484=EDGE_CURVE('',#615,#616,#701,.T.);
#485=EDGE_CURVE('',#616,#617,#702,.T.);
#486=EDGE_CURVE('',#618,#617,#703,.T.);
#487=EDGE_CURVE('',#613,#618,#704,.T.);
#488=EDGE_CURVE('',#619,#620,#705,.T.);
#489=EDGE_CURVE('',#621,#620,#706,.T.);
#490=EDGE_CURVE('',#621,#622,#707,.T.);
#491=EDGE_CURVE('',#622,#619,#708,.T.);
#492=EDGE_CURVE('',#613,#620,#709,.T.);
#493=EDGE_CURVE('',#614,#619,#710,.T.);
#494=EDGE_CURVE('',#622,#581,#711,.T.);
#495=EDGE_CURVE('',#582,#621,#712,.T.);
#496=EDGE_CURVE('',#623,#617,#713,.T.);
#497=EDGE_CURVE('',#551,#616,#714,.T.);
#498=EDGE_CURVE('',#551,#623,#715,.T.);
#499=EDGE_CURVE('',#624,#624,#83,.F.);
#500=EDGE_CURVE('',#625,#625,#84,.F.);
#501=EDGE_CURVE('',#626,#626,#85,.F.);
#502=EDGE_CURVE('',#627,#627,#86,.F.);
#503=EDGE_CURVE('',#628,#628,#87,.T.);
#504=EDGE_CURVE('',#629,#554,#716,.T.);
#505=EDGE_CURVE('',#629,#630,#717,.T.);
#506=EDGE_CURVE('',#631,#630,#718,.T.);
#507=EDGE_CURVE('',#631,#623,#719,.T.);
#508=EDGE_CURVE('',#551,#555,#720,.T.);
#509=EDGE_CURVE('',#632,#633,#721,.T.);
#510=EDGE_CURVE('',#634,#632,#722,.T.);
#511=EDGE_CURVE('',#634,#635,#723,.T.);
#512=EDGE_CURVE('',#635,#633,#724,.T.);
#513=EDGE_CURVE('',#636,#634,#725,.T.);
#514=EDGE_CURVE('',#636,#637,#726,.T.);
#515=EDGE_CURVE('',#637,#635,#727,.T.);
#516=EDGE_CURVE('',#636,#632,#728,.T.);
#517=EDGE_CURVE('',#637,#633,#729,.T.);
#518=EDGE_CURVE('',#548,#638,#730,.F.);
#519=EDGE_CURVE('',#638,#549,#88,.T.);
#520=EDGE_CURVE('',#552,#615,#731,.T.);
#521=EDGE_CURVE('',#574,#580,#732,.T.);
#522=EDGE_CURVE('',#639,#638,#733,.T.);
#523=EDGE_CURVE('',#550,#639,#734,.T.);
#524=EDGE_CURVE('',#546,#639,#735,.F.);
#525=EDGE_CURVE('',#631,#618,#736,.T.);
#526=EDGE_CURVE('',#630,#532,#737,.F.);
#527=EDGE_CURVE('',#534,#629,#738,.F.);
#528=EDGE_CURVE('',#640,#640,#89,.T.);
#529=EDGE_CURVE('',#641,#641,#90,.T.);
#530=EDGE_CURVE('',#642,#642,#91,.T.);
#531=EDGE_CURVE('',#643,#643,#92,.T.);
#532=VERTEX_POINT('',#1686);
#533=VERTEX_POINT('',#1687);
#534=VERTEX_POINT('',#1689);
#535=VERTEX_POINT('',#1691);
#536=VERTEX_POINT('',#1695);
#537=VERTEX_POINT('',#1696);
#538=VERTEX_POINT('',#1698);
#539=VERTEX_POINT('',#1700);
#540=VERTEX_POINT('',#1704);
#541=VERTEX_POINT('',#1705);
#542=VERTEX_POINT('',#1713);
#543=VERTEX_POINT('',#1714);
#544=VERTEX_POINT('',#1716);
#545=VERTEX_POINT('',#1718);
#546=VERTEX_POINT('',#1722);
#547=VERTEX_POINT('',#1723);
#548=VERTEX_POINT('',#1725);
#549=VERTEX_POINT('',#1727);
#550=VERTEX_POINT('',#1729);
#551=VERTEX_POINT('',#1731);
#552=VERTEX_POINT('',#1733);
#553=VERTEX_POINT('',#1735);
#554=VERTEX_POINT('',#1739);
#555=VERTEX_POINT('',#1741);
#556=VERTEX_POINT('',#1744);
#557=VERTEX_POINT('',#1749);
#558=VERTEX_POINT('',#1750);
#559=VERTEX_POINT('',#1752);
#560=VERTEX_POINT('',#1754);
#561=VERTEX_POINT('',#1758);
#562=VERTEX_POINT('',#1760);
#563=VERTEX_POINT('',#1764);
#564=VERTEX_POINT('',#1767);
#565=VERTEX_POINT('',#1769);
#566=VERTEX_POINT('',#1771);
#567=VERTEX_POINT('',#1773);
#568=VERTEX_POINT('',#1775);
#569=VERTEX_POINT('',#1777);
#570=VERTEX_POINT('',#1779);
#571=VERTEX_POINT('',#1781);
#572=VERTEX_POINT('',#1783);
#573=VERTEX_POINT('',#1784);
#574=VERTEX_POINT('',#1787);
#575=VERTEX_POINT('',#1789);
#576=VERTEX_POINT('',#1792);
#577=VERTEX_POINT('',#1795);
#578=VERTEX_POINT('',#1797);
#579=VERTEX_POINT('',#1799);
#580=VERTEX_POINT('',#1801);
#581=VERTEX_POINT('',#1803);
#582=VERTEX_POINT('',#1805);
#583=VERTEX_POINT('',#1808);
#584=VERTEX_POINT('',#1810);
#585=VERTEX_POINT('',#1812);
#586=VERTEX_POINT('',#1814);
#587=VERTEX_POINT('',#1816);
#588=VERTEX_POINT('',#1818);
#589=VERTEX_POINT('',#1820);
#590=VERTEX_POINT('',#1822);
#591=VERTEX_POINT('',#1824);
#592=VERTEX_POINT('',#1827);
#593=VERTEX_POINT('',#1830);
#594=VERTEX_POINT('',#1833);
#595=VERTEX_POINT('',#1836);
#596=VERTEX_POINT('',#1839);
#597=VERTEX_POINT('',#1842);
#598=VERTEX_POINT('',#1845);
#599=VERTEX_POINT('',#1848);
#600=VERTEX_POINT('',#1851);
#601=VERTEX_POINT('',#1854);
#602=VERTEX_POINT('',#1857);
#603=VERTEX_POINT('',#1860);
#604=VERTEX_POINT('',#1863);
#605=VERTEX_POINT('',#1869);
#606=VERTEX_POINT('',#1872);
#607=VERTEX_POINT('',#1875);
#608=VERTEX_POINT('',#1892);
#609=VERTEX_POINT('',#1894);
#610=VERTEX_POINT('',#1896);
#611=VERTEX_POINT('',#1898);
#612=VERTEX_POINT('',#1900);
#613=VERTEX_POINT('',#1902);
#614=VERTEX_POINT('',#1903);
#615=VERTEX_POINT('',#1905);
#616=VERTEX_POINT('',#1907);
#617=VERTEX_POINT('',#1909);
#618=VERTEX_POINT('',#1911);
#619=VERTEX_POINT('',#1915);
#620=VERTEX_POINT('',#1916);
#621=VERTEX_POINT('',#1918);
#622=VERTEX_POINT('',#1920);
#623=VERTEX_POINT('',#1930);
#624=VERTEX_POINT('',#1935);
#625=VERTEX_POINT('',#1937);
#626=VERTEX_POINT('',#1939);
#627=VERTEX_POINT('',#1941);
#628=VERTEX_POINT('',#1943);
#629=VERTEX_POINT('',#1945);
#630=VERTEX_POINT('',#1947);
#631=VERTEX_POINT('',#1949);
#632=VERTEX_POINT('',#1954);
#633=VERTEX_POINT('',#1955);
#634=VERTEX_POINT('',#1957);
#635=VERTEX_POINT('',#1959);
#636=VERTEX_POINT('',#1963);
#637=VERTEX_POINT('',#1965);
#638=VERTEX_POINT('',#1972);
#639=VERTEX_POINT('',#1981);
#640=VERTEX_POINT('',#1995);
#641=VERTEX_POINT('',#1998);
#642=VERTEX_POINT('',#2001);
#643=VERTEX_POINT('',#2004);
#644=LINE('',#1685,#739);
#645=LINE('',#1688,#740);
#646=LINE('',#1690,#741);
#647=LINE('',#1692,#742);
#648=LINE('',#1694,#743);
#649=LINE('',#1697,#744);
#650=LINE('',#1699,#745);
#651=LINE('',#1701,#746);
#652=LINE('',#1703,#747);
#653=LINE('',#1706,#748);
#654=LINE('',#1707,#749);
#655=LINE('',#1709,#750);
#656=LINE('',#1710,#751);
#657=LINE('',#1712,#752);
#658=LINE('',#1715,#753);
#659=LINE('',#1717,#754);
#660=LINE('',#1719,#755);
#661=LINE('',#1721,#756);
#662=LINE('',#1724,#757);
#663=LINE('',#1728,#758);
#664=LINE('',#1730,#759);
#665=LINE('',#1732,#760);
#666=LINE('',#1734,#761);
#667=LINE('',#1736,#762);
#668=LINE('',#1738,#763);
#669=LINE('',#1740,#764);
#670=LINE('',#1742,#765);
#671=LINE('',#1743,#766);
#672=LINE('',#1745,#767);
#673=LINE('',#1746,#768);
#674=LINE('',#1748,#769);
#675=LINE('',#1751,#770);
#676=LINE('',#1753,#771);
#677=LINE('',#1755,#772);
#678=LINE('',#1757,#773);
#679=LINE('',#1759,#774);
#680=LINE('',#1761,#775);
#681=LINE('',#1763,#776);
#682=LINE('',#1782,#777);
#683=LINE('',#1785,#778);
#684=LINE('',#1786,#779);
#685=LINE('',#1788,#780);
#686=LINE('',#1790,#781);
#687=LINE('',#1794,#782);
#688=LINE('',#1796,#783);
#689=LINE('',#1798,#784);
#690=LINE('',#1800,#785);
#691=LINE('',#1802,#786);
#692=LINE('',#1804,#787);
#693=LINE('',#1806,#788);
#694=LINE('',#1825,#789);
#695=LINE('',#1865,#790);
#696=LINE('',#1866,#791);
#697=LINE('',#1886,#792);
#698=LINE('',#1888,#793);
#699=LINE('',#1901,#794);
#700=LINE('',#1904,#795);
#701=LINE('',#1906,#796);
#702=LINE('',#1908,#797);
#703=LINE('',#1910,#798);
#704=LINE('',#1912,#799);
#705=LINE('',#1914,#800);
#706=LINE('',#1917,#801);
#707=LINE('',#1919,#802);
#708=LINE('',#1921,#803);
#709=LINE('',#1923,#804);
#710=LINE('',#1924,#805);
#711=LINE('',#1926,#806);
#712=LINE('',#1927,#807);
#713=LINE('',#1929,#808);
#714=LINE('',#1931,#809);
#715=LINE('',#1932,#810);
#716=LINE('',#1944,#811);
#717=LINE('',#1946,#812);
#718=LINE('',#1948,#813);
#719=LINE('',#1950,#814);
#720=LINE('',#1951,#815);
#721=LINE('',#1953,#816);
#722=LINE('',#1956,#817);
#723=LINE('',#1958,#818);
#724=LINE('',#1960,#819);
#725=LINE('',#1962,#820);
#726=LINE('',#1964,#821);
#727=LINE('',#1966,#822);
#728=LINE('',#1968,#823);
#729=LINE('',#1969,#824);
#730=LINE('',#1971,#825);
#731=LINE('',#1975,#826);
#732=LINE('',#1977,#827);
#733=LINE('',#1980,#828);
#734=LINE('',#1982,#829);
#735=LINE('',#1984,#830);
#736=LINE('',#1987,#831);
#737=LINE('',#1989,#832);
#738=LINE('',#1991,#833);
#739=VECTOR('',#1350,1.);
#740=VECTOR('',#1351,1.);
#741=VECTOR('',#1352,1.);
#742=VECTOR('',#1353,1.);
#743=VECTOR('',#1356,1.);
#744=VECTOR('',#1357,1.);
#745=VECTOR('',#1358,1.);
#746=VECTOR('',#1359,1.);
#747=VECTOR('',#1362,1.);
#748=VECTOR('',#1363,1.);
#749=VECTOR('',#1364,1.);
#750=VECTOR('',#1367,1.);
#751=VECTOR('',#1368,1.);
#752=VECTOR('',#1371,1.);
#753=VECTOR('',#1372,1.);
#754=VECTOR('',#1373,1.);
#755=VECTOR('',#1374,1.);
#756=VECTOR('',#1377,1.);
#757=VECTOR('',#1378,1.);
#758=VECTOR('',#1381,1.);
#759=VECTOR('',#1382,1.);
#760=VECTOR('',#1383,1.);
#761=VECTOR('',#1384,1.);
#762=VECTOR('',#1385,1.);
#763=VECTOR('',#1388,1.);
#764=VECTOR('',#1389,1.);
#765=VECTOR('',#1390,1.);
#766=VECTOR('',#1391,1.);
#767=VECTOR('',#1392,1.);
#768=VECTOR('',#1393,1.);
#769=VECTOR('',#1396,1.);
#770=VECTOR('',#1397,1.);
#771=VECTOR('',#1398,1.);
#772=VECTOR('',#1399,1.);
#773=VECTOR('',#1402,1.);
#774=VECTOR('',#1403,1.);
#775=VECTOR('',#1404,1.);
#776=VECTOR('',#1407,1.);
#777=VECTOR('',#1426,1.);
#778=VECTOR('',#1427,1.);
#779=VECTOR('',#1428,1.);
#780=VECTOR('',#1429,1.);
#781=VECTOR('',#1430,1.);
#782=VECTOR('',#1435,1.);
#783=VECTOR('',#1436,1.);
#784=VECTOR('',#1437,1.);
#785=VECTOR('',#1438,1.);
#786=VECTOR('',#1439,1.);
#787=VECTOR('',#1440,1.);
#788=VECTOR('',#1441,1.);
#789=VECTOR('',#1460,1.);
#790=VECTOR('',#1513,1.);
#791=VECTOR('',#1514,1.);
#792=VECTOR('',#1547,1.);
#793=VECTOR('',#1550,1.);
#794=VECTOR('',#1565,1.);
#795=VECTOR('',#1566,1.);
#796=VECTOR('',#1567,1.);
#797=VECTOR('',#1568,1.);
#798=VECTOR('',#1569,1.);
#799=VECTOR('',#1570,1.);
#800=VECTOR('',#1573,1.);
#801=VECTOR('',#1574,1.);
#802=VECTOR('',#1575,1.);
#803=VECTOR('',#1576,1.);
#804=VECTOR('',#1579,1.);
#805=VECTOR('',#1580,1.);
#806=VECTOR('',#1583,1.);
#807=VECTOR('',#1584,1.);
#808=VECTOR('',#1587,1.);
#809=VECTOR('',#1588,1.);
#810=VECTOR('',#1589,1.);
#811=VECTOR('',#1602,1.);
#812=VECTOR('',#1603,1.);
#813=VECTOR('',#1604,1.);
#814=VECTOR('',#1605,1.);
#815=VECTOR('',#1606,1.);
#816=VECTOR('',#1609,1.);
#817=VECTOR('',#1610,1.);
#818=VECTOR('',#1611,1.);
#819=VECTOR('',#1612,1.);
#820=VECTOR('',#1615,1.);
#821=VECTOR('',#1616,1.);
#822=VECTOR('',#1617,1.);
#823=VECTOR('',#1620,1.);
#824=VECTOR('',#1621,1.);
#825=VECTOR('',#1624,1.);
#826=VECTOR('',#1629,1.);
#827=VECTOR('',#1632,1.);
#828=VECTOR('',#1637,1.);
#829=VECTOR('',#1638,1.);
#830=VECTOR('',#1641,1.);
#831=VECTOR('',#1646,1.);
#832=VECTOR('',#1649,1.);
#833=VECTOR('',#1652,1.);
#834=EDGE_LOOP('',(#94,#95,#96,#97));
#835=EDGE_LOOP('',(#98,#99,#100,#101));
#836=EDGE_LOOP('',(#102,#103,#104,#105));
#837=EDGE_LOOP('',(#106,#107,#108,#109));
#838=EDGE_LOOP('',(#110,#111,#112,#113));
#839=EDGE_LOOP('',(#114,#115,#116,#117,#118,#119,#120,#121));
#840=EDGE_LOOP('',(#122,#123,#124,#125,#126,#127,#128,#129));
#841=EDGE_LOOP('',(#130,#131,#132,#133));
#842=EDGE_LOOP('',(#134,#135,#136,#137));
#843=EDGE_LOOP('',(#138,#139,#140,#141));
#844=EDGE_LOOP('',(#142));
#845=EDGE_LOOP('',(#143));
#846=EDGE_LOOP('',(#144));
#847=EDGE_LOOP('',(#145));
#848=EDGE_LOOP('',(#146));
#849=EDGE_LOOP('',(#147));
#850=EDGE_LOOP('',(#148));
#851=EDGE_LOOP('',(#149));
#852=EDGE_LOOP('',(#150,#151,#152,#153,#154,#155,#156));
#853=EDGE_LOOP('',(#157));
#854=EDGE_LOOP('',(#158,#159,#160,#161,#162,#163,#164,#165));
#855=EDGE_LOOP('',(#166));
#856=EDGE_LOOP('',(#167));
#857=EDGE_LOOP('',(#168));
#858=EDGE_LOOP('',(#169));
#859=EDGE_LOOP('',(#170));
#860=EDGE_LOOP('',(#171));
#861=EDGE_LOOP('',(#172));
#862=EDGE_LOOP('',(#173));
#863=EDGE_LOOP('',(#174,#175,#176,#177));
#864=EDGE_LOOP('',(#178));
#865=EDGE_LOOP('',(#179));
#866=EDGE_LOOP('',(#180));
#867=EDGE_LOOP('',(#181));
#868=EDGE_LOOP('',(#182));
#869=EDGE_LOOP('',(#183));
#870=EDGE_LOOP('',(#184));
#871=EDGE_LOOP('',(#185));
#872=EDGE_LOOP('',(#186));
#873=EDGE_LOOP('',(#187));
#874=EDGE_LOOP('',(#188));
#875=EDGE_LOOP('',(#189));
#876=EDGE_LOOP('',(#190));
#877=EDGE_LOOP('',(#191));
#878=EDGE_LOOP('',(#192));
#879=EDGE_LOOP('',(#193));
#880=EDGE_LOOP('',(#194));
#881=EDGE_LOOP('',(#195));
#882=EDGE_LOOP('',(#196));
#883=EDGE_LOOP('',(#197));
#884=EDGE_LOOP('',(#198));
#885=EDGE_LOOP('',(#199));
#886=EDGE_LOOP('',(#200));
#887=EDGE_LOOP('',(#201));
#888=EDGE_LOOP('',(#202));
#889=EDGE_LOOP('',(#203,#204,#205,#206));
#890=EDGE_LOOP('',(#207));
#891=EDGE_LOOP('',(#208));
#892=EDGE_LOOP('',(#209));
#893=EDGE_LOOP('',(#210));
#894=EDGE_LOOP('',(#211));
#895=EDGE_LOOP('',(#212));
#896=EDGE_LOOP('',(#213));
#897=EDGE_LOOP('',(#214));
#898=EDGE_LOOP('',(#215));
#899=EDGE_LOOP('',(#216));
#900=EDGE_LOOP('',(#217));
#901=EDGE_LOOP('',(#218));
#902=EDGE_LOOP('',(#219));
#903=EDGE_LOOP('',(#220));
#904=EDGE_LOOP('',(#221));
#905=EDGE_LOOP('',(#222));
#906=EDGE_LOOP('',(#223));
#907=EDGE_LOOP('',(#224));
#908=EDGE_LOOP('',(#225));
#909=EDGE_LOOP('',(#226));
#910=EDGE_LOOP('',(#227));
#911=EDGE_LOOP('',(#228));
#912=EDGE_LOOP('',(#229));
#913=EDGE_LOOP('',(#230));
#914=EDGE_LOOP('',(#231,#232,#233,#234));
#915=EDGE_LOOP('',(#235,#236,#237,#238));
#916=EDGE_LOOP('',(#239,#240,#241,#242));
#917=EDGE_LOOP('',(#243));
#918=EDGE_LOOP('',(#244));
#919=EDGE_LOOP('',(#245));
#920=EDGE_LOOP('',(#246));
#921=EDGE_LOOP('',(#247));
#922=EDGE_LOOP('',(#248,#249,#250,#251,#252,#253));
#923=EDGE_LOOP('',(#254,#255,#256,#257));
#924=EDGE_LOOP('',(#258,#259,#260,#261));
#925=EDGE_LOOP('',(#262,#263,#264,#265));
#926=EDGE_LOOP('',(#266,#267,#268,#269));
#927=EDGE_LOOP('',(#270));
#928=EDGE_LOOP('',(#271));
#929=EDGE_LOOP('',(#272));
#930=EDGE_LOOP('',(#273));
#931=EDGE_LOOP('',(#274));
#932=EDGE_LOOP('',(#275,#276,#277,#278,#279,#280,#281));
#933=EDGE_LOOP('',(#282,#283,#284,#285));
#934=EDGE_LOOP('',(#286,#287,#288,#289));
#935=EDGE_LOOP('',(#290,#291,#292,#293));
#936=EDGE_LOOP('',(#294,#295,#296));
#937=EDGE_LOOP('',(#297,#298,#299,#300));
#938=EDGE_LOOP('',(#301,#302,#303,#304));
#939=EDGE_LOOP('',(#305,#306,#307,#308,#309,#310,#311,#312,#313,#314));
#940=EDGE_LOOP('',(#315,#316,#317));
#941=EDGE_LOOP('',(#318,#319,#320,#321));
#942=EDGE_LOOP('',(#322,#323,#324,#325));
#943=EDGE_LOOP('',(#326,#327,#328));
#944=EDGE_LOOP('',(#329,#330,#331,#332,#333,#334));
#945=EDGE_LOOP('',(#335,#336,#337,#338));
#946=EDGE_LOOP('',(#339,#340,#341,#342,#343,#344,#345,#346,#347,#348,#349));
#947=EDGE_LOOP('',(#350,#351,#352));
#948=EDGE_LOOP('',(#353,#354,#355,#356));
#949=EDGE_LOOP('',(#357,#358,#359));
#950=EDGE_LOOP('',(#360,#361,#362,#363));
#951=EDGE_LOOP('',(#364));
#952=EDGE_LOOP('',(#365));
#953=EDGE_LOOP('',(#366));
#954=EDGE_LOOP('',(#367));
#955=EDGE_LOOP('',(#368));
#956=EDGE_LOOP('',(#369));
#957=EDGE_LOOP('',(#370));
#958=EDGE_LOOP('',(#371));
#959=EDGE_LOOP('',(#372));
#960=EDGE_LOOP('',(#373));
#961=EDGE_LOOP('',(#374));
#962=EDGE_LOOP('',(#375));
#963=EDGE_LOOP('',(#376));
#964=EDGE_LOOP('',(#377));
#965=EDGE_LOOP('',(#378));
#966=EDGE_LOOP('',(#379));
#967=EDGE_LOOP('',(#380));
#968=EDGE_LOOP('',(#381));
#969=EDGE_LOOP('',(#382,#383,#384,#385));
#970=FACE_BOUND('',#834,.T.);
#971=FACE_BOUND('',#835,.T.);
#972=FACE_BOUND('',#836,.T.);
#973=FACE_BOUND('',#837,.T.);
#974=FACE_BOUND('',#838,.T.);
#975=FACE_BOUND('',#839,.T.);
#976=FACE_BOUND('',#840,.T.);
#977=FACE_BOUND('',#841,.T.);
#978=FACE_BOUND('',#842,.T.);
#979=FACE_BOUND('',#843,.T.);
#980=FACE_BOUND('',#844,.T.);
#981=FACE_BOUND('',#845,.T.);
#982=FACE_BOUND('',#846,.T.);
#983=FACE_BOUND('',#847,.T.);
#984=FACE_BOUND('',#848,.T.);
#985=FACE_BOUND('',#849,.T.);
#986=FACE_BOUND('',#850,.T.);
#987=FACE_BOUND('',#851,.T.);
#988=FACE_BOUND('',#852,.T.);
#989=FACE_BOUND('',#853,.T.);
#990=FACE_BOUND('',#854,.T.);
#991=FACE_BOUND('',#855,.T.);
#992=FACE_BOUND('',#856,.T.);
#993=FACE_BOUND('',#857,.T.);
#994=FACE_BOUND('',#858,.T.);
#995=FACE_BOUND('',#859,.T.);
#996=FACE_BOUND('',#860,.T.);
#997=FACE_BOUND('',#861,.T.);
#998=FACE_BOUND('',#862,.T.);
#999=FACE_BOUND('',#863,.T.);
#1000=FACE_BOUND('',#864,.T.);
#1001=FACE_BOUND('',#865,.T.);
#1002=FACE_BOUND('',#866,.T.);
#1003=FACE_BOUND('',#867,.T.);
#1004=FACE_BOUND('',#868,.T.);
#1005=FACE_BOUND('',#869,.T.);
#1006=FACE_BOUND('',#870,.T.);
#1007=FACE_BOUND('',#871,.T.);
#1008=FACE_BOUND('',#872,.T.);
#1009=FACE_BOUND('',#873,.T.);
#1010=FACE_BOUND('',#874,.T.);
#1011=FACE_BOUND('',#875,.T.);
#1012=FACE_BOUND('',#876,.T.);
#1013=FACE_BOUND('',#877,.T.);
#1014=FACE_BOUND('',#878,.T.);
#1015=FACE_BOUND('',#879,.T.);
#1016=FACE_BOUND('',#880,.T.);
#1017=FACE_BOUND('',#881,.T.);
#1018=FACE_BOUND('',#882,.T.);
#1019=FACE_BOUND('',#883,.T.);
#1020=FACE_BOUND('',#884,.T.);
#1021=FACE_BOUND('',#885,.T.);
#1022=FACE_BOUND('',#886,.T.);
#1023=FACE_BOUND('',#887,.T.);
#1024=FACE_BOUND('',#888,.T.);
#1025=FACE_BOUND('',#889,.T.);
#1026=FACE_BOUND('',#890,.T.);
#1027=FACE_BOUND('',#891,.T.);
#1028=FACE_BOUND('',#892,.T.);
#1029=FACE_BOUND('',#893,.T.);
#1030=FACE_BOUND('',#894,.T.);
#1031=FACE_BOUND('',#895,.T.);
#1032=FACE_BOUND('',#896,.T.);
#1033=FACE_BOUND('',#897,.T.);
#1034=FACE_BOUND('',#898,.T.);
#1035=FACE_BOUND('',#899,.T.);
#1036=FACE_BOUND('',#900,.T.);
#1037=FACE_BOUND('',#901,.T.);
#1038=FACE_BOUND('',#902,.T.);
#1039=FACE_BOUND('',#903,.T.);
#1040=FACE_BOUND('',#904,.T.);
#1041=FACE_BOUND('',#905,.T.);
#1042=FACE_BOUND('',#906,.T.);
#1043=FACE_BOUND('',#907,.T.);
#1044=FACE_BOUND('',#908,.T.);
#1045=FACE_BOUND('',#909,.T.);
#1046=FACE_BOUND('',#910,.T.);
#1047=FACE_BOUND('',#911,.T.);
#1048=FACE_BOUND('',#912,.T.);
#1049=FACE_BOUND('',#913,.T.);
#1050=FACE_BOUND('',#914,.T.);
#1051=FACE_BOUND('',#915,.T.);
#1052=FACE_BOUND('',#916,.T.);
#1053=FACE_BOUND('',#917,.T.);
#1054=FACE_BOUND('',#918,.T.);
#1055=FACE_BOUND('',#919,.T.);
#1056=FACE_BOUND('',#920,.T.);
#1057=FACE_BOUND('',#921,.T.);
#1058=FACE_BOUND('',#922,.T.);
#1059=FACE_BOUND('',#923,.T.);
#1060=FACE_BOUND('',#924,.T.);
#1061=FACE_BOUND('',#925,.T.);
#1062=FACE_BOUND('',#926,.T.);
#1063=FACE_BOUND('',#927,.T.);
#1064=FACE_BOUND('',#928,.T.);
#1065=FACE_BOUND('',#929,.T.);
#1066=FACE_BOUND('',#930,.T.);
#1067=FACE_BOUND('',#931,.T.);
#1068=FACE_BOUND('',#932,.T.);
#1069=FACE_BOUND('',#933,.T.);
#1070=FACE_BOUND('',#934,.T.);
#1071=FACE_BOUND('',#935,.T.);
#1072=FACE_BOUND('',#936,.T.);
#1073=FACE_BOUND('',#937,.T.);
#1074=FACE_BOUND('',#938,.T.);
#1075=FACE_BOUND('',#939,.T.);
#1076=FACE_BOUND('',#940,.T.);
#1077=FACE_BOUND('',#941,.T.);
#1078=FACE_BOUND('',#942,.T.);
#1079=FACE_BOUND('',#943,.T.);
#1080=FACE_BOUND('',#944,.T.);
#1081=FACE_BOUND('',#945,.T.);
#1082=FACE_BOUND('',#946,.T.);
#1083=FACE_BOUND('',#947,.T.);
#1084=FACE_BOUND('',#948,.T.);
#1085=FACE_BOUND('',#949,.T.);
#1086=FACE_BOUND('',#950,.T.);
#1087=FACE_BOUND('',#951,.T.);
#1088=FACE_BOUND('',#952,.T.);
#1089=FACE_BOUND('',#953,.T.);
#1090=FACE_BOUND('',#954,.T.);
#1091=FACE_BOUND('',#955,.T.);
#1092=FACE_BOUND('',#956,.T.);
#1093=FACE_BOUND('',#957,.T.);
#1094=FACE_BOUND('',#958,.T.);
#1095=FACE_BOUND('',#959,.T.);
#1096=FACE_BOUND('',#960,.T.);
#1097=FACE_BOUND('',#961,.T.);
#1098=FACE_BOUND('',#962,.T.);
#1099=FACE_BOUND('',#963,.T.);
#1100=FACE_BOUND('',#964,.T.);
#1101=FACE_BOUND('',#965,.T.);
#1102=FACE_BOUND('',#966,.T.);
#1103=FACE_BOUND('',#967,.T.);
#1104=FACE_BOUND('',#968,.T.);
#1105=FACE_BOUND('',#969,.T.);
#1106=PLANE('',#1226);
#1107=PLANE('',#1227);
#1108=PLANE('',#1228);
#1109=PLANE('',#1229);
#1110=PLANE('',#1230);
#1111=PLANE('',#1231);
#1112=PLANE('',#1233);
#1113=PLANE('',#1234);
#1114=PLANE('',#1235);
#1115=PLANE('',#1236);
#1116=PLANE('',#1247);
#1117=PLANE('',#1262);
#1118=PLANE('',#1268);
#1119=PLANE('',#1274);
#1120=PLANE('',#1280);
#1121=PLANE('',#1282);
#1122=PLANE('',#1298);
#1123=PLANE('',#1299);
#1124=PLANE('',#1301);
#1125=PLANE('',#1307);
#1126=PLANE('',#1308);
#1127=PLANE('',#1309);
#1128=PLANE('',#1310);
#1129=PLANE('',#1311);
#1130=PLANE('',#1317);
#1131=PLANE('',#1318);
#1132=PLANE('',#1319);
#1133=PLANE('',#1322);
#1134=PLANE('',#1323);
#1135=PLANE('',#1324);
#1136=PLANE('',#1325);
#1137=PLANE('',#1326);
#1138=PLANE('',#1327);
#1139=PLANE('',#1328);
#1140=PLANE('',#1329);
#1141=PLANE('',#1330);
#1142=PLANE('',#1331);
#1143=PLANE('',#1345);
#1144=ADVANCED_FACE('',(#970),#1106,.T.);
#1145=ADVANCED_FACE('',(#971),#1107,.T.);
#1146=ADVANCED_FACE('',(#972),#1108,.T.);
#1147=ADVANCED_FACE('',(#973),#1109,.F.);
#1148=ADVANCED_FACE('',(#974),#1110,.T.);
#1149=ADVANCED_FACE('',(#975),#1111,.F.);
#1150=ADVANCED_FACE('',(#976),#1112,.F.);
#1151=ADVANCED_FACE('',(#977),#1113,.F.);
#1152=ADVANCED_FACE('',(#978),#1114,.T.);
#1153=ADVANCED_FACE('',(#979,#980,#981,#982,#983,#984,#985,#986,#987,#988,
#989),#1115,.F.);
#1154=ADVANCED_FACE('',(#990,#991,#992,#993,#994,#995,#996,#997,#998,#999,
#1000),#1116,.F.);
#1155=ADVANCED_FACE('',(#1001,#1002),#23,.T.);
#1156=ADVANCED_FACE('',(#1003,#1004),#24,.F.);
#1157=ADVANCED_FACE('',(#1005,#1006),#1117,.T.);
#1158=ADVANCED_FACE('',(#1007,#1008),#25,.T.);
#1159=ADVANCED_FACE('',(#1009,#1010),#26,.F.);
#1160=ADVANCED_FACE('',(#1011,#1012),#1118,.T.);
#1161=ADVANCED_FACE('',(#1013,#1014),#27,.T.);
#1162=ADVANCED_FACE('',(#1015,#1016),#28,.F.);
#1163=ADVANCED_FACE('',(#1017,#1018),#1119,.T.);
#1164=ADVANCED_FACE('',(#1019,#1020),#29,.T.);
#1165=ADVANCED_FACE('',(#1021,#1022),#30,.F.);
#1166=ADVANCED_FACE('',(#1023,#1024),#1120,.T.);
#1167=ADVANCED_FACE('',(#1025),#1121,.F.);
#1168=ADVANCED_FACE('',(#1026,#1027),#31,.F.);
#1169=ADVANCED_FACE('',(#1028,#1029),#32,.F.);
#1170=ADVANCED_FACE('',(#1030,#1031),#33,.F.);
#1171=ADVANCED_FACE('',(#1032,#1033),#12,.F.);
#1172=ADVANCED_FACE('',(#1034,#1035),#13,.F.);
#1173=ADVANCED_FACE('',(#1036,#1037),#14,.F.);
#1174=ADVANCED_FACE('',(#1038,#1039),#15,.T.);
#1175=ADVANCED_FACE('',(#1040,#1041),#16,.T.);
#1176=ADVANCED_FACE('',(#1042,#1043),#17,.T.);
#1177=ADVANCED_FACE('',(#1044,#1045),#18,.T.);
#1178=ADVANCED_FACE('',(#1046,#1047),#34,.F.);
#1179=ADVANCED_FACE('',(#1048,#1049),#35,.F.);
#1180=ADVANCED_FACE('',(#1050),#1122,.F.);
#1181=ADVANCED_FACE('',(#1051),#1123,.T.);
#1182=ADVANCED_FACE('',(#1052),#36,.F.);
#1183=ADVANCED_FACE('',(#1053,#1054,#1055,#1056,#1057,#1058),#1124,.F.);
#1184=ADVANCED_FACE('',(#1059),#1125,.F.);
#1185=ADVANCED_FACE('',(#1060),#1126,.T.);
#1186=ADVANCED_FACE('',(#1061),#1127,.F.);
#1187=ADVANCED_FACE('',(#1062),#1128,.F.);
#1188=ADVANCED_FACE('',(#1063,#1064,#1065,#1066,#1067,#1068),#1129,.T.);
#1189=ADVANCED_FACE('',(#1069),#1130,.F.);
#1190=ADVANCED_FACE('',(#1070),#1131,.F.);
#1191=ADVANCED_FACE('',(#1071),#1132,.T.);
#1192=ADVANCED_FACE('',(#1072),#37,.F.);
#1193=ADVANCED_FACE('',(#1073),#1133,.F.);
#1194=ADVANCED_FACE('',(#1074),#1134,.T.);
#1195=ADVANCED_FACE('',(#1075,#1076),#1135,.F.);
#1196=ADVANCED_FACE('',(#1077),#1136,.F.);
#1197=ADVANCED_FACE('',(#1078),#1137,.T.);
#1198=ADVANCED_FACE('',(#1079,#1080),#1138,.F.);
#1199=ADVANCED_FACE('',(#1081),#1139,.T.);
#1200=ADVANCED_FACE('',(#1082,#1083),#1140,.F.);
#1201=ADVANCED_FACE('',(#1084,#1085),#1141,.T.);
#1202=ADVANCED_FACE('',(#1086),#1142,.T.);
#1203=ADVANCED_FACE('',(#1087,#1088),#38,.F.);
#1204=ADVANCED_FACE('',(#1089,#1090),#39,.F.);
#1205=ADVANCED_FACE('',(#1091,#1092),#40,.F.);
#1206=ADVANCED_FACE('',(#1093,#1094),#41,.F.);
#1207=ADVANCED_FACE('',(#1095,#1096),#42,.F.);
#1208=ADVANCED_FACE('',(#1097,#1098),#19,.F.);
#1209=ADVANCED_FACE('',(#1099,#1100),#20,.F.);
#1210=ADVANCED_FACE('',(#1101,#1102),#21,.F.);
#1211=ADVANCED_FACE('',(#1103,#1104),#22,.F.);
#1212=ADVANCED_FACE('',(#1105),#1143,.T.);
#1213=CLOSED_SHELL('',(#1144,#1145,#1146,#1147,#1148,#1149,#1150,#1151,
#1152,#1153,#1154,#1155,#1156,#1157,#1158,#1159,#1160,#1161,#1162,#1163,
#1164,#1165,#1166,#1167,#1168,#1169,#1170,#1171,#1172,#1173,#1174,#1175,
#1176,#1177,#1178,#1179,#1180,#1181,#1182,#1183,#1184,#1185,#1186,#1187,
#1188,#1189,#1190,#1191,#1192,#1193,#1194,#1195,#1196,#1197,#1198,#1199,
#1200,#1201,#1202,#1203,#1204,#1205,#1206,#1207,#1208,#1209,#1210,#1211,
#1212));
#1214=STYLED_ITEM('',(#1215),#1222);
#1215=PRESENTATION_STYLE_ASSIGNMENT((#1216));
#1216=SURFACE_STYLE_USAGE(.BOTH.,#1217);
#1217=SURFACE_SIDE_STYLE('',(#1218));
#1218=SURFACE_STYLE_FILL_AREA(#1219);
#1219=FILL_AREA_STYLE('',(#1220));
#1220=FILL_AREA_STYLE_COLOUR('',#1221);
#1221=COLOUR_RGB('',0.615686274509804,0.811764705882353,0.929411764705882);
#1222=MANIFOLD_SOLID_BREP('BallScrewHolder-RR',#1213);
#1223=SHAPE_DEFINITION_REPRESENTATION(#2017,#1224);
#1224=SHAPE_REPRESENTATION('BallScrewHolder-RR',(#1225),#2012);
#1225=AXIS2_PLACEMENT_3D('',#1683,#1346,#1347);
#1226=AXIS2_PLACEMENT_3D('',#1684,#1348,#1349);
#1227=AXIS2_PLACEMENT_3D('',#1693,#1354,#1355);
#1228=AXIS2_PLACEMENT_3D('',#1702,#1360,#1361);
#1229=AXIS2_PLACEMENT_3D('',#1708,#1365,#1366);
#1230=AXIS2_PLACEMENT_3D('',#1711,#1369,#1370);
#1231=AXIS2_PLACEMENT_3D('',#1720,#1375,#1376);
#1232=AXIS2_PLACEMENT_3D('',#1726,#1379,#1380);
#1233=AXIS2_PLACEMENT_3D('',#1737,#1386,#1387);
#1234=AXIS2_PLACEMENT_3D('',#1747,#1394,#1395);
#1235=AXIS2_PLACEMENT_3D('',#1756,#1400,#1401);
#1236=AXIS2_PLACEMENT_3D('',#1762,#1405,#1406);
#1237=AXIS2_PLACEMENT_3D('',#1765,#1408,#1409);
#1238=AXIS2_PLACEMENT_3D('',#1766,#1410,#1411);
#1239=AXIS2_PLACEMENT_3D('',#1768,#1412,#1413);
#1240=AXIS2_PLACEMENT_3D('',#1770,#1414,#1415);
#1241=AXIS2_PLACEMENT_3D('',#1772,#1416,#1417);
#1242=AXIS2_PLACEMENT_3D('',#1774,#1418,#1419);
#1243=AXIS2_PLACEMENT_3D('',#1776,#1420,#1421);
#1244=AXIS2_PLACEMENT_3D('',#1778,#1422,#1423);
#1245=AXIS2_PLACEMENT_3D('',#1780,#1424,#1425);
#1246=AXIS2_PLACEMENT_3D('',#1791,#1431,#1432);
#1247=AXIS2_PLACEMENT_3D('',#1793,#1433,#1434);
#1248=AXIS2_PLACEMENT_3D('',#1807,#1442,#1443);
#1249=AXIS2_PLACEMENT_3D('',#1809,#1444,#1445);
#1250=AXIS2_PLACEMENT_3D('',#1811,#1446,#1447);
#1251=AXIS2_PLACEMENT_3D('',#1813,#1448,#1449);
#1252=AXIS2_PLACEMENT_3D('',#1815,#1450,#1451);
#1253=AXIS2_PLACEMENT_3D('',#1817,#1452,#1453);
#1254=AXIS2_PLACEMENT_3D('',#1819,#1454,#1455);
#1255=AXIS2_PLACEMENT_3D('',#1821,#1456,#1457);
#1256=AXIS2_PLACEMENT_3D('',#1823,#1458,#1459);
#1257=AXIS2_PLACEMENT_3D('',#1826,#1461,#1462);
#1258=AXIS2_PLACEMENT_3D('',#1828,#1463,#1464);
#1259=AXIS2_PLACEMENT_3D('',#1829,#1465,#1466);
#1260=AXIS2_PLACEMENT_3D('',#1831,#1467,#1468);
#1261=AXIS2_PLACEMENT_3D('',#1832,#1469,#1470);
#1262=AXIS2_PLACEMENT_3D('',#1834,#1471,#1472);
#1263=AXIS2_PLACEMENT_3D('',#1835,#1473,#1474);
#1264=AXIS2_PLACEMENT_3D('',#1837,#1475,#1476);
#1265=AXIS2_PLACEMENT_3D('',#1838,#1477,#1478);
#1266=AXIS2_PLACEMENT_3D('',#1840,#1479,#1480);
#1267=AXIS2_PLACEMENT_3D('',#1841,#1481,#1482);
#1268=AXIS2_PLACEMENT_3D('',#1843,#1483,#1484);
#1269=AXIS2_PLACEMENT_3D('',#1844,#1485,#1486);
#1270=AXIS2_PLACEMENT_3D('',#1846,#1487,#1488);
#1271=AXIS2_PLACEMENT_3D('',#1847,#1489,#1490);
#1272=AXIS2_PLACEMENT_3D('',#1849,#1491,#1492);
#1273=AXIS2_PLACEMENT_3D('',#1850,#1493,#1494);
#1274=AXIS2_PLACEMENT_3D('',#1852,#1495,#1496);
#1275=AXIS2_PLACEMENT_3D('',#1853,#1497,#1498);
#1276=AXIS2_PLACEMENT_3D('',#1855,#1499,#1500);
#1277=AXIS2_PLACEMENT_3D('',#1856,#1501,#1502);
#1278=AXIS2_PLACEMENT_3D('',#1858,#1503,#1504);
#1279=AXIS2_PLACEMENT_3D('',#1859,#1505,#1506);
#1280=AXIS2_PLACEMENT_3D('',#1861,#1507,#1508);
#1281=AXIS2_PLACEMENT_3D('',#1862,#1509,#1510);
#1282=AXIS2_PLACEMENT_3D('',#1864,#1511,#1512);
#1283=AXIS2_PLACEMENT_3D('',#1867,#1515,#1516);
#1284=AXIS2_PLACEMENT_3D('',#1868,#1517,#1518);
#1285=AXIS2_PLACEMENT_3D('',#1870,#1519,#1520);
#1286=AXIS2_PLACEMENT_3D('',#1871,#1521,#1522);
#1287=AXIS2_PLACEMENT_3D('',#1873,#1523,#1524);
#1288=AXIS2_PLACEMENT_3D('',#1874,#1525,#1526);
#1289=AXIS2_PLACEMENT_3D('',#1876,#1527,#1528);
#1290=AXIS2_PLACEMENT_3D('',#1877,#1529,#1530);
#1291=AXIS2_PLACEMENT_3D('',#1878,#1531,#1532);
#1292=AXIS2_PLACEMENT_3D('',#1879,#1533,#1534);
#1293=AXIS2_PLACEMENT_3D('',#1880,#1535,#1536);
#1294=AXIS2_PLACEMENT_3D('',#1881,#1537,#1538);
#1295=AXIS2_PLACEMENT_3D('',#1882,#1539,#1540);
#1296=AXIS2_PLACEMENT_3D('',#1883,#1541,#1542);
#1297=AXIS2_PLACEMENT_3D('',#1884,#1543,#1544);
#1298=AXIS2_PLACEMENT_3D('',#1885,#1545,#1546);
#1299=AXIS2_PLACEMENT_3D('',#1887,#1548,#1549);
#1300=AXIS2_PLACEMENT_3D('',#1889,#1551,#1552);
#1301=AXIS2_PLACEMENT_3D('',#1890,#1553,#1554);
#1302=AXIS2_PLACEMENT_3D('',#1891,#1555,#1556);
#1303=AXIS2_PLACEMENT_3D('',#1893,#1557,#1558);
#1304=AXIS2_PLACEMENT_3D('',#1895,#1559,#1560);
#1305=AXIS2_PLACEMENT_3D('',#1897,#1561,#1562);
#1306=AXIS2_PLACEMENT_3D('',#1899,#1563,#1564);
#1307=AXIS2_PLACEMENT_3D('',#1913,#1571,#1572);
#1308=AXIS2_PLACEMENT_3D('',#1922,#1577,#1578);
#1309=AXIS2_PLACEMENT_3D('',#1925,#1581,#1582);
#1310=AXIS2_PLACEMENT_3D('',#1928,#1585,#1586);
#1311=AXIS2_PLACEMENT_3D('',#1933,#1590,#1591);
#1312=AXIS2_PLACEMENT_3D('',#1934,#1592,#1593);
#1313=AXIS2_PLACEMENT_3D('',#1936,#1594,#1595);
#1314=AXIS2_PLACEMENT_3D('',#1938,#1596,#1597);
#1315=AXIS2_PLACEMENT_3D('',#1940,#1598,#1599);
#1316=AXIS2_PLACEMENT_3D('',#1942,#1600,#1601);
#1317=AXIS2_PLACEMENT_3D('',#1952,#1607,#1608);
#1318=AXIS2_PLACEMENT_3D('',#1961,#1613,#1614);
#1319=AXIS2_PLACEMENT_3D('',#1967,#1618,#1619);
#1320=AXIS2_PLACEMENT_3D('',#1970,#1622,#1623);
#1321=AXIS2_PLACEMENT_3D('',#1973,#1625,#1626);
#1322=AXIS2_PLACEMENT_3D('',#1974,#1627,#1628);
#1323=AXIS2_PLACEMENT_3D('',#1976,#1630,#1631);
#1324=AXIS2_PLACEMENT_3D('',#1978,#1633,#1634);
#1325=AXIS2_PLACEMENT_3D('',#1979,#1635,#1636);
#1326=AXIS2_PLACEMENT_3D('',#1983,#1639,#1640);
#1327=AXIS2_PLACEMENT_3D('',#1985,#1642,#1643);
#1328=AXIS2_PLACEMENT_3D('',#1986,#1644,#1645);
#1329=AXIS2_PLACEMENT_3D('',#1988,#1647,#1648);
#1330=AXIS2_PLACEMENT_3D('',#1990,#1650,#1651);
#1331=AXIS2_PLACEMENT_3D('',#1992,#1653,#1654);
#1332=AXIS2_PLACEMENT_3D('',#1993,#1655,#1656);
#1333=AXIS2_PLACEMENT_3D('',#1994,#1657,#1658);
#1334=AXIS2_PLACEMENT_3D('',#1996,#1659,#1660);
#1335=AXIS2_PLACEMENT_3D('',#1997,#1661,#1662);
#1336=AXIS2_PLACEMENT_3D('',#1999,#1663,#1664);
#1337=AXIS2_PLACEMENT_3D('',#2000,#1665,#1666);
#1338=AXIS2_PLACEMENT_3D('',#2002,#1667,#1668);
#1339=AXIS2_PLACEMENT_3D('',#2003,#1669,#1670);
#1340=AXIS2_PLACEMENT_3D('',#2005,#1671,#1672);
#1341=AXIS2_PLACEMENT_3D('',#2006,#1673,#1674);
#1342=AXIS2_PLACEMENT_3D('',#2007,#1675,#1676);
#1343=AXIS2_PLACEMENT_3D('',#2008,#1677,#1678);
#1344=AXIS2_PLACEMENT_3D('',#2009,#1679,#1680);
#1345=AXIS2_PLACEMENT_3D('',#2010,#1681,#1682);
#1346=DIRECTION('',(0.,0.,1.));
#1347=DIRECTION('',(1.,0.,0.));
#1348=DIRECTION('',(-0.766044443118978,0.642787609686539,8.46607244708055E-15));
#1349=DIRECTION('',(0.642787609686539,0.766044443118978,0.));
#1350=DIRECTION('',(0.642787609686539,0.766044443118978,1.00894722539711E-14));
#1351=DIRECTION('',(1.10516726844341E-14,-5.45887731061607E-31,1.));
#1352=DIRECTION('',(0.642787609686539,0.766044443118978,1.00894722539711E-14));
#1353=DIRECTION('',(2.57655601144576E-33,1.31708706258496E-14,-1.));
#1354=DIRECTION('',(-1.,3.3935726340698E-47,-2.57655601144576E-33));
#1355=DIRECTION('',(-2.57655601144576E-33,0.,1.));
#1356=DIRECTION('',(2.57655601144576E-33,1.31708706258496E-14,-1.));
#1357=DIRECTION('',(2.40453690699005E-52,1.,1.31708706258496E-14));
#1358=DIRECTION('',(2.57655601144576E-33,1.31708706258496E-14,-1.));
#1359=DIRECTION('',(2.40453690699005E-52,1.,1.31708706258496E-14));
#1360=DIRECTION('',(-6.3303784971732E-63,1.,1.31708706258496E-14));
#1361=DIRECTION('',(0.,-1.31708706258496E-14,1.));
#1362=DIRECTION('',(2.57655601144576E-33,1.31708706258496E-14,-1.));
#1363=DIRECTION('',(1.,-3.39354858870073E-47,2.57655601144576E-33));
#1364=DIRECTION('',(1.,-3.39354858870073E-47,2.57655601144576E-33));
#1365=DIRECTION('',(-0.766044443118978,0.642787609686539,8.46607244708055E-15));
#1366=DIRECTION('',(0.642787609686539,0.766044443118978,0.));
#1367=DIRECTION('',(0.642787609686539,0.766044443118978,1.00894722539711E-14));
#1368=DIRECTION('',(0.642787609686539,0.766044443118978,1.00894722539711E-14));
#1369=DIRECTION('',(1.,-1.95625337505868E-19,-1.69522400477171E-16));
#1370=DIRECTION('',(-1.69522400477171E-16,0.,-1.));
#1371=DIRECTION('',(-1.95625337508101E-19,-1.,-1.31708706258496E-14));
#1372=DIRECTION('',(-1.69522400477171E-16,1.25049970482239E-14,-1.));
#1373=DIRECTION('',(-1.95625337508101E-19,-1.,-1.31708706258497E-14));
#1374=DIRECTION('',(1.69522400477171E-16,-1.31708706258496E-14,1.));
#1375=DIRECTION('',(0.766044443118978,-0.642787609686539,-8.46607244708056E-15));
#1376=DIRECTION('',(-0.642787609686539,-0.766044443118978,0.));
#1377=DIRECTION('',(0.642787609686539,0.766044443118978,1.00894722539711E-14));
#1378=DIRECTION('',(2.57655601144576E-33,1.31708706258496E-14,-1.));
#1379=DIRECTION('',(0.766044443118978,-0.642787609686539,-8.46607244708056E-15));
#1380=DIRECTION('',(0.642787609686539,0.766044443118978,1.00894722539711E-14));
#1381=DIRECTION('',(2.57655601144576E-33,1.31708706258496E-14,-1.));
#1382=DIRECTION('',(0.642787609686539,0.766044443118978,1.00894722539711E-14));
#1383=DIRECTION('',(2.57655601144576E-33,1.31708706258496E-14,-1.));
#1384=DIRECTION('',(0.642787609686539,0.766044443118978,1.00894722539711E-14));
#1385=DIRECTION('',(-2.57655601144576E-33,-1.31708706258496E-14,1.));
#1386=DIRECTION('',(1.,-1.95625337508101E-19,-2.57655601145736E-33));
#1387=DIRECTION('',(-1.95625337508101E-19,-1.,0.));
#1388=DIRECTION('',(1.51158027170865E-49,1.,1.31708706258496E-14));
#1389=DIRECTION('',(2.57655601145736E-33,-5.04039639349872E-52,1.));
#1390=DIRECTION('',(1.51158027170865E-49,1.,1.31708706258496E-14));
#1391=DIRECTION('',(1.95625337508101E-19,1.,1.31708706258496E-14));
#1392=DIRECTION('',(1.69522400477171E-16,-1.31708706258496E-14,1.));
#1393=DIRECTION('',(1.95625337508101E-19,1.,1.31708706258496E-14));
#1394=DIRECTION('',(2.57655601150073E-33,1.31708706258496E-14,-1.));
#1395=DIRECTION('',(0.,1.,1.31708706258496E-14));
#1396=DIRECTION('',(-1.04996817769229E-11,1.,1.25049970482257E-14));
#1397=DIRECTION('',(1.,-1.95625337508101E-19,4.33666454503762E-44));
#1398=DIRECTION('',(-1.95625337508101E-19,-1.,-1.31708706258496E-14));
#1399=DIRECTION('',(-1.,-1.04996817769229E-11,-1.38289952872999E-25));
#1400=DIRECTION('',(-1.,1.95625337508101E-19,2.57655601145736E-33));
#1401=DIRECTION('',(1.95625337508101E-19,1.,0.));
#1402=DIRECTION('',(0.,1.31708706258496E-14,-1.));
#1403=DIRECTION('',(1.95625337508101E-19,1.,4.25409876830241E-11));
#1404=DIRECTION('',(1.30261743360419E-34,-1.25049970482257E-14,1.));
#1405=DIRECTION('',(1.95625337508101E-19,1.,1.31708706258496E-14));
#1406=DIRECTION('',(1.,-1.95625337508101E-19,-2.57655601145736E-33));
#1407=DIRECTION('',(-0.239689085120755,1.27869827019517E-14,-0.970849701279233));
#1408=DIRECTION('',(1.95625337508101E-19,1.,1.31708706258496E-14));
#1409=DIRECTION('',(0.,-1.31708706258496E-14,1.));
#1410=DIRECTION('',(-1.95625337508101E-19,-1.,-1.31708706258496E-14));
#1411=DIRECTION('',(0.,1.31708706258496E-14,-1.));
#1412=DIRECTION('',(1.95625337508101E-19,1.,1.31708706258496E-14));
#1413=DIRECTION('',(0.,-1.31708706258496E-14,1.));
#1414=DIRECTION('',(1.95625337508101E-19,1.,1.31708706258496E-14));
#1415=DIRECTION('',(0.,-1.31708706258496E-14,1.));
#1416=DIRECTION('',(1.95625337508101E-19,1.,1.31708706258496E-14));
#1417=DIRECTION('',(0.,-1.31708706258496E-14,1.));
#1418=DIRECTION('',(0.,1.,0.));
#1419=DIRECTION('',(1.,0.,0.));
#1420=DIRECTION('',(0.,1.,0.));
#1421=DIRECTION('',(1.,0.,0.));
#1422=DIRECTION('',(0.,1.,0.));
#1423=DIRECTION('',(1.,0.,0.));
#1424=DIRECTION('',(0.,1.,0.));
#1425=DIRECTION('',(1.,0.,0.));
#1426=DIRECTION('',(-3.08642361661612E-49,-1.31708706258496E-14,1.));
#1427=DIRECTION('',(1.,-1.95625337508101E-19,2.1735006304982E-44));
#1428=DIRECTION('',(1.,-1.95625337508101E-19,-1.16043905110249E-44));
#1429=DIRECTION('',(2.57655601144576E-33,1.31708706258496E-14,-1.));
#1430=DIRECTION('',(-0.239689085120755,1.27869827019517E-14,-0.970849701279233));
#1431=DIRECTION('',(1.95625337508101E-19,1.,1.31708706258496E-14));
#1432=DIRECTION('',(0.,1.31708706258496E-14,-1.));
#1433=DIRECTION('',(1.0499681776923E-11,-1.,-1.25049970482257E-14));
#1434=DIRECTION('',(1.83880688509885E-16,-8.29031844795177E-15,1.));
#1435=DIRECTION('',(-1.,-1.04996817769229E-11,-1.38289952872999E-25));
#1436=DIRECTION('',(-1.30261743360419E-34,1.25049970482257E-14,-1.));
#1437=DIRECTION('',(0.239689085120755,2.50451864652096E-12,0.970849701279233));
#1438=DIRECTION('',(2.57655601144576E-33,1.31708706258496E-14,-1.));
#1439=DIRECTION('',(-1.,-1.04996817769229E-11,-1.38289952872999E-25));
#1440=DIRECTION('',(4.96351177141605E-16,1.25049970482309E-14,-1.));
#1441=DIRECTION('',(-1.,-1.04996817769229E-11,-1.38289952872999E-25));
#1442=DIRECTION('',(1.0499681776923E-11,-1.,-1.25049970482257E-14));
#1443=DIRECTION('',(-1.,-1.04996817769229E-11,0.));
#1444=DIRECTION('',(1.0499681776923E-11,-1.,-1.25049970482257E-14));
#1445=DIRECTION('',(-1.,-1.04996817769229E-11,0.));
#1446=DIRECTION('',(1.0499681776923E-11,-1.,-1.25049970482257E-14));
#1447=DIRECTION('',(-1.,-1.04996817769229E-11,0.));
#1448=DIRECTION('',(1.0499681776923E-11,-1.,-1.25049970482257E-14));
#1449=DIRECTION('',(-1.,-1.04996817769229E-11,0.));
#1450=DIRECTION('',(1.0499681776923E-11,-1.,-1.25049970482257E-14));
#1451=DIRECTION('',(-1.,-1.04996817769229E-11,0.));
#1452=DIRECTION('',(1.0499681776923E-11,-1.,-1.25049970482257E-14));
#1453=DIRECTION('',(-1.,-1.04996817769229E-11,0.));
#1454=DIRECTION('',(1.0499681776923E-11,-1.,-1.25049970482257E-14));
#1455=DIRECTION('',(-1.,-1.04996817769229E-11,0.));
#1456=DIRECTION('',(1.0499681776923E-11,-1.,-1.25049970482257E-14));
#1457=DIRECTION('',(-1.,-1.04996817769229E-11,0.));
#1458=DIRECTION('',(1.0499681776923E-11,-1.,-1.25049970482257E-14));
#1459=DIRECTION('',(-1.,-1.04996817769229E-11,0.));
#1460=DIRECTION('',(0.239689085120755,2.50451864652096E-12,0.970849701279233));
#1461=DIRECTION('',(1.0499681776923E-11,-1.,-1.25049970482257E-14));
#1462=DIRECTION('',(-1.,-1.04996817769229E-11,0.));
#1463=DIRECTION('',(0.,1.,0.));
#1464=DIRECTION('',(1.,0.,0.));
#1465=DIRECTION('',(0.,-1.,0.));
#1466=DIRECTION('',(-1.,0.,0.));
#1467=DIRECTION('',(0.,1.,0.));
#1468=DIRECTION('',(1.,0.,0.));
#1469=DIRECTION('',(-1.95625337508102E-19,-1.,-1.31708706258497E-14));
#1470=DIRECTION('',(0.,1.31708706258496E-14,-1.));
#1471=DIRECTION('',(-1.95625337508102E-19,-1.,-1.31708706258497E-14));
#1472=DIRECTION('',(-1.83880687963254E-16,8.95619202543119E-15,-1.));
#1473=DIRECTION('',(-1.95625337508102E-19,-1.,-1.31708706258497E-14));
#1474=DIRECTION('',(0.,1.31708706258496E-14,-1.));
#1475=DIRECTION('',(0.,1.,0.));
#1476=DIRECTION('',(1.,0.,0.));
#1477=DIRECTION('',(0.,-1.,0.));
#1478=DIRECTION('',(-1.,0.,0.));
#1479=DIRECTION('',(0.,1.,0.));
#1480=DIRECTION('',(1.,0.,0.));
#1481=DIRECTION('',(-1.95625337508102E-19,-1.,-1.31708706258497E-14));
#1482=DIRECTION('',(0.,1.31708706258496E-14,-1.));
#1483=DIRECTION('',(-1.95625337508102E-19,-1.,-1.31708706258497E-14));
#1484=DIRECTION('',(-1.83880687963254E-16,8.95619202543119E-15,-1.));
#1485=DIRECTION('',(-1.95625337508102E-19,-1.,-1.31708706258497E-14));
#1486=DIRECTION('',(0.,1.31708706258496E-14,-1.));
#1487=DIRECTION('',(0.,1.,0.));
#1488=DIRECTION('',(1.,0.,0.));
#1489=DIRECTION('',(0.,-1.,0.));
#1490=DIRECTION('',(-1.,0.,0.));
#1491=DIRECTION('',(0.,1.,0.));
#1492=DIRECTION('',(1.,0.,0.));
#1493=DIRECTION('',(-1.95625337508102E-19,-1.,-1.31708706258497E-14));
#1494=DIRECTION('',(0.,1.31708706258496E-14,-1.));
#1495=DIRECTION('',(-1.95625337508102E-19,-1.,-1.31708706258497E-14));
#1496=DIRECTION('',(-1.83880687963254E-16,8.95619202543119E-15,-1.));
#1497=DIRECTION('',(-1.95625337508102E-19,-1.,-1.31708706258497E-14));
#1498=DIRECTION('',(0.,1.31708706258496E-14,-1.));
#1499=DIRECTION('',(0.,1.,0.));
#1500=DIRECTION('',(1.,0.,0.));
#1501=DIRECTION('',(0.,-1.,0.));
#1502=DIRECTION('',(-1.,0.,0.));
#1503=DIRECTION('',(0.,1.,0.));
#1504=DIRECTION('',(1.,0.,0.));
#1505=DIRECTION('',(-1.95625337508102E-19,-1.,-1.31708706258497E-14));
#1506=DIRECTION('',(0.,1.31708706258496E-14,-1.));
#1507=DIRECTION('',(-1.95625337508102E-19,-1.,-1.31708706258497E-14));
#1508=DIRECTION('',(-1.83880687963254E-16,8.95619202543119E-15,-1.));
#1509=DIRECTION('',(-1.95625337508102E-19,-1.,-1.31708706258497E-14));
#1510=DIRECTION('',(0.,1.31708706258496E-14,-1.));
#1511=DIRECTION('',(1.,-1.95625337508101E-19,-2.57655601145736E-33));
#1512=DIRECTION('',(-1.95625337508101E-19,-1.,0.));
#1513=DIRECTION('',(-1.95625337508101E-19,-1.,-1.31708706258496E-14));
#1514=DIRECTION('',(-1.95625337508101E-19,-1.,-1.31708706258496E-14));
#1515=DIRECTION('',(-1.95625337508101E-19,-1.,-1.31708706258496E-14));
#1516=DIRECTION('',(0.,1.31708706258496E-14,-1.));
#1517=DIRECTION('',(0.,1.,8.67361737988499E-15));
#1518=DIRECTION('',(0.,-8.67361737988499E-15,1.));
#1519=DIRECTION('',(-1.95625337508101E-19,-1.,-1.31708706258496E-14));
#1520=DIRECTION('',(0.,1.31708706258496E-14,-1.));
#1521=DIRECTION('',(0.,1.,0.));
#1522=DIRECTION('',(1.,0.,0.));
#1523=DIRECTION('',(-1.95625337508101E-19,-1.,-1.31708706258496E-14));
#1524=DIRECTION('',(0.,1.31708706258496E-14,-1.));
#1525=DIRECTION('',(0.,1.,0.));
#1526=DIRECTION('',(1.,0.,0.));
#1527=DIRECTION('',(0.,-1.,-8.67361737988499E-15));
#1528=DIRECTION('',(0.,8.67361737988499E-15,-1.));
#1529=DIRECTION('',(0.,-1.,0.));
#1530=DIRECTION('',(-1.,0.,0.));
#1531=DIRECTION('',(0.,-1.,0.));
#1532=DIRECTION('',(-1.,0.,0.));
#1533=DIRECTION('',(0.,1.,0.));
#1534=DIRECTION('',(1.,0.,0.));
#1535=DIRECTION('',(0.,1.,0.));
#1536=DIRECTION('',(1.,0.,0.));
#1537=DIRECTION('',(0.,1.,0.));
#1538=DIRECTION('',(1.,0.,0.));
#1539=DIRECTION('',(0.,1.,0.));
#1540=DIRECTION('',(1.,0.,0.));
#1541=DIRECTION('',(-1.95625337508101E-19,-1.,-1.31708706258496E-14));
#1542=DIRECTION('',(0.,1.31708706258496E-14,-1.));
#1543=DIRECTION('',(-1.95625337508101E-19,-1.,-1.31708706258496E-14));
#1544=DIRECTION('',(0.,1.31708706258496E-14,-1.));
#1545=DIRECTION('',(-0.970849701279233,-1.01966102279546E-11,0.239689085120755));
#1546=DIRECTION('',(0.239689085120755,0.,0.970849701279233));
#1547=DIRECTION('',(1.95625337508106E-19,1.,4.25409876830241E-11));
#1548=DIRECTION('',(-0.970849701279233,-1.01966102279546E-11,0.239689085120755));
#1549=DIRECTION('',(0.239689085120755,0.,0.970849701279233));
#1550=DIRECTION('',(-1.04996817769229E-11,1.,1.25049970482257E-14));
#1551=DIRECTION('',(1.95625339144066E-19,1.,4.25409876830241E-11));
#1552=DIRECTION('',(0.,-4.25409876830241E-11,1.));
#1553=DIRECTION('',(-1.04437265364809E-11,1.,-4.34537128398523E-14));
#1554=DIRECTION('',(0.0115304418353173,1.63760712660139E-13,0.999933522245896));
#1555=DIRECTION('',(-1.04437265364809E-11,1.,-4.34537128398523E-14));
#1556=DIRECTION('',(1.,1.04437265364809E-11,0.));
#1557=DIRECTION('',(-1.04437265364809E-11,1.,-4.34537128398523E-14));
#1558=DIRECTION('',(1.,1.04437265364809E-11,0.));
#1559=DIRECTION('',(-1.04437265364809E-11,1.,-4.34537128398523E-14));
#1560=DIRECTION('',(1.,1.04437265364809E-11,0.));
#1561=DIRECTION('',(-1.04437265364809E-11,1.,-4.34537128398523E-14));
#1562=DIRECTION('',(1.,1.04437265364809E-11,0.));
#1563=DIRECTION('',(-1.04437265364809E-11,1.,-4.34537128398523E-14));
#1564=DIRECTION('',(1.,1.04437265364809E-11,0.));
#1565=DIRECTION('',(1.10772031858244E-32,4.34537128398523E-14,1.));
#1566=DIRECTION('',(-1.,-1.04437265364809E-11,-1.37552973640299E-25));
#1567=DIRECTION('',(2.57655601144576E-33,1.31708706258496E-14,-1.));
#1568=DIRECTION('',(-0.0115304418353173,2.25564657565148E-21,-0.999933522245895));
#1569=DIRECTION('',(-2.57655601133275E-33,-1.31708706258497E-14,1.));
#1570=DIRECTION('',(-1.,-1.04437265364809E-11,-1.37552973640299E-25));
#1571=DIRECTION('',(-1.95625337508101E-19,-1.,-1.31708706258496E-14));
#1572=DIRECTION('',(1.,-1.95625337508101E-19,-2.57655601145736E-33));
#1573=DIRECTION('',(0.,1.31708706258496E-14,-1.));
#1574=DIRECTION('',(1.,-1.95625337508101E-19,-1.24611964577676E-43));
#1575=DIRECTION('',(1.69522400477171E-16,-1.31708706258496E-14,1.));
#1576=DIRECTION('',(1.,-1.95625337508101E-19,-1.63827435631354E-44));
#1577=DIRECTION('',(1.,-1.95625337508101E-19,-2.57655601145736E-33));
#1578=DIRECTION('',(-1.95625337508101E-19,-1.,0.));
#1579=DIRECTION('',(1.95625337508101E-19,1.,1.31708706258496E-14));
#1580=DIRECTION('',(1.95625337508101E-19,1.,1.31708706258496E-14));
#1581=DIRECTION('',(-0.707106781186549,-0.707106781186547,-9.19334149472855E-15));
#1582=DIRECTION('',(-1.69522400477171E-16,1.31708706258496E-14,-1.));
#1583=DIRECTION('',(-0.707106781186547,0.707106781186549,9.31321193366901E-15));
#1584=DIRECTION('',(0.707106781186546,-0.707106781186549,-9.31321193366901E-15));
#1585=DIRECTION('',(0.999933522245895,1.04425078756801E-11,-0.0115304418353173));
#1586=DIRECTION('',(-1.04437265364809E-11,1.,-4.34537128398523E-14));
#1587=DIRECTION('',(1.04432049739393E-11,-1.,2.47817639425259E-16));
#1588=DIRECTION('',(1.04432021163024E-11,-1.,-2.69074951916233E-44));
#1589=DIRECTION('',(-0.0115304418353173,2.25564657565148E-21,-0.999933522245895));
#1590=DIRECTION('',(1.95625337508101E-19,1.,0.));
#1591=DIRECTION('',(1.,-1.95625337508101E-19,0.));
#1592=DIRECTION('',(1.95625337508101E-19,1.,0.));
#1593=DIRECTION('',(1.,-1.95625337508101E-19,0.));
#1594=DIRECTION('',(1.95625337508101E-19,1.,0.));
#1595=DIRECTION('',(1.,-1.95625337508101E-19,0.));
#1596=DIRECTION('',(1.95625337508101E-19,1.,0.));
#1597=DIRECTION('',(1.,-1.95625337508101E-19,0.));
#1598=DIRECTION('',(1.95625337508101E-19,1.,0.));
#1599=DIRECTION('',(1.,-1.95625337508101E-19,0.));
#1600=DIRECTION('',(1.95625337508101E-19,1.,0.));
#1601=DIRECTION('',(1.,-1.95625337508101E-19,0.));
#1602=DIRECTION('',(1.,-3.39354858870073E-47,2.57655601144576E-33));
#1603=DIRECTION('',(-1.10516726844341E-14,2.16198719892148E-33,-1.));
#1604=DIRECTION('',(1.,-1.95625337508101E-19,-2.57655601145736E-33));
#1605=DIRECTION('',(-2.57655601133275E-33,-1.31708706258497E-14,1.));
#1606=DIRECTION('',(1.,-3.39354858870073E-47,2.57655601144576E-33));
#1607=DIRECTION('',(1.,-3.3935726340698E-47,2.57655601144576E-33));
#1608=DIRECTION('',(2.57655601144576E-33,0.,-1.));
#1609=DIRECTION('',(-2.57655601144576E-33,-1.31708706258496E-14,1.));
#1610=DIRECTION('',(2.40453690699005E-52,1.,1.31708706258496E-14));
#1611=DIRECTION('',(-2.57655601144576E-33,-1.31708706258496E-14,1.));
#1612=DIRECTION('',(2.40453690699005E-52,1.,1.31708706258496E-14));
#1613=DIRECTION('',(3.79822709830392E-63,-1.,-1.31708706258496E-14));
#1614=DIRECTION('',(0.,1.31708706258496E-14,-1.));
#1615=DIRECTION('',(1.,-3.39354858870073E-47,2.57655601144576E-33));
#1616=DIRECTION('',(-2.57655601144576E-33,-1.31708706258496E-14,1.));
#1617=DIRECTION('',(1.,-3.39354858870073E-47,2.57655601144576E-33));
#1618=DIRECTION('',(0.766044443118978,-0.642787609686539,-8.46607244708055E-15));
#1619=DIRECTION('',(-0.642787609686539,-0.766044443118978,0.));
#1620=DIRECTION('',(0.642787609686539,0.766044443118978,1.00894722539711E-14));
#1621=DIRECTION('',(0.642787609686539,0.766044443118978,1.00894722539711E-14));
#1622=DIRECTION('',(1.95625337508101E-19,1.,1.31708706258496E-14));
#1623=DIRECTION('',(0.,-1.31708706258496E-14,1.));
#1624=DIRECTION('',(1.95625337508101E-19,1.,1.31708706258496E-14));
#1625=DIRECTION('',(-1.95625337508101E-19,-1.,-1.31708706258496E-14));
#1626=DIRECTION('',(0.,1.31708706258496E-14,-1.));
#1627=DIRECTION('',(1.,1.04432021163024E-11,1.37546066569975E-25));
#1628=DIRECTION('',(1.04432021163024E-11,-1.,0.));
#1629=DIRECTION('',(1.04432021163024E-11,-1.,-2.69074951916233E-44));
#1630=DIRECTION('',(-1.,-1.04996817769229E-11,-1.38289952872999E-25));
#1631=DIRECTION('',(-1.04996817769229E-11,1.,0.));
#1632=DIRECTION('',(-1.04996817769229E-11,1.,1.25049970482257E-14));
#1633=DIRECTION('',(2.57655601144576E-33,1.31708706258496E-14,-1.));
#1634=DIRECTION('',(0.,1.,1.31708706258496E-14));
#1635=DIRECTION('',(1.95625337508101E-19,1.,1.31708706258496E-14));
#1636=DIRECTION('',(0.,-1.31708706258496E-14,1.));
#1637=DIRECTION('',(2.57655601144576E-33,1.31708706258496E-14,-1.));
#1638=DIRECTION('',(1.,-1.95625337508101E-19,-1.1604160793807E-44));
#1639=DIRECTION('',(1.,-1.95625337508101E-19,-1.16046098182783E-44));
#1640=DIRECTION('',(-1.95625337508101E-19,-1.,0.));
#1641=DIRECTION('',(1.95625337508101E-19,1.,1.31708706258496E-14));
#1642=DIRECTION('',(-2.57655601144576E-33,-1.31708706258496E-14,1.));
#1643=DIRECTION('',(1.,-3.39354858870073E-47,2.57655601144576E-33));
#1644=DIRECTION('',(-1.,-1.04432049739393E-11,-1.3754610420754E-25));
#1645=DIRECTION('',(-1.04432049739393E-11,1.,0.));
#1646=DIRECTION('',(1.04432049739393E-11,-1.,2.47817639425259E-16));
#1647=DIRECTION('',(-2.57655601133275E-33,-1.31708706258496E-14,1.));
#1648=DIRECTION('',(0.,-1.,-1.31708706258497E-14));
#1649=DIRECTION('',(-0.707106781185645,-0.70710678118745,-9.31321193368089E-15));
#1650=DIRECTION('',(-2.57655601144576E-33,-1.31708706258496E-14,1.));
#1651=DIRECTION('',(1.,-3.39354858870073E-47,2.57655601144576E-33));
#1652=DIRECTION('',(0.707106781185645,0.70710678118745,9.31321193368089E-15));
#1653=DIRECTION('',(-0.70710678118745,0.707106781185645,7.81471269862748E-15));
#1654=DIRECTION('',(1.10516726844341E-14,-1.26870616807671E-33,1.));
#1655=DIRECTION('',(1.95625337508101E-19,1.,0.));
#1656=DIRECTION('',(1.,-1.95625337508101E-19,0.));
#1657=DIRECTION('',(0.,1.,0.));
#1658=DIRECTION('',(1.,0.,0.));
#1659=DIRECTION('',(1.95625337508101E-19,1.,0.));
#1660=DIRECTION('',(1.,-1.95625337508101E-19,0.));
#1661=DIRECTION('',(0.,1.,0.));
#1662=DIRECTION('',(1.,0.,0.));
#1663=DIRECTION('',(1.95625337508101E-19,1.,0.));
#1664=DIRECTION('',(1.,-1.95625337508101E-19,0.));
#1665=DIRECTION('',(0.,1.,0.));
#1666=DIRECTION('',(1.,0.,0.));
#1667=DIRECTION('',(1.95625337508101E-19,1.,0.));
#1668=DIRECTION('',(1.,-1.95625337508101E-19,0.));
#1669=DIRECTION('',(0.,1.,0.));
#1670=DIRECTION('',(1.,0.,0.));
#1671=DIRECTION('',(1.95625337508101E-19,1.,0.));
#1672=DIRECTION('',(1.,-1.95625337508101E-19,0.));
#1673=DIRECTION('',(0.,1.,0.));
#1674=DIRECTION('',(1.,0.,0.));
#1675=DIRECTION('',(0.,1.,0.));
#1676=DIRECTION('',(1.,0.,0.));
#1677=DIRECTION('',(0.,1.,0.));
#1678=DIRECTION('',(1.,0.,0.));
#1679=DIRECTION('',(0.,1.,0.));
#1680=DIRECTION('',(1.,0.,0.));
#1681=DIRECTION('',(2.5765560114791E-33,1.31708706258496E-14,-1.));
#1682=DIRECTION('',(0.,1.,1.31708706258496E-14));
#1683=CARTESIAN_POINT('',(0.,0.,0.));
#1684=CARTESIAN_POINT('',(0.0165381403506074,-0.0508995879564748,-0.00883068995177813));
#1685=CARTESIAN_POINT('',(0.0165381403506074,-0.0508995879564746,-0.0198306899517782));
#1686=CARTESIAN_POINT('',(-0.00241963155151743,-0.0734925807284134,-0.0198306899517784));
#1687=CARTESIAN_POINT('',(0.0381034253284604,-0.0251990821088003,-0.0198306899517778));
#1688=CARTESIAN_POINT('',(-0.00241963155151736,-0.0734925807284134,-0.0138306899517785));
#1689=CARTESIAN_POINT('',(-0.00241963155151736,-0.0734925807284134,-0.0138306899517784));
#1690=CARTESIAN_POINT('',(0.0165381403506074,-0.0508995879564747,-0.0138306899517781));
#1691=CARTESIAN_POINT('',(0.0381034253284604,-0.0251990821088004,-0.0138306899517781));
#1692=CARTESIAN_POINT('',(0.0381034253284604,-0.0251990821088004,-0.00883068995177779));
#1693=CARTESIAN_POINT('',(0.0331034253284604,-0.0552682815051113,-0.00883068995177819));
#1694=CARTESIAN_POINT('',(0.0331034253284604,-0.0716000938041491,-0.0088306899517784));
#1695=CARTESIAN_POINT('',(0.0331034253284604,-0.071600093804149,-0.0138306899517784));
#1696=CARTESIAN_POINT('',(0.0331034253284604,-0.071600093804149,-0.0198306899517784));
#1697=CARTESIAN_POINT('',(0.0331034253284604,-0.0552682815051113,-0.0138306899517782));
#1698=CARTESIAN_POINT('',(0.0331034253284604,-0.0389364692060734,-0.013830689951778));
#1699=CARTESIAN_POINT('',(0.0331034253284604,-0.0389364692060735,-0.00883068995177797));
#1700=CARTESIAN_POINT('',(0.0331034253284604,-0.0389364692060734,-0.019830689951778));
#1701=CARTESIAN_POINT('',(0.0331034253284604,-0.0552682815051112,-0.0198306899517782));
#1702=CARTESIAN_POINT('',(0.0193994076518812,-0.0716000938041491,-0.0088306899517784));
#1703=CARTESIAN_POINT('',(0.00569538997530209,-0.0716000938041491,-0.0088306899517784));
#1704=CARTESIAN_POINT('',(0.00569538997530209,-0.071600093804149,-0.0138306899517782));
#1705=CARTESIAN_POINT('',(0.00569538997530209,-0.071600093804149,-0.0198306899517784));
#1706=CARTESIAN_POINT('',(0.0193994076518812,-0.071600093804149,-0.0138306899517784));
#1707=CARTESIAN_POINT('',(0.0193994076518812,-0.071600093804149,-0.0198306899517784));
#1708=CARTESIAN_POINT('',(0.0193994076518812,-0.0552682815051113,-0.00883068995177819));
#1709=CARTESIAN_POINT('',(0.0193994076518812,-0.0552682815051113,-0.0138306899517782));
#1710=CARTESIAN_POINT('',(0.0193994076518812,-0.0552682815051112,-0.0198306899517782));
#1711=CARTESIAN_POINT('',(0.0381034253284604,0.0132183471638855,-0.0839970106163252));
#1712=CARTESIAN_POINT('',(0.0381034253284604,0.0132183471638857,-0.0999290283577898));
#1713=CARTESIAN_POINT('',(0.0381034253284604,0.0132163471635152,-0.0999290283577898));
#1714=CARTESIAN_POINT('',(0.0381034253284604,1.81853991936651E-15,-0.0999290283577899));
#1715=CARTESIAN_POINT('',(0.0381034253284604,0.0132163471638854,-0.0839970106163252));
#1716=CARTESIAN_POINT('',(0.0381034253284604,0.0132163471638846,-0.0198306899517773));
#1717=CARTESIAN_POINT('',(0.0381034253284604,0.0132183471638847,-0.0198306899517773));
#1718=CARTESIAN_POINT('',(0.0381034253284604,7.63575066875388E-16,-0.0198306899517773));
#1719=CARTESIAN_POINT('',(0.0381034253284604,1.60870137488494E-15,-0.0839970106163253));
#1720=CARTESIAN_POINT('',(0.0165381403506074,-0.0508995879564752,0.0251693100482219));
#1721=CARTESIAN_POINT('',(0.0165381403506074,-0.0508995879564753,0.0301693100482219));
#1722=CARTESIAN_POINT('',(0.0349379714281704,-0.0289715231666629,0.0301693100482221));
#1723=CARTESIAN_POINT('',(0.0381034253284604,-0.0251990821088009,0.0301693100482222));
#1724=CARTESIAN_POINT('',(0.0349379714281704,-0.0289715231666629,0.0301693100482221));
#1725=CARTESIAN_POINT('',(0.0349379714281704,-0.0289715231666628,0.0251693100482221));
#1726=CARTESIAN_POINT('',(0.0311126983645673,-0.0335303060828657,0.0240000000000003));
#1727=CARTESIAN_POINT('',(0.0349140765298412,-0.0289999999975914,0.0252447987968261));
#1728=CARTESIAN_POINT('',(0.0349140765298412,-0.0289999999975914,0.0301693100482221));
#1729=CARTESIAN_POINT('',(0.0349140765298412,-0.0289999999975914,0.0301693100482221));
#1730=CARTESIAN_POINT('',(0.0165381403506074,-0.0508995879564753,0.0301693100482219));
#1731=CARTESIAN_POINT('',(-0.0050271446272457,-0.0766000938041496,0.0301693100482215));
#1732=CARTESIAN_POINT('',(-0.0050271446272457,-0.0766000938041497,0.0351693100482216));
#1733=CARTESIAN_POINT('',(-0.0050271446272457,-0.0766000938041497,0.0351693100482216));
#1734=CARTESIAN_POINT('',(0.0165381403506074,-0.0508995879564753,0.0351693100482219));
#1735=CARTESIAN_POINT('',(0.0381034253284604,-0.025199082108801,0.0351693100482222));
#1736=CARTESIAN_POINT('',(0.0381034253284604,-0.0251990821088009,0.0251693100482222));
#1737=CARTESIAN_POINT('',(0.0381034253284604,-0.0836020938041813,0.00766931004822144));
#1738=CARTESIAN_POINT('',(0.0381034253284604,-0.0508995879564747,-0.0138306899517781));
#1739=CARTESIAN_POINT('',(0.0381034253284604,-0.0766000938041491,-0.0138306899517785));
#1740=CARTESIAN_POINT('',(0.0381034253284604,-0.0766000938041496,0.00766931004822149));
#1741=CARTESIAN_POINT('',(0.0381034253284604,-0.0766000938041497,0.0301693100482215));
#1742=CARTESIAN_POINT('',(0.0381034253284604,-0.0508995879564753,0.0301693100482219));
#1743=CARTESIAN_POINT('',(0.0381034253284604,-0.0836020938041816,0.0351693100482214));
#1744=CARTESIAN_POINT('',(0.0381034253284604,1.03049088368809E-15,0.0351693100482226));
#1745=CARTESIAN_POINT('',(0.0381034253284604,1.60870137488494E-15,-0.0839970106163253));
#1746=CARTESIAN_POINT('',(0.0381034253284604,-0.0836020938041809,-0.0198306899517786));
#1747=CARTESIAN_POINT('',(-0.0209033930703228,0.013218347163885,-0.0430649928748606));
#1748=CARTESIAN_POINT('',(-0.0242034463972042,-2.00000015528751E-6,-0.0430649928748607));
#1749=CARTESIAN_POINT('',(-0.0242034463972042,1.06960325355993E-15,-0.0430649928748607));
#1750=CARTESIAN_POINT('',(-0.024203446397343,0.0132163471632307,-0.0430649928748606));
#1751=CARTESIAN_POINT('',(-0.0209033930703228,1.06960260798588E-15,-0.0430649928748607));
#1752=CARTESIAN_POINT('',(-0.00936313532292843,1.06960035041907E-15,-0.0430649928748607));
#1753=CARTESIAN_POINT('',(-0.00936313532292843,0.013218347163885,-0.0430649928748606));
#1754=CARTESIAN_POINT('',(-0.00936313532292843,0.0132163471633861,-0.0430649928748606));
#1755=CARTESIAN_POINT('',(-0.0209033930703228,0.0132163471632654,-0.0430649928748606));
#1756=CARTESIAN_POINT('',(-0.00936313532292843,0.0132183471638845,-0.00644784141331894));
#1757=CARTESIAN_POINT('',(-0.00936313532292843,5.87320585831962E-16,-0.00644784141331911));
#1758=CARTESIAN_POINT('',(-0.00936313532292843,3.86197104809857E-16,0.00882248404469365));
#1759=CARTESIAN_POINT('',(-0.00936313532292843,0.0132183471632349,0.00882248404525597));
#1760=CARTESIAN_POINT('',(-0.00936313532292843,0.0132163471633859,0.00882248404525588));
#1761=CARTESIAN_POINT('',(-0.00936313532292843,0.0132163471633861,-0.00644784141331894));
#1762=CARTESIAN_POINT('',(0.00282988725537166,1.12462185730446E-15,-0.0472426887700399));
#1763=CARTESIAN_POINT('',(-0.016783290859997,6.73751182069752E-16,-0.0130099914837301));
#1764=CARTESIAN_POINT('',(-0.0113339850242077,3.83040491490007E-16,0.00906217312981441));
#1765=CARTESIAN_POINT('',(-0.0103631353229284,3.85108611666851E-16,0.00882248404469365));
#1766=CARTESIAN_POINT('',(-0.0188691119216933,1.6269108459606E-15,-0.08537872077967));
#1767=CARTESIAN_POINT('',(-0.0188691119216933,1.6611551095878E-15,-0.08797872077967));
#1768=CARTESIAN_POINT('',(0.0155563491822834,3.91181793348569E-16,0.00844365081771727));
#1769=CARTESIAN_POINT('',(0.0155563491822834,2.56838912964903E-16,0.0186436508177173));
#1770=CARTESIAN_POINT('',(-0.0187427663248858,1.28513077957502E-15,-0.0594290283577902));
#1771=CARTESIAN_POINT('',(-0.0187427663248858,1.22915457941516E-15,-0.0551790283577902));
#1772=CARTESIAN_POINT('',(0.0212572336751146,1.28512295456152E-15,-0.0594290283577902));
#1773=CARTESIAN_POINT('',(0.0212572336751146,1.22914675440166E-15,-0.0551790283577902));
#1774=CARTESIAN_POINT('',(0.0311126983645669,0.,-0.00711269836456661));
#1775=CARTESIAN_POINT('',(0.0349626983645668,0.,-0.00711269836456661));
#1776=CARTESIAN_POINT('',(-4.52998571738783E-16,0.,-0.00711269836456615));
#1777=CARTESIAN_POINT('',(0.00384999999999955,0.,-0.00711269836456615));
#1778=CARTESIAN_POINT('',(3.46944695195361E-18,0.,0.0240000000000011));
#1779=CARTESIAN_POINT('',(0.00385,0.,0.0240000000000011));
#1780=CARTESIAN_POINT('',(0.0311126983645673,0.,0.0240000000000007));
#1781=CARTESIAN_POINT('',(0.0349626983645673,0.,0.0240000000000007));
#1782=CARTESIAN_POINT('',(-0.0324436508177171,1.60871517568052E-15,-0.0839970106163254));
#1783=CARTESIAN_POINT('',(-0.0324436508177171,1.81855372016208E-15,-0.0999290283577898));
#1784=CARTESIAN_POINT('',(-0.0324436508177171,1.0696048655527E-15,-0.0430649928748607));
#1785=CARTESIAN_POINT('',(0.0284635737382781,1.81854180516572E-15,-0.0999290283577899));
#1786=CARTESIAN_POINT('',(0.014370145002766,3.91818252846327E-17,0.0351693100482226));
#1787=CARTESIAN_POINT('',(-0.0143631353227897,3.91866261762311E-17,0.0351693100482226));
#1788=CARTESIAN_POINT('',(-0.0143631353227897,3.91866261762311E-17,0.0351693100482226));
#1789=CARTESIAN_POINT('',(-0.0143631353227897,1.05040979305479E-16,0.0301693100482226));
#1790=CARTESIAN_POINT('',(-0.023403393070184,5.87323328263712E-16,-0.0064478414133191));
#1791=CARTESIAN_POINT('',(0.0213835792716297,1.62690297151429E-15,-0.08537872077967));
#1792=CARTESIAN_POINT('',(0.0213835792716297,1.6611472351415E-15,-0.08797872077967));
#1793=CARTESIAN_POINT('',(0.00125723367511442,0.0132163471634982,-0.05942902835779));
#1794=CARTESIAN_POINT('',(0.0284635737382781,0.0132163471637844,-0.0999290283577898));
#1795=CARTESIAN_POINT('',(-0.0324436508177171,0.0132163471631444,-0.0999290283577897));
#1796=CARTESIAN_POINT('',(-0.0324436508177171,0.0132163471631447,-0.0839970106163252));
#1797=CARTESIAN_POINT('',(-0.0324436508177171,0.0132163471631447,-0.0430649928748606));
#1798=CARTESIAN_POINT('',(-0.0234033930703228,0.0132163471632387,-0.00644784141331894));
#1799=CARTESIAN_POINT('',(-0.0143631353229284,0.0132163471633332,0.0301693100482227));
#1800=CARTESIAN_POINT('',(-0.0143631353229284,0.0132163471633331,0.0351693100482227));
#1801=CARTESIAN_POINT('',(-0.0143631353229284,0.0132163471633331,0.0351693100482227));
#1802=CARTESIAN_POINT('',(0.014370145002766,0.0132163471636347,0.0351693100482227));
#1803=CARTESIAN_POINT('',(0.0383870781645735,0.0132163471638869,0.0351693100482227));
#1804=CARTESIAN_POINT('',(0.0383870781645736,0.0132163471638881,-0.05942902835779));
#1805=CARTESIAN_POINT('',(0.0383870781645735,0.0132163471638876,-0.0198306899517773));
#1806=CARTESIAN_POINT('',(0.00125723367511442,0.0132163471634978,-0.0198306899517773));
#1807=CARTESIAN_POINT('',(-0.0188691119216933,0.0132163471632873,-0.0853787207796698));
#1808=CARTESIAN_POINT('',(-0.0214691119216932,0.01321634716326,-0.0853787207796698));
#1809=CARTESIAN_POINT('',(-0.0187427663248858,0.0132163471632883,-0.05942902835779));
#1810=CARTESIAN_POINT('',(-0.0227927663248857,0.0132163471632457,-0.05942902835779));
#1811=CARTESIAN_POINT('',(0.0212572336751146,0.0132163471637083,-0.05942902835779));
#1812=CARTESIAN_POINT('',(0.0172072336751146,0.0132163471636657,-0.05942902835779));
#1813=CARTESIAN_POINT('',(0.0155563491822834,0.0132163471636476,0.00844365081771744));
#1814=CARTESIAN_POINT('',(0.0055563491822834,0.0132163471635426,0.00844365081771744));
#1815=CARTESIAN_POINT('',(3.47203240432809E-18,0.013216347163484,0.0240000000000013));
#1816=CARTESIAN_POINT('',(-0.00265,0.0132163471634562,0.0240000000000013));
#1817=CARTESIAN_POINT('',(0.0311126983645673,0.0132163471638107,0.0240000000000009));
#1818=CARTESIAN_POINT('',(0.0284626983645673,0.0132163471637829,0.0240000000000009));
#1819=CARTESIAN_POINT('',(0.0311126983645669,0.0132163471638111,-0.00711269836456643));
#1820=CARTESIAN_POINT('',(0.0284626983645669,0.0132163471637832,-0.00711269836456643));
#1821=CARTESIAN_POINT('',(-4.52597976076685E-16,0.0132163471634844,-0.00711269836456598));
#1822=CARTESIAN_POINT('',(-0.00265000000000045,0.0132163471634566,-0.00711269836456598));
#1823=CARTESIAN_POINT('',(-0.0103631353229284,0.0132163471633754,0.00882248404525588));
#1824=CARTESIAN_POINT('',(-0.0113339850242077,0.0132163471633652,0.00906217313037664));
#1825=CARTESIAN_POINT('',(-0.0167832908601357,0.0132163471633083,-0.0130099914837299));
#1826=CARTESIAN_POINT('',(0.0213835792716297,0.0132163471637099,-0.0853787207796698));
#1827=CARTESIAN_POINT('',(0.0187835792716297,0.0132163471636826,-0.0853787207796698));
#1828=CARTESIAN_POINT('',(0.0311126983645669,-0.0040019999975912,-0.00711269836456661));
#1829=CARTESIAN_POINT('',(0.0311126983645669,-0.003799999997591,-0.00711269836456661));
#1830=CARTESIAN_POINT('',(0.0272626983645669,-0.003799999997591,-0.00711269836456661));
#1831=CARTESIAN_POINT('',(0.0311126983645669,-0.0040019999975912,-0.00711269836456661));
#1832=CARTESIAN_POINT('',(0.0311126983645669,-0.003999999997591,-0.00711269836456661));
#1833=CARTESIAN_POINT('',(0.0311126983645669,-0.00399999999759097,-0.00976269836456661));
#1834=CARTESIAN_POINT('',(0.042056349182283,-0.0039999999975912,0.00844365081770948));
#1835=CARTESIAN_POINT('',(0.0311126983645669,-0.003999999997591,-0.00711269836456661));
#1836=CARTESIAN_POINT('',(0.0311126983645669,-0.00399999999759095,-0.0107626983645667));
#1837=CARTESIAN_POINT('',(-4.52998571738783E-16,-0.0040019999975912,-0.00711269836456615));
#1838=CARTESIAN_POINT('',(-4.52998571738783E-16,-0.003799999997591,-0.00711269836456615));
#1839=CARTESIAN_POINT('',(-0.00385000000000045,-0.003799999997591,-0.00711269836456615));
#1840=CARTESIAN_POINT('',(-4.52925092930834E-16,-0.0040019999975912,-0.00711269836456615));
#1841=CARTESIAN_POINT('',(-4.52925092930834E-16,-0.003999999997591,-0.00711269836456615));
#1842=CARTESIAN_POINT('',(-4.52925092930834E-16,-0.00399999999759097,-0.00976269836456615));
#1843=CARTESIAN_POINT('',(0.042056349182283,-0.0039999999975912,0.00844365081770948));
#1844=CARTESIAN_POINT('',(-4.52998571738783E-16,-0.003999999997591,-0.00711269836456615));
#1845=CARTESIAN_POINT('',(-4.52998571738783E-16,-0.00399999999759095,-0.0107626983645662));
#1846=CARTESIAN_POINT('',(3.46944695195361E-18,-0.0040019999975912,0.0240000000000011));
#1847=CARTESIAN_POINT('',(3.46944695195361E-18,-0.00379999999759141,0.0240000000000011));
#1848=CARTESIAN_POINT('',(-0.00385,-0.00379999999759141,0.0240000000000011));
#1849=CARTESIAN_POINT('',(3.46944695195361E-18,-0.0040019999975912,0.0240000000000011));
#1850=CARTESIAN_POINT('',(3.46944695195361E-18,-0.00399999999759141,0.0240000000000011));
#1851=CARTESIAN_POINT('',(3.46944695195361E-18,-0.00399999999759138,0.0213500000000011));
#1852=CARTESIAN_POINT('',(0.042056349182283,-0.0039999999975912,0.00844365081770948));
#1853=CARTESIAN_POINT('',(3.46944695195361E-18,-0.00399999999759141,0.0240000000000011));
#1854=CARTESIAN_POINT('',(3.46944695195361E-18,-0.00399999999759136,0.0203500000000011));
#1855=CARTESIAN_POINT('',(0.0311126983645673,-0.0040019999975912,0.0240000000000007));
#1856=CARTESIAN_POINT('',(0.0311126983645673,-0.00379999999759141,0.0240000000000007));
#1857=CARTESIAN_POINT('',(0.0272626983645673,-0.00379999999759141,0.0240000000000007));
#1858=CARTESIAN_POINT('',(0.0311126983645673,-0.0040019999975912,0.0240000000000007));
#1859=CARTESIAN_POINT('',(0.0311126983645673,-0.00399999999759141,0.0240000000000007));
#1860=CARTESIAN_POINT('',(0.0311126983645673,-0.00399999999759138,0.0213500000000007));
#1861=CARTESIAN_POINT('',(0.042056349182283,-0.0039999999975912,0.00844365081770948));
#1862=CARTESIAN_POINT('',(0.0311126983645673,-0.00399999999759141,0.0240000000000007));
#1863=CARTESIAN_POINT('',(0.0311126983645673,-0.00399999999759136,0.0203500000000007));
#1864=CARTESIAN_POINT('',(-0.0324436508177171,0.0132183471638855,-0.0839970106163252));
#1865=CARTESIAN_POINT('',(-0.0324436508177171,0.0132183471638857,-0.0999290283577897));
#1866=CARTESIAN_POINT('',(-0.0324436508177171,0.013218347163885,-0.0430649928748606));
#1867=CARTESIAN_POINT('',(0.0155563491822834,0.175615142010076,0.00844365081771958));
#1868=CARTESIAN_POINT('',(0.0155563491822834,0.000200000000000394,0.00844365081771727));
#1869=CARTESIAN_POINT('',(0.0155563491822834,0.000200000000000308,0.0184436508177173));
#1870=CARTESIAN_POINT('',(0.0212572336751146,0.175615142010077,-0.0594290283577879));
#1871=CARTESIAN_POINT('',(0.0212572336751146,0.000200000000001311,-0.0594290283577902));
#1872=CARTESIAN_POINT('',(0.0253072336751146,0.000200000000001311,-0.0594290283577902));
#1873=CARTESIAN_POINT('',(-0.0187427663248858,0.175615142010077,-0.0594290283577879));
#1874=CARTESIAN_POINT('',(-0.0187427663248858,0.000200000000001311,-0.0594290283577902));
#1875=CARTESIAN_POINT('',(-0.0146927663248858,0.000200000000001311,-0.0594290283577902));
#1876=CARTESIAN_POINT('',(0.0155563491822834,0.000200000000000394,0.00844365081771727));
#1877=CARTESIAN_POINT('',(-0.0187427663248858,0.000200000000001311,-0.0594290283577902));
#1878=CARTESIAN_POINT('',(0.0212572336751146,0.000200000000001311,-0.0594290283577902));
#1879=CARTESIAN_POINT('',(0.0311126983645673,-0.00379999999759141,0.0240000000000007));
#1880=CARTESIAN_POINT('',(3.46944695195361E-18,-0.00379999999759141,0.0240000000000011));
#1881=CARTESIAN_POINT('',(-4.52998571738783E-16,-0.003799999997591,-0.00711269836456615));
#1882=CARTESIAN_POINT('',(0.0311126983645669,-0.003799999997591,-0.00711269836456661));
#1883=CARTESIAN_POINT('',(-0.0188691119216933,0.175615142010078,-0.0853787207796677));
#1884=CARTESIAN_POINT('',(0.0213835792716297,0.175615142010078,-0.0853787207796677));
#1885=CARTESIAN_POINT('',(-0.0167832908599969,-2.00000007772802E-6,-0.0130099914837301));
#1886=CARTESIAN_POINT('',(-0.0113339850242077,-2.00000101669971E-6,0.00906217312981431));
#1887=CARTESIAN_POINT('',(-0.023403393070184,-2.00000014731819E-6,-0.0064478414133191));
#1888=CARTESIAN_POINT('',(-0.0143631353227896,-2.00000005285556E-6,0.0301693100482226));
#1889=CARTESIAN_POINT('',(-0.0103631353229284,0.0132183471632349,0.00882248404525597));
#1890=CARTESIAN_POINT('',(0.0157237039175128,-0.0836000938044137,0.00844152817309465));
#1891=CARTESIAN_POINT('',(0.0155565442795275,-0.0836000938044154,0.00844345572571493));
#1892=CARTESIAN_POINT('',(0.0200565442795274,-0.0836000938043684,0.00844345572571493));
#1893=CARTESIAN_POINT('',(0.000403456171148848,-0.083600093804573,0.0241192196163534));
#1894=CARTESIAN_POINT('',(0.00220345617114885,-0.0836000938045542,0.0241192196163534));
#1895=CARTESIAN_POINT('',(0.0314013953607716,-0.0836000938042493,0.0237617759194586));
#1896=CARTESIAN_POINT('',(0.0332013953607716,-0.0836000938042305,0.0237617759194586));
#1897=CARTESIAN_POINT('',(0.0310439516638768,-0.0836000938042544,-0.00723616327016415));
#1898=CARTESIAN_POINT('',(0.0328439516638768,-0.0836000938042356,-0.00723616327016415));
#1899=CARTESIAN_POINT('',(4.60124742540126E-5,-0.0836000938045781,-0.00687871957326931));
#1900=CARTESIAN_POINT('',(0.00184601247425401,-0.0836000938045593,-0.00687871957326931));
#1901=CARTESIAN_POINT('',(0.0441034253284604,-0.0836000938041173,0.00766931004822144));
#1902=CARTESIAN_POINT('',(0.0441034253284604,-0.0836000938041173,-0.0198306899517786));
#1903=CARTESIAN_POINT('',(0.0441034253284604,-0.0836000938041174,0.0351693100482214));
#1904=CARTESIAN_POINT('',(0.0411034253284604,-0.0836000938041477,0.0351693100482214));
#1905=CARTESIAN_POINT('',(-0.00502714462720915,-0.0836000938041497,0.0351693100482214));
#1906=CARTESIAN_POINT('',(-0.00502714462720915,-0.0836000938041497,0.0351693100482214));
#1907=CARTESIAN_POINT('',(-0.00502714462720915,-0.0836000938041496,0.0301693100482215));
#1908=CARTESIAN_POINT('',(-0.00528663157661932,-0.0836000938041496,0.00766629558936933));
#1909=CARTESIAN_POINT('',(-0.00554604900535954,-0.0836000938041496,-0.0148306899517786));
#1910=CARTESIAN_POINT('',(-0.00554604900535954,-0.0836000938041496,-0.0198306899517786));
#1911=CARTESIAN_POINT('',(-0.00554604900535954,-0.0836000938041496,-0.0198306899517786));
#1912=CARTESIAN_POINT('',(0.0411034253284604,-0.0836000938041496,-0.0198306899517786));
#1913=CARTESIAN_POINT('',(0.0411034253284604,0.0130000000000004,0.00766931004822271));
#1914=CARTESIAN_POINT('',(0.0441034253284604,0.0130000000000004,0.00766931004822271));
#1915=CARTESIAN_POINT('',(0.0441034253284604,0.013,0.0351693100482227));
#1916=CARTESIAN_POINT('',(0.0441034253284604,0.0130000000000008,-0.0198306899517773));
#1917=CARTESIAN_POINT('',(0.0411034253284604,0.0130000000000008,-0.0198306899517773));
#1918=CARTESIAN_POINT('',(0.0386034253284604,0.0130000000000008,-0.0198306899517773));
#1919=CARTESIAN_POINT('',(0.0386034253284604,0.0130000000000004,0.00766931004822271));
#1920=CARTESIAN_POINT('',(0.0386034253284604,0.013,0.0351693100482227));
#1921=CARTESIAN_POINT('',(0.0411034253284604,0.013,0.0351693100482227));
#1922=CARTESIAN_POINT('',(0.0441034253284604,-0.0836020938041813,0.00766931004822144));
#1923=CARTESIAN_POINT('',(0.0441034253284604,-0.0836020938041809,-0.0198306899517786));
#1924=CARTESIAN_POINT('',(0.0441034253284604,-0.0836020938041816,0.0351693100482214));
#1925=CARTESIAN_POINT('',(0.0381034253284604,0.0135000000000016,-0.0839970106163252));
#1926=CARTESIAN_POINT('',(0.0263776115836713,0.0252258137447892,0.0351693100482229));
#1927=CARTESIAN_POINT('',(0.0881544722305512,-0.0365510469020903,-0.019830689951778));
#1928=CARTESIAN_POINT('',(-0.00547668278144843,-0.114300093804636,-0.00881516918766553));
#1929=CARTESIAN_POINT('',(-0.00554604900539609,-0.0801000938041496,-0.0148306899517786));
#1930=CARTESIAN_POINT('',(-0.00554604900543264,-0.0766000938041496,-0.0148306899517786));
#1931=CARTESIAN_POINT('',(-0.00502714462720915,-0.0801000938041442,0.0301693100482215));
#1932=CARTESIAN_POINT('',(-0.00528663157669241,-0.0766000938041496,0.00766629558937021));
#1933=CARTESIAN_POINT('',(-0.00554804900543264,-0.0766000938041496,0.00766931004822149));
#1934=CARTESIAN_POINT('',(0.000403456171148848,-0.0766000938041496,0.0241192196163534));
#1935=CARTESIAN_POINT('',(0.00240345617114885,-0.0766000938041496,0.0241192196163534));
#1936=CARTESIAN_POINT('',(0.0314013953607716,-0.0766000938041496,0.0237617759194586));
#1937=CARTESIAN_POINT('',(0.0334013953607716,-0.0766000938041496,0.0237617759194586));
#1938=CARTESIAN_POINT('',(0.0310439516638768,-0.0766000938041496,-0.00723616327016415));
#1939=CARTESIAN_POINT('',(0.0330439516638768,-0.0766000938041496,-0.00723616327016415));
#1940=CARTESIAN_POINT('',(4.60124742540126E-5,-0.0766000938041496,-0.00687871957326931));
#1941=CARTESIAN_POINT('',(0.00204601247425401,-0.0766000938041496,-0.00687871957326931));
#1942=CARTESIAN_POINT('',(0.0155565442795275,-0.0766000938041496,0.00844345572571493));
#1943=CARTESIAN_POINT('',(0.0200565442795274,-0.0766000938041496,0.00844345572571493));
#1944=CARTESIAN_POINT('',(0.0165381403506074,-0.076600093804149,-0.0138306899517785));
#1945=CARTESIAN_POINT('',(-0.00552714462724567,-0.076600093804149,-0.0138306899517785));
#1946=CARTESIAN_POINT('',(-0.00552714462724573,-0.0766000938041496,-0.0198306899517785));
#1947=CARTESIAN_POINT('',(-0.00552714462724573,-0.0766000938041496,-0.0198306899517786));
#1948=CARTESIAN_POINT('',(-0.00554804900543264,-0.0766000938041496,-0.0198306899517786));
#1949=CARTESIAN_POINT('',(-0.00554604900543264,-0.0766000938041496,-0.0198306899517786));
#1950=CARTESIAN_POINT('',(-0.00554604900543264,-0.0766000938041496,-0.0198306899517786));
#1951=CARTESIAN_POINT('',(0.0165381403506074,-0.0766000938041496,0.0301693100482215));
#1952=CARTESIAN_POINT('',(0.0331034253284604,-0.0552682815051118,0.0251693100482218));
#1953=CARTESIAN_POINT('',(0.0331034253284604,-0.038936469206074,0.0251693100482221));
#1954=CARTESIAN_POINT('',(0.0331034253284604,-0.038936469206074,0.0301693100482218));
#1955=CARTESIAN_POINT('',(0.0331034253284604,-0.0389364692060741,0.0351693100482221));
#1956=CARTESIAN_POINT('',(0.0331034253284604,-0.0552682815051118,0.0301693100482218));
#1957=CARTESIAN_POINT('',(0.0331034253284604,-0.0716000938041496,0.0301693100482216));
#1958=CARTESIAN_POINT('',(0.0331034253284604,-0.0716000938041495,0.0251693100482216));
#1959=CARTESIAN_POINT('',(0.0331034253284604,-0.0716000938041497,0.0351693100482216));
#1960=CARTESIAN_POINT('',(0.0331034253284604,-0.0552682815051119,0.0351693100482218));
#1961=CARTESIAN_POINT('',(0.0193994076518812,-0.0716000938041495,0.0251693100482216));
#1962=CARTESIAN_POINT('',(0.0193994076518812,-0.0716000938041496,0.0301693100482216));
#1963=CARTESIAN_POINT('',(0.00569538997530209,-0.0716000938041496,0.0301693100482216));
#1964=CARTESIAN_POINT('',(0.00569538997530209,-0.0716000938041495,0.0251693100482216));
#1965=CARTESIAN_POINT('',(0.00569538997530209,-0.0716000938041497,0.0351693100482216));
#1966=CARTESIAN_POINT('',(0.0193994076518812,-0.0716000938041497,0.0351693100482216));
#1967=CARTESIAN_POINT('',(0.0193994076518812,-0.0552682815051118,0.0251693100482218));
#1968=CARTESIAN_POINT('',(0.0193994076518812,-0.0552682815051118,0.0301693100482218));
#1969=CARTESIAN_POINT('',(0.0193994076518812,-0.0552682815051119,0.0351693100482218));
#1970=CARTESIAN_POINT('',(0.0311126983645673,-0.0289999999975914,0.0240000000000004));
#1971=CARTESIAN_POINT('',(0.0349379714281704,-0.0289999999975914,0.0251693100482221));
#1972=CARTESIAN_POINT('',(0.0349379714281704,-0.0289999999975914,0.0251693100482221));
#1973=CARTESIAN_POINT('',(0.0311126983645673,-0.0289999999975914,0.0240000000000004));
#1974=CARTESIAN_POINT('',(-0.00502714462720915,-0.0801000938041443,0.0351693100482214));
#1975=CARTESIAN_POINT('',(-0.00502714462720915,-0.0801000938041443,0.0351693100482214));
#1976=CARTESIAN_POINT('',(-0.0143631353227896,-2.00000005292141E-6,0.0351693100482226));
#1977=CARTESIAN_POINT('',(-0.0143631353227896,-2.00000005292141E-6,0.0351693100482226));
#1978=CARTESIAN_POINT('',(0.014370145002766,0.0132183471638839,0.0351693100482227));
#1979=CARTESIAN_POINT('',(0.0165381403506074,-0.0289999999975914,0.0301693100482221));
#1980=CARTESIAN_POINT('',(0.0349379714281704,-0.0289999999975914,0.0301693100482221));
#1981=CARTESIAN_POINT('',(0.0349379714281704,-0.0289999999975914,0.0301693100482221));
#1982=CARTESIAN_POINT('',(0.0165381403506074,-0.0289999999975914,0.0301693100482221));
#1983=CARTESIAN_POINT('',(0.0349379714281704,-0.0289999999975914,0.0301693100482221));
#1984=CARTESIAN_POINT('',(0.0349379714281704,-0.0289999999975914,0.0301693100482221));
#1985=CARTESIAN_POINT('',(0.0165381403506074,-0.0508995879564753,0.0301693100482219));
#1986=CARTESIAN_POINT('',(-0.00554604900539609,-0.0801000938041495,-0.0198306899517786));
#1987=CARTESIAN_POINT('',(-0.00554604900539609,-0.0801000938041495,-0.0198306899517786));
#1988=CARTESIAN_POINT('',(0.0411034253284604,-0.0836020938041809,-0.0198306899517786));
#1989=CARTESIAN_POINT('',(0.0142871403505322,-0.0567858088263211,-0.0198306899517782));
#1990=CARTESIAN_POINT('',(0.0165381403506074,-0.0508995879564747,-0.0138306899517781));
#1991=CARTESIAN_POINT('',(-0.00552714462724541,-0.0766000938041494,-0.0138306899517785));
#1992=CARTESIAN_POINT('',(-0.00552714462724543,-0.0766000938041496,0.00766931004822149));
#1993=CARTESIAN_POINT('',(4.60124742540126E-5,-0.10160009380415,-0.00687871957326931));
#1994=CARTESIAN_POINT('',(4.60124742540126E-5,-0.0768000938041496,-0.00687871957326931));
#1995=CARTESIAN_POINT('',(0.00184601247425401,-0.0768000938041496,-0.00687871957326931));
#1996=CARTESIAN_POINT('',(0.0310439516638768,-0.10160009380415,-0.00723616327016415));
#1997=CARTESIAN_POINT('',(0.0310439516638768,-0.0768000938041496,-0.00723616327016415));
#1998=CARTESIAN_POINT('',(0.0328439516638768,-0.0768000938041496,-0.00723616327016415));
#1999=CARTESIAN_POINT('',(0.0314013953607716,-0.10160009380415,0.0237617759194586));
#2000=CARTESIAN_POINT('',(0.0314013953607716,-0.0768000938041496,0.0237617759194586));
#2001=CARTESIAN_POINT('',(0.0332013953607716,-0.0768000938041496,0.0237617759194586));
#2002=CARTESIAN_POINT('',(0.000403456171148848,-0.10160009380415,0.0241192196163534));
#2003=CARTESIAN_POINT('',(0.000403456171148848,-0.0768000938041496,0.0241192196163534));
#2004=CARTESIAN_POINT('',(0.00220345617114885,-0.0768000938041496,0.0241192196163534));
#2005=CARTESIAN_POINT('',(0.0155565442795275,-0.10160009380415,0.00844345572571493));
#2006=CARTESIAN_POINT('',(0.000403456171148848,-0.0768000938041496,0.0241192196163534));
#2007=CARTESIAN_POINT('',(0.0314013953607716,-0.0768000938041496,0.0237617759194586));
#2008=CARTESIAN_POINT('',(0.0310439516638768,-0.0768000938041496,-0.00723616327016415));
#2009=CARTESIAN_POINT('',(4.60124742540126E-5,-0.0768000938041496,-0.00687871957326931));
#2010=CARTESIAN_POINT('',(0.0284635737382781,0.0132183471638857,-0.0999290283577898));
#2011=MECHANICAL_DESIGN_GEOMETRIC_PRESENTATION_REPRESENTATION('',(#1214),
#2012);
#2012=(
GEOMETRIC_REPRESENTATION_CONTEXT(3)
GLOBAL_UNCERTAINTY_ASSIGNED_CONTEXT((#2013))
GLOBAL_UNIT_ASSIGNED_CONTEXT((#2016,#2015,#2014))
REPRESENTATION_CONTEXT('BallScrewHolder-RR','TOP_LEVEL_ASSEMBLY_PART')
);
#2013=UNCERTAINTY_MEASURE_WITH_UNIT(LENGTH_MEASURE(1.E-8),#2016,
'DISTANCE_ACCURACY_VALUE','Maximum Tolerance applied to model');
#2014=(
NAMED_UNIT(*)
SI_UNIT($,.STERADIAN.)
SOLID_ANGLE_UNIT()
);
#2015=(
NAMED_UNIT(*)
PLANE_ANGLE_UNIT()
SI_UNIT($,.RADIAN.)
);
#2016=(
LENGTH_UNIT()
NAMED_UNIT(*)
SI_UNIT($,.METRE.)
);
#2017=PRODUCT_DEFINITION_SHAPE('','',#2018);
#2018=PRODUCT_DEFINITION('','',#2020,#2019);
#2019=PRODUCT_DEFINITION_CONTEXT('',#2026,'design');
#2020=PRODUCT_DEFINITION_FORMATION_WITH_SPECIFIED_SOURCE('','',#2022,
 .NOT_KNOWN.);
#2021=PRODUCT_RELATED_PRODUCT_CATEGORY('','',(#2022));
#2022=PRODUCT('BallScrewHolder-RR','BallScrewHolder-RR',
'BallScrewHolder-RR',(#2024));
#2023=PRODUCT_CATEGORY('','');
#2024=PRODUCT_CONTEXT('',#2026,'mechanical');
#2025=APPLICATION_PROTOCOL_DEFINITION('international standard',
'ap242_managed_model_based_3d_engineering',2020,#2026);
#2026=APPLICATION_CONTEXT('managed model based 3d engineering');
ENDSEC;
END-ISO-10303-21;
