ISO-10303-21;
HEADER;
/* Generated by software containing ST-Developer
 * from STEP Tools, Inc. (www.steptools.com) 
 */
/* OPTION: using custom renumber hook */

FILE_DESCRIPTION(
/* description */ ('STEP AP242 Edition 2',
'CAx-IF Rec.Pracs.---Representation and Presentation of Product Manufa
cturing Information (PMI)---4.0---2014-10-13',
'CAx-IF Rec.Pracs.---3D Tessellated Geometry---0.4---2014-09-14','2;1',
'CAx-IF Rec.Pracs.---User Defined Attributes---1.5---2016-08-15'),
/* implementation_level */ '2;1');

FILE_NAME(
/* name */ 'Router - BallScrewHolder-Front',
/* time_stamp */ '2026-08-01T11:31:39Z',
/* author */ (''),
/* organization */ (''),
/* preprocessor_version */ 'ST-DEVELOPER v20',
/* originating_system */ 'ONSHAPE BY PTC INC, 1.218',
/* authorisation */ '  ');

FILE_SCHEMA (('AP242_MANAGED_MODEL_BASED_3D_ENGINEERING_MIM_LF { 1 0 10303 442 3 1 4 }'));
ENDSEC;

DATA;
#10=SHAPE_REPRESENTATION_RELATIONSHIP('','',#1101,#11);
#11=ADVANCED_BREP_SHAPE_REPRESENTATION('',(#1099),#1929);
#12=CONICAL_SURFACE('',#1244,0.0041,0.785398163397431);
#13=CONICAL_SURFACE('',#1245,0.0042,0.785398163397426);
#14=CONICAL_SURFACE('',#1246,0.0041,0.785398163397431);
#15=CONICAL_SURFACE('',#1247,0.0042,0.785398163397462);
#16=CONICAL_SURFACE('',#1248,0.00269999999999997,0.785398163397472);
#17=CONICAL_SURFACE('',#1249,0.00269999999999996,0.785398163397446);
#18=CONICAL_SURFACE('',#1250,0.00269999999999996,0.785398163397455);
#19=CONICAL_SURFACE('',#1251,0.00269999999999997,0.785398163397463);
#20=CONICAL_SURFACE('',#1252,0.0027,0.785398163397446);
#21=CONICAL_SURFACE('',#1253,0.0027,0.78539816339745);
#22=CONICAL_SURFACE('',#1254,0.0027,0.78539816339745);
#23=CONICAL_SURFACE('',#1255,0.0027,0.78539816339745);
#24=ELLIPSE('',#1193,0.000707106781186548,0.0005);
#25=ELLIPSE('',#1218,0.000707106781186548,0.0005);
#26=ELLIPSE('',#1233,0.000707106781186548,0.0005);
#27=ELLIPSE('',#1234,0.00142742273437562,0.0005);
#28=ELLIPSE('',#1236,0.00120592034606911,0.0005);
#29=ELLIPSE('',#1239,0.00142742273437562,0.0005);
#30=ELLIPSE('',#1240,0.00120592034606911,0.0005);
#31=ELLIPSE('',#1242,0.000707106781186548,0.0005);
#32=TOROIDAL_SURFACE('',#1186,0.001,0.0005);
#33=TOROIDAL_SURFACE('',#1209,0.001,0.0005);
#34=SPHERICAL_SURFACE('',#1151,0.0005);
#35=SPHERICAL_SURFACE('',#1161,0.0005);
#36=SPHERICAL_SURFACE('',#1164,0.0005);
#37=SPHERICAL_SURFACE('',#1167,0.0005);
#38=SPHERICAL_SURFACE('',#1182,0.0005);
#39=SPHERICAL_SURFACE('',#1184,0.0005);
#40=SPHERICAL_SURFACE('',#1189,0.0005);
#41=SPHERICAL_SURFACE('',#1211,0.0005);
#42=SPHERICAL_SURFACE('',#1213,0.0005);
#43=SPHERICAL_SURFACE('',#1215,0.0005);
#44=SPHERICAL_SURFACE('',#1227,0.0005);
#45=SPHERICAL_SURFACE('',#1229,0.0005);
#46=CYLINDRICAL_SURFACE('',#1110,0.0171);
#47=CYLINDRICAL_SURFACE('',#1112,0.0026);
#48=CYLINDRICAL_SURFACE('',#1115,0.0026);
#49=CYLINDRICAL_SURFACE('',#1118,0.0026);
#50=CYLINDRICAL_SURFACE('',#1121,0.0026);
#51=CYLINDRICAL_SURFACE('',#1136,0.0041);
#52=CYLINDRICAL_SURFACE('',#1140,0.0041);
#53=CYLINDRICAL_SURFACE('',#1155,0.0005);
#54=CYLINDRICAL_SURFACE('',#1157,0.0005);
#55=CYLINDRICAL_SURFACE('',#1159,0.0005);
#56=CYLINDRICAL_SURFACE('',#1170,0.0005);
#57=CYLINDRICAL_SURFACE('',#1172,0.0005);
#58=CYLINDRICAL_SURFACE('',#1174,0.0005);
#59=CYLINDRICAL_SURFACE('',#1176,0.0005);
#60=CYLINDRICAL_SURFACE('',#1178,0.0005);
#61=CYLINDRICAL_SURFACE('',#1180,0.0005);
#62=CYLINDRICAL_SURFACE('',#1192,0.0005);
#63=CYLINDRICAL_SURFACE('',#1194,0.0005);
#64=CYLINDRICAL_SURFACE('',#1196,0.0005);
#65=CYLINDRICAL_SURFACE('',#1198,0.0005);
#66=CYLINDRICAL_SURFACE('',#1200,0.0005);
#67=CYLINDRICAL_SURFACE('',#1202,0.0005);
#68=CYLINDRICAL_SURFACE('',#1204,0.0005);
#69=CYLINDRICAL_SURFACE('',#1207,0.0005);
#70=CYLINDRICAL_SURFACE('',#1217,0.0005);
#71=CYLINDRICAL_SURFACE('',#1219,0.0005);
#72=CYLINDRICAL_SURFACE('',#1221,0.0005);
#73=CYLINDRICAL_SURFACE('',#1223,0.0005);
#74=CYLINDRICAL_SURFACE('',#1225,0.0005);
#75=CYLINDRICAL_SURFACE('',#1231,0.0005);
#76=CYLINDRICAL_SURFACE('',#1232,0.0005);
#77=CYLINDRICAL_SURFACE('',#1235,0.0005);
#78=CYLINDRICAL_SURFACE('',#1237,0.0005);
#79=CYLINDRICAL_SURFACE('',#1238,0.0005);
#80=CYLINDRICAL_SURFACE('',#1241,0.0005);
#81=CYLINDRICAL_SURFACE('',#1243,0.0005);
#82=LINE('',#1636,#144);
#83=LINE('',#1639,#145);
#84=LINE('',#1641,#146);
#85=LINE('',#1643,#147);
#86=LINE('',#1647,#148);
#87=LINE('',#1650,#149);
#88=LINE('',#1652,#150);
#89=LINE('',#1654,#151);
#90=LINE('',#1679,#152);
#91=LINE('',#1682,#153);
#92=LINE('',#1684,#154);
#93=LINE('',#1686,#155);
#94=LINE('',#1688,#156);
#95=LINE('',#1690,#157);
#96=LINE('',#1692,#158);
#97=LINE('',#1695,#159);
#98=LINE('',#1697,#160);
#99=LINE('',#1699,#161);
#100=LINE('',#1701,#162);
#101=LINE('',#1704,#163);
#102=LINE('',#1706,#164);
#103=LINE('',#1708,#165);
#104=LINE('',#1710,#166);
#105=LINE('',#1712,#167);
#106=LINE('',#1718,#168);
#107=LINE('',#1722,#169);
#108=LINE('',#1724,#170);
#109=LINE('',#1726,#171);
#110=LINE('',#1728,#172);
#111=LINE('',#1729,#173);
#112=LINE('',#1732,#174);
#113=LINE('',#1734,#175);
#114=LINE('',#1736,#176);
#115=LINE('',#1739,#177);
#116=LINE('',#1741,#178);
#117=LINE('',#1743,#179);
#118=LINE('',#1745,#180);
#119=LINE('',#1747,#181);
#120=LINE('',#1749,#182);
#121=LINE('',#1751,#183);
#122=LINE('',#1754,#184);
#123=LINE('',#1756,#185);
#124=LINE('',#1758,#186);
#125=LINE('',#1760,#187);
#126=LINE('',#1763,#188);
#127=LINE('',#1765,#189);
#128=LINE('',#1767,#190);
#129=LINE('',#1769,#191);
#130=LINE('',#1772,#192);
#131=LINE('',#1774,#193);
#132=LINE('',#1776,#194);
#133=LINE('',#1783,#195);
#134=LINE('',#1784,#196);
#135=LINE('',#1803,#197);
#136=LINE('',#1806,#198);
#137=LINE('',#1808,#199);
#138=LINE('',#1809,#200);
#139=LINE('',#1812,#201);
#140=LINE('',#1814,#202);
#141=LINE('',#1816,#203);
#142=LINE('',#1818,#204);
#143=LINE('',#1822,#205);
#144=VECTOR('',#1268,1.);
#145=VECTOR('',#1269,1.);
#146=VECTOR('',#1270,1.);
#147=VECTOR('',#1271,1.);
#148=VECTOR('',#1276,1.);
#149=VECTOR('',#1277,1.);
#150=VECTOR('',#1278,1.);
#151=VECTOR('',#1279,1.);
#152=VECTOR('',#1310,1.);
#153=VECTOR('',#1311,1.);
#154=VECTOR('',#1312,1.);
#155=VECTOR('',#1313,1.);
#156=VECTOR('',#1314,1.);
#157=VECTOR('',#1315,1.);
#158=VECTOR('',#1318,1.);
#159=VECTOR('',#1319,1.);
#160=VECTOR('',#1320,1.);
#161=VECTOR('',#1321,1.);
#162=VECTOR('',#1324,1.);
#163=VECTOR('',#1325,1.);
#164=VECTOR('',#1326,1.);
#165=VECTOR('',#1327,1.);
#166=VECTOR('',#1328,1.);
#167=VECTOR('',#1329,1.);
#168=VECTOR('',#1336,1.);
#169=VECTOR('',#1339,1.);
#170=VECTOR('',#1340,1.);
#171=VECTOR('',#1341,1.);
#172=VECTOR('',#1342,1.);
#173=VECTOR('',#1343,1.);
#174=VECTOR('',#1344,1.);
#175=VECTOR('',#1345,1.);
#176=VECTOR('',#1348,1.);
#177=VECTOR('',#1349,1.);
#178=VECTOR('',#1350,1.);
#179=VECTOR('',#1351,1.);
#180=VECTOR('',#1354,1.);
#181=VECTOR('',#1355,1.);
#182=VECTOR('',#1356,1.);
#183=VECTOR('',#1359,1.);
#184=VECTOR('',#1360,1.);
#185=VECTOR('',#1361,1.);
#186=VECTOR('',#1362,1.);
#187=VECTOR('',#1365,1.);
#188=VECTOR('',#1366,1.);
#189=VECTOR('',#1367,1.);
#190=VECTOR('',#1368,1.);
#191=VECTOR('',#1371,1.);
#192=VECTOR('',#1372,1.);
#193=VECTOR('',#1373,1.);
#194=VECTOR('',#1374,1.);
#195=VECTOR('',#1383,1.);
#196=VECTOR('',#1384,1.);
#197=VECTOR('',#1405,1.);
#198=VECTOR('',#1406,1.);
#199=VECTOR('',#1407,1.);
#200=VECTOR('',#1408,1.);
#201=VECTOR('',#1409,1.);
#202=VECTOR('',#1410,1.);
#203=VECTOR('',#1411,1.);
#204=VECTOR('',#1412,1.);
#205=VECTOR('',#1415,1.);
#206=ORIENTED_EDGE('',*,*,#486,.T.);
#207=ORIENTED_EDGE('',*,*,#487,.T.);
#208=ORIENTED_EDGE('',*,*,#488,.T.);
#209=ORIENTED_EDGE('',*,*,#489,.T.);
#210=ORIENTED_EDGE('',*,*,#490,.T.);
#211=ORIENTED_EDGE('',*,*,#491,.T.);
#212=ORIENTED_EDGE('',*,*,#492,.T.);
#213=ORIENTED_EDGE('',*,*,#493,.T.);
#214=ORIENTED_EDGE('',*,*,#494,.T.);
#215=ORIENTED_EDGE('',*,*,#495,.F.);
#216=ORIENTED_EDGE('',*,*,#496,.T.);
#217=ORIENTED_EDGE('',*,*,#497,.T.);
#218=ORIENTED_EDGE('',*,*,#498,.T.);
#219=ORIENTED_EDGE('',*,*,#494,.F.);
#220=ORIENTED_EDGE('',*,*,#499,.F.);
#221=ORIENTED_EDGE('',*,*,#500,.T.);
#222=ORIENTED_EDGE('',*,*,#501,.T.);
#223=ORIENTED_EDGE('',*,*,#502,.T.);
#224=ORIENTED_EDGE('',*,*,#503,.T.);
#225=ORIENTED_EDGE('',*,*,#504,.T.);
#226=ORIENTED_EDGE('',*,*,#505,.T.);
#227=ORIENTED_EDGE('',*,*,#506,.T.);
#228=ORIENTED_EDGE('',*,*,#507,.T.);
#229=ORIENTED_EDGE('',*,*,#508,.T.);
#230=ORIENTED_EDGE('',*,*,#509,.T.);
#231=ORIENTED_EDGE('',*,*,#510,.T.);
#232=ORIENTED_EDGE('',*,*,#511,.T.);
#233=ORIENTED_EDGE('',*,*,#512,.T.);
#234=ORIENTED_EDGE('',*,*,#513,.T.);
#235=ORIENTED_EDGE('',*,*,#514,.T.);
#236=ORIENTED_EDGE('',*,*,#515,.T.);
#237=ORIENTED_EDGE('',*,*,#516,.T.);
#238=ORIENTED_EDGE('',*,*,#517,.T.);
#239=ORIENTED_EDGE('',*,*,#518,.T.);
#240=ORIENTED_EDGE('',*,*,#519,.T.);
#241=ORIENTED_EDGE('',*,*,#520,.T.);
#242=ORIENTED_EDGE('',*,*,#521,.T.);
#243=ORIENTED_EDGE('',*,*,#522,.T.);
#244=ORIENTED_EDGE('',*,*,#523,.T.);
#245=ORIENTED_EDGE('',*,*,#524,.T.);
#246=ORIENTED_EDGE('',*,*,#525,.T.);
#247=ORIENTED_EDGE('',*,*,#495,.T.);
#248=ORIENTED_EDGE('',*,*,#526,.T.);
#249=ORIENTED_EDGE('',*,*,#527,.F.);
#250=ORIENTED_EDGE('',*,*,#528,.T.);
#251=ORIENTED_EDGE('',*,*,#529,.T.);
#252=ORIENTED_EDGE('',*,*,#530,.T.);
#253=ORIENTED_EDGE('',*,*,#531,.T.);
#254=ORIENTED_EDGE('',*,*,#532,.T.);
#255=ORIENTED_EDGE('',*,*,#533,.T.);
#256=ORIENTED_EDGE('',*,*,#534,.T.);
#257=ORIENTED_EDGE('',*,*,#535,.T.);
#258=ORIENTED_EDGE('',*,*,#536,.T.);
#259=ORIENTED_EDGE('',*,*,#537,.F.);
#260=ORIENTED_EDGE('',*,*,#538,.T.);
#261=ORIENTED_EDGE('',*,*,#537,.T.);
#262=ORIENTED_EDGE('',*,*,#539,.T.);
#263=ORIENTED_EDGE('',*,*,#540,.F.);
#264=ORIENTED_EDGE('',*,*,#541,.T.);
#265=ORIENTED_EDGE('',*,*,#542,.T.);
#266=ORIENTED_EDGE('',*,*,#543,.T.);
#267=ORIENTED_EDGE('',*,*,#544,.T.);
#268=ORIENTED_EDGE('',*,*,#545,.T.);
#269=ORIENTED_EDGE('',*,*,#546,.T.);
#270=ORIENTED_EDGE('',*,*,#547,.T.);
#271=ORIENTED_EDGE('',*,*,#548,.T.);
#272=ORIENTED_EDGE('',*,*,#549,.T.);
#273=ORIENTED_EDGE('',*,*,#550,.T.);
#274=ORIENTED_EDGE('',*,*,#551,.T.);
#275=ORIENTED_EDGE('',*,*,#552,.T.);
#276=ORIENTED_EDGE('',*,*,#553,.T.);
#277=ORIENTED_EDGE('',*,*,#554,.T.);
#278=ORIENTED_EDGE('',*,*,#555,.T.);
#279=ORIENTED_EDGE('',*,*,#540,.T.);
#280=ORIENTED_EDGE('',*,*,#556,.T.);
#281=ORIENTED_EDGE('',*,*,#535,.F.);
#282=ORIENTED_EDGE('',*,*,#557,.T.);
#283=ORIENTED_EDGE('',*,*,#558,.T.);
#284=ORIENTED_EDGE('',*,*,#559,.T.);
#285=ORIENTED_EDGE('',*,*,#560,.T.);
#286=ORIENTED_EDGE('',*,*,#561,.T.);
#287=ORIENTED_EDGE('',*,*,#562,.T.);
#288=ORIENTED_EDGE('',*,*,#563,.T.);
#289=ORIENTED_EDGE('',*,*,#564,.T.);
#290=ORIENTED_EDGE('',*,*,#565,.T.);
#291=ORIENTED_EDGE('',*,*,#566,.T.);
#292=ORIENTED_EDGE('',*,*,#567,.T.);
#293=ORIENTED_EDGE('',*,*,#568,.T.);
#294=ORIENTED_EDGE('',*,*,#569,.T.);
#295=ORIENTED_EDGE('',*,*,#570,.T.);
#296=ORIENTED_EDGE('',*,*,#571,.T.);
#297=ORIENTED_EDGE('',*,*,#572,.T.);
#298=ORIENTED_EDGE('',*,*,#573,.T.);
#299=ORIENTED_EDGE('',*,*,#574,.F.);
#300=ORIENTED_EDGE('',*,*,#575,.T.);
#301=ORIENTED_EDGE('',*,*,#499,.T.);
#302=ORIENTED_EDGE('',*,*,#576,.F.);
#303=ORIENTED_EDGE('',*,*,#577,.F.);
#304=ORIENTED_EDGE('',*,*,#578,.F.);
#305=ORIENTED_EDGE('',*,*,#577,.T.);
#306=ORIENTED_EDGE('',*,*,#544,.F.);
#307=ORIENTED_EDGE('',*,*,#579,.F.);
#308=ORIENTED_EDGE('',*,*,#546,.F.);
#309=ORIENTED_EDGE('',*,*,#578,.T.);
#310=ORIENTED_EDGE('',*,*,#549,.F.);
#311=ORIENTED_EDGE('',*,*,#580,.F.);
#312=ORIENTED_EDGE('',*,*,#572,.F.);
#313=ORIENTED_EDGE('',*,*,#576,.T.);
#314=ORIENTED_EDGE('',*,*,#571,.F.);
#315=ORIENTED_EDGE('',*,*,#581,.F.);
#316=ORIENTED_EDGE('',*,*,#545,.F.);
#317=ORIENTED_EDGE('',*,*,#582,.F.);
#318=ORIENTED_EDGE('',*,*,#579,.T.);
#319=ORIENTED_EDGE('',*,*,#583,.F.);
#320=ORIENTED_EDGE('',*,*,#584,.F.);
#321=ORIENTED_EDGE('',*,*,#580,.T.);
#322=ORIENTED_EDGE('',*,*,#585,.F.);
#323=ORIENTED_EDGE('',*,*,#586,.F.);
#324=ORIENTED_EDGE('',*,*,#587,.F.);
#325=ORIENTED_EDGE('',*,*,#581,.T.);
#326=ORIENTED_EDGE('',*,*,#587,.T.);
#327=ORIENTED_EDGE('',*,*,#511,.F.);
#328=ORIENTED_EDGE('',*,*,#588,.F.);
#329=ORIENTED_EDGE('',*,*,#542,.F.);
#330=ORIENTED_EDGE('',*,*,#583,.T.);
#331=ORIENTED_EDGE('',*,*,#543,.F.);
#332=ORIENTED_EDGE('',*,*,#589,.F.);
#333=ORIENTED_EDGE('',*,*,#530,.F.);
#334=ORIENTED_EDGE('',*,*,#582,.T.);
#335=ORIENTED_EDGE('',*,*,#529,.F.);
#336=ORIENTED_EDGE('',*,*,#590,.F.);
#337=ORIENTED_EDGE('',*,*,#547,.F.);
#338=ORIENTED_EDGE('',*,*,#585,.T.);
#339=ORIENTED_EDGE('',*,*,#548,.F.);
#340=ORIENTED_EDGE('',*,*,#591,.F.);
#341=ORIENTED_EDGE('',*,*,#550,.F.);
#342=ORIENTED_EDGE('',*,*,#584,.T.);
#343=ORIENTED_EDGE('',*,*,#553,.F.);
#344=ORIENTED_EDGE('',*,*,#592,.F.);
#345=ORIENTED_EDGE('',*,*,#573,.F.);
#346=ORIENTED_EDGE('',*,*,#586,.T.);
#347=ORIENTED_EDGE('',*,*,#570,.F.);
#348=ORIENTED_EDGE('',*,*,#593,.F.);
#349=ORIENTED_EDGE('',*,*,#512,.F.);
#350=ORIENTED_EDGE('',*,*,#589,.T.);
#351=ORIENTED_EDGE('',*,*,#588,.T.);
#352=ORIENTED_EDGE('',*,*,#594,.F.);
#353=ORIENTED_EDGE('',*,*,#591,.T.);
#354=ORIENTED_EDGE('',*,*,#590,.T.);
#355=ORIENTED_EDGE('',*,*,#595,.F.);
#356=ORIENTED_EDGE('',*,*,#574,.T.);
#357=ORIENTED_EDGE('',*,*,#592,.T.);
#358=ORIENTED_EDGE('',*,*,#596,.F.);
#359=ORIENTED_EDGE('',*,*,#597,.F.);
#360=ORIENTED_EDGE('',*,*,#598,.F.);
#361=ORIENTED_EDGE('',*,*,#593,.T.);
#362=ORIENTED_EDGE('',*,*,#599,.F.);
#363=ORIENTED_EDGE('',*,*,#594,.T.);
#364=ORIENTED_EDGE('',*,*,#510,.F.);
#365=ORIENTED_EDGE('',*,*,#600,.F.);
#366=ORIENTED_EDGE('',*,*,#531,.F.);
#367=ORIENTED_EDGE('',*,*,#595,.T.);
#368=ORIENTED_EDGE('',*,*,#528,.F.);
#369=ORIENTED_EDGE('',*,*,#601,.F.);
#370=ORIENTED_EDGE('',*,*,#551,.F.);
#371=ORIENTED_EDGE('',*,*,#596,.T.);
#372=ORIENTED_EDGE('',*,*,#552,.F.);
#373=ORIENTED_EDGE('',*,*,#602,.F.);
#374=ORIENTED_EDGE('',*,*,#522,.F.);
#375=ORIENTED_EDGE('',*,*,#597,.T.);
#376=ORIENTED_EDGE('',*,*,#521,.F.);
#377=ORIENTED_EDGE('',*,*,#603,.F.);
#378=ORIENTED_EDGE('',*,*,#575,.F.);
#379=ORIENTED_EDGE('',*,*,#599,.T.);
#380=ORIENTED_EDGE('',*,*,#569,.F.);
#381=ORIENTED_EDGE('',*,*,#604,.F.);
#382=ORIENTED_EDGE('',*,*,#517,.F.);
#383=ORIENTED_EDGE('',*,*,#598,.T.);
#384=ORIENTED_EDGE('',*,*,#516,.F.);
#385=ORIENTED_EDGE('',*,*,#605,.F.);
#386=ORIENTED_EDGE('',*,*,#513,.F.);
#387=ORIENTED_EDGE('',*,*,#606,.F.);
#388=ORIENTED_EDGE('',*,*,#508,.F.);
#389=ORIENTED_EDGE('',*,*,#607,.F.);
#390=ORIENTED_EDGE('',*,*,#493,.F.);
#391=ORIENTED_EDGE('',*,*,#600,.T.);
#392=ORIENTED_EDGE('',*,*,#509,.F.);
#393=ORIENTED_EDGE('',*,*,#608,.F.);
#394=ORIENTED_EDGE('',*,*,#496,.F.);
#395=ORIENTED_EDGE('',*,*,#601,.T.);
#396=ORIENTED_EDGE('',*,*,#527,.T.);
#397=ORIENTED_EDGE('',*,*,#609,.F.);
#398=ORIENTED_EDGE('',*,*,#602,.T.);
#399=ORIENTED_EDGE('',*,*,#604,.T.);
#400=ORIENTED_EDGE('',*,*,#603,.T.);
#401=ORIENTED_EDGE('',*,*,#610,.F.);
#402=ORIENTED_EDGE('',*,*,#607,.T.);
#403=ORIENTED_EDGE('',*,*,#605,.T.);
#404=ORIENTED_EDGE('',*,*,#611,.F.);
#405=ORIENTED_EDGE('',*,*,#608,.T.);
#406=ORIENTED_EDGE('',*,*,#606,.T.);
#407=ORIENTED_EDGE('',*,*,#612,.F.);
#408=ORIENTED_EDGE('',*,*,#609,.T.);
#409=ORIENTED_EDGE('',*,*,#526,.F.);
#410=ORIENTED_EDGE('',*,*,#613,.F.);
#411=ORIENTED_EDGE('',*,*,#523,.F.);
#412=ORIENTED_EDGE('',*,*,#610,.T.);
#413=ORIENTED_EDGE('',*,*,#520,.F.);
#414=ORIENTED_EDGE('',*,*,#614,.F.);
#415=ORIENTED_EDGE('',*,*,#514,.F.);
#416=ORIENTED_EDGE('',*,*,#611,.T.);
#417=ORIENTED_EDGE('',*,*,#515,.F.);
#418=ORIENTED_EDGE('',*,*,#615,.F.);
#419=ORIENTED_EDGE('',*,*,#490,.F.);
#420=ORIENTED_EDGE('',*,*,#612,.T.);
#421=ORIENTED_EDGE('',*,*,#492,.F.);
#422=ORIENTED_EDGE('',*,*,#616,.F.);
#423=ORIENTED_EDGE('',*,*,#497,.F.);
#424=ORIENTED_EDGE('',*,*,#613,.T.);
#425=ORIENTED_EDGE('',*,*,#498,.F.);
#426=ORIENTED_EDGE('',*,*,#617,.F.);
#427=ORIENTED_EDGE('',*,*,#518,.F.);
#428=ORIENTED_EDGE('',*,*,#615,.T.);
#429=ORIENTED_EDGE('',*,*,#614,.T.);
#430=ORIENTED_EDGE('',*,*,#618,.F.);
#431=ORIENTED_EDGE('',*,*,#617,.T.);
#432=ORIENTED_EDGE('',*,*,#616,.T.);
#433=ORIENTED_EDGE('',*,*,#619,.F.);
#434=ORIENTED_EDGE('',*,*,#618,.T.);
#435=ORIENTED_EDGE('',*,*,#519,.F.);
#436=ORIENTED_EDGE('',*,*,#619,.T.);
#437=ORIENTED_EDGE('',*,*,#491,.F.);
#438=ORIENTED_EDGE('',*,*,#620,.F.);
#439=ORIENTED_EDGE('',*,*,#532,.F.);
#440=ORIENTED_EDGE('',*,*,#621,.F.);
#441=ORIENTED_EDGE('',*,*,#539,.F.);
#442=ORIENTED_EDGE('',*,*,#621,.T.);
#443=ORIENTED_EDGE('',*,*,#534,.F.);
#444=ORIENTED_EDGE('',*,*,#622,.F.);
#445=ORIENTED_EDGE('',*,*,#556,.F.);
#446=ORIENTED_EDGE('',*,*,#620,.T.);
#447=ORIENTED_EDGE('',*,*,#536,.F.);
#448=ORIENTED_EDGE('',*,*,#622,.T.);
#449=ORIENTED_EDGE('',*,*,#533,.F.);
#450=ORIENTED_EDGE('',*,*,#623,.F.);
#451=ORIENTED_EDGE('',*,*,#557,.F.);
#452=ORIENTED_EDGE('',*,*,#624,.F.);
#453=ORIENTED_EDGE('',*,*,#568,.F.);
#454=ORIENTED_EDGE('',*,*,#624,.T.);
#455=ORIENTED_EDGE('',*,*,#538,.F.);
#456=ORIENTED_EDGE('',*,*,#625,.F.);
#457=ORIENTED_EDGE('',*,*,#566,.F.);
#458=ORIENTED_EDGE('',*,*,#623,.T.);
#459=ORIENTED_EDGE('',*,*,#567,.F.);
#460=ORIENTED_EDGE('',*,*,#625,.T.);
#461=ORIENTED_EDGE('',*,*,#541,.F.);
#462=ORIENTED_EDGE('',*,*,#560,.F.);
#463=ORIENTED_EDGE('',*,*,#554,.F.);
#464=ORIENTED_EDGE('',*,*,#555,.F.);
#465=ORIENTED_EDGE('',*,*,#524,.F.);
#466=ORIENTED_EDGE('',*,*,#561,.F.);
#467=ORIENTED_EDGE('',*,*,#558,.F.);
#468=ORIENTED_EDGE('',*,*,#559,.F.);
#469=ORIENTED_EDGE('',*,*,#525,.F.);
#470=ORIENTED_EDGE('',*,*,#502,.F.);
#471=ORIENTED_EDGE('',*,*,#562,.F.);
#472=ORIENTED_EDGE('',*,*,#504,.F.);
#473=ORIENTED_EDGE('',*,*,#563,.F.);
#474=ORIENTED_EDGE('',*,*,#506,.F.);
#475=ORIENTED_EDGE('',*,*,#564,.F.);
#476=ORIENTED_EDGE('',*,*,#500,.F.);
#477=ORIENTED_EDGE('',*,*,#565,.F.);
#478=ORIENTED_EDGE('',*,*,#507,.F.);
#479=ORIENTED_EDGE('',*,*,#486,.F.);
#480=ORIENTED_EDGE('',*,*,#505,.F.);
#481=ORIENTED_EDGE('',*,*,#487,.F.);
#482=ORIENTED_EDGE('',*,*,#503,.F.);
#483=ORIENTED_EDGE('',*,*,#488,.F.);
#484=ORIENTED_EDGE('',*,*,#501,.F.);
#485=ORIENTED_EDGE('',*,*,#489,.F.);
#486=EDGE_CURVE('',#626,#626,#712,.T.);
#487=EDGE_CURVE('',#627,#627,#713,.T.);
#488=EDGE_CURVE('',#628,#628,#714,.T.);
#489=EDGE_CURVE('',#629,#629,#715,.T.);
#490=EDGE_CURVE('',#630,#631,#82,.F.);
#491=EDGE_CURVE('',#631,#632,#83,.T.);
#492=EDGE_CURVE('',#632,#633,#84,.T.);
#493=EDGE_CURVE('',#633,#630,#85,.F.);
#494=EDGE_CURVE('',#634,#634,#716,.T.);
#495=EDGE_CURVE('',#635,#636,#86,.T.);
#496=EDGE_CURVE('',#635,#637,#87,.T.);
#497=EDGE_CURVE('',#637,#638,#88,.F.);
#498=EDGE_CURVE('',#638,#636,#89,.F.);
#499=EDGE_CURVE('',#639,#639,#717,.T.);
#500=EDGE_CURVE('',#640,#640,#718,.T.);
#501=EDGE_CURVE('',#641,#641,#719,.F.);
#502=EDGE_CURVE('',#642,#642,#720,.T.);
#503=EDGE_CURVE('',#643,#643,#721,.F.);
#504=EDGE_CURVE('',#644,#644,#722,.T.);
#505=EDGE_CURVE('',#645,#645,#723,.F.);
#506=EDGE_CURVE('',#646,#646,#724,.T.);
#507=EDGE_CURVE('',#647,#647,#725,.F.);
#508=EDGE_CURVE('',#648,#649,#90,.T.);
#509=EDGE_CURVE('',#649,#650,#91,.F.);
#510=EDGE_CURVE('',#650,#651,#92,.T.);
#511=EDGE_CURVE('',#651,#652,#93,.F.);
#512=EDGE_CURVE('',#652,#653,#94,.F.);
#513=EDGE_CURVE('',#653,#648,#95,.T.);
#514=EDGE_CURVE('',#654,#655,#96,.T.);
#515=EDGE_CURVE('',#655,#656,#97,.T.);
#516=EDGE_CURVE('',#656,#657,#98,.F.);
#517=EDGE_CURVE('',#657,#654,#99,.T.);
#518=EDGE_CURVE('',#658,#659,#100,.T.);
#519=EDGE_CURVE('',#659,#660,#101,.F.);
#520=EDGE_CURVE('',#660,#661,#102,.F.);
#521=EDGE_CURVE('',#661,#662,#103,.T.);
#522=EDGE_CURVE('',#662,#663,#104,.T.);
#523=EDGE_CURVE('',#663,#658,#105,.F.);
#524=EDGE_CURVE('',#664,#664,#726,.T.);
#525=EDGE_CURVE('',#665,#665,#727,.T.);
#526=EDGE_CURVE('',#636,#666,#106,.T.);
#527=EDGE_CURVE('',#667,#666,#728,.F.);
#528=EDGE_CURVE('',#667,#668,#107,.F.);
#529=EDGE_CURVE('',#668,#669,#108,.F.);
#530=EDGE_CURVE('',#669,#670,#109,.F.);
#531=EDGE_CURVE('',#670,#635,#110,.F.);
#532=EDGE_CURVE('',#671,#672,#111,.T.);
#533=EDGE_CURVE('',#672,#673,#112,.T.);
#534=EDGE_CURVE('',#673,#671,#113,.T.);
#535=EDGE_CURVE('',#674,#675,#114,.T.);
#536=EDGE_CURVE('',#675,#676,#115,.F.);
#537=EDGE_CURVE('',#677,#676,#116,.T.);
#538=EDGE_CURVE('',#677,#674,#117,.T.);
#539=EDGE_CURVE('',#676,#678,#118,.F.);
#540=EDGE_CURVE('',#679,#678,#119,.T.);
#541=EDGE_CURVE('',#679,#677,#120,.T.);
#542=EDGE_CURVE('',#680,#681,#121,.T.);
#543=EDGE_CURVE('',#681,#682,#122,.T.);
#544=EDGE_CURVE('',#682,#683,#123,.F.);
#545=EDGE_CURVE('',#683,#680,#124,.F.);
#546=EDGE_CURVE('',#684,#685,#125,.T.);
#547=EDGE_CURVE('',#685,#686,#126,.T.);
#548=EDGE_CURVE('',#686,#687,#127,.F.);
#549=EDGE_CURVE('',#687,#684,#128,.F.);
#550=EDGE_CURVE('',#688,#689,#129,.T.);
#551=EDGE_CURVE('',#689,#690,#130,.T.);
#552=EDGE_CURVE('',#690,#691,#131,.F.);
#553=EDGE_CURVE('',#691,#688,#132,.F.);
#554=EDGE_CURVE('',#692,#692,#729,.T.);
#555=EDGE_CURVE('',#693,#693,#730,.F.);
#556=EDGE_CURVE('',#678,#675,#133,.F.);
#557=EDGE_CURVE('',#674,#679,#134,.T.);
#558=EDGE_CURVE('',#694,#694,#731,.T.);
#559=EDGE_CURVE('',#695,#695,#732,.F.);
#560=EDGE_CURVE('',#696,#696,#733,.F.);
#561=EDGE_CURVE('',#697,#697,#734,.F.);
#562=EDGE_CURVE('',#698,#698,#735,.F.);
#563=EDGE_CURVE('',#699,#699,#736,.F.);
#564=EDGE_CURVE('',#700,#700,#737,.F.);
#565=EDGE_CURVE('',#701,#701,#738,.F.);
#566=EDGE_CURVE('',#702,#703,#135,.F.);
#567=EDGE_CURVE('',#703,#704,#136,.F.);
#568=EDGE_CURVE('',#704,#702,#137,.F.);
#569=EDGE_CURVE('',#705,#706,#138,.F.);
#570=EDGE_CURVE('',#706,#707,#139,.T.);
#571=EDGE_CURVE('',#707,#708,#140,.T.);
#572=EDGE_CURVE('',#708,#709,#141,.T.);
#573=EDGE_CURVE('',#709,#710,#142,.T.);
#574=EDGE_CURVE('',#711,#710,#739,.T.);
#575=EDGE_CURVE('',#711,#705,#143,.F.);
#576=EDGE_CURVE('',#683,#708,#740,.F.);
#577=EDGE_CURVE('',#684,#683,#741,.F.);
#578=EDGE_CURVE('',#708,#684,#742,.F.);
#579=EDGE_CURVE('',#685,#682,#743,.T.);
#580=EDGE_CURVE('',#709,#687,#744,.T.);
#581=EDGE_CURVE('',#680,#707,#745,.T.);
#582=EDGE_CURVE('',#685,#669,#746,.F.);
#583=EDGE_CURVE('',#669,#682,#747,.F.);
#584=EDGE_CURVE('',#709,#688,#748,.F.);
#585=EDGE_CURVE('',#688,#687,#749,.F.);
#586=EDGE_CURVE('',#652,#707,#750,.F.);
#587=EDGE_CURVE('',#680,#652,#751,.F.);
#588=EDGE_CURVE('',#681,#651,#752,.T.);
#589=EDGE_CURVE('',#670,#681,#753,.T.);
#590=EDGE_CURVE('',#686,#668,#754,.T.);
#591=EDGE_CURVE('',#689,#686,#755,.T.);
#592=EDGE_CURVE('',#710,#691,#756,.T.);
#593=EDGE_CURVE('',#653,#706,#757,.T.);
#594=EDGE_CURVE('',#670,#651,#758,.F.);
#595=EDGE_CURVE('',#689,#668,#759,.F.);
#596=EDGE_CURVE('',#662,#691,#760,.T.);
#597=EDGE_CURVE('',#711,#662,#761,.F.);
#598=EDGE_CURVE('',#653,#657,#762,.F.);
#599=EDGE_CURVE('',#657,#706,#763,.F.);
#600=EDGE_CURVE('',#635,#650,#24,.F.);
#601=EDGE_CURVE('',#690,#667,#764,.T.);
#602=EDGE_CURVE('',#663,#690,#765,.T.);
#603=EDGE_CURVE('',#705,#661,#766,.T.);
#604=EDGE_CURVE('',#654,#705,#767,.T.);
#605=EDGE_CURVE('',#648,#656,#768,.T.);
#606=EDGE_CURVE('',#649,#633,#769,.T.);
#607=EDGE_CURVE('',#630,#648,#770,.T.);
#608=EDGE_CURVE('',#637,#649,#771,.T.);
#609=EDGE_CURVE('',#663,#666,#772,.F.);
#610=EDGE_CURVE('',#654,#661,#773,.F.);
#611=EDGE_CURVE('',#630,#656,#774,.F.);
#612=EDGE_CURVE('',#637,#633,#775,.F.);
#613=EDGE_CURVE('',#658,#636,#25,.T.);
#614=EDGE_CURVE('',#655,#660,#776,.T.);
#615=EDGE_CURVE('',#631,#655,#777,.T.);
#616=EDGE_CURVE('',#638,#632,#778,.T.);
#617=EDGE_CURVE('',#659,#638,#779,.T.);
#618=EDGE_CURVE('',#631,#660,#780,.F.);
#619=EDGE_CURVE('',#659,#632,#781,.F.);
#620=EDGE_CURVE('',#672,#676,#26,.F.);
#621=EDGE_CURVE('',#678,#671,#27,.T.);
#622=EDGE_CURVE('',#675,#673,#28,.T.);
#623=EDGE_CURVE('',#679,#704,#29,.T.);
#624=EDGE_CURVE('',#702,#674,#30,.F.);
#625=EDGE_CURVE('',#703,#677,#31,.F.);
#626=VERTEX_POINT('',#1629);
#627=VERTEX_POINT('',#1631);
#628=VERTEX_POINT('',#1633);
#629=VERTEX_POINT('',#1635);
#630=VERTEX_POINT('',#1637);
#631=VERTEX_POINT('',#1638);
#632=VERTEX_POINT('',#1640);
#633=VERTEX_POINT('',#1642);
#634=VERTEX_POINT('',#1645);
#635=VERTEX_POINT('',#1648);
#636=VERTEX_POINT('',#1649);
#637=VERTEX_POINT('',#1651);
#638=VERTEX_POINT('',#1653);
#639=VERTEX_POINT('',#1657);
#640=VERTEX_POINT('',#1660);
#641=VERTEX_POINT('',#1662);
#642=VERTEX_POINT('',#1665);
#643=VERTEX_POINT('',#1667);
#644=VERTEX_POINT('',#1670);
#645=VERTEX_POINT('',#1672);
#646=VERTEX_POINT('',#1675);
#647=VERTEX_POINT('',#1677);
#648=VERTEX_POINT('',#1680);
#649=VERTEX_POINT('',#1681);
#650=VERTEX_POINT('',#1683);
#651=VERTEX_POINT('',#1685);
#652=VERTEX_POINT('',#1687);
#653=VERTEX_POINT('',#1689);
#654=VERTEX_POINT('',#1693);
#655=VERTEX_POINT('',#1694);
#656=VERTEX_POINT('',#1696);
#657=VERTEX_POINT('',#1698);
#658=VERTEX_POINT('',#1702);
#659=VERTEX_POINT('',#1703);
#660=VERTEX_POINT('',#1705);
#661=VERTEX_POINT('',#1707);
#662=VERTEX_POINT('',#1709);
#663=VERTEX_POINT('',#1711);
#664=VERTEX_POINT('',#1715);
#665=VERTEX_POINT('',#1717);
#666=VERTEX_POINT('',#1719);
#667=VERTEX_POINT('',#1721);
#668=VERTEX_POINT('',#1723);
#669=VERTEX_POINT('',#1725);
#670=VERTEX_POINT('',#1727);
#671=VERTEX_POINT('',#1730);
#672=VERTEX_POINT('',#1731);
#673=VERTEX_POINT('',#1733);
#674=VERTEX_POINT('',#1737);
#675=VERTEX_POINT('',#1738);
#676=VERTEX_POINT('',#1740);
#677=VERTEX_POINT('',#1742);
#678=VERTEX_POINT('',#1746);
#679=VERTEX_POINT('',#1748);
#680=VERTEX_POINT('',#1752);
#681=VERTEX_POINT('',#1753);
#682=VERTEX_POINT('',#1755);
#683=VERTEX_POINT('',#1757);
#684=VERTEX_POINT('',#1761);
#685=VERTEX_POINT('',#1762);
#686=VERTEX_POINT('',#1764);
#687=VERTEX_POINT('',#1766);
#688=VERTEX_POINT('',#1770);
#689=VERTEX_POINT('',#1771);
#690=VERTEX_POINT('',#1773);
#691=VERTEX_POINT('',#1775);
#692=VERTEX_POINT('',#1779);
#693=VERTEX_POINT('',#1781);
#694=VERTEX_POINT('',#1787);
#695=VERTEX_POINT('',#1789);
#696=VERTEX_POINT('',#1792);
#697=VERTEX_POINT('',#1794);
#698=VERTEX_POINT('',#1796);
#699=VERTEX_POINT('',#1798);
#700=VERTEX_POINT('',#1800);
#701=VERTEX_POINT('',#1802);
#702=VERTEX_POINT('',#1804);
#703=VERTEX_POINT('',#1805);
#704=VERTEX_POINT('',#1807);
#705=VERTEX_POINT('',#1810);
#706=VERTEX_POINT('',#1811);
#707=VERTEX_POINT('',#1813);
#708=VERTEX_POINT('',#1815);
#709=VERTEX_POINT('',#1817);
#710=VERTEX_POINT('',#1819);
#711=VERTEX_POINT('',#1821);
#712=CIRCLE('',#1104,0.0027);
#713=CIRCLE('',#1105,0.0027);
#714=CIRCLE('',#1106,0.0027);
#715=CIRCLE('',#1107,0.0027);
#716=CIRCLE('',#1108,0.0171);
#717=CIRCLE('',#1111,0.0171);
#718=CIRCLE('',#1113,0.0026);
#719=CIRCLE('',#1114,0.0026);
#720=CIRCLE('',#1116,0.0026);
#721=CIRCLE('',#1117,0.0026);
#722=CIRCLE('',#1119,0.0026);
#723=CIRCLE('',#1120,0.0026);
#724=CIRCLE('',#1122,0.0026);
#725=CIRCLE('',#1123,0.0026);
#726=CIRCLE('',#1128,0.0042);
#727=CIRCLE('',#1129,0.0042);
#728=CIRCLE('',#1130,0.001);
#729=CIRCLE('',#1137,0.0041);
#730=CIRCLE('',#1138,0.0041);
#731=CIRCLE('',#1141,0.0041);
#732=CIRCLE('',#1142,0.0041);
#733=CIRCLE('',#1144,0.0042);
#734=CIRCLE('',#1145,0.0042);
#735=CIRCLE('',#1146,0.00269999999999997);
#736=CIRCLE('',#1147,0.00269999999999996);
#737=CIRCLE('',#1148,0.00269999999999996);
#738=CIRCLE('',#1149,0.00269999999999997);
#739=CIRCLE('',#1150,0.001);
#740=CIRCLE('',#1152,0.0005);
#741=CIRCLE('',#1153,0.0005);
#742=CIRCLE('',#1154,0.0005);
#743=CIRCLE('',#1156,0.0005);
#744=CIRCLE('',#1158,0.0005);
#745=CIRCLE('',#1160,0.0005);
#746=CIRCLE('',#1162,0.0005);
#747=CIRCLE('',#1163,0.0005);
#748=CIRCLE('',#1165,0.0005);
#749=CIRCLE('',#1166,0.0005);
#750=CIRCLE('',#1168,0.0005);
#751=CIRCLE('',#1169,0.0005);
#752=CIRCLE('',#1171,0.0005);
#753=CIRCLE('',#1173,0.0005);
#754=CIRCLE('',#1175,0.0005);
#755=CIRCLE('',#1177,0.0005);
#756=CIRCLE('',#1179,0.0005);
#757=CIRCLE('',#1181,0.0005);
#758=CIRCLE('',#1183,0.0005);
#759=CIRCLE('',#1185,0.0005);
#760=CIRCLE('',#1187,0.0005);
#761=CIRCLE('',#1188,0.0005);
#762=CIRCLE('',#1190,0.0005);
#763=CIRCLE('',#1191,0.0005);
#764=CIRCLE('',#1195,0.0005);
#765=CIRCLE('',#1197,0.0005);
#766=CIRCLE('',#1199,0.0005);
#767=CIRCLE('',#1201,0.0005);
#768=CIRCLE('',#1203,0.0005);
#769=CIRCLE('',#1205,0.0005);
#770=CIRCLE('',#1206,0.0005);
#771=CIRCLE('',#1208,0.0005);
#772=CIRCLE('',#1210,0.0005);
#773=CIRCLE('',#1212,0.0005);
#774=CIRCLE('',#1214,0.0005);
#775=CIRCLE('',#1216,0.0005);
#776=CIRCLE('',#1220,0.0005);
#777=CIRCLE('',#1222,0.0005);
#778=CIRCLE('',#1224,0.0005);
#779=CIRCLE('',#1226,0.0005);
#780=CIRCLE('',#1228,0.0005);
#781=CIRCLE('',#1230,0.0005);
#782=EDGE_LOOP('',(#206));
#783=EDGE_LOOP('',(#207));
#784=EDGE_LOOP('',(#208));
#785=EDGE_LOOP('',(#209));
#786=EDGE_LOOP('',(#210,#211,#212,#213));
#787=EDGE_LOOP('',(#214));
#788=EDGE_LOOP('',(#215,#216,#217,#218));
#789=EDGE_LOOP('',(#219));
#790=EDGE_LOOP('',(#220));
#791=EDGE_LOOP('',(#221));
#792=EDGE_LOOP('',(#222));
#793=EDGE_LOOP('',(#223));
#794=EDGE_LOOP('',(#224));
#795=EDGE_LOOP('',(#225));
#796=EDGE_LOOP('',(#226));
#797=EDGE_LOOP('',(#227));
#798=EDGE_LOOP('',(#228));
#799=EDGE_LOOP('',(#229,#230,#231,#232,#233,#234));
#800=EDGE_LOOP('',(#235,#236,#237,#238));
#801=EDGE_LOOP('',(#239,#240,#241,#242,#243,#244));
#802=EDGE_LOOP('',(#245));
#803=EDGE_LOOP('',(#246));
#804=EDGE_LOOP('',(#247,#248,#249,#250,#251,#252,#253));
#805=EDGE_LOOP('',(#254,#255,#256));
#806=EDGE_LOOP('',(#257,#258,#259,#260));
#807=EDGE_LOOP('',(#261,#262,#263,#264));
#808=EDGE_LOOP('',(#265,#266,#267,#268));
#809=EDGE_LOOP('',(#269,#270,#271,#272));
#810=EDGE_LOOP('',(#273,#274,#275,#276));
#811=EDGE_LOOP('',(#277));
#812=EDGE_LOOP('',(#278));
#813=EDGE_LOOP('',(#279,#280,#281,#282));
#814=EDGE_LOOP('',(#283));
#815=EDGE_LOOP('',(#284));
#816=EDGE_LOOP('',(#285));
#817=EDGE_LOOP('',(#286));
#818=EDGE_LOOP('',(#287));
#819=EDGE_LOOP('',(#288));
#820=EDGE_LOOP('',(#289));
#821=EDGE_LOOP('',(#290));
#822=EDGE_LOOP('',(#291,#292,#293));
#823=EDGE_LOOP('',(#294,#295,#296,#297,#298,#299,#300));
#824=EDGE_LOOP('',(#301));
#825=EDGE_LOOP('',(#302,#303,#304));
#826=EDGE_LOOP('',(#305,#306,#307,#308));
#827=EDGE_LOOP('',(#309,#310,#311,#312));
#828=EDGE_LOOP('',(#313,#314,#315,#316));
#829=EDGE_LOOP('',(#317,#318,#319));
#830=EDGE_LOOP('',(#320,#321,#322));
#831=EDGE_LOOP('',(#323,#324,#325));
#832=EDGE_LOOP('',(#326,#327,#328,#329));
#833=EDGE_LOOP('',(#330,#331,#332,#333));
#834=EDGE_LOOP('',(#334,#335,#336,#337));
#835=EDGE_LOOP('',(#338,#339,#340,#341));
#836=EDGE_LOOP('',(#342,#343,#344,#345));
#837=EDGE_LOOP('',(#346,#347,#348,#349));
#838=EDGE_LOOP('',(#350,#351,#352));
#839=EDGE_LOOP('',(#353,#354,#355));
#840=EDGE_LOOP('',(#356,#357,#358,#359));
#841=EDGE_LOOP('',(#360,#361,#362));
#842=EDGE_LOOP('',(#363,#364,#365,#366));
#843=EDGE_LOOP('',(#367,#368,#369,#370));
#844=EDGE_LOOP('',(#371,#372,#373,#374));
#845=EDGE_LOOP('',(#375,#376,#377,#378));
#846=EDGE_LOOP('',(#379,#380,#381,#382));
#847=EDGE_LOOP('',(#383,#384,#385,#386));
#848=EDGE_LOOP('',(#387,#388,#389,#390));
#849=EDGE_LOOP('',(#391,#392,#393,#394));
#850=EDGE_LOOP('',(#395,#396,#397,#398));
#851=EDGE_LOOP('',(#399,#400,#401));
#852=EDGE_LOOP('',(#402,#403,#404));
#853=EDGE_LOOP('',(#405,#406,#407));
#854=EDGE_LOOP('',(#408,#409,#410,#411));
#855=EDGE_LOOP('',(#412,#413,#414,#415));
#856=EDGE_LOOP('',(#416,#417,#418,#419));
#857=EDGE_LOOP('',(#420,#421,#422,#423));
#858=EDGE_LOOP('',(#424,#425,#426,#427));
#859=EDGE_LOOP('',(#428,#429,#430));
#860=EDGE_LOOP('',(#431,#432,#433));
#861=EDGE_LOOP('',(#434,#435,#436,#437));
#862=EDGE_LOOP('',(#438,#439,#440,#441));
#863=EDGE_LOOP('',(#442,#443,#444,#445));
#864=EDGE_LOOP('',(#446,#447,#448,#449));
#865=EDGE_LOOP('',(#450,#451,#452,#453));
#866=EDGE_LOOP('',(#454,#455,#456,#457));
#867=EDGE_LOOP('',(#458,#459,#460,#461));
#868=EDGE_LOOP('',(#462));
#869=EDGE_LOOP('',(#463));
#870=EDGE_LOOP('',(#464));
#871=EDGE_LOOP('',(#465));
#872=EDGE_LOOP('',(#466));
#873=EDGE_LOOP('',(#467));
#874=EDGE_LOOP('',(#468));
#875=EDGE_LOOP('',(#469));
#876=EDGE_LOOP('',(#470));
#877=EDGE_LOOP('',(#471));
#878=EDGE_LOOP('',(#472));
#879=EDGE_LOOP('',(#473));
#880=EDGE_LOOP('',(#474));
#881=EDGE_LOOP('',(#475));
#882=EDGE_LOOP('',(#476));
#883=EDGE_LOOP('',(#477));
#884=EDGE_LOOP('',(#478));
#885=EDGE_LOOP('',(#479));
#886=EDGE_LOOP('',(#480));
#887=EDGE_LOOP('',(#481));
#888=EDGE_LOOP('',(#482));
#889=EDGE_LOOP('',(#483));
#890=EDGE_LOOP('',(#484));
#891=EDGE_LOOP('',(#485));
#892=FACE_BOUND('',#782,.T.);
#893=FACE_BOUND('',#783,.T.);
#894=FACE_BOUND('',#784,.T.);
#895=FACE_BOUND('',#785,.T.);
#896=FACE_BOUND('',#786,.T.);
#897=FACE_BOUND('',#787,.T.);
#898=FACE_BOUND('',#788,.T.);
#899=FACE_BOUND('',#789,.T.);
#900=FACE_BOUND('',#790,.T.);
#901=FACE_BOUND('',#791,.T.);
#902=FACE_BOUND('',#792,.T.);
#903=FACE_BOUND('',#793,.T.);
#904=FACE_BOUND('',#794,.T.);
#905=FACE_BOUND('',#795,.T.);
#906=FACE_BOUND('',#796,.T.);
#907=FACE_BOUND('',#797,.T.);
#908=FACE_BOUND('',#798,.T.);
#909=FACE_BOUND('',#799,.T.);
#910=FACE_BOUND('',#800,.T.);
#911=FACE_BOUND('',#801,.T.);
#912=FACE_BOUND('',#802,.T.);
#913=FACE_BOUND('',#803,.T.);
#914=FACE_BOUND('',#804,.T.);
#915=FACE_BOUND('',#805,.T.);
#916=FACE_BOUND('',#806,.T.);
#917=FACE_BOUND('',#807,.T.);
#918=FACE_BOUND('',#808,.T.);
#919=FACE_BOUND('',#809,.T.);
#920=FACE_BOUND('',#810,.T.);
#921=FACE_BOUND('',#811,.T.);
#922=FACE_BOUND('',#812,.T.);
#923=FACE_BOUND('',#813,.T.);
#924=FACE_BOUND('',#814,.T.);
#925=FACE_BOUND('',#815,.T.);
#926=FACE_BOUND('',#816,.T.);
#927=FACE_BOUND('',#817,.T.);
#928=FACE_BOUND('',#818,.T.);
#929=FACE_BOUND('',#819,.T.);
#930=FACE_BOUND('',#820,.T.);
#931=FACE_BOUND('',#821,.T.);
#932=FACE_BOUND('',#822,.T.);
#933=FACE_BOUND('',#823,.T.);
#934=FACE_BOUND('',#824,.T.);
#935=FACE_BOUND('',#825,.T.);
#936=FACE_BOUND('',#826,.T.);
#937=FACE_BOUND('',#827,.T.);
#938=FACE_BOUND('',#828,.T.);
#939=FACE_BOUND('',#829,.T.);
#940=FACE_BOUND('',#830,.T.);
#941=FACE_BOUND('',#831,.T.);
#942=FACE_BOUND('',#832,.T.);
#943=FACE_BOUND('',#833,.T.);
#944=FACE_BOUND('',#834,.T.);
#945=FACE_BOUND('',#835,.T.);
#946=FACE_BOUND('',#836,.T.);
#947=FACE_BOUND('',#837,.T.);
#948=FACE_BOUND('',#838,.T.);
#949=FACE_BOUND('',#839,.T.);
#950=FACE_BOUND('',#840,.T.);
#951=FACE_BOUND('',#841,.T.);
#952=FACE_BOUND('',#842,.T.);
#953=FACE_BOUND('',#843,.T.);
#954=FACE_BOUND('',#844,.T.);
#955=FACE_BOUND('',#845,.T.);
#956=FACE_BOUND('',#846,.T.);
#957=FACE_BOUND('',#847,.T.);
#958=FACE_BOUND('',#848,.T.);
#959=FACE_BOUND('',#849,.T.);
#960=FACE_BOUND('',#850,.T.);
#961=FACE_BOUND('',#851,.T.);
#962=FACE_BOUND('',#852,.T.);
#963=FACE_BOUND('',#853,.T.);
#964=FACE_BOUND('',#854,.T.);
#965=FACE_BOUND('',#855,.T.);
#966=FACE_BOUND('',#856,.T.);
#967=FACE_BOUND('',#857,.T.);
#968=FACE_BOUND('',#858,.T.);
#969=FACE_BOUND('',#859,.T.);
#970=FACE_BOUND('',#860,.T.);
#971=FACE_BOUND('',#861,.T.);
#972=FACE_BOUND('',#862,.T.);
#973=FACE_BOUND('',#863,.T.);
#974=FACE_BOUND('',#864,.T.);
#975=FACE_BOUND('',#865,.T.);
#976=FACE_BOUND('',#866,.T.);
#977=FACE_BOUND('',#867,.T.);
#978=FACE_BOUND('',#868,.T.);
#979=FACE_BOUND('',#869,.T.);
#980=FACE_BOUND('',#870,.T.);
#981=FACE_BOUND('',#871,.T.);
#982=FACE_BOUND('',#872,.T.);
#983=FACE_BOUND('',#873,.T.);
#984=FACE_BOUND('',#874,.T.);
#985=FACE_BOUND('',#875,.T.);
#986=FACE_BOUND('',#876,.T.);
#987=FACE_BOUND('',#877,.T.);
#988=FACE_BOUND('',#878,.T.);
#989=FACE_BOUND('',#879,.T.);
#990=FACE_BOUND('',#880,.T.);
#991=FACE_BOUND('',#881,.T.);
#992=FACE_BOUND('',#882,.T.);
#993=FACE_BOUND('',#883,.T.);
#994=FACE_BOUND('',#884,.T.);
#995=FACE_BOUND('',#885,.T.);
#996=FACE_BOUND('',#886,.T.);
#997=FACE_BOUND('',#887,.T.);
#998=FACE_BOUND('',#888,.T.);
#999=FACE_BOUND('',#889,.T.);
#1000=FACE_BOUND('',#890,.T.);
#1001=FACE_BOUND('',#891,.T.);
#1002=PLANE('',#1103);
#1003=PLANE('',#1109);
#1004=PLANE('',#1124);
#1005=PLANE('',#1125);
#1006=PLANE('',#1126);
#1007=PLANE('',#1127);
#1008=PLANE('',#1131);
#1009=PLANE('',#1132);
#1010=PLANE('',#1133);
#1011=PLANE('',#1134);
#1012=PLANE('',#1135);
#1013=PLANE('',#1139);
#1014=PLANE('',#1143);
#1015=ADVANCED_FACE('',(#892,#893,#894,#895,#896,#897),#1002,.F.);
#1016=ADVANCED_FACE('',(#898),#1003,.T.);
#1017=ADVANCED_FACE('',(#899,#900),#46,.F.);
#1018=ADVANCED_FACE('',(#901,#902),#47,.F.);
#1019=ADVANCED_FACE('',(#903,#904),#48,.F.);
#1020=ADVANCED_FACE('',(#905,#906),#49,.F.);
#1021=ADVANCED_FACE('',(#907,#908),#50,.F.);
#1022=ADVANCED_FACE('',(#909),#1004,.F.);
#1023=ADVANCED_FACE('',(#910),#1005,.F.);
#1024=ADVANCED_FACE('',(#911),#1006,.T.);
#1025=ADVANCED_FACE('',(#912,#913,#914,#915),#1007,.F.);
#1026=ADVANCED_FACE('',(#916),#1008,.T.);
#1027=ADVANCED_FACE('',(#917),#1009,.T.);
#1028=ADVANCED_FACE('',(#918),#1010,.F.);
#1029=ADVANCED_FACE('',(#919),#1011,.F.);
#1030=ADVANCED_FACE('',(#920),#1012,.F.);
#1031=ADVANCED_FACE('',(#921,#922),#51,.F.);
#1032=ADVANCED_FACE('',(#923),#1013,.T.);
#1033=ADVANCED_FACE('',(#924,#925),#52,.F.);
#1034=ADVANCED_FACE('',(#926,#927,#928,#929,#930,#931,#932,#933,#934),#1014,
 .T.);
#1035=ADVANCED_FACE('',(#935),#34,.T.);
#1036=ADVANCED_FACE('',(#936),#53,.T.);
#1037=ADVANCED_FACE('',(#937),#54,.T.);
#1038=ADVANCED_FACE('',(#938),#55,.T.);
#1039=ADVANCED_FACE('',(#939),#35,.T.);
#1040=ADVANCED_FACE('',(#940),#36,.T.);
#1041=ADVANCED_FACE('',(#941),#37,.T.);
#1042=ADVANCED_FACE('',(#942),#56,.T.);
#1043=ADVANCED_FACE('',(#943),#57,.T.);
#1044=ADVANCED_FACE('',(#944),#58,.T.);
#1045=ADVANCED_FACE('',(#945),#59,.T.);
#1046=ADVANCED_FACE('',(#946),#60,.T.);
#1047=ADVANCED_FACE('',(#947),#61,.T.);
#1048=ADVANCED_FACE('',(#948),#38,.T.);
#1049=ADVANCED_FACE('',(#949),#39,.T.);
#1050=ADVANCED_FACE('',(#950),#32,.T.);
#1051=ADVANCED_FACE('',(#951),#40,.T.);
#1052=ADVANCED_FACE('',(#952),#62,.T.);
#1053=ADVANCED_FACE('',(#953),#63,.T.);
#1054=ADVANCED_FACE('',(#954),#64,.F.);
#1055=ADVANCED_FACE('',(#955),#65,.T.);
#1056=ADVANCED_FACE('',(#956),#66,.T.);
#1057=ADVANCED_FACE('',(#957),#67,.T.);
#1058=ADVANCED_FACE('',(#958),#68,.T.);
#1059=ADVANCED_FACE('',(#959),#69,.T.);
#1060=ADVANCED_FACE('',(#960),#33,.T.);
#1061=ADVANCED_FACE('',(#961),#41,.T.);
#1062=ADVANCED_FACE('',(#962),#42,.T.);
#1063=ADVANCED_FACE('',(#963),#43,.T.);
#1064=ADVANCED_FACE('',(#964),#70,.T.);
#1065=ADVANCED_FACE('',(#965),#71,.T.);
#1066=ADVANCED_FACE('',(#966),#72,.T.);
#1067=ADVANCED_FACE('',(#967),#73,.T.);
#1068=ADVANCED_FACE('',(#968),#74,.T.);
#1069=ADVANCED_FACE('',(#969),#44,.T.);
#1070=ADVANCED_FACE('',(#970),#45,.T.);
#1071=ADVANCED_FACE('',(#971),#75,.T.);
#1072=ADVANCED_FACE('',(#972),#76,.T.);
#1073=ADVANCED_FACE('',(#973),#77,.T.);
#1074=ADVANCED_FACE('',(#974),#78,.T.);
#1075=ADVANCED_FACE('',(#975),#79,.T.);
#1076=ADVANCED_FACE('',(#976),#80,.T.);
#1077=ADVANCED_FACE('',(#977),#81,.T.);
#1078=ADVANCED_FACE('',(#978,#979),#12,.F.);
#1079=ADVANCED_FACE('',(#980,#981),#13,.F.);
#1080=ADVANCED_FACE('',(#982,#983),#14,.F.);
#1081=ADVANCED_FACE('',(#984,#985),#15,.F.);
#1082=ADVANCED_FACE('',(#986,#987),#16,.F.);
#1083=ADVANCED_FACE('',(#988,#989),#17,.F.);
#1084=ADVANCED_FACE('',(#990,#991),#18,.F.);
#1085=ADVANCED_FACE('',(#992,#993),#19,.F.);
#1086=ADVANCED_FACE('',(#994,#995),#20,.F.);
#1087=ADVANCED_FACE('',(#996,#997),#21,.F.);
#1088=ADVANCED_FACE('',(#998,#999),#22,.F.);
#1089=ADVANCED_FACE('',(#1000,#1001),#23,.F.);
#1090=CLOSED_SHELL('',(#1015,#1016,#1017,#1018,#1019,#1020,#1021,#1022,
#1023,#1024,#1025,#1026,#1027,#1028,#1029,#1030,#1031,#1032,#1033,#1034,
#1035,#1036,#1037,#1038,#1039,#1040,#1041,#1042,#1043,#1044,#1045,#1046,
#1047,#1048,#1049,#1050,#1051,#1052,#1053,#1054,#1055,#1056,#1057,#1058,
#1059,#1060,#1061,#1062,#1063,#1064,#1065,#1066,#1067,#1068,#1069,#1070,
#1071,#1072,#1073,#1074,#1075,#1076,#1077,#1078,#1079,#1080,#1081,#1082,
#1083,#1084,#1085,#1086,#1087,#1088,#1089));
#1091=STYLED_ITEM('',(#1092),#1099);
#1092=PRESENTATION_STYLE_ASSIGNMENT((#1093));
#1093=SURFACE_STYLE_USAGE(.BOTH.,#1094);
#1094=SURFACE_SIDE_STYLE('',(#1095));
#1095=SURFACE_STYLE_FILL_AREA(#1096);
#1096=FILL_AREA_STYLE('',(#1097));
#1097=FILL_AREA_STYLE_COLOUR('',#1098);
#1098=COLOUR_RGB('',0.615686274509804,0.811764705882353,0.929411764705882);
#1099=MANIFOLD_SOLID_BREP('BallScrewHolder-Front',#1090);
#1100=SHAPE_DEFINITION_REPRESENTATION(#1934,#1101);
#1101=SHAPE_REPRESENTATION('BallScrewHolder-Front',(#1102),#1929);
#1102=AXIS2_PLACEMENT_3D('',#1626,#1256,#1257);
#1103=AXIS2_PLACEMENT_3D('',#1627,#1258,#1259);
#1104=AXIS2_PLACEMENT_3D('',#1628,#1260,#1261);
#1105=AXIS2_PLACEMENT_3D('',#1630,#1262,#1263);
#1106=AXIS2_PLACEMENT_3D('',#1632,#1264,#1265);
#1107=AXIS2_PLACEMENT_3D('',#1634,#1266,#1267);
#1108=AXIS2_PLACEMENT_3D('',#1644,#1272,#1273);
#1109=AXIS2_PLACEMENT_3D('',#1646,#1274,#1275);
#1110=AXIS2_PLACEMENT_3D('',#1655,#1280,#1281);
#1111=AXIS2_PLACEMENT_3D('',#1656,#1282,#1283);
#1112=AXIS2_PLACEMENT_3D('',#1658,#1284,#1285);
#1113=AXIS2_PLACEMENT_3D('',#1659,#1286,#1287);
#1114=AXIS2_PLACEMENT_3D('',#1661,#1288,#1289);
#1115=AXIS2_PLACEMENT_3D('',#1663,#1290,#1291);
#1116=AXIS2_PLACEMENT_3D('',#1664,#1292,#1293);
#1117=AXIS2_PLACEMENT_3D('',#1666,#1294,#1295);
#1118=AXIS2_PLACEMENT_3D('',#1668,#1296,#1297);
#1119=AXIS2_PLACEMENT_3D('',#1669,#1298,#1299);
#1120=AXIS2_PLACEMENT_3D('',#1671,#1300,#1301);
#1121=AXIS2_PLACEMENT_3D('',#1673,#1302,#1303);
#1122=AXIS2_PLACEMENT_3D('',#1674,#1304,#1305);
#1123=AXIS2_PLACEMENT_3D('',#1676,#1306,#1307);
#1124=AXIS2_PLACEMENT_3D('',#1678,#1308,#1309);
#1125=AXIS2_PLACEMENT_3D('',#1691,#1316,#1317);
#1126=AXIS2_PLACEMENT_3D('',#1700,#1322,#1323);
#1127=AXIS2_PLACEMENT_3D('',#1713,#1330,#1331);
#1128=AXIS2_PLACEMENT_3D('',#1714,#1332,#1333);
#1129=AXIS2_PLACEMENT_3D('',#1716,#1334,#1335);
#1130=AXIS2_PLACEMENT_3D('',#1720,#1337,#1338);
#1131=AXIS2_PLACEMENT_3D('',#1735,#1346,#1347);
#1132=AXIS2_PLACEMENT_3D('',#1744,#1352,#1353);
#1133=AXIS2_PLACEMENT_3D('',#1750,#1357,#1358);
#1134=AXIS2_PLACEMENT_3D('',#1759,#1363,#1364);
#1135=AXIS2_PLACEMENT_3D('',#1768,#1369,#1370);
#1136=AXIS2_PLACEMENT_3D('',#1777,#1375,#1376);
#1137=AXIS2_PLACEMENT_3D('',#1778,#1377,#1378);
#1138=AXIS2_PLACEMENT_3D('',#1780,#1379,#1380);
#1139=AXIS2_PLACEMENT_3D('',#1782,#1381,#1382);
#1140=AXIS2_PLACEMENT_3D('',#1785,#1385,#1386);
#1141=AXIS2_PLACEMENT_3D('',#1786,#1387,#1388);
#1142=AXIS2_PLACEMENT_3D('',#1788,#1389,#1390);
#1143=AXIS2_PLACEMENT_3D('',#1790,#1391,#1392);
#1144=AXIS2_PLACEMENT_3D('',#1791,#1393,#1394);
#1145=AXIS2_PLACEMENT_3D('',#1793,#1395,#1396);
#1146=AXIS2_PLACEMENT_3D('',#1795,#1397,#1398);
#1147=AXIS2_PLACEMENT_3D('',#1797,#1399,#1400);
#1148=AXIS2_PLACEMENT_3D('',#1799,#1401,#1402);
#1149=AXIS2_PLACEMENT_3D('',#1801,#1403,#1404);
#1150=AXIS2_PLACEMENT_3D('',#1820,#1413,#1414);
#1151=AXIS2_PLACEMENT_3D('',#1823,#1416,#1417);
#1152=AXIS2_PLACEMENT_3D('',#1824,#1418,#1419);
#1153=AXIS2_PLACEMENT_3D('',#1825,#1420,#1421);
#1154=AXIS2_PLACEMENT_3D('',#1826,#1422,#1423);
#1155=AXIS2_PLACEMENT_3D('',#1827,#1424,#1425);
#1156=AXIS2_PLACEMENT_3D('',#1828,#1426,#1427);
#1157=AXIS2_PLACEMENT_3D('',#1829,#1428,#1429);
#1158=AXIS2_PLACEMENT_3D('',#1830,#1430,#1431);
#1159=AXIS2_PLACEMENT_3D('',#1831,#1432,#1433);
#1160=AXIS2_PLACEMENT_3D('',#1832,#1434,#1435);
#1161=AXIS2_PLACEMENT_3D('',#1833,#1436,#1437);
#1162=AXIS2_PLACEMENT_3D('',#1834,#1438,#1439);
#1163=AXIS2_PLACEMENT_3D('',#1835,#1440,#1441);
#1164=AXIS2_PLACEMENT_3D('',#1836,#1442,#1443);
#1165=AXIS2_PLACEMENT_3D('',#1837,#1444,#1445);
#1166=AXIS2_PLACEMENT_3D('',#1838,#1446,#1447);
#1167=AXIS2_PLACEMENT_3D('',#1839,#1448,#1449);
#1168=AXIS2_PLACEMENT_3D('',#1840,#1450,#1451);
#1169=AXIS2_PLACEMENT_3D('',#1841,#1452,#1453);
#1170=AXIS2_PLACEMENT_3D('',#1842,#1454,#1455);
#1171=AXIS2_PLACEMENT_3D('',#1843,#1456,#1457);
#1172=AXIS2_PLACEMENT_3D('',#1844,#1458,#1459);
#1173=AXIS2_PLACEMENT_3D('',#1845,#1460,#1461);
#1174=AXIS2_PLACEMENT_3D('',#1846,#1462,#1463);
#1175=AXIS2_PLACEMENT_3D('',#1847,#1464,#1465);
#1176=AXIS2_PLACEMENT_3D('',#1848,#1466,#1467);
#1177=AXIS2_PLACEMENT_3D('',#1849,#1468,#1469);
#1178=AXIS2_PLACEMENT_3D('',#1850,#1470,#1471);
#1179=AXIS2_PLACEMENT_3D('',#1851,#1472,#1473);
#1180=AXIS2_PLACEMENT_3D('',#1852,#1474,#1475);
#1181=AXIS2_PLACEMENT_3D('',#1853,#1476,#1477);
#1182=AXIS2_PLACEMENT_3D('',#1854,#1478,#1479);
#1183=AXIS2_PLACEMENT_3D('',#1855,#1480,#1481);
#1184=AXIS2_PLACEMENT_3D('',#1856,#1482,#1483);
#1185=AXIS2_PLACEMENT_3D('',#1857,#1484,#1485);
#1186=AXIS2_PLACEMENT_3D('',#1858,#1486,#1487);
#1187=AXIS2_PLACEMENT_3D('',#1859,#1488,#1489);
#1188=AXIS2_PLACEMENT_3D('',#1860,#1490,#1491);
#1189=AXIS2_PLACEMENT_3D('',#1861,#1492,#1493);
#1190=AXIS2_PLACEMENT_3D('',#1862,#1494,#1495);
#1191=AXIS2_PLACEMENT_3D('',#1863,#1496,#1497);
#1192=AXIS2_PLACEMENT_3D('',#1864,#1498,#1499);
#1193=AXIS2_PLACEMENT_3D('',#1865,#1500,#1501);
#1194=AXIS2_PLACEMENT_3D('',#1866,#1502,#1503);
#1195=AXIS2_PLACEMENT_3D('',#1867,#1504,#1505);
#1196=AXIS2_PLACEMENT_3D('',#1868,#1506,#1507);
#1197=AXIS2_PLACEMENT_3D('',#1869,#1508,#1509);
#1198=AXIS2_PLACEMENT_3D('',#1870,#1510,#1511);
#1199=AXIS2_PLACEMENT_3D('',#1871,#1512,#1513);
#1200=AXIS2_PLACEMENT_3D('',#1872,#1514,#1515);
#1201=AXIS2_PLACEMENT_3D('',#1873,#1516,#1517);
#1202=AXIS2_PLACEMENT_3D('',#1874,#1518,#1519);
#1203=AXIS2_PLACEMENT_3D('',#1875,#1520,#1521);
#1204=AXIS2_PLACEMENT_3D('',#1876,#1522,#1523);
#1205=AXIS2_PLACEMENT_3D('',#1877,#1524,#1525);
#1206=AXIS2_PLACEMENT_3D('',#1878,#1526,#1527);
#1207=AXIS2_PLACEMENT_3D('',#1879,#1528,#1529);
#1208=AXIS2_PLACEMENT_3D('',#1880,#1530,#1531);
#1209=AXIS2_PLACEMENT_3D('',#1881,#1532,#1533);
#1210=AXIS2_PLACEMENT_3D('',#1882,#1534,#1535);
#1211=AXIS2_PLACEMENT_3D('',#1883,#1536,#1537);
#1212=AXIS2_PLACEMENT_3D('',#1884,#1538,#1539);
#1213=AXIS2_PLACEMENT_3D('',#1885,#1540,#1541);
#1214=AXIS2_PLACEMENT_3D('',#1886,#1542,#1543);
#1215=AXIS2_PLACEMENT_3D('',#1887,#1544,#1545);
#1216=AXIS2_PLACEMENT_3D('',#1888,#1546,#1547);
#1217=AXIS2_PLACEMENT_3D('',#1889,#1548,#1549);
#1218=AXIS2_PLACEMENT_3D('',#1890,#1550,#1551);
#1219=AXIS2_PLACEMENT_3D('',#1891,#1552,#1553);
#1220=AXIS2_PLACEMENT_3D('',#1892,#1554,#1555);
#1221=AXIS2_PLACEMENT_3D('',#1893,#1556,#1557);
#1222=AXIS2_PLACEMENT_3D('',#1894,#1558,#1559);
#1223=AXIS2_PLACEMENT_3D('',#1895,#1560,#1561);
#1224=AXIS2_PLACEMENT_3D('',#1896,#1562,#1563);
#1225=AXIS2_PLACEMENT_3D('',#1897,#1564,#1565);
#1226=AXIS2_PLACEMENT_3D('',#1898,#1566,#1567);
#1227=AXIS2_PLACEMENT_3D('',#1899,#1568,#1569);
#1228=AXIS2_PLACEMENT_3D('',#1900,#1570,#1571);
#1229=AXIS2_PLACEMENT_3D('',#1901,#1572,#1573);
#1230=AXIS2_PLACEMENT_3D('',#1902,#1574,#1575);
#1231=AXIS2_PLACEMENT_3D('',#1903,#1576,#1577);
#1232=AXIS2_PLACEMENT_3D('',#1904,#1578,#1579);
#1233=AXIS2_PLACEMENT_3D('',#1905,#1580,#1581);
#1234=AXIS2_PLACEMENT_3D('',#1906,#1582,#1583);
#1235=AXIS2_PLACEMENT_3D('',#1907,#1584,#1585);
#1236=AXIS2_PLACEMENT_3D('',#1908,#1586,#1587);
#1237=AXIS2_PLACEMENT_3D('',#1909,#1588,#1589);
#1238=AXIS2_PLACEMENT_3D('',#1910,#1590,#1591);
#1239=AXIS2_PLACEMENT_3D('',#1911,#1592,#1593);
#1240=AXIS2_PLACEMENT_3D('',#1912,#1594,#1595);
#1241=AXIS2_PLACEMENT_3D('',#1913,#1596,#1597);
#1242=AXIS2_PLACEMENT_3D('',#1914,#1598,#1599);
#1243=AXIS2_PLACEMENT_3D('',#1915,#1600,#1601);
#1244=AXIS2_PLACEMENT_3D('',#1916,#1602,#1603);
#1245=AXIS2_PLACEMENT_3D('',#1917,#1604,#1605);
#1246=AXIS2_PLACEMENT_3D('',#1918,#1606,#1607);
#1247=AXIS2_PLACEMENT_3D('',#1919,#1608,#1609);
#1248=AXIS2_PLACEMENT_3D('',#1920,#1610,#1611);
#1249=AXIS2_PLACEMENT_3D('',#1921,#1612,#1613);
#1250=AXIS2_PLACEMENT_3D('',#1922,#1614,#1615);
#1251=AXIS2_PLACEMENT_3D('',#1923,#1616,#1617);
#1252=AXIS2_PLACEMENT_3D('',#1924,#1618,#1619);
#1253=AXIS2_PLACEMENT_3D('',#1925,#1620,#1621);
#1254=AXIS2_PLACEMENT_3D('',#1926,#1622,#1623);
#1255=AXIS2_PLACEMENT_3D('',#1927,#1624,#1625);
#1256=DIRECTION('',(0.,0.,1.));
#1257=DIRECTION('',(1.,0.,0.));
#1258=DIRECTION('',(-4.92638482671198E-16,1.,9.5162593681043E-18));
#1259=DIRECTION('',(1.,4.92638482671198E-16,4.68807557580848E-33));
#1260=DIRECTION('',(-4.92638482671198E-16,1.,9.5162593681043E-18));
#1261=DIRECTION('',(1.,4.92638482671198E-16,0.));
#1262=DIRECTION('',(-4.92638482671198E-16,1.,9.5162593681043E-18));
#1263=DIRECTION('',(1.,4.92638482671198E-16,0.));
#1264=DIRECTION('',(-4.92638482671198E-16,1.,9.5162593681043E-18));
#1265=DIRECTION('',(1.,4.92638482671198E-16,0.));
#1266=DIRECTION('',(-4.92638482671198E-16,1.,9.5162593681043E-18));
#1267=DIRECTION('',(1.,4.92638482671198E-16,0.));
#1268=DIRECTION('',(3.91291307093159E-38,9.5162593681043E-18,-1.));
#1269=DIRECTION('',(-1.,-4.92638482671198E-16,3.10509996984185E-39));
#1270=DIRECTION('',(3.91291307093159E-38,9.5162593681043E-18,-1.));
#1271=DIRECTION('',(-1.,-4.92638482671198E-16,3.10509996984185E-39));
#1272=DIRECTION('',(-4.92638482671198E-16,1.,9.5162593681043E-18));
#1273=DIRECTION('',(1.,4.92638482671198E-16,0.));
#1274=DIRECTION('',(-1.,-4.92638482671198E-16,-4.68811470493919E-33));
#1275=DIRECTION('',(-4.92638482671198E-16,1.,0.));
#1276=DIRECTION('',(-5.06082293376879E-33,7.56555246777895E-19,1.));
#1277=DIRECTION('',(4.92638482671198E-16,-1.,-9.5162593681043E-18));
#1278=DIRECTION('',(3.91291307093159E-38,9.5162593681043E-18,-1.));
#1279=DIRECTION('',(4.92638482671198E-16,-1.,-9.5162593681043E-18));
#1280=DIRECTION('',(4.92638482671198E-16,-1.,-9.5162593681043E-18));
#1281=DIRECTION('',(-1.,-4.92638482671198E-16,0.));
#1282=DIRECTION('',(2.42152431663282E-16,-1.,7.56555246777893E-19));
#1283=DIRECTION('',(-1.,-2.42152431663283E-16,0.));
#1284=DIRECTION('',(4.92638482671198E-16,-1.,-9.5162593681043E-18));
#1285=DIRECTION('',(-1.,-4.92638482671198E-16,0.));
#1286=DIRECTION('',(-4.92638482671207E-16,1.,0.));
#1287=DIRECTION('',(1.,4.92638482671207E-16,0.));
#1288=DIRECTION('',(-4.92638482671196E-16,1.,0.));
#1289=DIRECTION('',(1.,4.92638482671196E-16,0.));
#1290=DIRECTION('',(4.92638482671198E-16,-1.,-9.5162593681043E-18));
#1291=DIRECTION('',(-1.,-4.92638482671198E-16,0.));
#1292=DIRECTION('',(-4.926384826712E-16,1.,9.51625936810431E-18));
#1293=DIRECTION('',(1.,4.926384826712E-16,0.));
#1294=DIRECTION('',(-4.92638482671196E-16,1.,9.51625936810416E-18));
#1295=DIRECTION('',(1.,4.92638482671196E-16,0.));
#1296=DIRECTION('',(4.92638482671198E-16,-1.,-9.5162593681043E-18));
#1297=DIRECTION('',(-1.,-4.92638482671198E-16,0.));
#1298=DIRECTION('',(0.,1.,9.52912065661457E-18));
#1299=DIRECTION('',(0.,-9.52912065661457E-18,1.));
#1300=DIRECTION('',(0.,1.,9.52912065661127E-18));
#1301=DIRECTION('',(0.,-9.52912065661127E-18,1.));
#1302=DIRECTION('',(4.92638482671198E-16,-1.,-9.5162593681043E-18));
#1303=DIRECTION('',(-1.,-4.92638482671198E-16,0.));
#1304=DIRECTION('',(0.,1.,0.));
#1305=DIRECTION('',(1.,0.,0.));
#1306=DIRECTION('',(0.,1.,0.));
#1307=DIRECTION('',(1.,0.,0.));
#1308=DIRECTION('',(4.68807868090845E-33,-9.5162593681043E-18,1.));
#1309=DIRECTION('',(0.,-1.,-9.5162593681043E-18));
#1310=DIRECTION('',(-1.,-4.92638482671198E-16,3.10509996984185E-39));
#1311=DIRECTION('',(4.92638482671198E-16,-1.,-9.5162593681043E-18));
#1312=DIRECTION('',(-1.,-2.42152431663283E-16,2.38369333458351E-33));
#1313=DIRECTION('',(2.42152431663283E-16,-1.,-9.5162593681043E-18));
#1314=DIRECTION('',(-1.,-2.42152431663283E-16,2.38369333458351E-33));
#1315=DIRECTION('',(4.92638482671198E-16,-1.,-9.5162593681043E-18));
#1316=DIRECTION('',(-1.,-4.92638482671198E-16,-4.68811470493919E-33));
#1317=DIRECTION('',(-4.92638482671198E-16,1.,0.));
#1318=DIRECTION('',(4.92638482671198E-16,-1.,-9.5162593681043E-18));
#1319=DIRECTION('',(3.91291307093159E-38,9.5162593681043E-18,-1.));
#1320=DIRECTION('',(4.92638482671198E-16,-1.,-9.5162593681043E-18));
#1321=DIRECTION('',(-5.06082293376879E-33,7.56555246777895E-19,1.));
#1322=DIRECTION('',(4.68807868090845E-33,-9.5162593681043E-18,1.));
#1323=DIRECTION('',(0.,-1.,-9.5162593681043E-18));
#1324=DIRECTION('',(4.92638482671198E-16,-1.,-9.5162593681043E-18));
#1325=DIRECTION('',(-1.,-4.92638482671198E-16,3.10509996984185E-39));
#1326=DIRECTION('',(4.92638482671198E-16,-1.,-9.5162593681043E-18));
#1327=DIRECTION('',(-1.,-2.42152431663283E-16,2.38369333458351E-33));
#1328=DIRECTION('',(2.53452527739652E-16,-1.,-9.5162593681043E-18));
#1329=DIRECTION('',(-1.,-2.42152431663283E-16,2.38369333458351E-33));
#1330=DIRECTION('',(-2.42152431663283E-16,1.,-7.56555246777895E-19));
#1331=DIRECTION('',(1.,2.42152431663283E-16,-1.83201692694882E-34));
#1332=DIRECTION('',(-2.42152431663283E-16,1.,-7.56555246777895E-19));
#1333=DIRECTION('',(1.,2.42152431663283E-16,0.));
#1334=DIRECTION('',(-2.42152431663283E-16,1.,-7.56555246777895E-19));
#1335=DIRECTION('',(1.,2.42152431663283E-16,0.));
#1336=DIRECTION('',(-1.,-2.42152431663283E-16,2.38369333458351E-33));
#1337=DIRECTION('',(-2.42152431663283E-16,1.,-7.56555246777895E-19));
#1338=DIRECTION('',(1.,2.42152431663283E-16,0.));
#1339=DIRECTION('',(0.739940073395944,1.78669373926272E-16,-0.672672793996312));
#1340=DIRECTION('',(1.,2.42152431663283E-16,-1.20172386784852E-35));
#1341=DIRECTION('',(-1.83201692694882E-34,7.56555246777895E-19,1.));
#1342=DIRECTION('',(-1.,-2.42152431663283E-16,2.38369333458351E-33));
#1343=DIRECTION('',(-1.,-2.42152431663283E-16,-1.65135036575809E-35));
#1344=DIRECTION('',(-1.83201692694882E-34,7.56555246777895E-19,1.));
#1345=DIRECTION('',(0.754605522163505,1.82233126688833E-16,-0.656178714924787));
#1346=DIRECTION('',(1.,2.42152431663283E-16,0.));
#1347=DIRECTION('',(2.42152431663283E-16,-1.,0.));
#1348=DIRECTION('',(2.42152431663283E-16,-1.,7.56555246777895E-19));
#1349=DIRECTION('',(-1.83201692694882E-34,7.56555246777895E-19,1.));
#1350=DIRECTION('',(2.42152431663283E-16,-1.,7.56555246777895E-19));
#1351=DIRECTION('',(-1.83201692694882E-34,7.56555246777895E-19,1.));
#1352=DIRECTION('',(-1.99715196352462E-34,7.56555246777895E-19,1.));
#1353=DIRECTION('',(0.,-1.,7.56555246777895E-19));
#1354=DIRECTION('',(-1.,-2.42152431663283E-16,-1.65135036575809E-35));
#1355=DIRECTION('',(2.42152431663283E-16,-1.,7.56555246777895E-19));
#1356=DIRECTION('',(-1.,-2.42152431663283E-16,-1.65135036575809E-35));
#1357=DIRECTION('',(1.,2.42152431663283E-16,0.));
#1358=DIRECTION('',(2.42152431663283E-16,-1.,0.));
#1359=DIRECTION('',(2.42152431663283E-16,-1.,-9.5162593681043E-18));
#1360=DIRECTION('',(-1.83201692694882E-34,7.56555246777895E-19,1.));
#1361=DIRECTION('',(2.42152431663283E-16,-1.,7.56555246777895E-19));
#1362=DIRECTION('',(-1.83201692694882E-34,7.56555246777895E-19,1.));
#1363=DIRECTION('',(1.71184454016396E-34,-7.56555246777895E-19,-1.));
#1364=DIRECTION('',(0.,1.,-7.56555246777895E-19));
#1365=DIRECTION('',(2.42152431663283E-16,-1.,7.56555246777895E-19));
#1366=DIRECTION('',(1.,2.42152431663283E-16,-1.20172386784852E-35));
#1367=DIRECTION('',(2.42152431663283E-16,-1.,7.56555246777895E-19));
#1368=DIRECTION('',(1.,2.42152431663283E-16,-1.20172386784852E-35));
#1369=DIRECTION('',(-0.672672793996312,-1.6344915832477E-16,-0.739940073395944));
#1370=DIRECTION('',(-0.739940073395944,0.,0.672672793996312));
#1371=DIRECTION('',(2.42152431663283E-16,-1.,7.56555246777873E-19));
#1372=DIRECTION('',(0.739940073395944,1.78669373926272E-16,-0.672672793996312));
#1373=DIRECTION('',(2.53452527739652E-16,-1.,-9.51625936810428E-18));
#1374=DIRECTION('',(0.739940073395944,1.78669373926272E-16,-0.672672793996312));
#1375=DIRECTION('',(2.42152431663283E-16,-1.,7.56555246777895E-19));
#1376=DIRECTION('',(-1.,-2.42152431663283E-16,0.));
#1377=DIRECTION('',(0.,1.,0.));
#1378=DIRECTION('',(1.,0.,0.));
#1379=DIRECTION('',(0.,1.,0.));
#1380=DIRECTION('',(1.,0.,0.));
#1381=DIRECTION('',(-0.656178714924787,-1.59466172191765E-16,-0.754605522163505));
#1382=DIRECTION('',(-0.754605522163505,0.,0.656178714924787));
#1383=DIRECTION('',(0.754605522163505,1.82233126688833E-16,-0.656178714924787));
#1384=DIRECTION('',(0.754605522163505,1.82233126688833E-16,-0.656178714924787));
#1385=DIRECTION('',(2.42152431663283E-16,-1.,7.56555246777895E-19));
#1386=DIRECTION('',(-1.,-2.42152431663283E-16,0.));
#1387=DIRECTION('',(0.,1.,0.));
#1388=DIRECTION('',(1.,0.,0.));
#1389=DIRECTION('',(0.,1.,0.));
#1390=DIRECTION('',(1.,0.,0.));
#1391=DIRECTION('',(-2.42152431663283E-16,1.,-7.56555246777895E-19));
#1392=DIRECTION('',(1.,2.42152431663283E-16,-1.83201692694882E-34));
#1393=DIRECTION('',(-2.42152431663283E-16,1.,-7.56555246777895E-19));
#1394=DIRECTION('',(1.,2.42152431663283E-16,0.));
#1395=DIRECTION('',(-2.42152431663283E-16,1.,-7.56555246777895E-19));
#1396=DIRECTION('',(1.,2.42152431663283E-16,0.));
#1397=DIRECTION('',(-2.42152431663283E-16,1.,-7.56555246777895E-19));
#1398=DIRECTION('',(1.,2.42152431663283E-16,0.));
#1399=DIRECTION('',(-2.42152431663283E-16,1.,-7.56555246777895E-19));
#1400=DIRECTION('',(1.,2.42152431663283E-16,0.));
#1401=DIRECTION('',(-2.42152431663283E-16,1.,-7.56555246777895E-19));
#1402=DIRECTION('',(1.,2.42152431663283E-16,0.));
#1403=DIRECTION('',(-2.42152431663283E-16,1.,-7.56555246777895E-19));
#1404=DIRECTION('',(1.,2.42152431663283E-16,0.));
#1405=DIRECTION('',(-1.83201692694882E-34,7.56555246777895E-19,1.));
#1406=DIRECTION('',(-1.,-2.42152431663283E-16,-1.65135036575809E-35));
#1407=DIRECTION('',(0.754605522163505,1.82233126688833E-16,-0.656178714924787));
#1408=DIRECTION('',(-5.06082293376879E-33,7.56555246777895E-19,1.));
#1409=DIRECTION('',(-1.,-2.42152431663283E-16,2.38369333458351E-33));
#1410=DIRECTION('',(-1.83201692694882E-34,7.56555246777895E-19,1.));
#1411=DIRECTION('',(1.,2.42152431663283E-16,-1.20172386784852E-35));
#1412=DIRECTION('',(0.739940073395944,1.78669373926272E-16,-0.672672793996312));
#1413=DIRECTION('',(-2.42152431663283E-16,1.,-7.56555246777895E-19));
#1414=DIRECTION('',(1.,2.42152431663283E-16,0.));
#1415=DIRECTION('',(-1.,-2.42152431663283E-16,2.38369333458351E-33));
#1416=DIRECTION('',(0.,0.,1.));
#1417=DIRECTION('',(0.,-1.,0.));
#1418=DIRECTION('',(0.,0.,1.));
#1419=DIRECTION('',(0.,-1.,0.));
#1420=DIRECTION('',(0.,1.,0.));
#1421=DIRECTION('',(1.,0.,0.));
#1422=DIRECTION('',(-1.,0.,0.));
#1423=DIRECTION('',(0.,1.,0.));
#1424=DIRECTION('',(2.42152431663283E-16,-1.,7.56555246777895E-19));
#1425=DIRECTION('',(-1.,-2.42152431663283E-16,0.));
#1426=DIRECTION('',(1.73472347597681E-15,-1.,0.));
#1427=DIRECTION('',(-1.,-1.73472347597681E-15,0.));
#1428=DIRECTION('',(-1.,-2.42152431663283E-16,1.20172386784852E-35));
#1429=DIRECTION('',(-2.42152431663283E-16,1.,0.));
#1430=DIRECTION('',(1.,0.,0.));
#1431=DIRECTION('',(0.,-1.,0.));
#1432=DIRECTION('',(1.83201692694882E-34,-7.56555246777895E-19,-1.));
#1433=DIRECTION('',(0.,1.,-7.56555246777895E-19));
#1434=DIRECTION('',(0.,0.,-1.));
#1435=DIRECTION('',(0.,1.,0.));
#1436=DIRECTION('',(-1.,-1.73472347597681E-15,0.));
#1437=DIRECTION('',(-1.73472347597681E-15,1.,0.));
#1438=DIRECTION('',(-1.,0.,0.));
#1439=DIRECTION('',(0.,1.,0.));
#1440=DIRECTION('',(0.,0.,1.));
#1441=DIRECTION('',(0.,-1.,0.));
#1442=DIRECTION('',(0.,1.,0.));
#1443=DIRECTION('',(1.,0.,0.));
#1444=DIRECTION('',(-0.739940073395947,0.,0.672672793996309));
#1445=DIRECTION('',(0.672672793996309,0.,0.739940073395947));
#1446=DIRECTION('',(-5.15770369029171E-15,1.,0.));
#1447=DIRECTION('',(1.,5.15770369029171E-15,0.));
#1448=DIRECTION('',(-1.,0.,0.));
#1449=DIRECTION('',(0.,1.,0.));
#1450=DIRECTION('',(-1.,0.,0.));
#1451=DIRECTION('',(0.,1.,0.));
#1452=DIRECTION('',(-3.46944695195361E-15,1.,0.));
#1453=DIRECTION('',(1.,3.46944695195361E-15,0.));
#1454=DIRECTION('',(2.42152431663283E-16,-1.,-9.5162593681043E-18));
#1455=DIRECTION('',(-1.,-2.42152431663283E-16,0.));
#1456=DIRECTION('',(0.,-1.,-1.73472347597681E-15));
#1457=DIRECTION('',(0.,1.73472347597681E-15,-1.));
#1458=DIRECTION('',(-1.83201692694882E-34,7.56555246777895E-19,1.));
#1459=DIRECTION('',(0.,-1.,7.56555246777895E-19));
#1460=DIRECTION('',(0.,0.,-1.));
#1461=DIRECTION('',(0.,1.,0.));
#1462=DIRECTION('',(1.,2.42152431663283E-16,-1.20172386784852E-35));
#1463=DIRECTION('',(2.42152431663283E-16,-1.,0.));
#1464=DIRECTION('',(1.,1.38777878078145E-14,0.));
#1465=DIRECTION('',(1.38777878078145E-14,-1.,0.));
#1466=DIRECTION('',(2.42152431663283E-16,-1.,7.56555246777895E-19));
#1467=DIRECTION('',(-1.,-2.42152431663283E-16,0.));
#1468=DIRECTION('',(1.9081958235745E-15,-1.,-1.73472347597681E-15));
#1469=DIRECTION('',(-1.,-1.9081958235745E-15,0.));
#1470=DIRECTION('',(-0.739940073395944,-1.78669373926272E-16,0.672672793996312));
#1471=DIRECTION('',(0.672672793996312,0.,0.739940073395944));
#1472=DIRECTION('',(0.739940073395944,0.,-0.672672793996312));
#1473=DIRECTION('',(-0.672672793996312,0.,-0.739940073395944));
#1474=DIRECTION('',(1.,2.42152431663283E-16,-2.38369333458351E-33));
#1475=DIRECTION('',(2.42152431663283E-16,-1.,0.));
#1476=DIRECTION('',(1.,0.,0.));
#1477=DIRECTION('',(0.,-1.,0.));
#1478=DIRECTION('',(-1.,-1.73472347597681E-15,0.));
#1479=DIRECTION('',(-1.73472347597681E-15,1.,0.));
#1480=DIRECTION('',(-1.,0.,0.));
#1481=DIRECTION('',(0.,1.,0.));
#1482=DIRECTION('',(1.38777878078145E-14,-1.,0.));
#1483=DIRECTION('',(-1.,-1.38777878078145E-14,0.));
#1484=DIRECTION('',(-0.739940073395954,0.,0.672672793996301));
#1485=DIRECTION('',(0.672672793996301,0.,0.739940073395954));
#1486=DIRECTION('',(-2.42152431663283E-16,1.,-7.56555246777895E-19));
#1487=DIRECTION('',(1.,2.42152431663283E-16,0.));
#1488=DIRECTION('',(-2.42152431663283E-16,1.,-7.56555246777895E-19));
#1489=DIRECTION('',(1.,2.42152431663283E-16,0.));
#1490=DIRECTION('',(-1.,0.,0.));
#1491=DIRECTION('',(0.,1.,0.));
#1492=DIRECTION('',(0.,1.,0.));
#1493=DIRECTION('',(1.,0.,0.));
#1494=DIRECTION('',(0.,1.,3.46944695195361E-15));
#1495=DIRECTION('',(0.,-3.46944695195361E-15,1.));
#1496=DIRECTION('',(0.,0.,-1.));
#1497=DIRECTION('',(0.,1.,0.));
#1498=DIRECTION('',(-1.,-2.42152431663283E-16,2.38369333458351E-33));
#1499=DIRECTION('',(-2.42152431663283E-16,1.,0.));
#1500=DIRECTION('',(-0.707106781186548,0.707106781186547,6.72901153071656E-18));
#1501=DIRECTION('',(0.707106781186547,0.707106781186548,6.72901153071656E-18));
#1502=DIRECTION('',(0.739940073395944,1.78669373926272E-16,-0.672672793996312));
#1503=DIRECTION('',(-0.672672793996312,0.,-0.739940073395944));
#1504=DIRECTION('',(0.739940073395944,3.50070386218894E-16,-0.672672793996313));
#1505=DIRECTION('',(-0.672672793996313,0.,-0.739940073395944));
#1506=DIRECTION('',(2.53452527739652E-16,-1.,-9.51625936810431E-18));
#1507=DIRECTION('',(-1.,-2.53452527739652E-16,0.));
#1508=DIRECTION('',(-2.42152431663283E-16,1.,-7.56555246777895E-19));
#1509=DIRECTION('',(1.,2.42152431663283E-16,0.));
#1510=DIRECTION('',(-1.,-2.42152431663283E-16,2.38369333458351E-33));
#1511=DIRECTION('',(-2.42152431663283E-16,1.,0.));
#1512=DIRECTION('',(1.,0.,0.));
#1513=DIRECTION('',(0.,-1.,0.));
#1514=DIRECTION('',(5.06082293376879E-33,-7.56555246777895E-19,-1.));
#1515=DIRECTION('',(0.,1.,-7.56555246777895E-19));
#1516=DIRECTION('',(0.,-8.673617379884E-16,1.));
#1517=DIRECTION('',(0.,-1.,-8.673617379884E-16));
#1518=DIRECTION('',(4.92638482671198E-16,-1.,-9.5162593681043E-18));
#1519=DIRECTION('',(-1.,-4.92638482671198E-16,0.));
#1520=DIRECTION('',(6.50521303491302E-16,-1.,0.));
#1521=DIRECTION('',(-1.,-6.50521303491302E-16,0.));
#1522=DIRECTION('',(-1.,-4.92638482671198E-16,3.10509996984185E-39));
#1523=DIRECTION('',(-4.92638482671198E-16,1.,0.));
#1524=DIRECTION('',(-1.,-1.73472347597681E-15,0.));
#1525=DIRECTION('',(-1.73472347597681E-15,1.,0.));
#1526=DIRECTION('',(1.,0.,0.));
#1527=DIRECTION('',(0.,-1.,0.));
#1528=DIRECTION('',(-4.92638482671198E-16,1.,9.5162593681043E-18));
#1529=DIRECTION('',(1.,4.92638482671198E-16,0.));
#1530=DIRECTION('',(4.33680868994202E-16,-1.,-4.33680868994202E-16));
#1531=DIRECTION('',(-1.,-4.33680868994202E-16,0.));
#1532=DIRECTION('',(-2.42152431663283E-16,1.,-7.56555246777895E-19));
#1533=DIRECTION('',(1.,2.42152431663283E-16,0.));
#1534=DIRECTION('',(-1.,0.,0.));
#1535=DIRECTION('',(0.,1.,0.));
#1536=DIRECTION('',(0.,1.,0.));
#1537=DIRECTION('',(1.,0.,0.));
#1538=DIRECTION('',(0.,1.,0.));
#1539=DIRECTION('',(1.,0.,0.));
#1540=DIRECTION('',(0.,4.33680868994202E-16,-1.));
#1541=DIRECTION('',(0.,1.,4.33680868994202E-16));
#1542=DIRECTION('',(0.,0.,-1.));
#1543=DIRECTION('',(0.,1.,0.));
#1544=DIRECTION('',(0.,4.33680868994202E-16,-1.));
#1545=DIRECTION('',(0.,1.,4.33680868994202E-16));
#1546=DIRECTION('',(0.,0.,-1.));
#1547=DIRECTION('',(0.,1.,0.));
#1548=DIRECTION('',(1.,2.42152431663283E-16,-2.38369333458351E-33));
#1549=DIRECTION('',(2.42152431663283E-16,-1.,0.));
#1550=DIRECTION('',(0.707106781186548,-0.707106781186547,-6.72901153071656E-18));
#1551=DIRECTION('',(-0.707106781186547,-0.707106781186548,-6.72901153071656E-18));
#1552=DIRECTION('',(-4.92638482671198E-16,1.,9.5162593681043E-18));
#1553=DIRECTION('',(1.,4.92638482671198E-16,0.));
#1554=DIRECTION('',(4.33680868994202E-16,-1.,-6.50521303491302E-16));
#1555=DIRECTION('',(0.,6.50521303491302E-16,-1.));
#1556=DIRECTION('',(3.91291307093159E-38,9.5162593681043E-18,-1.));
#1557=DIRECTION('',(0.,1.,9.5162593681043E-18));
#1558=DIRECTION('',(0.,0.,1.));
#1559=DIRECTION('',(0.,-1.,0.));
#1560=DIRECTION('',(-3.91291307093159E-38,-9.5162593681043E-18,1.));
#1561=DIRECTION('',(0.,-1.,-9.5162593681043E-18));
#1562=DIRECTION('',(3.76158192263132E-31,-8.67361737988404E-16,1.));
#1563=DIRECTION('',(0.,-1.,-8.67361737988404E-16));
#1564=DIRECTION('',(4.92638482671198E-16,-1.,-9.5162593681043E-18));
#1565=DIRECTION('',(-1.,-4.92638482671198E-16,0.));
#1566=DIRECTION('',(4.33680868994202E-16,-1.,0.));
#1567=DIRECTION('',(-1.,-4.33680868994202E-16,0.));
#1568=DIRECTION('',(1.,1.0842021724855E-15,-8.67361737988403E-16));
#1569=DIRECTION('',(1.0842021724855E-15,-1.,0.));
#1570=DIRECTION('',(1.,0.,0.));
#1571=DIRECTION('',(0.,-1.,0.));
#1572=DIRECTION('',(-1.,-4.33680868994202E-16,0.));
#1573=DIRECTION('',(-4.33680868994202E-16,1.,0.));
#1574=DIRECTION('',(-1.,-8.67361737988403E-16,0.));
#1575=DIRECTION('',(-8.67361737988403E-16,1.,0.));
#1576=DIRECTION('',(1.,4.92638482671198E-16,-3.10509996984185E-39));
#1577=DIRECTION('',(4.92638482671198E-16,-1.,0.));
#1578=DIRECTION('',(1.,2.42152431663283E-16,1.65135036575809E-35));
#1579=DIRECTION('',(2.42152431663283E-16,-1.,0.));
#1580=DIRECTION('',(0.707106781186548,1.7069266116458E-16,-0.707106781186548));
#1581=DIRECTION('',(-0.707106781186548,-1.71762591855258E-16,-0.707106781186548));
#1582=DIRECTION('',(0.350281656554047,8.55301781485147E-17,0.936644415497019));
#1583=DIRECTION('',(0.936644415497019,2.26545715391321E-16,-0.350281656554047));
#1584=DIRECTION('',(-0.754605522163505,-1.82233126688833E-16,0.656178714924787));
#1585=DIRECTION('',(0.656178714924787,0.,0.754605522163505));
#1586=DIRECTION('',(-0.909994152433077,-2.20670980566869E-16,-0.414621083083828));
#1587=DIRECTION('',(0.414621083083828,9.97130426370523E-17,-0.909994152433076));
#1588=DIRECTION('',(1.83201692694882E-34,-7.56555246777895E-19,-1.));
#1589=DIRECTION('',(0.,1.,-7.56555246777895E-19));
#1590=DIRECTION('',(0.754605522163505,1.82233126688833E-16,-0.656178714924787));
#1591=DIRECTION('',(-0.656178714924787,0.,-0.754605522163505));
#1592=DIRECTION('',(-0.350281656554047,-8.55301781485147E-17,-0.936644415497019));
#1593=DIRECTION('',(-0.936644415497019,-2.26545715391321E-16,0.350281656554047));
#1594=DIRECTION('',(0.909994152433077,2.20670980566869E-16,0.414621083083828));
#1595=DIRECTION('',(0.414621083083828,9.97130426370523E-17,-0.909994152433076));
#1596=DIRECTION('',(-1.83201692694882E-34,7.56555246777895E-19,1.));
#1597=DIRECTION('',(0.,-1.,7.56555246777895E-19));
#1598=DIRECTION('',(-0.707106781186548,-1.7069266116458E-16,0.707106781186548));
#1599=DIRECTION('',(-0.707106781186548,-1.71762591855258E-16,-0.707106781186548));
#1600=DIRECTION('',(-1.,-2.42152431663283E-16,-1.65135036575809E-35));
#1601=DIRECTION('',(-2.42152431663283E-16,1.,0.));
#1602=DIRECTION('',(0.,1.,0.));
#1603=DIRECTION('',(1.,0.,0.));
#1604=DIRECTION('',(0.,-1.,0.));
#1605=DIRECTION('',(-1.,0.,0.));
#1606=DIRECTION('',(0.,1.,0.));
#1607=DIRECTION('',(1.,0.,0.));
#1608=DIRECTION('',(0.,-1.,0.));
#1609=DIRECTION('',(-1.,0.,0.));
#1610=DIRECTION('',(-4.926384826712E-16,1.,9.51625936810431E-18));
#1611=DIRECTION('',(1.,4.926384826712E-16,0.));
#1612=DIRECTION('',(0.,1.,9.52912065661457E-18));
#1613=DIRECTION('',(0.,-9.52912065661457E-18,1.));
#1614=DIRECTION('',(0.,1.,0.));
#1615=DIRECTION('',(1.,0.,0.));
#1616=DIRECTION('',(-4.92638482671207E-16,1.,0.));
#1617=DIRECTION('',(1.,4.92638482671207E-16,0.));
#1618=DIRECTION('',(0.,-1.,0.));
#1619=DIRECTION('',(-1.,0.,0.));
#1620=DIRECTION('',(0.,-1.,-9.52912065661127E-18));
#1621=DIRECTION('',(0.,9.52912065661127E-18,-1.));
#1622=DIRECTION('',(4.92638482671196E-16,-1.,-9.51625936810416E-18));
#1623=DIRECTION('',(-1.,-4.92638482671196E-16,0.));
#1624=DIRECTION('',(4.92638482671196E-16,-1.,0.));
#1625=DIRECTION('',(-1.,-4.92638482671196E-16,0.));
#1626=CARTESIAN_POINT('',(0.,0.,0.));
#1627=CARTESIAN_POINT('',(0.0148494374970553,-9.1967276867784E-8,-0.0148494374970553));
#1628=CARTESIAN_POINT('',(0.0296986799020554,-9.19672768603274E-8,-0.0296986799020553));
#1629=CARTESIAN_POINT('',(0.0323986799020554,-9.19672768589973E-8,-0.0296986799020553));
#1630=CARTESIAN_POINT('',(0.0296986799020554,-9.196727686061E-8,-1.95092055344986E-7));
#1631=CARTESIAN_POINT('',(0.0323986799020554,-9.19672768592799E-8,-1.95092055344986E-7));
#1632=CARTESIAN_POINT('',(-1.7219453386474E-34,-9.19672768752407E-8,-1.59204959073616E-19));
#1633=CARTESIAN_POINT('',(0.0027,-9.19672768739106E-8,-1.59204959073616E-19));
#1634=CARTESIAN_POINT('',(1.15871580782341E-34,-9.19672768749581E-8,-0.0296986799020553));
#1635=CARTESIAN_POINT('',(0.0027,-9.1967276873628E-8,-0.0296986799020553));
#1636=CARTESIAN_POINT('',(0.0327338195616114,-9.19672768589735E-8,-0.0148494374970553));
#1637=CARTESIAN_POINT('',(0.0327338195616114,-9.19672768588033E-8,-0.0327338195616112));
#1638=CARTESIAN_POINT('',(0.0327338195616114,-9.19672768591436E-8,0.00303494456750062));
#1639=CARTESIAN_POINT('',(-0.00353494456750062,-9.1967276877011E-8,0.00303494456750062));
#1640=CARTESIAN_POINT('',(-0.00303494456750069,-9.19672768767647E-8,0.00303494456750062));
#1641=CARTESIAN_POINT('',(-0.00303494456750069,-9.19672768764196E-8,-0.0332338195616113));
#1642=CARTESIAN_POINT('',(-0.00303494456750069,-9.19672768764243E-8,-0.0327338195616112));
#1643=CARTESIAN_POINT('',(0.0148494374970553,-9.19672768676138E-8,-0.0327338195616112));
#1644=CARTESIAN_POINT('',(0.0148494374970553,-9.1967276867784E-8,-0.0148494374970553));
#1645=CARTESIAN_POINT('',(0.0319494374970553,-9.19672768593599E-8,-0.0148494374970553));
#1646=CARTESIAN_POINT('',(-0.0035349445675007,0.00481825703317269,-0.0148494374970553));
#1647=CARTESIAN_POINT('',(-0.0035349445675007,0.00481625703317269,-0.0148494374970553));
#1648=CARTESIAN_POINT('',(-0.0035349445675007,0.00481625703317269,-0.0327338195616112));
#1649=CARTESIAN_POINT('',(-0.0035349445675007,0.00481625703317269,0.00303494456750062));
#1650=CARTESIAN_POINT('',(-0.0035349445675007,-9.19672768862449E-8,-0.0327338195616112));
#1651=CARTESIAN_POINT('',(-0.0035349445675007,0.000499908032723123,-0.0327338195616112));
#1652=CARTESIAN_POINT('',(-0.0035349445675007,0.000499908032723123,0.00353494456750068));
#1653=CARTESIAN_POINT('',(-0.0035349445675007,0.000499908032723123,0.00303494456750062));
#1654=CARTESIAN_POINT('',(-0.0035349445675007,0.00481825703317269,0.00303494456750062));
#1655=CARTESIAN_POINT('',(0.0148494374970553,0.0048182570331727,-0.0148494374970553));
#1656=CARTESIAN_POINT('',(0.0148494374970553,0.0148162570331727,-0.0148494374970553));
#1657=CARTESIAN_POINT('',(-0.00225056250294466,0.0148162570331727,-0.0148494374970553));
#1658=CARTESIAN_POINT('',(-2.37370414056176E-18,0.00481825703317269,-0.0296986799020553));
#1659=CARTESIAN_POINT('',(-7.24983984204128E-18,0.0147162570331727,-0.0296986799020553));
#1660=CARTESIAN_POINT('',(0.00259999999999999,0.0147162570331727,-0.0296986799020553));
#1661=CARTESIAN_POINT('',(-4.92638482671193E-20,9.99080327231247E-5,-0.0296986799020553));
#1662=CARTESIAN_POINT('',(0.0026,9.9908032723126E-5,-0.0296986799020553));
#1663=CARTESIAN_POINT('',(-2.37370414056176E-18,0.00481825703317269,-1.13352300259292E-19));
#1664=CARTESIAN_POINT('',(-7.24983984204128E-18,0.0147162570331727,-1.91603650337955E-20));
#1665=CARTESIAN_POINT('',(0.00259999999999999,0.0147162570331727,-1.91603650337955E-20));
#1666=CARTESIAN_POINT('',(-4.92638482671197E-20,9.99080327231247E-5,-1.58253333136806E-19));
#1667=CARTESIAN_POINT('',(0.0026,9.9908032723126E-5,-1.58253333136806E-19));
#1668=CARTESIAN_POINT('',(0.0296986799020554,0.00481825703317271,-1.9509205534494E-7));
#1669=CARTESIAN_POINT('',(0.0296986799020554,0.0147162570331727,-1.95092055344846E-7));
#1670=CARTESIAN_POINT('',(0.0296986799020554,0.0147162570331727,0.00259980490794466));
#1671=CARTESIAN_POINT('',(0.0296986799020554,9.99080327231368E-5,-1.95092055344985E-7));
#1672=CARTESIAN_POINT('',(0.0296986799020554,9.99080327231368E-5,0.00259980490794466));
#1673=CARTESIAN_POINT('',(0.0296986799020554,0.00481825703317271,-0.0296986799020553));
#1674=CARTESIAN_POINT('',(0.0296986799020554,0.0147162570331727,-0.0296986799020553));
#1675=CARTESIAN_POINT('',(0.0322986799020554,0.0147162570331727,-0.0296986799020553));
#1676=CARTESIAN_POINT('',(0.0296986799020554,9.99080327231385E-5,-0.0296986799020553));
#1677=CARTESIAN_POINT('',(0.0322986799020554,9.99080327231385E-5,-0.0296986799020553));
#1678=CARTESIAN_POINT('',(0.0148494374970553,0.0048182570331727,-0.0332338195616112));
#1679=CARTESIAN_POINT('',(0.0148494374970553,0.000499908032723133,-0.0332338195616112));
#1680=CARTESIAN_POINT('',(0.0327338195616114,0.000499908032723141,-0.0332338195616112));
#1681=CARTESIAN_POINT('',(-0.0030349445675007,0.000499908032723124,-0.0332338195616112));
#1682=CARTESIAN_POINT('',(-0.0030349445675007,0.00481625703317269,-0.0332338195616112));
#1683=CARTESIAN_POINT('',(-0.0030349445675007,0.00531625703317265,-0.0332338195616112));
#1684=CARTESIAN_POINT('',(0.0148494374970553,0.00531625703317265,-0.0332338195616112));
#1685=CARTESIAN_POINT('',(-0.0610349445675007,0.00531625703317263,-0.0332338195616112));
#1686=CARTESIAN_POINT('',(-0.0610349445675007,0.00481825703317268,-0.0332338195616112));
#1687=CARTESIAN_POINT('',(-0.0610349445675007,0.0143162570331726,-0.0332338195616112));
#1688=CARTESIAN_POINT('',(0.0332338195616113,0.0143162570331727,-0.0332338195616112));
#1689=CARTESIAN_POINT('',(0.0327338195616114,0.0143162570331727,-0.0332338195616112));
#1690=CARTESIAN_POINT('',(0.0327338195616114,0.00481825703317271,-0.0332338195616112));
#1691=CARTESIAN_POINT('',(0.0332338195616114,0.00481825703317271,-0.0148494374970553));
#1692=CARTESIAN_POINT('',(0.0332338195616114,-9.19672768519252E-8,0.00303494456750062));
#1693=CARTESIAN_POINT('',(0.0332338195616114,0.0143162570331727,0.00303494456750062));
#1694=CARTESIAN_POINT('',(0.0332338195616114,0.000499908032723141,0.00303494456750062));
#1695=CARTESIAN_POINT('',(0.0332338195616114,0.000499908032723141,-0.0148494374970553));
#1696=CARTESIAN_POINT('',(0.0332338195616114,0.000499908032723142,-0.0327338195616112));
#1697=CARTESIAN_POINT('',(0.0332338195616114,0.00481825703317271,-0.0327338195616112));
#1698=CARTESIAN_POINT('',(0.0332338195616114,0.0143162570331727,-0.0327338195616112));
#1699=CARTESIAN_POINT('',(0.0332338195616114,0.0143162570331727,0.00353494456750066));
#1700=CARTESIAN_POINT('',(0.0148494374970553,0.0048182570331727,0.00353494456750062));
#1701=CARTESIAN_POINT('',(-0.0030349445675007,0.00481825703317269,0.00353494456750062));
#1702=CARTESIAN_POINT('',(-0.0030349445675007,0.00531625703317265,0.00353494456750062));
#1703=CARTESIAN_POINT('',(-0.00303494456750069,0.000499908032723123,0.00353494456750062));
#1704=CARTESIAN_POINT('',(0.0332338195616113,0.000499908032723141,0.00353494456750062));
#1705=CARTESIAN_POINT('',(0.0327338195616114,0.000499908032723141,0.00353494456750062));
#1706=CARTESIAN_POINT('',(0.0327338195616114,0.0148162570331727,0.00353494456750062));
#1707=CARTESIAN_POINT('',(0.0327338195616114,0.0143162570331727,0.00353494456750062));
#1708=CARTESIAN_POINT('',(0.0148494374970553,0.0143162570331726,0.00353494456750062));
#1709=CARTESIAN_POINT('',(-0.00534164113013469,0.0143162570331726,0.00353494456750062));
#1710=CARTESIAN_POINT('',(-0.00534164113013468,0.0048182570331727,0.00353494456750062));
#1711=CARTESIAN_POINT('',(-0.00534164113013468,0.00531625703317265,0.00353494456750062));
#1712=CARTESIAN_POINT('',(-0.00353494456750062,0.00531625703317265,0.00353494456750062));
#1713=CARTESIAN_POINT('',(-0.0141505625029447,0.00481625703317264,0.000150562502944706));
#1714=CARTESIAN_POINT('',(-0.0530232416784542,0.00481625703317263,-0.0205502863438783));
#1715=CARTESIAN_POINT('',(-0.0488232416784542,0.00481625703317263,-0.0205502863438783));
#1716=CARTESIAN_POINT('',(-0.0530232416784542,0.00481625703317263,0.0194497136561217));
#1717=CARTESIAN_POINT('',(-0.0488232416784542,0.00481625703317263,0.0194497136561217));
#1718=CARTESIAN_POINT('',(-0.00553494456750068,0.00481625703317265,0.00303494456750062));
#1719=CARTESIAN_POINT('',(-0.00534164113013468,0.00481625703317265,0.00303494456750062));
#1720=CARTESIAN_POINT('',(-0.00534164113013468,0.00481625703317265,0.00403494456750062));
#1721=CARTESIAN_POINT('',(-0.00601431392413099,0.00481625703317265,0.00329500449410468));
#1722=CARTESIAN_POINT('',(-0.00890389518661453,0.00481625703317264,0.00592189655090789));
#1723=CARTESIAN_POINT('',(-0.0387282480048666,0.00481625703317264,0.0330349445675007));
#1724=CARTESIAN_POINT('',(-0.0141505625029447,0.00481625703317264,0.0330349445675007));
#1725=CARTESIAN_POINT('',(-0.0610349445675007,0.00481625703317263,0.0330349445675007));
#1726=CARTESIAN_POINT('',(-0.0610349445675007,0.00481625703317263,0.000150562502944706));
#1727=CARTESIAN_POINT('',(-0.0610349445675007,0.00481625703317263,-0.0327338195616112));
#1728=CARTESIAN_POINT('',(-0.0141505625029447,0.00481625703317264,-0.0327338195616112));
#1729=CARTESIAN_POINT('',(-0.0385349445675007,0.00481625703317264,0.00303494456750069));
#1730=CARTESIAN_POINT('',(-0.0141979570347943,0.00481625703317264,0.00303494456750069));
#1731=CARTESIAN_POINT('',(-0.0390349445675007,0.00481625703317264,0.00303494456750069));
#1732=CARTESIAN_POINT('',(-0.0390349445675007,0.00481625703317264,0.0235349445675007));
#1733=CARTESIAN_POINT('',(-0.0390349445675007,0.00481625703317264,0.0246323250307236));
#1734=CARTESIAN_POINT('',(-0.0152068552100383,0.00481625703317264,0.00391224732858244));
#1735=CARTESIAN_POINT('',(-0.0385349445675007,0.0148162570331726,0.0135349445675007));
#1736=CARTESIAN_POINT('',(-0.0385349445675007,0.0148162570331726,0.0235349445675007));
#1737=CARTESIAN_POINT('',(-0.0385349445675007,0.0143162570331726,0.0235349445675007));
#1738=CARTESIAN_POINT('',(-0.0385349445675007,0.00531625703317264,0.0235349445675007));
#1739=CARTESIAN_POINT('',(-0.0385349445675007,0.00531625703317264,0.00353494456750068));
#1740=CARTESIAN_POINT('',(-0.0385349445675007,0.00531625703317264,0.00353494456750068));
#1741=CARTESIAN_POINT('',(-0.0385349445675007,0.0148162570331726,0.00353494456750068));
#1742=CARTESIAN_POINT('',(-0.0385349445675007,0.0143162570331726,0.00353494456750068));
#1743=CARTESIAN_POINT('',(-0.0385349445675007,0.0143162570331726,0.0135349445675007));
#1744=CARTESIAN_POINT('',(-0.0270349445675007,0.0148162570331726,0.00353494456750069));
#1745=CARTESIAN_POINT('',(-0.0155349445675007,0.00531625703317264,0.00353494456750069));
#1746=CARTESIAN_POINT('',(-0.0155349445675007,0.00531625703317264,0.00353494456750068));
#1747=CARTESIAN_POINT('',(-0.0155349445675007,0.0148162570331726,0.00353494456750068));
#1748=CARTESIAN_POINT('',(-0.0155349445675007,0.0143162570331726,0.00353494456750068));
#1749=CARTESIAN_POINT('',(-0.0270349445675007,0.0143162570331726,0.00353494456750069));
#1750=CARTESIAN_POINT('',(-0.0615349445675007,0.0148162570331726,0.0185349445675007));
#1751=CARTESIAN_POINT('',(-0.0615349445675007,0.0148162570331726,-0.0327338195616112));
#1752=CARTESIAN_POINT('',(-0.0615349445675007,0.0143162570331726,-0.0327338195616112));
#1753=CARTESIAN_POINT('',(-0.0615349445675007,0.00531625703317263,-0.0327338195616112));
#1754=CARTESIAN_POINT('',(-0.0615349445675007,0.00531625703317263,0.0185349445675007));
#1755=CARTESIAN_POINT('',(-0.0615349445675007,0.00531625703317263,0.0330349445675007));
#1756=CARTESIAN_POINT('',(-0.0615349445675007,0.0148162570331726,0.0330349445675007));
#1757=CARTESIAN_POINT('',(-0.0615349445675007,0.0143162570331726,0.0330349445675007));
#1758=CARTESIAN_POINT('',(-0.0615349445675007,0.0143162570331726,-0.0332338195616112));
#1759=CARTESIAN_POINT('',(-0.0500349445675007,0.0148162570331726,0.0335349445675007));
#1760=CARTESIAN_POINT('',(-0.0610349445675007,0.0148162570331726,0.0335349445675007));
#1761=CARTESIAN_POINT('',(-0.0610349445675007,0.0143162570331726,0.0335349445675007));
#1762=CARTESIAN_POINT('',(-0.0610349445675007,0.00531625703317263,0.0335349445675007));
#1763=CARTESIAN_POINT('',(-0.0500349445675007,0.00531625703317263,0.0335349445675007));
#1764=CARTESIAN_POINT('',(-0.0387282480048666,0.00531625703317264,0.0335349445675007));
#1765=CARTESIAN_POINT('',(-0.0387282480048666,0.0148162570331726,0.0335349445675007));
#1766=CARTESIAN_POINT('',(-0.0387282480048666,0.0143162570331726,0.0335349445675007));
#1767=CARTESIAN_POINT('',(-0.0615349445675007,0.0143162570331726,0.0335349445675007));
#1768=CARTESIAN_POINT('',(-0.0220349445675007,0.0148162570331726,0.0185349445675007));
#1769=CARTESIAN_POINT('',(-0.0383919116078685,0.0148162570331726,0.0334049146041987));
#1770=CARTESIAN_POINT('',(-0.0383919116078685,0.0143162570331726,0.0334049146041987));
#1771=CARTESIAN_POINT('',(-0.0383919116078685,0.00531625703317264,0.0334049146041987));
#1772=CARTESIAN_POINT('',(-0.0220349445675007,0.00531625703317264,0.0185349445675007));
#1773=CARTESIAN_POINT('',(-0.00567797752713284,0.00531625703317265,0.00366497453080264));
#1774=CARTESIAN_POINT('',(-0.00567797752713284,0.0148162570331726,0.00366497453080264));
#1775=CARTESIAN_POINT('',(-0.00567797752713284,0.0143162570331726,0.00366497453080264));
#1776=CARTESIAN_POINT('',(-0.0385349445675007,0.0143162570331726,0.0335349445675007));
#1777=CARTESIAN_POINT('',(-0.0530232416784542,0.0148162570331726,-0.0205502863438783));
#1778=CARTESIAN_POINT('',(-0.0530232416784542,0.0147162570331726,-0.0205502863438783));
#1779=CARTESIAN_POINT('',(-0.0489232416784542,0.0147162570331726,-0.0205502863438783));
#1780=CARTESIAN_POINT('',(-0.0530232416784542,0.00491625703317264,-0.0205502863438783));
#1781=CARTESIAN_POINT('',(-0.0489232416784542,0.00491625703317264,-0.0205502863438783));
#1782=CARTESIAN_POINT('',(-0.0270349445675007,0.0148162570331726,0.0135349445675007));
#1783=CARTESIAN_POINT('',(-0.0385349445675007,0.00531625703317264,0.0235349445675007));
#1784=CARTESIAN_POINT('',(-0.0270349445675007,0.0143162570331726,0.0135349445675007));
#1785=CARTESIAN_POINT('',(-0.0530232416784542,0.0148162570331726,0.0194497136561217));
#1786=CARTESIAN_POINT('',(-0.0530232416784542,0.0147162570331726,0.0194497136561217));
#1787=CARTESIAN_POINT('',(-0.0489232416784542,0.0147162570331726,0.0194497136561217));
#1788=CARTESIAN_POINT('',(-0.0530232416784542,0.00491625703317264,0.0194497136561217));
#1789=CARTESIAN_POINT('',(-0.0489232416784542,0.00491625703317264,0.0194497136561217));
#1790=CARTESIAN_POINT('',(-0.0141505625029447,0.0148162570331726,0.000150562502944706));
#1791=CARTESIAN_POINT('',(-0.0530232416784542,0.0148162570331726,-0.0205502863438783));
#1792=CARTESIAN_POINT('',(-0.0488232416784542,0.0148162570331726,-0.0205502863438783));
#1793=CARTESIAN_POINT('',(-0.0530232416784542,0.0148162570331726,0.0194497136561217));
#1794=CARTESIAN_POINT('',(-0.0488232416784542,0.0148162570331726,0.0194497136561217));
#1795=CARTESIAN_POINT('',(-7.29910369030838E-18,0.0148162570331726,-1.82087390969855E-20));
#1796=CARTESIAN_POINT('',(0.00269999999999996,0.0148162570331726,-1.82087390969855E-20));
#1797=CARTESIAN_POINT('',(0.0296986799020554,0.0148162570331727,-1.95092055344845E-7));
#1798=CARTESIAN_POINT('',(0.0323986799020554,0.0148162570331727,-1.95092055344845E-7));
#1799=CARTESIAN_POINT('',(0.0296986799020554,0.0148162570331727,-0.0296986799020553));
#1800=CARTESIAN_POINT('',(0.0323986799020554,0.0148162570331727,-0.0296986799020553));
#1801=CARTESIAN_POINT('',(-7.29910369030838E-18,0.0148162570331726,-0.0296986799020553));
#1802=CARTESIAN_POINT('',(0.00269999999999996,0.0148162570331726,-0.0296986799020553));
#1803=CARTESIAN_POINT('',(-0.0390349445675007,0.0148162570331726,0.000150562502944706));
#1804=CARTESIAN_POINT('',(-0.0390349445675007,0.0148162570331726,0.0246323250307236));
#1805=CARTESIAN_POINT('',(-0.0390349445675007,0.0148162570331726,0.00303494456750069));
#1806=CARTESIAN_POINT('',(-0.0141505625029447,0.0148162570331726,0.00303494456750069));
#1807=CARTESIAN_POINT('',(-0.0141979570347943,0.0148162570331726,0.00303494456750068));
#1808=CARTESIAN_POINT('',(-0.0127427498689771,0.0148162570331726,0.00176954703200747));
#1809=CARTESIAN_POINT('',(0.0327338195616114,0.0148162570331727,-0.0332338195616113));
#1810=CARTESIAN_POINT('',(0.0327338195616114,0.0148162570331727,0.00303494456750062));
#1811=CARTESIAN_POINT('',(0.0327338195616114,0.0148162570331727,-0.0327338195616112));
#1812=CARTESIAN_POINT('',(-0.0615349445675007,0.0148162570331726,-0.0327338195616112));
#1813=CARTESIAN_POINT('',(-0.0610349445675007,0.0148162570331726,-0.0327338195616112));
#1814=CARTESIAN_POINT('',(-0.0610349445675007,0.0148162570331726,0.0335349445675007));
#1815=CARTESIAN_POINT('',(-0.0610349445675007,0.0148162570331726,0.0330349445675007));
#1816=CARTESIAN_POINT('',(-0.0385349445675007,0.0148162570331726,0.0330349445675007));
#1817=CARTESIAN_POINT('',(-0.0387282480048666,0.0148162570331726,0.0330349445675007));
#1818=CARTESIAN_POINT('',(-0.00587128096449883,0.0148162570331726,0.00316497453080271));
#1819=CARTESIAN_POINT('',(-0.006014313924131,0.0148162570331726,0.00329500449410467));
#1820=CARTESIAN_POINT('',(-0.00534164113013469,0.0148162570331726,0.00403494456750062));
#1821=CARTESIAN_POINT('',(-0.00534164113013469,0.0148162570331726,0.00303494456750062));
#1822=CARTESIAN_POINT('',(-0.0141505625029447,0.0148162570331726,0.00303494456750062));
#1823=CARTESIAN_POINT('',(-0.0610349445675007,0.0143162570331726,0.0330349445675007));
#1824=CARTESIAN_POINT('',(-0.0610349445675007,0.0143162570331726,0.0330349445675007));
#1825=CARTESIAN_POINT('',(-0.0610349445675007,0.0143162570331726,0.0330349445675007));
#1826=CARTESIAN_POINT('',(-0.0610349445675007,0.0143162570331726,0.0330349445675007));
#1827=CARTESIAN_POINT('',(-0.0610349445675007,0.0148162570331726,0.0330349445675007));
#1828=CARTESIAN_POINT('',(-0.0610349445675007,0.00531625703317263,0.0330349445675007));
#1829=CARTESIAN_POINT('',(-0.0141505625029447,0.0143162570331726,0.0330349445675007));
#1830=CARTESIAN_POINT('',(-0.0387282480048666,0.0143162570331726,0.0330349445675007));
#1831=CARTESIAN_POINT('',(-0.0610349445675007,0.0143162570331726,0.000150562502944706));
#1832=CARTESIAN_POINT('',(-0.0610349445675007,0.0143162570331726,-0.0327338195616112));
#1833=CARTESIAN_POINT('',(-0.0610349445675007,0.00531625703317263,0.0330349445675007));
#1834=CARTESIAN_POINT('',(-0.0610349445675007,0.00531625703317263,0.0330349445675007));
#1835=CARTESIAN_POINT('',(-0.0610349445675007,0.00531625703317263,0.0330349445675007));
#1836=CARTESIAN_POINT('',(-0.0387282480048666,0.0143162570331726,0.0330349445675007));
#1837=CARTESIAN_POINT('',(-0.0387282480048666,0.0143162570331726,0.0330349445675007));
#1838=CARTESIAN_POINT('',(-0.0387282480048666,0.0143162570331726,0.0330349445675007));
#1839=CARTESIAN_POINT('',(-0.0610349445675007,0.0143162570331726,-0.0327338195616112));
#1840=CARTESIAN_POINT('',(-0.0610349445675007,0.0143162570331726,-0.0327338195616112));
#1841=CARTESIAN_POINT('',(-0.0610349445675007,0.0143162570331726,-0.0327338195616112));
#1842=CARTESIAN_POINT('',(-0.0610349445675007,0.0148162570331726,-0.0327338195616112));
#1843=CARTESIAN_POINT('',(-0.0610349445675007,0.00531625703317263,-0.0327338195616112));
#1844=CARTESIAN_POINT('',(-0.0610349445675007,0.00531625703317263,0.0185349445675007));
#1845=CARTESIAN_POINT('',(-0.0610349445675007,0.00531625703317263,-0.0327338195616112));
#1846=CARTESIAN_POINT('',(-0.0500349445675007,0.00531625703317263,0.0330349445675007));
#1847=CARTESIAN_POINT('',(-0.0387282480048666,0.00531625703317264,0.0330349445675007));
#1848=CARTESIAN_POINT('',(-0.0387282480048666,0.0148162570331726,0.0330349445675007));
#1849=CARTESIAN_POINT('',(-0.0387282480048666,0.00531625703317264,0.0330349445675007));
#1850=CARTESIAN_POINT('',(-0.00890389518661454,0.0143162570331726,0.00592189655090789));
#1851=CARTESIAN_POINT('',(-0.006014313924131,0.0143162570331726,0.00329500449410467));
#1852=CARTESIAN_POINT('',(-0.0141505625029447,0.0143162570331726,-0.0327338195616112));
#1853=CARTESIAN_POINT('',(0.0327338195616114,0.0143162570331727,-0.0327338195616112));
#1854=CARTESIAN_POINT('',(-0.0610349445675007,0.00531625703317263,-0.0327338195616112));
#1855=CARTESIAN_POINT('',(-0.0610349445675007,0.00531625703317263,-0.0327338195616112));
#1856=CARTESIAN_POINT('',(-0.0387282480048666,0.00531625703317264,0.0330349445675007));
#1857=CARTESIAN_POINT('',(-0.0387282480048666,0.00531625703317264,0.0330349445675007));
#1858=CARTESIAN_POINT('',(-0.00534164113013469,0.0143162570331726,0.00403494456750062));
#1859=CARTESIAN_POINT('',(-0.00534164113013469,0.0143162570331726,0.00403494456750062));
#1860=CARTESIAN_POINT('',(-0.00534164113013469,0.0143162570331726,0.00303494456750062));
#1861=CARTESIAN_POINT('',(0.0327338195616114,0.0143162570331727,-0.0327338195616112));
#1862=CARTESIAN_POINT('',(0.0327338195616114,0.0143162570331727,-0.0327338195616112));
#1863=CARTESIAN_POINT('',(0.0327338195616114,0.0143162570331727,-0.0327338195616112));
#1864=CARTESIAN_POINT('',(0.0148494374970553,0.00531625703317265,-0.0327338195616112));
#1865=CARTESIAN_POINT('',(-0.0030349445675007,0.00531625703317265,-0.0327338195616112));
#1866=CARTESIAN_POINT('',(-0.0223712809644988,0.00531625703317264,0.0181649745308027));
#1867=CARTESIAN_POINT('',(-0.006014313924131,0.00531625703317265,0.00329500449410467));
#1868=CARTESIAN_POINT('',(-0.00534164113013468,0.0048182570331727,0.00403494456750062));
#1869=CARTESIAN_POINT('',(-0.00534164113013468,0.00531625703317265,0.00403494456750062));
#1870=CARTESIAN_POINT('',(0.0148494374970553,0.0143162570331726,0.00303494456750062));
#1871=CARTESIAN_POINT('',(0.0327338195616114,0.0143162570331727,0.00303494456750062));
#1872=CARTESIAN_POINT('',(0.0327338195616114,0.0143162570331727,-0.0148494374970553));
#1873=CARTESIAN_POINT('',(0.0327338195616114,0.0143162570331727,0.00303494456750062));
#1874=CARTESIAN_POINT('',(0.0327338195616114,0.00481825703317271,-0.0327338195616112));
#1875=CARTESIAN_POINT('',(0.0327338195616114,0.000499908032723141,-0.0327338195616112));
#1876=CARTESIAN_POINT('',(0.0148494374970553,0.000499908032723133,-0.0327338195616112));
#1877=CARTESIAN_POINT('',(-0.0030349445675007,0.000499908032723124,-0.0327338195616112));
#1878=CARTESIAN_POINT('',(0.0327338195616114,0.000499908032723141,-0.0327338195616112));
#1879=CARTESIAN_POINT('',(-0.0030349445675007,0.00481825703317269,-0.0327338195616112));
#1880=CARTESIAN_POINT('',(-0.0030349445675007,0.000499908032723124,-0.0327338195616112));
#1881=CARTESIAN_POINT('',(-0.00534164113013468,0.00531625703317265,0.00403494456750062));
#1882=CARTESIAN_POINT('',(-0.00534164113013468,0.00531625703317265,0.00303494456750062));
#1883=CARTESIAN_POINT('',(0.0327338195616114,0.0143162570331727,0.00303494456750062));
#1884=CARTESIAN_POINT('',(0.0327338195616114,0.0143162570331727,0.00303494456750062));
#1885=CARTESIAN_POINT('',(0.0327338195616114,0.000499908032723141,-0.0327338195616112));
#1886=CARTESIAN_POINT('',(0.0327338195616114,0.000499908032723142,-0.0327338195616112));
#1887=CARTESIAN_POINT('',(-0.0030349445675007,0.000499908032723124,-0.0327338195616112));
#1888=CARTESIAN_POINT('',(-0.00303494456750069,0.000499908032723124,-0.0327338195616112));
#1889=CARTESIAN_POINT('',(-0.0141505625029447,0.00531625703317264,0.00303494456750062));
#1890=CARTESIAN_POINT('',(-0.0030349445675007,0.00531625703317265,0.00303494456750062));
#1891=CARTESIAN_POINT('',(0.0327338195616114,0.00481825703317271,0.00303494456750062));
#1892=CARTESIAN_POINT('',(0.0327338195616114,0.000499908032723141,0.00303494456750062));
#1893=CARTESIAN_POINT('',(0.0327338195616114,0.000499908032723141,-0.0148494374970553));
#1894=CARTESIAN_POINT('',(0.0327338195616114,0.000499908032723141,0.00303494456750062));
#1895=CARTESIAN_POINT('',(-0.00303494456750069,0.000499908032723123,-0.0148494374970553));
#1896=CARTESIAN_POINT('',(-0.0030349445675007,0.000499908032723123,0.00303494456750062));
#1897=CARTESIAN_POINT('',(-0.0030349445675007,0.00481825703317269,0.00303494456750062));
#1898=CARTESIAN_POINT('',(-0.00303494456750069,0.000499908032723123,0.00303494456750062));
#1899=CARTESIAN_POINT('',(0.0327338195616114,0.000499908032723141,0.00303494456750062));
#1900=CARTESIAN_POINT('',(0.0327338195616114,0.000499908032723141,0.00303494456750062));
#1901=CARTESIAN_POINT('',(-0.0030349445675007,0.000499908032723123,0.00303494456750062));
#1902=CARTESIAN_POINT('',(-0.00303494456750069,0.000499908032723123,0.00303494456750062));
#1903=CARTESIAN_POINT('',(0.0148494374970553,0.000499908032723132,0.00303494456750062));
#1904=CARTESIAN_POINT('',(-0.0141505625029447,0.00531625703317264,0.00303494456750069));
#1905=CARTESIAN_POINT('',(-0.0390349445675007,0.00531625703317264,0.00303494456750069));
#1906=CARTESIAN_POINT('',(-0.0141979570347943,0.00531625703317264,0.00303494456750069));
#1907=CARTESIAN_POINT('',(-0.0127427498689771,0.00531625703317264,0.00176954703200747));
#1908=CARTESIAN_POINT('',(-0.0390349445675007,0.00531625703317264,0.0246323250307236));
#1909=CARTESIAN_POINT('',(-0.0390349445675007,0.00531625703317264,0.000150562502944706));
#1910=CARTESIAN_POINT('',(-0.0267068552100383,0.0143162570331726,0.0139122473285824));
#1911=CARTESIAN_POINT('',(-0.0141979570347943,0.0143162570331726,0.00303494456750069));
#1912=CARTESIAN_POINT('',(-0.0390349445675007,0.0143162570331726,0.0246323250307236));
#1913=CARTESIAN_POINT('',(-0.0390349445675007,0.0143162570331726,0.0135349445675007));
#1914=CARTESIAN_POINT('',(-0.0390349445675007,0.0143162570331726,0.00303494456750069));
#1915=CARTESIAN_POINT('',(-0.0270349445675007,0.0143162570331726,0.00303494456750069));
#1916=CARTESIAN_POINT('',(-0.0530232416784542,0.0147162570331726,-0.0205502863438783));
#1917=CARTESIAN_POINT('',(-0.0530232416784542,0.00481625703317263,-0.0205502863438783));
#1918=CARTESIAN_POINT('',(-0.0530232416784542,0.0147162570331726,0.0194497136561217));
#1919=CARTESIAN_POINT('',(-0.0530232416784542,0.00481625703317263,0.0194497136561217));
#1920=CARTESIAN_POINT('',(-7.29910369030838E-18,0.0148162570331726,-1.82087390969855E-20));
#1921=CARTESIAN_POINT('',(0.0296986799020554,0.0148162570331727,-1.95092055344845E-7));
#1922=CARTESIAN_POINT('',(0.0296986799020554,0.0148162570331727,-0.0296986799020553));
#1923=CARTESIAN_POINT('',(-7.29910369030838E-18,0.0148162570331726,-0.0296986799020553));
#1924=CARTESIAN_POINT('',(0.0296986799020554,-9.19672768599777E-8,-0.0296986799020553));
#1925=CARTESIAN_POINT('',(0.0296986799020554,-9.19672768608451E-8,-1.95092055344986E-7));
#1926=CARTESIAN_POINT('',(0.,-9.19672768755902E-8,-1.59204959073616E-19));
#1927=CARTESIAN_POINT('',(0.,-9.19672768747229E-8,-0.0296986799020553));
#1928=MECHANICAL_DESIGN_GEOMETRIC_PRESENTATION_REPRESENTATION('',(#1091),
#1929);
#1929=(
GEOMETRIC_REPRESENTATION_CONTEXT(3)
GLOBAL_UNCERTAINTY_ASSIGNED_CONTEXT((#1930))
GLOBAL_UNIT_ASSIGNED_CONTEXT((#1933,#1932,#1931))
REPRESENTATION_CONTEXT('BallScrewHolder-Front',
'TOP_LEVEL_ASSEMBLY_PART')
);
#1930=UNCERTAINTY_MEASURE_WITH_UNIT(LENGTH_MEASURE(1.E-8),#1933,
'DISTANCE_ACCURACY_VALUE','Maximum Tolerance applied to model');
#1931=(
NAMED_UNIT(*)
SI_UNIT($,.STERADIAN.)
SOLID_ANGLE_UNIT()
);
#1932=(
NAMED_UNIT(*)
PLANE_ANGLE_UNIT()
SI_UNIT($,.RADIAN.)
);
#1933=(
LENGTH_UNIT()
NAMED_UNIT(*)
SI_UNIT($,.METRE.)
);
#1934=PRODUCT_DEFINITION_SHAPE('','',#1935);
#1935=PRODUCT_DEFINITION('','',#1937,#1936);
#1936=PRODUCT_DEFINITION_CONTEXT('',#1943,'design');
#1937=PRODUCT_DEFINITION_FORMATION_WITH_SPECIFIED_SOURCE('','',#1939,
 .NOT_KNOWN.);
#1938=PRODUCT_RELATED_PRODUCT_CATEGORY('','',(#1939));
#1939=PRODUCT('BallScrewHolder-Front','BallScrewHolder-Front',
'BallScrewHolder-Front',(#1941));
#1940=PRODUCT_CATEGORY('','');
#1941=PRODUCT_CONTEXT('',#1943,'mechanical');
#1942=APPLICATION_PROTOCOL_DEFINITION('international standard',
'ap242_managed_model_based_3d_engineering',2020,#1943);
#1943=APPLICATION_CONTEXT('managed model based 3d engineering');
ENDSEC;
END-ISO-10303-21;
