ISO-10303-21;
HEADER;
/* Generated by software containing ST-Developer
 * from STEP Tools, Inc. (www.steptools.com) 
 */
/* OPTION: using custom renumber hook */

FILE_DESCRIPTION(
/* description */ ('STEP AP242 Edition 2',
'CAx-IF Rec.Pracs.---Representation and Presentation of Product Manufa
cturing Information (PMI)---4.0---2014-10-13',
'CAx-IF Rec.Pracs.---3D Tessellated Geometry---0.4---2014-09-14','2;1',
'CAx-IF Rec.Pracs.---User Defined Attributes---1.5---2016-08-15'),
/* implementation_level */ '2;1');

FILE_NAME(
/* name */ 'Router - GantryLower-Left',
/* time_stamp */ '2026-08-08T09:25:06Z',
/* author */ (''),
/* organization */ (''),
/* preprocessor_version */ 'ST-DEVELOPER v20',
/* originating_system */ 'ONSHAPE BY PTC INC, 1.219',
/* authorisation */ '  ');

FILE_SCHEMA (('AP242_MANAGED_MODEL_BASED_3D_ENGINEERING_MIM_LF { 1 0 10303 442 3 1 4 }'));
ENDSEC;

DATA;
#10=SHAPE_REPRESENTATION_RELATIONSHIP('','',#1156,#11);
#11=ADVANCED_BREP_SHAPE_REPRESENTATION('',(#1154),#2010);
#12=CONICAL_SURFACE('',#1300,0.00265,0.7853981633975);
#13=CONICAL_SURFACE('',#1301,0.00265,0.7853981633975);
#14=CONICAL_SURFACE('',#1302,0.00265,0.785398163397483);
#15=CONICAL_SURFACE('',#1303,0.00265,0.7853981633975);
#16=CONICAL_SURFACE('',#1304,0.00265,0.7853981633975);
#17=CONICAL_SURFACE('',#1305,0.00265,0.785398163397483);
#18=CONICAL_SURFACE('',#1306,0.004375,0.785398163397431);
#19=CONICAL_SURFACE('',#1307,0.004375,0.785398163397466);
#20=CONICAL_SURFACE('',#1308,0.004375,0.785398163397457);
#21=CONICAL_SURFACE('',#1309,0.004375,0.785398163397431);
#22=CONICAL_SURFACE('',#1310,0.00265,0.785398163397448);
#23=CONICAL_SURFACE('',#1311,0.00265,0.785398163397448);
#24=CONICAL_SURFACE('',#1312,0.00265,0.785398163397446);
#25=CONICAL_SURFACE('',#1313,0.00265,0.785398163397446);
#26=CONICAL_SURFACE('',#1314,0.01415,0.785398163397448);
#27=CONICAL_SURFACE('',#1315,0.00275,0.785398163397431);
#28=CONICAL_SURFACE('',#1316,0.01415,0.785398163397431);
#29=CONICAL_SURFACE('',#1317,0.00275,0.785398163397483);
#30=SPHERICAL_SURFACE('',#1291,0.002);
#31=ELLIPSE('',#1249,0.00200853030585077,0.002);
#32=ELLIPSE('',#1250,0.00221063970020177,0.002);
#33=ELLIPSE('',#1283,0.00373331988745816,0.002);
#34=ELLIPSE('',#1285,0.00296836780699437,0.002);
#35=ELLIPSE('',#1294,0.00282842712474619,0.002);
#36=ELLIPSE('',#1296,0.00282842712474619,0.002);
#37=ELLIPSE('',#1298,0.00282842712474619,0.002);
#38=B_SPLINE_CURVE_WITH_KNOTS('',3,(#1850,#1851,#1852,#1853),
 .UNSPECIFIED.,.F.,.F.,(4,4),(0.,0.000169955658918139),.UNSPECIFIED.);
#39=B_SPLINE_CURVE_WITH_KNOTS('',3,(#1859,#1860,#1861,#1862),
 .UNSPECIFIED.,.F.,.F.,(4,4),(0.,0.000169955658918161),.UNSPECIFIED.);
#40=B_SPLINE_CURVE_WITH_KNOTS('',3,(#1971,#1972,#1973,#1974,#1975,#1976,
#1977),.UNSPECIFIED.,.F.,.F.,(4,1,1,1,4),(0.,0.00084288818085962,0.00168577636171924,
0.00252866454257886,0.00337155272343848),.UNSPECIFIED.);
#41=LINE('',#1724,#85);
#42=LINE('',#1727,#86);
#43=LINE('',#1729,#87);
#44=LINE('',#1731,#88);
#45=LINE('',#1733,#89);
#46=LINE('',#1735,#90);
#47=LINE('',#1737,#91);
#48=LINE('',#1740,#92);
#49=LINE('',#1742,#93);
#50=LINE('',#1744,#94);
#51=LINE('',#1746,#95);
#52=LINE('',#1749,#96);
#53=LINE('',#1750,#97);
#54=LINE('',#1752,#98);
#55=LINE('',#1754,#99);
#56=LINE('',#1756,#100);
#57=LINE('',#1778,#101);
#58=LINE('',#1781,#102);
#59=LINE('',#1783,#103);
#60=LINE('',#1785,#104);
#61=LINE('',#1804,#105);
#62=LINE('',#1806,#106);
#63=LINE('',#1808,#107);
#64=LINE('',#1810,#108);
#65=LINE('',#1812,#109);
#66=LINE('',#1814,#110);
#67=LINE('',#1818,#111);
#68=LINE('',#1826,#112);
#69=LINE('',#1828,#113);
#70=LINE('',#1830,#114);
#71=LINE('',#1833,#115);
#72=LINE('',#1835,#116);
#73=LINE('',#1842,#117);
#74=LINE('',#1843,#118);
#75=LINE('',#1848,#119);
#76=LINE('',#1855,#120);
#77=LINE('',#1858,#121);
#78=LINE('',#1867,#122);
#79=LINE('',#1903,#123);
#80=LINE('',#1905,#124);
#81=LINE('',#1909,#125);
#82=LINE('',#1925,#126);
#83=LINE('',#1927,#127);
#84=LINE('',#1929,#128);
#85=VECTOR('',#1366,1.);
#86=VECTOR('',#1367,1.);
#87=VECTOR('',#1368,1.);
#88=VECTOR('',#1369,1.);
#89=VECTOR('',#1370,1.);
#90=VECTOR('',#1371,1.);
#91=VECTOR('',#1374,1.);
#92=VECTOR('',#1375,1.);
#93=VECTOR('',#1376,1.);
#94=VECTOR('',#1377,1.);
#95=VECTOR('',#1380,1.);
#96=VECTOR('',#1381,1.);
#97=VECTOR('',#1382,1.);
#98=VECTOR('',#1385,1.);
#99=VECTOR('',#1386,1.);
#100=VECTOR('',#1387,1.);
#101=VECTOR('',#1414,1.);
#102=VECTOR('',#1415,1.);
#103=VECTOR('',#1416,1.);
#104=VECTOR('',#1417,1.);
#105=VECTOR('',#1440,1.);
#106=VECTOR('',#1441,1.);
#107=VECTOR('',#1442,1.);
#108=VECTOR('',#1445,1.);
#109=VECTOR('',#1446,1.);
#110=VECTOR('',#1447,1.);
#111=VECTOR('',#1450,1.);
#112=VECTOR('',#1459,1.);
#113=VECTOR('',#1460,1.);
#114=VECTOR('',#1461,1.);
#115=VECTOR('',#1466,1.);
#116=VECTOR('',#1467,1.);
#117=VECTOR('',#1474,1.);
#118=VECTOR('',#1475,1.);
#119=VECTOR('',#1482,1.);
#120=VECTOR('',#1485,1.);
#121=VECTOR('',#1486,1.);
#122=VECTOR('',#1493,1.);
#123=VECTOR('',#1540,1.);
#124=VECTOR('',#1541,1.);
#125=VECTOR('',#1544,1.);
#126=VECTOR('',#1561,1.);
#127=VECTOR('',#1562,1.);
#128=VECTOR('',#1563,1.);
#129=PLANE('',#1176);
#130=PLANE('',#1181);
#131=PLANE('',#1182);
#132=PLANE('',#1183);
#133=PLANE('',#1196);
#134=PLANE('',#1206);
#135=PLANE('',#1208);
#136=PLANE('',#1211);
#137=PLANE('',#1215);
#138=PLANE('',#1219);
#139=PLANE('',#1222);
#140=PLANE('',#1223);
#141=PLANE('',#1231);
#142=PLANE('',#1236);
#143=PLANE('',#1241);
#144=PLANE('',#1246);
#145=PLANE('',#1248);
#146=PLANE('',#1251);
#147=PLANE('',#1260);
#148=PLANE('',#1264);
#149=PLANE('',#1268);
#150=PLANE('',#1272);
#151=PLANE('',#1276);
#152=PLANE('',#1280);
#153=ORIENTED_EDGE('',*,*,#413,.T.);
#154=ORIENTED_EDGE('',*,*,#414,.F.);
#155=ORIENTED_EDGE('',*,*,#415,.T.);
#156=ORIENTED_EDGE('',*,*,#416,.F.);
#157=ORIENTED_EDGE('',*,*,#417,.T.);
#158=ORIENTED_EDGE('',*,*,#418,.F.);
#159=ORIENTED_EDGE('',*,*,#419,.T.);
#160=ORIENTED_EDGE('',*,*,#420,.F.);
#161=ORIENTED_EDGE('',*,*,#421,.T.);
#162=ORIENTED_EDGE('',*,*,#422,.F.);
#163=ORIENTED_EDGE('',*,*,#423,.T.);
#164=ORIENTED_EDGE('',*,*,#424,.F.);
#165=ORIENTED_EDGE('',*,*,#425,.T.);
#166=ORIENTED_EDGE('',*,*,#426,.T.);
#167=ORIENTED_EDGE('',*,*,#427,.T.);
#168=ORIENTED_EDGE('',*,*,#428,.T.);
#169=ORIENTED_EDGE('',*,*,#429,.T.);
#170=ORIENTED_EDGE('',*,*,#430,.T.);
#171=ORIENTED_EDGE('',*,*,#431,.T.);
#172=ORIENTED_EDGE('',*,*,#432,.T.);
#173=ORIENTED_EDGE('',*,*,#433,.T.);
#174=ORIENTED_EDGE('',*,*,#434,.T.);
#175=ORIENTED_EDGE('',*,*,#435,.F.);
#176=ORIENTED_EDGE('',*,*,#436,.T.);
#177=ORIENTED_EDGE('',*,*,#437,.T.);
#178=ORIENTED_EDGE('',*,*,#438,.F.);
#179=ORIENTED_EDGE('',*,*,#439,.F.);
#180=ORIENTED_EDGE('',*,*,#440,.T.);
#181=ORIENTED_EDGE('',*,*,#435,.T.);
#182=ORIENTED_EDGE('',*,*,#441,.T.);
#183=ORIENTED_EDGE('',*,*,#437,.F.);
#184=ORIENTED_EDGE('',*,*,#442,.T.);
#185=ORIENTED_EDGE('',*,*,#443,.T.);
#186=ORIENTED_EDGE('',*,*,#444,.T.);
#187=ORIENTED_EDGE('',*,*,#445,.T.);
#188=ORIENTED_EDGE('',*,*,#446,.F.);
#189=ORIENTED_EDGE('',*,*,#447,.T.);
#190=ORIENTED_EDGE('',*,*,#448,.F.);
#191=ORIENTED_EDGE('',*,*,#449,.T.);
#192=ORIENTED_EDGE('',*,*,#450,.F.);
#193=ORIENTED_EDGE('',*,*,#451,.T.);
#194=ORIENTED_EDGE('',*,*,#452,.F.);
#195=ORIENTED_EDGE('',*,*,#453,.F.);
#196=ORIENTED_EDGE('',*,*,#454,.T.);
#197=ORIENTED_EDGE('',*,*,#455,.T.);
#198=ORIENTED_EDGE('',*,*,#456,.T.);
#199=ORIENTED_EDGE('',*,*,#457,.T.);
#200=ORIENTED_EDGE('',*,*,#458,.T.);
#201=ORIENTED_EDGE('',*,*,#459,.T.);
#202=ORIENTED_EDGE('',*,*,#460,.T.);
#203=ORIENTED_EDGE('',*,*,#461,.T.);
#204=ORIENTED_EDGE('',*,*,#462,.T.);
#205=ORIENTED_EDGE('',*,*,#424,.T.);
#206=ORIENTED_EDGE('',*,*,#422,.T.);
#207=ORIENTED_EDGE('',*,*,#420,.T.);
#208=ORIENTED_EDGE('',*,*,#418,.T.);
#209=ORIENTED_EDGE('',*,*,#416,.T.);
#210=ORIENTED_EDGE('',*,*,#414,.T.);
#211=ORIENTED_EDGE('',*,*,#452,.T.);
#212=ORIENTED_EDGE('',*,*,#446,.T.);
#213=ORIENTED_EDGE('',*,*,#448,.T.);
#214=ORIENTED_EDGE('',*,*,#450,.T.);
#215=ORIENTED_EDGE('',*,*,#444,.F.);
#216=ORIENTED_EDGE('',*,*,#463,.T.);
#217=ORIENTED_EDGE('',*,*,#464,.T.);
#218=ORIENTED_EDGE('',*,*,#465,.T.);
#219=ORIENTED_EDGE('',*,*,#466,.F.);
#220=ORIENTED_EDGE('',*,*,#441,.F.);
#221=ORIENTED_EDGE('',*,*,#438,.T.);
#222=ORIENTED_EDGE('',*,*,#467,.T.);
#223=ORIENTED_EDGE('',*,*,#468,.T.);
#224=ORIENTED_EDGE('',*,*,#469,.F.);
#225=ORIENTED_EDGE('',*,*,#470,.F.);
#226=ORIENTED_EDGE('',*,*,#471,.F.);
#227=ORIENTED_EDGE('',*,*,#472,.T.);
#228=ORIENTED_EDGE('',*,*,#464,.F.);
#229=ORIENTED_EDGE('',*,*,#473,.T.);
#230=ORIENTED_EDGE('',*,*,#474,.T.);
#231=ORIENTED_EDGE('',*,*,#459,.F.);
#232=ORIENTED_EDGE('',*,*,#457,.F.);
#233=ORIENTED_EDGE('',*,*,#475,.F.);
#234=ORIENTED_EDGE('',*,*,#476,.T.);
#235=ORIENTED_EDGE('',*,*,#477,.T.);
#236=ORIENTED_EDGE('',*,*,#439,.T.);
#237=ORIENTED_EDGE('',*,*,#466,.T.);
#238=ORIENTED_EDGE('',*,*,#478,.T.);
#239=ORIENTED_EDGE('',*,*,#453,.T.);
#240=ORIENTED_EDGE('',*,*,#479,.F.);
#241=ORIENTED_EDGE('',*,*,#480,.T.);
#242=ORIENTED_EDGE('',*,*,#475,.T.);
#243=ORIENTED_EDGE('',*,*,#456,.F.);
#244=ORIENTED_EDGE('',*,*,#481,.T.);
#245=ORIENTED_EDGE('',*,*,#482,.T.);
#246=ORIENTED_EDGE('',*,*,#483,.T.);
#247=ORIENTED_EDGE('',*,*,#470,.T.);
#248=ORIENTED_EDGE('',*,*,#484,.F.);
#249=ORIENTED_EDGE('',*,*,#469,.T.);
#250=ORIENTED_EDGE('',*,*,#485,.T.);
#251=ORIENTED_EDGE('',*,*,#430,.F.);
#252=ORIENTED_EDGE('',*,*,#486,.T.);
#253=ORIENTED_EDGE('',*,*,#487,.F.);
#254=ORIENTED_EDGE('',*,*,#488,.T.);
#255=ORIENTED_EDGE('',*,*,#484,.T.);
#256=ORIENTED_EDGE('',*,*,#489,.F.);
#257=ORIENTED_EDGE('',*,*,#490,.T.);
#258=ORIENTED_EDGE('',*,*,#471,.T.);
#259=ORIENTED_EDGE('',*,*,#483,.F.);
#260=ORIENTED_EDGE('',*,*,#491,.T.);
#261=ORIENTED_EDGE('',*,*,#492,.T.);
#262=ORIENTED_EDGE('',*,*,#460,.F.);
#263=ORIENTED_EDGE('',*,*,#458,.F.);
#264=ORIENTED_EDGE('',*,*,#489,.T.);
#265=ORIENTED_EDGE('',*,*,#493,.T.);
#266=ORIENTED_EDGE('',*,*,#487,.T.);
#267=ORIENTED_EDGE('',*,*,#494,.T.);
#268=ORIENTED_EDGE('',*,*,#479,.T.);
#269=ORIENTED_EDGE('',*,*,#455,.F.);
#270=ORIENTED_EDGE('',*,*,#495,.T.);
#271=ORIENTED_EDGE('',*,*,#478,.F.);
#272=ORIENTED_EDGE('',*,*,#465,.F.);
#273=ORIENTED_EDGE('',*,*,#472,.F.);
#274=ORIENTED_EDGE('',*,*,#490,.F.);
#275=ORIENTED_EDGE('',*,*,#495,.F.);
#276=ORIENTED_EDGE('',*,*,#454,.F.);
#277=ORIENTED_EDGE('',*,*,#496,.T.);
#278=ORIENTED_EDGE('',*,*,#497,.F.);
#279=ORIENTED_EDGE('',*,*,#498,.T.);
#280=ORIENTED_EDGE('',*,*,#497,.T.);
#281=ORIENTED_EDGE('',*,*,#499,.T.);
#282=ORIENTED_EDGE('',*,*,#500,.F.);
#283=ORIENTED_EDGE('',*,*,#501,.T.);
#284=ORIENTED_EDGE('',*,*,#500,.T.);
#285=ORIENTED_EDGE('',*,*,#502,.T.);
#286=ORIENTED_EDGE('',*,*,#503,.F.);
#287=ORIENTED_EDGE('',*,*,#504,.T.);
#288=ORIENTED_EDGE('',*,*,#503,.T.);
#289=ORIENTED_EDGE('',*,*,#505,.T.);
#290=ORIENTED_EDGE('',*,*,#506,.F.);
#291=ORIENTED_EDGE('',*,*,#507,.T.);
#292=ORIENTED_EDGE('',*,*,#506,.T.);
#293=ORIENTED_EDGE('',*,*,#477,.F.);
#294=ORIENTED_EDGE('',*,*,#508,.T.);
#295=ORIENTED_EDGE('',*,*,#509,.T.);
#296=ORIENTED_EDGE('',*,*,#510,.T.);
#297=ORIENTED_EDGE('',*,*,#511,.T.);
#298=ORIENTED_EDGE('',*,*,#512,.T.);
#299=ORIENTED_EDGE('',*,*,#513,.F.);
#300=ORIENTED_EDGE('',*,*,#514,.F.);
#301=ORIENTED_EDGE('',*,*,#515,.F.);
#302=ORIENTED_EDGE('',*,*,#516,.F.);
#303=ORIENTED_EDGE('',*,*,#517,.F.);
#304=ORIENTED_EDGE('',*,*,#518,.F.);
#305=ORIENTED_EDGE('',*,*,#511,.F.);
#306=ORIENTED_EDGE('',*,*,#519,.T.);
#307=ORIENTED_EDGE('',*,*,#520,.T.);
#308=ORIENTED_EDGE('',*,*,#521,.T.);
#309=ORIENTED_EDGE('',*,*,#522,.F.);
#310=ORIENTED_EDGE('',*,*,#516,.T.);
#311=ORIENTED_EDGE('',*,*,#523,.T.);
#312=ORIENTED_EDGE('',*,*,#522,.T.);
#313=ORIENTED_EDGE('',*,*,#524,.F.);
#314=ORIENTED_EDGE('',*,*,#517,.T.);
#315=ORIENTED_EDGE('',*,*,#525,.T.);
#316=ORIENTED_EDGE('',*,*,#524,.T.);
#317=ORIENTED_EDGE('',*,*,#526,.F.);
#318=ORIENTED_EDGE('',*,*,#514,.T.);
#319=ORIENTED_EDGE('',*,*,#527,.T.);
#320=ORIENTED_EDGE('',*,*,#526,.T.);
#321=ORIENTED_EDGE('',*,*,#528,.F.);
#322=ORIENTED_EDGE('',*,*,#518,.T.);
#323=ORIENTED_EDGE('',*,*,#529,.T.);
#324=ORIENTED_EDGE('',*,*,#528,.T.);
#325=ORIENTED_EDGE('',*,*,#530,.F.);
#326=ORIENTED_EDGE('',*,*,#513,.T.);
#327=ORIENTED_EDGE('',*,*,#531,.T.);
#328=ORIENTED_EDGE('',*,*,#530,.T.);
#329=ORIENTED_EDGE('',*,*,#532,.F.);
#330=ORIENTED_EDGE('',*,*,#515,.T.);
#331=ORIENTED_EDGE('',*,*,#533,.T.);
#332=ORIENTED_EDGE('',*,*,#532,.T.);
#333=ORIENTED_EDGE('',*,*,#512,.F.);
#334=ORIENTED_EDGE('',*,*,#521,.F.);
#335=ORIENTED_EDGE('',*,*,#534,.F.);
#336=ORIENTED_EDGE('',*,*,#440,.F.);
#337=ORIENTED_EDGE('',*,*,#534,.T.);
#338=ORIENTED_EDGE('',*,*,#520,.F.);
#339=ORIENTED_EDGE('',*,*,#535,.F.);
#340=ORIENTED_EDGE('',*,*,#436,.F.);
#341=ORIENTED_EDGE('',*,*,#519,.F.);
#342=ORIENTED_EDGE('',*,*,#510,.F.);
#343=ORIENTED_EDGE('',*,*,#536,.F.);
#344=ORIENTED_EDGE('',*,*,#442,.F.);
#345=ORIENTED_EDGE('',*,*,#535,.T.);
#346=ORIENTED_EDGE('',*,*,#536,.T.);
#347=ORIENTED_EDGE('',*,*,#509,.F.);
#348=ORIENTED_EDGE('',*,*,#537,.F.);
#349=ORIENTED_EDGE('',*,*,#467,.F.);
#350=ORIENTED_EDGE('',*,*,#463,.F.);
#351=ORIENTED_EDGE('',*,*,#443,.F.);
#352=ORIENTED_EDGE('',*,*,#485,.F.);
#353=ORIENTED_EDGE('',*,*,#468,.F.);
#354=ORIENTED_EDGE('',*,*,#538,.F.);
#355=ORIENTED_EDGE('',*,*,#431,.F.);
#356=ORIENTED_EDGE('',*,*,#538,.T.);
#357=ORIENTED_EDGE('',*,*,#537,.T.);
#358=ORIENTED_EDGE('',*,*,#539,.F.);
#359=ORIENTED_EDGE('',*,*,#539,.T.);
#360=ORIENTED_EDGE('',*,*,#508,.F.);
#361=ORIENTED_EDGE('',*,*,#540,.F.);
#362=ORIENTED_EDGE('',*,*,#432,.F.);
#363=ORIENTED_EDGE('',*,*,#540,.T.);
#364=ORIENTED_EDGE('',*,*,#476,.F.);
#365=ORIENTED_EDGE('',*,*,#541,.F.);
#366=ORIENTED_EDGE('',*,*,#433,.F.);
#367=ORIENTED_EDGE('',*,*,#541,.T.);
#368=ORIENTED_EDGE('',*,*,#480,.F.);
#369=ORIENTED_EDGE('',*,*,#542,.F.);
#370=ORIENTED_EDGE('',*,*,#434,.F.);
#371=ORIENTED_EDGE('',*,*,#486,.F.);
#372=ORIENTED_EDGE('',*,*,#429,.F.);
#373=ORIENTED_EDGE('',*,*,#542,.T.);
#374=ORIENTED_EDGE('',*,*,#494,.F.);
#375=ORIENTED_EDGE('',*,*,#525,.F.);
#376=ORIENTED_EDGE('',*,*,#421,.F.);
#377=ORIENTED_EDGE('',*,*,#527,.F.);
#378=ORIENTED_EDGE('',*,*,#419,.F.);
#379=ORIENTED_EDGE('',*,*,#531,.F.);
#380=ORIENTED_EDGE('',*,*,#415,.F.);
#381=ORIENTED_EDGE('',*,*,#523,.F.);
#382=ORIENTED_EDGE('',*,*,#423,.F.);
#383=ORIENTED_EDGE('',*,*,#533,.F.);
#384=ORIENTED_EDGE('',*,*,#413,.F.);
#385=ORIENTED_EDGE('',*,*,#529,.F.);
#386=ORIENTED_EDGE('',*,*,#417,.F.);
#387=ORIENTED_EDGE('',*,*,#425,.F.);
#388=ORIENTED_EDGE('',*,*,#505,.F.);
#389=ORIENTED_EDGE('',*,*,#426,.F.);
#390=ORIENTED_EDGE('',*,*,#499,.F.);
#391=ORIENTED_EDGE('',*,*,#427,.F.);
#392=ORIENTED_EDGE('',*,*,#502,.F.);
#393=ORIENTED_EDGE('',*,*,#428,.F.);
#394=ORIENTED_EDGE('',*,*,#496,.F.);
#395=ORIENTED_EDGE('',*,*,#501,.F.);
#396=ORIENTED_EDGE('',*,*,#449,.F.);
#397=ORIENTED_EDGE('',*,*,#504,.F.);
#398=ORIENTED_EDGE('',*,*,#447,.F.);
#399=ORIENTED_EDGE('',*,*,#498,.F.);
#400=ORIENTED_EDGE('',*,*,#451,.F.);
#401=ORIENTED_EDGE('',*,*,#507,.F.);
#402=ORIENTED_EDGE('',*,*,#445,.F.);
#403=ORIENTED_EDGE('',*,*,#488,.F.);
#404=ORIENTED_EDGE('',*,*,#493,.F.);
#405=ORIENTED_EDGE('',*,*,#491,.F.);
#406=ORIENTED_EDGE('',*,*,#482,.F.);
#407=ORIENTED_EDGE('',*,*,#492,.F.);
#408=ORIENTED_EDGE('',*,*,#461,.F.);
#409=ORIENTED_EDGE('',*,*,#473,.F.);
#410=ORIENTED_EDGE('',*,*,#481,.F.);
#411=ORIENTED_EDGE('',*,*,#474,.F.);
#412=ORIENTED_EDGE('',*,*,#462,.F.);
#413=EDGE_CURVE('',#543,#543,#648,.T.);
#414=EDGE_CURVE('',#544,#544,#649,.T.);
#415=EDGE_CURVE('',#545,#545,#650,.T.);
#416=EDGE_CURVE('',#546,#546,#651,.T.);
#417=EDGE_CURVE('',#547,#547,#652,.T.);
#418=EDGE_CURVE('',#548,#548,#653,.T.);
#419=EDGE_CURVE('',#549,#549,#654,.T.);
#420=EDGE_CURVE('',#550,#550,#655,.T.);
#421=EDGE_CURVE('',#551,#551,#656,.T.);
#422=EDGE_CURVE('',#552,#552,#657,.T.);
#423=EDGE_CURVE('',#553,#553,#658,.T.);
#424=EDGE_CURVE('',#554,#554,#659,.T.);
#425=EDGE_CURVE('',#555,#555,#660,.F.);
#426=EDGE_CURVE('',#556,#556,#661,.F.);
#427=EDGE_CURVE('',#557,#557,#662,.F.);
#428=EDGE_CURVE('',#558,#558,#663,.F.);
#429=EDGE_CURVE('',#559,#560,#41,.F.);
#430=EDGE_CURVE('',#560,#561,#42,.T.);
#431=EDGE_CURVE('',#561,#562,#43,.F.);
#432=EDGE_CURVE('',#562,#563,#44,.T.);
#433=EDGE_CURVE('',#563,#564,#45,.T.);
#434=EDGE_CURVE('',#564,#559,#46,.F.);
#435=EDGE_CURVE('',#565,#566,#47,.T.);
#436=EDGE_CURVE('',#565,#567,#48,.T.);
#437=EDGE_CURVE('',#567,#568,#49,.T.);
#438=EDGE_CURVE('',#566,#568,#50,.T.);
#439=EDGE_CURVE('',#569,#570,#51,.T.);
#440=EDGE_CURVE('',#569,#565,#52,.F.);
#441=EDGE_CURVE('',#566,#570,#53,.T.);
#442=EDGE_CURVE('',#567,#571,#54,.F.);
#443=EDGE_CURVE('',#571,#572,#55,.T.);
#444=EDGE_CURVE('',#572,#568,#56,.T.);
#445=EDGE_CURVE('',#573,#573,#664,.T.);
#446=EDGE_CURVE('',#574,#574,#665,.T.);
#447=EDGE_CURVE('',#575,#575,#666,.T.);
#448=EDGE_CURVE('',#576,#576,#667,.T.);
#449=EDGE_CURVE('',#577,#577,#668,.T.);
#450=EDGE_CURVE('',#578,#578,#669,.T.);
#451=EDGE_CURVE('',#579,#579,#670,.T.);
#452=EDGE_CURVE('',#580,#580,#671,.T.);
#453=EDGE_CURVE('',#581,#582,#57,.T.);
#454=EDGE_CURVE('',#581,#583,#58,.T.);
#455=EDGE_CURVE('',#583,#584,#59,.T.);
#456=EDGE_CURVE('',#584,#582,#60,.T.);
#457=EDGE_CURVE('',#585,#585,#672,.T.);
#458=EDGE_CURVE('',#586,#586,#673,.T.);
#459=EDGE_CURVE('',#587,#587,#674,.T.);
#460=EDGE_CURVE('',#588,#588,#675,.T.);
#461=EDGE_CURVE('',#589,#589,#676,.T.);
#462=EDGE_CURVE('',#590,#590,#677,.F.);
#463=EDGE_CURVE('',#572,#591,#678,.F.);
#464=EDGE_CURVE('',#591,#592,#61,.T.);
#465=EDGE_CURVE('',#592,#593,#62,.T.);
#466=EDGE_CURVE('',#570,#593,#63,.T.);
#467=EDGE_CURVE('',#591,#594,#64,.F.);
#468=EDGE_CURVE('',#594,#595,#65,.T.);
#469=EDGE_CURVE('',#596,#595,#66,.T.);
#470=EDGE_CURVE('',#597,#596,#679,.T.);
#471=EDGE_CURVE('',#598,#597,#67,.T.);
#472=EDGE_CURVE('',#598,#592,#680,.T.);
#473=EDGE_CURVE('',#599,#599,#681,.T.);
#474=EDGE_CURVE('',#600,#600,#682,.T.);
#475=EDGE_CURVE('',#601,#582,#68,.T.);
#476=EDGE_CURVE('',#601,#602,#69,.F.);
#477=EDGE_CURVE('',#602,#569,#70,.T.);
#478=EDGE_CURVE('',#593,#581,#683,.F.);
#479=EDGE_CURVE('',#603,#584,#71,.T.);
#480=EDGE_CURVE('',#603,#601,#72,.T.);
#481=EDGE_CURVE('',#604,#604,#684,.F.);
#482=EDGE_CURVE('',#605,#606,#685,.T.);
#483=EDGE_CURVE('',#606,#597,#73,.T.);
#484=EDGE_CURVE('',#605,#596,#74,.T.);
#485=EDGE_CURVE('',#595,#561,#686,.F.);
#486=EDGE_CURVE('',#560,#607,#687,.T.);
#487=EDGE_CURVE('',#608,#607,#75,.T.);
#488=EDGE_CURVE('',#608,#605,#38,.T.);
#489=EDGE_CURVE('',#609,#610,#76,.T.);
#490=EDGE_CURVE('',#609,#598,#77,.F.);
#491=EDGE_CURVE('',#606,#610,#39,.T.);
#492=EDGE_CURVE('',#611,#611,#688,.F.);
#493=EDGE_CURVE('',#610,#608,#689,.F.);
#494=EDGE_CURVE('',#607,#603,#78,.T.);
#495=EDGE_CURVE('',#583,#609,#690,.T.);
#496=EDGE_CURVE('',#612,#612,#691,.T.);
#497=EDGE_CURVE('',#613,#613,#692,.T.);
#498=EDGE_CURVE('',#614,#614,#693,.F.);
#499=EDGE_CURVE('',#615,#615,#694,.T.);
#500=EDGE_CURVE('',#616,#616,#695,.T.);
#501=EDGE_CURVE('',#617,#617,#696,.F.);
#502=EDGE_CURVE('',#618,#618,#697,.T.);
#503=EDGE_CURVE('',#619,#619,#698,.T.);
#504=EDGE_CURVE('',#620,#620,#699,.F.);
#505=EDGE_CURVE('',#621,#621,#700,.T.);
#506=EDGE_CURVE('',#622,#622,#701,.T.);
#507=EDGE_CURVE('',#623,#623,#702,.F.);
#508=EDGE_CURVE('',#602,#624,#79,.F.);
#509=EDGE_CURVE('',#624,#625,#80,.T.);
#510=EDGE_CURVE('',#625,#626,#31,.F.);
#511=EDGE_CURVE('',#626,#627,#81,.T.);
#512=EDGE_CURVE('',#627,#569,#32,.F.);
#513=EDGE_CURVE('',#628,#628,#703,.T.);
#514=EDGE_CURVE('',#629,#629,#704,.T.);
#515=EDGE_CURVE('',#630,#630,#705,.T.);
#516=EDGE_CURVE('',#631,#631,#706,.T.);
#517=EDGE_CURVE('',#632,#632,#707,.T.);
#518=EDGE_CURVE('',#633,#633,#708,.T.);
#519=EDGE_CURVE('',#626,#634,#82,.T.);
#520=EDGE_CURVE('',#634,#635,#83,.F.);
#521=EDGE_CURVE('',#635,#627,#84,.T.);
#522=EDGE_CURVE('',#636,#636,#709,.T.);
#523=EDGE_CURVE('',#637,#637,#710,.F.);
#524=EDGE_CURVE('',#638,#638,#711,.T.);
#525=EDGE_CURVE('',#639,#639,#712,.F.);
#526=EDGE_CURVE('',#640,#640,#713,.T.);
#527=EDGE_CURVE('',#641,#641,#714,.F.);
#528=EDGE_CURVE('',#642,#642,#715,.T.);
#529=EDGE_CURVE('',#643,#643,#716,.F.);
#530=EDGE_CURVE('',#644,#644,#717,.T.);
#531=EDGE_CURVE('',#645,#645,#718,.F.);
#532=EDGE_CURVE('',#646,#646,#719,.T.);
#533=EDGE_CURVE('',#647,#647,#720,.F.);
#534=EDGE_CURVE('',#565,#635,#33,.T.);
#535=EDGE_CURVE('',#567,#634,#34,.T.);
#536=EDGE_CURVE('',#571,#625,#40,.F.);
#537=EDGE_CURVE('',#594,#624,#721,.T.);
#538=EDGE_CURVE('',#562,#594,#722,.T.);
#539=EDGE_CURVE('',#562,#624,#723,.F.);
#540=EDGE_CURVE('',#563,#602,#35,.T.);
#541=EDGE_CURVE('',#564,#601,#36,.F.);
#542=EDGE_CURVE('',#559,#603,#37,.F.);
#543=VERTEX_POINT('',#1687);
#544=VERTEX_POINT('',#1689);
#545=VERTEX_POINT('',#1692);
#546=VERTEX_POINT('',#1694);
#547=VERTEX_POINT('',#1697);
#548=VERTEX_POINT('',#1699);
#549=VERTEX_POINT('',#1702);
#550=VERTEX_POINT('',#1704);
#551=VERTEX_POINT('',#1707);
#552=VERTEX_POINT('',#1709);
#553=VERTEX_POINT('',#1712);
#554=VERTEX_POINT('',#1714);
#555=VERTEX_POINT('',#1717);
#556=VERTEX_POINT('',#1719);
#557=VERTEX_POINT('',#1721);
#558=VERTEX_POINT('',#1723);
#559=VERTEX_POINT('',#1725);
#560=VERTEX_POINT('',#1726);
#561=VERTEX_POINT('',#1728);
#562=VERTEX_POINT('',#1730);
#563=VERTEX_POINT('',#1732);
#564=VERTEX_POINT('',#1734);
#565=VERTEX_POINT('',#1738);
#566=VERTEX_POINT('',#1739);
#567=VERTEX_POINT('',#1741);
#568=VERTEX_POINT('',#1743);
#569=VERTEX_POINT('',#1747);
#570=VERTEX_POINT('',#1748);
#571=VERTEX_POINT('',#1753);
#572=VERTEX_POINT('',#1755);
#573=VERTEX_POINT('',#1759);
#574=VERTEX_POINT('',#1761);
#575=VERTEX_POINT('',#1764);
#576=VERTEX_POINT('',#1766);
#577=VERTEX_POINT('',#1769);
#578=VERTEX_POINT('',#1771);
#579=VERTEX_POINT('',#1774);
#580=VERTEX_POINT('',#1776);
#581=VERTEX_POINT('',#1779);
#582=VERTEX_POINT('',#1780);
#583=VERTEX_POINT('',#1782);
#584=VERTEX_POINT('',#1784);
#585=VERTEX_POINT('',#1788);
#586=VERTEX_POINT('',#1790);
#587=VERTEX_POINT('',#1793);
#588=VERTEX_POINT('',#1795);
#589=VERTEX_POINT('',#1798);
#590=VERTEX_POINT('',#1800);
#591=VERTEX_POINT('',#1803);
#592=VERTEX_POINT('',#1805);
#593=VERTEX_POINT('',#1807);
#594=VERTEX_POINT('',#1811);
#595=VERTEX_POINT('',#1813);
#596=VERTEX_POINT('',#1815);
#597=VERTEX_POINT('',#1817);
#598=VERTEX_POINT('',#1819);
#599=VERTEX_POINT('',#1823);
#600=VERTEX_POINT('',#1825);
#601=VERTEX_POINT('',#1827);
#602=VERTEX_POINT('',#1829);
#603=VERTEX_POINT('',#1834);
#604=VERTEX_POINT('',#1838);
#605=VERTEX_POINT('',#1840);
#606=VERTEX_POINT('',#1841);
#607=VERTEX_POINT('',#1847);
#608=VERTEX_POINT('',#1849);
#609=VERTEX_POINT('',#1856);
#610=VERTEX_POINT('',#1857);
#611=VERTEX_POINT('',#1865);
#612=VERTEX_POINT('',#1872);
#613=VERTEX_POINT('',#1874);
#614=VERTEX_POINT('',#1877);
#615=VERTEX_POINT('',#1880);
#616=VERTEX_POINT('',#1882);
#617=VERTEX_POINT('',#1885);
#618=VERTEX_POINT('',#1888);
#619=VERTEX_POINT('',#1890);
#620=VERTEX_POINT('',#1893);
#621=VERTEX_POINT('',#1896);
#622=VERTEX_POINT('',#1898);
#623=VERTEX_POINT('',#1901);
#624=VERTEX_POINT('',#1904);
#625=VERTEX_POINT('',#1906);
#626=VERTEX_POINT('',#1908);
#627=VERTEX_POINT('',#1910);
#628=VERTEX_POINT('',#1914);
#629=VERTEX_POINT('',#1916);
#630=VERTEX_POINT('',#1918);
#631=VERTEX_POINT('',#1920);
#632=VERTEX_POINT('',#1922);
#633=VERTEX_POINT('',#1924);
#634=VERTEX_POINT('',#1926);
#635=VERTEX_POINT('',#1928);
#636=VERTEX_POINT('',#1932);
#637=VERTEX_POINT('',#1935);
#638=VERTEX_POINT('',#1938);
#639=VERTEX_POINT('',#1941);
#640=VERTEX_POINT('',#1944);
#641=VERTEX_POINT('',#1947);
#642=VERTEX_POINT('',#1950);
#643=VERTEX_POINT('',#1953);
#644=VERTEX_POINT('',#1956);
#645=VERTEX_POINT('',#1959);
#646=VERTEX_POINT('',#1962);
#647=VERTEX_POINT('',#1965);
#648=CIRCLE('',#1159,0.00265);
#649=CIRCLE('',#1160,0.00265);
#650=CIRCLE('',#1162,0.00265);
#651=CIRCLE('',#1163,0.00265);
#652=CIRCLE('',#1165,0.00265);
#653=CIRCLE('',#1166,0.00265);
#654=CIRCLE('',#1168,0.00265);
#655=CIRCLE('',#1169,0.00265);
#656=CIRCLE('',#1171,0.00265);
#657=CIRCLE('',#1172,0.00265);
#658=CIRCLE('',#1174,0.00265);
#659=CIRCLE('',#1175,0.00265);
#660=CIRCLE('',#1177,0.004475);
#661=CIRCLE('',#1178,0.004475);
#662=CIRCLE('',#1179,0.004475);
#663=CIRCLE('',#1180,0.004475);
#664=CIRCLE('',#1185,0.00265);
#665=CIRCLE('',#1186,0.00265);
#666=CIRCLE('',#1188,0.00265);
#667=CIRCLE('',#1189,0.00265);
#668=CIRCLE('',#1191,0.00265);
#669=CIRCLE('',#1192,0.00265);
#670=CIRCLE('',#1194,0.00265);
#671=CIRCLE('',#1195,0.00265);
#672=CIRCLE('',#1198,0.00275000000000004);
#673=CIRCLE('',#1199,0.00275000000000004);
#674=CIRCLE('',#1201,0.00275000000000004);
#675=CIRCLE('',#1202,0.00275000000000004);
#676=CIRCLE('',#1204,0.00275);
#677=CIRCLE('',#1205,0.00275);
#678=CIRCLE('',#1207,0.002);
#679=CIRCLE('',#1209,0.01415);
#680=CIRCLE('',#1210,0.00275);
#681=CIRCLE('',#1212,0.01425);
#682=CIRCLE('',#1213,0.00285);
#683=CIRCLE('',#1214,0.00275);
#684=CIRCLE('',#1217,0.01415);
#685=CIRCLE('',#1218,0.01415);
#686=CIRCLE('',#1220,0.002);
#687=CIRCLE('',#1221,0.002);
#688=CIRCLE('',#1224,0.00285);
#689=CIRCLE('',#1225,0.01425);
#690=CIRCLE('',#1226,0.00275);
#691=CIRCLE('',#1229,0.004375);
#692=CIRCLE('',#1230,0.004375);
#693=CIRCLE('',#1232,0.00275);
#694=CIRCLE('',#1234,0.004375);
#695=CIRCLE('',#1235,0.004375);
#696=CIRCLE('',#1237,0.00275);
#697=CIRCLE('',#1239,0.004375);
#698=CIRCLE('',#1240,0.004375);
#699=CIRCLE('',#1242,0.00275);
#700=CIRCLE('',#1244,0.004375);
#701=CIRCLE('',#1245,0.004375);
#702=CIRCLE('',#1247,0.00275);
#703=CIRCLE('',#1252,0.0044);
#704=CIRCLE('',#1253,0.0044);
#705=CIRCLE('',#1254,0.0044);
#706=CIRCLE('',#1255,0.0044);
#707=CIRCLE('',#1256,0.0044);
#708=CIRCLE('',#1257,0.0044);
#709=CIRCLE('',#1259,0.0044);
#710=CIRCLE('',#1261,0.00275);
#711=CIRCLE('',#1263,0.0044);
#712=CIRCLE('',#1265,0.00275);
#713=CIRCLE('',#1267,0.0044);
#714=CIRCLE('',#1269,0.00275);
#715=CIRCLE('',#1271,0.0044);
#716=CIRCLE('',#1273,0.00275);
#717=CIRCLE('',#1275,0.0044);
#718=CIRCLE('',#1277,0.00275);
#719=CIRCLE('',#1279,0.0044);
#720=CIRCLE('',#1281,0.00275);
#721=CIRCLE('',#1288,0.002);
#722=CIRCLE('',#1290,0.002);
#723=CIRCLE('',#1292,0.002);
#724=EDGE_LOOP('',(#153));
#725=EDGE_LOOP('',(#154));
#726=EDGE_LOOP('',(#155));
#727=EDGE_LOOP('',(#156));
#728=EDGE_LOOP('',(#157));
#729=EDGE_LOOP('',(#158));
#730=EDGE_LOOP('',(#159));
#731=EDGE_LOOP('',(#160));
#732=EDGE_LOOP('',(#161));
#733=EDGE_LOOP('',(#162));
#734=EDGE_LOOP('',(#163));
#735=EDGE_LOOP('',(#164));
#736=EDGE_LOOP('',(#165));
#737=EDGE_LOOP('',(#166));
#738=EDGE_LOOP('',(#167));
#739=EDGE_LOOP('',(#168));
#740=EDGE_LOOP('',(#169,#170,#171,#172,#173,#174));
#741=EDGE_LOOP('',(#175,#176,#177,#178));
#742=EDGE_LOOP('',(#179,#180,#181,#182));
#743=EDGE_LOOP('',(#183,#184,#185,#186));
#744=EDGE_LOOP('',(#187));
#745=EDGE_LOOP('',(#188));
#746=EDGE_LOOP('',(#189));
#747=EDGE_LOOP('',(#190));
#748=EDGE_LOOP('',(#191));
#749=EDGE_LOOP('',(#192));
#750=EDGE_LOOP('',(#193));
#751=EDGE_LOOP('',(#194));
#752=EDGE_LOOP('',(#195,#196,#197,#198));
#753=EDGE_LOOP('',(#199));
#754=EDGE_LOOP('',(#200));
#755=EDGE_LOOP('',(#201));
#756=EDGE_LOOP('',(#202));
#757=EDGE_LOOP('',(#203));
#758=EDGE_LOOP('',(#204));
#759=EDGE_LOOP('',(#205));
#760=EDGE_LOOP('',(#206));
#761=EDGE_LOOP('',(#207));
#762=EDGE_LOOP('',(#208));
#763=EDGE_LOOP('',(#209));
#764=EDGE_LOOP('',(#210));
#765=EDGE_LOOP('',(#211));
#766=EDGE_LOOP('',(#212));
#767=EDGE_LOOP('',(#213));
#768=EDGE_LOOP('',(#214));
#769=EDGE_LOOP('',(#215,#216,#217,#218,#219,#220,#221));
#770=EDGE_LOOP('',(#222,#223,#224,#225,#226,#227,#228));
#771=EDGE_LOOP('',(#229));
#772=EDGE_LOOP('',(#230));
#773=EDGE_LOOP('',(#231));
#774=EDGE_LOOP('',(#232));
#775=EDGE_LOOP('',(#233,#234,#235,#236,#237,#238,#239));
#776=EDGE_LOOP('',(#240,#241,#242,#243));
#777=EDGE_LOOP('',(#244));
#778=EDGE_LOOP('',(#245,#246,#247,#248));
#779=EDGE_LOOP('',(#249,#250,#251,#252,#253,#254,#255));
#780=EDGE_LOOP('',(#256,#257,#258,#259,#260));
#781=EDGE_LOOP('',(#261));
#782=EDGE_LOOP('',(#262));
#783=EDGE_LOOP('',(#263));
#784=EDGE_LOOP('',(#264,#265,#266,#267,#268,#269,#270));
#785=EDGE_LOOP('',(#271,#272,#273,#274,#275,#276));
#786=EDGE_LOOP('',(#277));
#787=EDGE_LOOP('',(#278));
#788=EDGE_LOOP('',(#279));
#789=EDGE_LOOP('',(#280));
#790=EDGE_LOOP('',(#281));
#791=EDGE_LOOP('',(#282));
#792=EDGE_LOOP('',(#283));
#793=EDGE_LOOP('',(#284));
#794=EDGE_LOOP('',(#285));
#795=EDGE_LOOP('',(#286));
#796=EDGE_LOOP('',(#287));
#797=EDGE_LOOP('',(#288));
#798=EDGE_LOOP('',(#289));
#799=EDGE_LOOP('',(#290));
#800=EDGE_LOOP('',(#291));
#801=EDGE_LOOP('',(#292));
#802=EDGE_LOOP('',(#293,#294,#295,#296,#297,#298));
#803=EDGE_LOOP('',(#299));
#804=EDGE_LOOP('',(#300));
#805=EDGE_LOOP('',(#301));
#806=EDGE_LOOP('',(#302));
#807=EDGE_LOOP('',(#303));
#808=EDGE_LOOP('',(#304));
#809=EDGE_LOOP('',(#305,#306,#307,#308));
#810=EDGE_LOOP('',(#309));
#811=EDGE_LOOP('',(#310));
#812=EDGE_LOOP('',(#311));
#813=EDGE_LOOP('',(#312));
#814=EDGE_LOOP('',(#313));
#815=EDGE_LOOP('',(#314));
#816=EDGE_LOOP('',(#315));
#817=EDGE_LOOP('',(#316));
#818=EDGE_LOOP('',(#317));
#819=EDGE_LOOP('',(#318));
#820=EDGE_LOOP('',(#319));
#821=EDGE_LOOP('',(#320));
#822=EDGE_LOOP('',(#321));
#823=EDGE_LOOP('',(#322));
#824=EDGE_LOOP('',(#323));
#825=EDGE_LOOP('',(#324));
#826=EDGE_LOOP('',(#325));
#827=EDGE_LOOP('',(#326));
#828=EDGE_LOOP('',(#327));
#829=EDGE_LOOP('',(#328));
#830=EDGE_LOOP('',(#329));
#831=EDGE_LOOP('',(#330));
#832=EDGE_LOOP('',(#331));
#833=EDGE_LOOP('',(#332));
#834=EDGE_LOOP('',(#333,#334,#335,#336));
#835=EDGE_LOOP('',(#337,#338,#339,#340));
#836=EDGE_LOOP('',(#341,#342,#343,#344,#345));
#837=EDGE_LOOP('',(#346,#347,#348,#349,#350,#351));
#838=EDGE_LOOP('',(#352,#353,#354,#355));
#839=EDGE_LOOP('',(#356,#357,#358));
#840=EDGE_LOOP('',(#359,#360,#361,#362));
#841=EDGE_LOOP('',(#363,#364,#365,#366));
#842=EDGE_LOOP('',(#367,#368,#369,#370));
#843=EDGE_LOOP('',(#371,#372,#373,#374));
#844=EDGE_LOOP('',(#375));
#845=EDGE_LOOP('',(#376));
#846=EDGE_LOOP('',(#377));
#847=EDGE_LOOP('',(#378));
#848=EDGE_LOOP('',(#379));
#849=EDGE_LOOP('',(#380));
#850=EDGE_LOOP('',(#381));
#851=EDGE_LOOP('',(#382));
#852=EDGE_LOOP('',(#383));
#853=EDGE_LOOP('',(#384));
#854=EDGE_LOOP('',(#385));
#855=EDGE_LOOP('',(#386));
#856=EDGE_LOOP('',(#387));
#857=EDGE_LOOP('',(#388));
#858=EDGE_LOOP('',(#389));
#859=EDGE_LOOP('',(#390));
#860=EDGE_LOOP('',(#391));
#861=EDGE_LOOP('',(#392));
#862=EDGE_LOOP('',(#393));
#863=EDGE_LOOP('',(#394));
#864=EDGE_LOOP('',(#395));
#865=EDGE_LOOP('',(#396));
#866=EDGE_LOOP('',(#397));
#867=EDGE_LOOP('',(#398));
#868=EDGE_LOOP('',(#399));
#869=EDGE_LOOP('',(#400));
#870=EDGE_LOOP('',(#401));
#871=EDGE_LOOP('',(#402));
#872=EDGE_LOOP('',(#403,#404,#405,#406));
#873=EDGE_LOOP('',(#407));
#874=EDGE_LOOP('',(#408));
#875=EDGE_LOOP('',(#409));
#876=EDGE_LOOP('',(#410));
#877=EDGE_LOOP('',(#411));
#878=EDGE_LOOP('',(#412));
#879=FACE_BOUND('',#724,.T.);
#880=FACE_BOUND('',#725,.T.);
#881=FACE_BOUND('',#726,.T.);
#882=FACE_BOUND('',#727,.T.);
#883=FACE_BOUND('',#728,.T.);
#884=FACE_BOUND('',#729,.T.);
#885=FACE_BOUND('',#730,.T.);
#886=FACE_BOUND('',#731,.T.);
#887=FACE_BOUND('',#732,.T.);
#888=FACE_BOUND('',#733,.T.);
#889=FACE_BOUND('',#734,.T.);
#890=FACE_BOUND('',#735,.T.);
#891=FACE_BOUND('',#736,.T.);
#892=FACE_BOUND('',#737,.T.);
#893=FACE_BOUND('',#738,.T.);
#894=FACE_BOUND('',#739,.T.);
#895=FACE_BOUND('',#740,.T.);
#896=FACE_BOUND('',#741,.T.);
#897=FACE_BOUND('',#742,.T.);
#898=FACE_BOUND('',#743,.T.);
#899=FACE_BOUND('',#744,.T.);
#900=FACE_BOUND('',#745,.T.);
#901=FACE_BOUND('',#746,.T.);
#902=FACE_BOUND('',#747,.T.);
#903=FACE_BOUND('',#748,.T.);
#904=FACE_BOUND('',#749,.T.);
#905=FACE_BOUND('',#750,.T.);
#906=FACE_BOUND('',#751,.T.);
#907=FACE_BOUND('',#752,.T.);
#908=FACE_BOUND('',#753,.T.);
#909=FACE_BOUND('',#754,.T.);
#910=FACE_BOUND('',#755,.T.);
#911=FACE_BOUND('',#756,.T.);
#912=FACE_BOUND('',#757,.T.);
#913=FACE_BOUND('',#758,.T.);
#914=FACE_BOUND('',#759,.T.);
#915=FACE_BOUND('',#760,.T.);
#916=FACE_BOUND('',#761,.T.);
#917=FACE_BOUND('',#762,.T.);
#918=FACE_BOUND('',#763,.T.);
#919=FACE_BOUND('',#764,.T.);
#920=FACE_BOUND('',#765,.T.);
#921=FACE_BOUND('',#766,.T.);
#922=FACE_BOUND('',#767,.T.);
#923=FACE_BOUND('',#768,.T.);
#924=FACE_BOUND('',#769,.T.);
#925=FACE_BOUND('',#770,.T.);
#926=FACE_BOUND('',#771,.T.);
#927=FACE_BOUND('',#772,.T.);
#928=FACE_BOUND('',#773,.T.);
#929=FACE_BOUND('',#774,.T.);
#930=FACE_BOUND('',#775,.T.);
#931=FACE_BOUND('',#776,.T.);
#932=FACE_BOUND('',#777,.T.);
#933=FACE_BOUND('',#778,.T.);
#934=FACE_BOUND('',#779,.T.);
#935=FACE_BOUND('',#780,.T.);
#936=FACE_BOUND('',#781,.T.);
#937=FACE_BOUND('',#782,.T.);
#938=FACE_BOUND('',#783,.T.);
#939=FACE_BOUND('',#784,.T.);
#940=FACE_BOUND('',#785,.T.);
#941=FACE_BOUND('',#786,.T.);
#942=FACE_BOUND('',#787,.T.);
#943=FACE_BOUND('',#788,.T.);
#944=FACE_BOUND('',#789,.T.);
#945=FACE_BOUND('',#790,.T.);
#946=FACE_BOUND('',#791,.T.);
#947=FACE_BOUND('',#792,.T.);
#948=FACE_BOUND('',#793,.T.);
#949=FACE_BOUND('',#794,.T.);
#950=FACE_BOUND('',#795,.T.);
#951=FACE_BOUND('',#796,.T.);
#952=FACE_BOUND('',#797,.T.);
#953=FACE_BOUND('',#798,.T.);
#954=FACE_BOUND('',#799,.T.);
#955=FACE_BOUND('',#800,.T.);
#956=FACE_BOUND('',#801,.T.);
#957=FACE_BOUND('',#802,.T.);
#958=FACE_BOUND('',#803,.T.);
#959=FACE_BOUND('',#804,.T.);
#960=FACE_BOUND('',#805,.T.);
#961=FACE_BOUND('',#806,.T.);
#962=FACE_BOUND('',#807,.T.);
#963=FACE_BOUND('',#808,.T.);
#964=FACE_BOUND('',#809,.T.);
#965=FACE_BOUND('',#810,.T.);
#966=FACE_BOUND('',#811,.T.);
#967=FACE_BOUND('',#812,.T.);
#968=FACE_BOUND('',#813,.T.);
#969=FACE_BOUND('',#814,.T.);
#970=FACE_BOUND('',#815,.T.);
#971=FACE_BOUND('',#816,.T.);
#972=FACE_BOUND('',#817,.T.);
#973=FACE_BOUND('',#818,.T.);
#974=FACE_BOUND('',#819,.T.);
#975=FACE_BOUND('',#820,.T.);
#976=FACE_BOUND('',#821,.T.);
#977=FACE_BOUND('',#822,.T.);
#978=FACE_BOUND('',#823,.T.);
#979=FACE_BOUND('',#824,.T.);
#980=FACE_BOUND('',#825,.T.);
#981=FACE_BOUND('',#826,.T.);
#982=FACE_BOUND('',#827,.T.);
#983=FACE_BOUND('',#828,.T.);
#984=FACE_BOUND('',#829,.T.);
#985=FACE_BOUND('',#830,.T.);
#986=FACE_BOUND('',#831,.T.);
#987=FACE_BOUND('',#832,.T.);
#988=FACE_BOUND('',#833,.T.);
#989=FACE_BOUND('',#834,.T.);
#990=FACE_BOUND('',#835,.T.);
#991=FACE_BOUND('',#836,.T.);
#992=FACE_BOUND('',#837,.T.);
#993=FACE_BOUND('',#838,.T.);
#994=FACE_BOUND('',#839,.T.);
#995=FACE_BOUND('',#840,.T.);
#996=FACE_BOUND('',#841,.T.);
#997=FACE_BOUND('',#842,.T.);
#998=FACE_BOUND('',#843,.T.);
#999=FACE_BOUND('',#844,.T.);
#1000=FACE_BOUND('',#845,.T.);
#1001=FACE_BOUND('',#846,.T.);
#1002=FACE_BOUND('',#847,.T.);
#1003=FACE_BOUND('',#848,.T.);
#1004=FACE_BOUND('',#849,.T.);
#1005=FACE_BOUND('',#850,.T.);
#1006=FACE_BOUND('',#851,.T.);
#1007=FACE_BOUND('',#852,.T.);
#1008=FACE_BOUND('',#853,.T.);
#1009=FACE_BOUND('',#854,.T.);
#1010=FACE_BOUND('',#855,.T.);
#1011=FACE_BOUND('',#856,.T.);
#1012=FACE_BOUND('',#857,.T.);
#1013=FACE_BOUND('',#858,.T.);
#1014=FACE_BOUND('',#859,.T.);
#1015=FACE_BOUND('',#860,.T.);
#1016=FACE_BOUND('',#861,.T.);
#1017=FACE_BOUND('',#862,.T.);
#1018=FACE_BOUND('',#863,.T.);
#1019=FACE_BOUND('',#864,.T.);
#1020=FACE_BOUND('',#865,.T.);
#1021=FACE_BOUND('',#866,.T.);
#1022=FACE_BOUND('',#867,.T.);
#1023=FACE_BOUND('',#868,.T.);
#1024=FACE_BOUND('',#869,.T.);
#1025=FACE_BOUND('',#870,.T.);
#1026=FACE_BOUND('',#871,.T.);
#1027=FACE_BOUND('',#872,.T.);
#1028=FACE_BOUND('',#873,.T.);
#1029=FACE_BOUND('',#874,.T.);
#1030=FACE_BOUND('',#875,.T.);
#1031=FACE_BOUND('',#876,.T.);
#1032=FACE_BOUND('',#877,.T.);
#1033=FACE_BOUND('',#878,.T.);
#1034=CYLINDRICAL_SURFACE('',#1158,0.00265);
#1035=CYLINDRICAL_SURFACE('',#1161,0.00265);
#1036=CYLINDRICAL_SURFACE('',#1164,0.00265);
#1037=CYLINDRICAL_SURFACE('',#1167,0.00265);
#1038=CYLINDRICAL_SURFACE('',#1170,0.00265);
#1039=CYLINDRICAL_SURFACE('',#1173,0.00265);
#1040=CYLINDRICAL_SURFACE('',#1184,0.00265);
#1041=CYLINDRICAL_SURFACE('',#1187,0.00265);
#1042=CYLINDRICAL_SURFACE('',#1190,0.00265);
#1043=CYLINDRICAL_SURFACE('',#1193,0.00265);
#1044=CYLINDRICAL_SURFACE('',#1197,0.00275000000000004);
#1045=CYLINDRICAL_SURFACE('',#1200,0.00275000000000004);
#1046=CYLINDRICAL_SURFACE('',#1203,0.00275);
#1047=CYLINDRICAL_SURFACE('',#1216,0.01415);
#1048=CYLINDRICAL_SURFACE('',#1227,0.00275);
#1049=CYLINDRICAL_SURFACE('',#1228,0.004375);
#1050=CYLINDRICAL_SURFACE('',#1233,0.004375);
#1051=CYLINDRICAL_SURFACE('',#1238,0.004375);
#1052=CYLINDRICAL_SURFACE('',#1243,0.004375);
#1053=CYLINDRICAL_SURFACE('',#1258,0.0044);
#1054=CYLINDRICAL_SURFACE('',#1262,0.0044);
#1055=CYLINDRICAL_SURFACE('',#1266,0.0044);
#1056=CYLINDRICAL_SURFACE('',#1270,0.0044);
#1057=CYLINDRICAL_SURFACE('',#1274,0.0044);
#1058=CYLINDRICAL_SURFACE('',#1278,0.0044);
#1059=CYLINDRICAL_SURFACE('',#1282,0.002);
#1060=CYLINDRICAL_SURFACE('',#1284,0.002);
#1061=CYLINDRICAL_SURFACE('',#1286,0.002);
#1062=CYLINDRICAL_SURFACE('',#1287,0.002);
#1063=CYLINDRICAL_SURFACE('',#1289,0.002);
#1064=CYLINDRICAL_SURFACE('',#1293,0.002);
#1065=CYLINDRICAL_SURFACE('',#1295,0.002);
#1066=CYLINDRICAL_SURFACE('',#1297,0.002);
#1067=CYLINDRICAL_SURFACE('',#1299,0.002);
#1068=ADVANCED_FACE('',(#879,#880),#1034,.F.);
#1069=ADVANCED_FACE('',(#881,#882),#1035,.F.);
#1070=ADVANCED_FACE('',(#883,#884),#1036,.F.);
#1071=ADVANCED_FACE('',(#885,#886),#1037,.F.);
#1072=ADVANCED_FACE('',(#887,#888),#1038,.F.);
#1073=ADVANCED_FACE('',(#889,#890),#1039,.F.);
#1074=ADVANCED_FACE('',(#891,#892,#893,#894,#895),#129,.T.);
#1075=ADVANCED_FACE('',(#896),#130,.T.);
#1076=ADVANCED_FACE('',(#897),#131,.F.);
#1077=ADVANCED_FACE('',(#898),#132,.F.);
#1078=ADVANCED_FACE('',(#899,#900),#1040,.F.);
#1079=ADVANCED_FACE('',(#901,#902),#1041,.F.);
#1080=ADVANCED_FACE('',(#903,#904),#1042,.F.);
#1081=ADVANCED_FACE('',(#905,#906),#1043,.F.);
#1082=ADVANCED_FACE('',(#907),#133,.T.);
#1083=ADVANCED_FACE('',(#908,#909),#1044,.F.);
#1084=ADVANCED_FACE('',(#910,#911),#1045,.F.);
#1085=ADVANCED_FACE('',(#912,#913),#1046,.F.);
#1086=ADVANCED_FACE('',(#914,#915,#916,#917,#918,#919,#920,#921,#922,#923,
#924),#134,.F.);
#1087=ADVANCED_FACE('',(#925),#135,.T.);
#1088=ADVANCED_FACE('',(#926,#927,#928,#929,#930),#136,.F.);
#1089=ADVANCED_FACE('',(#931),#137,.T.);
#1090=ADVANCED_FACE('',(#932,#933),#1047,.F.);
#1091=ADVANCED_FACE('',(#934),#138,.F.);
#1092=ADVANCED_FACE('',(#935),#139,.F.);
#1093=ADVANCED_FACE('',(#936,#937,#938,#939),#140,.T.);
#1094=ADVANCED_FACE('',(#940),#1048,.T.);
#1095=ADVANCED_FACE('',(#941,#942),#1049,.F.);
#1096=ADVANCED_FACE('',(#943,#944),#141,.T.);
#1097=ADVANCED_FACE('',(#945,#946),#1050,.F.);
#1098=ADVANCED_FACE('',(#947,#948),#142,.T.);
#1099=ADVANCED_FACE('',(#949,#950),#1051,.F.);
#1100=ADVANCED_FACE('',(#951,#952),#143,.T.);
#1101=ADVANCED_FACE('',(#953,#954),#1052,.F.);
#1102=ADVANCED_FACE('',(#955,#956),#144,.T.);
#1103=ADVANCED_FACE('',(#957),#145,.T.);
#1104=ADVANCED_FACE('',(#958,#959,#960,#961,#962,#963,#964),#146,.T.);
#1105=ADVANCED_FACE('',(#965,#966),#1053,.F.);
#1106=ADVANCED_FACE('',(#967,#968),#147,.T.);
#1107=ADVANCED_FACE('',(#969,#970),#1054,.F.);
#1108=ADVANCED_FACE('',(#971,#972),#148,.T.);
#1109=ADVANCED_FACE('',(#973,#974),#1055,.F.);
#1110=ADVANCED_FACE('',(#975,#976),#149,.T.);
#1111=ADVANCED_FACE('',(#977,#978),#1056,.F.);
#1112=ADVANCED_FACE('',(#979,#980),#150,.T.);
#1113=ADVANCED_FACE('',(#981,#982),#1057,.F.);
#1114=ADVANCED_FACE('',(#983,#984),#151,.T.);
#1115=ADVANCED_FACE('',(#985,#986),#1058,.F.);
#1116=ADVANCED_FACE('',(#987,#988),#152,.T.);
#1117=ADVANCED_FACE('',(#989),#1059,.T.);
#1118=ADVANCED_FACE('',(#990),#1060,.T.);
#1119=ADVANCED_FACE('',(#991),#1061,.T.);
#1120=ADVANCED_FACE('',(#992),#1062,.T.);
#1121=ADVANCED_FACE('',(#993),#1063,.T.);
#1122=ADVANCED_FACE('',(#994),#30,.T.);
#1123=ADVANCED_FACE('',(#995),#1064,.T.);
#1124=ADVANCED_FACE('',(#996),#1065,.T.);
#1125=ADVANCED_FACE('',(#997),#1066,.T.);
#1126=ADVANCED_FACE('',(#998),#1067,.T.);
#1127=ADVANCED_FACE('',(#999,#1000),#12,.F.);
#1128=ADVANCED_FACE('',(#1001,#1002),#13,.F.);
#1129=ADVANCED_FACE('',(#1003,#1004),#14,.F.);
#1130=ADVANCED_FACE('',(#1005,#1006),#15,.F.);
#1131=ADVANCED_FACE('',(#1007,#1008),#16,.F.);
#1132=ADVANCED_FACE('',(#1009,#1010),#17,.F.);
#1133=ADVANCED_FACE('',(#1011,#1012),#18,.F.);
#1134=ADVANCED_FACE('',(#1013,#1014),#19,.F.);
#1135=ADVANCED_FACE('',(#1015,#1016),#20,.F.);
#1136=ADVANCED_FACE('',(#1017,#1018),#21,.F.);
#1137=ADVANCED_FACE('',(#1019,#1020),#22,.F.);
#1138=ADVANCED_FACE('',(#1021,#1022),#23,.F.);
#1139=ADVANCED_FACE('',(#1023,#1024),#24,.F.);
#1140=ADVANCED_FACE('',(#1025,#1026),#25,.F.);
#1141=ADVANCED_FACE('',(#1027),#26,.F.);
#1142=ADVANCED_FACE('',(#1028,#1029),#27,.F.);
#1143=ADVANCED_FACE('',(#1030,#1031),#28,.F.);
#1144=ADVANCED_FACE('',(#1032,#1033),#29,.F.);
#1145=CLOSED_SHELL('',(#1068,#1069,#1070,#1071,#1072,#1073,#1074,#1075,
#1076,#1077,#1078,#1079,#1080,#1081,#1082,#1083,#1084,#1085,#1086,#1087,
#1088,#1089,#1090,#1091,#1092,#1093,#1094,#1095,#1096,#1097,#1098,#1099,
#1100,#1101,#1102,#1103,#1104,#1105,#1106,#1107,#1108,#1109,#1110,#1111,
#1112,#1113,#1114,#1115,#1116,#1117,#1118,#1119,#1120,#1121,#1122,#1123,
#1124,#1125,#1126,#1127,#1128,#1129,#1130,#1131,#1132,#1133,#1134,#1135,
#1136,#1137,#1138,#1139,#1140,#1141,#1142,#1143,#1144));
#1146=STYLED_ITEM('',(#1147),#1154);
#1147=PRESENTATION_STYLE_ASSIGNMENT((#1148));
#1148=SURFACE_STYLE_USAGE(.BOTH.,#1149);
#1149=SURFACE_SIDE_STYLE('',(#1150));
#1150=SURFACE_STYLE_FILL_AREA(#1151);
#1151=FILL_AREA_STYLE('',(#1152));
#1152=FILL_AREA_STYLE_COLOUR('',#1153);
#1153=COLOUR_RGB('',0.615686274509804,0.811764705882353,0.929411764705882);
#1154=MANIFOLD_SOLID_BREP('GantryLower-Left',#1145);
#1155=SHAPE_DEFINITION_REPRESENTATION(#2015,#1156);
#1156=SHAPE_REPRESENTATION('GantryLower-Left',(#1157),#2010);
#1157=AXIS2_PLACEMENT_3D('',#1684,#1318,#1319);
#1158=AXIS2_PLACEMENT_3D('',#1685,#1320,#1321);
#1159=AXIS2_PLACEMENT_3D('',#1686,#1322,#1323);
#1160=AXIS2_PLACEMENT_3D('',#1688,#1324,#1325);
#1161=AXIS2_PLACEMENT_3D('',#1690,#1326,#1327);
#1162=AXIS2_PLACEMENT_3D('',#1691,#1328,#1329);
#1163=AXIS2_PLACEMENT_3D('',#1693,#1330,#1331);
#1164=AXIS2_PLACEMENT_3D('',#1695,#1332,#1333);
#1165=AXIS2_PLACEMENT_3D('',#1696,#1334,#1335);
#1166=AXIS2_PLACEMENT_3D('',#1698,#1336,#1337);
#1167=AXIS2_PLACEMENT_3D('',#1700,#1338,#1339);
#1168=AXIS2_PLACEMENT_3D('',#1701,#1340,#1341);
#1169=AXIS2_PLACEMENT_3D('',#1703,#1342,#1343);
#1170=AXIS2_PLACEMENT_3D('',#1705,#1344,#1345);
#1171=AXIS2_PLACEMENT_3D('',#1706,#1346,#1347);
#1172=AXIS2_PLACEMENT_3D('',#1708,#1348,#1349);
#1173=AXIS2_PLACEMENT_3D('',#1710,#1350,#1351);
#1174=AXIS2_PLACEMENT_3D('',#1711,#1352,#1353);
#1175=AXIS2_PLACEMENT_3D('',#1713,#1354,#1355);
#1176=AXIS2_PLACEMENT_3D('',#1715,#1356,#1357);
#1177=AXIS2_PLACEMENT_3D('',#1716,#1358,#1359);
#1178=AXIS2_PLACEMENT_3D('',#1718,#1360,#1361);
#1179=AXIS2_PLACEMENT_3D('',#1720,#1362,#1363);
#1180=AXIS2_PLACEMENT_3D('',#1722,#1364,#1365);
#1181=AXIS2_PLACEMENT_3D('',#1736,#1372,#1373);
#1182=AXIS2_PLACEMENT_3D('',#1745,#1378,#1379);
#1183=AXIS2_PLACEMENT_3D('',#1751,#1383,#1384);
#1184=AXIS2_PLACEMENT_3D('',#1757,#1388,#1389);
#1185=AXIS2_PLACEMENT_3D('',#1758,#1390,#1391);
#1186=AXIS2_PLACEMENT_3D('',#1760,#1392,#1393);
#1187=AXIS2_PLACEMENT_3D('',#1762,#1394,#1395);
#1188=AXIS2_PLACEMENT_3D('',#1763,#1396,#1397);
#1189=AXIS2_PLACEMENT_3D('',#1765,#1398,#1399);
#1190=AXIS2_PLACEMENT_3D('',#1767,#1400,#1401);
#1191=AXIS2_PLACEMENT_3D('',#1768,#1402,#1403);
#1192=AXIS2_PLACEMENT_3D('',#1770,#1404,#1405);
#1193=AXIS2_PLACEMENT_3D('',#1772,#1406,#1407);
#1194=AXIS2_PLACEMENT_3D('',#1773,#1408,#1409);
#1195=AXIS2_PLACEMENT_3D('',#1775,#1410,#1411);
#1196=AXIS2_PLACEMENT_3D('',#1777,#1412,#1413);
#1197=AXIS2_PLACEMENT_3D('',#1786,#1418,#1419);
#1198=AXIS2_PLACEMENT_3D('',#1787,#1420,#1421);
#1199=AXIS2_PLACEMENT_3D('',#1789,#1422,#1423);
#1200=AXIS2_PLACEMENT_3D('',#1791,#1424,#1425);
#1201=AXIS2_PLACEMENT_3D('',#1792,#1426,#1427);
#1202=AXIS2_PLACEMENT_3D('',#1794,#1428,#1429);
#1203=AXIS2_PLACEMENT_3D('',#1796,#1430,#1431);
#1204=AXIS2_PLACEMENT_3D('',#1797,#1432,#1433);
#1205=AXIS2_PLACEMENT_3D('',#1799,#1434,#1435);
#1206=AXIS2_PLACEMENT_3D('',#1801,#1436,#1437);
#1207=AXIS2_PLACEMENT_3D('',#1802,#1438,#1439);
#1208=AXIS2_PLACEMENT_3D('',#1809,#1443,#1444);
#1209=AXIS2_PLACEMENT_3D('',#1816,#1448,#1449);
#1210=AXIS2_PLACEMENT_3D('',#1820,#1451,#1452);
#1211=AXIS2_PLACEMENT_3D('',#1821,#1453,#1454);
#1212=AXIS2_PLACEMENT_3D('',#1822,#1455,#1456);
#1213=AXIS2_PLACEMENT_3D('',#1824,#1457,#1458);
#1214=AXIS2_PLACEMENT_3D('',#1831,#1462,#1463);
#1215=AXIS2_PLACEMENT_3D('',#1832,#1464,#1465);
#1216=AXIS2_PLACEMENT_3D('',#1836,#1468,#1469);
#1217=AXIS2_PLACEMENT_3D('',#1837,#1470,#1471);
#1218=AXIS2_PLACEMENT_3D('',#1839,#1472,#1473);
#1219=AXIS2_PLACEMENT_3D('',#1844,#1476,#1477);
#1220=AXIS2_PLACEMENT_3D('',#1845,#1478,#1479);
#1221=AXIS2_PLACEMENT_3D('',#1846,#1480,#1481);
#1222=AXIS2_PLACEMENT_3D('',#1854,#1483,#1484);
#1223=AXIS2_PLACEMENT_3D('',#1863,#1487,#1488);
#1224=AXIS2_PLACEMENT_3D('',#1864,#1489,#1490);
#1225=AXIS2_PLACEMENT_3D('',#1866,#1491,#1492);
#1226=AXIS2_PLACEMENT_3D('',#1868,#1494,#1495);
#1227=AXIS2_PLACEMENT_3D('',#1869,#1496,#1497);
#1228=AXIS2_PLACEMENT_3D('',#1870,#1498,#1499);
#1229=AXIS2_PLACEMENT_3D('',#1871,#1500,#1501);
#1230=AXIS2_PLACEMENT_3D('',#1873,#1502,#1503);
#1231=AXIS2_PLACEMENT_3D('',#1875,#1504,#1505);
#1232=AXIS2_PLACEMENT_3D('',#1876,#1506,#1507);
#1233=AXIS2_PLACEMENT_3D('',#1878,#1508,#1509);
#1234=AXIS2_PLACEMENT_3D('',#1879,#1510,#1511);
#1235=AXIS2_PLACEMENT_3D('',#1881,#1512,#1513);
#1236=AXIS2_PLACEMENT_3D('',#1883,#1514,#1515);
#1237=AXIS2_PLACEMENT_3D('',#1884,#1516,#1517);
#1238=AXIS2_PLACEMENT_3D('',#1886,#1518,#1519);
#1239=AXIS2_PLACEMENT_3D('',#1887,#1520,#1521);
#1240=AXIS2_PLACEMENT_3D('',#1889,#1522,#1523);
#1241=AXIS2_PLACEMENT_3D('',#1891,#1524,#1525);
#1242=AXIS2_PLACEMENT_3D('',#1892,#1526,#1527);
#1243=AXIS2_PLACEMENT_3D('',#1894,#1528,#1529);
#1244=AXIS2_PLACEMENT_3D('',#1895,#1530,#1531);
#1245=AXIS2_PLACEMENT_3D('',#1897,#1532,#1533);
#1246=AXIS2_PLACEMENT_3D('',#1899,#1534,#1535);
#1247=AXIS2_PLACEMENT_3D('',#1900,#1536,#1537);
#1248=AXIS2_PLACEMENT_3D('',#1902,#1538,#1539);
#1249=AXIS2_PLACEMENT_3D('',#1907,#1542,#1543);
#1250=AXIS2_PLACEMENT_3D('',#1911,#1545,#1546);
#1251=AXIS2_PLACEMENT_3D('',#1912,#1547,#1548);
#1252=AXIS2_PLACEMENT_3D('',#1913,#1549,#1550);
#1253=AXIS2_PLACEMENT_3D('',#1915,#1551,#1552);
#1254=AXIS2_PLACEMENT_3D('',#1917,#1553,#1554);
#1255=AXIS2_PLACEMENT_3D('',#1919,#1555,#1556);
#1256=AXIS2_PLACEMENT_3D('',#1921,#1557,#1558);
#1257=AXIS2_PLACEMENT_3D('',#1923,#1559,#1560);
#1258=AXIS2_PLACEMENT_3D('',#1930,#1564,#1565);
#1259=AXIS2_PLACEMENT_3D('',#1931,#1566,#1567);
#1260=AXIS2_PLACEMENT_3D('',#1933,#1568,#1569);
#1261=AXIS2_PLACEMENT_3D('',#1934,#1570,#1571);
#1262=AXIS2_PLACEMENT_3D('',#1936,#1572,#1573);
#1263=AXIS2_PLACEMENT_3D('',#1937,#1574,#1575);
#1264=AXIS2_PLACEMENT_3D('',#1939,#1576,#1577);
#1265=AXIS2_PLACEMENT_3D('',#1940,#1578,#1579);
#1266=AXIS2_PLACEMENT_3D('',#1942,#1580,#1581);
#1267=AXIS2_PLACEMENT_3D('',#1943,#1582,#1583);
#1268=AXIS2_PLACEMENT_3D('',#1945,#1584,#1585);
#1269=AXIS2_PLACEMENT_3D('',#1946,#1586,#1587);
#1270=AXIS2_PLACEMENT_3D('',#1948,#1588,#1589);
#1271=AXIS2_PLACEMENT_3D('',#1949,#1590,#1591);
#1272=AXIS2_PLACEMENT_3D('',#1951,#1592,#1593);
#1273=AXIS2_PLACEMENT_3D('',#1952,#1594,#1595);
#1274=AXIS2_PLACEMENT_3D('',#1954,#1596,#1597);
#1275=AXIS2_PLACEMENT_3D('',#1955,#1598,#1599);
#1276=AXIS2_PLACEMENT_3D('',#1957,#1600,#1601);
#1277=AXIS2_PLACEMENT_3D('',#1958,#1602,#1603);
#1278=AXIS2_PLACEMENT_3D('',#1960,#1604,#1605);
#1279=AXIS2_PLACEMENT_3D('',#1961,#1606,#1607);
#1280=AXIS2_PLACEMENT_3D('',#1963,#1608,#1609);
#1281=AXIS2_PLACEMENT_3D('',#1964,#1610,#1611);
#1282=AXIS2_PLACEMENT_3D('',#1966,#1612,#1613);
#1283=AXIS2_PLACEMENT_3D('',#1967,#1614,#1615);
#1284=AXIS2_PLACEMENT_3D('',#1968,#1616,#1617);
#1285=AXIS2_PLACEMENT_3D('',#1969,#1618,#1619);
#1286=AXIS2_PLACEMENT_3D('',#1970,#1620,#1621);
#1287=AXIS2_PLACEMENT_3D('',#1978,#1622,#1623);
#1288=AXIS2_PLACEMENT_3D('',#1979,#1624,#1625);
#1289=AXIS2_PLACEMENT_3D('',#1980,#1626,#1627);
#1290=AXIS2_PLACEMENT_3D('',#1981,#1628,#1629);
#1291=AXIS2_PLACEMENT_3D('',#1982,#1630,#1631);
#1292=AXIS2_PLACEMENT_3D('',#1983,#1632,#1633);
#1293=AXIS2_PLACEMENT_3D('',#1984,#1634,#1635);
#1294=AXIS2_PLACEMENT_3D('',#1985,#1636,#1637);
#1295=AXIS2_PLACEMENT_3D('',#1986,#1638,#1639);
#1296=AXIS2_PLACEMENT_3D('',#1987,#1640,#1641);
#1297=AXIS2_PLACEMENT_3D('',#1988,#1642,#1643);
#1298=AXIS2_PLACEMENT_3D('',#1989,#1644,#1645);
#1299=AXIS2_PLACEMENT_3D('',#1990,#1646,#1647);
#1300=AXIS2_PLACEMENT_3D('',#1991,#1648,#1649);
#1301=AXIS2_PLACEMENT_3D('',#1992,#1650,#1651);
#1302=AXIS2_PLACEMENT_3D('',#1993,#1652,#1653);
#1303=AXIS2_PLACEMENT_3D('',#1994,#1654,#1655);
#1304=AXIS2_PLACEMENT_3D('',#1995,#1656,#1657);
#1305=AXIS2_PLACEMENT_3D('',#1996,#1658,#1659);
#1306=AXIS2_PLACEMENT_3D('',#1997,#1660,#1661);
#1307=AXIS2_PLACEMENT_3D('',#1998,#1662,#1663);
#1308=AXIS2_PLACEMENT_3D('',#1999,#1664,#1665);
#1309=AXIS2_PLACEMENT_3D('',#2000,#1666,#1667);
#1310=AXIS2_PLACEMENT_3D('',#2001,#1668,#1669);
#1311=AXIS2_PLACEMENT_3D('',#2002,#1670,#1671);
#1312=AXIS2_PLACEMENT_3D('',#2003,#1672,#1673);
#1313=AXIS2_PLACEMENT_3D('',#2004,#1674,#1675);
#1314=AXIS2_PLACEMENT_3D('',#2005,#1676,#1677);
#1315=AXIS2_PLACEMENT_3D('',#2006,#1678,#1679);
#1316=AXIS2_PLACEMENT_3D('',#2007,#1680,#1681);
#1317=AXIS2_PLACEMENT_3D('',#2008,#1682,#1683);
#1318=DIRECTION('',(0.,0.,1.));
#1319=DIRECTION('',(1.,0.,0.));
#1320=DIRECTION('',(-3.19330894433465E-27,1.,5.20608754395467E-27));
#1321=DIRECTION('',(0.,-5.20608754395467E-27,1.));
#1322=DIRECTION('',(0.,1.,0.));
#1323=DIRECTION('',(1.,0.,0.));
#1324=DIRECTION('',(-3.19330894433465E-27,1.,5.20608754395467E-27));
#1325=DIRECTION('',(0.,-5.20608754395467E-27,1.));
#1326=DIRECTION('',(-3.19330894433465E-27,1.,5.20608754395467E-27));
#1327=DIRECTION('',(0.,-5.20608754395467E-27,1.));
#1328=DIRECTION('',(0.,1.,0.));
#1329=DIRECTION('',(1.,0.,0.));
#1330=DIRECTION('',(-3.19330894433465E-27,1.,5.20608754395467E-27));
#1331=DIRECTION('',(0.,-5.20608754395467E-27,1.));
#1332=DIRECTION('',(-3.19330894433465E-27,1.,5.20608754395467E-27));
#1333=DIRECTION('',(0.,-5.20608754395467E-27,1.));
#1334=DIRECTION('',(0.,1.,0.));
#1335=DIRECTION('',(1.,0.,0.));
#1336=DIRECTION('',(-3.19330894433465E-27,1.,5.20608754395467E-27));
#1337=DIRECTION('',(0.,-5.20608754395467E-27,1.));
#1338=DIRECTION('',(-3.19330894433465E-27,1.,5.20608754395467E-27));
#1339=DIRECTION('',(0.,-5.20608754395467E-27,1.));
#1340=DIRECTION('',(0.,1.,0.));
#1341=DIRECTION('',(1.,0.,0.));
#1342=DIRECTION('',(-3.19330894433465E-27,1.,5.20608754395467E-27));
#1343=DIRECTION('',(0.,-5.20608754395467E-27,1.));
#1344=DIRECTION('',(-3.19330894433465E-27,1.,5.20608754395467E-27));
#1345=DIRECTION('',(0.,-5.20608754395467E-27,1.));
#1346=DIRECTION('',(0.,1.,0.));
#1347=DIRECTION('',(1.,0.,0.));
#1348=DIRECTION('',(-3.19330894433465E-27,1.,5.20608754395467E-27));
#1349=DIRECTION('',(0.,-5.20608754395467E-27,1.));
#1350=DIRECTION('',(-3.19330894433465E-27,1.,5.20608754395467E-27));
#1351=DIRECTION('',(0.,-5.20608754395467E-27,1.));
#1352=DIRECTION('',(0.,1.,0.));
#1353=DIRECTION('',(1.,0.,0.));
#1354=DIRECTION('',(-3.19330894433465E-27,1.,5.20608754395467E-27));
#1355=DIRECTION('',(0.,-5.20608754395467E-27,1.));
#1356=DIRECTION('',(-3.19330894433465E-27,1.,5.20608754395467E-27));
#1357=DIRECTION('',(1.,3.19330894433465E-27,1.66246459190996E-53));
#1358=DIRECTION('',(-3.19330894433465E-27,1.,5.20608754395467E-27));
#1359=DIRECTION('',(0.,-5.20608754395467E-27,1.));
#1360=DIRECTION('',(-3.19330894433465E-27,1.,5.20608754395467E-27));
#1361=DIRECTION('',(0.,-5.20608754395467E-27,1.));
#1362=DIRECTION('',(-3.19330894433465E-27,1.,5.20608754395467E-27));
#1363=DIRECTION('',(0.,-5.20608754395467E-27,1.));
#1364=DIRECTION('',(-3.19330894433465E-27,1.,5.20608754395467E-27));
#1365=DIRECTION('',(0.,-5.20608754395467E-27,1.));
#1366=DIRECTION('',(1.,3.19330894433465E-27,5.90350005516892E-58));
#1367=DIRECTION('',(-1.66240555690942E-53,5.20608754395467E-27,-1.));
#1368=DIRECTION('',(1.,3.19330894433465E-27,5.90350005516892E-58));
#1369=DIRECTION('',(1.66246459190996E-53,-5.20608754395467E-27,1.));
#1370=DIRECTION('',(1.,3.19330894433465E-27,5.90350005516892E-58));
#1371=DIRECTION('',(-9.69248941243797E-59,-5.20608754395467E-27,1.));
#1372=DIRECTION('',(-1.,-3.19330894433465E-27,-1.66247808697951E-53));
#1373=DIRECTION('',(-3.19330894433465E-27,1.,0.));
#1374=DIRECTION('',(3.19330894433465E-27,-1.,-5.20608754395467E-27));
#1375=DIRECTION('',(1.34950695451321E-58,5.20608754395467E-27,-1.));
#1376=DIRECTION('',(3.19330894433465E-27,-1.,-5.20608754395467E-27));
#1377=DIRECTION('',(1.349506954497E-58,5.20608754395467E-27,-1.));
#1378=DIRECTION('',(-0.426016273681316,3.34962651421903E-27,-0.904715499236465));
#1379=DIRECTION('',(-0.904715499236465,0.,0.426016273681316));
#1380=DIRECTION('',(3.19330894433465E-27,-1.,-5.20608754395467E-27));
#1381=DIRECTION('',(0.904715499236465,5.10691411172427E-27,-0.426016273681316));
#1382=DIRECTION('',(0.904715499236465,5.10691411172427E-27,-0.426016273681316));
#1383=DIRECTION('',(-0.0920654113917342,-5.47797039056985E-27,0.995752961343963));
#1384=DIRECTION('',(0.995752961343963,0.,0.0920654113917342));
#1385=DIRECTION('',(-0.995752961343963,-2.70044624633182E-27,-0.0920654113917342));
#1386=DIRECTION('',(3.19330894433465E-27,-1.,-5.20608754395467E-27));
#1387=DIRECTION('',(-0.995752961343963,-2.70044624633182E-27,-0.0920654113917342));
#1388=DIRECTION('',(3.19330894433465E-27,-1.,-5.20608754395467E-27));
#1389=DIRECTION('',(0.,5.20608754395467E-27,-1.));
#1390=DIRECTION('',(0.,1.,0.));
#1391=DIRECTION('',(1.,0.,0.));
#1392=DIRECTION('',(-3.19330894433465E-27,1.,5.20608754395467E-27));
#1393=DIRECTION('',(0.,-5.20608754395467E-27,1.));
#1394=DIRECTION('',(3.19330894433465E-27,-1.,-5.20608754395467E-27));
#1395=DIRECTION('',(0.,5.20608754395467E-27,-1.));
#1396=DIRECTION('',(0.,1.,0.));
#1397=DIRECTION('',(1.,0.,0.));
#1398=DIRECTION('',(-3.19330894433465E-27,1.,5.20608754395467E-27));
#1399=DIRECTION('',(0.,-5.20608754395467E-27,1.));
#1400=DIRECTION('',(3.19330894433465E-27,-1.,-5.20608754395467E-27));
#1401=DIRECTION('',(0.,5.20608754395467E-27,-1.));
#1402=DIRECTION('',(0.,1.,0.));
#1403=DIRECTION('',(1.,0.,0.));
#1404=DIRECTION('',(-3.19330894433465E-27,1.,5.20608754395467E-27));
#1405=DIRECTION('',(0.,-5.20608754395467E-27,1.));
#1406=DIRECTION('',(3.19330894433465E-27,-1.,-5.20608754395467E-27));
#1407=DIRECTION('',(0.,5.20608754395467E-27,-1.));
#1408=DIRECTION('',(0.,1.,0.));
#1409=DIRECTION('',(1.,0.,0.));
#1410=DIRECTION('',(-3.19330894433465E-27,1.,5.20608754395467E-27));
#1411=DIRECTION('',(0.,-5.20608754395467E-27,1.));
#1412=DIRECTION('',(3.19330894433465E-27,-1.,-5.20608754395467E-27));
#1413=DIRECTION('',(1.,3.19330894433465E-27,1.66246459190996E-53));
#1414=DIRECTION('',(1.,3.19330894433465E-27,5.90350005515547E-58));
#1415=DIRECTION('',(9.69248941243797E-59,5.20608754395467E-27,-1.));
#1416=DIRECTION('',(1.,3.19330894433465E-27,5.90350005515547E-58));
#1417=DIRECTION('',(-9.6924894123972E-59,-5.20608754395467E-27,1.));
#1418=DIRECTION('',(1.66240555690942E-53,-5.20608754395467E-27,1.));
#1419=DIRECTION('',(0.,-1.,-5.20608754395467E-27));
#1420=DIRECTION('',(1.66240555690942E-53,-5.20608754395467E-27,1.));
#1421=DIRECTION('',(0.,-1.,-5.20608754395467E-27));
#1422=DIRECTION('',(-1.66240555690942E-53,5.20608754395467E-27,-1.));
#1423=DIRECTION('',(0.,1.,5.20608754395467E-27));
#1424=DIRECTION('',(1.66240555690942E-53,-5.20608754395467E-27,1.));
#1425=DIRECTION('',(0.,-1.,-5.20608754395467E-27));
#1426=DIRECTION('',(1.66240555690942E-53,-5.20608754395467E-27,1.));
#1427=DIRECTION('',(0.,-1.,-5.20608754395467E-27));
#1428=DIRECTION('',(-1.66240555690942E-53,5.20608754395467E-27,-1.));
#1429=DIRECTION('',(0.,1.,5.20608754395467E-27));
#1430=DIRECTION('',(1.66240555690942E-53,-5.20608754395467E-27,1.));
#1431=DIRECTION('',(0.,-1.,-5.20608754395467E-27));
#1432=DIRECTION('',(0.,0.,-1.));
#1433=DIRECTION('',(0.,1.,0.));
#1434=DIRECTION('',(0.,0.,-1.));
#1435=DIRECTION('',(0.,1.,0.));
#1436=DIRECTION('',(-3.19330894433465E-27,1.,5.20608754395467E-27));
#1437=DIRECTION('',(1.,3.19330894433465E-27,1.66246459190996E-53));
#1438=DIRECTION('',(-3.19330894433465E-27,1.,5.20608754395467E-27));
#1439=DIRECTION('',(0.,-5.20608754395467E-27,1.));
#1440=DIRECTION('',(1.,3.19330894433465E-27,5.90350005515547E-58));
#1441=DIRECTION('',(-9.69248941243797E-59,-5.20608754395467E-27,1.));
#1442=DIRECTION('',(1.,3.19330894433465E-27,5.90350005515547E-58));
#1443=DIRECTION('',(-1.66240555690942E-53,5.20608754395467E-27,-1.));
#1444=DIRECTION('',(0.,1.,5.20608754395467E-27));
#1445=DIRECTION('',(3.19330894433465E-27,-1.,-5.20608754395467E-27));
#1446=DIRECTION('',(1.,3.19330894433465E-27,5.90350005516892E-58));
#1447=DIRECTION('',(3.30423519233678E-16,1.,5.20608754395467E-27));
#1448=DIRECTION('',(-1.66240555690942E-53,5.20608754395467E-27,-1.));
#1449=DIRECTION('',(0.,1.,5.20608754395467E-27));
#1450=DIRECTION('',(3.30423519233678E-16,1.,5.20608754395467E-27));
#1451=DIRECTION('',(-1.66240555690942E-53,5.20608754395467E-27,-1.));
#1452=DIRECTION('',(0.,1.,5.20608754395467E-27));
#1453=DIRECTION('',(-1.66240555690942E-53,5.20608754395467E-27,-1.));
#1454=DIRECTION('',(0.,1.,5.20608754395467E-27));
#1455=DIRECTION('',(-1.66240555690942E-53,5.20608754395467E-27,-1.));
#1456=DIRECTION('',(0.,1.,5.20608754395467E-27));
#1457=DIRECTION('',(-1.66240555690942E-53,5.20608754395467E-27,-1.));
#1458=DIRECTION('',(0.,1.,5.20608754395467E-27));
#1459=DIRECTION('',(3.19330894433465E-27,-1.,-5.20608754395467E-27));
#1460=DIRECTION('',(1.,3.19330894433465E-27,5.90350005516892E-58));
#1461=DIRECTION('',(3.19330894433465E-27,-1.,-5.20608754395467E-27));
#1462=DIRECTION('',(-1.66240555690942E-53,5.20608754395467E-27,-1.));
#1463=DIRECTION('',(0.,1.,5.20608754395467E-27));
#1464=DIRECTION('',(1.,3.19330894433465E-27,1.66247428439938E-53));
#1465=DIRECTION('',(3.19330894433465E-27,-1.,0.));
#1466=DIRECTION('',(3.19330894433465E-27,-1.,-5.20608754395467E-27));
#1467=DIRECTION('',(-9.69248941243797E-59,-5.20608754395467E-27,1.));
#1468=DIRECTION('',(1.66240555690942E-53,-5.20608754395467E-27,1.));
#1469=DIRECTION('',(0.,-1.,-5.20608754395467E-27));
#1470=DIRECTION('',(0.,0.,-1.));
#1471=DIRECTION('',(0.,1.,0.));
#1472=DIRECTION('',(0.,0.,-1.));
#1473=DIRECTION('',(0.,1.,0.));
#1474=DIRECTION('',(-1.66240555690942E-53,5.20608754395467E-27,-1.));
#1475=DIRECTION('',(-1.66240555690942E-53,5.20608754395467E-27,-1.));
#1476=DIRECTION('',(-1.,3.30423519233678E-16,1.72021376772874E-42));
#1477=DIRECTION('',(3.30423519233678E-16,1.,0.));
#1478=DIRECTION('',(-1.,3.30423519233678E-16,1.72021376772874E-42));
#1479=DIRECTION('',(3.30423519233678E-16,1.,0.));
#1480=DIRECTION('',(-1.,3.30423519233678E-16,1.72021376772874E-42));
#1481=DIRECTION('',(3.30423519233678E-16,1.,0.));
#1482=DIRECTION('',(3.30423519233678E-16,1.,5.20608754395467E-27));
#1483=DIRECTION('',(-1.,3.30423519233678E-16,1.72021376772874E-42));
#1484=DIRECTION('',(3.30423519233678E-16,1.,0.));
#1485=DIRECTION('',(3.30423519233678E-16,1.,5.20608754395467E-27));
#1486=DIRECTION('',(-9.69248941243797E-59,-5.20608754395467E-27,1.));
#1487=DIRECTION('',(-1.66240555690942E-53,5.20608754395467E-27,-1.));
#1488=DIRECTION('',(-1.,-8.65462886282712E-80,1.66240555690942E-53));
#1489=DIRECTION('',(-1.66240555690942E-53,5.20608754395467E-27,-1.));
#1490=DIRECTION('',(0.,1.,5.20608754395467E-27));
#1491=DIRECTION('',(-1.66240555690942E-53,5.20608754395467E-27,-1.));
#1492=DIRECTION('',(0.,1.,5.20608754395467E-27));
#1493=DIRECTION('',(1.,3.19330894433465E-27,5.90350005516892E-58));
#1494=DIRECTION('',(-1.66240555690942E-53,5.20608754395467E-27,-1.));
#1495=DIRECTION('',(0.,1.,5.20608754395467E-27));
#1496=DIRECTION('',(-9.69248941243797E-59,-5.20608754395467E-27,1.));
#1497=DIRECTION('',(0.,-1.,-5.20608754395467E-27));
#1498=DIRECTION('',(-3.19330894433465E-27,1.,5.20608754395467E-27));
#1499=DIRECTION('',(0.,-5.20608754395467E-27,1.));
#1500=DIRECTION('',(0.,1.,0.));
#1501=DIRECTION('',(1.,0.,0.));
#1502=DIRECTION('',(-3.19330894433465E-27,1.,5.20608754395467E-27));
#1503=DIRECTION('',(0.,-5.20608754395467E-27,1.));
#1504=DIRECTION('',(-3.19330894433465E-27,1.,5.20608754395467E-27));
#1505=DIRECTION('',(1.,3.19330894433465E-27,1.66246459190996E-53));
#1506=DIRECTION('',(-3.19330894433465E-27,1.,5.20608754395467E-27));
#1507=DIRECTION('',(0.,-5.20608754395467E-27,1.));
#1508=DIRECTION('',(-3.19330894433465E-27,1.,5.20608754395467E-27));
#1509=DIRECTION('',(0.,-5.20608754395467E-27,1.));
#1510=DIRECTION('',(0.,1.,0.));
#1511=DIRECTION('',(1.,0.,0.));
#1512=DIRECTION('',(-3.19330894433465E-27,1.,5.20608754395467E-27));
#1513=DIRECTION('',(0.,-5.20608754395467E-27,1.));
#1514=DIRECTION('',(-3.19330894433465E-27,1.,5.20608754395467E-27));
#1515=DIRECTION('',(1.,3.19330894433465E-27,1.66246459190996E-53));
#1516=DIRECTION('',(-3.19330894433465E-27,1.,5.20608754395467E-27));
#1517=DIRECTION('',(0.,-5.20608754395467E-27,1.));
#1518=DIRECTION('',(-3.19330894433465E-27,1.,5.20608754395467E-27));
#1519=DIRECTION('',(0.,-5.20608754395467E-27,1.));
#1520=DIRECTION('',(0.,1.,0.));
#1521=DIRECTION('',(1.,0.,0.));
#1522=DIRECTION('',(-3.19330894433465E-27,1.,5.20608754395467E-27));
#1523=DIRECTION('',(0.,-5.20608754395467E-27,1.));
#1524=DIRECTION('',(-3.19330894433465E-27,1.,5.20608754395467E-27));
#1525=DIRECTION('',(1.,3.19330894433465E-27,1.66246459190996E-53));
#1526=DIRECTION('',(-3.19330894433465E-27,1.,5.20608754395467E-27));
#1527=DIRECTION('',(0.,-5.20608754395467E-27,1.));
#1528=DIRECTION('',(-3.19330894433465E-27,1.,5.20608754395467E-27));
#1529=DIRECTION('',(0.,-5.20608754395467E-27,1.));
#1530=DIRECTION('',(0.,1.,0.));
#1531=DIRECTION('',(1.,0.,0.));
#1532=DIRECTION('',(-3.19330894433465E-27,1.,5.20608754395467E-27));
#1533=DIRECTION('',(0.,-5.20608754395467E-27,1.));
#1534=DIRECTION('',(-3.19330894433465E-27,1.,5.20608754395467E-27));
#1535=DIRECTION('',(1.,3.19330894433465E-27,1.66246459190996E-53));
#1536=DIRECTION('',(-3.19330894433465E-27,1.,5.20608754395467E-27));
#1537=DIRECTION('',(0.,-5.20608754395467E-27,1.));
#1538=DIRECTION('',(-1.,-3.19330894433465E-27,2.13074801854746E-69));
#1539=DIRECTION('',(-3.19330894433465E-27,1.,0.));
#1540=DIRECTION('',(1.66246459190996E-53,-5.20608754395467E-27,1.));
#1541=DIRECTION('',(3.19330894433465E-27,-1.,-5.20608754395467E-27));
#1542=DIRECTION('',(-1.,-3.19330894433465E-27,2.13074801854746E-69));
#1543=DIRECTION('',(1.66246459190996E-53,-5.20608754395466E-27,1.));
#1544=DIRECTION('',(1.66246459190996E-53,-5.20608754395467E-27,1.));
#1545=DIRECTION('',(-1.,-3.19330894433465E-27,2.13074801854746E-69));
#1546=DIRECTION('',(1.66246459190996E-53,-5.20608754395467E-27,1.));
#1547=DIRECTION('',(-3.19330894433465E-27,1.,5.20608754395467E-27));
#1548=DIRECTION('',(1.,3.19330894433465E-27,1.66246459190996E-53));
#1549=DIRECTION('',(-3.19330894433465E-27,1.,5.20608754395467E-27));
#1550=DIRECTION('',(0.,-5.20608754395467E-27,1.));
#1551=DIRECTION('',(-3.19330894433465E-27,1.,5.20608754395467E-27));
#1552=DIRECTION('',(0.,-5.20608754395467E-27,1.));
#1553=DIRECTION('',(-3.19330894433465E-27,1.,5.20608754395467E-27));
#1554=DIRECTION('',(0.,-5.20608754395467E-27,1.));
#1555=DIRECTION('',(-3.19330894433465E-27,1.,5.20608754395467E-27));
#1556=DIRECTION('',(0.,-5.20608754395467E-27,1.));
#1557=DIRECTION('',(-3.19330894433465E-27,1.,5.20608754395467E-27));
#1558=DIRECTION('',(0.,-5.20608754395467E-27,1.));
#1559=DIRECTION('',(-3.19330894433465E-27,1.,5.20608754395467E-27));
#1560=DIRECTION('',(0.,-5.20608754395467E-27,1.));
#1561=DIRECTION('',(-0.995752961343963,-2.70044624633182E-27,-0.0920654113917342));
#1562=DIRECTION('',(1.34950695451321E-58,5.20608754395467E-27,-1.));
#1563=DIRECTION('',(0.904715499236465,5.10691411172427E-27,-0.426016273681316));
#1564=DIRECTION('',(-3.19330894433465E-27,1.,5.20608754395467E-27));
#1565=DIRECTION('',(0.,-5.20608754395467E-27,1.));
#1566=DIRECTION('',(-3.19330894433465E-27,1.,5.20608754395467E-27));
#1567=DIRECTION('',(0.,-5.20608754395467E-27,1.));
#1568=DIRECTION('',(-3.19330894433465E-27,1.,5.20608754395467E-27));
#1569=DIRECTION('',(1.,3.19330894433465E-27,1.66246459190996E-53));
#1570=DIRECTION('',(-3.19330894433465E-27,1.,5.20608754395467E-27));
#1571=DIRECTION('',(0.,-5.20608754395467E-27,1.));
#1572=DIRECTION('',(-3.19330894433465E-27,1.,5.20608754395467E-27));
#1573=DIRECTION('',(0.,-5.20608754395467E-27,1.));
#1574=DIRECTION('',(-3.19330894433465E-27,1.,5.20608754395467E-27));
#1575=DIRECTION('',(0.,-5.20608754395467E-27,1.));
#1576=DIRECTION('',(-3.19330894433465E-27,1.,5.20608754395467E-27));
#1577=DIRECTION('',(1.,3.19330894433465E-27,1.66246459190996E-53));
#1578=DIRECTION('',(-3.19330894433465E-27,1.,5.20608754395467E-27));
#1579=DIRECTION('',(0.,-5.20608754395467E-27,1.));
#1580=DIRECTION('',(-3.19330894433465E-27,1.,5.20608754395467E-27));
#1581=DIRECTION('',(0.,-5.20608754395467E-27,1.));
#1582=DIRECTION('',(-3.19330894433465E-27,1.,5.20608754395467E-27));
#1583=DIRECTION('',(0.,-5.20608754395467E-27,1.));
#1584=DIRECTION('',(-3.19330894433465E-27,1.,5.20608754395467E-27));
#1585=DIRECTION('',(1.,3.19330894433465E-27,1.66246459190996E-53));
#1586=DIRECTION('',(-3.19330894433465E-27,1.,5.20608754395467E-27));
#1587=DIRECTION('',(0.,-5.20608754395467E-27,1.));
#1588=DIRECTION('',(-3.19330894433465E-27,1.,5.20608754395467E-27));
#1589=DIRECTION('',(0.,-5.20608754395467E-27,1.));
#1590=DIRECTION('',(-3.19330894433465E-27,1.,5.20608754395467E-27));
#1591=DIRECTION('',(0.,-5.20608754395467E-27,1.));
#1592=DIRECTION('',(-3.19330894433465E-27,1.,5.20608754395467E-27));
#1593=DIRECTION('',(1.,3.19330894433465E-27,1.66246459190996E-53));
#1594=DIRECTION('',(-3.19330894433465E-27,1.,5.20608754395467E-27));
#1595=DIRECTION('',(0.,-5.20608754395467E-27,1.));
#1596=DIRECTION('',(-3.19330894433465E-27,1.,5.20608754395467E-27));
#1597=DIRECTION('',(0.,-5.20608754395467E-27,1.));
#1598=DIRECTION('',(-3.19330894433465E-27,1.,5.20608754395467E-27));
#1599=DIRECTION('',(0.,-5.20608754395467E-27,1.));
#1600=DIRECTION('',(-3.19330894433465E-27,1.,5.20608754395467E-27));
#1601=DIRECTION('',(1.,3.19330894433465E-27,1.66246459190996E-53));
#1602=DIRECTION('',(-3.19330894433465E-27,1.,5.20608754395467E-27));
#1603=DIRECTION('',(0.,-5.20608754395467E-27,1.));
#1604=DIRECTION('',(-3.19330894433465E-27,1.,5.20608754395467E-27));
#1605=DIRECTION('',(0.,-5.20608754395467E-27,1.));
#1606=DIRECTION('',(-3.19330894433465E-27,1.,5.20608754395467E-27));
#1607=DIRECTION('',(0.,-5.20608754395467E-27,1.));
#1608=DIRECTION('',(-3.19330894433465E-27,1.,5.20608754395467E-27));
#1609=DIRECTION('',(1.,3.19330894433465E-27,1.66246459190996E-53));
#1610=DIRECTION('',(-3.19330894433465E-27,1.,5.20608754395467E-27));
#1611=DIRECTION('',(0.,-5.20608754395467E-27,1.));
#1612=DIRECTION('',(-0.904715499236465,-5.10691411172427E-27,0.426016273681316));
#1613=DIRECTION('',(0.426016273681316,0.,0.904715499236465));
#1614=DIRECTION('',(-0.844398091447783,9.25615367133027E-29,-0.535716215135721));
#1615=DIRECTION('',(-0.535716215135721,-6.1067177674434E-27,0.844398091447783));
#1616=DIRECTION('',(1.34950695451321E-58,5.20608754395467E-27,-1.));
#1617=DIRECTION('',(0.,1.,5.20608754395467E-27));
#1618=DIRECTION('',(0.738940258543184,5.86737509199991E-27,-0.673770950920365));
#1619=DIRECTION('',(-0.673770950920365,1.69542887172144E-27,-0.738940258543184));
#1620=DIRECTION('',(0.995752961343963,2.70044624633182E-27,0.0920654113917342));
#1621=DIRECTION('',(0.0920654113917342,0.,-0.995752961343963));
#1622=DIRECTION('',(3.19330894433465E-27,-1.,-5.20608754395467E-27));
#1623=DIRECTION('',(0.,5.20608754395467E-27,-1.));
#1624=DIRECTION('',(0.,1.,0.));
#1625=DIRECTION('',(1.,0.,0.));
#1626=DIRECTION('',(1.,3.19330894433465E-27,5.90350005516892E-58));
#1627=DIRECTION('',(3.19330894433465E-27,-1.,0.));
#1628=DIRECTION('',(-1.,0.,8.67361737988403E-16));
#1629=DIRECTION('',(8.67361737988403E-16,0.,1.));
#1630=DIRECTION('',(0.,0.,-1.));
#1631=DIRECTION('',(0.,1.,0.));
#1632=DIRECTION('',(0.,0.,-1.));
#1633=DIRECTION('',(0.,1.,0.));
#1634=DIRECTION('',(1.66246459190996E-53,-5.20608754395467E-27,1.));
#1635=DIRECTION('',(0.,-1.,-5.20608754395467E-27));
#1636=DIRECTION('',(0.707106781186548,-1.42324939681848E-27,0.707106781186548));
#1637=DIRECTION('',(-0.707106781186548,-5.93927021474385E-27,0.707106781186548));
#1638=DIRECTION('',(-1.,-3.19330894433465E-27,-5.90350005516892E-58));
#1639=DIRECTION('',(-3.19330894433465E-27,1.,0.));
#1640=DIRECTION('',(-0.707106781186548,-5.93927021474385E-27,0.707106781186548));
#1641=DIRECTION('',(-0.707106781186548,1.42324939681848E-27,-0.707106781186548));
#1642=DIRECTION('',(-9.69248941243797E-59,-5.20608754395467E-27,1.));
#1643=DIRECTION('',(0.,-1.,-5.20608754395467E-27));
#1644=DIRECTION('',(0.707106781186548,-1.42324939681848E-27,0.707106781186548));
#1645=DIRECTION('',(-0.707106781186548,-5.93927021474385E-27,0.707106781186548));
#1646=DIRECTION('',(1.,3.19330894433465E-27,5.90350005516892E-58));
#1647=DIRECTION('',(3.19330894433465E-27,-1.,0.));
#1648=DIRECTION('',(0.,1.,0.));
#1649=DIRECTION('',(1.,0.,0.));
#1650=DIRECTION('',(0.,1.,0.));
#1651=DIRECTION('',(1.,0.,0.));
#1652=DIRECTION('',(0.,1.,0.));
#1653=DIRECTION('',(1.,0.,0.));
#1654=DIRECTION('',(0.,1.,0.));
#1655=DIRECTION('',(1.,0.,0.));
#1656=DIRECTION('',(0.,1.,0.));
#1657=DIRECTION('',(1.,0.,0.));
#1658=DIRECTION('',(0.,1.,0.));
#1659=DIRECTION('',(1.,0.,0.));
#1660=DIRECTION('',(0.,1.,0.));
#1661=DIRECTION('',(1.,0.,0.));
#1662=DIRECTION('',(0.,1.,0.));
#1663=DIRECTION('',(1.,0.,0.));
#1664=DIRECTION('',(0.,1.,0.));
#1665=DIRECTION('',(1.,0.,0.));
#1666=DIRECTION('',(0.,1.,0.));
#1667=DIRECTION('',(1.,0.,0.));
#1668=DIRECTION('',(0.,1.,0.));
#1669=DIRECTION('',(1.,0.,0.));
#1670=DIRECTION('',(0.,1.,0.));
#1671=DIRECTION('',(1.,0.,0.));
#1672=DIRECTION('',(0.,1.,0.));
#1673=DIRECTION('',(1.,0.,0.));
#1674=DIRECTION('',(0.,1.,0.));
#1675=DIRECTION('',(1.,0.,0.));
#1676=DIRECTION('',(0.,0.,-1.));
#1677=DIRECTION('',(0.,1.,0.));
#1678=DIRECTION('',(0.,0.,-1.));
#1679=DIRECTION('',(0.,1.,0.));
#1680=DIRECTION('',(0.,0.,1.));
#1681=DIRECTION('',(0.,-1.,0.));
#1682=DIRECTION('',(0.,0.,1.));
#1683=DIRECTION('',(0.,-1.,0.));
#1684=CARTESIAN_POINT('',(0.,0.,0.));
#1685=CARTESIAN_POINT('',(-0.117139846682549,-0.22863461622473,0.0199953806971329));
#1686=CARTESIAN_POINT('',(-0.117139846682549,0.0184,0.0199953806971329));
#1687=CARTESIAN_POINT('',(-0.114489846682549,0.0184,0.0199953806971329));
#1688=CARTESIAN_POINT('',(-0.117139846682549,5.55111512312578E-17,0.0199953806971329));
#1689=CARTESIAN_POINT('',(-0.117139846682549,5.5511151231244E-17,0.0226453806971329));
#1690=CARTESIAN_POINT('',(-0.0921398466825487,-0.22863461622473,0.0549953806971328));
#1691=CARTESIAN_POINT('',(-0.0921398466825487,0.0184,0.0549953806971328));
#1692=CARTESIAN_POINT('',(-0.0894898466825487,0.0184,0.0549953806971328));
#1693=CARTESIAN_POINT('',(-0.0921398466825487,5.55111512312578E-17,0.0549953806971328));
#1694=CARTESIAN_POINT('',(-0.0921398466825487,5.5511151231244E-17,0.0576453806971328));
#1695=CARTESIAN_POINT('',(-0.117139846682549,-0.22863461622473,0.0549953806971328));
#1696=CARTESIAN_POINT('',(-0.117139846682549,0.0184,0.0549953806971328));
#1697=CARTESIAN_POINT('',(-0.114489846682549,0.0184,0.0549953806971328));
#1698=CARTESIAN_POINT('',(-0.117139846682549,5.55111512312578E-17,0.0549953806971328));
#1699=CARTESIAN_POINT('',(-0.117139846682549,5.5511151231244E-17,0.0576453806971328));
#1700=CARTESIAN_POINT('',(-0.0921398466825487,-0.22863461622473,0.0199953806971329));
#1701=CARTESIAN_POINT('',(-0.0921398466825487,0.0184,0.0199953806971329));
#1702=CARTESIAN_POINT('',(-0.0894898466825487,0.0184,0.0199953806971329));
#1703=CARTESIAN_POINT('',(-0.0921398466825487,5.55111512312578E-17,0.0199953806971329));
#1704=CARTESIAN_POINT('',(-0.0921398466825487,5.5511151231244E-17,0.0226453806971329));
#1705=CARTESIAN_POINT('',(-0.0921398466825487,-0.22863461622473,-0.0150046193028672));
#1706=CARTESIAN_POINT('',(-0.0921398466825487,0.0184,-0.0150046193028672));
#1707=CARTESIAN_POINT('',(-0.0894898466825487,0.0184,-0.0150046193028672));
#1708=CARTESIAN_POINT('',(-0.0921398466825487,5.55111512312578E-17,-0.0150046193028672));
#1709=CARTESIAN_POINT('',(-0.0921398466825487,5.5511151231244E-17,-0.0123546193028672));
#1710=CARTESIAN_POINT('',(-0.117139846682549,-0.22863461622473,-0.0150046193028672));
#1711=CARTESIAN_POINT('',(-0.117139846682549,0.0184,-0.0150046193028672));
#1712=CARTESIAN_POINT('',(-0.114489846682549,0.0184,-0.0150046193028672));
#1713=CARTESIAN_POINT('',(-0.117139846682549,5.55111512312578E-17,-0.0150046193028672));
#1714=CARTESIAN_POINT('',(-0.117139846682549,5.5511151231244E-17,-0.0123546193028672));
#1715=CARTESIAN_POINT('',(0.032121506985277,0.041,0.00682129710912705));
#1716=CARTESIAN_POINT('',(0.000547286924698513,0.041,0.018));
#1717=CARTESIAN_POINT('',(0.000547286924698513,0.041,0.022475));
#1718=CARTESIAN_POINT('',(0.0325472869246985,0.041,0.018));
#1719=CARTESIAN_POINT('',(0.0325472869246985,0.041,0.022475));
#1720=CARTESIAN_POINT('',(0.0325472869246985,0.041,-0.018));
#1721=CARTESIAN_POINT('',(0.0325472869246985,0.041,-0.013525));
#1722=CARTESIAN_POINT('',(0.000547286924698513,0.041,-0.018));
#1723=CARTESIAN_POINT('',(0.000547286924698513,0.041,-0.013525));
#1724=CARTESIAN_POINT('',(0.032121506985277,0.041,0.0033192880153656));
#1725=CARTESIAN_POINT('',(0.0719067420363426,0.041,0.0033192880153656));
#1726=CARTESIAN_POINT('',(0.0411067420363427,0.041,0.0033192880153656));
#1727=CARTESIAN_POINT('',(0.0411067420363427,0.041,0.0013192880153656));
#1728=CARTESIAN_POINT('',(0.0411067420363427,0.041,-0.0266807119846344));
#1729=CARTESIAN_POINT('',(0.032121506985277,0.041,-0.0266807119846344));
#1730=CARTESIAN_POINT('',(-0.00766372806578874,0.041,-0.0266807119846344));
#1731=CARTESIAN_POINT('',(-0.00766372806578874,0.041,0.00682129710912705));
#1732=CARTESIAN_POINT('',(-0.00766372806578874,0.041,0.0403233062028885));
#1733=CARTESIAN_POINT('',(0.0739067420363426,0.041,0.0403233062028885));
#1734=CARTESIAN_POINT('',(0.0719067420363426,0.041,0.0403233062028885));
#1735=CARTESIAN_POINT('',(0.0719067420363426,0.041,0.00682129710912705));
#1736=CARTESIAN_POINT('',(-0.132139846682549,0.041002,0.0299953806971329));
#1737=CARTESIAN_POINT('',(-0.132139846682549,0.041002,0.0999953806971328));
#1738=CARTESIAN_POINT('',(-0.132139846682549,0.022,0.0999953806971328));
#1739=CARTESIAN_POINT('',(-0.132139846682549,6.76542155621898E-17,0.0999953806971328));
#1740=CARTESIAN_POINT('',(-0.132139846682549,0.022,0.0299953806971329));
#1741=CARTESIAN_POINT('',(-0.132139846682549,0.022,-0.0400046193028672));
#1742=CARTESIAN_POINT('',(-0.132139846682549,0.041002,-0.0400046193028672));
#1743=CARTESIAN_POINT('',(-0.132139846682549,6.76542155629187E-17,-0.0400046193028672));
#1744=CARTESIAN_POINT('',(-0.132139846682549,6.76542155625543E-17,0.0299953806971329));
#1745=CARTESIAN_POINT('',(-0.0709017873741687,0.041002,0.0711593434500107));
#1746=CARTESIAN_POINT('',(-0.00966372806578875,0.041,0.0423233062028885));
#1747=CARTESIAN_POINT('',(-0.00966372806578875,0.022,0.0423233062028885));
#1748=CARTESIAN_POINT('',(-0.00966372806578875,6.76542155628812E-17,0.0423233062028885));
#1749=CARTESIAN_POINT('',(-0.132139846682549,0.022,0.0999953806971329));
#1750=CARTESIAN_POINT('',(-0.0709017873741687,6.76542155625355E-17,0.0711593434500107));
#1751=CARTESIAN_POINT('',(-0.0709017873741687,0.041002,-0.0343426656437508));
#1752=CARTESIAN_POINT('',(-0.00966372806578875,0.022,-0.0286807119846344));
#1753=CARTESIAN_POINT('',(-0.00835007922186186,0.022,-0.0285592545288843));
#1754=CARTESIAN_POINT('',(-0.00835007922186186,0.022,-0.0285592545288843));
#1755=CARTESIAN_POINT('',(-0.00835007922186186,6.76542155632544E-17,-0.0285592545288843));
#1756=CARTESIAN_POINT('',(-0.0709017873741687,6.76542155630848E-17,-0.0343426656437508));
#1757=CARTESIAN_POINT('',(0.000547286924698513,0.041,0.018));
#1758=CARTESIAN_POINT('',(0.000547286924698513,0.0357,0.018));
#1759=CARTESIAN_POINT('',(0.00319728692469851,0.0357,0.018));
#1760=CARTESIAN_POINT('',(0.000547286924698513,6.76542155630404E-17,0.018));
#1761=CARTESIAN_POINT('',(0.000547286924698513,6.76542155630266E-17,0.02065));
#1762=CARTESIAN_POINT('',(0.0325472869246985,0.041,-0.018));
#1763=CARTESIAN_POINT('',(0.0325472869246985,0.0357,-0.018));
#1764=CARTESIAN_POINT('',(0.0351972869246985,0.0357,-0.018));
#1765=CARTESIAN_POINT('',(0.0325472869246985,6.765421556333E-17,-0.018));
#1766=CARTESIAN_POINT('',(0.0325472869246985,6.76542155633162E-17,-0.01535));
#1767=CARTESIAN_POINT('',(0.0325472869246985,0.041,0.018));
#1768=CARTESIAN_POINT('',(0.0325472869246985,0.0357,0.018));
#1769=CARTESIAN_POINT('',(0.0351972869246985,0.0357,0.018));
#1770=CARTESIAN_POINT('',(0.0325472869246985,6.76542155631426E-17,0.018));
#1771=CARTESIAN_POINT('',(0.0325472869246985,6.76542155631288E-17,0.02065));
#1772=CARTESIAN_POINT('',(0.000547286924698513,0.041,-0.018));
#1773=CARTESIAN_POINT('',(0.000547286924698513,0.0357,-0.018));
#1774=CARTESIAN_POINT('',(0.00319728692469851,0.0357,-0.018));
#1775=CARTESIAN_POINT('',(0.000547286924698513,6.76542155632279E-17,-0.018));
#1776=CARTESIAN_POINT('',(0.000547286924698513,6.76542155632141E-17,-0.01535));
#1777=CARTESIAN_POINT('',(0.032121506985277,-0.000999999999999932,0.00682129710912705));
#1778=CARTESIAN_POINT('',(0.032121506985277,-0.000999999999999932,0.0423233062028885));
#1779=CARTESIAN_POINT('',(0.0411333391427876,-0.000999999999999932,0.0423233062028885));
#1780=CARTESIAN_POINT('',(0.0739067420363426,-0.000999999999999932,0.0423233062028885));
#1781=CARTESIAN_POINT('',(0.0411333391427876,-0.000999999999999932,-0.0286807119846344));
#1782=CARTESIAN_POINT('',(0.0411333391427876,-0.000999999999999932,0.0013192880153656));
#1783=CARTESIAN_POINT('',(0.032121506985277,-0.000999999999999932,0.0013192880153656));
#1784=CARTESIAN_POINT('',(0.0739067420363426,-0.000999999999999932,0.0013192880153656));
#1785=CARTESIAN_POINT('',(0.0739067420363426,-0.000999999999999932,0.00682129710912705));
#1786=CARTESIAN_POINT('',(0.0642446589161617,0.0322446632088772,-0.0751157961178962));
#1787=CARTESIAN_POINT('',(0.0642446589161617,0.0322446632088772,0.0423233062028885));
#1788=CARTESIAN_POINT('',(0.0642446589161617,0.0294946632088772,0.0423233062028885));
#1789=CARTESIAN_POINT('',(0.0642446589161617,0.0322446632088772,0.0013192880153656));
#1790=CARTESIAN_POINT('',(0.0642446589161617,0.0349946632088772,0.0013192880153656));
#1791=CARTESIAN_POINT('',(0.0642446589161617,0.00537460552378768,-0.0751157961178962));
#1792=CARTESIAN_POINT('',(0.0642446589161617,0.00537460552378768,0.0423233062028885));
#1793=CARTESIAN_POINT('',(0.0642446589161617,0.00262460552378764,0.0423233062028885));
#1794=CARTESIAN_POINT('',(0.0642446589161617,0.00537460552378768,0.0013192880153656));
#1795=CARTESIAN_POINT('',(0.0642446589161617,0.00812460552378773,0.0013192880153656));
#1796=CARTESIAN_POINT('',(0.0698096300736169,0.0188096343663323,-0.0751157961178962));
#1797=CARTESIAN_POINT('',(0.0698096300736169,0.0188096343663323,0.0014192880153656));
#1798=CARTESIAN_POINT('',(0.0698096300736169,0.0215596343663323,0.0014192880153656));
#1799=CARTESIAN_POINT('',(0.0698096300736169,0.0188096343663323,0.0422233062028885));
#1800=CARTESIAN_POINT('',(0.0698096300736169,0.0215596343663323,0.0422233062028885));
#1801=CARTESIAN_POINT('',(0.032121506985277,6.76542155631995E-17,0.00682129710912705));
#1802=CARTESIAN_POINT('',(-0.00766372806578875,6.93889390390723E-17,-0.0266807119846344));
#1803=CARTESIAN_POINT('',(-0.00766372806578874,6.76542155632573E-17,-0.0286807119846344));
#1804=CARTESIAN_POINT('',(0.032121506985277,6.76542155633843E-17,-0.0286807119846344));
#1805=CARTESIAN_POINT('',(0.039012018799228,6.76542155634063E-17,-0.0286807119846344));
#1806=CARTESIAN_POINT('',(0.039012018799228,6.76542155630887E-17,0.00682129710912705));
#1807=CARTESIAN_POINT('',(0.039012018799228,6.76542155630366E-17,0.0423233062028885));
#1808=CARTESIAN_POINT('',(0.032121506985277,6.76542155630146E-17,0.0423233062028885));
#1809=CARTESIAN_POINT('',(0.032121506985277,0.041,-0.0286807119846344));
#1810=CARTESIAN_POINT('',(-0.00766372806578874,0.041,-0.0286807119846344));
#1811=CARTESIAN_POINT('',(-0.00766372806578875,0.039,-0.0286807119846344));
#1812=CARTESIAN_POINT('',(0.032121506985277,0.039,-0.0286807119846344));
#1813=CARTESIAN_POINT('',(0.0411067420363427,0.039,-0.0286807119846344));
#1814=CARTESIAN_POINT('',(0.0411067420363427,0.02,-0.0286807119846344));
#1815=CARTESIAN_POINT('',(0.0411067420363427,0.0290391910462094,-0.0286807119846344));
#1816=CARTESIAN_POINT('',(0.0508465977616847,0.0187748006381277,-0.0286807119846344));
#1817=CARTESIAN_POINT('',(0.0411067420363427,0.00851041023004586,-0.0286807119846344));
#1818=CARTESIAN_POINT('',(0.0411067420363427,0.02,-0.0286807119846344));
#1819=CARTESIAN_POINT('',(0.0411067420363426,-0.000999871377706307,-0.0286807119846344));
#1820=CARTESIAN_POINT('',(0.0411333391427876,0.00175000000000007,-0.0286807119846344));
#1821=CARTESIAN_POINT('',(0.032121506985277,0.041,0.0423233062028885));
#1822=CARTESIAN_POINT('',(0.0508465977616847,0.0187748006381277,0.0423233062028885));
#1823=CARTESIAN_POINT('',(0.0508465977616847,0.0330248006381277,0.0423233062028885));
#1824=CARTESIAN_POINT('',(0.0698096300736169,0.0188096343663323,0.0423233062028885));
#1825=CARTESIAN_POINT('',(0.0698096300736169,0.0216596343663323,0.0423233062028885));
#1826=CARTESIAN_POINT('',(0.0739067420363426,0.041,0.0423233062028885));
#1827=CARTESIAN_POINT('',(0.0739067420363426,0.039,0.0423233062028885));
#1828=CARTESIAN_POINT('',(-0.00966372806578875,0.039,0.0423233062028885));
#1829=CARTESIAN_POINT('',(-0.00966372806578875,0.039,0.0423233062028885));
#1830=CARTESIAN_POINT('',(-0.00966372806578875,0.041,0.0423233062028885));
#1831=CARTESIAN_POINT('',(0.0411333391427876,0.00175000000000007,0.0423233062028885));
#1832=CARTESIAN_POINT('',(0.0739067420363426,0.041,0.00682129710912705));
#1833=CARTESIAN_POINT('',(0.0739067420363426,0.041,0.0013192880153656));
#1834=CARTESIAN_POINT('',(0.0739067420363426,0.039,0.0013192880153656));
#1835=CARTESIAN_POINT('',(0.0739067420363426,0.039,0.00682129710912705));
#1836=CARTESIAN_POINT('',(0.0508465977616847,0.0187748006381277,-0.0751157961178962));
#1837=CARTESIAN_POINT('',(0.0508465977616847,0.0187748006381277,0.0422233062028885));
#1838=CARTESIAN_POINT('',(0.0508465977616847,0.0329248006381277,0.0422233062028885));
#1839=CARTESIAN_POINT('',(0.0508465977616847,0.0187748006381277,0.0014192880153656));
#1840=CARTESIAN_POINT('',(0.0411067420363427,0.0290391910462094,0.0014192880153656));
#1841=CARTESIAN_POINT('',(0.0411067420363427,0.00851041023004586,0.0014192880153656));
#1842=CARTESIAN_POINT('',(0.0411067420363427,0.00851041023004586,0.0013192880153656));
#1843=CARTESIAN_POINT('',(0.0411067420363427,0.0290391910462094,0.0013192880153656));
#1844=CARTESIAN_POINT('',(0.0411067420363427,0.02,0.0013192880153656));
#1845=CARTESIAN_POINT('',(0.0411067420363427,0.039,-0.0266807119846344));
#1846=CARTESIAN_POINT('',(0.0411067420363427,0.039,0.0033192880153656));
#1847=CARTESIAN_POINT('',(0.0411067420363427,0.039,0.0013192880153656));
#1848=CARTESIAN_POINT('',(0.0411067420363427,0.02,0.0013192880153656));
#1849=CARTESIAN_POINT('',(0.0411067420363427,0.0291766134825082,0.0013192880153656));
#1850=CARTESIAN_POINT('',(0.0411067420363427,0.0291766134825082,0.0013192880153656));
#1851=CARTESIAN_POINT('',(0.0411067420363427,0.0291308553899416,0.00135268921641776));
#1852=CARTESIAN_POINT('',(0.0411067420363427,0.0290850483680484,0.00138602317759711));
#1853=CARTESIAN_POINT('',(0.0411067420363427,0.0290391910462094,0.0014192880153656));
#1854=CARTESIAN_POINT('',(0.0411067420363427,0.02,0.0013192880153656));
#1855=CARTESIAN_POINT('',(0.0411067420363427,0.02,0.0013192880153656));
#1856=CARTESIAN_POINT('',(0.0411067420363426,-0.000999871377706307,0.0013192880153656));
#1857=CARTESIAN_POINT('',(0.0411067420363426,0.00837298779374703,0.0013192880153656));
#1858=CARTESIAN_POINT('',(0.0411067420363426,-0.000999871377706307,0.0013192880153656));
#1859=CARTESIAN_POINT('',(0.0411067420363427,0.00851041023004586,0.0014192880153656));
#1860=CARTESIAN_POINT('',(0.0411067420363427,0.00846455290820688,0.0013860231775971));
#1861=CARTESIAN_POINT('',(0.0411067420363426,0.00841874588631361,0.00135268921641776));
#1862=CARTESIAN_POINT('',(0.0411067420363426,0.00837298779374704,0.0013192880153656));
#1863=CARTESIAN_POINT('',(0.032121506985277,0.02,0.0013192880153656));
#1864=CARTESIAN_POINT('',(0.0698096300736169,0.0188096343663323,0.0013192880153656));
#1865=CARTESIAN_POINT('',(0.0698096300736169,0.0216596343663323,0.0013192880153656));
#1866=CARTESIAN_POINT('',(0.0508465977616847,0.0187748006381277,0.0013192880153656));
#1867=CARTESIAN_POINT('',(0.032121506985277,0.039,0.0013192880153656));
#1868=CARTESIAN_POINT('',(0.0411333391427876,0.00175000000000007,0.0013192880153656));
#1869=CARTESIAN_POINT('',(0.0411333391427876,0.00175000000000007,0.00682129710912705));
#1870=CARTESIAN_POINT('',(0.000547286924698513,0.0358,-0.018));
#1871=CARTESIAN_POINT('',(0.000547286924698513,0.0409,-0.018));
#1872=CARTESIAN_POINT('',(0.00492228692469851,0.0409,-0.018));
#1873=CARTESIAN_POINT('',(0.000547286924698513,0.0358,-0.018));
#1874=CARTESIAN_POINT('',(0.000547286924698513,0.0358,-0.013625));
#1875=CARTESIAN_POINT('',(0.032121506985277,0.0358,0.00682129710912705));
#1876=CARTESIAN_POINT('',(0.000547286924698513,0.0358,-0.018));
#1877=CARTESIAN_POINT('',(0.000547286924698513,0.0358,-0.01525));
#1878=CARTESIAN_POINT('',(0.0325472869246985,0.0358,0.018));
#1879=CARTESIAN_POINT('',(0.0325472869246985,0.0409,0.018));
#1880=CARTESIAN_POINT('',(0.0369222869246985,0.0409,0.018));
#1881=CARTESIAN_POINT('',(0.0325472869246985,0.0358,0.018));
#1882=CARTESIAN_POINT('',(0.0325472869246985,0.0358,0.022375));
#1883=CARTESIAN_POINT('',(0.032121506985277,0.0358,0.00682129710912705));
#1884=CARTESIAN_POINT('',(0.0325472869246985,0.0358,0.018));
#1885=CARTESIAN_POINT('',(0.0325472869246985,0.0358,0.02075));
#1886=CARTESIAN_POINT('',(0.0325472869246985,0.0358,-0.018));
#1887=CARTESIAN_POINT('',(0.0325472869246985,0.0409,-0.018));
#1888=CARTESIAN_POINT('',(0.0369222869246985,0.0409,-0.018));
#1889=CARTESIAN_POINT('',(0.0325472869246985,0.0358,-0.018));
#1890=CARTESIAN_POINT('',(0.0325472869246985,0.0358,-0.013625));
#1891=CARTESIAN_POINT('',(0.032121506985277,0.0358,0.00682129710912705));
#1892=CARTESIAN_POINT('',(0.0325472869246985,0.0358,-0.018));
#1893=CARTESIAN_POINT('',(0.0325472869246985,0.0358,-0.01525));
#1894=CARTESIAN_POINT('',(0.000547286924698513,0.0358,0.018));
#1895=CARTESIAN_POINT('',(0.000547286924698513,0.0409,0.018));
#1896=CARTESIAN_POINT('',(0.00492228692469851,0.0409,0.018));
#1897=CARTESIAN_POINT('',(0.000547286924698513,0.0358,0.018));
#1898=CARTESIAN_POINT('',(0.000547286924698513,0.0358,0.022375));
#1899=CARTESIAN_POINT('',(0.032121506985277,0.0358,0.00682129710912705));
#1900=CARTESIAN_POINT('',(0.000547286924698513,0.0358,0.018));
#1901=CARTESIAN_POINT('',(0.000547286924698513,0.0358,0.02075));
#1902=CARTESIAN_POINT('',(-0.00966372806578875,0.024,0.00682129710912705));
#1903=CARTESIAN_POINT('',(-0.00966372806578875,0.039,0.00682129710912705));
#1904=CARTESIAN_POINT('',(-0.00966372806578875,0.039,-0.0266807119846344));
#1905=CARTESIAN_POINT('',(-0.00966372806578875,0.024,-0.0266807119846344));
#1906=CARTESIAN_POINT('',(-0.00966372806578875,0.0239999819625814,-0.0266807119846344));
#1907=CARTESIAN_POINT('',(-0.00966372806578875,0.022,-0.0266721816787836));
#1908=CARTESIAN_POINT('',(-0.00966372806578875,0.024,-0.0266721816787836));
#1909=CARTESIAN_POINT('',(-0.00966372806578875,0.024,0.00682129710912705));
#1910=CARTESIAN_POINT('',(-0.00966372806578875,0.024,0.0401126665026867));
#1911=CARTESIAN_POINT('',(-0.00966372806578875,0.022,0.0401126665026867));
#1912=CARTESIAN_POINT('',(-0.0291165523231031,0.024,0.0299953806971329));
#1913=CARTESIAN_POINT('',(-0.0921398466825487,0.024,0.0549953806971328));
#1914=CARTESIAN_POINT('',(-0.0921398466825487,0.024,0.0593953806971328));
#1915=CARTESIAN_POINT('',(-0.0921398466825487,0.024,0.0199953806971329));
#1916=CARTESIAN_POINT('',(-0.0921398466825487,0.024,0.0243953806971329));
#1917=CARTESIAN_POINT('',(-0.117139846682549,0.024,0.0199953806971329));
#1918=CARTESIAN_POINT('',(-0.117139846682549,0.024,0.0243953806971329));
#1919=CARTESIAN_POINT('',(-0.117139846682549,0.024,-0.0150046193028672));
#1920=CARTESIAN_POINT('',(-0.117139846682549,0.024,-0.0106046193028672));
#1921=CARTESIAN_POINT('',(-0.0921398466825487,0.024,-0.0150046193028672));
#1922=CARTESIAN_POINT('',(-0.0921398466825487,0.024,-0.0106046193028672));
#1923=CARTESIAN_POINT('',(-0.117139846682549,0.024,0.0549953806971328));
#1924=CARTESIAN_POINT('',(-0.117139846682549,0.024,0.0593953806971328));
#1925=CARTESIAN_POINT('',(-0.132323977505332,0.024,-0.0380131133801792));
#1926=CARTESIAN_POINT('',(-0.130139846682549,0.024,-0.0378111728281154));
#1927=CARTESIAN_POINT('',(-0.130139846682549,0.024,0.0299953806971329));
#1928=CARTESIAN_POINT('',(-0.130139846682549,0.024,0.0968429725093991));
#1929=CARTESIAN_POINT('',(-0.0105157606131514,0.024,0.0405138752044156));
#1930=CARTESIAN_POINT('',(-0.117139846682549,0.0185,-0.0150046193028672));
#1931=CARTESIAN_POINT('',(-0.117139846682549,0.0185,-0.0150046193028672));
#1932=CARTESIAN_POINT('',(-0.117139846682549,0.0185,-0.0106046193028672));
#1933=CARTESIAN_POINT('',(-0.0709017873741687,0.0185,0.0299953806971329));
#1934=CARTESIAN_POINT('',(-0.117139846682549,0.0185,-0.0150046193028672));
#1935=CARTESIAN_POINT('',(-0.117139846682549,0.0185,-0.0122546193028671));
#1936=CARTESIAN_POINT('',(-0.0921398466825487,0.0185,-0.0150046193028672));
#1937=CARTESIAN_POINT('',(-0.0921398466825487,0.0185,-0.0150046193028672));
#1938=CARTESIAN_POINT('',(-0.0921398466825487,0.0185,-0.0106046193028672));
#1939=CARTESIAN_POINT('',(-0.0709017873741687,0.0185,0.0299953806971329));
#1940=CARTESIAN_POINT('',(-0.0921398466825487,0.0185,-0.0150046193028672));
#1941=CARTESIAN_POINT('',(-0.0921398466825487,0.0185,-0.0122546193028671));
#1942=CARTESIAN_POINT('',(-0.0921398466825487,0.0185,0.0199953806971329));
#1943=CARTESIAN_POINT('',(-0.0921398466825487,0.0185,0.0199953806971329));
#1944=CARTESIAN_POINT('',(-0.0921398466825487,0.0185,0.0243953806971329));
#1945=CARTESIAN_POINT('',(-0.0709017873741687,0.0185,0.0299953806971329));
#1946=CARTESIAN_POINT('',(-0.0921398466825487,0.0185,0.0199953806971329));
#1947=CARTESIAN_POINT('',(-0.0921398466825487,0.0185,0.0227453806971329));
#1948=CARTESIAN_POINT('',(-0.117139846682549,0.0185,0.0549953806971328));
#1949=CARTESIAN_POINT('',(-0.117139846682549,0.0185,0.0549953806971328));
#1950=CARTESIAN_POINT('',(-0.117139846682549,0.0185,0.0593953806971328));
#1951=CARTESIAN_POINT('',(-0.0709017873741687,0.0185,0.0299953806971329));
#1952=CARTESIAN_POINT('',(-0.117139846682549,0.0185,0.0549953806971328));
#1953=CARTESIAN_POINT('',(-0.117139846682549,0.0185,0.0577453806971328));
#1954=CARTESIAN_POINT('',(-0.0921398466825487,0.0185,0.0549953806971328));
#1955=CARTESIAN_POINT('',(-0.0921398466825487,0.0185,0.0549953806971328));
#1956=CARTESIAN_POINT('',(-0.0921398466825487,0.0185,0.0593953806971328));
#1957=CARTESIAN_POINT('',(-0.0709017873741687,0.0185,0.0299953806971329));
#1958=CARTESIAN_POINT('',(-0.0921398466825487,0.0185,0.0549953806971328));
#1959=CARTESIAN_POINT('',(-0.0921398466825487,0.0185,0.0577453806971328));
#1960=CARTESIAN_POINT('',(-0.117139846682549,0.0185,0.0199953806971329));
#1961=CARTESIAN_POINT('',(-0.117139846682549,0.0185,0.0199953806971329));
#1962=CARTESIAN_POINT('',(-0.117139846682549,0.0185,0.0243953806971329));
#1963=CARTESIAN_POINT('',(-0.0709017873741687,0.0185,0.0299953806971329));
#1964=CARTESIAN_POINT('',(-0.117139846682549,0.0185,0.0199953806971329));
#1965=CARTESIAN_POINT('',(-0.117139846682549,0.0185,0.0227453806971329));
#1966=CARTESIAN_POINT('',(-0.0216866219002308,0.022,0.0457740577737965));
#1967=CARTESIAN_POINT('',(-0.130139846682549,0.022,0.0968429725093991));
#1968=CARTESIAN_POINT('',(-0.130139846682549,0.022,0.0299953806971329));
#1969=CARTESIAN_POINT('',(-0.130139846682549,0.022,-0.0378111728281154));
#1970=CARTESIAN_POINT('',(-0.0237567042850586,0.022,-0.0279751912642232));
#1971=CARTESIAN_POINT('',(-0.00966372806578875,0.0239999819625814,-0.0266807119846344));
#1972=CARTESIAN_POINT('',(-0.00966372806578875,0.0239987735055579,-0.026966464112319));
#1973=CARTESIAN_POINT('',(-0.00953584645654512,0.023869516699107,-0.0275205601478814));
#1974=CARTESIAN_POINT('',(-0.00910841623004243,0.0234011410692,-0.0281150870751594));
#1975=CARTESIAN_POINT('',(-0.00862222846954992,0.022804598512245,-0.0284627129082307));
#1976=CARTESIAN_POINT('',(-0.00835007922186203,0.0222864294790899,-0.0285592545288843));
#1977=CARTESIAN_POINT('',(-0.00835007922186203,0.022,-0.0285592545288843));
#1978=CARTESIAN_POINT('',(-0.00766372806578875,0.024,-0.0266807119846344));
#1979=CARTESIAN_POINT('',(-0.00766372806578875,0.039,-0.0266807119846344));
#1980=CARTESIAN_POINT('',(0.032121506985277,0.039,-0.0266807119846344));
#1981=CARTESIAN_POINT('',(-0.00766372806578874,0.039,-0.0266807119846344));
#1982=CARTESIAN_POINT('',(-0.00766372806578875,0.039,-0.0266807119846344));
#1983=CARTESIAN_POINT('',(-0.00766372806578875,0.039,-0.0266807119846344));
#1984=CARTESIAN_POINT('',(-0.00766372806578874,0.039,0.00682129710912705));
#1985=CARTESIAN_POINT('',(-0.00766372806578874,0.039,0.0403233062028885));
#1986=CARTESIAN_POINT('',(0.032121506985277,0.039,0.0403233062028885));
#1987=CARTESIAN_POINT('',(0.0719067420363426,0.039,0.0403233062028885));
#1988=CARTESIAN_POINT('',(0.0719067420363426,0.039,0.00682129710912705));
#1989=CARTESIAN_POINT('',(0.0719067420363426,0.039,0.0033192880153656));
#1990=CARTESIAN_POINT('',(0.032121506985277,0.039,0.0033192880153656));
#1991=CARTESIAN_POINT('',(-0.0921398466825487,0.0184,-0.0150046193028672));
#1992=CARTESIAN_POINT('',(-0.0921398466825487,0.0184,0.0199953806971329));
#1993=CARTESIAN_POINT('',(-0.0921398466825487,0.0184,0.0549953806971328));
#1994=CARTESIAN_POINT('',(-0.117139846682549,0.0184,-0.0150046193028672));
#1995=CARTESIAN_POINT('',(-0.117139846682549,0.0184,0.0199953806971329));
#1996=CARTESIAN_POINT('',(-0.117139846682549,0.0184,0.0549953806971328));
#1997=CARTESIAN_POINT('',(0.000547286924698513,0.0409,0.018));
#1998=CARTESIAN_POINT('',(0.0325472869246985,0.0409,0.018));
#1999=CARTESIAN_POINT('',(0.0325472869246985,0.0409,-0.018));
#2000=CARTESIAN_POINT('',(0.000547286924698513,0.0409,-0.018));
#2001=CARTESIAN_POINT('',(0.0325472869246985,0.0357,0.018));
#2002=CARTESIAN_POINT('',(0.0325472869246985,0.0357,-0.018));
#2003=CARTESIAN_POINT('',(0.000547286924698513,0.0357,-0.018));
#2004=CARTESIAN_POINT('',(0.000547286924698513,0.0357,0.018));
#2005=CARTESIAN_POINT('',(0.0508465977616847,0.0187748006381277,0.0014192880153656));
#2006=CARTESIAN_POINT('',(0.0698096300736169,0.0188096343663323,0.0014192880153656));
#2007=CARTESIAN_POINT('',(0.0508465977616847,0.0187748006381277,0.0422233062028885));
#2008=CARTESIAN_POINT('',(0.0698096300736169,0.0188096343663323,0.0422233062028885));
#2009=MECHANICAL_DESIGN_GEOMETRIC_PRESENTATION_REPRESENTATION('',(#1146),
#2010);
#2010=(
GEOMETRIC_REPRESENTATION_CONTEXT(3)
GLOBAL_UNCERTAINTY_ASSIGNED_CONTEXT((#2011))
GLOBAL_UNIT_ASSIGNED_CONTEXT((#2014,#2013,#2012))
REPRESENTATION_CONTEXT('GantryLower-Left','TOP_LEVEL_ASSEMBLY_PART')
);
#2011=UNCERTAINTY_MEASURE_WITH_UNIT(LENGTH_MEASURE(2.E-5),#2014,
'DISTANCE_ACCURACY_VALUE','Maximum Tolerance applied to model');
#2012=(
NAMED_UNIT(*)
SI_UNIT($,.STERADIAN.)
SOLID_ANGLE_UNIT()
);
#2013=(
NAMED_UNIT(*)
PLANE_ANGLE_UNIT()
SI_UNIT($,.RADIAN.)
);
#2014=(
LENGTH_UNIT()
NAMED_UNIT(*)
SI_UNIT($,.METRE.)
);
#2015=PRODUCT_DEFINITION_SHAPE('','',#2016);
#2016=PRODUCT_DEFINITION('','',#2018,#2017);
#2017=PRODUCT_DEFINITION_CONTEXT('',#2024,'design');
#2018=PRODUCT_DEFINITION_FORMATION_WITH_SPECIFIED_SOURCE('','',#2020,
 .NOT_KNOWN.);
#2019=PRODUCT_RELATED_PRODUCT_CATEGORY('','',(#2020));
#2020=PRODUCT('GantryLower-Left','GantryLower-Left','GantryLower-Left',
(#2022));
#2021=PRODUCT_CATEGORY('','');
#2022=PRODUCT_CONTEXT('',#2024,'mechanical');
#2023=APPLICATION_PROTOCOL_DEFINITION('international standard',
'ap242_managed_model_based_3d_engineering',2020,#2024);
#2024=APPLICATION_CONTEXT('managed model based 3d engineering');
ENDSEC;
END-ISO-10303-21;
