ISO-10303-21;
HEADER;
/* Generated by software containing ST-Developer
 * from STEP Tools, Inc. (www.steptools.com) 
 */
/* OPTION: using custom renumber hook */

FILE_DESCRIPTION(
/* description */ ('STEP AP242 Edition 2',
'CAx-IF Rec.Pracs.---Representation and Presentation of Product Manufa
cturing Information (PMI)---4.0---2014-10-13',
'CAx-IF Rec.Pracs.---3D Tessellated Geometry---0.4---2014-09-14','2;1',
'CAx-IF Rec.Pracs.---User Defined Attributes---1.5---2016-08-15'),
/* implementation_level */ '2;1');

FILE_NAME(
/* name */ 'Router - ZAxis-KW12Holder',
/* time_stamp */ '2026-08-15T23:20:15Z',
/* author */ (''),
/* organization */ (''),
/* preprocessor_version */ 'ST-DEVELOPER v20',
/* originating_system */ 'ONSHAPE BY PTC INC, 1.219',
/* authorisation */ '  ');

FILE_SCHEMA (('AP242_MANAGED_MODEL_BASED_3D_ENGINEERING_MIM_LF { 1 0 10303 442 3 1 4 }'));
ENDSEC;

DATA;
#10=SHAPE_REPRESENTATION_RELATIONSHIP('','',#281,#11);
#11=ADVANCED_BREP_SHAPE_REPRESENTATION('',(#279),#435);
#12=ORIENTED_EDGE('',*,*,#84,.T.);
#13=ORIENTED_EDGE('',*,*,#85,.T.);
#14=ORIENTED_EDGE('',*,*,#86,.T.);
#15=ORIENTED_EDGE('',*,*,#87,.T.);
#16=ORIENTED_EDGE('',*,*,#88,.F.);
#17=ORIENTED_EDGE('',*,*,#89,.F.);
#18=ORIENTED_EDGE('',*,*,#90,.T.);
#19=ORIENTED_EDGE('',*,*,#91,.F.);
#20=ORIENTED_EDGE('',*,*,#92,.T.);
#21=ORIENTED_EDGE('',*,*,#93,.T.);
#22=ORIENTED_EDGE('',*,*,#94,.F.);
#23=ORIENTED_EDGE('',*,*,#95,.F.);
#24=ORIENTED_EDGE('',*,*,#86,.F.);
#25=ORIENTED_EDGE('',*,*,#96,.T.);
#26=ORIENTED_EDGE('',*,*,#97,.T.);
#27=ORIENTED_EDGE('',*,*,#98,.F.);
#28=ORIENTED_EDGE('',*,*,#90,.F.);
#29=ORIENTED_EDGE('',*,*,#99,.T.);
#30=ORIENTED_EDGE('',*,*,#100,.T.);
#31=ORIENTED_EDGE('',*,*,#101,.F.);
#32=ORIENTED_EDGE('',*,*,#102,.T.);
#33=ORIENTED_EDGE('',*,*,#103,.T.);
#34=ORIENTED_EDGE('',*,*,#84,.F.);
#35=ORIENTED_EDGE('',*,*,#104,.F.);
#36=ORIENTED_EDGE('',*,*,#105,.T.);
#37=ORIENTED_EDGE('',*,*,#106,.T.);
#38=ORIENTED_EDGE('',*,*,#92,.F.);
#39=ORIENTED_EDGE('',*,*,#107,.F.);
#40=ORIENTED_EDGE('',*,*,#108,.T.);
#41=ORIENTED_EDGE('',*,*,#109,.F.);
#42=ORIENTED_EDGE('',*,*,#100,.F.);
#43=ORIENTED_EDGE('',*,*,#110,.T.);
#44=ORIENTED_EDGE('',*,*,#111,.F.);
#45=ORIENTED_EDGE('',*,*,#105,.F.);
#46=ORIENTED_EDGE('',*,*,#112,.T.);
#47=ORIENTED_EDGE('',*,*,#113,.T.);
#48=ORIENTED_EDGE('',*,*,#114,.T.);
#49=ORIENTED_EDGE('',*,*,#110,.F.);
#50=ORIENTED_EDGE('',*,*,#99,.F.);
#51=ORIENTED_EDGE('',*,*,#89,.T.);
#52=ORIENTED_EDGE('',*,*,#115,.F.);
#53=ORIENTED_EDGE('',*,*,#87,.F.);
#54=ORIENTED_EDGE('',*,*,#101,.T.);
#55=ORIENTED_EDGE('',*,*,#109,.T.);
#56=ORIENTED_EDGE('',*,*,#88,.T.);
#57=ORIENTED_EDGE('',*,*,#115,.T.);
#58=ORIENTED_EDGE('',*,*,#108,.F.);
#59=ORIENTED_EDGE('',*,*,#114,.F.);
#60=ORIENTED_EDGE('',*,*,#111,.T.);
#61=ORIENTED_EDGE('',*,*,#116,.T.);
#62=ORIENTED_EDGE('',*,*,#93,.F.);
#63=ORIENTED_EDGE('',*,*,#106,.F.);
#64=ORIENTED_EDGE('',*,*,#104,.T.);
#65=ORIENTED_EDGE('',*,*,#95,.T.);
#66=ORIENTED_EDGE('',*,*,#117,.F.);
#67=ORIENTED_EDGE('',*,*,#112,.F.);
#68=ORIENTED_EDGE('',*,*,#117,.T.);
#69=ORIENTED_EDGE('',*,*,#94,.T.);
#70=ORIENTED_EDGE('',*,*,#116,.F.);
#71=ORIENTED_EDGE('',*,*,#113,.F.);
#72=ORIENTED_EDGE('',*,*,#103,.F.);
#73=ORIENTED_EDGE('',*,*,#118,.T.);
#74=ORIENTED_EDGE('',*,*,#96,.F.);
#75=ORIENTED_EDGE('',*,*,#85,.F.);
#76=ORIENTED_EDGE('',*,*,#91,.T.);
#77=ORIENTED_EDGE('',*,*,#98,.T.);
#78=ORIENTED_EDGE('',*,*,#119,.F.);
#79=ORIENTED_EDGE('',*,*,#107,.T.);
#80=ORIENTED_EDGE('',*,*,#119,.T.);
#81=ORIENTED_EDGE('',*,*,#97,.F.);
#82=ORIENTED_EDGE('',*,*,#118,.F.);
#83=ORIENTED_EDGE('',*,*,#102,.F.);
#84=EDGE_CURVE('',#120,#121,#144,.T.);
#85=EDGE_CURVE('',#121,#122,#145,.T.);
#86=EDGE_CURVE('',#122,#123,#146,.T.);
#87=EDGE_CURVE('',#123,#124,#147,.T.);
#88=EDGE_CURVE('',#125,#124,#148,.T.);
#89=EDGE_CURVE('',#126,#125,#149,.T.);
#90=EDGE_CURVE('',#126,#127,#150,.T.);
#91=EDGE_CURVE('',#128,#127,#151,.T.);
#92=EDGE_CURVE('',#128,#129,#152,.T.);
#93=EDGE_CURVE('',#129,#130,#153,.T.);
#94=EDGE_CURVE('',#131,#130,#154,.T.);
#95=EDGE_CURVE('',#120,#131,#155,.T.);
#96=EDGE_CURVE('',#122,#132,#156,.T.);
#97=EDGE_CURVE('',#132,#133,#157,.T.);
#98=EDGE_CURVE('',#127,#133,#158,.T.);
#99=EDGE_CURVE('',#126,#134,#159,.T.);
#100=EDGE_CURVE('',#134,#135,#160,.T.);
#101=EDGE_CURVE('',#123,#135,#161,.T.);
#102=EDGE_CURVE('',#136,#137,#162,.T.);
#103=EDGE_CURVE('',#137,#121,#163,.T.);
#104=EDGE_CURVE('',#138,#120,#164,.T.);
#105=EDGE_CURVE('',#138,#139,#165,.T.);
#106=EDGE_CURVE('',#139,#129,#166,.T.);
#107=EDGE_CURVE('',#136,#128,#167,.T.);
#108=EDGE_CURVE('',#140,#141,#168,.T.);
#109=EDGE_CURVE('',#135,#141,#169,.T.);
#110=EDGE_CURVE('',#134,#140,#170,.T.);
#111=EDGE_CURVE('',#139,#142,#171,.T.);
#112=EDGE_CURVE('',#138,#143,#172,.T.);
#113=EDGE_CURVE('',#143,#142,#173,.T.);
#114=EDGE_CURVE('',#125,#140,#174,.T.);
#115=EDGE_CURVE('',#124,#141,#175,.T.);
#116=EDGE_CURVE('',#142,#130,#176,.T.);
#117=EDGE_CURVE('',#143,#131,#177,.T.);
#118=EDGE_CURVE('',#137,#132,#178,.T.);
#119=EDGE_CURVE('',#136,#133,#179,.T.);
#120=VERTEX_POINT('',#363);
#121=VERTEX_POINT('',#364);
#122=VERTEX_POINT('',#366);
#123=VERTEX_POINT('',#368);
#124=VERTEX_POINT('',#370);
#125=VERTEX_POINT('',#372);
#126=VERTEX_POINT('',#374);
#127=VERTEX_POINT('',#376);
#128=VERTEX_POINT('',#378);
#129=VERTEX_POINT('',#380);
#130=VERTEX_POINT('',#382);
#131=VERTEX_POINT('',#384);
#132=VERTEX_POINT('',#388);
#133=VERTEX_POINT('',#390);
#134=VERTEX_POINT('',#393);
#135=VERTEX_POINT('',#395);
#136=VERTEX_POINT('',#399);
#137=VERTEX_POINT('',#400);
#138=VERTEX_POINT('',#403);
#139=VERTEX_POINT('',#405);
#140=VERTEX_POINT('',#410);
#141=VERTEX_POINT('',#411);
#142=VERTEX_POINT('',#415);
#143=VERTEX_POINT('',#417);
#144=LINE('',#362,#180);
#145=LINE('',#365,#181);
#146=LINE('',#367,#182);
#147=LINE('',#369,#183);
#148=LINE('',#371,#184);
#149=LINE('',#373,#185);
#150=LINE('',#375,#186);
#151=LINE('',#377,#187);
#152=LINE('',#379,#188);
#153=LINE('',#381,#189);
#154=LINE('',#383,#190);
#155=LINE('',#385,#191);
#156=LINE('',#387,#192);
#157=LINE('',#389,#193);
#158=LINE('',#391,#194);
#159=LINE('',#392,#195);
#160=LINE('',#394,#196);
#161=LINE('',#396,#197);
#162=LINE('',#398,#198);
#163=LINE('',#401,#199);
#164=LINE('',#402,#200);
#165=LINE('',#404,#201);
#166=LINE('',#406,#202);
#167=LINE('',#407,#203);
#168=LINE('',#409,#204);
#169=LINE('',#412,#205);
#170=LINE('',#413,#206);
#171=LINE('',#414,#207);
#172=LINE('',#416,#208);
#173=LINE('',#418,#209);
#174=LINE('',#420,#210);
#175=LINE('',#422,#211);
#176=LINE('',#425,#212);
#177=LINE('',#427,#213);
#178=LINE('',#430,#214);
#179=LINE('',#432,#215);
#180=VECTOR('',#300,1.);
#181=VECTOR('',#301,1.);
#182=VECTOR('',#302,1.);
#183=VECTOR('',#303,1.);
#184=VECTOR('',#304,1.);
#185=VECTOR('',#305,1.);
#186=VECTOR('',#306,1.);
#187=VECTOR('',#307,1.);
#188=VECTOR('',#308,1.);
#189=VECTOR('',#309,1.);
#190=VECTOR('',#310,1.);
#191=VECTOR('',#311,1.);
#192=VECTOR('',#314,1.);
#193=VECTOR('',#315,1.);
#194=VECTOR('',#316,1.);
#195=VECTOR('',#317,1.);
#196=VECTOR('',#318,1.);
#197=VECTOR('',#319,1.);
#198=VECTOR('',#322,1.);
#199=VECTOR('',#323,1.);
#200=VECTOR('',#324,1.);
#201=VECTOR('',#325,1.);
#202=VECTOR('',#326,1.);
#203=VECTOR('',#327,1.);
#204=VECTOR('',#330,1.);
#205=VECTOR('',#331,1.);
#206=VECTOR('',#332,1.);
#207=VECTOR('',#333,1.);
#208=VECTOR('',#334,1.);
#209=VECTOR('',#335,1.);
#210=VECTOR('',#338,1.);
#211=VECTOR('',#341,1.);
#212=VECTOR('',#346,1.);
#213=VECTOR('',#349,1.);
#214=VECTOR('',#354,1.);
#215=VECTOR('',#357,1.);
#216=EDGE_LOOP('',(#12,#13,#14,#15,#16,#17,#18,#19,#20,#21,#22,#23));
#217=EDGE_LOOP('',(#24,#25,#26,#27,#28,#29,#30,#31));
#218=EDGE_LOOP('',(#32,#33,#34,#35,#36,#37,#38,#39));
#219=EDGE_LOOP('',(#40,#41,#42,#43));
#220=EDGE_LOOP('',(#44,#45,#46,#47));
#221=EDGE_LOOP('',(#48,#49,#50,#51));
#222=EDGE_LOOP('',(#52,#53,#54,#55));
#223=EDGE_LOOP('',(#56,#57,#58,#59));
#224=EDGE_LOOP('',(#60,#61,#62,#63));
#225=EDGE_LOOP('',(#64,#65,#66,#67));
#226=EDGE_LOOP('',(#68,#69,#70,#71));
#227=EDGE_LOOP('',(#72,#73,#74,#75));
#228=EDGE_LOOP('',(#76,#77,#78,#79));
#229=EDGE_LOOP('',(#80,#81,#82,#83));
#230=FACE_BOUND('',#216,.T.);
#231=FACE_BOUND('',#217,.T.);
#232=FACE_BOUND('',#218,.T.);
#233=FACE_BOUND('',#219,.T.);
#234=FACE_BOUND('',#220,.T.);
#235=FACE_BOUND('',#221,.T.);
#236=FACE_BOUND('',#222,.T.);
#237=FACE_BOUND('',#223,.T.);
#238=FACE_BOUND('',#224,.T.);
#239=FACE_BOUND('',#225,.T.);
#240=FACE_BOUND('',#226,.T.);
#241=FACE_BOUND('',#227,.T.);
#242=FACE_BOUND('',#228,.T.);
#243=FACE_BOUND('',#229,.T.);
#244=PLANE('',#283);
#245=PLANE('',#284);
#246=PLANE('',#285);
#247=PLANE('',#286);
#248=PLANE('',#287);
#249=PLANE('',#288);
#250=PLANE('',#289);
#251=PLANE('',#290);
#252=PLANE('',#291);
#253=PLANE('',#292);
#254=PLANE('',#293);
#255=PLANE('',#294);
#256=PLANE('',#295);
#257=ADVANCED_FACE('',(#230),#244,.T.);
#258=ADVANCED_FACE('',(#231),#245,.T.);
#259=ADVANCED_FACE('',(#232),#246,.T.);
#260=ADVANCED_FACE('',(#233,#234),#247,.F.);
#261=ADVANCED_FACE('',(#235),#248,.F.);
#262=ADVANCED_FACE('',(#236),#249,.T.);
#263=ADVANCED_FACE('',(#237),#250,.F.);
#264=ADVANCED_FACE('',(#238),#251,.T.);
#265=ADVANCED_FACE('',(#239),#252,.F.);
#266=ADVANCED_FACE('',(#240),#253,.F.);
#267=ADVANCED_FACE('',(#241),#254,.T.);
#268=ADVANCED_FACE('',(#242),#255,.F.);
#269=ADVANCED_FACE('',(#243),#256,.T.);
#270=CLOSED_SHELL('',(#257,#258,#259,#260,#261,#262,#263,#264,#265,#266,
#267,#268,#269));
#271=STYLED_ITEM('',(#272),#279);
#272=PRESENTATION_STYLE_ASSIGNMENT((#273));
#273=SURFACE_STYLE_USAGE(.BOTH.,#274);
#274=SURFACE_SIDE_STYLE('',(#275));
#275=SURFACE_STYLE_FILL_AREA(#276);
#276=FILL_AREA_STYLE('',(#277));
#277=FILL_AREA_STYLE_COLOUR('',#278);
#278=COLOUR_RGB('',0.647058823529412,0.647058823529412,0.647058823529412);
#279=MANIFOLD_SOLID_BREP('ZAxis-KW12Holder',#270);
#280=SHAPE_DEFINITION_REPRESENTATION(#440,#281);
#281=SHAPE_REPRESENTATION('ZAxis-KW12Holder',(#282),#435);
#282=AXIS2_PLACEMENT_3D('',#360,#296,#297);
#283=AXIS2_PLACEMENT_3D('',#361,#298,#299);
#284=AXIS2_PLACEMENT_3D('',#386,#312,#313);
#285=AXIS2_PLACEMENT_3D('',#397,#320,#321);
#286=AXIS2_PLACEMENT_3D('',#408,#328,#329);
#287=AXIS2_PLACEMENT_3D('',#419,#336,#337);
#288=AXIS2_PLACEMENT_3D('',#421,#339,#340);
#289=AXIS2_PLACEMENT_3D('',#423,#342,#343);
#290=AXIS2_PLACEMENT_3D('',#424,#344,#345);
#291=AXIS2_PLACEMENT_3D('',#426,#347,#348);
#292=AXIS2_PLACEMENT_3D('',#428,#350,#351);
#293=AXIS2_PLACEMENT_3D('',#429,#352,#353);
#294=AXIS2_PLACEMENT_3D('',#431,#355,#356);
#295=AXIS2_PLACEMENT_3D('',#433,#358,#359);
#296=DIRECTION('',(0.,0.,1.));
#297=DIRECTION('',(1.,0.,0.));
#298=DIRECTION('',(1.,1.30459382013325E-18,-6.42928842727105E-36));
#299=DIRECTION('',(1.30459382013325E-18,-1.,0.));
#300=DIRECTION('',(-6.42928842727105E-36,-8.38760995007201E-54,-1.));
#301=DIRECTION('',(-1.30459382013325E-18,1.,-9.17125680075168E-19));
#302=DIRECTION('',(5.23281193275948E-36,9.17125680075168E-19,1.));
#303=DIRECTION('',(1.30459382013325E-18,-1.,9.17125680075168E-19));
#304=DIRECTION('',(5.23281193275948E-36,9.17125680075168E-19,1.));
#305=DIRECTION('',(1.30459382013325E-18,-1.,9.17125680075168E-19));
#306=DIRECTION('',(5.23281193275948E-36,9.17125680075168E-19,1.));
#307=DIRECTION('',(-1.30459382013325E-18,1.,-9.17125680075168E-19));
#308=DIRECTION('',(-6.42928842727105E-36,-8.38760995007201E-54,-1.));
#309=DIRECTION('',(1.30459382013325E-18,-1.,-8.38760995007201E-54));
#310=DIRECTION('',(-2.48905309112922E-34,1.85863229568943E-16,-1.));
#311=DIRECTION('',(1.30459382013325E-18,-1.,-8.38760995007201E-54));
#312=DIRECTION('',(-1.30459382013325E-18,1.,-9.17125680075168E-19));
#313=DIRECTION('',(1.,1.30459382013325E-18,-1.19647649451156E-36));
#314=DIRECTION('',(-1.,-1.30459382013325E-18,1.19647649451156E-36));
#315=DIRECTION('',(1.19647649451156E-36,-9.17125680075168E-19,-1.));
#316=DIRECTION('',(-1.,-1.30459382013325E-18,1.19647649451156E-36));
#317=DIRECTION('',(-1.,-1.30459382013325E-18,1.65211759616839E-16));
#318=DIRECTION('',(3.1540426835942E-16,9.17125680075168E-19,1.));
#319=DIRECTION('',(-1.,-1.30459382013325E-18,1.65211759616839E-16));
#320=DIRECTION('',(1.30459382013325E-18,-1.,-1.44890865261227E-69));
#321=DIRECTION('',(-1.,-1.30459382013325E-18,0.));
#322=DIRECTION('',(1.89023727413556E-87,-1.44890865261227E-69,1.));
#323=DIRECTION('',(1.,1.30459382013325E-18,-1.19647649451156E-36));
#324=DIRECTION('',(1.,1.30459382013325E-18,-6.42928842727105E-36));
#325=DIRECTION('',(-3.1540426835942E-16,-4.11474459345347E-34,-1.));
#326=DIRECTION('',(1.,1.30459382013325E-18,-6.42928842727105E-36));
#327=DIRECTION('',(1.,1.30459382013325E-18,-1.19647649451156E-36));
#328=DIRECTION('',(1.,1.30459382013325E-18,-3.1540426835942E-16));
#329=DIRECTION('',(-3.1540426835942E-16,0.,-1.));
#330=DIRECTION('',(3.1540426835942E-16,9.17125680075168E-19,1.));
#331=DIRECTION('',(1.30459382013325E-18,-1.,9.17125680075168E-19));
#332=DIRECTION('',(1.30459382013325E-18,-1.,9.17125680075168E-19));
#333=DIRECTION('',(1.30459382013325E-18,-1.,-8.38760995007201E-54));
#334=DIRECTION('',(1.30459382013325E-18,-1.,-8.38760995007201E-54));
#335=DIRECTION('',(-3.1540426835942E-16,1.85863229568943E-16,-1.));
#336=DIRECTION('',(1.65211759616839E-16,9.17125680075168E-19,1.));
#337=DIRECTION('',(1.,0.,-1.65211759616839E-16));
#338=DIRECTION('',(-1.,-1.30459382013325E-18,1.65211759616839E-16));
#339=DIRECTION('',(1.65211759616839E-16,9.17125680075168E-19,1.));
#340=DIRECTION('',(1.,0.,-1.65211759616839E-16));
#341=DIRECTION('',(-1.,-1.30459382013325E-18,1.65211759616839E-16));
#342=DIRECTION('',(-1.30459382013325E-18,1.,-9.17125680075168E-19));
#343=DIRECTION('',(1.,1.30459382013325E-18,-1.19647649451156E-36));
#344=DIRECTION('',(6.42928842727105E-36,0.,1.));
#345=DIRECTION('',(1.,0.,-6.42928842727105E-36));
#346=DIRECTION('',(1.,1.30459382013325E-18,-6.42928842727105E-36));
#347=DIRECTION('',(6.42928842727105E-36,0.,1.));
#348=DIRECTION('',(1.,0.,-6.42928842727105E-36));
#349=DIRECTION('',(1.,1.30459382013325E-18,-6.42928842727105E-36));
#350=DIRECTION('',(1.30459382013325E-18,-1.,-1.85863229568943E-16));
#351=DIRECTION('',(0.,1.85863229568943E-16,-1.));
#352=DIRECTION('',(1.59153767512159E-52,-9.17125680075168E-19,-1.));
#353=DIRECTION('',(0.,1.,-9.17125680075168E-19));
#354=DIRECTION('',(-1.30459382013325E-18,1.,-9.17125680075168E-19));
#355=DIRECTION('',(1.59153767512159E-52,-9.17125680075168E-19,-1.));
#356=DIRECTION('',(0.,1.,-9.17125680075168E-19));
#357=DIRECTION('',(-1.30459382013325E-18,1.,-9.17125680075168E-19));
#358=DIRECTION('',(1.,1.30459382013325E-18,0.));
#359=DIRECTION('',(1.30459382013325E-18,-1.,0.));
#360=CARTESIAN_POINT('',(0.,0.,0.));
#361=CARTESIAN_POINT('',(0.0411073668781841,0.0247000000000006,-0.0207634599676689));
#362=CARTESIAN_POINT('',(0.0411073668781841,0.0214049140325876,-0.0207634599676689));
#363=CARTESIAN_POINT('',(0.0411073668781841,0.0214049140325876,-0.017263459967669));
#364=CARTESIAN_POINT('',(0.0411073668781841,0.0214049140325876,-0.0177322348058223));
#365=CARTESIAN_POINT('',(0.0411073668781841,0.0247000000000006,-0.0177322348058223));
#366=CARTESIAN_POINT('',(0.0411073668781841,0.0247000000000006,-0.0177322348058223));
#367=CARTESIAN_POINT('',(0.0411073668781841,0.0247000000000006,-0.0207634599676689));
#368=CARTESIAN_POINT('',(0.0411073668781841,0.0247000000000006,-0.015263459967669));
#369=CARTESIAN_POINT('',(0.0411073668781841,0.0247000000000006,-0.015263459967669));
#370=CARTESIAN_POINT('',(0.0411073668781841,-0.000299999999999467,-0.015263459967669));
#371=CARTESIAN_POINT('',(0.0411073668781841,-0.000299999999999467,-0.0207634599676689));
#372=CARTESIAN_POINT('',(0.0411073668781841,-0.000299999999999467,-0.026263459967669));
#373=CARTESIAN_POINT('',(0.0411073668781841,0.0247000000000006,-0.026263459967669));
#374=CARTESIAN_POINT('',(0.0411073668781841,0.0247000000000006,-0.026263459967669));
#375=CARTESIAN_POINT('',(0.0411073668781841,0.0247000000000006,-0.0207634599676689));
#376=CARTESIAN_POINT('',(0.0411073668781841,0.0247000000000006,-0.0242322348058223));
#377=CARTESIAN_POINT('',(0.0411073668781841,0.0247000000000006,-0.0242322348058223));
#378=CARTESIAN_POINT('',(0.0411073668781841,0.0214049140325876,-0.0242322348058223));
#379=CARTESIAN_POINT('',(0.0411073668781841,0.0214049140325876,-0.0207634599676689));
#380=CARTESIAN_POINT('',(0.0411073668781841,0.0214049140325876,-0.0242634599676689));
#381=CARTESIAN_POINT('',(0.0411073668781841,0.0114049140325875,-0.0242634599676689));
#382=CARTESIAN_POINT('',(0.0411073668781841,0.00140491403258754,-0.0242634599676689));
#383=CARTESIAN_POINT('',(0.0411073668781841,0.00140491403258754,-0.0207634599676689));
#384=CARTESIAN_POINT('',(0.0411073668781841,0.00140491403258754,-0.017263459967669));
#385=CARTESIAN_POINT('',(0.0411073668781841,0.0114049140325875,-0.017263459967669));
#386=CARTESIAN_POINT('',(0.0306073668781841,0.0247000000000006,-0.0207634599676689));
#387=CARTESIAN_POINT('',(0.0323555322736502,0.0247000000000006,-0.0177322348058223));
#388=CARTESIAN_POINT('',(0.0223555322736501,0.0247000000000006,-0.0177322348058223));
#389=CARTESIAN_POINT('',(0.0223555322736501,0.0247000000000006,-0.0209822348058223));
#390=CARTESIAN_POINT('',(0.0223555322736501,0.0247000000000006,-0.0242322348058223));
#391=CARTESIAN_POINT('',(0.0323555322736502,0.0247000000000006,-0.0242322348058223));
#392=CARTESIAN_POINT('',(0.0306073668781841,0.0247000000000006,-0.026263459967669));
#393=CARTESIAN_POINT('',(0.020107366878184,0.0247000000000006,-0.026263459967669));
#394=CARTESIAN_POINT('',(0.0201073668781841,0.0247000000000006,-0.0207634599676689));
#395=CARTESIAN_POINT('',(0.0201073668781841,0.0247000000000006,-0.015263459967669));
#396=CARTESIAN_POINT('',(0.0306073668781841,0.0247000000000006,-0.015263459967669));
#397=CARTESIAN_POINT('',(0.016107366878184,0.0214049140325876,-0.0207634599676689));
#398=CARTESIAN_POINT('',(0.0223555322736501,0.0214049140325876,-0.0207634599676689));
#399=CARTESIAN_POINT('',(0.0223555322736501,0.0214049140325876,-0.0242322348058223));
#400=CARTESIAN_POINT('',(0.0223555322736501,0.0214049140325876,-0.0177322348058223));
#401=CARTESIAN_POINT('',(0.016107366878184,0.0214049140325876,-0.0177322348058223));
#402=CARTESIAN_POINT('',(0.016107366878184,0.0214049140325876,-0.017263459967669));
#403=CARTESIAN_POINT('',(0.0201073668781841,0.0214049140325876,-0.017263459967669));
#404=CARTESIAN_POINT('',(0.0201073668781841,0.0214049140325876,-0.0207634599676689));
#405=CARTESIAN_POINT('',(0.0201073668781841,0.0214049140325876,-0.0242634599676689));
#406=CARTESIAN_POINT('',(0.016107366878184,0.0214049140325876,-0.0242634599676689));
#407=CARTESIAN_POINT('',(0.016107366878184,0.0214049140325876,-0.0242322348058223));
#408=CARTESIAN_POINT('',(0.0201073668781841,0.0247000000000006,-0.0207634599676689));
#409=CARTESIAN_POINT('',(0.0201073668781841,-0.000299999999999467,-0.0207634599676689));
#410=CARTESIAN_POINT('',(0.020107366878184,-0.000299999999999467,-0.026263459967669));
#411=CARTESIAN_POINT('',(0.0201073668781841,-0.000299999999999467,-0.015263459967669));
#412=CARTESIAN_POINT('',(0.0201073668781841,0.0247000000000006,-0.015263459967669));
#413=CARTESIAN_POINT('',(0.020107366878184,0.0247000000000006,-0.026263459967669));
#414=CARTESIAN_POINT('',(0.0201073668781841,0.0247000000000006,-0.0242634599676689));
#415=CARTESIAN_POINT('',(0.0201073668781841,0.00140491403258754,-0.0242634599676689));
#416=CARTESIAN_POINT('',(0.0201073668781841,0.0247000000000006,-0.017263459967669));
#417=CARTESIAN_POINT('',(0.0201073668781841,0.00140491403258753,-0.017263459967669));
#418=CARTESIAN_POINT('',(0.0201073668781841,0.00140491403258754,-0.0207634599676689));
#419=CARTESIAN_POINT('',(0.0306073668781841,0.0247000000000006,-0.026263459967669));
#420=CARTESIAN_POINT('',(0.0306073668781841,-0.000299999999999467,-0.026263459967669));
#421=CARTESIAN_POINT('',(0.0306073668781841,0.0247000000000006,-0.015263459967669));
#422=CARTESIAN_POINT('',(0.0306073668781841,-0.000299999999999467,-0.015263459967669));
#423=CARTESIAN_POINT('',(0.0306073668781841,-0.000299999999999467,-0.0207634599676689));
#424=CARTESIAN_POINT('',(0.016107366878184,0.0114049140325875,-0.0242634599676689));
#425=CARTESIAN_POINT('',(0.016107366878184,0.00140491403258754,-0.0242634599676689));
#426=CARTESIAN_POINT('',(0.016107366878184,0.0114049140325875,-0.017263459967669));
#427=CARTESIAN_POINT('',(0.016107366878184,0.00140491403258753,-0.017263459967669));
#428=CARTESIAN_POINT('',(0.016107366878184,0.00140491403258754,-0.0207634599676689));
#429=CARTESIAN_POINT('',(0.0323555322736502,0.00830000000000053,-0.0177322348058223));
#430=CARTESIAN_POINT('',(0.0223555322736501,0.00830000000000053,-0.0177322348058223));
#431=CARTESIAN_POINT('',(0.0323555322736502,0.00830000000000053,-0.0242322348058223));
#432=CARTESIAN_POINT('',(0.0223555322736501,0.00830000000000053,-0.0242322348058223));
#433=CARTESIAN_POINT('',(0.0223555322736501,0.00830000000000053,-0.0209822348058223));
#434=MECHANICAL_DESIGN_GEOMETRIC_PRESENTATION_REPRESENTATION('',(#271),
#435);
#435=(
GEOMETRIC_REPRESENTATION_CONTEXT(3)
GLOBAL_UNCERTAINTY_ASSIGNED_CONTEXT((#436))
GLOBAL_UNIT_ASSIGNED_CONTEXT((#439,#438,#437))
REPRESENTATION_CONTEXT('ZAxis-KW12Holder','TOP_LEVEL_ASSEMBLY_PART')
);
#436=UNCERTAINTY_MEASURE_WITH_UNIT(LENGTH_MEASURE(1.E-8),#439,
'DISTANCE_ACCURACY_VALUE','Maximum Tolerance applied to model');
#437=(
NAMED_UNIT(*)
SI_UNIT($,.STERADIAN.)
SOLID_ANGLE_UNIT()
);
#438=(
NAMED_UNIT(*)
PLANE_ANGLE_UNIT()
SI_UNIT($,.RADIAN.)
);
#439=(
LENGTH_UNIT()
NAMED_UNIT(*)
SI_UNIT($,.METRE.)
);
#440=PRODUCT_DEFINITION_SHAPE('','',#441);
#441=PRODUCT_DEFINITION('','',#443,#442);
#442=PRODUCT_DEFINITION_CONTEXT('',#449,'design');
#443=PRODUCT_DEFINITION_FORMATION_WITH_SPECIFIED_SOURCE('','',#445,
 .NOT_KNOWN.);
#444=PRODUCT_RELATED_PRODUCT_CATEGORY('','',(#445));
#445=PRODUCT('ZAxis-KW12Holder','ZAxis-KW12Holder','ZAxis-KW12Holder',(#447));
#446=PRODUCT_CATEGORY('','');
#447=PRODUCT_CONTEXT('',#449,'mechanical');
#448=APPLICATION_PROTOCOL_DEFINITION('international standard',
'ap242_managed_model_based_3d_engineering',2020,#449);
#449=APPLICATION_CONTEXT('managed model based 3d engineering');
ENDSEC;
END-ISO-10303-21;
