ISO-10303-21;
HEADER;
/* Generated by software containing ST-Developer
 * from STEP Tools, Inc. (www.steptools.com) 
 */
/* OPTION: using custom renumber hook */

FILE_DESCRIPTION(
/* description */ ('STEP AP242 Edition 2',
'CAx-IF Rec.Pracs.---Representation and Presentation of Product Manufa
cturing Information (PMI)---4.0---2014-10-13',
'CAx-IF Rec.Pracs.---3D Tessellated Geometry---0.4---2014-09-14','2;1',
'CAx-IF Rec.Pracs.---User Defined Attributes---1.5---2016-08-15'),
/* implementation_level */ '2;1');

FILE_NAME(
/* name */ 'Router - BallScrewConnecter0',
/* time_stamp */ '2026-08-08T09:25:06Z',
/* author */ (''),
/* organization */ (''),
/* preprocessor_version */ 'ST-DEVELOPER v20',
/* originating_system */ 'ONSHAPE BY PTC INC, 1.219',
/* authorisation */ '  ');

FILE_SCHEMA (('AP242_MANAGED_MODEL_BASED_3D_ENGINEERING_MIM_LF { 1 0 10303 442 3 1 4 }'));
ENDSEC;

DATA;
#10=SHAPE_REPRESENTATION_RELATIONSHIP('','',#535,#11);
#11=ADVANCED_BREP_SHAPE_REPRESENTATION('',(#533),#891);
#12=CYLINDRICAL_SURFACE('',#563,0.01415);
#13=CYLINDRICAL_SURFACE('',#564,0.00275);
#14=CYLINDRICAL_SURFACE('',#565,0.00275);
#15=CYLINDRICAL_SURFACE('',#566,0.00275);
#16=CYLINDRICAL_SURFACE('',#567,0.00275);
#17=CYLINDRICAL_SURFACE('',#584,0.00275);
#18=CYLINDRICAL_SURFACE('',#585,0.00275);
#19=CYLINDRICAL_SURFACE('',#586,0.00275);
#20=CYLINDRICAL_SURFACE('',#587,0.00275);
#21=CYLINDRICAL_SURFACE('',#588,0.003);
#22=CYLINDRICAL_SURFACE('',#589,0.003);
#23=CYLINDRICAL_SURFACE('',#590,0.003);
#24=CYLINDRICAL_SURFACE('',#591,0.003);
#25=CYLINDRICAL_SURFACE('',#592,0.003);
#26=CYLINDRICAL_SURFACE('',#593,0.003);
#27=LINE('',#758,#63);
#28=LINE('',#761,#64);
#29=LINE('',#763,#65);
#30=LINE('',#765,#66);
#31=LINE('',#767,#67);
#32=LINE('',#769,#68);
#33=LINE('',#771,#69);
#34=LINE('',#773,#70);
#35=LINE('',#775,#71);
#36=LINE('',#787,#72);
#37=LINE('',#790,#73);
#38=LINE('',#792,#74);
#39=LINE('',#794,#75);
#40=LINE('',#796,#76);
#41=LINE('',#797,#77);
#42=LINE('',#799,#78);
#43=LINE('',#801,#79);
#44=LINE('',#803,#80);
#45=LINE('',#805,#81);
#46=LINE('',#806,#82);
#47=LINE('',#817,#83);
#48=LINE('',#822,#84);
#49=LINE('',#827,#85);
#50=LINE('',#831,#86);
#51=LINE('',#845,#87);
#52=LINE('',#850,#88);
#53=LINE('',#855,#89);
#54=LINE('',#856,#90);
#55=LINE('',#858,#91);
#56=LINE('',#859,#92);
#57=LINE('',#865,#93);
#58=LINE('',#870,#94);
#59=LINE('',#875,#95);
#60=LINE('',#876,#96);
#61=LINE('',#878,#97);
#62=LINE('',#879,#98);
#63=VECTOR('',#608,1.);
#64=VECTOR('',#609,1.);
#65=VECTOR('',#610,1.);
#66=VECTOR('',#611,1.);
#67=VECTOR('',#614,1.);
#68=VECTOR('',#615,1.);
#69=VECTOR('',#616,1.);
#70=VECTOR('',#617,1.);
#71=VECTOR('',#618,1.);
#72=VECTOR('',#631,1.);
#73=VECTOR('',#632,1.);
#74=VECTOR('',#633,1.);
#75=VECTOR('',#634,1.);
#76=VECTOR('',#635,1.);
#77=VECTOR('',#636,1.);
#78=VECTOR('',#637,1.);
#79=VECTOR('',#640,1.);
#80=VECTOR('',#641,1.);
#81=VECTOR('',#642,1.);
#82=VECTOR('',#643,1.);
#83=VECTOR('',#656,1.);
#84=VECTOR('',#659,1.);
#85=VECTOR('',#664,1.);
#86=VECTOR('',#667,1.);
#87=VECTOR('',#688,1.);
#88=VECTOR('',#691,1.);
#89=VECTOR('',#698,1.);
#90=VECTOR('',#699,1.);
#91=VECTOR('',#702,1.);
#92=VECTOR('',#703,1.);
#93=VECTOR('',#710,1.);
#94=VECTOR('',#713,1.);
#95=VECTOR('',#720,1.);
#96=VECTOR('',#721,1.);
#97=VECTOR('',#724,1.);
#98=VECTOR('',#725,1.);
#99=ORIENTED_EDGE('',*,*,#231,.F.);
#100=ORIENTED_EDGE('',*,*,#232,.F.);
#101=ORIENTED_EDGE('',*,*,#233,.F.);
#102=ORIENTED_EDGE('',*,*,#234,.F.);
#103=ORIENTED_EDGE('',*,*,#235,.F.);
#104=ORIENTED_EDGE('',*,*,#236,.F.);
#105=ORIENTED_EDGE('',*,*,#237,.T.);
#106=ORIENTED_EDGE('',*,*,#238,.T.);
#107=ORIENTED_EDGE('',*,*,#239,.F.);
#108=ORIENTED_EDGE('',*,*,#240,.T.);
#109=ORIENTED_EDGE('',*,*,#241,.T.);
#110=ORIENTED_EDGE('',*,*,#242,.F.);
#111=ORIENTED_EDGE('',*,*,#243,.T.);
#112=ORIENTED_EDGE('',*,*,#244,.F.);
#113=ORIENTED_EDGE('',*,*,#237,.F.);
#114=ORIENTED_EDGE('',*,*,#245,.F.);
#115=ORIENTED_EDGE('',*,*,#246,.F.);
#116=ORIENTED_EDGE('',*,*,#247,.F.);
#117=ORIENTED_EDGE('',*,*,#248,.F.);
#118=ORIENTED_EDGE('',*,*,#249,.F.);
#119=ORIENTED_EDGE('',*,*,#250,.T.);
#120=ORIENTED_EDGE('',*,*,#251,.T.);
#121=ORIENTED_EDGE('',*,*,#252,.T.);
#122=ORIENTED_EDGE('',*,*,#253,.T.);
#123=ORIENTED_EDGE('',*,*,#254,.F.);
#124=ORIENTED_EDGE('',*,*,#243,.F.);
#125=ORIENTED_EDGE('',*,*,#255,.F.);
#126=ORIENTED_EDGE('',*,*,#256,.T.);
#127=ORIENTED_EDGE('',*,*,#257,.T.);
#128=ORIENTED_EDGE('',*,*,#258,.T.);
#129=ORIENTED_EDGE('',*,*,#259,.F.);
#130=ORIENTED_EDGE('',*,*,#239,.T.);
#131=ORIENTED_EDGE('',*,*,#260,.T.);
#132=ORIENTED_EDGE('',*,*,#253,.F.);
#133=ORIENTED_EDGE('',*,*,#238,.F.);
#134=ORIENTED_EDGE('',*,*,#244,.T.);
#135=ORIENTED_EDGE('',*,*,#254,.T.);
#136=ORIENTED_EDGE('',*,*,#260,.F.);
#137=ORIENTED_EDGE('',*,*,#261,.F.);
#138=ORIENTED_EDGE('',*,*,#262,.F.);
#139=ORIENTED_EDGE('',*,*,#263,.F.);
#140=ORIENTED_EDGE('',*,*,#264,.F.);
#141=ORIENTED_EDGE('',*,*,#265,.F.);
#142=ORIENTED_EDGE('',*,*,#266,.T.);
#143=ORIENTED_EDGE('',*,*,#267,.T.);
#144=ORIENTED_EDGE('',*,*,#268,.T.);
#145=ORIENTED_EDGE('',*,*,#250,.F.);
#146=ORIENTED_EDGE('',*,*,#269,.T.);
#147=ORIENTED_EDGE('',*,*,#270,.F.);
#148=ORIENTED_EDGE('',*,*,#271,.T.);
#149=ORIENTED_EDGE('',*,*,#272,.T.);
#150=ORIENTED_EDGE('',*,*,#273,.T.);
#151=ORIENTED_EDGE('',*,*,#240,.F.);
#152=ORIENTED_EDGE('',*,*,#236,.T.);
#153=ORIENTED_EDGE('',*,*,#259,.T.);
#154=ORIENTED_EDGE('',*,*,#274,.T.);
#155=ORIENTED_EDGE('',*,*,#249,.T.);
#156=ORIENTED_EDGE('',*,*,#235,.T.);
#157=ORIENTED_EDGE('',*,*,#248,.T.);
#158=ORIENTED_EDGE('',*,*,#234,.T.);
#159=ORIENTED_EDGE('',*,*,#247,.T.);
#160=ORIENTED_EDGE('',*,*,#233,.T.);
#161=ORIENTED_EDGE('',*,*,#246,.T.);
#162=ORIENTED_EDGE('',*,*,#232,.T.);
#163=ORIENTED_EDGE('',*,*,#245,.T.);
#164=ORIENTED_EDGE('',*,*,#231,.T.);
#165=ORIENTED_EDGE('',*,*,#275,.F.);
#166=ORIENTED_EDGE('',*,*,#276,.F.);
#167=ORIENTED_EDGE('',*,*,#277,.T.);
#168=ORIENTED_EDGE('',*,*,#278,.T.);
#169=ORIENTED_EDGE('',*,*,#279,.T.);
#170=ORIENTED_EDGE('',*,*,#280,.T.);
#171=ORIENTED_EDGE('',*,*,#257,.F.);
#172=ORIENTED_EDGE('',*,*,#252,.F.);
#173=ORIENTED_EDGE('',*,*,#281,.T.);
#174=ORIENTED_EDGE('',*,*,#265,.T.);
#175=ORIENTED_EDGE('',*,*,#282,.T.);
#176=ORIENTED_EDGE('',*,*,#279,.F.);
#177=ORIENTED_EDGE('',*,*,#283,.T.);
#178=ORIENTED_EDGE('',*,*,#267,.F.);
#179=ORIENTED_EDGE('',*,*,#284,.T.);
#180=ORIENTED_EDGE('',*,*,#277,.F.);
#181=ORIENTED_EDGE('',*,*,#285,.T.);
#182=ORIENTED_EDGE('',*,*,#286,.T.);
#183=ORIENTED_EDGE('',*,*,#287,.T.);
#184=ORIENTED_EDGE('',*,*,#288,.F.);
#185=ORIENTED_EDGE('',*,*,#289,.T.);
#186=ORIENTED_EDGE('',*,*,#290,.F.);
#187=ORIENTED_EDGE('',*,*,#291,.T.);
#188=ORIENTED_EDGE('',*,*,#255,.T.);
#189=ORIENTED_EDGE('',*,*,#242,.T.);
#190=ORIENTED_EDGE('',*,*,#292,.T.);
#191=ORIENTED_EDGE('',*,*,#288,.T.);
#192=ORIENTED_EDGE('',*,*,#293,.T.);
#193=ORIENTED_EDGE('',*,*,#272,.F.);
#194=ORIENTED_EDGE('',*,*,#294,.T.);
#195=ORIENTED_EDGE('',*,*,#290,.T.);
#196=ORIENTED_EDGE('',*,*,#295,.T.);
#197=ORIENTED_EDGE('',*,*,#270,.T.);
#198=ORIENTED_EDGE('',*,*,#296,.T.);
#199=ORIENTED_EDGE('',*,*,#264,.T.);
#200=ORIENTED_EDGE('',*,*,#287,.F.);
#201=ORIENTED_EDGE('',*,*,#261,.T.);
#202=ORIENTED_EDGE('',*,*,#286,.F.);
#203=ORIENTED_EDGE('',*,*,#276,.T.);
#204=ORIENTED_EDGE('',*,*,#263,.T.);
#205=ORIENTED_EDGE('',*,*,#275,.T.);
#206=ORIENTED_EDGE('',*,*,#262,.T.);
#207=ORIENTED_EDGE('',*,*,#280,.F.);
#208=ORIENTED_EDGE('',*,*,#282,.F.);
#209=ORIENTED_EDGE('',*,*,#274,.F.);
#210=ORIENTED_EDGE('',*,*,#258,.F.);
#211=ORIENTED_EDGE('',*,*,#292,.F.);
#212=ORIENTED_EDGE('',*,*,#241,.F.);
#213=ORIENTED_EDGE('',*,*,#273,.F.);
#214=ORIENTED_EDGE('',*,*,#293,.F.);
#215=ORIENTED_EDGE('',*,*,#278,.F.);
#216=ORIENTED_EDGE('',*,*,#284,.F.);
#217=ORIENTED_EDGE('',*,*,#266,.F.);
#218=ORIENTED_EDGE('',*,*,#283,.F.);
#219=ORIENTED_EDGE('',*,*,#268,.F.);
#220=ORIENTED_EDGE('',*,*,#285,.F.);
#221=ORIENTED_EDGE('',*,*,#281,.F.);
#222=ORIENTED_EDGE('',*,*,#251,.F.);
#223=ORIENTED_EDGE('',*,*,#289,.F.);
#224=ORIENTED_EDGE('',*,*,#294,.F.);
#225=ORIENTED_EDGE('',*,*,#271,.F.);
#226=ORIENTED_EDGE('',*,*,#295,.F.);
#227=ORIENTED_EDGE('',*,*,#269,.F.);
#228=ORIENTED_EDGE('',*,*,#256,.F.);
#229=ORIENTED_EDGE('',*,*,#291,.F.);
#230=ORIENTED_EDGE('',*,*,#296,.F.);
#231=EDGE_CURVE('',#297,#297,#347,.T.);
#232=EDGE_CURVE('',#298,#298,#348,.T.);
#233=EDGE_CURVE('',#299,#299,#349,.T.);
#234=EDGE_CURVE('',#300,#300,#350,.T.);
#235=EDGE_CURVE('',#301,#301,#351,.T.);
#236=EDGE_CURVE('',#302,#303,#27,.T.);
#237=EDGE_CURVE('',#302,#304,#28,.T.);
#238=EDGE_CURVE('',#304,#305,#29,.T.);
#239=EDGE_CURVE('',#303,#305,#30,.T.);
#240=EDGE_CURVE('',#302,#306,#31,.T.);
#241=EDGE_CURVE('',#306,#307,#32,.F.);
#242=EDGE_CURVE('',#308,#307,#33,.T.);
#243=EDGE_CURVE('',#308,#309,#34,.T.);
#244=EDGE_CURVE('',#304,#309,#35,.T.);
#245=EDGE_CURVE('',#310,#310,#352,.T.);
#246=EDGE_CURVE('',#311,#311,#353,.T.);
#247=EDGE_CURVE('',#312,#312,#354,.T.);
#248=EDGE_CURVE('',#313,#313,#355,.T.);
#249=EDGE_CURVE('',#314,#314,#356,.T.);
#250=EDGE_CURVE('',#315,#316,#36,.T.);
#251=EDGE_CURVE('',#316,#317,#37,.T.);
#252=EDGE_CURVE('',#317,#318,#38,.T.);
#253=EDGE_CURVE('',#318,#319,#39,.T.);
#254=EDGE_CURVE('',#309,#319,#40,.T.);
#255=EDGE_CURVE('',#320,#308,#41,.T.);
#256=EDGE_CURVE('',#320,#315,#42,.F.);
#257=EDGE_CURVE('',#318,#321,#43,.T.);
#258=EDGE_CURVE('',#321,#322,#44,.T.);
#259=EDGE_CURVE('',#303,#322,#45,.T.);
#260=EDGE_CURVE('',#305,#319,#46,.T.);
#261=EDGE_CURVE('',#323,#323,#357,.T.);
#262=EDGE_CURVE('',#324,#324,#358,.T.);
#263=EDGE_CURVE('',#325,#325,#359,.T.);
#264=EDGE_CURVE('',#326,#326,#360,.T.);
#265=EDGE_CURVE('',#327,#328,#47,.T.);
#266=EDGE_CURVE('',#327,#329,#361,.T.);
#267=EDGE_CURVE('',#329,#330,#48,.T.);
#268=EDGE_CURVE('',#330,#316,#362,.T.);
#269=EDGE_CURVE('',#315,#331,#363,.T.);
#270=EDGE_CURVE('',#332,#331,#49,.T.);
#271=EDGE_CURVE('',#332,#333,#364,.T.);
#272=EDGE_CURVE('',#333,#334,#50,.T.);
#273=EDGE_CURVE('',#334,#306,#365,.F.);
#274=EDGE_CURVE('',#322,#328,#366,.F.);
#275=EDGE_CURVE('',#335,#335,#367,.T.);
#276=EDGE_CURVE('',#336,#336,#368,.T.);
#277=EDGE_CURVE('',#337,#338,#51,.T.);
#278=EDGE_CURVE('',#338,#339,#369,.T.);
#279=EDGE_CURVE('',#339,#340,#52,.T.);
#280=EDGE_CURVE('',#340,#321,#370,.F.);
#281=EDGE_CURVE('',#317,#337,#371,.T.);
#282=EDGE_CURVE('',#328,#340,#53,.F.);
#283=EDGE_CURVE('',#339,#327,#54,.T.);
#284=EDGE_CURVE('',#329,#338,#55,.F.);
#285=EDGE_CURVE('',#337,#330,#56,.F.);
#286=EDGE_CURVE('',#341,#341,#372,.T.);
#287=EDGE_CURVE('',#342,#342,#373,.T.);
#288=EDGE_CURVE('',#343,#344,#57,.T.);
#289=EDGE_CURVE('',#343,#345,#374,.F.);
#290=EDGE_CURVE('',#346,#345,#58,.T.);
#291=EDGE_CURVE('',#346,#320,#375,.F.);
#292=EDGE_CURVE('',#307,#344,#376,.T.);
#293=EDGE_CURVE('',#344,#334,#59,.T.);
#294=EDGE_CURVE('',#333,#343,#60,.F.);
#295=EDGE_CURVE('',#345,#332,#61,.T.);
#296=EDGE_CURVE('',#331,#346,#62,.T.);
#297=VERTEX_POINT('',#749);
#298=VERTEX_POINT('',#751);
#299=VERTEX_POINT('',#753);
#300=VERTEX_POINT('',#755);
#301=VERTEX_POINT('',#757);
#302=VERTEX_POINT('',#759);
#303=VERTEX_POINT('',#760);
#304=VERTEX_POINT('',#762);
#305=VERTEX_POINT('',#764);
#306=VERTEX_POINT('',#768);
#307=VERTEX_POINT('',#770);
#308=VERTEX_POINT('',#772);
#309=VERTEX_POINT('',#774);
#310=VERTEX_POINT('',#778);
#311=VERTEX_POINT('',#780);
#312=VERTEX_POINT('',#782);
#313=VERTEX_POINT('',#784);
#314=VERTEX_POINT('',#786);
#315=VERTEX_POINT('',#788);
#316=VERTEX_POINT('',#789);
#317=VERTEX_POINT('',#791);
#318=VERTEX_POINT('',#793);
#319=VERTEX_POINT('',#795);
#320=VERTEX_POINT('',#798);
#321=VERTEX_POINT('',#802);
#322=VERTEX_POINT('',#804);
#323=VERTEX_POINT('',#810);
#324=VERTEX_POINT('',#812);
#325=VERTEX_POINT('',#814);
#326=VERTEX_POINT('',#816);
#327=VERTEX_POINT('',#818);
#328=VERTEX_POINT('',#819);
#329=VERTEX_POINT('',#821);
#330=VERTEX_POINT('',#823);
#331=VERTEX_POINT('',#826);
#332=VERTEX_POINT('',#828);
#333=VERTEX_POINT('',#830);
#334=VERTEX_POINT('',#832);
#335=VERTEX_POINT('',#842);
#336=VERTEX_POINT('',#844);
#337=VERTEX_POINT('',#846);
#338=VERTEX_POINT('',#847);
#339=VERTEX_POINT('',#849);
#340=VERTEX_POINT('',#851);
#341=VERTEX_POINT('',#862);
#342=VERTEX_POINT('',#864);
#343=VERTEX_POINT('',#866);
#344=VERTEX_POINT('',#867);
#345=VERTEX_POINT('',#869);
#346=VERTEX_POINT('',#871);
#347=CIRCLE('',#538,0.00275);
#348=CIRCLE('',#539,0.00275);
#349=CIRCLE('',#540,0.00275);
#350=CIRCLE('',#541,0.00275);
#351=CIRCLE('',#542,0.01415);
#352=CIRCLE('',#545,0.00275);
#353=CIRCLE('',#546,0.00275);
#354=CIRCLE('',#547,0.00275);
#355=CIRCLE('',#548,0.00275);
#356=CIRCLE('',#549,0.01415);
#357=CIRCLE('',#553,0.00275);
#358=CIRCLE('',#554,0.00275);
#359=CIRCLE('',#555,0.00275);
#360=CIRCLE('',#556,0.00275);
#361=CIRCLE('',#557,0.003);
#362=CIRCLE('',#558,0.003);
#363=CIRCLE('',#559,0.003);
#364=CIRCLE('',#560,0.003);
#365=CIRCLE('',#561,0.003);
#366=CIRCLE('',#562,0.003);
#367=CIRCLE('',#569,0.00275);
#368=CIRCLE('',#570,0.00275);
#369=CIRCLE('',#571,0.003);
#370=CIRCLE('',#572,0.003);
#371=CIRCLE('',#573,0.003);
#372=CIRCLE('',#577,0.00275);
#373=CIRCLE('',#578,0.00275);
#374=CIRCLE('',#579,0.003);
#375=CIRCLE('',#580,0.003);
#376=CIRCLE('',#581,0.003);
#377=EDGE_LOOP('',(#99));
#378=EDGE_LOOP('',(#100));
#379=EDGE_LOOP('',(#101));
#380=EDGE_LOOP('',(#102));
#381=EDGE_LOOP('',(#103));
#382=EDGE_LOOP('',(#104,#105,#106,#107));
#383=EDGE_LOOP('',(#108,#109,#110,#111,#112,#113));
#384=EDGE_LOOP('',(#114));
#385=EDGE_LOOP('',(#115));
#386=EDGE_LOOP('',(#116));
#387=EDGE_LOOP('',(#117));
#388=EDGE_LOOP('',(#118));
#389=EDGE_LOOP('',(#119,#120,#121,#122,#123,#124,#125,#126));
#390=EDGE_LOOP('',(#127,#128,#129,#130,#131,#132));
#391=EDGE_LOOP('',(#133,#134,#135,#136));
#392=EDGE_LOOP('',(#137));
#393=EDGE_LOOP('',(#138));
#394=EDGE_LOOP('',(#139));
#395=EDGE_LOOP('',(#140));
#396=EDGE_LOOP('',(#141,#142,#143,#144,#145,#146,#147,#148,#149,#150,#151,
#152,#153,#154));
#397=EDGE_LOOP('',(#155));
#398=EDGE_LOOP('',(#156));
#399=EDGE_LOOP('',(#157));
#400=EDGE_LOOP('',(#158));
#401=EDGE_LOOP('',(#159));
#402=EDGE_LOOP('',(#160));
#403=EDGE_LOOP('',(#161));
#404=EDGE_LOOP('',(#162));
#405=EDGE_LOOP('',(#163));
#406=EDGE_LOOP('',(#164));
#407=EDGE_LOOP('',(#165));
#408=EDGE_LOOP('',(#166));
#409=EDGE_LOOP('',(#167,#168,#169,#170,#171,#172,#173));
#410=EDGE_LOOP('',(#174,#175,#176,#177));
#411=EDGE_LOOP('',(#178,#179,#180,#181));
#412=EDGE_LOOP('',(#182));
#413=EDGE_LOOP('',(#183));
#414=EDGE_LOOP('',(#184,#185,#186,#187,#188,#189,#190));
#415=EDGE_LOOP('',(#191,#192,#193,#194));
#416=EDGE_LOOP('',(#195,#196,#197,#198));
#417=EDGE_LOOP('',(#199));
#418=EDGE_LOOP('',(#200));
#419=EDGE_LOOP('',(#201));
#420=EDGE_LOOP('',(#202));
#421=EDGE_LOOP('',(#203));
#422=EDGE_LOOP('',(#204));
#423=EDGE_LOOP('',(#205));
#424=EDGE_LOOP('',(#206));
#425=EDGE_LOOP('',(#207,#208,#209,#210));
#426=EDGE_LOOP('',(#211,#212,#213,#214));
#427=EDGE_LOOP('',(#215,#216,#217,#218));
#428=EDGE_LOOP('',(#219,#220,#221,#222));
#429=EDGE_LOOP('',(#223,#224,#225,#226));
#430=EDGE_LOOP('',(#227,#228,#229,#230));
#431=FACE_BOUND('',#377,.T.);
#432=FACE_BOUND('',#378,.T.);
#433=FACE_BOUND('',#379,.T.);
#434=FACE_BOUND('',#380,.T.);
#435=FACE_BOUND('',#381,.T.);
#436=FACE_BOUND('',#382,.T.);
#437=FACE_BOUND('',#383,.T.);
#438=FACE_BOUND('',#384,.T.);
#439=FACE_BOUND('',#385,.T.);
#440=FACE_BOUND('',#386,.T.);
#441=FACE_BOUND('',#387,.T.);
#442=FACE_BOUND('',#388,.T.);
#443=FACE_BOUND('',#389,.T.);
#444=FACE_BOUND('',#390,.T.);
#445=FACE_BOUND('',#391,.T.);
#446=FACE_BOUND('',#392,.T.);
#447=FACE_BOUND('',#393,.T.);
#448=FACE_BOUND('',#394,.T.);
#449=FACE_BOUND('',#395,.T.);
#450=FACE_BOUND('',#396,.T.);
#451=FACE_BOUND('',#397,.T.);
#452=FACE_BOUND('',#398,.T.);
#453=FACE_BOUND('',#399,.T.);
#454=FACE_BOUND('',#400,.T.);
#455=FACE_BOUND('',#401,.T.);
#456=FACE_BOUND('',#402,.T.);
#457=FACE_BOUND('',#403,.T.);
#458=FACE_BOUND('',#404,.T.);
#459=FACE_BOUND('',#405,.T.);
#460=FACE_BOUND('',#406,.T.);
#461=FACE_BOUND('',#407,.T.);
#462=FACE_BOUND('',#408,.T.);
#463=FACE_BOUND('',#409,.T.);
#464=FACE_BOUND('',#410,.T.);
#465=FACE_BOUND('',#411,.T.);
#466=FACE_BOUND('',#412,.T.);
#467=FACE_BOUND('',#413,.T.);
#468=FACE_BOUND('',#414,.T.);
#469=FACE_BOUND('',#415,.T.);
#470=FACE_BOUND('',#416,.T.);
#471=FACE_BOUND('',#417,.T.);
#472=FACE_BOUND('',#418,.T.);
#473=FACE_BOUND('',#419,.T.);
#474=FACE_BOUND('',#420,.T.);
#475=FACE_BOUND('',#421,.T.);
#476=FACE_BOUND('',#422,.T.);
#477=FACE_BOUND('',#423,.T.);
#478=FACE_BOUND('',#424,.T.);
#479=FACE_BOUND('',#425,.T.);
#480=FACE_BOUND('',#426,.T.);
#481=FACE_BOUND('',#427,.T.);
#482=FACE_BOUND('',#428,.T.);
#483=FACE_BOUND('',#429,.T.);
#484=FACE_BOUND('',#430,.T.);
#485=PLANE('',#537);
#486=PLANE('',#543);
#487=PLANE('',#544);
#488=PLANE('',#550);
#489=PLANE('',#551);
#490=PLANE('',#552);
#491=PLANE('',#568);
#492=PLANE('',#574);
#493=PLANE('',#575);
#494=PLANE('',#576);
#495=PLANE('',#582);
#496=PLANE('',#583);
#497=ADVANCED_FACE('',(#431,#432,#433,#434,#435,#436),#485,.F.);
#498=ADVANCED_FACE('',(#437),#486,.T.);
#499=ADVANCED_FACE('',(#438,#439,#440,#441,#442,#443),#487,.T.);
#500=ADVANCED_FACE('',(#444),#488,.F.);
#501=ADVANCED_FACE('',(#445),#489,.T.);
#502=ADVANCED_FACE('',(#446,#447,#448,#449,#450),#490,.T.);
#503=ADVANCED_FACE('',(#451,#452),#12,.F.);
#504=ADVANCED_FACE('',(#453,#454),#13,.F.);
#505=ADVANCED_FACE('',(#455,#456),#14,.F.);
#506=ADVANCED_FACE('',(#457,#458),#15,.F.);
#507=ADVANCED_FACE('',(#459,#460),#16,.F.);
#508=ADVANCED_FACE('',(#461,#462,#463),#491,.T.);
#509=ADVANCED_FACE('',(#464),#492,.T.);
#510=ADVANCED_FACE('',(#465),#493,.T.);
#511=ADVANCED_FACE('',(#466,#467,#468),#494,.F.);
#512=ADVANCED_FACE('',(#469),#495,.F.);
#513=ADVANCED_FACE('',(#470),#496,.F.);
#514=ADVANCED_FACE('',(#471,#472),#17,.F.);
#515=ADVANCED_FACE('',(#473,#474),#18,.F.);
#516=ADVANCED_FACE('',(#475,#476),#19,.F.);
#517=ADVANCED_FACE('',(#477,#478),#20,.F.);
#518=ADVANCED_FACE('',(#479),#21,.F.);
#519=ADVANCED_FACE('',(#480),#22,.F.);
#520=ADVANCED_FACE('',(#481),#23,.T.);
#521=ADVANCED_FACE('',(#482),#24,.T.);
#522=ADVANCED_FACE('',(#483),#25,.T.);
#523=ADVANCED_FACE('',(#484),#26,.T.);
#524=CLOSED_SHELL('',(#497,#498,#499,#500,#501,#502,#503,#504,#505,#506,
#507,#508,#509,#510,#511,#512,#513,#514,#515,#516,#517,#518,#519,#520,#521,
#522,#523));
#525=STYLED_ITEM('',(#526),#533);
#526=PRESENTATION_STYLE_ASSIGNMENT((#527));
#527=SURFACE_STYLE_USAGE(.BOTH.,#528);
#528=SURFACE_SIDE_STYLE('',(#529));
#529=SURFACE_STYLE_FILL_AREA(#530);
#530=FILL_AREA_STYLE('',(#531));
#531=FILL_AREA_STYLE_COLOUR('',#532);
#532=COLOUR_RGB('',0.768627450980392,0.886274509803922,0.952941176470588);
#533=MANIFOLD_SOLID_BREP('BallScrewConnecter0',#524);
#534=SHAPE_DEFINITION_REPRESENTATION(#896,#535);
#535=SHAPE_REPRESENTATION('BallScrewConnecter0',(#536),#891);
#536=AXIS2_PLACEMENT_3D('',#746,#594,#595);
#537=AXIS2_PLACEMENT_3D('',#747,#596,#597);
#538=AXIS2_PLACEMENT_3D('',#748,#598,#599);
#539=AXIS2_PLACEMENT_3D('',#750,#600,#601);
#540=AXIS2_PLACEMENT_3D('',#752,#602,#603);
#541=AXIS2_PLACEMENT_3D('',#754,#604,#605);
#542=AXIS2_PLACEMENT_3D('',#756,#606,#607);
#543=AXIS2_PLACEMENT_3D('',#766,#612,#613);
#544=AXIS2_PLACEMENT_3D('',#776,#619,#620);
#545=AXIS2_PLACEMENT_3D('',#777,#621,#622);
#546=AXIS2_PLACEMENT_3D('',#779,#623,#624);
#547=AXIS2_PLACEMENT_3D('',#781,#625,#626);
#548=AXIS2_PLACEMENT_3D('',#783,#627,#628);
#549=AXIS2_PLACEMENT_3D('',#785,#629,#630);
#550=AXIS2_PLACEMENT_3D('',#800,#638,#639);
#551=AXIS2_PLACEMENT_3D('',#807,#644,#645);
#552=AXIS2_PLACEMENT_3D('',#808,#646,#647);
#553=AXIS2_PLACEMENT_3D('',#809,#648,#649);
#554=AXIS2_PLACEMENT_3D('',#811,#650,#651);
#555=AXIS2_PLACEMENT_3D('',#813,#652,#653);
#556=AXIS2_PLACEMENT_3D('',#815,#654,#655);
#557=AXIS2_PLACEMENT_3D('',#820,#657,#658);
#558=AXIS2_PLACEMENT_3D('',#824,#660,#661);
#559=AXIS2_PLACEMENT_3D('',#825,#662,#663);
#560=AXIS2_PLACEMENT_3D('',#829,#665,#666);
#561=AXIS2_PLACEMENT_3D('',#833,#668,#669);
#562=AXIS2_PLACEMENT_3D('',#834,#670,#671);
#563=AXIS2_PLACEMENT_3D('',#835,#672,#673);
#564=AXIS2_PLACEMENT_3D('',#836,#674,#675);
#565=AXIS2_PLACEMENT_3D('',#837,#676,#677);
#566=AXIS2_PLACEMENT_3D('',#838,#678,#679);
#567=AXIS2_PLACEMENT_3D('',#839,#680,#681);
#568=AXIS2_PLACEMENT_3D('',#840,#682,#683);
#569=AXIS2_PLACEMENT_3D('',#841,#684,#685);
#570=AXIS2_PLACEMENT_3D('',#843,#686,#687);
#571=AXIS2_PLACEMENT_3D('',#848,#689,#690);
#572=AXIS2_PLACEMENT_3D('',#852,#692,#693);
#573=AXIS2_PLACEMENT_3D('',#853,#694,#695);
#574=AXIS2_PLACEMENT_3D('',#854,#696,#697);
#575=AXIS2_PLACEMENT_3D('',#857,#700,#701);
#576=AXIS2_PLACEMENT_3D('',#860,#704,#705);
#577=AXIS2_PLACEMENT_3D('',#861,#706,#707);
#578=AXIS2_PLACEMENT_3D('',#863,#708,#709);
#579=AXIS2_PLACEMENT_3D('',#868,#711,#712);
#580=AXIS2_PLACEMENT_3D('',#872,#714,#715);
#581=AXIS2_PLACEMENT_3D('',#873,#716,#717);
#582=AXIS2_PLACEMENT_3D('',#874,#718,#719);
#583=AXIS2_PLACEMENT_3D('',#877,#722,#723);
#584=AXIS2_PLACEMENT_3D('',#880,#726,#727);
#585=AXIS2_PLACEMENT_3D('',#881,#728,#729);
#586=AXIS2_PLACEMENT_3D('',#882,#730,#731);
#587=AXIS2_PLACEMENT_3D('',#883,#732,#733);
#588=AXIS2_PLACEMENT_3D('',#884,#734,#735);
#589=AXIS2_PLACEMENT_3D('',#885,#736,#737);
#590=AXIS2_PLACEMENT_3D('',#886,#738,#739);
#591=AXIS2_PLACEMENT_3D('',#887,#740,#741);
#592=AXIS2_PLACEMENT_3D('',#888,#742,#743);
#593=AXIS2_PLACEMENT_3D('',#889,#744,#745);
#594=DIRECTION('',(0.,0.,1.));
#595=DIRECTION('',(1.,0.,0.));
#596=DIRECTION('',(-8.1876638210889E-30,5.66384021509486E-14,-1.));
#597=DIRECTION('',(0.,1.,5.66384021509486E-14));
#598=DIRECTION('',(8.1876638210889E-30,-5.66384021509486E-14,1.));
#599=DIRECTION('',(0.,-1.,-5.66384021509486E-14));
#600=DIRECTION('',(8.1876638210889E-30,-5.66384021509486E-14,1.));
#601=DIRECTION('',(0.,-1.,-5.66384021509486E-14));
#602=DIRECTION('',(8.1876638210889E-30,-5.66384021509486E-14,1.));
#603=DIRECTION('',(0.,-1.,-5.66384021509486E-14));
#604=DIRECTION('',(8.1876638210889E-30,-5.66384021509486E-14,1.));
#605=DIRECTION('',(0.,-1.,-5.66384021509486E-14));
#606=DIRECTION('',(8.1876638210889E-30,-5.66384021509486E-14,1.));
#607=DIRECTION('',(0.,-1.,-5.66384021509486E-14));
#608=DIRECTION('',(1.,1.04948489504458E-23,-8.18766322667743E-30));
#609=DIRECTION('',(1.0004728065662E-16,-1.,-5.66384021509486E-14));
#610=DIRECTION('',(1.,1.0004728065662E-16,-2.52114570515043E-30));
#611=DIRECTION('',(1.0004728065662E-16,-1.,-5.66384021509486E-14));
#612=DIRECTION('',(-1.,-1.0004728065662E-16,-5.66944237694946E-30));
#613=DIRECTION('',(-1.0004728065662E-16,1.,0.));
#614=DIRECTION('',(5.66944237744599E-30,-4.96295745757333E-24,-1.));
#615=DIRECTION('',(-1.0004728065662E-16,1.,2.77555756156258E-16));
#616=DIRECTION('',(3.20166543677742E-33,-5.66996324653316E-14,1.));
#617=DIRECTION('',(1.0004728065662E-16,-1.,-5.66384021509486E-14));
#618=DIRECTION('',(2.92426101099233E-33,5.66384021509486E-14,-1.));
#619=DIRECTION('',(-8.1876638210889E-30,5.66384021509486E-14,-1.));
#620=DIRECTION('',(0.,1.,5.66384021509486E-14));
#621=DIRECTION('',(-8.1876638210889E-30,5.66384021509486E-14,-1.));
#622=DIRECTION('',(0.,1.,5.66384021509486E-14));
#623=DIRECTION('',(-8.1876638210889E-30,5.66384021509486E-14,-1.));
#624=DIRECTION('',(0.,1.,5.66384021509486E-14));
#625=DIRECTION('',(-8.1876638210889E-30,5.66384021509486E-14,-1.));
#626=DIRECTION('',(0.,1.,5.66384021509486E-14));
#627=DIRECTION('',(-8.1876638210889E-30,5.66384021509486E-14,-1.));
#628=DIRECTION('',(0.,1.,5.66384021509486E-14));
#629=DIRECTION('',(-8.1876638210889E-30,5.66384021509486E-14,-1.));
#630=DIRECTION('',(0.,1.,5.66384021509486E-14));
#631=DIRECTION('',(1.,1.04948489504458E-23,-8.18766322667743E-30));
#632=DIRECTION('',(1.0004728065662E-16,-1.,-5.66384021509486E-14));
#633=DIRECTION('',(-1.,-1.0004728065662E-16,-5.66944237694946E-30));
#634=DIRECTION('',(1.0004728065662E-16,-1.,-5.66384021509486E-14));
#635=DIRECTION('',(1.,1.0004728065662E-16,-2.52114570515043E-30));
#636=DIRECTION('',(1.,1.0004728065662E-16,5.66944237694946E-30));
#637=DIRECTION('',(1.0004728065662E-16,-1.,-5.66384021509486E-14));
#638=DIRECTION('',(-1.,-1.0004728065662E-16,-5.66944237694946E-30));
#639=DIRECTION('',(-1.0004728065662E-16,1.,0.));
#640=DIRECTION('',(3.20166543677742E-33,-5.66996324653316E-14,1.));
#641=DIRECTION('',(-1.0004728065662E-16,1.,2.77555756156258E-16));
#642=DIRECTION('',(5.66944237744599E-30,-4.96295745757333E-24,-1.));
#643=DIRECTION('',(2.92426101099422E-33,5.66384021509486E-14,-1.));
#644=DIRECTION('',(1.0004728065662E-16,-1.,-5.66384021509486E-14));
#645=DIRECTION('',(1.,1.0004728065662E-16,5.66651811593847E-30));
#646=DIRECTION('',(-1.04948489504458E-23,1.,-4.96295745757333E-24));
#647=DIRECTION('',(1.,1.04948489504458E-23,-5.20854888647204E-47));
#648=DIRECTION('',(-1.04948489504458E-23,1.,-4.96295745757333E-24));
#649=DIRECTION('',(1.,1.04948489504458E-23,0.));
#650=DIRECTION('',(-1.04948489504458E-23,1.,-4.96295745757333E-24));
#651=DIRECTION('',(1.,1.04948489504458E-23,0.));
#652=DIRECTION('',(-1.04948489504458E-23,1.,-4.96295745757333E-24));
#653=DIRECTION('',(1.,1.04948489504458E-23,0.));
#654=DIRECTION('',(-1.04948489504458E-23,1.,-4.96295745757333E-24));
#655=DIRECTION('',(1.,1.04948489504458E-23,0.));
#656=DIRECTION('',(-1.,-1.0004728065662E-16,-5.66944237694946E-30));
#657=DIRECTION('',(-1.04948489504458E-23,1.,-4.96295745757333E-24));
#658=DIRECTION('',(1.,1.04948489504458E-23,0.));
#659=DIRECTION('',(5.66944237744599E-30,-4.96295745757333E-24,-1.));
#660=DIRECTION('',(-1.04948489504458E-23,1.,-4.96295745757333E-24));
#661=DIRECTION('',(1.,1.04948489504458E-23,0.));
#662=DIRECTION('',(-1.04948489504458E-23,1.,-4.96295745757333E-24));
#663=DIRECTION('',(1.,1.04948489504458E-23,0.));
#664=DIRECTION('',(5.66944237744599E-30,-4.96295745757333E-24,-1.));
#665=DIRECTION('',(-1.04948489504458E-23,1.,-4.96295745757333E-24));
#666=DIRECTION('',(1.,1.04948489504458E-23,0.));
#667=DIRECTION('',(1.,1.0004728065662E-16,5.66944237694946E-30));
#668=DIRECTION('',(-1.04948489504458E-23,1.,-4.96295745757333E-24));
#669=DIRECTION('',(1.,1.04948489504458E-23,0.));
#670=DIRECTION('',(-1.04948489504458E-23,1.,-4.96295745757333E-24));
#671=DIRECTION('',(1.,1.04948489504458E-23,0.));
#672=DIRECTION('',(8.1876638210889E-30,-5.66384021509486E-14,1.));
#673=DIRECTION('',(0.,-1.,-5.66384021509486E-14));
#674=DIRECTION('',(8.1876638210889E-30,-5.66384021509486E-14,1.));
#675=DIRECTION('',(0.,-1.,-5.66384021509486E-14));
#676=DIRECTION('',(8.1876638210889E-30,-5.66384021509486E-14,1.));
#677=DIRECTION('',(0.,-1.,-5.66384021509486E-14));
#678=DIRECTION('',(8.1876638210889E-30,-5.66384021509486E-14,1.));
#679=DIRECTION('',(0.,-1.,-5.66384021509486E-14));
#680=DIRECTION('',(8.1876638210889E-30,-5.66384021509486E-14,1.));
#681=DIRECTION('',(0.,-1.,-5.66384021509486E-14));
#682=DIRECTION('',(1.0004728065662E-16,-1.,-5.66996324653316E-14));
#683=DIRECTION('',(0.,5.66996324653316E-14,-1.));
#684=DIRECTION('',(1.0004728065662E-16,-1.,-5.66996324653316E-14));
#685=DIRECTION('',(0.,5.66996324653316E-14,-1.));
#686=DIRECTION('',(1.0004728065662E-16,-1.,-5.66996324653316E-14));
#687=DIRECTION('',(0.,5.66996324653316E-14,-1.));
#688=DIRECTION('',(3.20166543677742E-33,-5.66996324653316E-14,1.));
#689=DIRECTION('',(1.0004728065662E-16,-1.,-5.66996324653316E-14));
#690=DIRECTION('',(0.,5.66996324653316E-14,-1.));
#691=DIRECTION('',(-1.,-1.0004728065662E-16,-5.66944237694946E-30));
#692=DIRECTION('',(1.0004728065662E-16,-1.,-5.66996324653316E-14));
#693=DIRECTION('',(0.,5.66996324653316E-14,-1.));
#694=DIRECTION('',(1.0004728065662E-16,-1.,-5.66996324653316E-14));
#695=DIRECTION('',(0.,5.66996324653316E-14,-1.));
#696=DIRECTION('',(-5.64167367831544E-30,-2.77555756156258E-16,1.));
#697=DIRECTION('',(0.,-1.,-2.77555756156258E-16));
#698=DIRECTION('',(-1.0004728065662E-16,1.,2.77555756156258E-16));
#699=DIRECTION('',(-1.0004728065662E-16,1.,2.77555756156258E-16));
#700=DIRECTION('',(1.,1.0004728065662E-16,5.66944237694946E-30));
#701=DIRECTION('',(5.66944237694946E-30,5.67212292653198E-46,-1.));
#702=DIRECTION('',(-1.0004728065662E-16,1.,2.77555756156258E-16));
#703=DIRECTION('',(1.0004728065662E-16,-1.,-5.66384021509486E-14));
#704=DIRECTION('',(-1.0004728065662E-16,1.,5.66996324653316E-14));
#705=DIRECTION('',(0.,-5.66996324653316E-14,1.));
#706=DIRECTION('',(-1.0004728065662E-16,1.,5.66996324653316E-14));
#707=DIRECTION('',(0.,-5.66996324653316E-14,1.));
#708=DIRECTION('',(-1.0004728065662E-16,1.,5.66996324653316E-14));
#709=DIRECTION('',(0.,-5.66996324653316E-14,1.));
#710=DIRECTION('',(1.,1.0004728065662E-16,5.66944237694946E-30));
#711=DIRECTION('',(-1.0004728065662E-16,1.,5.66996324653316E-14));
#712=DIRECTION('',(0.,-5.66996324653316E-14,1.));
#713=DIRECTION('',(3.20166543677742E-33,-5.66996324653316E-14,1.));
#714=DIRECTION('',(-1.0004728065662E-16,1.,5.66996324653316E-14));
#715=DIRECTION('',(0.,-5.66996324653316E-14,1.));
#716=DIRECTION('',(-1.0004728065662E-16,1.,5.66996324653316E-14));
#717=DIRECTION('',(0.,-5.66996324653316E-14,1.));
#718=DIRECTION('',(5.64167367831544E-30,2.77555756156258E-16,-1.));
#719=DIRECTION('',(0.,1.,2.77555756156258E-16));
#720=DIRECTION('',(-1.0004728065662E-16,1.,2.77555756156258E-16));
#721=DIRECTION('',(-1.0004728065662E-16,1.,2.77555756156258E-16));
#722=DIRECTION('',(1.,1.0004728065662E-16,5.66944237694946E-30));
#723=DIRECTION('',(5.66944237694946E-30,5.67212292653198E-46,-1.));
#724=DIRECTION('',(-1.0004728065662E-16,1.,2.77555756156258E-16));
#725=DIRECTION('',(1.0004728065662E-16,-1.,-5.66384021509486E-14));
#726=DIRECTION('',(-1.04948489504458E-23,1.,-4.96295745757333E-24));
#727=DIRECTION('',(1.,1.04948489504458E-23,0.));
#728=DIRECTION('',(-1.04948489504458E-23,1.,-4.96295745757333E-24));
#729=DIRECTION('',(1.,1.04948489504458E-23,0.));
#730=DIRECTION('',(-1.04948489504458E-23,1.,-4.96295745757333E-24));
#731=DIRECTION('',(1.,1.04948489504458E-23,0.));
#732=DIRECTION('',(-1.04948489504458E-23,1.,-4.96295745757333E-24));
#733=DIRECTION('',(1.,1.04948489504458E-23,0.));
#734=DIRECTION('',(-1.0004728065662E-16,1.,2.77555756156258E-16));
#735=DIRECTION('',(0.,-2.77555756156258E-16,1.));
#736=DIRECTION('',(-1.0004728065662E-16,1.,2.77555756156258E-16));
#737=DIRECTION('',(0.,-2.77555756156258E-16,1.));
#738=DIRECTION('',(-1.0004728065662E-16,1.,2.77555756156258E-16));
#739=DIRECTION('',(0.,-2.77555756156258E-16,1.));
#740=DIRECTION('',(1.0004728065662E-16,-1.,-5.66384021509486E-14));
#741=DIRECTION('',(0.,5.66384021509486E-14,-1.));
#742=DIRECTION('',(-1.0004728065662E-16,1.,2.77555756156258E-16));
#743=DIRECTION('',(0.,-2.77555756156258E-16,1.));
#744=DIRECTION('',(-1.0004728065662E-16,1.,5.66384021509486E-14));
#745=DIRECTION('',(0.,-5.66384021509486E-14,1.));
#746=CARTESIAN_POINT('',(0.,0.,0.));
#747=CARTESIAN_POINT('',(0.064547286691286,0.0250019999999957,0.0287500024843525));
#748=CARTESIAN_POINT('',(0.0511122578487316,0.005337345397567,0.0287500024843514));
#749=CARTESIAN_POINT('',(0.0511122578487316,0.002587345397567,0.0287500024843512));
#750=CARTESIAN_POINT('',(0.0511122578487316,-0.0215327122875218,0.0287500024843498));
#751=CARTESIAN_POINT('',(0.0511122578487316,-0.0242827122875218,0.0287500024843497));
#752=CARTESIAN_POINT('',(0.0779823155338213,0.005337345397567,0.0287500024843514));
#753=CARTESIAN_POINT('',(0.0779823155338213,0.002587345397567,0.0287500024843512));
#754=CARTESIAN_POINT('',(0.0779823155338213,-0.0215327122875218,0.0287500024843498));
#755=CARTESIAN_POINT('',(0.0779823155338213,-0.0242827122875218,0.0287500024843497));
#756=CARTESIAN_POINT('',(0.064547286691274,-0.0080976834449775,0.0287500024843507));
#757=CARTESIAN_POINT('',(0.064547286691274,-0.0222476834449775,0.0287500024843498));
#758=CARTESIAN_POINT('',(0.064547286691286,0.025,0.0287500024843525));
#759=CARTESIAN_POINT('',(0.0405472866912862,0.025,0.0287500024843528));
#760=CARTESIAN_POINT('',(0.0885472866912858,0.025,0.0287500024843528));
#761=CARTESIAN_POINT('',(0.0405472866912862,0.0250019999999957,0.0287500024843528));
#762=CARTESIAN_POINT('',(0.0405472866912862,-0.0270976834453297,0.0287500024843498));
#763=CARTESIAN_POINT('',(0.064547286691286,-0.0270976834453296,0.0287500024843496));
#764=CARTESIAN_POINT('',(0.0885472866912858,-0.0270976834453296,0.0287500024843498));
#765=CARTESIAN_POINT('',(0.0885472866912858,0.0250019999999957,0.0287500024843528));
#766=CARTESIAN_POINT('',(0.0405472866912862,0.0250019999999973,0.00175000124217639));
#767=CARTESIAN_POINT('',(0.0405472866912862,0.025,0.00175000124217639));
#768=CARTESIAN_POINT('',(0.0405472866912862,0.025,0.0265));
#769=CARTESIAN_POINT('',(0.0405472866912862,0.0250019999999973,0.0265));
#770=CARTESIAN_POINT('',(0.0405472866912862,-3.01286379674721E-15,0.0265));
#771=CARTESIAN_POINT('',(0.0405472866912862,-1.28269995073456E-16,-0.024375));
#772=CARTESIAN_POINT('',(0.0405472866912862,-1.47451495458029E-15,-0.0252500000000014));
#773=CARTESIAN_POINT('',(0.0405472866912862,0.0250019999999988,-0.02525));
#774=CARTESIAN_POINT('',(0.0405472866912862,-0.0270976834453266,-0.025250000000003));
#775=CARTESIAN_POINT('',(0.0405472866912862,-0.0270976834453282,0.00175000124217345));
#776=CARTESIAN_POINT('',(0.064547286691286,0.0250019999999988,-0.02525));
#777=CARTESIAN_POINT('',(0.0511122578487316,0.00533734539757006,-0.0252500000000011));
#778=CARTESIAN_POINT('',(0.0511122578487316,0.00808734539757006,-0.0252500000000009));
#779=CARTESIAN_POINT('',(0.0511122578487316,-0.0215327122875188,-0.0252500000000027));
#780=CARTESIAN_POINT('',(0.0511122578487316,-0.0187827122875188,-0.0252500000000025));
#781=CARTESIAN_POINT('',(0.0779823155338213,0.00533734539757006,-0.0252500000000011));
#782=CARTESIAN_POINT('',(0.0779823155338213,0.00808734539757006,-0.0252500000000009));
#783=CARTESIAN_POINT('',(0.0779823155338213,-0.0215327122875188,-0.0252500000000027));
#784=CARTESIAN_POINT('',(0.0779823155338213,-0.0187827122875188,-0.0252500000000025));
#785=CARTESIAN_POINT('',(0.064547286691274,-0.00809768344497444,-0.0252500000000019));
#786=CARTESIAN_POINT('',(0.064547286691274,0.00605231655502556,-0.025250000000001));
#787=CARTESIAN_POINT('',(0.064547286691286,0.025,-0.02525));
#788=CARTESIAN_POINT('',(0.0285472866912862,0.025,-0.02525));
#789=CARTESIAN_POINT('',(0.100547286691286,0.025,-0.02525));
#790=CARTESIAN_POINT('',(0.100547286691286,0.0250019999999988,-0.02525));
#791=CARTESIAN_POINT('',(0.100547286691286,-9.94133942387754E-17,-0.0252500000000014));
#792=CARTESIAN_POINT('',(0.103547286691286,-9.91132523968055E-17,-0.0252500000000014));
#793=CARTESIAN_POINT('',(0.0885472866912858,-1.00613961606655E-16,-0.0252500000000014));
#794=CARTESIAN_POINT('',(0.0885472866912858,0.0250019999999988,-0.02525));
#795=CARTESIAN_POINT('',(0.0885472866912858,-0.0270976834453266,-0.025250000000003));
#796=CARTESIAN_POINT('',(0.064547286691286,-0.0270976834453266,-0.025250000000003));
#797=CARTESIAN_POINT('',(0.0255472866912862,-1.06916940288022E-16,-0.0252500000000014));
#798=CARTESIAN_POINT('',(0.0285472866912862,-1.06616798446052E-16,-0.0252500000000014));
#799=CARTESIAN_POINT('',(0.0285472866912862,0.025,-0.02525));
#800=CARTESIAN_POINT('',(0.0885472866912858,0.0250019999999973,0.00175000124217639));
#801=CARTESIAN_POINT('',(0.0885472866912858,-1.23467725601938E-16,-0.024375));
#802=CARTESIAN_POINT('',(0.0885472866912858,-3.00806152727569E-15,0.0265));
#803=CARTESIAN_POINT('',(0.0885472866912858,0.0250019999999973,0.0265));
#804=CARTESIAN_POINT('',(0.0885472866912858,0.025,0.0265));
#805=CARTESIAN_POINT('',(0.0885472866912858,0.025,0.00175000124217639));
#806=CARTESIAN_POINT('',(0.0885472866912858,-0.0270976834453282,0.00175000124217344));
#807=CARTESIAN_POINT('',(0.064547286691286,-0.0270976834453284,0.00675000124217348));
#808=CARTESIAN_POINT('',(0.0645472866912865,0.025,-0.0462499975156477));
#809=CARTESIAN_POINT('',(0.0325472869246985,0.025,-0.018));
#810=CARTESIAN_POINT('',(0.0352972869246986,0.025,-0.018));
#811=CARTESIAN_POINT('',(0.0965472869246985,0.025,-0.018));
#812=CARTESIAN_POINT('',(0.0992972869246985,0.025,-0.018));
#813=CARTESIAN_POINT('',(0.0965472869246985,0.025,0.018));
#814=CARTESIAN_POINT('',(0.0992972869246985,0.025,0.018));
#815=CARTESIAN_POINT('',(0.0325472869246985,0.025,0.018));
#816=CARTESIAN_POINT('',(0.0352972869246986,0.025,0.018));
#817=CARTESIAN_POINT('',(0.103547286691286,0.025,0.0235));
#818=CARTESIAN_POINT('',(0.100547286691286,0.025,0.0235));
#819=CARTESIAN_POINT('',(0.0915472866912858,0.025,0.0235));
#820=CARTESIAN_POINT('',(0.100547286691286,0.025,0.0205));
#821=CARTESIAN_POINT('',(0.103547286691286,0.025,0.0205));
#822=CARTESIAN_POINT('',(0.103547286691286,0.025,0.00175000124217639));
#823=CARTESIAN_POINT('',(0.103547286691286,0.025,-0.02225));
#824=CARTESIAN_POINT('',(0.100547286691286,0.025,-0.02225));
#825=CARTESIAN_POINT('',(0.0285472866912862,0.025,-0.02225));
#826=CARTESIAN_POINT('',(0.0255472866912862,0.025,-0.02225));
#827=CARTESIAN_POINT('',(0.0255472866912862,0.025,0.00175000124217639));
#828=CARTESIAN_POINT('',(0.0255472866912862,0.025,0.0205));
#829=CARTESIAN_POINT('',(0.0285472866912862,0.025,0.0205));
#830=CARTESIAN_POINT('',(0.0285472866912862,0.025,0.0235));
#831=CARTESIAN_POINT('',(0.0255472866912862,0.025,0.0235));
#832=CARTESIAN_POINT('',(0.0375472866912862,0.025,0.0235));
#833=CARTESIAN_POINT('',(0.0375472866912862,0.025,0.0265));
#834=CARTESIAN_POINT('',(0.0915472866912858,0.025,0.0265));
#835=CARTESIAN_POINT('',(0.064547286691274,-0.00809768344496839,-0.132052313682707));
#836=CARTESIAN_POINT('',(0.0779823155338213,-0.0215327122875127,-0.132052313682708));
#837=CARTESIAN_POINT('',(0.0779823155338213,0.00533734539757611,-0.132052313682707));
#838=CARTESIAN_POINT('',(0.0511122578487316,-0.0215327122875127,-0.132052313682708));
#839=CARTESIAN_POINT('',(0.0511122578487316,0.00533734539757611,-0.132052313682707));
#840=CARTESIAN_POINT('',(0.103547286691286,-1.21967016392089E-16,-0.024375));
#841=CARTESIAN_POINT('',(0.0965472869246985,-4.71844785465692E-16,-0.018));
#842=CARTESIAN_POINT('',(0.0965472869246985,-3.1592079618603E-16,-0.02075));
#843=CARTESIAN_POINT('',(0.0965472869246985,-2.52575738102223E-15,0.018));
#844=CARTESIAN_POINT('',(0.0965472869246985,-2.36983339174257E-15,0.01525));
#845=CARTESIAN_POINT('',(0.103547286691286,-1.21967016392089E-16,-0.024375));
#846=CARTESIAN_POINT('',(0.103547286691286,-2.42453735380838E-16,-0.0222500000000014));
#847=CARTESIAN_POINT('',(0.103547286691286,-2.66636302327384E-15,0.0205));
#848=CARTESIAN_POINT('',(0.100547286691286,-2.66626998257636E-15,0.0205));
#849=CARTESIAN_POINT('',(0.100547286691286,-2.83680703933018E-15,0.0235));
#850=CARTESIAN_POINT('',(0.103547286691286,-2.83650689748821E-15,0.0235));
#851=CARTESIAN_POINT('',(0.0915472866912858,-2.83770746485609E-15,0.0235));
#852=CARTESIAN_POINT('',(0.0915472866912858,-3.00801050734379E-15,0.0265));
#853=CARTESIAN_POINT('',(0.100547286691286,-2.42861286636753E-16,-0.0222500000000014));
#854=CARTESIAN_POINT('',(0.103547286691286,0.0124999999999986,0.0235));
#855=CARTESIAN_POINT('',(0.0915472866912858,0.0124999999999986,0.0235));
#856=CARTESIAN_POINT('',(0.100547286691286,0.0124999999999986,0.0235));
#857=CARTESIAN_POINT('',(0.103547286691286,-0.00104884172266483,0.00175000124217491));
#858=CARTESIAN_POINT('',(0.103547286691286,-0.00104884172266483,0.0205));
#859=CARTESIAN_POINT('',(0.103547286691286,-0.00104884172266347,-0.0222500000000015));
#860=CARTESIAN_POINT('',(0.0255472866912862,-1.29770704283305E-16,-0.024375));
#861=CARTESIAN_POINT('',(0.0325472869246985,-4.9960036108132E-16,-0.018));
#862=CARTESIAN_POINT('',(0.0325472869246985,-6.55524350360982E-16,-0.01525));
#863=CARTESIAN_POINT('',(0.0325472869246985,-2.55351295663786E-15,0.018));
#864=CARTESIAN_POINT('',(0.0325472869246985,-2.70943694591752E-15,0.02075));
#865=CARTESIAN_POINT('',(0.0255472866912862,-2.84431058537943E-15,0.0235));
#866=CARTESIAN_POINT('',(0.0285472866912862,-2.84401044353746E-15,0.0235));
#867=CARTESIAN_POINT('',(0.0375472866912862,-2.84311001801155E-15,0.0235));
#868=CARTESIAN_POINT('',(0.0285472866912862,-2.67385939778375E-15,0.0205));
#869=CARTESIAN_POINT('',(0.0255472866912862,-2.67416671116507E-15,0.0205));
#870=CARTESIAN_POINT('',(0.0255472866912862,-1.29770704283305E-16,-0.024375));
#871=CARTESIAN_POINT('',(0.0255472866912862,-2.50257423272055E-16,-0.0222500000000014));
#872=CARTESIAN_POINT('',(0.0285472866912862,-2.4980018054066E-16,-0.0222500000000014));
#873=CARTESIAN_POINT('',(0.0375472866912862,-3.01321467777172E-15,0.0265));
#874=CARTESIAN_POINT('',(0.0255472866912862,0.0124999999999986,0.0235));
#875=CARTESIAN_POINT('',(0.0375472866912862,0.0124999999999986,0.0235));
#876=CARTESIAN_POINT('',(0.0285472866912862,0.0124999999999986,0.0235));
#877=CARTESIAN_POINT('',(0.0255472866912862,-0.00104884172266483,0.00175000124217491));
#878=CARTESIAN_POINT('',(0.0255472866912862,-0.00104884172266484,0.0205));
#879=CARTESIAN_POINT('',(0.0255472866912862,-2.76771695825773E-16,-0.0222500000000014));
#880=CARTESIAN_POINT('',(0.0325472869246985,-0.135802316167058,0.018));
#881=CARTESIAN_POINT('',(0.0325472869246985,-0.135802316167058,-0.018));
#882=CARTESIAN_POINT('',(0.0965472869246985,-0.135802316167058,0.018));
#883=CARTESIAN_POINT('',(0.0965472869246985,-0.135802316167058,-0.018));
#884=CARTESIAN_POINT('',(0.0915472866912858,0.0250019999999973,0.0265));
#885=CARTESIAN_POINT('',(0.0375472866912862,0.0124999999999986,0.0265));
#886=CARTESIAN_POINT('',(0.100547286691286,0.0124999999999986,0.0205));
#887=CARTESIAN_POINT('',(0.100547286691286,0.0250019999999987,-0.02225));
#888=CARTESIAN_POINT('',(0.0285472866912862,-0.00104884172266484,0.0205));
#889=CARTESIAN_POINT('',(0.0285472866912862,-0.00104884172266347,-0.0222500000000015));
#890=MECHANICAL_DESIGN_GEOMETRIC_PRESENTATION_REPRESENTATION('',(#525),
#891);
#891=(
GEOMETRIC_REPRESENTATION_CONTEXT(3)
GLOBAL_UNCERTAINTY_ASSIGNED_CONTEXT((#892))
GLOBAL_UNIT_ASSIGNED_CONTEXT((#895,#894,#893))
REPRESENTATION_CONTEXT('BallScrewConnecter0','TOP_LEVEL_ASSEMBLY_PART')
);
#892=UNCERTAINTY_MEASURE_WITH_UNIT(LENGTH_MEASURE(1.E-8),#895,
'DISTANCE_ACCURACY_VALUE','Maximum Tolerance applied to model');
#893=(
NAMED_UNIT(*)
SI_UNIT($,.STERADIAN.)
SOLID_ANGLE_UNIT()
);
#894=(
NAMED_UNIT(*)
PLANE_ANGLE_UNIT()
SI_UNIT($,.RADIAN.)
);
#895=(
LENGTH_UNIT()
NAMED_UNIT(*)
SI_UNIT($,.METRE.)
);
#896=PRODUCT_DEFINITION_SHAPE('','',#897);
#897=PRODUCT_DEFINITION('','',#899,#898);
#898=PRODUCT_DEFINITION_CONTEXT('',#905,'design');
#899=PRODUCT_DEFINITION_FORMATION_WITH_SPECIFIED_SOURCE('','',#901,
 .NOT_KNOWN.);
#900=PRODUCT_RELATED_PRODUCT_CATEGORY('','',(#901));
#901=PRODUCT('BallScrewConnecter0','BallScrewConnecter0',
'BallScrewConnecter0',(#903));
#902=PRODUCT_CATEGORY('','');
#903=PRODUCT_CONTEXT('',#905,'mechanical');
#904=APPLICATION_PROTOCOL_DEFINITION('international standard',
'ap242_managed_model_based_3d_engineering',2020,#905);
#905=APPLICATION_CONTEXT('managed model based 3d engineering');
ENDSEC;
END-ISO-10303-21;
